<?xml version="1.0" encoding="UTF-8"?>
<!-- Generator: visioncortex VTracer 0.6.12 -->
<svg version="1.1" xmlns="http://www.w3.org/2000/svg" width="600" height="600" viewBox="0 0 600 600" role="img" aria-label="Big">
<path d="M0 0 C198 0 396 0 600 0 C600 198 600 396 600 600 C402 600 204 600 0 600 C0 402 0 204 0 0 Z " fill="#EDF2ED" transform="translate(0,0)"/>
<path d="M0 0 C1.5 -0 3 -0 4.5 -0 C30 -0.1 56 4.8 78.9 16.2 C80.1 16.8 81.4 17.3 82.6 17.9 C128.3 40.1 159.6 78.5 177.1 125.8 C190.1 163.9 191.7 207.8 178.9 246.2 C178.6 247.5 178.2 248.7 177.8 250 C175 259.6 171.4 268.3 166.9 277.2 C166.2 278.6 165.6 280 164.8 281.4 C160 291 154.5 299.7 147.9 308.2 C147.6 308.6 147.6 308.6 145.9 310.8 C133.6 326.8 119.4 339.6 102.9 351.2 C101.9 352 100.8 352.7 99.7 353.5 C96.9 355.2 96.9 355.2 93.9 355.2 C93.9 355.8 93.9 356.5 93.9 357.2 C90.6 358.8 87.4 360.4 84.1 361.9 C83.1 362.4 82.2 362.8 81.3 363.3 C72.2 367.6 63 371.3 53.4 374.3 C51.8 374.8 50.2 375.3 48.6 375.8 C20.3 384.1 -11.6 384.9 -40.1 377.2 C-41.8 376.7 -43.6 376.3 -45.4 375.8 C-55 373.3 -64.1 370.7 -73.1 366.2 C-74.8 365.5 -76.6 364.8 -78.4 364.1 C-82.5 362.4 -85.5 360.7 -89.1 358.2 C-90.7 357.4 -92.3 356.5 -93.9 355.7 C-105.8 349.3 -116.4 340.5 -126.1 331.2 C-127 330.3 -127.9 329.5 -128.9 328.6 C-164 294.8 -184.7 244.7 -186.1 196.2 C-186.1 195 -186.1 193.7 -186.2 192.5 C-186.7 159.3 -179 126.3 -163.1 97.2 C-162.4 96 -161.8 94.8 -161.1 93.6 C-154.7 81.9 -147.2 71.2 -138.1 61.4 C-136.3 59.4 -134.5 57.3 -132.8 55.2 C-105.2 24.9 -66.4 7 -26.1 1.2 C-25.4 1.1 -25.4 1.1 -22.2 0.6 C-14.8 -0 -7.4 0 0 0 Z " fill="#CA3424" transform="translate(240.0625,87.8125)"/>
<path d="M0 0 C198 0 396 0 600 0 C600 33 600 66 600 100 C402 100 204 100 0 100 C0 67 0 34 0 0 Z " fill="#D5E4D7" transform="translate(0,500)"/>
<path d="M0 0 C34.9 29.2 55.6 76 59.8 120.8 C61.6 146.4 60.2 172.5 52 197 C51.6 198.3 51.3 199.5 50.9 200.9 C48.1 210.4 44.5 219.1 40 228 C39.3 229.4 38.6 230.8 37.9 232.2 C33 241.8 27.5 250.5 21 259 C20.7 259.4 20.7 259.4 19 261.6 C6.6 277.6 -7.6 290.4 -24 302 C-25.1 302.8 -26.2 303.5 -27.3 304.3 C-30 306 -30 306 -33 306 C-33 306.7 -33 307.3 -33 308 C-36.3 309.6 -39.6 311.2 -42.9 312.8 C-43.8 313.2 -44.7 313.6 -45.7 314.1 C-54.7 318.4 -63.9 322.1 -73.6 325.1 C-75.1 325.6 -76.7 326.1 -78.3 326.6 C-106.6 334.9 -138.5 335.7 -167 328 C-168.7 327.6 -170.5 327.1 -172.3 326.6 C-182 324.1 -191.1 321.5 -200 317 C-201.8 316.3 -203.5 315.6 -205.3 314.9 C-209.4 313.2 -212.4 311.5 -216 309 C-217.6 308.2 -219.2 307.4 -220.9 306.5 C-235.7 298.5 -248.3 286.9 -260 275 C-259.7 274.3 -259.3 273.7 -259 273 C-257.9 273.8 -256.8 274.6 -255.7 275.4 C-238.8 286.6 -218.8 293.5 -199 297 C-198.5 297.1 -198.5 297.1 -195.8 297.6 C-162.4 303.2 -125.8 297.8 -95 284 C-93.6 283.4 -92.3 282.8 -90.9 282.2 C-62.6 269.4 -37.1 249.5 -18 225 C-17.1 223.9 -16.3 222.8 -15.4 221.6 C16.5 179.6 31.6 126.9 25.8 74.4 C22.1 49.8 14.2 27.2 2 5.6 C0 2 0 2 0 0 Z " fill="#AD2A1C" transform="translate(367,137)"/>
<path d="M0 0 C6.4 5.3 10 10.9 12 19 C14 43.8 1.2 65.3 -14.2 83.6 C-32.6 104.2 -57.1 123 -85.6 125.4 C-96.2 125.7 -104.4 124.8 -113.4 118.8 C-121.7 110.1 -123.5 101.4 -123.2 89.8 C-121.7 64.9 -103.8 41.7 -86.1 25.2 C-64.1 6.3 -29.3 -15 0 0 Z " fill="#D74734" transform="translate(218,119)"/>
<path d="M0 0 C0.4 11 0.7 22 0.9 32.9 C1 36.7 1.1 40.4 1.3 44.1 C1.4 49.5 1.6 54.9 1.7 60.3 C1.7 61.9 1.8 63.6 1.9 65.3 C2 76.9 2 76.9 -2.8 82.2 C-3.7 82.6 -3.7 82.6 -8 85 C-8.9 85.6 -9.7 86.3 -10.6 86.9 C-19.4 93.1 -27.6 92.9 -38 92.7 C-38.8 92.7 -38.8 92.7 -42.6 92.7 C-48.1 92.6 -53.7 92.5 -59.2 92.4 C-71.7 92.3 -84.2 92.1 -97 92 C-97 66.6 -97 41.2 -97 15 C-60.1 15.2 -60.1 15.2 -48.5 15.4 C-18.5 15.5 -18.5 15.5 -6.6 4.8 C-5.8 3.9 -4.9 2.9 -4 2 C-1 0 -1 0 0 0 Z " fill="#BE8D85" transform="translate(537,378)"/>
<path d="M0 0 C1.6 0 3.1 0 4.7 0 C6.4 0 8.1 0 9.9 0 C11.6 0 13.3 0 15.1 0 C20.7 0 26.2 0 31.7 0.1 C35.5 0.1 39.2 0.1 43 0.1 C52.2 0.1 61.4 0.1 70.6 0.1 C69.3 1.4 68 2.8 66.6 4.1 C65.8 5 64.9 5.9 64.1 6.9 C49.6 19.7 30.2 16.3 12.1 15.8 C8.6 15.7 5 15.7 1.5 15.7 C-7.1 15.5 -15.8 15.3 -24.4 15.1 C-21.1 11.8 -17.7 8.5 -14.2 5.4 C-13.3 4.6 -12.5 3.8 -11.6 3 C-7.7 -0.3 -5.1 -0 0 0 Z " fill="#D1E4CE" transform="translate(465.38720703125,377.886474609375)"/>
<path d="M0 0 C0.3 0 0.7 0 1 0 C1 6.6 1 13.2 1 20 C26.1 20 51.2 20 77 20 C76 22 76 22 73 24 C73 23.3 73 22.7 73 22 C65.7 22 58.3 22 51 21.9 C48.5 21.9 46 21.9 43.5 21.9 C29 21.9 14.5 22 0 23 C-1 18 -0.8 14 0 9 C-1.3 8.3 -2.6 7.7 -4 7 C-3 6.3 -2 5.7 -1 5 C-0.7 3.4 -0.3 1.7 0 0 Z " fill="#D1E4CE" transform="translate(439,450)"/>
</svg>
