<?xml version="1.0" encoding="UTF-8"?>
<!-- Generator: visioncortex VTracer 0.6.12 -->
<svg version="1.1" xmlns="http://www.w3.org/2000/svg" width="600" height="600" viewBox="0 0 600 600" role="img" aria-label="Fish">
<path d="M0 0 C198 0 396 0 600 0 C600 198 600 396 600 600 C402 600 204 600 0 600 C0 402 0 204 0 0 Z " fill="#EDF2EE" transform="translate(0,0)"/>
<path d="M0 0 C1.2 -0 2.4 -0.1 3.6 -0.1 C7.7 0.4 9.2 1.4 12 4.3 C12.5 5.8 13 7.3 13.5 8.9 C15 13.3 15 13.3 20 16.3 C25.5 17.6 31 18.7 36.6 19.8 C44.5 22 48.8 24.3 53 31.3 C53.4 32.9 53.8 34.4 54.2 36.1 C57.9 42.9 62.2 44.7 69 48.2 C77.9 53 83.5 59.3 88 68.3 C89.5 74.4 89.1 77.9 86 83.3 C83.7 86 81.3 88.7 79 91.3 C79 94.3 79 94.3 81.8 97.2 C83 98.3 84.2 99.4 85.5 100.6 C86.8 101.7 88.1 102.9 89.4 104.1 C93.2 107.5 97.1 111 101 114.3 C102.1 115.3 103.1 116.2 104.2 117.2 C121 131.9 121 131.9 129.5 132.8 C140.8 129.1 146.6 118.9 153 109.6 C168.7 87.1 190.6 68.3 218 62.3 C226 61.7 226 61.7 230.1 64.3 C232 66.3 232 66.3 232 70.2 C231.3 77.4 227.9 83.5 224.9 89.9 C221.2 98.3 220 106.5 218.6 115.6 C216.3 130.5 212 142.2 204 155.1 C201.7 160 201.3 162.9 202 168.3 C204 172.6 204 172.6 206.7 176.9 C213.5 188.6 216.6 199.6 218.9 212.9 C220.9 223.8 223.9 233.4 229.8 242.8 C232.2 246.6 233.2 248.9 233 253.3 C231.4 256.2 231.4 256.2 228 258.3 C210.1 261.3 191.3 252.2 177 242.2 C174.6 240.3 172.3 238.3 170 236.3 C168.5 235.1 167 233.8 165.4 232.5 C160.4 227.9 156.2 222.7 152 217.3 C150.6 215.5 149.1 213.7 147.7 211.9 C145.8 209.5 143.9 207.1 142 204.7 C138.4 200.4 133.9 198 128.6 196.2 C118.2 196.5 109.7 205.2 102 211.3 C99.6 213.2 97.1 215.1 94.7 216.9 C93.6 217.8 92.5 218.6 91.4 219.5 C90.6 220.1 89.8 220.7 89 221.3 C90 221.8 91 222.3 92 222.8 C109.1 231.5 109.1 231.5 112.4 239.8 C111.8 245.1 108.7 247.7 105 251.3 C104.1 252.3 103.1 253.3 102.2 254.3 C93.9 263 86.3 269.3 73.9 269.6 C61.6 269.5 48.8 263.4 39.6 255.3 C37 253.3 37 253.3 34.4 253.5 C29.9 254.6 25.7 256.1 21.3 257.6 C-0.5 265 -22 267.8 -45 267.3 C-44.2 268.7 -43.4 270.2 -42.5 271.7 C-36 283 -36 283 -34.5 285.8 C-33.2 288 -31.9 290.1 -30.5 292.2 C-29 295.3 -29 295.3 -30 300.3 C-37.3 304.4 -43.7 303.5 -51.4 301.4 C-70.8 294.9 -85.4 282.9 -96 265.3 C-96.4 264.3 -96.8 263.3 -97.3 262.3 C-99.4 258.6 -100.7 258.2 -104.8 257 C-105.9 256.6 -107.1 256.2 -108.3 255.8 C-109.6 255.5 -110.8 255.1 -112.1 254.7 C-148.9 242.8 -189.3 221.5 -211 188.3 C-213 184.3 -213 184.3 -213 178.3 C-214.3 177.7 -215.6 177 -217 176.3 C-220.8 170.4 -221.4 167.1 -220 160.3 C-199.8 113.3 -158.9 80.6 -113 60.9 C-104.2 57.4 -95.5 54.7 -86.1 53.3 C-79.1 51.8 -76.6 47.7 -72.6 42 C-56.8 20 -27.7 0.6 0 0 Z " fill="#88BEE0" transform="translate(301,143.6875)"/>
<path d="M0 0 C198 0 396 0 600 0 C600 33 600 66 600 100 C402 100 204 100 0 100 C0 67 0 34 0 0 Z " fill="#D5E4D7" transform="translate(0,500)"/>
<path d="M0 0 C3.1 2 3.1 2 5 4 C5 12.9 1.6 19.6 -2.1 27.6 C-5.8 36 -7 44.2 -8.4 53.2 C-10.7 68.2 -15 79.9 -23 92.7 C-25.3 97.7 -25.7 100.6 -25 106 C-23 110.3 -23 110.3 -20.3 114.6 C-13.5 126.3 -10.4 137.3 -8.1 150.6 C-6.1 161.5 -3.1 171.1 2.8 180.5 C5.2 184.3 6.2 186.5 6 191 C4.4 193.9 4.4 193.9 1 196 C-16.9 199 -35.7 189.9 -50 179.9 C-52.4 178 -54.7 176 -57 174 C-57.8 173.4 -57.8 173.4 -61.6 170.2 C-66.6 165.6 -70.8 160.4 -75 155 C-76.4 153.2 -77.9 151.4 -79.3 149.6 C-81.2 147.2 -83.1 144.8 -85 142.4 C-89 137.6 -94.3 135.3 -100 133 C-96 130 -96 130 -93.1 128.4 C-86.3 123 -84.2 114.9 -83.2 106.6 C-82.8 97.2 -83.4 86.7 -89 79 C-93.8 75.5 -93.8 75.5 -98 73 C-98 72.3 -98 71.7 -98 71 C-96.8 70.5 -95.6 70 -94.4 69.4 C-86.8 65.2 -82.1 59 -77.2 51.9 C-60.6 27.9 -32.4 -2.8 0 0 Z " fill="#4C97C8" transform="translate(528,206)"/>
<path d="M0 0 C1.2 -0 2.4 -0.1 3.6 -0.1 C7.7 0.4 9.2 1.4 12 4.3 C12.5 5.8 13 7.3 13.5 8.9 C15 13.3 15 13.3 20 16.3 C25.5 17.6 31 18.7 36.6 19.8 C44.5 22 48.8 24.3 53 31.3 C53.4 32.9 53.8 34.4 54.2 36.1 C57.9 42.9 62.2 44.7 69 48.2 C77.9 53 83.5 59.3 88 68.3 C89.5 74.4 89.1 77.9 86 83.3 C79.9 91.1 79.9 91.1 75 92.3 C72.6 90.5 70.2 88.6 67.9 86.6 C26 53 -27.6 48.1 -79 51.3 C-75 43.9 -69.8 38.4 -64 32.3 C-62.7 31 -61.5 29.6 -60.2 28.2 C-44.1 13.3 -22.4 0.5 0 0 Z " fill="#4B96C7" transform="translate(301,143.6875)"/>
<path d="M0 0 C3.8 5.1 4.4 8.5 3.7 14.8 C0.7 30.1 -7.2 45.1 -19.7 54.5 C-26.5 58.5 -31.2 59.6 -39 59 C-46.1 56.2 -51 52.4 -56.5 47.2 C-60.3 43.8 -64.5 41.5 -69 39 C-68.1 37.7 -67.1 36.4 -66.2 35 C-63.3 30.3 -62.4 26.3 -61.8 20.8 C-60.7 14.7 -60.4 13.4 -55.8 8.9 C-53.9 7.9 -51.9 6.9 -50 6 C-48.8 5.4 -47.7 4.8 -46.5 4.1 C-32.8 -2.7 -13.9 -9.4 0 0 Z " fill="#ABC8C2" transform="translate(284,315)"/>
<path d="M0 0 C0 0.3 0 0.7 0 1 C-9.3 1.4 -17.2 0.1 -26.2 -2.2 C-28.9 -2.8 -31.5 -3.5 -34.2 -4.1 C-35.5 -4.4 -36.8 -4.8 -38.1 -5.1 C-43.9 -6.4 -49.6 -7.7 -55.4 -8.9 C-57.2 -9.3 -59.1 -9.7 -61 -10.1 C-90.9 -15.7 -119 -10.7 -147.7 -2.2 C-181.7 8 -209.8 5.9 -243.5 -4.8 C-278 -15.7 -311.3 -12.2 -345.9 -3.7 C-350.8 -2.5 -355.6 -1.4 -360.5 -0.3 C-361.6 -0 -362.7 0.2 -363.9 0.5 C-367 1 -367 1 -373 1 C-354.5 -17.5 -313.5 -21.2 -288.6 -21.2 C-270.2 -21.2 -253.9 -17.9 -236.3 -12.8 C-202.4 -3 -174.8 -4.3 -141.1 -14.7 C-92.4 -29.6 -45.9 -20.2 0 0 Z " fill="#B2CEC5" transform="translate(481,482)"/>
<path d="M0 0 C10.7 7.8 13.5 17.6 16 30 C17.3 35.7 19.2 38.6 23 43 C24.9 46.2 24.9 46.2 26 49 C25.8 49.3 25.8 49.3 25 51 C24.7 50.3 24.7 50.3 23 47 C21.3 46.3 19.7 45.7 18 45 C16.3 44.3 14.7 43.6 13 42.9 C-4.1 36.3 -22.7 40.3 -39.1 47.1 C-51.9 53.1 -63.3 60.8 -74 70 C-76 71.7 -78 73.4 -79.9 75.1 C-80.4 75.4 -80.4 75.4 -82.6 77.3 C-85 79 -85 79 -89 79 C-85.2 63.8 -69.6 49.1 -59 38 C-58 37 -57.1 36 -56.1 34.9 C-44.7 23.2 -32 14.3 -18 6 C-16.8 5.3 -15.5 4.5 -14.3 3.8 C-5.6 -1.1 -5.6 -1.1 0 0 Z " fill="#4C97C9" transform="translate(178,212)"/>
<path d="M0 0 C8.6 2.7 16.3 6.7 22 13.9 C23.3 17.4 23.3 17.4 23 20.9 C20.7 24 18.6 26.3 16 28.9 C15 29.9 14.1 30.9 13.1 31.9 C4.9 40.6 -2.7 47 -15.1 47.3 C-29 47.1 -43.1 39.4 -53 29.9 C-49.1 27.3 -44.9 25.4 -40.7 23.3 C-28.3 17.2 -17.1 10.3 -6.2 1.8 C-3 -0.1 -3 -0.1 0 0 Z " fill="#4A94C6" transform="translate(390.0390625,366.05859375)"/>
<path d="M0 0 C5.8 -0.1 11.5 -0.2 17.3 -0.2 C18.9 -0.3 20.6 -0.3 22.2 -0.4 C32.5 -0.4 41.7 -0.4 49.9 6.4 C50.3 6.9 50.3 6.9 52 9 C52.6 9.7 53.2 10.4 53.8 11.2 C56.4 14.6 58.4 18.1 60.5 21.9 C61.3 23.2 62 24.6 62.8 26 C63.5 27.3 64.2 28.6 65 30 C65.8 31.2 66.5 32.4 67.3 33.7 C69 37 69 37 68 42 C60.7 46 54.3 45.2 46.6 43.1 C27.1 36.6 12.7 24.6 2 7 C0 3 0 3 0 0 Z " fill="#4B95C6" transform="translate(203,402)"/>
<path d="M0 0 C5.8 3.7 8.2 7.1 10.8 13.4 C11.3 20.9 10.9 26 6.8 32.4 C2.1 36.9 -2 39.2 -8.6 39.8 C-15.6 39.2 -19.6 37 -24.6 32.1 C-28.4 26.8 -29.3 23.3 -29.1 16.9 C-27.6 9.3 -24.5 4.9 -18.2 0.4 C-11.5 -2.3 -6.8 -2.6 0 0 Z " fill="#EAF1EC" transform="translate(159.25,276.625)"/>
<path d="M0 0 C4.9 4.6 7.3 8.8 7.8 15.6 C7.4 22 5.6 26.3 0.9 30.8 C-4.3 34.2 -9.4 33.7 -15.5 33.4 C-21 31.1 -23.6 28.5 -26.5 23.4 C-28.4 17.6 -28 12.7 -25.8 7.1 C-20.1 -2.1 -9.9 -4.6 0 0 Z " fill="#93C4E2" transform="translate(154.5,117.625)"/>
<path d="M0 0 C3.8 3 5.3 4.3 6.7 8.9 C7.1 14 7.3 17.6 5.1 22.2 C0.8 27 -1.8 28.7 -8.3 29.4 C-14.6 28.7 -17.1 26.9 -21.6 22.7 C-24.1 18.6 -24.3 15.6 -24.3 10.9 C-22.3 5.5 -20.2 2 -15.3 -1.1 C-9.5 -3.1 -5.5 -2.7 0 0 Z " fill="#94C4E2" transform="translate(127.3125,177.125)"/>
<path d="M0 0 C4.9 2.5 6.1 4.1 9 9 C9.5 14.1 9.6 17.7 7.4 22.4 C4.5 25.6 2.1 26.7 -2 28 C-8.3 28 -10.1 27.6 -15 24 C-17.7 19.9 -19 17.3 -19 12.4 C-16.1 2.6 -10.1 -1 0 0 Z " fill="#4F8CB4" transform="translate(155,282)"/>
<path d="M0 0 C8.2 8.2 9.9 18.5 10 29.6 C9.1 51.5 0.6 70.9 -15.2 86.1 C-19 89 -19 89 -23 90 C-20.7 86.5 -18.3 83.1 -15.8 79.7 C1.1 55.4 2.9 28.5 0 0 Z " fill="#4A94C6" transform="translate(209,280)"/>
<path d="M0 0 C5 3 5 3 7 7 C7.5 11.2 7.5 13.3 5.1 16.9 C2.2 19.8 1.4 20 -2.8 20.3 C-7 20 -7 20 -9.9 18.6 C-13 14.8 -13 11.8 -13 7 C-9 0.4 -7.7 0 0 0 Z " fill="#93C4E2" transform="translate(173,157)"/>
<path d="M0 0 C-1 0.6 -2.1 1.3 -3.1 1.9 C-21.1 12.9 -36.2 26.1 -50 42 C-54.7 47.4 -59.3 52.6 -65 57 C-65.7 56.7 -66.3 56.3 -67 56 C-61 48.1 -54.5 40.5 -48 33 C-46.8 31.6 -45.6 30.2 -44.3 28.7 C-36 19.4 -14 -4.7 0 0 Z " fill="#3A7EAE" transform="translate(514,225)"/>
<path d="M0 0 C3.2 0.7 3.2 0.7 6.2 4.7 C6.2 8.5 5.5 10.2 3.2 13.2 C-0.5 16.3 -4.6 18.4 -8.8 20.7 C-9.8 21.7 -10.8 22.7 -11.8 23.7 C-12.5 23.7 -13.1 23.7 -13.8 23.7 C-14.1 24.7 -14.5 25.7 -14.8 26.7 C-15.5 26.7 -16.1 26.7 -16.8 26.7 C-16.2 17.5 -14.4 10.4 -8 3.6 C-3.8 0.7 -3.8 0.7 0 0 Z " fill="#B2CEC5" transform="translate(493.8125,437.3125)"/>
<path d="M0 0 C6 0.8 7.6 2.8 11.3 7.6 C14.2 14.1 15.9 19.4 15.3 26.6 C14.4 25.7 13.5 24.9 12.6 24.1 C8 20.3 3.2 17.4 -1.9 14.4 C-4.7 12.6 -4.7 12.6 -6.7 9.6 C-6.1 0.9 -6.1 0.9 0 0 Z " fill="#B2CEC5" transform="translate(93.6875,436.4375)"/>
<path d="M0 0 C4.8 1.9 7 3.5 10.7 7 C11.2 7.5 11.2 7.5 13.9 10 C17.5 13.5 21.1 17.1 24.7 20.7 C36.1 32.1 49.1 41 63 49 C61 50 61 50 58.4 49.3 C34.4 40.3 15.5 19.8 0 0 Z " fill="#3A7EAE" transform="translate(450,336)"/>
<path d="M0 0 C0.8 0.2 0.8 0.2 5 1 C5 2.6 5 4.3 5 6 C-3.2 12.8 -10.6 12.7 -21 12 C-26.2 10.2 -29.6 8.3 -34 5 C-34 3.7 -34 2.4 -34 1 C-29 2 -29 2 -24.3 3.6 C-16.2 5.8 -9.5 6.1 -2 2 C-1.3 1.3 -0.7 0.7 0 0 Z " fill="#3D81B1" transform="translate(122,323)"/>
<path d="M0 0 C0.2 0.3 0.2 0.3 1 2 C0.1 2.6 -0.7 3.2 -1.6 3.9 C-7.5 8 -13.2 12.1 -18.9 16.4 C-19.9 17.2 -20.9 17.9 -21.9 18.6 C-24.1 20.3 -26.3 22 -28.6 23.7 C-36.9 30 -45.3 36 -55 40 C-56 39.7 -57 39.3 -58 39 C-57.2 38.4 -56.4 37.9 -55.6 37.3 C-48.6 32.4 -41.8 27.3 -35.1 22 C-24 13.3 -13.1 5.4 0 0 Z " fill="#3A7EAE" transform="translate(505,251)"/>
<path d="M0 0 C15.2 2.1 27.8 12.4 40 21 C43.5 23.4 47 25.8 50.5 28.2 C51.3 28.7 51.3 28.7 55.4 31.5 C56.6 32.4 57.8 33.2 59 34 C58.7 34.2 58.7 34.2 57 35 C43.7 30.3 32.1 22.5 20.9 14 C16.2 10.7 11.2 7.9 6.2 5 C3 3 3 3 0 0 Z " fill="#3A7EAE" transform="translate(447,324)"/>
<path d="M0 0 C7.3 7.3 9.3 16 10 26 C9.9 31 9.5 36 9 41 C8.3 41 7.7 41 7 41 C7 39.7 7 38.4 7 37 C6 37 5 37 4 37 C3.3 38.3 2.7 39.6 2 41 C2 40.1 1.9 39.3 1.9 38.4 C1.8 34.5 1.7 30.6 1.6 26.7 C1.5 25.3 1.5 24 1.4 22.6 C1.2 15 0.8 7.5 0 0 Z " fill="#3F86B6" transform="translate(209,280)"/>
<path d="M0 0 C-1 0.6 -2.1 1.2 -3.1 1.9 C-11.5 7 -19.1 12.1 -26 19 C-26.9 19.9 -27.8 20.8 -28.8 21.7 C-30.5 23.5 -32.2 25.4 -33.9 27.3 C-37 30 -37 30 -40.9 30.4 C-41.4 30.3 -41.4 30.3 -44 30 C-37 18.3 -15.2 -3.8 0 0 Z " fill="#3A7EAE" transform="translate(308,163)"/>
<path d="M0 0 C-0.7 0.5 -1.5 1 -2.2 1.6 C-13.8 10.1 -23.7 19 -32.3 30.5 C-35 33 -35 33 -38.8 33.4 C-39.9 33.2 -40.9 33.1 -42 33 C-35.8 22.6 -13.9 -4.6 0 0 Z " fill="#3A7EAE" transform="translate(281,160)"/>
<path d="M0 0 C-1 0.5 -2 1.1 -3 1.6 C-13.3 7.2 -23.5 13.2 -31.6 21.8 C-32.4 22.5 -33.2 23.3 -34 24 C-37.8 23.8 -37.8 23.8 -41 23 C-35.4 11.8 -19.7 4.5 -8.3 0.4 C-3 -1 -3 -1 0 0 Z " fill="#3A7EAE" transform="translate(330,173)"/>
<path d="M0 0 C7.3 1.9 10.2 5.6 14 12 C15.4 18.7 15 22.9 12 29 C8.4 33.8 6.7 35.7 1 38 C0 37.7 -1 37.3 -2 37 C-1.1 36.4 -0.2 35.7 0.8 35.1 C6 30.1 7.8 25.2 8.6 18.1 C7.8 10.8 5.2 5.2 0 0 Z " fill="#4C98CA" transform="translate(247,268)"/>
<path d="M0 0 C6.5 1.3 8.1 3.8 12 9 C14.6 14.8 14.2 19.8 13 26 C9.7 31.3 7.4 33.7 2 37 C1 36.7 0 36.3 -1 36 C-0.1 34.9 0.9 33.9 1.9 32.8 C6.6 27 7.4 22.4 7.3 15 C6.7 8.9 3.6 4.8 0 0 Z " fill="#4C98CA" transform="translate(268,249)"/>
<path d="M0 0 C6.2 1.2 9.5 3 13.3 8.1 C16.7 13.9 16.6 18.6 14.9 25.1 C12.6 29.7 10.2 32 6 35 C5.2 35.2 5.2 35.2 1 36 C1.9 34.9 2.9 33.9 3.9 32.8 C8.6 27 9.5 22.4 9.4 15 C8.5 8.5 4.5 4.5 0 0 Z " fill="#4C98CA" transform="translate(349,280)"/>
<path d="M0 0 C0.7 0.3 1.3 0.7 2 1 C-12.7 11.3 -31.5 21.6 -50 21 C-45.5 18 -40.5 16.3 -35.5 14.4 C-25.8 10.5 -16.2 6.6 -6.6 2.5 C-3 1 -3 1 0 0 Z " fill="#3A7EAE" transform="translate(499,277)"/>
<path d="M0 0 C5.5 1.3 7.8 3.4 11 8 C14 14.1 14.5 18.4 13 25 C9.9 30.7 7.4 35 1 37 C0.3 36.7 -0.3 36.3 -1 36 C-0.1 34.9 0.9 33.9 1.9 32.8 C6.6 27 7.4 22.4 7.3 15 C6.7 8.9 3.6 4.8 0 0 Z " fill="#4C98CA" transform="translate(288,270)"/>
<path d="M0 0 C6.7 1.3 9.6 3.3 13.9 8.6 C16.5 13.9 16.7 17.2 16 23 C13.9 28.3 11.9 32 7 35 C6.2 35.2 6.2 35.2 2 36 C2.5 35.4 2.5 35.4 4.9 32.4 C9.1 26.5 10.6 22.3 10 15 C8.2 8.2 5.5 5.2 0 1 C0 0.7 0 0.3 0 0 Z " fill="#4C98CA" transform="translate(245,227)"/>
<path d="M0 0 C6.9 1.4 8.9 4.5 13 10 C14.5 16 14.6 20.4 12.4 26.2 C9.1 31.5 6.1 34.5 0 36 C0.9 34.7 1.9 33.3 2.9 31.9 C7.6 24.5 8.8 19.7 7 11 C4.6 6.6 4.6 6.6 2 3 C1.3 2 0.7 1 0 0 Z " fill="#4C98CA" transform="translate(308,288)"/>
<path d="M0 0 C5 3.1 5 3.1 9 6 C9 6.7 9 7.3 9 8 C2.6 9.5 -3.4 10.5 -10 10 C-11 9 -12 8 -13 7 C-12.9 3.9 -12.9 3.9 -12 1 C-7.1 -1.5 -5.3 -1.2 0 0 Z " fill="#B2CEC5" transform="translate(94,464)"/>
<path d="M0 0 C5 1 7.1 1.8 11 5 C14.7 10.8 15.8 15.2 15 22 C12.9 27.3 10.9 31 6 34 C5.2 34.2 5.2 34.2 1 35 C1.3 34.8 1.3 34.8 3 34 C3.7 32.7 4.3 31.4 5 30 C6 28.4 7 26.7 8 25 C10.1 16.4 8.4 11.7 4 4 C2.7 2.7 1.4 1.4 0 0 Z " fill="#4C98CA" transform="translate(327,264)"/>
<path d="M0 0 C5.9 1.2 7.9 2.8 12 7 C15.3 13.3 15.6 18.1 14 25 C10.6 29.6 8.1 32.4 3 35 C2 34.7 1 34.3 0 34 C0.8 33.3 1.5 32.6 2.3 31.8 C6.7 27.3 8 24.5 8.4 18.2 C8.2 10.3 5.6 5.6 0 0 Z " fill="#4B97C9" transform="translate(227,248)"/>
<path d="M0 0 C5.6 0.4 8.8 2.4 13 6 C16.7 11.1 16.5 15.9 16 22 C13.9 26.9 11.5 30.2 7 33 C3.7 33.8 3.7 33.8 1 34 C1.7 33.3 2.5 32.7 3.2 32 C7.4 27.4 9.7 23.2 10.5 17 C9.9 12.2 8.6 9.1 6 5 C2.8 2.5 2.8 2.5 0 1 C0 0.7 0 0.3 0 0 Z " fill="#4C98CA" transform="translate(224,210)"/>
<path d="M0 0 C6 1.2 9.3 3 13.3 7.7 C16.1 13.2 16.6 17.9 14.9 23.8 C12 28.7 9.7 31.4 4.2 33.3 C3.1 33.5 2.1 33.8 1 34 C1.9 32.9 2.9 31.9 3.9 30.8 C8.7 25 9.2 21.4 9.4 14 C9 11 9 11 6 6 C6 5.3 6 4.7 6 4 C4.7 3.3 3.4 2.7 2 2 C1.3 1.3 0.7 0.7 0 0 Z " fill="#4C98CA" transform="translate(349,242)"/>
<path d="M0 0 C2 2 2 2 2 8 C-4.4 12.3 -12.9 9.4 -20 8 C-14.2 0.4 -9.4 -0.5 0 0 Z " fill="#B2CEC5" transform="translate(504,464)"/>
<path d="M0 0 C6.4 1.3 8 4 12 9 C14.1 13.2 13.4 18.4 13 23 C10.9 27.9 8.5 31.1 4 34 C3.2 34.2 3.2 34.2 -1 35 C-0.1 33.8 0.9 32.6 1.9 31.3 C6.7 24.7 7.6 20.1 7 12 C5.1 7.6 5.1 7.6 3 4 C2.7 3 2.3 2 2 1 C1.3 0.7 0.7 0.3 0 0 Z " fill="#4C98CA" transform="translate(309,329)"/>
<path d="M0 0 C18.6 -1.1 35.5 5.2 51 15 C50.7 15.7 50.3 16.3 50 17 C48.5 16.4 47 15.9 45.4 15.3 C30.5 9.7 15.4 5.1 0 1 C0 0.7 0 0.3 0 0 Z " fill="#3A7EAE" transform="translate(448,315)"/>
<path d="M0 0 C5.8 1.2 7.8 2.9 12 7 C14.3 12.8 14.4 16.8 14 23 C11.7 27.9 8.2 30.7 4 34 C3 33.7 2 33.3 1 33 C2 31.8 2.9 30.5 3.9 29.2 C7.9 23.7 8.6 19.7 8 13 C5.8 7.9 3.9 3.9 0 0 Z " fill="#4C98CA" transform="translate(329,304)"/>
<path d="M0 0 C7.3 1.9 10.2 5.6 14 12 C15.8 17.6 14.2 21.7 12 27 C8.9 31.7 6.5 33.7 1 35 C2.5 32.5 4.1 30 5.6 27.5 C8.5 22.3 8.4 17.9 8 12 C5.8 7.2 3.7 3.7 0 0 Z " fill="#4C98CA" transform="translate(288,312)"/>
<path d="M0 0 C5.5 1.1 6.5 1.9 10 6 C13.2 11.3 13.8 14 14 20 C12.5 24.7 10.5 28.5 7 32 C3.8 33.3 3.8 33.3 1 34 C1.8 32.7 2.6 31.5 3.4 30.2 C7.3 23.8 7.5 18.4 7 11 C5.4 6.7 3 3.5 0 0 Z " fill="#4C98CA" transform="translate(285,230)"/>
<path d="M0 0 C5.9 1.3 8.4 4.2 12 9 C13.6 13.9 13.4 17.7 11.8 22.6 C9.2 27.4 6.8 30.3 1.7 32.3 C1.2 32.4 1.2 32.4 -1 33 C-0.1 31.7 0.9 30.4 1.9 29.1 C5.7 22.8 7.4 18.2 6.4 10.9 C4.9 6.6 2.8 3.5 0 0 Z " fill="#4C98CA" transform="translate(352,320)"/>
<path d="M0 0 C6.6 1.8 10.2 3.3 14 9 C15.9 14.8 15.8 20.3 13.3 25.9 C11.1 28.9 9 30.9 6 33 C5 32.7 4 32.3 3 32 C3.4 31.5 3.4 31.5 5.4 28.7 C9.4 23 9.4 18.9 9 12 C6.8 7 4 3.6 0 0 Z " fill="#4C98CA" transform="translate(264,208)"/>
<path d="M0 0 C5.5 1.1 6.5 1.9 10 6 C13.3 11 13.6 15.1 13 21 C10.6 27.9 7.4 30.6 1 34 C0.7 33.3 0.3 32.7 0 32 C1.3 30.7 2.6 29.4 4 28 C7.2 21.1 8 16.2 5.8 8.9 C4.2 5.4 2.6 2.8 0 0 Z " fill="#4C98CA" transform="translate(305,249)"/>
<path d="M0 0 C5.4 1.1 7.1 2.3 11 6 C13.7 11.3 14 16.2 13 22 C9.7 26.9 7.6 29.4 2.1 31.5 C1.6 31.6 1.6 31.6 -1 32 C-0.1 30.9 0.9 29.9 1.9 28.8 C7 22.6 7.5 18.8 7 11 C5.4 6.7 3 3.5 0 0 Z " fill="#4C98CA" transform="translate(328,227)"/>
<path d="M0 0 C-3.3 2.5 -5.9 4 -9.6 5.7 C-16.6 9.1 -23.4 13.4 -29 19 C-32.1 18.6 -32.1 18.6 -35 18 C-30.2 8.5 -17.7 3.9 -8.1 0.7 C-5 0 -5 0 0 0 Z " fill="#3A7EAE" transform="translate(347,184)"/>
<path d="M0 0 C5.6 1.4 8.9 4.1 13 8 C15.4 12.8 15.4 15.6 15 21 C12.7 26.4 10.2 29.3 5 32 C4 31.7 3 31.3 2 31 C2.4 30.6 2.4 30.6 4.4 28.3 C8.3 23.3 9.6 19.2 9 13 C6.8 7.6 4.3 3.9 0 0 Z " fill="#4C98CA" transform="translate(373,260)"/>
<path d="M0 0 C6 1.7 9.7 3.7 12.9 9.2 C14.6 15.1 14.1 19.8 11.4 25.3 C8.6 28.5 5.7 30.1 2 32 C1.3 31.7 0.7 31.3 0 31 C0.9 30.1 1.9 29.1 2.9 28.1 C6.5 23.3 7.4 20 8 14 C7.2 8.3 5.2 5.8 1 2 C0.7 1.3 0.3 0.7 0 0 Z " fill="#4C98CA" transform="translate(374,296)"/>
<path d="M0 0 C5.5 0.4 8.2 2.2 12 6 C15.1 10.7 15.6 14.4 15 20 C12.9 25.2 11.6 27.6 7 31 C6 30.7 5 30.3 4 30 C4.6 29.1 5.3 28.2 5.9 27.2 C8.9 22.5 9.5 18.5 9 13 C6.8 7.6 4.3 3.9 0 0 Z " fill="#4C98CA" transform="translate(299,214)"/>
<path d="M0 0 C6.3 2.5 9 5 12 11 C12.4 16.9 12.4 21.1 9 26 C5.1 29.8 3.4 30.9 -2 32 C-1.2 31.2 -0.5 30.3 0.3 29.4 C5 23.5 6.8 18.6 6 11 C4.3 7 2.4 3.6 0 0 Z " fill="#4C98CA" transform="translate(290,350)"/>
</svg>
