<?xml version="1.0" encoding="UTF-8"?>
<!-- Generator: visioncortex VTracer 0.6.12 -->
<svg version="1.1" xmlns="http://www.w3.org/2000/svg" width="600" height="600" viewBox="0 0 600 600" role="img" aria-label="Five">
<path d="M0 0 C198 0 396 0 600 0 C600 198 600 396 600 600 C402 600 204 600 0 600 C0 402 0 204 0 0 Z " fill="#EDF2ED" transform="translate(0,0)"/>
<path d="M0 0 C1.8 5.5 -1.6 10.9 -4 16 C-10.2 25.7 -18 31.2 -29 34 C-28.1 34.1 -27.1 34.1 -26.1 34.2 C-14.8 35.4 -5.7 38.4 3 46 C15.6 62.2 18.9 80.1 16.5 100.4 C15 109.5 13.1 118.7 9 127 C78 127 146.9 127 218 127 C216.4 121.7 214.7 116.4 213 111 C208.3 90.3 209.9 69.3 221 51 C227.4 42.7 235.8 37.3 246 35 C258.7 33.6 269.6 36.3 281 42 C276.7 31.9 272.2 22.2 266.4 12.8 C265 10 265 10 266 6 C270 3 270 3 276 3 C280.3 12.6 282.6 22.7 285 33 C285.4 31.2 285.7 29.5 286.1 27.7 C288.6 17.7 293 9.6 301 3 C312.5 -3.4 323.5 -5 336.4 -1.6 C341 0 341 0 342 2 C338 14.5 332.6 24.3 320.8 30.9 C316 33 316 33 312 34 C313 34.1 314 34.1 315.1 34.2 C326.9 35.4 335 38 344.2 45.4 C356.3 60.2 359.9 77.2 358.8 95.9 C357.5 106.7 354.4 116.8 351 127 C371.8 127 392.6 127 414 127 C414 160 414 193 414 227 C216 227 18 227 -186 227 C-186 194 -186 161 -186 127 C-165.2 127 -144.4 127 -123 127 C-124.3 123.7 -125.6 120.4 -127 117 C-132.8 96.9 -133.3 75.2 -124 56 C-116.7 45.4 -108.7 38.2 -96 35 C-83.8 34.1 -73.1 35.5 -62 41 C-63.1 31.1 -68.8 21.5 -74.1 13.2 C-74.4 12.7 -74.4 12.7 -76 10 C-75 6 -75 6 -71 3 C-69 3 -67 3 -65 3 C-61.4 12.2 -59.1 21.4 -57 31 C-55.4 27.8 -54.1 24.6 -52.8 21.2 C-48.4 10.9 -42.2 3.4 -31.9 -1.4 C-21.1 -4.9 -10.7 -3.1 0 0 Z " fill="#D4E3D6" transform="translate(186,373)"/>
<path d="M0 0 C-0.5 10.4 -6.6 20.1 -14 27 C-18.8 29.8 -23.7 32.2 -29 34 C-28.1 34.1 -27.2 34.2 -26.3 34.3 C-13 35.9 -3.4 40 5.7 50.1 C17.6 67.6 18.3 88.7 14.4 108.9 C9.4 130 -1.3 148.9 -19.6 161 C-29.4 166.7 -40 168.8 -51.1 165.9 C-57.3 164.4 -62.8 165.8 -69 167 C-82.4 167.6 -93.9 164.1 -104.1 155.3 C-110.5 149.1 -115.7 142.8 -120 135 C-120.9 133.5 -121.7 131.9 -122.6 130.3 C-132.8 107.5 -134.9 84.4 -127.2 60.6 C-121.5 48.9 -113.1 40.6 -101 36 C-89.6 33.2 -78.8 35 -68 39 C-66 39.7 -64 40.3 -62 41 C-65.3 31.4 -69.1 22.6 -74.4 13.9 C-76 11 -76 11 -77 7 C-73.4 3.8 -71.9 3 -67 2 C-63.6 6.5 -62.8 9.8 -61.4 15.2 C-61 16.9 -60.6 18.5 -60.2 20.2 C-59.8 21.8 -59.4 23.4 -59 25 C-58.6 26.5 -58.2 28 -57.8 29.6 C-57.7 30.2 -57.7 30.2 -57 33 C-56.6 31.2 -56.3 29.5 -55.9 27.7 C-53.4 17.7 -49 9.6 -41 3 C-27 -4.8 -15.2 -4 0 0 Z " fill="#CA3F29" transform="translate(187,44)"/>
<path d="M0 0 C1.8 5.5 -1.6 10.9 -4 16 C-10.2 25.7 -18 31.2 -29 34 C-28.1 34.1 -27.1 34.1 -26.1 34.2 C-14.8 35.4 -5.7 38.4 3 46 C15.6 62.2 18.9 80.1 16.5 100.4 C13.6 118 7.8 134.3 -4 148 C-4.3 148.4 -4.3 148.4 -6.1 150.5 C-13.8 158.9 -23.8 164.8 -35 167 C-40.3 167.2 -45 167.3 -50.1 165.9 C-56.3 164.4 -61.8 165.8 -68 167 C-81.4 167.6 -92.8 164.1 -103 155.4 C-120.5 138.8 -130 116.7 -131.2 92.7 C-131.6 75.7 -128.4 60.1 -117 47 C-107 37.1 -97.3 34.6 -83.6 34.6 C-76 35.2 -68.8 37.6 -62 41 C-63.1 31.1 -68.8 21.5 -74.1 13.2 C-74.4 12.7 -74.4 12.7 -76 10 C-75 6 -75 6 -71 3 C-69 3 -67 3 -65 3 C-61.4 12.2 -59.1 21.4 -57 31 C-55.4 27.8 -54.1 24.6 -52.8 21.2 C-48.4 10.9 -42.2 3.4 -31.9 -1.4 C-21.1 -4.9 -10.7 -3.1 0 0 Z " fill="#C93F29" transform="translate(186,373)"/>
<path d="M0 0 C1 2 1 2 -0.6 7.1 C-5.5 19.8 -12.6 27.4 -25 33 C-25.5 33.2 -25.5 33.2 -28 34 C-27.1 34.1 -26.3 34.1 -25.4 34.2 C-13.2 35.6 -3.4 39.2 5 48.3 C16.4 63.3 18.8 82 16.5 100.3 C13.5 118.5 7.5 135.1 -5 149 C-5.6 149.8 -6.3 150.5 -6.9 151.3 C-14.2 159.4 -24.3 164.9 -35 167 C-40.3 167.2 -45 167.3 -50.1 165.9 C-56.3 164.4 -61.8 165.8 -68 167 C-81.4 167.6 -92.8 164.1 -103 155.4 C-121.4 137.9 -130.6 114.7 -131.2 89.5 C-131.1 71.2 -126.3 56.3 -113.2 43.2 C-103.1 35.5 -92.3 34.1 -80 35 C-73.7 36.4 -67.9 38.6 -62 41 C-64.7 30.3 -69.4 19.9 -76 11 C-75 6 -75 6 -71 3 C-69 3 -67 3 -65 3 C-61.8 12.3 -59.1 21.4 -57 31 C-56.7 31.3 -56.3 31.7 -56 32 C-55.8 31.2 -55.6 30.4 -55.3 29.5 C-52 17.8 -47.2 8 -37 1 C-24.7 -4.9 -12.8 -4 0 0 Z " fill="#C93F29" transform="translate(357,220)"/>
<path d="M0 0 C1 2 1 2 -0.6 7.1 C-4.6 17.6 -10.2 25.4 -20.2 30.9 C-25 33 -25 33 -29 34 C-28 34.1 -27 34.1 -25.9 34.2 C-14.1 35.4 -6 38 3.2 45.4 C15.3 60.2 18.9 77.2 17.8 95.9 C14.9 119.9 5.4 142.8 -13.7 158.2 C-23.2 164.6 -33.5 167.9 -45 167 C-46.3 166.6 -47.6 166.3 -49 165.9 C-55.5 164.4 -61.5 165.7 -68 167 C-81.1 167.9 -90.9 164 -101 156 C-101.7 155.5 -101.7 155.5 -105.1 152.9 C-122 136.2 -130 112.8 -130.2 89.4 C-130.1 72.7 -126.5 57.7 -115 45 C-103.6 36.4 -93.1 33.4 -79 35 C-72.3 36.7 -66.1 38.9 -60 42 C-64.3 31.9 -68.8 22.2 -74.6 12.8 C-76 10 -76 10 -75 6 C-71 3 -71 3 -65 3 C-60.7 12.6 -58.4 22.7 -56 33 C-55.6 31.2 -55.3 29.5 -54.9 27.7 C-52.4 17.7 -48 9.6 -40 3 C-26.8 -4.3 -14.2 -5 0 0 Z " fill="#C93F29" transform="translate(527,373)"/>
<path d="M0 0 C-3.2 12.3 -8.1 22.8 -19 30 C-26.7 33.6 -34.2 35.2 -42.6 36.6 C-46.7 37.3 -50.9 38.1 -55 39 C-55.2 39.3 -55.2 39.3 -56 41 C-55.7 41.7 -55.3 42.3 -55 43 C-53.9 42.6 -52.8 42.2 -51.7 41.7 C-51 41.4 -51 41.4 -47.3 40.1 C-46.6 39.8 -46.6 39.8 -43 38.4 C-33.3 35 -21.9 34.3 -12.1 37.6 C1.4 44.1 8.7 53.4 14 67 C21.2 90.8 15.3 115.9 4.1 137.4 C1.2 142.4 -2.1 146.6 -6 151 C-7.1 152.2 -8.1 153.4 -9.2 154.7 C-19.9 164.1 -31.6 168.8 -46 168 C-47.4 167.6 -48.7 167.3 -50.1 166.9 C-56.3 165.4 -61.8 166.8 -68 168 C-81.4 168.8 -91.5 165.3 -102 157 C-102.7 156.5 -102.7 156.5 -106.1 153.9 C-123.1 137.1 -131 113.6 -131.3 90.1 C-131.2 73.9 -127.9 57.9 -116 46 C-104.9 37.6 -94.7 34.6 -81 36 C-76.5 37 -72.3 38.4 -68 40 C-66 40.7 -64 41.3 -62 42 C-65.9 31.1 -70.6 20.7 -77 11 C-76.7 9.4 -76.3 7.7 -76 6 C-73.2 4.1 -73.2 4.1 -70 3 C-68.7 3.3 -67.4 3.7 -66 4 C-63 9.4 -61.8 15.3 -60.4 21.3 C-58.1 30.8 -58.1 30.8 -57 33 C-56.6 31.2 -56.3 29.5 -55.9 27.7 C-53.1 16.9 -47.9 7.9 -39 1 C-25.7 -5.4 -13.7 -4.7 0 0 Z " fill="#CA3F29" transform="translate(528,43)"/>
<path d="M0 0 C3 1 3 1 5 4.3 C16 26.6 15.9 48.6 8 72 C1.9 89.2 -9.1 105.8 -26 114 C-35 117.6 -43.4 119.5 -53 116.9 C-59.5 115.4 -65.5 116.7 -72 118 C-77.2 118.2 -77.2 118.2 -82 118 C-82.7 117.3 -83.3 116.7 -84 116 C-82.7 115.8 -81.4 115.7 -80 115.5 C-60.8 112.8 -45.7 107.9 -31 95 C-30.2 94.3 -29.5 93.7 -28.7 93 C-12.2 77.6 -1.3 53.4 1 31 C1.1 27.2 1.1 23.4 1.1 19.6 C1.1 17.6 1.1 15.6 1.1 13.6 C1 8.9 0.7 4.6 0 0 Z " fill="#BC3A27" transform="translate(531,422)"/>
<path d="M0 0 C0.7 0 1.3 0 2 0 C13.4 21.7 15.8 42.3 8.9 66.1 C4.6 78.7 -1.1 90 -10 100 C-11.1 101.2 -12.1 102.4 -13.2 103.7 C-23.9 113.1 -35.6 117.8 -50 117 C-51.4 116.6 -52.7 116.3 -54.1 115.9 C-60.3 114.4 -65.8 115.8 -72 117 C-75.7 117.1 -79.3 117.1 -83 117 C-83.7 116.3 -84.3 115.7 -85 115 C-81.1 113.7 -77.4 113.7 -73.3 113.4 C-53 111.3 -36.2 100.3 -23 85 C-19.7 80.5 -16.8 75.9 -14 71 C-13.4 69.9 -12.7 68.8 -12.1 67.7 C-4.9 54.3 0.2 38.9 0.1 23.6 C0.1 22.3 0.1 20.9 0.1 19.5 C0.1 18 0.1 16.6 0.1 15.1 C0.1 13.7 0.1 12.2 0 10.7 C0 7.2 0 3.6 0 0 Z " fill="#BC3A27" transform="translate(532,94)"/>
<path d="M0 0 C1 0 2 0 3 0 C14.9 20.9 15.1 42.3 9.2 65.2 C5.4 77.5 -0.4 88.5 -9 98 C-9.6 98.8 -10.3 99.5 -10.9 100.3 C-19.4 109.8 -31.4 115.5 -44 116.3 C-50.7 116.3 -56.7 114.2 -63 112 C-60.5 109.5 -58.4 109 -55.1 107.9 C-31.3 99 -17 78.6 -6.8 56.3 C0.8 38 1.9 19.6 0 0 Z " fill="#BC3A27" transform="translate(361,271)"/>
<path d="M0 0 C7.8 6.2 10.3 16.6 12 26 C13.8 53.5 7.5 77.8 -9.6 99.6 C-19.6 110.3 -31.3 116.3 -45.8 117.4 C-52.2 116.9 -57.6 115.6 -63 112 C-62.5 111.8 -62.5 111.8 -59.9 110.7 C-33.4 99.6 -17.2 80.9 -6.3 54.6 C-2 42.8 0.1 31.6 0.1 19.1 C0.1 17.4 0.1 15.7 0.1 13.9 C0 9.5 -0.5 5.3 -1 1 C-0.7 0.7 -0.3 0.3 0 0 Z " fill="#BC3A27" transform="translate(191,94)"/>
<path d="M0 0 C9.1 7.6 11.6 19.8 13 31 C14.6 53.7 8.7 76.1 -4.3 94.8 C-5.5 96.2 -6.7 97.6 -8 99 C-8.7 99.8 -9.4 100.6 -10.1 101.5 C-17.8 109.9 -27.8 115.8 -39 118 C-47.6 118.4 -54.7 117.9 -62 113 C-61 112.6 -59.9 112.2 -58.9 111.8 C-50 108.1 -42.4 104.1 -35 98 C-34.2 97.4 -34.2 97.4 -30.4 94.2 C-12.2 77.6 -0.8 51.4 1 27 C1.2 17.9 0.9 9 0 0 Z " fill="#BC3A27" transform="translate(190,422)"/>
<path d="M0 0 C-0.5 10.4 -6.6 20.1 -14 27 C-21.7 32 -30.2 34.4 -39 36.8 C-42.4 37.8 -45.6 38.9 -48.9 40.3 C-53 42 -53 42 -56 42 C-59.2 33.5 -56.2 27.1 -53 19 C-48.6 9.3 -42.3 3.1 -32.8 -1.5 C-21.7 -5 -11 -2.9 0 0 Z " fill="#7F8A6F" transform="translate(187,44)"/>
<path d="M0 0 C1.8 5.5 -1.6 10.9 -4 16 C-9.5 24.6 -16.4 29.9 -25.9 33.4 C-29 34 -29 34 -34 34 C-34 34.7 -34 35.3 -34 36 C-34.9 36.3 -35.8 36.5 -36.7 36.8 C-37.8 37.2 -39 37.5 -40.2 37.9 C-41.3 38.2 -42.5 38.6 -43.7 38.9 C-46.5 39.8 -49.3 40.9 -52 42 C-53.3 42 -54.6 42 -56 42 C-58.1 32.1 -54 22.2 -49.2 13.5 C-36.5 -4.1 -19.9 -5.8 0 0 Z " fill="#7F8A6F" transform="translate(186,373)"/>
<path d="M0 0 C1 2 1 2 -0.6 7.1 C-4.6 17.5 -10.2 25.2 -19.9 30.9 C-24.5 32.8 -28.1 33.7 -33 34 C-33 34.7 -33 35.3 -33 36 C-34.6 36.4 -36.3 36.9 -38 37.3 C-41.6 38.3 -44.9 39.4 -48.4 40.7 C-52 42 -52 42 -56 42 C-58.1 32.1 -54 22.2 -49.2 13.5 C-36.7 -3.9 -19.7 -6.2 0 0 Z " fill="#7F8A6F" transform="translate(357,220)"/>
<path d="M0 0 C1 2 1 2 -0.6 7.1 C-4.6 17.5 -10.2 25.2 -19.9 30.9 C-24.8 32.9 -28.7 33.7 -34 34 C-34 34.7 -34 35.3 -34 36 C-41 38.3 -48 40.7 -55 43 C-58.2 33.1 -54.8 25.2 -50.6 16 C-45.8 7.2 -38.8 0.7 -29.1 -2.4 C-19.1 -4.4 -9.5 -3.4 0 0 Z " fill="#7F8A6F" transform="translate(527,373)"/>
<path d="M0 0 C-3.2 12.3 -8.1 22.8 -19 30 C-26.7 33.6 -34.2 35.2 -42.5 36.7 C-54.8 38.9 -54.8 38.9 -57 40 C-59.2 31 -54.4 20.3 -49.8 12.5 C-43.6 3.7 -36.9 -1.4 -26.1 -3.6 C-17.1 -4.7 -8.5 -2.9 0 0 Z " fill="#7C876B" transform="translate(528,43)"/>
<path d="M0 0 C1.4 0.9 2.8 1.8 4.2 2.8 C14.7 9 25.5 11.7 37.6 8.9 C44.1 7.6 49.6 8.7 56 10 C68.7 10.9 78.6 6.8 89 0 C89.2 0.2 89.2 0.2 90 1 C94.2 1.8 98.4 2.4 102.6 3.1 C106.8 4 110.2 5.2 114 7 C113.7 8.3 113.3 9.6 113 11 C95.7 16.8 77.9 18.1 59.7 18.2 C58.6 18.2 57.4 18.2 56.3 18.2 C52.7 18.2 49 18.2 45.4 18.2 C44.8 18.3 44.8 18.3 41.7 18.3 C-3.1 18.2 -3.1 18.2 -22 12 C-23 10.7 -24 9.4 -25 8 C-20.2 4.4 -16.7 3.9 -10.8 2.9 C-1.1 1.1 -1.1 1.1 0 0 Z " fill="#C8D4C4" transform="translate(426,529)"/>
<path d="M0 0 C1.4 0.9 2.8 1.8 4.2 2.8 C13.6 8.4 23 10.8 34 10 C35.4 9.6 36.7 9.3 38.1 8.9 C44.3 7.4 49.8 8.8 56 10 C66 10.6 74.7 9.3 82.8 3.1 C90.9 -0.9 99.9 2.2 108.4 4.4 C112 6 112 6 114 10 C95.9 20.8 68.6 18.3 48.1 18.3 C44.5 18.3 41 18.3 37.4 18.3 C-3.4 18.3 -3.4 18.3 -22 12 C-23 11 -24 10 -25 9 C-18.3 2.3 -9 2.5 0 2 C0 1.3 0 0.7 0 0 Z " fill="#CAD6C6" transform="translate(426,200)"/>
<path d="M0 0 C9.2 5.1 18.4 6.7 28.8 4 C34.9 2.5 40.6 3.5 46.7 5.1 C56.3 5.5 63.8 4.5 72.1 -0.6 C82.6 -5.9 93 -2.2 103.7 1.1 C104 2.4 104.3 3.7 104.7 5.1 C86.9 15.8 59.4 13.4 39.1 13.4 C35.6 13.4 32.1 13.4 28.6 13.4 C-13.8 13.5 -13.8 13.5 -32.3 6.1 C-33 5.1 -33.6 4.1 -34.3 3.1 C-29.6 -0.5 -26.1 -1.1 -20.4 -2.2 C-19.5 -2.4 -19.5 -2.4 -15 -3.3 C-8.9 -4.1 -5.2 -3.1 0 0 Z " fill="#C8D4C4" transform="translate(93.3125,533.9375)"/>
<path d="M0 0 C7.4 3.1 15.5 3.3 23.3 1.3 C29.5 -0.2 35 1.1 41.2 2.3 C51.5 3 60.7 1.4 69.3 -4.6 C77 -7.9 84.3 -5.7 92.2 -3.7 C94.5 -2.7 96.9 -1.7 99.2 -0.7 C98.8 0.7 98.5 2 98.2 3.3 C92.4 5.7 87 7 80.9 8 C79.4 8.2 77.8 8.4 76.2 8.7 C66.2 10 56.3 10.5 46.2 10.5 C45.6 10.5 45.6 10.5 42.6 10.6 C40 10.6 37.5 10.6 35 10.6 C31.2 10.6 27.4 10.6 23.6 10.7 C11.1 10.7 -1.2 10.4 -13.6 9 C-14.7 8.9 -15.8 8.8 -16.9 8.7 C-24.5 7.7 -32.3 6.7 -38.8 2.3 C-38.5 1 -38.2 -0.3 -37.8 -1.7 C-35.3 -2.3 -32.8 -3 -30.3 -3.6 C-28.9 -4 -27.5 -4.3 -26 -4.7 C-15.3 -7.2 -9.8 -4.7 0 0 Z " fill="#C9D5C6" transform="translate(98.84375,207.66015625)"/>
<path d="M0 0 C0.7 0.1 0.7 0.1 4.4 0.8 C8.5 1.7 11.9 3 15.7 4.8 C15.4 6.1 15 7.4 14.7 8.8 C8.8 11.2 3.3 12.5 -3 13.4 C-3.8 13.5 -3.8 13.5 -7.9 14.1 C-18.2 15.3 -28.4 15.9 -38.7 16 C-39.8 16 -40.9 16 -42.1 16 C-44.5 16 -46.9 16 -49.3 16 C-52.9 16 -56.5 16 -60 16.1 C-72 16.1 -83.9 15.7 -95.8 14.4 C-96.4 14.4 -96.4 14.4 -99.1 14.1 C-106.4 13.2 -113.3 11.9 -120.3 9.8 C-121.3 8.4 -122.3 7.1 -123.3 5.8 C-114.8 0.7 -104.1 -1.5 -94.3 -0.2 C-90.6 1.4 -87.1 3.2 -83.5 5.1 C-76.3 8.8 -67.9 8.7 -60.2 6.7 C-54 5.2 -48.5 6.5 -42.3 7.8 C-30.5 8.3 -22.4 5.6 -12.3 -0.2 C-7.6 -1.4 -4.7 -0.8 0 0 Z " fill="#CBD6C7" transform="translate(353.3125,378.25)"/>
<path d="M0 0 C3.6 4.8 3.6 6.2 3 12 C1.6 15.7 0.1 19.1 -1.6 22.7 C-2.1 23.6 -2.5 24.5 -2.9 25.5 C-5.5 30.9 -7.9 34.8 -13 38 C-16.9 37.8 -16.9 37.8 -20 37 C-24.1 29.7 -24.9 25.7 -22.9 17.6 C-20.1 10.7 -16.5 4.1 -10 0 C-5.9 -1 -4 -1.1 0 0 Z " fill="#D4533D" transform="translate(262,268)"/>
<path d="M0 0 C3 4 3 4 3 8.1 C1.9 13.5 0.1 17.8 -2.2 22.8 C-3 24.4 -3.8 26 -4.6 27.7 C-7.3 32.6 -9.6 36.1 -15 38.1 C-18 38 -18 38 -20.8 35.8 C-24.8 30.7 -24.4 26.3 -24 20 C-21.4 11.5 -17.4 5.1 -10 -0.1 C-6.2 -1.3 -3.8 -1.1 0 0 Z " fill="#D4533D" transform="translate(433,92)"/>
<path d="M0 0 C3.4 5.7 3.4 6.7 2 13 C0.7 16.3 -0.7 19.5 -2.2 22.7 C-3 24.3 -3.8 26 -4.6 27.6 C-6.7 31.5 -8.7 34.1 -12 37 C-12.2 37.2 -12.2 37.2 -13 38 C-16.4 37.8 -16.4 37.8 -20 37 C-24.4 31.1 -24.4 27.3 -24 20 C-21.4 11.5 -17.4 5.1 -10 -0.1 C-6.2 -1.3 -3.8 -1.2 0 0 Z " fill="#D4533D" transform="translate(433,421)"/>
<path d="M0 0 C3 3 3 3 3.5 7 C2.9 12.9 1 17.5 -1.6 22.8 C-2.1 23.7 -2.5 24.6 -2.9 25.5 C-5.5 30.9 -7.9 34.8 -13 38 C-18 38 -18 38 -20.8 35.6 C-24.6 29.4 -24.3 24.6 -23 17.5 C-20.3 10.1 -16.8 5.1 -10.5 0.4 C-6.4 -1.2 -4.2 -1.2 0 0 Z " fill="#D4533D" transform="translate(91,92)"/>
<path d="M0 0 C3 3 3 3 3.4 7.1 C2.9 12.8 1.3 16.6 -1.2 21.7 C-2 23.3 -2.7 24.9 -3.5 26.6 C-5.7 30.5 -7.8 33.8 -11 37 C-14.8 37.9 -14.8 37.9 -18 38 C-21.3 34.7 -22.9 32.4 -24 27.8 C-24 17.5 -20.9 10.5 -14 3 C-9 -0.7 -6 -1.7 0 0 Z " fill="#D4533D" transform="translate(91,421)"/>
<path d="M0 0 C6.3 11.8 8.3 26.8 10 40 C6 39 6 39 4 38 C3.2 36.2 2.5 34.3 1.9 32.4 C-1.4 23.5 -5.7 14.9 -11 7 C-10.7 5.4 -10.3 3.7 -10 2 C-6 -0.7 -4.8 -1.2 0 0 Z " fill="#97553D" transform="translate(462,47)"/>
<path d="M0 0 C4 2 4 2 5.3 4.9 C8.4 15.1 10.4 25.2 12.1 35.7 C12.4 37.1 12.7 38.5 13 40 C13.7 40.3 14.3 40.7 15 41 C13 41 11 41 9 41 C6.3 38.3 5.6 35.4 4.4 31.8 C1.8 24.6 -1.4 18.3 -5.4 11.9 C-7 9 -7 9 -8 5 C-5.3 2.7 -3.4 1.1 0 0 Z " fill="#98533B" transform="translate(118,46)"/>
<path d="M0 0 C3.4 7.8 5.5 15.6 7.2 23.9 C7.5 25.2 7.8 26.4 8.1 27.6 C10 36.5 10 36.5 10 40 C8.7 40 7.4 40 6 40 C3.2 34.5 0.6 29 -1.9 23.5 C-4.1 18.8 -6.3 14.6 -9.1 10.2 C-9.7 9.1 -10.3 8.1 -11 7 C-9.3 0.2 -6.7 0 0 0 Z " fill="#98523A" transform="translate(462,376)"/>
<path d="M0 0 C10.4 29 10.4 29 8 39 C6.7 39 5.4 39 4 39 C3.8 38.5 3.8 38.5 3 36 C-0.1 27.4 -3.6 19.7 -8.4 12 C-10 9 -10 9 -11 4 C-6.9 0.1 -6.2 0 0 0 Z " fill="#98523A" transform="translate(292,223)"/>
<path d="M0 0 C3 7.3 5 14.7 6.8 22.3 C7.3 24.2 7.7 26.1 8.1 28 C8.9 32.3 9.1 34.9 8 39 C6.7 39 5.4 39 4 39 C3.9 38.6 3.9 38.6 3.2 36.4 C-0.4 25.8 -5.3 16.5 -11 7 C-9.3 0.2 -6.7 0 0 0 Z " fill="#995039" transform="translate(121,376)"/>
</svg>
