<?xml version="1.0" encoding="UTF-8"?>
<!-- Generator: visioncortex VTracer 0.6.12 -->
<svg version="1.1" xmlns="http://www.w3.org/2000/svg" width="600" height="600" viewBox="0 0 600 600" role="img" aria-label="Four">
<path d="M0 0 C198 0 396 0 600 0 C600 198 600 396 600 600 C402 600 204 600 0 600 C0 402 0 204 0 0 Z " fill="#EDF2ED" transform="translate(0,0)"/>
<path d="M0 0 C36 0 71.9 0 109 0 C111.3 3.6 113.6 7.3 116 11 C126 24.3 137.9 36 155 39 C161 39.6 165.7 38.6 171.4 37 C180.2 34.6 186.9 34.2 195.6 37 C207.4 40.6 219.9 40.6 231 35 C245.1 26.3 252.8 14.9 262 1 C291.7 1 321.4 1 352 1 C352 34 352 67 352 101 C154 101 -44 101 -248 101 C-248 68 -248 35 -248 1 C-216.7 1 -185.3 1 -153 1 C-151.5 3.1 -151.5 3.1 -144 14 C-132.7 27.3 -120.9 37.7 -102.9 39.4 C-98.4 39 -94.8 38.2 -90.5 37 C-81.8 34.6 -75.6 34.5 -66.9 37 C-53.3 40.8 -41.4 40 -28.9 33.2 C-15.7 24.5 -8 13.4 0 0 Z " fill="#D4E4D7" transform="translate(248,499)"/>
<path d="M0 0 C0.3 0.7 0.7 1.3 1 2 C-5.2 18.6 -13.3 30.5 -29 39 C-30.7 39.7 -32.3 40.3 -34 41 C-34 41.3 -34 41.7 -34 42 C-32.6 42.2 -31.2 42.5 -29.8 42.7 C-16.3 45.8 -5.4 51.6 2.9 62.9 C18.3 87.9 18.4 114.3 11.8 142.2 C4.5 169.6 -9.5 200.8 -35 216 C-48.7 222.9 -61.3 222.1 -75.6 217.9 C-84.2 215.6 -91.1 217.8 -99.4 220.1 C-110.4 222.9 -121 219.6 -130.6 214 C-156.4 196.3 -171.6 162.9 -177.5 133 C-177.7 132 -177.8 131 -178 130 C-178.2 129 -178.4 128 -178.6 126.9 C-181.5 101 -177.9 78.7 -161.8 57.9 C-151 46.9 -137.3 41.4 -122 40.8 C-115.4 41 -109.5 42.1 -103.1 43.5 C-91.6 46 -91.6 46 -86 46 C-88.1 35.6 -91.3 26.6 -96.3 17.2 C-98 14 -98 14 -99 11 C-96.1 7.3 -94.3 5.1 -90 3 C-88.3 3 -86.7 3 -85 3 C-81.9 8.2 -80.8 12.3 -79.4 18.2 C-79 20 -78.6 21.8 -78.2 23.6 C-77.1 28.7 -76 33.9 -75 39 C-74.8 38.2 -74.6 37.4 -74.3 36.5 C-70.2 22 -63.2 10.9 -50.2 2.8 C-35.3 -5.5 -16 -5.6 0 0 Z " fill="#CC3F27" transform="translate(253,318)"/>
<path d="M0 0 C-3.7 14.7 -11.7 26.9 -24.4 35.5 C-28.4 37.8 -32.6 39.4 -37 41 C-36.1 41.1 -35.3 41.3 -34.4 41.4 C-18.7 44.4 -6.8 50.9 2.8 63.9 C16.2 84.3 17.2 108.6 13 132.1 C6.7 161.7 -7.3 196.3 -33.4 213.8 C-45.4 221 -57.5 222.1 -71 219 C-72.9 218.4 -74.7 217.9 -76.6 217.3 C-84.1 215.5 -89.6 216.2 -96.8 218.6 C-107.4 221.5 -117.1 220.6 -127 216 C-130.6 213.9 -133.7 211.6 -137 209 C-138.1 208.2 -139.3 207.3 -140.4 206.4 C-163.6 184.1 -179.3 148.9 -180.3 116.7 C-180.3 114.5 -180.3 112.3 -180.3 110.2 C-180.3 109 -180.3 107.9 -180.3 106.7 C-180 86 -174.2 70.2 -160.2 54.8 C-147.5 43.3 -134.6 40.2 -117.9 40.5 C-107.4 41.4 -97.2 43.6 -87 46 C-89.5 34.5 -92.4 22.9 -99 13 C-99 8 -99 8 -96.9 5.8 C-93.7 3.8 -90.7 2.9 -87 2 C-79.7 9.3 -79.1 22.5 -77.6 32.3 C-77 36 -77 36 -76 38 C-75.9 37.5 -75.9 37.5 -75.2 35.1 C-70.2 19 -62.1 8.1 -47 0 C-31.2 -5.9 -15.9 -5.2 0 0 Z " fill="#CB3F27" transform="translate(254,51)"/>
<path d="M0 0 C1.8 5.3 -1.7 10.2 -4 15 C-11.8 27.8 -20.5 35.7 -34 42 C-33.1 42.1 -32.2 42.3 -31.3 42.4 C-17.2 45.1 -5.9 51 3 62.6 C16.6 83 18.7 107.2 14.8 130.9 C8.4 161.9 -6.1 196.8 -33.1 215.3 C-43.8 221.6 -55.8 223 -67.8 220.1 C-70.1 219.4 -72.5 218.6 -74.8 217.9 C-83.6 215.4 -91 217.7 -99.5 220.1 C-110.3 222.9 -120.2 219.7 -129.7 214.3 C-156.4 193.8 -172.5 161.7 -178 128.6 C-180.9 104.7 -178.8 82.3 -165 62 C-154.8 49.9 -142.7 43.4 -127 41 C-117.6 40.5 -109 42.1 -99.8 44 C-98.4 44.3 -97 44.6 -95.5 44.9 C-92 45.6 -88.5 46.3 -85 47 C-87.7 36 -91 26.3 -96.5 16.4 C-98 13 -98 13 -97 8 C-93.3 4.1 -90.2 3.4 -85 3 C-77.1 13.5 -76.7 28.4 -75 41 C-74.6 39.3 -74.3 37.6 -73.9 35.8 C-70.5 22.5 -63.4 11.1 -51.5 3.9 C-35.2 -4.5 -17.6 -5.7 0 0 Z " fill="#CB3F27" transform="translate(515,318)"/>
<path d="M0 0 C-1.3 11.9 -9.3 23.1 -18 31 C-23.7 35.3 -29.4 38.3 -36 41 C-34.9 41.2 -33.9 41.5 -32.8 41.7 C-15.9 45.7 -4.6 51.9 5 66.6 C18.6 89.8 17.2 117.7 10.7 142.9 C3.4 168.8 -10.1 199.5 -34.1 214.4 C-49.4 222.5 -62 221.5 -78.3 216.8 C-84.9 215.4 -90.5 216.5 -96.8 218.6 C-108.5 221.8 -118 220.2 -128.7 214.6 C-154.2 199.6 -169 168.7 -176.3 141.1 C-182.1 116 -182.6 90.2 -170 67 C-161.3 53.8 -148.5 44.5 -133 41 C-116.5 39.5 -101.8 42.8 -86 47 C-91.6 25.4 -91.6 25.4 -97.8 15.6 C-99 13 -99 13 -98 8 C-94 4 -92.4 3 -87 2 C-81.2 5.9 -80.6 14.5 -79 21 C-77.8 27.3 -76.9 33.6 -76 40 C-75.8 39.1 -75.6 38.2 -75.3 37.3 C-71.7 23.3 -65.2 12.5 -53.7 3.7 C-38.3 -5.1 -16.4 -8.2 0 0 Z " fill="#CB3F27" transform="translate(516,51)"/>
<path d="M0 0 C9.6 14.4 6.8 38 4 54.1 C-2.3 84.3 -15.7 118.5 -42.4 136.4 C-53.5 143.1 -65.3 144.9 -78 142.1 C-80.6 141.4 -83.1 140.6 -85.6 139.9 C-94.2 137.6 -101.1 139.8 -109.4 142.1 C-118.8 144.5 -126.2 142.1 -135 139 C-131 138 -131 138 -128 139 C-113.9 140.4 -101.3 137 -88 133 C-86.6 132.6 -85.2 132.2 -83.7 131.8 C-69 127.3 -56.8 119.8 -45 110 C-43.6 108.9 -42.2 107.7 -40.8 106.6 C-16.6 83.6 -1.7 48.1 0 15 C0.1 10 0.1 5 0 0 Z " fill="#B73A24" transform="translate(263,396)"/>
<path d="M0 0 C8.6 13 6.2 36.1 3.9 50.8 C-2.3 80.6 -15.6 115.3 -41.5 133.8 C-54.6 141.9 -65.9 143.1 -80.6 139.8 C-83.2 139.2 -85.8 138.5 -88.3 137.8 C-94.9 136.4 -100.5 137.5 -106.8 139.6 C-115.3 141.9 -123.7 142.1 -132 139 C-132 138.7 -132 138.3 -132 138 C-131 138 -130 138.1 -129 138.1 C-119.7 138.3 -111.9 137.5 -103 135 C-101.3 134.6 -99.6 134.1 -97.9 133.7 C-63.5 124.9 -38.5 107.6 -20 77 C-6.7 53.6 -0.4 26.8 0 0 Z " fill="#B83924" transform="translate(526,130)"/>
<path d="M0 0 C9.8 14.6 6.9 38.9 4 55.1 C-2.3 84.7 -16.3 119.3 -42.4 136.8 C-54.4 144.1 -66.5 145.1 -80 142 C-81.9 141.5 -83.8 140.9 -85.7 140.4 C-90.7 139.1 -94.8 138.7 -100 139 C-100 138.3 -100 137.7 -100 137 C-99.1 136.7 -99.1 136.7 -94.6 135.3 C-58.4 123.6 -33 105.4 -15 71 C-4.5 48.2 0.2 25.1 0 0 Z " fill="#B83924" transform="translate(263,128)"/>
<path d="M0 0 C9.3 13.9 7.4 38 4.8 53.9 C-1.6 84.9 -16.1 119.8 -43.1 138.3 C-53.7 144.6 -65.7 146 -77.7 143.1 C-80 142.4 -82.3 141.6 -84.6 140.9 C-90.1 139.4 -95.3 139.7 -101 140 C-100.7 139 -100.3 138 -100 137 C-98.8 136.7 -97.6 136.4 -96.4 136.2 C-64.9 128.3 -40 112.3 -22 85 C-6.3 58.4 0.6 30.7 0 0 Z " fill="#B83924" transform="translate(525,395)"/>
<path d="M0 0 C-4 15.9 -12.9 28.5 -27 37 C-36.6 42.4 -46.2 43.6 -57 45 C-58.4 45.2 -59.9 45.4 -61.4 45.6 C-66.7 46.4 -71.7 47 -77 47 C-78.3 43.2 -78.1 39.9 -78 36 C-77.3 36.7 -76.7 37.3 -76 38 C-75.7 37 -75.4 36.1 -75.2 35.1 C-70.2 19 -62.1 8.1 -47 0 C-31.2 -5.9 -15.9 -5.2 0 0 Z " fill="#968768" transform="translate(254,51)"/>
<path d="M0 0 C0.2 0.3 0.2 0.3 1 2 C-5.2 18.6 -13.3 30.5 -29 39 C-30.7 39.7 -32.3 40.3 -34 41 C-34 41.7 -34 42.3 -34 43 C-35.3 43.1 -36.6 43.2 -38 43.4 C-45.4 44.1 -52.8 45.1 -60.1 46.1 C-60.8 46.2 -60.8 46.2 -64.5 46.6 C-68 47.1 -71.5 47.5 -75 48 C-77.7 43.9 -77.1 40.8 -77 36 C-76.3 37 -75.7 38 -75 39 C-74.8 38.2 -74.6 37.4 -74.3 36.5 C-70.2 22 -63.2 10.9 -50.2 2.8 C-35.3 -5.5 -16 -5.6 0 0 Z " fill="#968768" transform="translate(253,318)"/>
<path d="M0 0 C-1.3 11.9 -9.3 23.1 -18 31 C-22.4 34.3 -22.4 34.3 -27 37 C-28.4 37.8 -29.8 38.6 -31.2 39.5 C-38.6 43.2 -46.7 43.8 -54.8 44.8 C-55.6 44.9 -55.6 44.9 -59.6 45.5 C-65.5 46.2 -71.1 47 -77 47 C-74.9 31 -69.4 18.5 -58 7 C-42.5 -4.9 -18 -9 0 0 Z " fill="#968768" transform="translate(516,51)"/>
<path d="M0 0 C1.8 5.3 -1.7 10.2 -4 15 C-12.1 28.2 -22 38 -37 43 C-39.9 43.4 -42.7 43.8 -45.6 44.2 C-47.3 44.4 -49 44.6 -50.8 44.9 C-52.6 45.1 -54.3 45.3 -56.2 45.6 C-58 45.8 -59.8 46 -61.6 46.3 C-66.1 46.9 -70.5 47.4 -75 48 C-77 38.2 -71.8 27 -66.8 18.5 C-51.5 -3.2 -24.4 -7.9 0 0 Z " fill="#968768" transform="translate(515,318)"/>
</svg>
