<?xml version="1.0" encoding="UTF-8"?>
<!-- Generator: visioncortex VTracer 0.6.12 -->
<svg version="1.1" xmlns="http://www.w3.org/2000/svg" width="600" height="600" viewBox="0 0 600 600" role="img" aria-label="Meat">
<path d="M0 0 C198 0 396 0 600 0 C600 198 600 396 600 600 C402 600 204 600 0 600 C0 402 0 204 0 0 Z " fill="#EEF2ED" transform="translate(0,0)"/>
<path d="M0 0 C25.1 9.8 49.8 16.6 76.2 21.9 C109.5 28.6 144.9 37 165.5 66.6 C176.7 83.6 177.9 100.6 177.5 120.6 C177.1 120.6 176.8 120.6 176.5 120.6 C176.1 118.6 175.8 116.6 175.5 114.6 C174.8 116.4 174.1 118.2 173.4 120 C168.3 132.3 159.9 142.1 149.2 150 C140.7 156.3 132.9 163 125.5 170.6 C124.4 171.7 123.2 172.8 122.1 173.9 C119.7 176.4 117.4 178.9 115.2 181.5 C91.9 207.4 58.7 216.8 24.9 219.3 C-28.9 222.1 -75 208.1 -118.5 176.6 C-143.2 158.8 -167 146.5 -196 138 C-246.4 123.2 -246.4 123.2 -265.5 106.6 C-266.5 105.9 -267.6 105.1 -268.6 104.4 C-276.4 97.1 -281.6 88.4 -285.5 78.6 C-286 77.6 -286.4 76.5 -286.8 75.5 C-289.7 63.5 -285.4 52.1 -279.5 41.8 C-276.3 36.7 -272.6 32.1 -268.5 27.6 C-267.8 26.8 -267.1 25.9 -266.3 25.1 C-237.7 -5.4 -196 -12.3 -156.5 -16.6 C-154.2 -16.8 -151.8 -17.1 -149.5 -17.4 C-96.7 -23.2 -49.7 -19.4 0 0 Z " fill="#F7E1C7" transform="translate(359.5359802246094,185.39410400390625)"/>
<path d="M0 0 C198 0 396 0 600 0 C600 33 600 66 600 100 C402 100 204 100 0 100 C0 67 0 34 0 0 Z " fill="#D5E4D7" transform="translate(0,500)"/>
<path d="M0 0 C2 2 2 2 3.7 6.9 C10.9 27.4 27.9 39.9 46.7 49.2 C63.1 56.8 80.8 61.5 98.1 66.6 C126.5 74.9 149.1 88.5 172.9 105.8 C206.9 130.5 245.8 145 288 146 C289.5 146 290.9 146.1 292.4 146.1 C330.9 146.7 369.3 139.2 398.4 112.6 C402.5 108.5 406.4 104.3 410.2 100 C420.5 88.8 432 79.6 444.2 70.6 C453.9 61.5 460.8 49.1 463 36 C463.3 36 463.7 36 464 36 C464.3 48.7 463.7 61.1 462.5 73.7 C461.9 81.3 462.4 87.5 464 95 C464.9 114.2 454.2 132 442 146 C441.3 146.8 440.7 147.5 440 148.3 C409.6 183 374.5 202.5 329 210 C327.5 210.2 326 210.5 324.5 210.8 C261.5 219.1 204.9 201.8 152.3 167.9 C133.3 155.6 114.9 145.7 93 139.8 C62.5 131.5 30.4 120.7 12 93 C6.3 82.5 4 73.1 3.4 61.2 C3 56.9 2.2 52.7 1.4 48.4 C-1.1 32.4 -0.2 16.1 0 0 Z " fill="#EFD0AE" transform="translate(72,258)"/>
<path d="M0 0 C0.8 0.2 0.8 0.2 4.6 1.2 C14.4 4 24.1 7.3 33.7 10.8 C34.2 10.9 34.2 10.9 37 11.9 C44.9 14.8 44.9 14.8 46 17 C45.2 17.3 45.2 17.3 40.9 18.8 C39.9 19.2 38.9 19.6 37.9 19.9 C35.7 20.7 33.5 21.5 31.2 22.3 C28 24 28 24 24.9 27.4 C11.6 39.8 -11.4 40.7 -28.6 40.4 C-43.1 39.3 -55.2 34.9 -66 25 C-75.4 17.8 -83.9 18.4 -95.3 19.5 C-95.9 19.6 -95.9 19.6 -99 20 C-99 20.7 -99 21.3 -99 22 C-97.8 22.1 -96.7 22.1 -95.5 22.2 C-79.4 24.6 -64.6 30.4 -53 42 C-51 46 -51 46 -52 51 C-54.6 53.4 -57.3 55.7 -60 58 C-61.7 59.6 -63.4 61.3 -65 63 C-66 64 -66 64 -69.1 64.2 C-73.1 64 -76.3 63.2 -80 62 C-77.7 63.3 -75.4 64.6 -73 66 C-73.7 66.7 -74.3 67.3 -75 68 C-73.6 68.8 -72.3 69.6 -70.9 70.4 C-65.8 73.8 -63.3 77.9 -60 83 C-56.8 86 -53.7 88.6 -50 91 C-50 91.7 -50 92.3 -50 93 C-56.7 92.5 -62.6 91 -69 89 C-70.8 88.7 -72.6 88.5 -74.5 88.2 C-79.6 87.1 -82.9 85.5 -87.3 82.7 C-103.7 72.3 -121.9 68.2 -140.8 65 C-151.9 63 -162.4 59.7 -173 56 C-169.1 57.6 -165.2 59.2 -161.3 60.8 C-160.8 61 -160.8 61 -158 62.2 C-150.5 65.3 -143 67.4 -135 69 C-95.9 77.6 -95.9 77.6 -84.2 90 C-81.8 94.3 -80.9 96.2 -82 101 C-86.7 105.7 -91.7 107.8 -97.8 110.1 C-99.5 110.8 -101.2 111.5 -103 112.1 C-113.6 116.1 -122.7 118.2 -134.1 117.9 C-141.5 118 -147.4 119.7 -154 123 C-166.4 122.4 -178 114 -187 106 C-188.2 105 -189.4 103.9 -190.7 102.9 C-199.5 92.6 -203 81.4 -202 68 C-198.9 51.7 -186.5 38 -173.5 28.4 C-160.9 20.1 -148.5 15.6 -134 12 C-133 11.7 -131.9 11.5 -130.9 11.2 C-90.6 1.2 -41.1 -11 0 0 Z " fill="#D24B37" transform="translate(291,177)"/>
<path d="M0 0 C1.4 0.4 2.8 0.8 4.3 1.1 C5.7 1.5 7.1 1.9 8.6 2.3 C11.4 3.1 14.1 3.8 16.8 4.5 C18.2 4.9 19.6 5.3 21.1 5.7 C39.9 10.7 58.7 15.2 77.7 19.4 C106.7 25.9 138.2 34.1 155.6 60.3 C162.6 73.3 166 85.9 161.6 100.3 C154.8 117 144.5 125.5 130 135.3 C125.6 138.3 125.6 138.3 122.6 141.3 C116.2 138.8 113.5 134.8 109.1 129.6 C101.3 122.3 91 120.1 80.9 117.4 C70.8 114.6 61.1 111.7 51.6 107.3 C50.7 106.9 49.7 106.5 48.8 106.1 C37 100.6 27.1 90.5 22.6 78.3 C22.6 73.9 23 72.1 25.8 68.6 C35.4 61.1 47 61.9 58.6 63.3 C59.3 63.4 59.3 63.4 63.2 63.9 C78 65.5 89 62.9 102.7 57.4 C108.4 55.3 113.2 55.2 119.2 55.3 C120.9 55.3 122.6 55.3 124.3 55.3 C125 55.3 125 55.3 128.6 55.3 C129.6 55.3 130.6 55.3 131.6 55.3 C106.5 49 106.5 49 96.4 53 C95.1 53.8 93.9 54.6 92.6 55.3 C77.2 64 64.8 61.8 47.9 57.6 C43.5 56.6 39.2 55.7 34.8 54.9 C27.8 53.4 23.7 50.1 18.5 45.4 C10.6 38.6 2 34 -7.2 29.2 C-11.1 27 -14.8 24.9 -18.5 22.3 C-24.1 18.9 -29.1 17.2 -35.4 15.3 C-34.1 8.7 -31.8 7.3 -26.4 3.3 C-17.6 -0.5 -9.4 -2.6 0 0 Z " fill="#D14B36" transform="translate(358.375,198.65234375)"/>
<path d="M0 0 C9.1 3.8 17.7 4 27.4 4.1 C37.6 4.4 46.7 5 56.3 8.8 C58.8 9.7 61.4 10.6 64 11.5 C65.2 11.9 66.3 12.4 67.5 12.8 C70.3 13.8 70.3 13.8 72.3 13.8 C70.6 13 69 12.3 67.3 11.5 C65.2 10.5 63.1 9.5 60.9 8.5 C59.9 8 58.8 7.5 57.7 6.9 C49.6 3.1 49.6 3.1 46.3 -0.2 C46.3 -1.2 46.3 -2.2 46.3 -3.2 C57.2 -8.1 68.1 -9.2 79.7 -5.5 C89.3 -1.9 96.1 2.6 102.3 10.8 C103.2 14.6 103.5 17 102.4 20.8 C97.1 28.2 90.4 31.2 82.1 34.6 C74.3 38 70.8 40.7 66.3 47.8 C59.9 51.6 53.8 52.5 46.5 53.1 C37.5 53.9 30.4 56 22.3 60.1 C13.4 63.8 5 63.9 -4.5 63.3 C-11.3 62.8 -16.3 62.8 -22.7 64.8 C-28.6 64.5 -32.3 61.7 -37.1 58.5 C-38.7 57.4 -40.3 56.3 -42 55.2 C-43.7 54 -45.4 52.9 -47.1 51.7 C-69.9 36.3 -90.5 27.6 -117.1 21.4 C-126.1 19.2 -135 16.8 -143.7 13.8 C-139.6 9.6 -136.5 9 -130.7 7.8 C-127 7.9 -123.4 8.3 -119.7 8.7 C-111.4 8.8 -104.2 5.2 -96.9 1.6 C-62.1 -15.2 -35.3 -16.7 0 0 Z " fill="#D04A36" transform="translate(286.74609375,289.23046875)"/>
<path d="M0 0 C7 3.6 14.4 5.8 21.9 8 C29.2 10.3 34.6 13.5 40.7 18.2 C40.7 24 37 26.5 33.2 30.4 C32.5 31.2 31.8 31.9 31.1 32.6 C29 34.8 26.8 37 24.7 39.2 C23.3 40.6 22 42 20.5 43.5 C-2.6 65.7 -38.7 66.9 -68.9 66.4 C-97.7 65.7 -125.1 57.7 -150.6 44.6 C-151.7 44 -152.8 43.4 -153.9 42.9 C-154.9 42.3 -156 41.8 -157 41.2 C-157.9 40.7 -158.9 40.2 -159.8 39.7 C-162.3 38.2 -162.3 38.2 -166.3 34.2 C-159.4 30.7 -151.6 31.1 -143.9 31.3 C-132.6 31.4 -123 28.2 -112.8 23.6 C-105.4 20.6 -97.8 19.4 -90 18.2 C-82.7 16.9 -78.2 14.9 -72.7 9.9 C-50.8 -8.8 -25.5 -13.6 0 0 Z " fill="#CF4835" transform="translate(434.3125,323.8125)"/>
<path d="M0 0 C2 3 2 3 3.7 7.9 C11.2 28.7 26.8 41.1 46.2 50.7 C59.4 56.6 73 60.1 87.1 63 C112.5 68.3 132.6 78.3 154 92.9 C194.9 120.8 234.7 137.1 284.6 137.2 C287.6 137.2 290.7 137.3 293.8 137.3 C331.6 137.5 370.6 129.8 398.6 102.7 C402.6 98.6 406.2 94.1 409.8 89.6 C416.1 82.1 423.4 76.1 431 70 C446.2 57.6 452.2 42.7 457 24 C461.8 33.6 460.1 44.2 457.1 54.1 C444.3 90.2 408.9 119.8 375.4 136.1 C359.2 143.2 342.4 147.1 325 150 C323.5 150.2 322 150.5 320.5 150.8 C257.5 159.1 200.9 141.8 148.3 107.9 C129.3 95.6 110.9 85.7 89 79.8 C58.5 71.5 26.4 60.7 8 33 C2 21.9 -0.3 12.5 0 0 Z " fill="#BCC2A9" transform="translate(76,318)"/>
<path d="M0 0 C3.8 2.6 7.7 4.6 11.8 6.6 C21.2 11.2 29 15.2 34.6 24.4 C36.5 31.2 34.9 35.3 31.6 41.4 C27.7 46.7 24.8 49.3 18.6 51.4 C4.9 52.6 -12.1 53.2 -23.4 44.4 C-24.2 43.2 -24.9 42.1 -25.7 40.8 C-29.3 36.3 -32.8 35.7 -38.4 34.4 C-38.8 34.7 -39.1 35.1 -39.4 35.4 C-38.6 35.9 -37.8 36.3 -37 36.8 C-31 41.2 -25.5 46.2 -23.2 53.3 C-23.4 56.4 -23.4 56.4 -26.4 59.4 C-39.4 63.3 -50.9 59.3 -63.1 54.3 C-64.3 53.9 -65.5 53.4 -66.7 52.9 C-102.3 38.4 -102.3 38.4 -108.4 27.4 C-110.2 22.2 -110.1 17.9 -107.9 12.8 C-103.6 6.9 -99.3 2.2 -92.4 -0.6 C-89.2 -1.1 -86 -1.6 -82.8 -1.9 C-72.4 -3.2 -62.3 -5.2 -52.1 -7.5 C-32.8 -11.9 -16.4 -12 0 0 Z " fill="#DF634D" transform="translate(343.4296875,226.59375)"/>
<path d="M0 0 C5.1 1.5 10.1 3 15 5 C15 5.3 15 5.7 15 6 C14.1 6.2 13.2 6.3 12.2 6.5 C2.8 8.4 -5.6 10.3 -12 18 C-12.3 19.3 -12.7 20.6 -13 22 C-11.4 22.3 -9.8 22.5 -8.1 22.8 C-0.3 24.7 5.8 28.9 12.5 33.2 C16.5 35.7 20.6 37.9 24.8 40 C31.3 43.4 36.6 47.6 42.1 52.5 C46.9 56.6 50.8 59.3 57 60.4 C61.5 61.3 65.8 62.2 70.2 63.3 C99.1 70.4 99.1 70.4 112 63 C114.7 61.4 117.3 59.7 120 58 C133.1 53.6 148.3 59.7 161 63 C156.8 64 155.1 63.7 151 63 C136.7 62.3 125.8 64.2 112.8 69.9 C102.8 73.8 91.3 72.2 80.9 70.9 C69.7 69.6 59 69 49 75 C46.5 78.4 46 80.2 46 84.4 C48.9 94.9 57.5 103.3 66.3 109.2 C79.8 116.9 94.9 120.8 109.7 125.1 C123.3 129.2 130.8 134.2 140 145 C140.7 145.7 141.3 146.3 142 147 C141.7 148.6 141.3 150.3 141 152 C140.3 151.5 140.3 151.5 137 149.2 C129.2 144.2 121.4 141 112.5 138.2 C105 135.9 98.1 133.3 91.1 129.6 C79.7 123.7 68.9 122.6 56.4 125.9 C43.8 130.2 33.2 136.5 23 145 C16.3 150 9.7 151.1 1.5 152.2 C-7.3 153.7 -14.9 156.5 -23 160 C-31.5 163.1 -38.7 164.1 -47.8 163.9 C-54.6 163.9 -60.5 164.4 -67 166 C-70.9 166 -72.1 164.5 -75 162 C-67.5 159.3 -61.7 158.9 -53.8 159.5 C-41.8 160.3 -32.4 159.3 -21.6 153.9 C-14.3 150.3 -7.1 149.7 1 149 C7.4 148.2 13 147.4 18 143 C18.8 141.7 19.7 140.5 20.5 139.1 C24.6 134.2 28 132.7 33.9 130.4 C40.7 127.7 45.9 125.2 51 120 C53.1 114.8 53.3 113.3 52 108 C47.7 98.8 36.9 95.3 28 92 C17.6 89.4 7.1 90.6 -3 94 C0 99.1 0.7 99.8 5.8 102.1 C6.9 102.6 8 103.2 9.2 103.7 C10.3 104.2 11.5 104.8 12.7 105.3 C13.9 105.9 15 106.4 16.3 107 C19.2 108.3 22.1 109.7 25 111 C19.3 112.4 14.9 110.1 9.6 108.1 C1.8 105.3 -5.2 102.9 -13.4 102.8 C-14.7 102.8 -15.9 102.7 -17.2 102.7 C-19.8 102.7 -22.4 102.6 -25 102.6 C-35.9 102.3 -44.7 100.3 -54.7 95.6 C-76 86.2 -99.2 81.1 -121.8 89.3 C-124.1 90.2 -126.4 91.2 -128.8 92.1 C-130 92.6 -131.2 93.1 -132.4 93.6 C-140.6 96.9 -148.6 100.5 -156.5 104.5 C-162.5 107 -167.4 107.1 -173.9 106.4 C-179.8 105.8 -184.3 107 -190 109 C-196.3 110.3 -196.3 110.3 -201 108 C-191.5 103.6 -184.7 101.9 -174.2 102.2 C-164.4 101.8 -155.7 99.1 -146.7 95.6 C-146.2 95.4 -146.2 95.4 -143.5 94.5 C-132.1 90.1 -132.1 90.1 -128 86 C-127.5 81.8 -127.8 79.4 -129.6 75.6 C-142.4 62.1 -164.4 57.4 -182.2 54.6 C-195.6 52.4 -208.6 46.4 -221 41 C-216 39.3 -211.3 42 -206.5 43.6 C-197.1 46.7 -187.9 48.9 -178.2 50.6 C-160.8 53.5 -143.8 58 -129.4 68.6 C-122.4 72.4 -114.8 73.4 -107 75 C-103 76 -99 77 -95 78 C-99 74 -99 74 -102.9 70.8 C-107 67 -107 67 -109.9 62.4 C-113.4 57.4 -116.6 55.5 -122 53 C-121.7 52.7 -121.7 52.7 -120 51 C-123 49.3 -125.9 47.7 -129 46 C-126 45 -126 45 -122.2 46.4 C-118 48 -115.4 48.7 -111 48 C-109.1 45.9 -109.1 45.9 -107 43 C-105.5 41.8 -103.9 40.7 -102.3 39.5 C-98 36 -98 36 -97 31 C-101.4 21.8 -110.8 17.1 -119.9 13.4 C-127.8 10.7 -135.9 8.8 -144 7 C-144 6.3 -144 5.7 -144 5 C-135.5 2.7 -126.8 1.7 -118.2 4.1 C-114 6.6 -110.6 9.7 -107 13 C-94.3 24.1 -75.2 24.8 -59.2 24.2 C-46.4 23.3 -29.2 20.6 -20.3 11.1 C-15.2 6.2 -10.8 4.9 -4.1 3 C-3.1 2.7 -2.1 2.3 -1 2 C-0.7 1.3 -0.3 0.7 0 0 Z M-62.4 30.9 C-67.5 31.9 -72.3 32.5 -77.4 33 C-88.7 34.2 -94.1 39.5 -101 48 C-102.6 52.9 -102.6 57.3 -100.8 62.2 C-91.3 76.9 -71.3 82.6 -55.9 88.8 C-54.8 89.3 -53.6 89.8 -52.4 90.3 C-41.7 94.5 -30.3 97.9 -19 94 C-16 91 -16 91 -16 87.7 C-17.2 83.2 -19 81.1 -22.2 77.8 C-22.7 77.2 -22.7 77.2 -25.1 74.7 C-28 72 -28 72 -33 69 C-26.3 70 -22.3 70.6 -18 76 C-17.4 76.9 -16.8 77.7 -16.1 78.6 C-10.8 84.5 -2.5 85.3 5 86 C25.9 87.1 25.9 87.1 34 82 C39.4 75.9 43 71.4 43 63.1 C41 55.1 35.9 50.3 29.1 45.8 C24 42.8 18.5 40.5 13.1 38.1 C9.4 36.2 6.3 34.2 3.1 31.7 C-15.7 17.4 -41.8 26.2 -62.4 30.9 Z " fill="#D5B49C" transform="translate(336,192)"/>
<path d="M0 0 C4.3 1.7 8.3 3.6 12.4 5.7 C22.9 10.7 33.8 13.8 45 17 C60.1 21.4 68.7 26.1 79 38 C79.7 38.7 80.3 39.3 81 40 C80.7 41.6 80.3 43.3 80 45 C78.7 44.1 77.4 43.2 76 42.2 C68.2 37.2 60.4 34 51.5 31.2 C42.6 28.4 34.6 25 26.3 20.6 C19 17 11 16.7 3 16 C4 15.7 5 15.3 6 15 C6.3 14 6.7 13 7 12 C8.3 11.7 9.6 11.3 11 11 C11.3 10 11.7 9 12 8 C5.2 5 5.2 5 3 5 C2.3 6.6 1.7 8.3 1 10 C-0.3 10.3 -1.6 10.7 -3 11 C-3.3 9 -3.7 7 -4 5 C-3 4.7 -2 4.3 -1 4 C-0.7 2.7 -0.3 1.4 0 0 Z " fill="#E6C6A7" transform="translate(397,299)"/>
<path d="M0 0 C1 0.7 2 1.3 3 2 C3 2.7 3 3.3 3 4 C-41.4 9.4 -41.4 9.4 -57 -1 C-56.7 -1.7 -56.3 -2.3 -56 -3 C-54.6 -3 -53.2 -3 -51.8 -2.9 C-50.8 -2.9 -50.8 -2.9 -46.1 -2.9 C-45.2 -2.9 -45.2 -2.9 -40.6 -2.8 C-8.3 -3.9 -8.3 -3.9 0 0 Z " fill="#DF644E" transform="translate(308,331)"/>
<path d="M0 0 C0 0.7 0 1.3 0 2 C-11.9 5.3 -22.1 7.8 -34 3 C-34 2.3 -34 1.7 -34 1 C-22.9 -3.9 -11.3 -5.5 0 0 Z " fill="#E0644E" transform="translate(151,254)"/>
<path d="M0 0 C9.2 1.9 13.3 7.1 19 14 C19.7 14.7 20.3 15.3 21 16 C20.7 17.6 20.3 19.3 20 21 C18.7 20.1 17.4 19.2 16 18.2 C11.7 15.5 7.6 13.2 3 11 C0 9 0 9 -2 6 C-1 5.7 -0 5.3 1 5 C0.7 3.4 0.3 1.7 0 0 Z " fill="#DFBEA3" transform="translate(457,323)"/>
</svg>
