<?xml version="1.0" encoding="UTF-8"?>
<!-- Generator: visioncortex VTracer 0.6.12 -->
<svg version="1.1" xmlns="http://www.w3.org/2000/svg" width="600" height="600" viewBox="0 0 600 600" role="img" aria-label="One">
<path d="M0 0 C198 0 396 0 600 0 C600 198 600 396 600 600 C402 600 204 600 0 600 C0 402 0 204 0 0 Z " fill="#EDF2ED" transform="translate(0,0)"/>
<path d="M0 0 C1.3 0 2.6 0 3.9 0 C21.6 0.2 38.8 3.4 55.9 7.4 C48 34.5 27.4 62.1 3.1 76.6 C-19.6 89 -42.4 92 -67.9 90.9 C-68.7 90.9 -68.7 90.9 -72.4 90.8 C-75.9 90.7 -79.5 90.5 -83.1 90.4 C-84.4 92.4 -85.7 94.3 -87.1 96.4 C-71.9 98.1 -57.7 96.3 -42.8 93.8 C-34 92.5 -25.4 92 -16.6 92.1 C-15.3 92 -14 92 -12.6 92 C12.3 92 33.7 101.7 51.5 118.8 C77.4 145.8 84.9 182.9 84.2 219 C82.3 278.4 59.8 340.4 20.9 385.4 C20 386.5 19 387.7 18 388.8 C0.3 409 -23.1 422.6 -50.1 424.6 C-64.2 425 -77.9 422.1 -91.4 418.2 C-106.5 414 -117.1 415.1 -132.1 419.2 C-152.2 424.4 -169.4 422.5 -187.7 412.4 C-237.6 381.4 -264.1 321.7 -277.2 266.5 C-286.9 221.4 -286.8 173.9 -262.1 133.4 C-243.5 107.1 -218.4 90.7 -186.6 85.1 C-161.8 82.2 -137.2 85.7 -113.1 91.4 C-117.1 73.3 -124.4 57.8 -136.1 43.4 C-137.1 42.1 -138 40.7 -139.1 39.4 C-137.9 33.5 -136.8 32.7 -132.1 29.4 C-127 27.4 -124.4 26.8 -119.1 27.4 C-104.5 39 -99.2 68.9 -96.1 86.4 C-96 89 -96 91.7 -96.1 94.4 C-95.4 94.4 -94.7 94.4 -94.1 94.4 C-92 89.2 -91.6 84.4 -91.2 78.9 C-89.4 60 -84 43.7 -71.1 29.4 C-70.4 28.6 -69.7 27.9 -69 27.1 C-51.2 7.9 -25.5 -0 0 0 Z " fill="#D03D29" transform="translate(399.0625,69.625)"/>
<path d="M0 0 C198 0 396 0 600 0 C600 33 600 66 600 100 C402 100 204 100 0 100 C0 67 0 34 0 0 Z " fill="#D5E4D7" transform="translate(0,500)"/>
<path d="M0 0 C1.3 0 2.6 0 3.9 0 C21.6 0.2 38.8 3.4 55.9 7.4 C48 34.5 27.4 62.1 3.1 76.6 C-19.6 89 -42.4 92 -67.9 90.9 C-68.7 90.9 -68.7 90.9 -72.4 90.8 C-75.9 90.7 -79.5 90.5 -83.1 90.4 C-85.4 94 -87.8 97.5 -90.2 101.1 C-93.1 105.4 -93.1 105.4 -95.1 107.4 C-95.2 105.2 -95.2 105.2 -96.1 94.4 C-95.4 94.4 -94.7 94.4 -94.1 94.4 C-92 89.2 -91.6 84.4 -91.2 78.9 C-89.4 60 -84 43.7 -71.1 29.4 C-70.4 28.6 -69.7 27.9 -69 27.1 C-51.2 7.9 -25.5 -0 0 0 Z " fill="#8C7E60" transform="translate(399.0625,69.625)"/>
<path d="M0 0 C6.3 2.1 9.1 11.4 12 17 C35.1 67.7 25.6 127.5 6.8 178.1 C-3.9 206.1 -18.4 232.3 -38 255 C-39 256.1 -39.9 257.3 -40.9 258.5 C-58.7 278.7 -82.1 292.2 -109 294.2 C-121.4 294.6 -134.2 292.7 -146 289 C-146 288.7 -146 288.3 -146 288 C-144.6 287.8 -143.2 287.6 -141.8 287.4 C-106.8 281.7 -81.9 261.5 -61.1 233.4 C-20 175.8 15.8 94 4.7 21.6 C3.7 16.3 2.3 11.2 0.8 6 C0 3 0 3 0 0 Z " fill="#BA3623" transform="translate(458,200)"/>
<path d="M0 0 C4.5 3.3 7.7 6.2 9.7 11.5 C9.6 17.1 7.4 20.9 3.5 24.8 C-3.2 30.3 -10.4 35.1 -17.5 39.9 C-38.4 54.4 -53.1 72.7 -64.8 95.1 C-73 110.9 -73 110.9 -79.4 115.6 C-82.8 115.8 -82.8 115.8 -86.4 114.6 C-95.6 104.4 -94.9 87.8 -94.7 74.9 C-93.3 49.1 -84.4 27.7 -65.8 9.8 C-47.1 -6.7 -22.4 -12.2 0 0 Z " fill="#C84A33" transform="translate(231.375,185.375)"/>
<path d="M0 0 C14.4 11.5 20.1 41.6 23 59 C23.6 65.2 24.1 71.4 24.6 77.6 C24.7 78.5 24.7 78.5 25 82.7 C25.4 86.8 25.7 90.9 26 95 C34.8 93.4 43.2 91.5 51.7 88.4 C59.3 85.7 65.9 84.1 74 84 C70.1 87.9 65.5 90.5 60.8 93.3 C60.3 93.6 60.3 93.6 57.8 95.1 C40.6 105 24.4 110 4.5 105.9 C-5.5 101.7 -14 96.8 -22.7 90.4 C-26.7 87.5 -30.8 84.7 -35 82 C-35 81.3 -35 80.7 -35 80 C-25 80.2 -17 84.1 -8 88 C-5.2 89.1 -2.5 90.3 0.3 91.4 C1.5 91.9 2.7 92.3 3.9 92.8 C7 94 7 94 11 95 C10.7 94 10.3 93 10 92 C9.6 88.7 9.3 85.5 9 82.2 C8 71.3 8 71.3 7 66 C5.4 65.7 3.7 65.3 2 65 C2.7 64.8 2.7 64.8 6 64 C2 45.9 -5.3 30.4 -17 16 C-18 14.7 -19 13.4 -20 12 C-18.8 6.2 -17.7 5.3 -13 2 C-8 -0 -5.3 -0.6 0 0 Z " fill="#B93824" transform="translate(280,97)"/>
<path d="M0 0 C0.7 0.3 1.3 0.7 2 1 C2.6 4.1 2.6 4.1 3 7 C2.3 7.3 2.3 7.3 -1 9 C-1.3 8 -1.7 7 -2 6 C-3 6 -4 6 -5 6 C-5.3 7 -5.7 8 -6 9 C-11 8 -11 8 -13 6 C-14 8.6 -15 11.3 -16 14 C-16.3 13.3 -16.7 12.7 -17 12 C-18 12 -19 12 -20 12 C-18.8 6.2 -17.7 5.3 -13 2 C-8 0 -5.2 -0.3 0 0 Z " fill="#967558" transform="translate(280,97)"/>
</svg>
