<?xml version="1.0" encoding="UTF-8"?>
<!-- Generator: visioncortex VTracer 0.6.12 -->
<svg version="1.1" xmlns="http://www.w3.org/2000/svg" width="600" height="600" viewBox="0 0 600 600" role="img" aria-label="Rice">
<path d="M0 0 C198 0 396 0 600 0 C600 198 600 396 600 600 C402 600 204 600 0 600 C0 402 0 204 0 0 Z " fill="#EEF2EC" transform="translate(0,0)"/>
<path d="M0 0 C1.7 3.4 -0 6.5 -1 10 C-3.3 10.3 -5.6 10.7 -8 11 C-8.3 11.3 -8.7 11.7 -9 12 C-8.9 12.7 -8.9 12.7 -8.5 16.5 C-8.4 17.2 -8.4 17.2 -8 21 C-9 22 -9 22 -16 23 C-17.7 23.7 -19.3 24.3 -21 25 C-21 32 -21 32 -19 35 C-20.3 36 -21.6 37 -23 38 C-21.2 43.5 -14.9 45.2 -10 47.7 C83.2 91 233.4 85.4 328.4 52.5 C336.7 49.3 344.3 45.3 352 41 C351.3 39.3 350.7 37.7 350 36 C350.7 35 351.3 34 352 33 C351 28 351 28 346 23 C344.4 22 342.7 21 341 20 C341.6 17 342.3 14 343 11 C338.9 6.9 335.6 7.4 330 7 C329 4 329 4 330 1 C343.6 4.1 358.5 9.9 366.6 21.8 C369.7 31.1 367.6 40.1 365.8 49.5 C365 54 365 54 364.7 59.4 C363.8 67.7 361.9 75.5 359.9 83.5 C359.5 85.1 359.1 86.7 358.6 88.3 C344.7 142.3 317 188.3 269 218 C268.3 218.3 267.7 218.7 267 219 C269.2 219.5 271.4 220 273.7 220.6 C282.4 222.7 290.9 225.6 299.4 228.6 C306.5 230.7 311 229.9 317.7 227.2 C319.2 226.6 320.8 226 322.4 225.4 C324 224.8 325.7 224.1 327.4 223.4 C330.9 222.1 334.4 220.7 338 219.3 C339.8 218.6 341.6 217.9 343.5 217.1 C357.1 211.9 370.8 206.8 384.5 201.7 C388.7 200.1 393 198.5 397.3 196.8 C399.7 195.9 402.1 195 404.6 194.1 C406.6 193.3 408.7 192.5 410.8 191.7 C416 190 416 190 423 190 C429.3 196.3 429 196.1 429 205 C426.4 210.3 424.3 210.3 418.8 212.2 C417.1 212.9 415.4 213.5 413.6 214.1 C411.7 214.7 409.9 215.3 408 216 C406.2 216.6 404.4 217.3 402.5 217.9 C396.7 220 390.8 222 385 224 C380.6 225.5 376.2 227 371.9 228.5 C369.7 229.3 367.5 230 365.3 230.8 C348.8 236.5 332.4 242.3 316 248 C313.8 248.8 311.7 249.5 309.4 250.3 C281.7 260 254 269.8 226.3 279.7 C207.9 286.3 189.5 292.9 171.1 299.4 C156.9 304.4 142.8 309.4 128.6 314.5 C126.2 315.4 123.8 316.3 121.3 317.2 C116.7 318.8 112.1 320.4 107.6 322.1 C106.6 322.5 106.6 322.5 101.4 324.3 C99.6 325 97.8 325.6 96 326.3 C85.9 329.8 85.9 329.8 81 331 C80 330.3 79 329.7 78 329 C78 327 78 325 78 323 C86 318.8 94.2 315.4 102.5 312 C103.9 311.5 105.3 310.9 106.7 310.4 C111 308.6 115.3 306.9 119.6 305.2 C122.6 304 125.5 302.8 128.4 301.6 C135.6 298.8 142.8 295.9 150 293 C147.2 293 144.4 293 141.6 293.1 C132 293.1 122.3 292.5 112.7 291.8 C110.9 291.6 109.2 291.5 107.4 291.3 C18.6 284.2 18.6 284.2 -5 260 C-8 255 -8 255 -8 247 C5.5 228 34.3 222.8 56 219 C58 219 60 219 62 219 C62 218.3 62 217.7 62 217 C60 216.3 58 215.7 56 215 C5.5 182.4 -19.5 129.7 -32.4 72.6 C-41 31.3 -41 31.3 -35.8 20.2 C-27.2 10.7 -16.7 6.3 -5 2 C-3.3 1.3 -1.7 0.7 0 0 Z " fill="#6990B0" transform="translate(123,193)"/>
<path d="M0 0 C4 4 4 4 6 9 C5.7 12.9 5.2 16.3 4 20 C5.3 21.3 6.6 22.6 8 24 C3.4 28.6 0.4 29.5 -5.8 31.5 C-7.8 32.1 -9.8 32.8 -11.9 33.5 C-14.2 34.2 -16.4 34.9 -18.7 35.6 C-21 36.4 -23.4 37.1 -25.8 37.9 C-33.2 40.3 -40.6 42.6 -48 45 C-50.2 45.7 -52.5 46.4 -54.8 47.2 C-68.8 51.6 -82.8 56 -96.8 60.4 C-105.9 63.3 -115 66.2 -124.1 69.1 C-127.5 70.1 -130.8 71.2 -134.2 72.2 C-139.1 73.8 -143.9 75.3 -148.8 76.9 C-172.5 84.4 -196.3 91.7 -220 99 C-178.6 99.2 -178.6 99.2 31 100 C31 133 31 166 31 200 C-167 200 -365 200 -569 200 C-569 167 -569 134 -569 100 C-490.5 100 -411.9 100 -331 100 C-333.8 102.8 -336.9 103.8 -340.6 105.3 C-342.2 105.9 -343.7 106.5 -345.3 107.2 C-346.9 107.8 -348.5 108.5 -350.1 109.1 C-351.7 109.8 -353.4 110.4 -355 111.1 C-359 112.8 -363 114.4 -367 116 C-367 118 -367 120 -367 122 C-361.9 123.7 -357.8 121.1 -352.8 119.3 C-351.6 118.9 -350.3 118.4 -349.1 118 C-344.4 116.3 -339.7 114.7 -335 113 C-333 112.3 -330.9 111.5 -328.8 110.8 C-314.5 105.7 -300.1 100.6 -285.8 95.4 C-226.3 74.1 -166.8 53 -107.1 32.3 C-88.5 25.9 -70 19.3 -51.4 12.7 C-49.7 12.1 -47.9 11.5 -46.1 10.8 C-42.8 9.6 -39.4 8.4 -36.1 7.2 C-34.6 6.7 -33.2 6.1 -31.6 5.6 C-31 5.3 -31 5.3 -27.7 4.1 C-23.8 2.9 -20.1 2.5 -16 2 C-15.2 1.7 -15.2 1.7 -11.4 0.4 C-7 -1 -7 -1 0 0 Z " fill="#D4E3D6" transform="translate(569,400)"/>
<path d="M0 0 C-2 8.2 -8.3 11.8 -15 16 C-14.2 15.8 -14.2 15.8 -10 15 C-10.3 16 -10.7 17 -11 18 C-1.7 15.9 5.8 13.9 14 9 C15 9.3 16 9.7 17 10 C16 14 16 14 12.1 17 C7.2 19.9 2.4 22 -3 24 C-1.4 24.3 0.3 24.6 1.9 24.9 C3.6 25.2 5.3 25.6 7 26 C7.2 26.3 7.2 26.3 8 28 C5.4 28 2.7 28 0 28 C0.3 28.3 0.7 28.7 1 29 C2.7 29 4.3 29 6.1 29 C10.9 29 15.3 29.4 20 30 C21 29.7 22 29.3 23 29 C22.8 29.5 22.8 29.5 22 32 C14.9 35.6 9.9 35.2 2 35 C3.1 35.5 4.2 36 5.3 36.6 C9 39 9 39 12 46 C9.4 45.7 6.7 45.3 4 45 C5 47 6 49 7 51 C7 53 7 55 7 57 C5.4 56.3 3.7 55.7 2 55 C2 57.6 2 60.3 2 63 C1.7 63.7 1.7 63.7 0 67 C-1 66 -2 65 -3 64 C-4 65 -4 65 -4.1 70.1 C-4 71.7 -4 73.3 -4 75 C-4.7 74.8 -4.7 74.8 -8 74 C-8.3 74.7 -8.7 75.3 -9 76 C-8.7 76.5 -8.7 76.5 -7 79 C-1 78 -1 78 4 72 C4.3 72 4.7 72 5 72 C5 74 5 76 5 78 C9 76 9 76 10 74 C10.1 72.6 10.2 71.2 10.4 69.7 C11 65 11 65 14 60 C14.3 60.7 14.3 60.7 16 64 C16.7 64.3 17.3 64.7 18 65 C18.7 59.9 19 55.2 19 50 C19.7 48.7 20.3 47.4 21 46 C21.7 46.3 22.3 46.7 23 47 C23.3 48 23.7 49 24 50 C24.7 50 25.3 50 26 50 C27 45 27 45 27 37 C28 35.4 29 33.7 30 32 C30.7 33 31.3 34 32 35 C32.7 35.7 33.3 36.3 34 37 C34.7 34.7 35.3 32.4 36 30 C39 23 39 23 42 20 C42.3 20 42.7 20 43 20 C43.3 21.6 43.7 23.3 44 25 C45 25 46 25 47 25 C47.6 23.8 48.1 22.5 48.7 21.2 C51 17 51 17 56 13 C57.3 12.7 58.6 12.3 60 12 C59.7 14 59.3 16 59 18 C64 16 64 16 70 11 C74.9 9.7 74.9 9.7 79 9 C78 11 77 13 76 15 C83 14 83 14 88 12 C92.7 11.8 92.7 11.8 97 12 C97.3 12.3 97.3 12.3 99 14 C97.7 14.7 96.4 15.3 95 16 C94.7 17 94.3 18 94 19 C96.5 19 99.1 18.9 101.7 18.9 C107.1 18.8 109.9 19 115 21 C115 21.7 115 22.3 115 23 C113 23.7 111 24.3 109 25 C109.3 25.7 109.7 26.3 110 27 C111.6 27.5 113.2 27.9 114.8 28.4 C120 30 120 30 124 34 C123.7 34.3 123.3 34.7 123 35 C121 35 119 35 117 35 C119 39 119 39 122.5 40.9 C126 43 126 43 128 48 C125.7 48 123.4 48 121 48 C122 52 122 52 125 56 C125.3 58 125.7 60 126 62 C125 61.8 125 61.8 120 61 C120.6 65 121.2 69 122 73 C120.7 73 119.4 73 118 73 C118.3 74 118.7 75 119 76 C124 76 124 76 130 71 C130 72.3 130 73.6 130 75 C131 74.3 132 73.7 133 73 C133.4 68 133.8 63 134 58 C134.7 57.7 135.3 57.3 136 57 C136.3 58.3 136.7 59.6 137 61 C137.7 61 138.3 61 139 61 C139.1 59.1 139.2 57.3 139.2 55.4 C140 49 140 49 144 43 C144.3 43 144.7 43 145 43 C145.3 44.6 145.7 46.3 146 48 C147 46.7 148 45.4 149 44 C153 39 153 39 156 37 C157 37.3 158 37.7 159 38 C158 39.6 157 41.3 156 43 C157.2 42.3 158.4 41.7 159.6 41 C164 39 164 39 171 39 C170.5 39.8 170.5 39.8 168 44 C175 43 175 43 180 41 C179.3 42.6 178.7 44.3 178 46 C182.5 41.5 184.3 38.6 187 33 C191 29 191 29 197 28 C195.4 30 193.7 32 192 34 C189 41.9 189 41.9 189 45 C189.5 44.5 189.5 44.5 192 42 C190.6 49.2 187.7 52.5 182 57 C180.7 57.7 179.4 58.3 178 59 C179.3 59 180.6 59 182 59 C182 59.7 182 60.3 182 61 C177 64 177 64 169 64 C167.7 63 166.4 62 165 61 C158 62 158 62 154 66 C152.9 69 151.9 72 151 75 C150.7 76 150.3 77 150 78 C148.8 78.3 148.8 78.3 143 80 C146 79 146 79 148 79 C146 84 146 84 143 87 C141 89.3 139 91.7 137 94 C134.7 93.7 132.4 93.3 130 93 C131 93.3 132 93.7 133 94 C132.7 95 132.3 96 132 97 C129.7 98 127.4 99 125 100 C126 100.3 126 100.3 131 102 C135 107.9 135 107.9 135 111 C134.1 111.5 134.1 111.5 129.6 113.9 C124 117 124 117 123 118 C122.9 119.2 122.9 119.2 122.6 125.2 C122 132.9 121.4 136.9 115.6 142.1 C92.8 156.7 62.8 158.5 36.5 158.4 C34.6 158.4 32.7 158.4 30.8 158.4 C5.8 158.4 -26.1 155.9 -46 139 C-50.3 132.5 -49.1 124.5 -49 117 C-47.3 117 -45.7 117 -44 117 C-44.3 115.7 -44.7 114.4 -45 113 C-43 111.4 -41 109.7 -39 108 C-40 107.3 -41 106.7 -42 106 C-48 102 -48 102 -52 98 C-54.3 96.6 -56.6 95.3 -59 94 C-58.7 95.6 -58.3 97.3 -58 99 C-62 100 -62 100 -68 98 C-68.2 97.7 -68.2 97.7 -69 96 C-68.3 95.8 -68.3 95.8 -65 95 C-64.8 94.5 -64.8 94.5 -64 92 C-65.3 91.3 -66.6 90.7 -68 90 C-70 89 -72 88 -74 87 C-75.7 86.7 -77.3 86.3 -79 86 C-79.3 86.3 -79.3 86.3 -81 88 C-81.3 87.7 -81.7 87.3 -82 87 C-82 85.4 -82 83.7 -82 82 C-76 81 -76 81 -73 82 C-78 77 -78 77 -81 76 C-80.7 75 -80.3 74 -80 73 C-74 74 -74 74 -71.1 77.6 C-70.4 78.7 -69.7 79.8 -69 81 C-69 77.2 -70.3 74.4 -72 71 C-70 71.3 -68 71.7 -66 72 C-64 75 -64 75 -64 82 C-60 78 -60 78 -59 75 C-58 75.3 -57 75.7 -56 76 C-55.8 77.2 -55.8 77.2 -55 83 C-55.7 83.3 -55.7 83.3 -59 85 C-59 85.7 -59 86.3 -59 87 C-53.4 89.2 -48.9 90 -43 88 C-42.1 89.6 -41.1 91.2 -40.2 92.9 C-37 98 -37 98 -34 100 C-35.7 98 -37.3 96 -39 94 C-41 90 -41 90 -42 83 C-41 83.3 -41 83.3 -36 85 C-35 85 -34 85 -33 85 C-32.8 84.5 -32.8 84.5 -32 82 C-32.3 81.3 -32.7 80.7 -33 80 C-33.3 78.7 -33.7 77.4 -34 76 C-35.3 75.7 -36.6 75.3 -38 75 C-36.7 75.7 -35.4 76.3 -34 77 C-34 79 -34 81 -34 83 C-34.8 83.2 -34.8 83.2 -39 84 C-40 83 -41 82 -42 81 C-41.9 74.6 -40.7 72.6 -37 67 C-36.3 66.7 -35.7 66.3 -35 66 C-34.7 67 -34.3 68 -34 69 C-33 69.3 -32 69.7 -31 70 C-31 72 -31 74 -31 76 C-28 75 -28 75 -26 72 C-26.6 71.7 -26.6 71.7 -29.9 70.2 C-31.3 69.5 -32.6 68.8 -34 68 C-34.3 66.7 -34.7 65.4 -35 64 C-34.5 63.7 -34.5 63.7 -31.7 61.9 C-28 59 -28 59 -25 52 C-22.7 51.3 -20.4 50.7 -18 50 C-18.7 49.3 -19.3 48.7 -20 48 C-12.1 47 -12.1 47 -11 47 C-17.9 47 -24.9 47 -32 47 C-28.4 47.7 -24.7 48.3 -21 49 C-21.2 49.3 -21.2 49.3 -22 51 C-26.9 51 -31.9 51 -37 51 C-35.3 51.7 -33.7 52.3 -32 53 C-32 53.3 -32 53.7 -32 54 C-41.5 54.2 -41.5 54.2 -46 52 C-48 52 -50 52 -52 52 C-53 53 -54 54 -55 55 C-54 56.1 -53 57.1 -51.9 58.2 C-51 59.5 -50 60.7 -49 62 C-49.3 63.3 -49.7 64.6 -50 66 C-51 65 -52 64 -53 63 C-56.3 62.2 -59.6 61.6 -63 61 C-61.7 62.3 -60.4 63.6 -59 65 C-59.3 65.7 -59.7 66.3 -60 67 C-67.6 63.2 -67.6 63.2 -71 61 C-71 61.7 -71 62.3 -71 63 C-75 61 -75 61 -77 59 C-77 57 -77 55 -77 53 C-74.7 53.7 -72.4 54.3 -70 55 C-67.4 55 -64.7 55 -62 55 C-61.3 53.7 -60.7 52.4 -60 51 C-53.1 46.4 -49.1 46.3 -41 46 C-40.7 45 -40.3 44 -40 43 C-39.3 42.7 -38.7 42.3 -38 42 C-42 39 -42 39 -46 38 C-48 38.7 -50 39.3 -52 40 C-48 40 -48 40 -43 39 C-42.8 39.8 -42.8 39.8 -42 44 C-43 45 -43 45 -48.9 45.6 C-56 47 -56 47 -61.2 51.2 C-66 55 -66 55 -71.1 54.5 C-72.4 54 -73.7 53.5 -75 53 C-75.2 52.2 -75.2 52.2 -76 48 C-74.3 48.7 -72.7 49.3 -71 50 C-70.3 49.3 -69.7 48.7 -69 48 C-68.7 49 -68.3 50 -68 51 C-65.4 49 -62.7 47 -60 45 C-61.4 44.7 -62.7 44.5 -64.1 44.2 C-69 43 -69 43 -75 40 C-75 41.3 -75 42.6 -75 44 C-79 42 -79 42 -81 39 C-82 39.7 -83 40.3 -84 41 C-84.7 40 -85.3 39 -86 38 C-86.7 38.7 -87.3 39.3 -88 40 C-89 36 -89 36 -88 33 C-88.7 32.7 -89.3 32.3 -90 32 C-90.3 32.7 -90.7 33.3 -91 34 C-90.8 33 -90.8 33 -90 28 C-89 27.3 -88 26.7 -87 26 C-88.3 24.7 -89.6 23.3 -90.9 21.9 C-95 17 -95 17 -96 10 C-93 5 -93 5 -90 3 C-83.7 3.3 -80 4.4 -74 7 C-67 6 -67 6 -64 4 C-66 8 -66 8 -68 9 C-75 9 -75 9 -82 6 C-84.6 6 -87.3 6 -90 6 C-91 7 -92 8 -93 9 C-93 16.4 -91 17.9 -86 23 C-84 24 -84 24 -77 24 C-76 25 -75 26 -74 27 C-67 29 -67 29 -63 28 C-60 32 -60 32 -60 35 C-59.3 35 -58.7 35 -58 35 C-58.3 33.4 -58.7 31.7 -59 30 C-54 32 -54 32 -52 34 C-47 34 -47 34 -44 33 C-44 31.7 -44 30.4 -44 29 C-42.7 28.8 -41.4 28.5 -40.1 28.2 C-38.8 27.8 -37.4 27.4 -36 27 C-35.3 25.7 -34.7 24.4 -34 23 C-40.9 20.9 -44.8 20 -52 21 C-52.2 21.8 -52.2 21.8 -53 26 C-53.7 27 -54.3 28 -55 29 C-56.7 29 -58.3 29 -60 29 C-59.8 28.5 -59.8 28.5 -59 26 C-58 26.3 -57 26.7 -56 27 C-56 26.3 -56 25.7 -56 25 C-57.7 24.7 -59.3 24.3 -61 24 C-61 22.4 -61 20.7 -61 19 C-60.2 18.5 -60.2 18.5 -56 16 C-55.7 16.3 -55.3 16.7 -55 17 C-49 15 -49 15 -45 12 C-43.8 11.8 -42.6 11.5 -41.4 11.2 C-35.7 9.6 -31.8 6.4 -27 3 C-26.2 2.8 -26.2 2.8 -22 2 C-24.2 7.5 -26.4 9.4 -31 13 C-20.7 10.8 -9.1 0 0 0 Z " fill="#618EB1" transform="translate(252,303)"/>
<path d="M0 0 C6.3 6.3 6 6.1 6 15 C3.4 20.3 1.3 20.3 -4.2 22.2 C-5.9 22.9 -7.6 23.5 -9.4 24.1 C-11.3 24.7 -13.1 25.3 -15 26 C-16.8 26.6 -18.6 27.3 -20.5 27.9 C-26.3 30 -32.2 32 -38 34 C-42.4 35.5 -46.8 37 -51.1 38.5 C-53.3 39.3 -55.5 40 -57.7 40.8 C-74.2 46.5 -90.6 52.3 -107 58 C-109.2 58.8 -111.3 59.5 -113.6 60.3 C-141.3 70 -169 79.8 -196.7 89.7 C-215.1 96.3 -233.5 102.9 -251.9 109.4 C-266.1 114.4 -280.2 119.4 -294.4 124.5 C-296.8 125.4 -299.2 126.3 -301.7 127.2 C-306.3 128.8 -310.9 130.4 -315.4 132.1 C-317.5 132.8 -319.5 133.6 -321.6 134.3 C-322.5 134.6 -322.5 134.6 -327 136.3 C-337.1 139.8 -337.1 139.8 -342 141 C-342.5 140.7 -342.5 140.7 -345 139 C-345 137 -345 135 -345 133 C-337 128.8 -328.8 125.4 -320.5 122 C-319.1 121.5 -317.7 120.9 -316.3 120.4 C-312 118.6 -307.7 116.9 -303.4 115.2 C-300.4 114 -297.5 112.8 -294.6 111.6 C-287.4 108.8 -280.2 105.9 -273 103 C-275.8 103 -278.6 103 -281.4 103.1 C-291 103.1 -300.7 102.5 -310.3 101.8 C-312.1 101.6 -313.8 101.5 -315.6 101.3 C-404.4 94.2 -404.4 94.2 -428 70 C-431 65 -431 65 -431 57 C-418.8 39.8 -396.3 35.8 -377 31 C-376.2 30.8 -376.2 30.8 -372.3 29.7 C-364 27.6 -359.3 27.7 -351.6 31.7 C-345 36 -345 36 -343 38 C-342.4 42.5 -342.1 47.1 -341.8 51.6 C-341 56 -341 56 -337 61 C-312.6 74.8 -285.7 77.2 -258.2 77.2 C-256.3 77.3 -254.4 77.3 -252.4 77.3 C-227.6 77.4 -194.5 75.3 -175 58 C-173 53 -173 53 -172.7 45.4 C-172.6 44.2 -172.6 44.2 -172 38 C-162.1 30 -162.1 30 -154.7 29.9 C-144.1 31.9 -133.8 34.6 -123.7 38.3 C-116.6 40.9 -112.1 39.9 -105.3 37.2 C-103.8 36.6 -102.2 36 -100.6 35.4 C-99.8 35.1 -99.8 35.1 -95.6 33.4 C-92.1 32.1 -88.6 30.7 -85 29.3 C-83.2 28.6 -81.4 27.9 -79.5 27.1 C-65.9 21.9 -52.2 16.8 -38.5 11.7 C-34.3 10.1 -30 8.5 -25.7 6.8 C-23.3 5.9 -20.9 5 -18.4 4.1 C-17.4 3.7 -17.4 3.7 -12.2 1.7 C-7 0 -7 0 0 0 Z " fill="#C2D0C1" transform="translate(546,383)"/>
<path d="M0 0 C-2 8.2 -8.3 11.8 -15 16 C-14.2 15.8 -14.2 15.8 -10 15 C-10.3 16 -10.7 17 -11 18 C-1.7 15.9 5.8 13.9 14 9 C15 9.3 16 9.7 17 10 C16 14 16 14 12.1 17 C7.2 19.9 2.4 22 -3 24 C-1.4 24.3 0.3 24.6 1.9 24.9 C3.6 25.2 5.3 25.6 7 26 C7.2 26.3 7.2 26.3 8 28 C5.4 28 2.7 28 0 28 C0.3 28.3 0.7 28.7 1 29 C2.7 29 4.3 29 6.1 29 C10.9 29 15.3 29.4 20 30 C21 29.7 22 29.3 23 29 C22.8 29.5 22.8 29.5 22 32 C14.9 35.6 9.9 35.2 2 35 C3.1 35.5 4.2 36 5.3 36.6 C9 39 9 39 12 46 C9.4 45.7 6.7 45.3 4 45 C5 47 6 49 7 51 C7 53 7 55 7 57 C5.4 56.3 3.7 55.7 2 55 C2 57.6 2 60.3 2 63 C1.7 63.7 1.7 63.7 0 67 C-1 66 -2 65 -3 64 C-4 65 -4 65 -4.1 70.1 C-4 71.7 -4 73.3 -4 75 C-4.7 74.8 -4.7 74.8 -8 74 C-8.3 74.7 -8.7 75.3 -9 76 C-8.7 76.5 -8.7 76.5 -7 79 C-1 78 -1 78 4 72 C4.3 72 4.7 72 5 72 C5 74 5 76 5 78 C9 76 9 76 10 74 C10.1 72.6 10.2 71.2 10.4 69.7 C11 65 11 65 14 60 C14.3 60.7 14.3 60.7 16 64 C16.7 64.3 17.3 64.7 18 65 C18.7 59.9 19 55.2 19 50 C19.7 48.7 20.3 47.4 21 46 C21.7 46.3 22.3 46.7 23 47 C23.3 48 23.7 49 24 50 C24.7 50 25.3 50 26 50 C27 45 27 45 27 37 C28 35.4 29 33.7 30 32 C30.7 33 31.3 34 32 35 C32.7 35.7 33.3 36.3 34 37 C34.7 34.7 35.3 32.4 36 30 C39 23 39 23 42 20 C42.3 20 42.7 20 43 20 C43.3 21.6 43.7 23.3 44 25 C45 25 46 25 47 25 C47.6 23.8 48.1 22.5 48.7 21.2 C51 17 51 17 56 13 C57.3 12.7 58.6 12.3 60 12 C59.7 14 59.3 16 59 18 C64 16 64 16 70 11 C74.9 9.7 74.9 9.7 79 9 C78 11 77 13 76 15 C83 14 83 14 88 12 C92.7 11.8 92.7 11.8 97 12 C97.3 12.3 97.3 12.3 99 14 C97.7 14.7 96.4 15.3 95 16 C94.7 17 94.3 18 94 19 C96.5 19 99.1 18.9 101.7 18.9 C107.1 18.8 109.9 19 115 21 C115 21.7 115 22.3 115 23 C113 23.7 111 24.3 109 25 C109.3 25.7 109.7 26.3 110 27 C111.6 27.5 113.2 27.9 114.8 28.4 C120 30 120 30 124 34 C123.7 34.3 123.3 34.7 123 35 C121 35 119 35 117 35 C119 39 119 39 122.5 40.9 C126 43 126 43 128 48 C125.7 48 123.4 48 121 48 C122 52 122 52 125 56 C125.3 58 125.7 60 126 62 C125 61.8 125 61.8 120 61 C120.6 65 121.2 69 122 73 C120.7 73 119.4 73 118 73 C118.3 74 118.7 75 119 76 C124 76 124 76 130 71 C130 72.3 130 73.6 130 75 C131 74.3 132 73.7 133 73 C133.4 68 133.8 63 134 58 C134.7 57.7 135.3 57.3 136 57 C136.3 58.3 136.7 59.6 137 61 C137.7 61 138.3 61 139 61 C139.1 59.1 139.2 57.3 139.2 55.4 C140 49 140 49 144 43 C144.3 43 144.7 43 145 43 C145.3 44.6 145.7 46.3 146 48 C147 46.7 148 45.4 149 44 C153 39 153 39 156 37 C157 37.3 158 37.7 159 38 C158 39.6 157 41.3 156 43 C157.2 42.3 158.4 41.7 159.6 41 C164 39 164 39 171 39 C170.5 39.8 170.5 39.8 168 44 C175 43 175 43 180 41 C179.3 42.6 178.7 44.3 178 46 C182.5 41.5 184.3 38.6 187 33 C191 29 191 29 197 28 C195.4 30 193.7 32 192 34 C189 41.9 189 41.9 189 45 C189.5 44.5 189.5 44.5 192 42 C190.6 49.2 187.7 52.5 182 57 C180.7 57.7 179.4 58.3 178 59 C179.3 59 180.6 59 182 59 C182 59.7 182 60.3 182 61 C177 64 177 64 169 64 C167.7 63 166.4 62 165 61 C158 62 158 62 154 66 C152.9 69 151.9 72 151 75 C150.7 76 150.3 77 150 78 C148.8 78.3 148.8 78.3 143 80 C146 79 146 79 148 79 C146 84 146 84 141 87 C140.3 86.7 139.7 86.3 139 86 C139.3 85.3 139.7 84.7 140 84 C139.3 83.7 138.7 83.3 138 83 C138 81.4 138 79.7 138 78 C137 77.3 136 76.7 135 76 C133 77.6 131 79.3 129 81 C122.9 82.5 121.6 82.4 116 79 C114 77 114 77 113 71 C113.4 68.2 113.9 65.5 114.5 62.8 C116.8 50.5 115.6 41.8 108.5 31.3 C99.9 23.2 89.6 20.2 78.1 19.8 C70.8 20 64.5 20.7 58 24 C60 23.3 62 22.7 64 22 C66 22 68 22 70 22 C70.3 23 70.7 24 71 25 C71.3 23.7 71.7 22.4 72 21 C77 21 82 21 87 21 C87.3 22.3 87.7 23.6 88 25 C85.7 25.3 83.4 25.7 81 26 C81 26.3 81 26.7 81 27 C87 26 87 26 91 25 C91 24 91 23 91 22 C93.6 23.3 96.3 24.6 99 26 C98.7 27.3 98.3 28.6 98 30 C97 30.3 96 30.7 95 31 C101 33 101 33 108 32 C112.9 40.7 115.1 46 115 56 C114 56.7 113 57.3 112 58 C111.3 57.2 111.3 57.2 108 53 C107.7 53 107.3 53 107 53 C107 53.7 107 54.3 107 55 C108.3 56 109.6 57 111 58 C110.7 59.6 110.3 61.3 110 63 C109.2 63.2 109.2 63.2 105 64 C104.7 62.7 104.3 61.4 104 60 C102.4 59.7 100.7 59.3 99 59 C98 58 97 57 96 56 C93.4 54.9 90.7 53.9 88 53 C87.7 51.7 87.3 50.4 87 49 C82 47 82 47 77 46 C76 44.4 75 42.7 74 41 C73 40.7 72 40.3 71 40 C70.3 39 69.7 38 69 37 C67.7 36.7 66.4 36.3 65 36 C64.7 37.6 64.3 39.3 64 41 C63 41 62 41 61 41 C61.3 43 61.7 45 62 47 C61.7 48 61.3 49 61 50 C61 51.3 61 52.6 61 54 C59 55.6 57 57.3 55 59 C54.7 60.3 54.3 61.6 54 63 C53 64 52 65 51 66 C47.7 62.7 48.3 58.5 48 54 C48.3 53.7 48.7 53.3 49 53 C48.7 51.7 48.3 50.4 48 49 C47.7 50 47.7 50 46 55 C46.7 55.7 47.3 56.3 48 57 C47 63 47 63 46 64 C47.3 64.7 48.6 65.3 50 66 C49 72 49 72 48 73 C46 73 44 73 42 73 C42.3 71.4 42.7 69.7 43 68 C42.3 68 41.7 68 41 68 C41.3 69 41.7 70 42 71 C41 72.3 40 73.6 39 75 C37.4 75 35.7 75 34 75 C33.7 74.7 33.3 74.3 33 74 C32.7 74.7 32.3 75.3 32 76 C30 76 28 76 26 76 C26 74 26 72 26 70 C25.7 69.7 25.3 69.3 25 69 C24.3 68.3 23.7 67.7 23 67 C24.3 64.7 25.6 62.4 27 60 C28.6 60 30.3 60 32 60 C32.7 59 33.3 58 34 57 C32.4 57.3 30.7 57.7 29 58 C31 52 31 52 35 47 C35.7 45.4 36.3 43.7 37 42 C37.7 42.3 38.3 42.7 39 43 C39 44.6 39 46.3 39 48 C39.7 47.7 40.3 47.3 41 47 C40.3 44.7 39.7 42.4 39 40 C39.7 39 40.3 38 41 37 C34.1 43.9 30.3 52.1 25.7 60.7 C20.1 70.2 14.6 77.5 5 83 C3.7 83.3 2.4 83.7 1 84 C1.5 84.2 1.5 84.2 4 85 C3.8 85.7 3.8 85.7 3 89 C3.3 89 3.7 89 4 89 C7 89.3 10 89.7 13 90 C13 90.7 13 91.3 13 92 C13.7 91.7 14.3 91.3 15 91 C22 91 22 91 27 94 C28.8 96.6 30.4 99.3 32 102 C33 102 34 102 35 102 C36 100.4 37 98.7 38 97 C42.7 96.2 42.7 96.2 47 96 C47.3 96.7 47.7 97.3 48 98 C46.7 98.3 45.4 98.7 44 99 C43.7 100.3 43.3 101.6 43 103 C41.4 104.3 39.7 105.6 38 107 C38.7 108.6 39.3 110.3 40 112 C39.3 114 38.7 116 38 118 C37.7 118.2 37.7 118.2 36 119 C36 118 36 117 36 116 C35 115 34 114 33 113 C32 113 31 113 30 113 C28 120 28 120 29 122 C24 121 24 121 22 119 C23 115 23 115 24 113 C16.2 115.6 16.2 115.6 14 119 C13.3 117.4 12.7 115.7 12 114 C15.6 109.2 17.4 109.3 23 108 C23.3 107.3 23.7 106.7 24 106 C18 103 18 103 12 104 C10.8 104.2 10.8 104.2 5 105 C4.7 104.7 4.3 104.3 4 104 C-3 103 -3 103 -6 104 C-5.7 105.6 -5.3 107.3 -5 109 C-6 110 -6 110 -10.6 110.1 C-12 110 -13.5 110 -15 110 C-15 109.3 -15 108.7 -15 108 C-17 108 -19 108 -21 108 C-22.3 107 -23.6 106 -25 105 C-23.7 104.3 -22.4 103.7 -21 103 C-20.7 102.3 -20.3 101.7 -20 101 C-19 100.7 -18 100.3 -17 100 C-16.7 99.3 -16.3 98.7 -16 98 C-17.7 98.3 -19.3 98.7 -21 99 C-21.7 98.7 -21.7 98.7 -25 97 C-24.5 97.3 -24.5 97.3 -22 99 C-22.3 100.6 -22.7 102.3 -23 104 C-29 104 -29 104 -33.2 100.9 C-37.4 96.6 -39.4 92.3 -42 87 C-41.8 86.3 -41.8 86.3 -41 83 C-39.3 83.7 -37.7 84.3 -36 85 C-35 85 -34 85 -33 85 C-32.8 84.5 -32.8 84.5 -32 82 C-32.3 81.3 -32.7 80.7 -33 80 C-33.3 78.7 -33.7 77.4 -34 76 C-35.3 75.7 -36.6 75.3 -38 75 C-36.7 75.7 -35.4 76.3 -34 77 C-34 79 -34 81 -34 83 C-34.8 83.2 -34.8 83.2 -39 84 C-40 83 -41 82 -42 81 C-41.9 74.6 -40.7 72.6 -37 67 C-36.3 66.7 -35.7 66.3 -35 66 C-34.7 67 -34.3 68 -34 69 C-33 69.3 -32 69.7 -31 70 C-31 72 -31 74 -31 76 C-28 75 -28 75 -26 72 C-26.6 71.7 -26.6 71.7 -29.9 70.2 C-31.3 69.5 -32.6 68.8 -34 68 C-34.3 66.7 -34.7 65.4 -35 64 C-34.5 63.7 -34.5 63.7 -31.7 61.9 C-28 59 -28 59 -25 52 C-22.7 51.3 -20.4 50.7 -18 50 C-18.7 49.3 -19.3 48.7 -20 48 C-12.1 47 -12.1 47 -11 47 C-17.9 47 -24.9 47 -32 47 C-28.4 47.7 -24.7 48.3 -21 49 C-21.2 49.3 -21.2 49.3 -22 51 C-26.9 51 -31.9 51 -37 51 C-35.3 51.7 -33.7 52.3 -32 53 C-32 53.3 -32 53.7 -32 54 C-41.5 54.2 -41.5 54.2 -46 52 C-48 52 -50 52 -52 52 C-53 53 -54 54 -55 55 C-54 56.1 -53 57.1 -51.9 58.2 C-51 59.5 -50 60.7 -49 62 C-49.3 63.3 -49.7 64.6 -50 66 C-51 65 -52 64 -53 63 C-56.3 62.2 -59.6 61.6 -63 61 C-61.7 62.3 -60.4 63.6 -59 65 C-59.3 65.7 -59.7 66.3 -60 67 C-67.6 63.2 -67.6 63.2 -71 61 C-71 61.7 -71 62.3 -71 63 C-75 61 -75 61 -77 59 C-77 57 -77 55 -77 53 C-74.7 53.7 -72.4 54.3 -70 55 C-67.4 55 -64.7 55 -62 55 C-61.3 53.7 -60.7 52.4 -60 51 C-53.1 46.4 -49.1 46.3 -41 46 C-40.7 45 -40.3 44 -40 43 C-39.3 42.7 -38.7 42.3 -38 42 C-42 39 -42 39 -46 38 C-48 38.7 -50 39.3 -52 40 C-48 40 -48 40 -43 39 C-42.8 39.8 -42.8 39.8 -42 44 C-43 45 -43 45 -48.9 45.6 C-56 47 -56 47 -61.2 51.2 C-66 55 -66 55 -71.1 54.5 C-72.4 54 -73.7 53.5 -75 53 C-75.2 52.2 -75.2 52.2 -76 48 C-74.3 48.7 -72.7 49.3 -71 50 C-70.3 49.3 -69.7 48.7 -69 48 C-68.7 49 -68.3 50 -68 51 C-65.4 49 -62.7 47 -60 45 C-61.4 44.7 -62.7 44.5 -64.1 44.2 C-69 43 -69 43 -75 40 C-75 41.3 -75 42.6 -75 44 C-79 42 -79 42 -81 39 C-82 39.7 -83 40.3 -84 41 C-84.7 40 -85.3 39 -86 38 C-86.7 38.7 -87.3 39.3 -88 40 C-89 36 -89 36 -88 33 C-88.7 32.7 -89.3 32.3 -90 32 C-90.3 32.7 -90.7 33.3 -91 34 C-90.8 33 -90.8 33 -90 28 C-89 27.3 -88 26.7 -87 26 C-88.3 24.7 -89.6 23.3 -90.9 21.9 C-95 17 -95 17 -96 10 C-93 5 -93 5 -90 3 C-83.7 3.3 -80 4.4 -74 7 C-67 6 -67 6 -64 4 C-66 8 -66 8 -68 9 C-75 9 -75 9 -82 6 C-84.6 6 -87.3 6 -90 6 C-91 7 -92 8 -93 9 C-93 16.4 -91 17.9 -86 23 C-84 24 -84 24 -77 24 C-76 25 -75 26 -74 27 C-67 29 -67 29 -63 28 C-60 32 -60 32 -60 35 C-59.3 35 -58.7 35 -58 35 C-58.3 33.4 -58.7 31.7 -59 30 C-54 32 -54 32 -52 34 C-47 34 -47 34 -44 33 C-44 31.7 -44 30.4 -44 29 C-42.7 28.8 -41.4 28.5 -40.1 28.2 C-38.8 27.8 -37.4 27.4 -36 27 C-35.3 25.7 -34.7 24.4 -34 23 C-40.9 20.9 -44.8 20 -52 21 C-52.2 21.8 -52.2 21.8 -53 26 C-53.7 27 -54.3 28 -55 29 C-56.7 29 -58.3 29 -60 29 C-59.8 28.5 -59.8 28.5 -59 26 C-58 26.3 -57 26.7 -56 27 C-56 26.3 -56 25.7 -56 25 C-57.7 24.7 -59.3 24.3 -61 24 C-61 22.4 -61 20.7 -61 19 C-60.2 18.5 -60.2 18.5 -56 16 C-55.7 16.3 -55.3 16.7 -55 17 C-49 15 -49 15 -45 12 C-43.8 11.8 -42.6 11.5 -41.4 11.2 C-35.7 9.6 -31.8 6.4 -27 3 C-26.2 2.8 -26.2 2.8 -22 2 C-24.2 7.5 -26.4 9.4 -31 13 C-20.7 10.8 -9.1 0 0 0 Z " fill="#3D5F81" transform="translate(252,303)"/>
<path d="M0 0 C1.7 3.4 -0 6.5 -1 10 C-3.3 10.3 -5.6 10.7 -8 11 C-8.3 11.3 -8.7 11.7 -9 12 C-8.9 12.7 -8.9 12.7 -8.5 16.5 C-8.4 17.2 -8.4 17.2 -8 21 C-9 22 -9 22 -16 23 C-17.7 23.7 -19.3 24.3 -21 25 C-21 32 -21 32 -19 35 C-20.3 36 -21.6 37 -23 38 C-21.2 43.5 -14.9 45.2 -10 47.7 C83.2 91 233.4 85.4 328.4 52.5 C336.7 49.3 344.3 45.3 352 41 C351.3 39.3 350.7 37.7 350 36 C350.7 35 351.3 34 352 33 C351 28 351 28 346 23 C344.4 22 342.7 21 341 20 C341.6 17 342.3 14 343 11 C338.9 6.9 335.6 7.4 330 7 C329 4 329 4 330 1 C343.5 4.1 358.8 9.9 366.6 22 C368 26 368 26 368 33 C360 48.9 343.8 55.2 327.9 61.1 C297.6 71 263.1 78.6 231 78 C231.7 79.6 232.3 81.3 233 83 C232.3 83 231.7 83 231 83 C231 83.7 231 84.3 231 85 C232.3 84.7 233.6 84.3 235 84 C236 85 236 85 236.1 90.5 C236 96 236 96 235 97 C232.4 97 229.7 97 227 97 C227 96.3 227 95.7 227 95 C229 94.7 231 94.3 233 94 C232.7 92.4 232.3 90.7 232 89 C227.4 89.3 222.8 89.7 218 90 C218.3 90.7 218.7 91.3 219 92 C219 95.7 219 99.3 219 103 C214.7 104.4 210.5 104.1 206 104 C202.6 104 199.2 104.3 195.9 104.6 C194.7 104.6 194.7 104.6 189 105 C188 104 188 104 187.9 98.4 C188 96.6 188 94.8 188 93 C189 92.8 189 92.8 194 92 C187.6 91 181.4 90.9 175 91 C175 93 175 95 175 97 C176.6 97 178.3 97 180 97 C180 98 180 99 180 100 C176.7 100 173.3 100 170 100 C170 100.3 170 100.7 170 101 C174 101.3 177.9 101.7 182 102 C182 100 182 98 182 96 C180.7 96 179.4 96 178 96 C178 95 178 94 178 93 C180.3 93 182.6 93 185 93 C185.3 93.3 185.7 93.7 186 94 C185.7 97.7 185.4 101.3 185 105 C180.2 105 175.4 105 170.6 105.1 C169.9 105.1 169.9 105.1 166.4 105.1 C162.9 105.1 159.5 105.1 156 105 C155 104 155 104 154.9 99 C155 94 155 94 156 93 C158.6 93 161.3 93 164 93 C163.7 94 163.3 95 163 96 C161.7 96 160.4 96 159 96 C159 98 159 100 159 102 C160.3 101.7 161.6 101.3 163 101 C163 100.3 163 99.7 163 99 C162.3 99 161.7 99 161 99 C161 98.3 161 97.7 161 97 C162.6 97 164.3 97 166 97 C166 95 166 93 166 91 C159.1 91 152.1 91 145 91 C144.7 92.6 144.3 94.3 144 96 C145 96.3 146 96.7 147 97 C147 97.7 147 98.3 147 99 C144.7 99 142.4 99 140 99 C139.9 90.4 139.9 90.4 141 87 C145.9 86.7 150.9 86.3 156 86 C156 84.7 156 83.4 156 82 C147.8 81.5 139.5 81 131.3 80.5 C129 80.4 126.7 80.2 124.3 80.1 C122 79.9 119.8 79.8 117.4 79.7 C115.4 79.5 113.3 79.4 111.2 79.3 C104.8 79 98.4 79 92 79 C92.3 80 92.7 81 93 82 C92 82.3 91 82.7 90 83 C94.6 83.7 99.2 84.3 104 85 C104 89 104 92.9 104 97 C98 97 98 97 96 96 C96 95.3 96 94.7 96 94 C97.7 94 99.3 94 101 94 C101 92 101 90 101 88 C98.4 87.7 95.7 87.3 93 87 C93.3 87.7 93.7 88.3 94 89 C95.7 89.3 97.3 89.7 99 90 C99 90.7 99 91.3 99 92 C97 92 95 92 93 92 C93 94 93 96 93 98 C100.6 98.7 108.2 99.3 116 100 C116 98 116 96 116 94 C114.7 94 113.4 94 112 94 C112 93 112 92 112 91 C114.3 91 116.6 91 119 91 C119 95 119 98.9 119 103 C95.5 103.2 95.5 103.2 89 100 C88.7 100.3 88.3 100.7 88 101 C60.6 99.6 60.6 99.6 58 97 C58 93.3 58 89.7 58 86 C60 85 60 85 67 87 C67 87.7 67 88.3 67 89 C65 89 63 89 61 89 C61.3 90.6 61.7 92.3 62 94 C69.6 95 77.2 96 85 97 C84.7 95.7 84.3 94.4 84 93 C84.3 92.3 84.7 91.7 85 91 C84.3 91 83.7 91 83 91 C82.8 91.7 82.8 91.7 82 95 C79.7 94.7 77.4 94.3 75 94 C75 89.7 75 85.4 75 81 C74.3 81 73.7 81 73 81 C73 85.3 73 89.6 73 94 C70 93.7 67.1 93.3 64 93 C63.7 92 63.3 91 63 90 C64.7 90 66.3 90 68 90 C68.3 88 68.7 86 69 84 C68.1 83.9 68.1 83.9 63.7 83.6 C57.7 83.1 51.9 82.2 46 81 C46 83 46 85 46 87 C47.7 87.3 49.3 87.7 51 88 C51 88.7 51 89.3 51 90 C45 90 45 90 43 89 C42.8 87.5 42.8 87.5 42 80 C41.7 82.6 41.3 85.3 41 88 C37.4 89.8 33.7 87.9 30 87 C30 86 30 85 30 84 C32.6 84.3 35.3 84.7 38 85 C37.7 83.4 37.3 81.7 37 80 C34 79.3 31.1 78.7 28 78 C28 78.3 28 78.7 28 79 C30.3 79.7 32.6 80.3 35 81 C35 81.7 35 82.3 35 83 C32.7 82.7 30.4 82.3 28 82 C28.3 84 28.7 86 29 88 C36.9 89.6 44.8 91.3 53 93 C53 91 53 89 53 87 C52.3 86.8 52.3 86.8 49 86 C49 85.3 49 84.7 49 84 C51.3 84.3 53.6 84.7 56 85 C56 88.6 56 92.3 56 96 C41.9 100.7 15.8 89.5 2 85 C0.3 84 -1.3 83 -3 82 C-3 78.4 -3 74.7 -3 71 C-2 71.2 -2 71.2 3 72 C3.3 73 3.7 74 4 75 C2.7 74.7 1.4 74.3 0 74 C0.3 76 0.7 78 1 80 C3.6 80.8 6.2 81.7 8.9 82.5 C9.6 82.7 9.6 82.7 13.3 83.9 C17 85 17 85 19 85 C19 83 19 81 19 79 C18 79 17 79 16 79 C16.2 78.5 16.2 78.5 17 76 C18.7 76.7 20.3 77.3 22 78 C22 81 22 83.9 22 87 C23 87 24 87 25 87 C25 83.4 25 79.7 25 76 C24.2 75.8 24.2 75.8 20.1 75.1 C15 74 15 74 13 73 C13.3 75 13.7 77 14 79 C15.3 79.7 16.6 80.3 18 81 C18 81.7 18 82.3 18 83 C15.7 82.7 13.4 82.3 11 82 C10.8 80.7 10.8 80.7 10 74 C9.3 76.3 8.7 78.6 8 81 C7 80.7 7 80.7 2 79 C2.2 78.5 2.2 78.5 3 76 C4 76.3 5 76.7 6 77 C6 75 6 73 6 71 C2.7 70 -0.6 69 -4 68 C-4 72.6 -4 77.2 -4 82 C-15.4 78.2 -24.7 72.7 -33 64 C-36.8 50.8 -41.8 33.1 -35.8 20.2 C-27.2 10.7 -16.7 6.3 -5 2 C-3.3 1.3 -1.7 0.7 0 0 Z " fill="#8F4936" transform="translate(123,193)"/>
<path d="M0 0 C4 4 4 4 6 9 C5.7 14.5 5.3 16.6 2 21 C-2.7 22.8 -7.3 24.4 -12.1 25.9 C-12.8 26.2 -12.8 26.2 -16.4 27.3 C-21.1 28.9 -25.8 30.4 -30.5 31.9 C-33.8 32.9 -37 34 -40.3 35 C-48.2 37.6 -56 40.2 -63.9 42.7 C-72.3 45.4 -80.6 48.1 -88.9 50.8 C-90.5 51.3 -92.1 51.8 -93.8 52.4 C-120.8 61.2 -147.8 70.1 -174.8 79 C-185.8 82.6 -196.7 86.2 -207.7 89.8 C-209.1 90.3 -210.5 90.7 -211.9 91.2 C-219 93.5 -226 95.8 -233 98.1 C-247.7 102.9 -262.4 107.8 -277.1 112.7 C-285 115.3 -292.9 118 -300.8 120.6 C-304.6 121.9 -308.5 123.1 -312.3 124.4 C-317.7 126.2 -323 128 -328.4 129.8 C-329.2 130.1 -329.2 130.1 -333.3 131.4 C-344.4 135.1 -344.4 135.1 -350 134 C-350.3 133.2 -350.3 133.2 -352 129 C-346.4 123.4 -339.8 121.6 -332.6 118.9 C-330.9 118.2 -329.2 117.6 -327.5 117 C-323.6 115.5 -319.7 114 -315.8 112.6 C-308.1 109.7 -300.4 106.8 -292.8 103.9 C-277.9 98.3 -263 92.7 -248.2 87.1 C-241 84.4 -233.9 81.7 -226.7 79 C-204.3 70.6 -181.8 62.2 -159.3 54 C-144.9 48.8 -130.4 43.5 -116 38.1 C-98.4 31.6 -80.8 25.2 -63.2 18.9 C-57 16.6 -50.8 14.4 -44.7 12.2 C-40 10.5 -35.4 8.8 -30.7 7.1 C-28.5 6.3 -26.2 5.5 -23.9 4.7 C-22.9 4.3 -22.9 4.3 -17.6 2.4 C-15.7 1.7 -13.8 1 -11.9 0.3 C-7 -1 -7 -1 0 0 Z " fill="#9B472C" transform="translate(569,400)"/>
<path d="M0 0 C6.3 6.3 6 6.1 6 15 C3.4 20.3 1.3 20.3 -4.2 22.2 C-5.9 22.9 -7.6 23.5 -9.4 24.1 C-11.3 24.7 -13.1 25.3 -15 26 C-16.8 26.6 -18.6 27.3 -20.5 27.9 C-26.3 30 -32.2 32 -38 34 C-42.4 35.5 -46.8 37 -51.1 38.5 C-53.3 39.3 -55.5 40 -57.7 40.8 C-74.2 46.5 -90.6 52.3 -107 58 C-109.2 58.8 -111.3 59.5 -113.6 60.3 C-141.3 70 -169 79.8 -196.7 89.7 C-215.1 96.3 -233.5 102.9 -251.9 109.4 C-266.1 114.4 -280.2 119.4 -294.4 124.5 C-296.8 125.4 -299.2 126.3 -301.7 127.2 C-306.3 128.8 -310.9 130.4 -315.4 132.1 C-317.5 132.8 -319.5 133.6 -321.6 134.3 C-322.5 134.6 -322.5 134.6 -327 136.3 C-337.1 139.8 -337.1 139.8 -342 141 C-343 140.3 -344 139.7 -345 139 C-345 137 -345 135 -345 133 C-337.6 129.2 -330.1 125.9 -322.4 122.8 C-321.2 122.3 -320 121.8 -318.7 121.3 C-314.8 119.7 -310.8 118.2 -306.8 116.6 C-304 115.4 -301.3 114.3 -298.5 113.2 C-291.4 110.4 -284.2 107.5 -277.1 104.7 C-273.2 103.1 -269.3 101.5 -265.3 99.9 C-224.8 83.7 -184.3 67.6 -143.6 51.9 C-135.3 48.7 -127 45.4 -118.7 42.2 C-92.2 31.9 -65.7 21.8 -39.2 11.9 C-34.5 10.2 -29.9 8.4 -25.2 6.7 C-22.8 5.7 -20.4 4.8 -17.9 3.9 C-15.9 3.1 -14 2.3 -11.9 1.6 C-7 0 -7 0 0 0 Z " fill="#9B472C" transform="translate(546,383)"/>
<path d="M0 0 C0.3 1 0.7 2 1 3 C-3.5 6.4 -7.4 7.6 -12.8 9.4 C-13.8 9.7 -13.8 9.7 -18.9 11.4 C-21.2 12.1 -23.4 12.8 -25.7 13.6 C-28 14.3 -30.4 15.1 -32.8 15.9 C-56.4 23.5 -80.2 31 -103.9 38.4 C-117.7 42.8 -131.5 47.1 -145.3 51.5 C-170.7 59.5 -196.1 67.6 -221.5 75.5 C-232.8 79.1 -244.2 82.7 -255.5 86.3 C-261.9 88.3 -268.4 90.3 -274.8 92.4 C-278 93.3 -281.1 94.3 -284.2 95.3 C-292.9 98.1 -301.7 100.8 -310.5 103.6 C-313.6 104.6 -316.8 105.6 -319.9 106.6 C-324.8 108.1 -329.8 109.7 -334.7 111.2 C-335.5 111.4 -335.5 111.4 -339.3 112.7 C-346.2 114.8 -351.6 116 -359 116 C-359.3 114.7 -359.7 113.4 -360 112 C-357 111 -357 111 -352 112 C-348.6 111.1 -345.2 110 -341.9 108.9 C-340.8 108.5 -340.8 108.5 -335.6 106.8 C-333.4 106 -331.2 105.2 -328.9 104.4 C-324.2 102.9 -319.5 101.3 -314.9 99.7 C-312.5 98.9 -310.2 98.1 -307.8 97.3 C-298.2 94.1 -288.6 90.9 -278.9 87.8 C-266.9 83.9 -254.9 80 -242.9 76 C-241 75.3 -239 74.7 -237 74 C-236.2 73.7 -236.2 73.7 -232.4 72.5 C-220.2 68.4 -208.1 64.4 -195.9 60.5 C-173.6 53.2 -151.3 45.9 -129 38.5 C-105 30.6 -80.9 22.7 -56.9 14.9 C-43.4 10.5 -29.9 6 -16.4 1.4 C-5.6 -2.2 -5.6 -2.2 0 0 Z " fill="#BFCEC1" transform="translate(576,422)"/>
<path d="M0 0 C0.3 0.5 0.3 0.5 2 3 C5.3 4.1 8.6 5.1 12 6 C12.6 6.2 12.6 6.2 15.9 7.2 C38.7 14.1 60.8 16.4 84.6 16.3 C86.6 16.3 88.6 16.3 90.7 16.3 C105 16.2 118.9 15.4 133 13 C134.7 12.7 136.3 12.4 138 12.1 C141.7 11.5 145.4 10.7 149 10 C149 14.3 149 18.6 149 23 C139.4 26.2 129.9 28.4 120 30 C118.7 30.2 117.4 30.4 116.1 30.6 C78.4 35.8 36.7 32.8 3 14.2 C0 11 0 11 -0.5 5.1 C-0.3 3.4 -0.2 1.7 0 0 Z " fill="#6392B7" transform="translate(203,422)"/>
<path d="M0 0 C1.3 1.7 2.6 3.3 4 5 C26.5 30.9 74.6 36.3 106.5 40.1 C112 41 112 41 115 45 C114.7 46 114.3 47 114 48 C113.5 47.8 113.5 47.8 111 47 C111 51.3 111 55.6 111 60 C108 59.7 105.1 59.3 102 59 C101.7 58 101.3 57 101 56 C102.7 56 104.3 56 106 56 C106.3 54 106.7 52 107 50 C106.1 49.9 106.1 49.9 101.7 49.6 C95.7 49.1 89.9 48.2 84 47 C84 49 84 51 84 53 C85.7 53.3 87.3 53.7 89 54 C89 54.7 89 55.3 89 56 C83 56 83 56 81 55 C80.8 53.5 80.8 53.5 80 46 C79.7 48.6 79.3 51.3 79 54 C75.4 55.8 71.7 53.9 68 53 C68 52 68 51 68 50 C70.6 50.3 73.3 50.7 76 51 C75.7 49.4 75.3 47.7 75 46 C72 45.3 69.1 44.7 66 44 C66 44.3 66 44.7 66 45 C68.3 45.7 70.6 46.3 73 47 C73 47.7 73 48.3 73 49 C70.7 48.7 68.4 48.3 66 48 C66.2 49 66.2 49 67 54 C71 54.8 71 54.8 91 59 C91 57 91 55 91 53 C90.3 52.8 90.3 52.8 87 52 C87 51.3 87 50.7 87 50 C89.3 50.3 91.6 50.7 94 51 C94 54.6 94 58.3 94 62 C79.9 66.7 53.8 55.5 40 51 C38.3 50 36.7 49 35 48 C35 44.4 35 40.7 35 37 C36 37.2 36 37.2 41 38 C41.3 39 41.7 40 42 41 C40.7 40.7 39.4 40.3 38 40 C38.2 41 38.2 41 39 46 C41.6 46.8 44.2 47.7 46.9 48.5 C48.3 49 49.8 49.4 51.3 49.9 C55 51 55 51 57 51 C57 49 57 47 57 45 C56 45 55 45 54 45 C54.3 44 54.7 43 55 42 C56.7 42.7 58.3 43.3 60 44 C60 47 60 49.9 60 53 C61 53 62 53 63 53 C63 49.4 63 45.7 63 42 C61.4 41.7 59.8 41.4 58.1 41.1 C53 40 53 40 51 39 C51.2 40 51.2 40 52 45 C53.3 45.7 54.6 46.3 56 47 C56 47.7 56 48.3 56 49 C53.7 48.7 51.4 48.3 49 48 C48.8 46.7 48.8 46.7 48 40 C47.3 42.3 46.7 44.6 46 47 C44 46.3 42 45.7 40 45 C40.3 44 40.7 43 41 42 C42 42.3 43 42.7 44 43 C44 41 44 39 44 37 C40.7 36 37.4 35 34 34 C34 38.6 34 43.2 34 48 C22.6 44.2 13.3 38.7 5 30 C3.4 24.3 2.3 19.1 1.4 13.3 C1.1 11.7 0.9 10 0.6 8.3 C0 4 0 4 0 0 Z " fill="#7F8EA0" transform="translate(85,227)"/>
<path d="M0 0 C0.3 0.7 0.3 0.7 2 4 C1.3 4 0.7 4 0 4 C0 4.7 0 5.3 0 6 C1.3 5.7 2.6 5.3 4 5 C5 6 5 6 5.1 11.5 C5 17 5 17 4 18 C1.4 18 -1.3 18 -4 18 C-4 17.3 -4 16.7 -4 16 C-3 15.8 -3 15.8 2 15 C1.8 14.2 1.8 14.2 1 10 C-3.6 10.3 -8.2 10.7 -13 11 C-12.8 11.3 -12.8 11.3 -12 13 C-12 16.7 -12 20.3 -12 24 C-16.3 25.4 -20.5 25.1 -25 25 C-28.4 25 -31.8 25.3 -35.1 25.6 C-37.4 25.7 -39.7 25.9 -42 26 C-43 25 -43 25 -43.1 19.4 C-43 17.6 -43 15.8 -43 14 C-41 13.7 -39 13.3 -37 13 C-43.4 12 -49.6 11.9 -56 12 C-56 14 -56 16 -56 18 C-54.4 18 -52.7 18 -51 18 C-51 19 -51 20 -51 21 C-54.3 21 -57.7 21 -61 21 C-61 21.3 -61 21.7 -61 22 C-57 22.3 -53.1 22.7 -49 23 C-49 21 -49 19 -49 17 C-50.3 17 -51.6 17 -53 17 C-53 16 -53 15 -53 14 C-50.7 14 -48.4 14 -46 14 C-45.8 14.2 -45.8 14.2 -45 15 C-45.3 18.7 -45.6 22.3 -46 26 C-50.8 26 -55.6 26 -60.4 26.1 C-61.1 26.1 -61.1 26.1 -64.6 26.1 C-68.1 26.1 -71.5 26.1 -75 26 C-76 25 -76 25 -76.1 20 C-76 15 -76 15 -75 14 C-72.4 14 -69.7 14 -67 14 C-67.3 15 -67.7 16 -68 17 C-69.3 17 -70.6 17 -72 17 C-72 19 -72 21 -72 23 C-70.7 22.7 -69.4 22.3 -68 22 C-68 21.3 -68 20.7 -68 20 C-68.7 20 -69.3 20 -70 20 C-70 19.3 -70 18.7 -70 18 C-68.4 18 -66.7 18 -65 18 C-65 16 -65 14 -65 12 C-71.9 12 -78.9 12 -86 12 C-86.3 13.6 -86.7 15.3 -87 17 C-86 17.3 -85 17.7 -84 18 C-84 18.7 -84 19.3 -84 20 C-86.3 20 -88.6 20 -91 20 C-91.1 11.4 -91.1 11.4 -90 8 C-85.1 7.7 -80.1 7.3 -75 7 C-75 5.7 -75 4.4 -75 3 C-68.6 2.1 -62.5 1.7 -56 1.5 C-53.6 1.4 -51.3 1.3 -48.9 1.2 C-47.6 1.2 -47.6 1.2 -41.4 0.9 C-39 0.8 -36.6 0.8 -34.1 0.7 C-22.7 0.2 -11.4 -0.1 0 0 Z " fill="#866C6C" transform="translate(354,272)"/>
<path d="M0 0 C1 0.3 2 0.7 3 1 C2 2 1 3.1 0 4.1 C-3 8 -3 8 -3 14 C1.8 15.2 4.3 14.4 9 13 C10.6 12 12.3 11 14 10 C14 13 14 13 9 19 C7 18.7 5 18.3 3 18 C2.3 18 1.7 18 1 18 C-1.7 27.4 -2 34.1 2 43 C4.3 43.3 6.6 43.7 9 44 C10.7 38.1 11.5 33 12 27 C13 27 14 27 15 27 C14.8 27.8 14.8 27.8 14 32 C14.3 32.8 14.3 32.8 16 37 C15 38.3 14 39.6 13 41 C12.4 45.7 12 50.2 12 55 C10.6 55.3 9.2 55.6 7.8 55.9 C3 57 3 57 -2 59 C-4.4 57.4 -6.7 55.7 -9 54 C-9 53.7 -9 53.3 -9 53 C-7.7 52.7 -6.4 52.4 -5.1 52.1 C-1 51 -1 51 0 50 C0 48.3 0 46.7 0 45 C-4.9 41.1 -9.3 38.5 -15 36 C-15.7 36.2 -15.7 36.2 -19 37 C-19.8 37.2 -19.8 37.2 -24 38 C-24.3 38.2 -24.3 38.2 -26 39 C-26.3 41 -26.7 43 -27 45 C-29.6 44.7 -32.3 44.3 -35 44 C-37.7 48.1 -36.9 50.3 -36 55 C-35.5 55.8 -35.5 55.8 -33 60 C-33 60.7 -33 61.3 -33 62 C-34.4 62.4 -35.8 62.9 -37.2 63.3 C-42 65 -42 65 -47 68 C-47.3 66.8 -47.3 66.8 -49 61 C-53.3 55.6 -56.8 53.9 -63 51 C-62 50 -61 49 -60 48 C-59.7 48.3 -59.3 48.7 -59 49 C-57.4 49 -55.7 49 -54 49 C-51.4 43.8 -52.4 41.5 -54 36 C-55.3 34 -56.6 32 -58 30 C-58.3 28.7 -58.7 27.4 -59 26 C-55 28 -55 28 -54 29 C-52 29 -50 29 -48 29 C-47.3 27.7 -46.7 26.4 -46 25 C-44.7 25 -43.4 25 -42 25 C-41.3 23 -40.7 21 -40 19 C-39.3 18.3 -38.7 17.7 -38 17 C-35.7 17.3 -33.4 17.7 -31 18 C-30.3 17.7 -29.7 17.3 -29 17 C-28.7 15 -28.3 13 -28 11 C-27.2 11.7 -27.2 11.7 -23 15 C-23 15.7 -23 16.3 -23 17 C-24.6 18 -26.3 19 -28 20 C-28 21.3 -28 22.6 -28 24 C-28.7 24.3 -28.7 24.3 -32.5 25.6 C-38.2 28.1 -41.8 30.5 -46 35 C-46 37 -46 39 -46 41 C-44 42 -44 42 -36 42 C-29.8 38.9 -26.6 37 -23 31 C-20.7 31.7 -18.4 32.3 -16 33 C-8 33 -8 33 -6 32 C-7 25 -7 25 -11 21 C-12.3 20.3 -13.6 19.7 -15 19 C-14.7 18.3 -14.3 17.7 -14 17 C-14 9 -14 9 -15 4 C-14.1 3.9 -14.1 3.9 -9.8 3.1 C-4 2 -4 2 0 0 Z " fill="#F5EBD7" transform="translate(349,114)"/>
<path d="M0 0 C-4.4 2.9 -9 4.2 -14 5.9 C-16.3 6.7 -18.6 7.5 -20.9 8.3 C-21.5 8.5 -21.5 8.5 -24.7 9.6 C-47 17.3 -69.2 25.3 -91.3 33.6 C-107.2 39.6 -123.1 45.4 -139.1 51.3 C-164.1 60.4 -189.1 69.6 -214 79 C-223.5 82.6 -233 86.2 -242.4 89.7 C-246.6 91.3 -250.7 92.8 -254.8 94.4 C-257.4 95.4 -259.9 96.3 -262.5 97.3 C-264.7 98.2 -267 99 -269.4 99.9 C-273.2 101.3 -277.1 102.7 -281 104 C-281 103.3 -281 102.7 -281 102 C-298.5 107.8 -316 113.7 -333.3 120.1 C-339 122 -339 122 -345 123 C-346.3 122.3 -347.6 121.7 -349 121 C-349 120 -349 119 -349 118 C-347 118.3 -345 118.7 -343 119 C-339.2 117.9 -335.4 116.7 -331.6 115.3 C-330.4 114.9 -329.2 114.4 -327.9 114 C-325 113 -322.1 111.9 -319.2 110.9 C-313.2 108.7 -307.1 106.6 -301.1 104.4 C-289 100.1 -276.9 95.8 -264.8 91.4 C-205.3 70.1 -145.8 49 -86.1 28.3 C-67.5 21.9 -49 15.3 -30.4 8.7 C-28.7 8.1 -26.9 7.5 -25.1 6.8 C-21.7 5.6 -18.3 4.4 -15 3.1 C-3.3 -1.1 -3.3 -1.1 0 0 Z " fill="#BDCEC4" transform="translate(548,404)"/>
<path d="M0 0 C1 4 1 4 -2 10 C-22.8 28.5 -58.2 29.5 -84.5 29.4 C-85.4 29.4 -85.4 29.4 -90.2 29.4 C-115.2 29.4 -147.1 26.9 -167 10 C-169 7 -169 7 -169 1 C-167.5 2 -166 3.1 -164.4 4.1 C-127.2 26.6 -73.3 25.3 -32.2 15.6 C-20.5 12.5 -8.7 8.7 0 0 Z " fill="#9B472C" transform="translate(373,432)"/>
<path d="M0 0 C1.4 0.4 2.8 0.8 4.2 1.2 C58.2 15.6 115.4 17.4 169 0 C169.7 0 170.3 0 171 0 C172 10.8 172 10.8 167.8 15.9 C153.8 25 153.8 25 149 25 C149 20.7 149 16.4 149 12 C146.9 12.6 144.8 13.2 142.6 13.8 C99.5 24.3 49.1 22.8 7.4 7.2 C4 6 4 6 1 6 C0.7 4 0.3 2 0 0 Z " fill="#39597B" transform="translate(203,420)"/>
<path d="M0 0 C6 3 6 3 8 7 C9.6 7.7 11.3 8.3 13 9 C13 9.7 13 10.3 13 11 C14 11 15 11 16 11 C16.7 15 17.3 19 18 23 C18.3 23.3 18.7 23.7 19 24 C19.3 25.6 19.7 27.3 20 29 C18.4 29.3 16.7 29.7 15 30 C15 31 15 32 15 33 C15.3 32.3 15.7 31.7 16 31 C18 30.7 20 30.3 22 30 C22.3 31.3 22.7 32.6 23 34 C24.6 34 26.3 34 28 34 C28 34.7 28 35.3 28 36 C28.7 36 29.3 36 30 36 C29.7 35 29.3 34 29 33 C27.4 33 25.7 33 24 33 C25 29 25 29 27 25 C27.6 25 27.6 25 30.8 24.8 C35 24 35 24 38 20 C39 20 40 20 41 20 C40.8 20.8 40.8 20.8 40 25 C39.7 25.2 39.7 25.2 38 26 C39.3 26 40.6 26 42 26 C41.8 26.8 41.8 26.8 41 31 C42.3 30.3 43.6 29.7 45 29 C45.7 29.3 46.3 29.7 47 30 C44.4 33.1 44.4 33.1 41 36 C38.7 35.7 36.4 35.3 34 35 C35 35.3 36 35.7 37 36 C36.7 37 36.3 38 36 39 C28.4 42.4 22.3 43.6 14 43 C12.7 42.3 11.4 41.7 10 41 C10.7 40.3 11.3 39.7 12 39 C11.8 38.8 11.8 38.8 11 38 C10.3 39 9.7 40 9 41 C7 40.3 5 39.7 3 39 C3.3 38.3 3.7 37.7 4 37 C2.4 36.7 0.7 36.3 -1 36 C-2 35 -3 34 -4 33 C-4 32.3 -4 31.7 -4 31 C-2.4 31 -0.7 31 1 31 C1.3 29.7 1.7 28.4 2 27 C3 26 4 25 5 24 C4.7 22.7 4.3 21.4 4 20 C3.7 20 3.3 20 3 20 C1.7 19.7 0.4 19.3 -1 19 C-0 19.7 1 20.3 2 21 C2 22.6 2 24.3 2 26 C1.3 26.3 0.7 26.7 0 27 C-0.3 28 -0.7 29 -1 30 C-2.6 29.7 -4.3 29.3 -6 29 C-7 26 -8 23.1 -9 20 C-7.7 19.3 -6.4 18.7 -5 18 C-4.3 16.4 -3.7 14.7 -3 13 C-4.3 12.7 -5.6 12.3 -7 12 C-7 9.4 -7 6.7 -7 4 C-5 3.3 -3 2.7 -1 2 C-0.7 1.3 -0.3 0.7 0 0 Z " fill="#406284" transform="translate(348,361)"/>
<path d="M0 0 C0.7 0.3 1.3 0.7 2 1 C5.7 1.4 9.3 1.7 13 2 C13.2 3.2 13.2 3.2 14 9 C15.3 10.3 16.6 11.6 18 13 C18 13.7 18 14.3 18 15 C18.9 15.1 18.9 15.1 23.3 15.8 C29 17 29 17 32 20 C30.2 25.4 24.2 27.1 19.3 29.6 C5.5 35.9 -11.7 43 -27 43 C-27.2 41.8 -27.5 40.6 -27.7 39.4 C-29.4 33.6 -31.9 29.4 -37 26 C-39 25.7 -41 25.3 -43 25 C-42.7 22.7 -42.3 20.4 -42 18 C-37.8 19.1 -37.8 19.1 -33 21 C-32.4 22.1 -31.8 23.2 -31.1 24.3 C-27.9 29.9 -23.8 31.5 -18 34 C-11.8 34.4 -11.8 34.4 -7 34 C-7 32 -7 30 -7 28 C-12 23 -12 23 -17 20 C-16.3 18 -15.7 16 -15 14 C-13.7 13.7 -12.4 13.3 -11 13 C-10.3 14.7 -9.7 16.3 -9 18 C-1.7 22.9 2.4 24.3 11 24 C12 19 12 19 10 14 C5.4 11.7 0.7 9.9 -4 8 C-2.7 5.4 -1.4 2.7 0 0 Z " fill="#EEE1C8" transform="translate(444,212)"/>
<path d="M0 0 C2 0 4 0 6 0 C5.7 1.3 5.3 2.6 5 4 C5.3 4 5.7 4 6 4 C9 4.3 12 4.7 15 5 C15 5.7 15 6.3 15 7 C15.7 6.7 16.3 6.3 17 6 C24 6 24 6 29 9 C30.8 11.6 32.4 14.3 34 17 C35 17 36 17 37 17 C38 15.4 39 13.7 40 12 C44.7 11.2 44.7 11.2 49 11 C49.2 11.3 49.2 11.3 50 13 C48.7 13.3 47.4 13.7 46 14 C45.7 15.3 45.3 16.6 45 18 C43.4 19.3 41.7 20.6 40 22 C40.7 23.6 41.3 25.3 42 27 C41.3 29 40.7 31 40 33 C39.7 33.2 39.7 33.2 38 34 C38 33 38 32 38 31 C37 30 36 29 35 28 C34 28 33 28 32 28 C30 35 30 35 31 37 C26 36 26 36 24 34 C25 30 25 30 26 28 C18.2 30.6 18.2 30.6 16 34 C15.3 32.4 14.7 30.7 14 29 C17.6 24.2 19.4 24.3 25 23 C25.3 22.3 25.7 21.7 26 21 C20 18 20 18 14 19 C11.7 19.3 9.4 19.7 7 20 C6.7 19.7 6.3 19.3 6 19 C3.7 18.7 1.4 18.3 -1 18 C-3 15 -3 15 -3 10 C-2 9 -1 8 0 7 C-0.3 6 -0.7 5 -1 4 C-0.7 2.7 -0.3 1.4 0 0 Z " fill="#3B5B7E" transform="translate(250,388)"/>
<path d="M0 0 C3 3 3 3 3.4 7.7 C2.7 16.7 -1.7 22 -7 29 C-8 32 -8 32 -8 39 C-3 43 -3 43 4 44 C3.7 44.2 3.7 44.2 2 45 C1.7 47 1.3 49 1 51 C1.3 51.2 1.3 51.2 3 52 C2 53 1 54 0 55 C-0.2 59.7 -0.2 59.7 0 64 C-0.7 64 -1.3 64 -2 64 C-1.7 65.6 -1.3 67.3 -1 69 C-2 70 -2 70 -6.6 70.1 C-8 70 -9.5 70 -11 70 C-11 69.3 -11 68.7 -11 68 C-13 68 -15 68 -17 68 C-18.3 67 -19.6 66 -21 65 C-19.7 64.3 -18.4 63.7 -17 63 C-16.7 62.3 -16.3 61.7 -16 61 C-14.6 61.2 -13.2 61.5 -11.7 61.7 C-10.9 61.7 -10.9 61.7 -7 62 C-6 61 -5 60 -4 59 C-4 58.3 -4 57.7 -4 57 C-3.3 57 -2.7 57 -2 57 C-1.7 55.7 -1.3 54.4 -1 53 C-0.7 52 -0.3 51 0 50 C-1.3 49.7 -2.6 49.3 -4 49 C-3.2 48.8 -3.2 48.8 1 48 C0.7 47.3 0.3 46.7 0 46 C-2 45.3 -4 44.7 -6 44 C-6 44.7 -6 45.3 -6 46 C-8 46 -10 46 -12 46 C-12.3 44 -12.7 42 -13 40 C-14.3 38.7 -15.6 37.4 -17 36 C-17.3 34.4 -17.7 32.7 -18 31 C-19 30 -20 29 -21 28 C-21.3 27.3 -21.7 26.7 -22 26 C-23 27 -24 28 -25 29 C-26.7 28.7 -28.3 28.3 -30 28 C-30.3 26.7 -30.7 25.4 -31 24 C-30.5 23.7 -30.5 23.7 -27.7 21.9 C-24 19 -24 19 -21 12 C-18.7 11.3 -16.4 10.7 -14 10 C-14.7 9.3 -15.3 8.7 -16 8 C-12.4 7.2 -12.4 7.2 -8 7 C-6 8.3 -4 9.6 -2 11 C-3 16 -3 16 -6 19 C-6.3 20 -6.7 21 -7 22 C-2 19.5 -1.3 17 1 12 C0.3 11.7 -0.3 11.3 -1 11 C-0.3 10.7 0.3 10.3 1 10 C1 4 1 4 0 0 Z " fill="#436689" transform="translate(248,343)"/>
<path d="M0 0 C1.6 1.3 3.3 2.6 5 4 C5 4.7 5 5.3 5 6 C5.7 5.7 6.3 5.3 7 5 C9 5 11 5 13 5 C17 9 17 9 17 16 C12 21 12 21 7 25 C4.7 25 2.4 25 0 25 C-1.3 23.7 -2.6 22.4 -4 21 C-3 15 -3 15 1 12 C2.3 12.3 3.6 12.7 5 13 C5 14.3 5 15.6 5 17 C3.7 17 2.4 17 1 17 C1 17.7 1 18.3 1 19 C2.6 18.7 4.3 18.3 6 18 C6.3 16.4 6.7 14.7 7 13 C6.3 12.3 5.7 11.7 5 11 C-1 12 -1 12 -4 15 C-5.6 14.3 -7.3 13.7 -9 13 C-15 14 -15 14 -17 16 C-17 18 -17 20 -17 22 C-15.4 21.7 -13.7 21.3 -12 21 C-13 20 -13 20 -16 19 C-15.7 17.7 -15.3 16.4 -15 15 C-13.4 14.7 -11.7 14.3 -10 14 C-8.7 15 -7.4 16 -6 17 C-6.3 19.3 -6.7 21.6 -7 24 C-11 27 -11 27 -16 28 C-24.4 25.9 -24.4 25.9 -28 21 C-27 14 -27 14 -22 9 C-19.4 9 -16.7 9 -14 9 C-13.7 7.4 -13.3 5.7 -13 4 C-7.7 0.1 -6.7 0 0 0 Z " fill="#39597B" transform="translate(415,308)"/>
<path d="M0 0 C6.4 -0.1 12.6 0.2 19 1 C19.2 1.8 19.2 1.8 20 6 C19 6.3 18 6.7 17 7 C21.6 7.7 26.2 8.3 31 9 C31 13 31 16.9 31 21 C25 21 25 21 23 20 C23 19.3 23 18.7 23 18 C24.7 18 26.3 18 28 18 C28 16 28 14 28 12 C25.4 11.7 22.7 11.3 20 11 C20.2 11.3 20.2 11.3 21 13 C21.8 13.2 21.8 13.2 26 14 C26 14.7 26 15.3 26 16 C24 16 22 16 20 16 C20 18 20 20 20 22 C23.8 22.3 23.8 22.3 43 24 C43 22 43 20 43 18 C41.7 18 40.4 18 39 18 C39 17 39 16 39 15 C41.3 15 43.6 15 46 15 C46 19 46 22.9 46 27 C22.5 27.2 22.5 27.2 16 24 C15.7 24.3 15.3 24.7 15 25 C-12.4 23.6 -12.4 23.6 -15 21 C-15 17.3 -15 13.7 -15 10 C-13 9 -13 9 -6 11 C-6 11.7 -6 12.3 -6 13 C-8 13 -10 13 -12 13 C-11.7 14.6 -11.3 16.3 -11 18 C-7.2 18.5 -7.2 18.5 12 21 C11.7 19.7 11.3 18.4 11 17 C11.3 16.3 11.7 15.7 12 15 C11.3 15 10.7 15 10 15 C9.7 16.3 9.3 17.6 9 19 C6.7 18.7 4.4 18.3 2 18 C1.9 6.6 1.9 6.6 3 1 C2 0.7 1 0.3 0 0 Z " fill="#925D4F" transform="translate(196,269)"/>
<path d="M0 0 C11.4 -0.1 22.8 0.3 34.2 0.9 C37.4 1.1 40.7 1.3 43.9 1.5 C45.5 1.6 47 1.7 48.6 1.8 C57.1 2.2 65.5 2.6 74 3 C74 3.3 74 3.7 74 4 C71.7 4 69.4 4 67 4 C67 5.3 67 6.6 67 8 C68 8.3 69 8.7 70 9 C64.1 9 58.1 9 52 9 C52 10 52 11 52 12 C51 12.3 50 12.7 49 13 C49 11.7 49 10.4 49 9 C48.2 9 48.2 9 44 8.8 C42.9 8.8 42.9 8.8 37.4 8.6 C35.3 8.5 33.1 8.4 30.9 8.3 C25 8 25 8 18 7 C18 11 18 14.9 18 19 C20.3 19.3 22.6 19.7 25 20 C25 19 25 18 25 17 C23.7 17 22.4 17 21 17 C21 15 21 13 21 11 C25.9 11 30.9 11 36 11 C35.3 11.3 35.3 11.3 32 13 C31.3 14 30.7 15 30 16 C30 15 30 14 30 13 C27.7 13 25.4 13 23 13 C23 14 23 15 23 16 C24.3 16 25.6 16 27 16 C27 18 27 20 27 22 C23.7 21.9 20.5 21.7 17.2 21.6 C16.3 21.5 16.3 21.5 11.7 21.3 C7 21 7 21 4 20 C4 18 4 16 4 14 C6 14 8 14 10 14 C10 13.3 10 12.7 10 12 C8.3 12 6.7 12 5 12 C4.7 11 4.3 10 4 9 C6.6 9.3 9.3 9.7 12 10 C12 12 12 14 12 16 C10.3 16 8.7 16 7 16 C7 16.7 7 17.3 7 18 C9.6 18.3 12.3 18.7 15 19 C15 15 15 11.1 15 7 C13.9 6.9 13.9 6.9 8.2 6.6 C1 6 1 6 -2 4 C-0 4 2 4 4 4 C3 2 3 2 0 0 Z " fill="#7099B8" transform="translate(212,271)"/>
<path d="M0 0 C2.4 4.9 0.2 11.8 -1 17 C-10.4 31.1 -28.2 37.8 -44 42 C-44 40.7 -44 39.4 -44 38 C-42.6 37.6 -41.1 37.3 -39.6 36.9 C-38.9 36.6 -38.9 36.6 -35 35 C-34.3 33 -33.7 31 -33 29 C-34.3 28.7 -35.6 28.3 -37 28 C-36.3 27.3 -35.7 26.7 -35 26 C-33.7 26 -32.4 26 -31 26 C-30.7 28.3 -30.3 30.6 -30 33 C-28.6 32.3 -27.1 31.7 -25.6 31 C-21 29 -21 29 -19 29 C-18.7 26.7 -18.3 24.4 -18 22 C-18.7 22.7 -19.3 23.3 -20 24 C-20 25 -20 26 -20 27 C-27.8 31 -27.8 31 -30 31 C-30 28.4 -30 25.7 -30 23 C-31.6 23.7 -33.3 24.3 -35 25 C-36 25 -37 25 -38 25 C-37.7 27 -37.3 29 -37 31 C-36.3 31 -35.7 31 -35 31 C-35 32 -35 33 -35 34 C-36 34.2 -36 34.2 -41 35 C-41 31 -41 27.1 -41 23 C-37.6 21.5 -34.2 20 -30.8 18.6 C-29.9 18.2 -29.9 18.2 -25.1 16.1 C-20 14 -20 14 -15 13 C-15.9 24.8 -15.9 24.8 -17 27 C-16 26 -15 25 -14 24 C-14.3 23.3 -14.7 22.7 -15 22 C-15.2 16.9 -15.2 16.9 -14 11 C-8.6 6.5 -8.6 6.5 -3 3 C-2 2 -1 1 0 0 Z " fill="#925544" transform="translate(488,238)"/>
<path d="M0 0 C1 0.2 1 0.2 6 1 C8 4 8 4 8 11 C12 7 12 7 13 4 C14 4.3 15 4.7 16 5 C16.3 7.3 16.7 9.6 17 12 C16.3 12.3 16.3 12.3 13 14 C13 14.7 13 15.3 13 16 C18.6 18.2 23.1 19 29 17 C29.9 18.6 30.9 20.2 31.9 21.8 C33.5 24.6 35.2 27.3 37 30 C32 32 32 32 29 31 C29 31.7 29 32.3 29 33 C30 33.3 31 33.7 32 34 C31.7 34.2 31.7 34.2 30 35 C24 31 24 31 20 27 C17.7 25.6 15.4 24.3 13 23 C13.3 24.6 13.7 26.3 14 28 C10 29 10 29 4 27 C3.7 26.3 3.3 25.7 3 25 C4.3 24.7 5.6 24.3 7 24 C7.3 23 7.7 22 8 21 C6.7 20.3 5.4 19.7 4 19 C2 18 0 17 -2 16 C-3.7 15.7 -5.3 15.3 -7 15 C-7.7 15.7 -8.3 16.3 -9 17 C-9.3 16.7 -9.7 16.3 -10 16 C-10 14.4 -10 12.7 -10 11 C-4 10 -4 10 -1 11 C-6 6 -6 6 -9 5 C-8.7 4 -8.3 3 -8 2 C-2 3 -2 3 0.9 6.6 C1.6 7.7 2.3 8.8 3 10 C3 6.2 1.7 3.4 0 0 Z " fill="#395A7C" transform="translate(180,374)"/>
<path d="M0 0 C4.8 1.1 9.6 2.3 14.4 3.4 C15.8 3.8 17.2 4.1 18.6 4.4 C28.9 6.9 28.9 6.9 30 8 C30 11.7 30 15.3 30 19 C26.4 20.8 22.7 18.9 19 18 C19 17 19 16 19 15 C21.6 15.3 24.3 15.7 27 16 C26.8 15.2 26.8 15.2 26 11 C24.5 10.7 24.5 10.7 17 9 C17 9.3 17 9.7 17 10 C19.3 10.7 21.6 11.3 24 12 C24 12.7 24 13.3 24 14 C21.7 13.7 19.4 13.3 17 13 C17.3 15 17.7 17 18 19 C22 19.8 22 19.8 42 24 C42 22 42 20 42 18 C40.7 17.7 39.4 17.3 38 17 C38 16.3 38 15.7 38 15 C40.3 15.3 42.6 15.7 45 16 C45 19.6 45 23.3 45 27 C30.9 31.7 4.8 20.5 -9 16 C-10.7 15 -12.3 14 -14 13 C-14 9.4 -14 5.7 -14 2 C-13 2.2 -13 2.2 -8 3 C-7.7 4 -7.3 5 -7 6 C-8.3 5.7 -9.6 5.3 -11 5 C-10.7 7 -10.3 9 -10 11 C-7.4 11.8 -4.8 12.7 -2.1 13.5 C-1.4 13.7 -1.4 13.7 2.3 14.9 C6 16 6 16 8 16 C8 14 8 12 8 10 C7 10 6 10 5 10 C5.3 9 5.7 8 6 7 C7.7 7.7 9.3 8.3 11 9 C11 12 11 14.9 11 18 C12 18 13 18 14 18 C14 14.4 14 10.7 14 7 C13.2 6.8 13.2 6.8 9.1 6.1 C4 5 4 5 2 4 C2.3 6 2.7 8 3 10 C4.3 10.7 5.6 11.3 7 12 C7 12.7 7 13.3 7 14 C4.7 13.7 2.4 13.3 0 13 C0 8.7 0 4.4 0 0 Z " fill="#9B472C" transform="translate(134,262)"/>
<path d="M0 0 C1 1 2 2 3 3 C4.6 2.7 6.3 2.3 8 2 C10 4 10 4 10 12 C9 13.6 8 15.3 7 17 C0 18 0 18 -1 18 C-1.3 18.8 -1.3 18.8 -3 23 C-6 25 -6 25 -12 24 C-12.3 23 -12.7 22 -13 21 C-15.3 20.7 -17.6 20.3 -20 20 C-21 18 -21 18 -21 12 C-19.7 10.4 -18.4 8.7 -17 7 C-15.7 7 -14.4 7 -13 7 C-12.3 5.4 -11.7 3.7 -11 2 C-6 -1 -6 -1 0 0 Z " fill="#3F6183" transform="translate(457,289)"/>
<path d="M0 0 C0.7 1 1.3 2 2 3 C10.1 2.6 18 2.1 25.9 0.9 C27.9 0.6 29.9 0.3 32 0 C33 1 33 1 33.1 7.1 C33 9 33 11 33 13 C30.4 13.3 27.7 13.7 25 14 C25 13 25 12 25 11 C26.3 10.7 27.6 10.3 29 10 C29.3 8 29.7 6 30 4 C26 4.7 22.1 5.3 18 6 C18 8.3 18 10.6 18.1 12.9 C18 20 18 20 17 21 C13.3 21.4 9.6 21.7 5.9 22.1 C3.9 22.2 1.9 22.4 -0.2 22.6 C-1 22.7 -1 22.7 -5 23 C-5 20.2 -5 17.4 -5.1 14.6 C-5.1 13.1 -5.1 11.5 -5.1 9.9 C-5 6 -5 6 -4 4 C-3.3 4 -2.7 4 -2 4 C-1.3 2.7 -0.7 1.4 0 0 Z " fill="#8E5F55" transform="translate(366,272)"/>
<path d="M0 0 C3 2 3 2 4 6 C5.4 5.5 6.7 5 8.1 4.5 C13 3 13 3 19 3 C19.7 3.7 20.3 4.3 21 5 C22.3 4.3 23.6 3.7 25 3 C25.8 3.2 25.8 3.2 30 4 C30.3 3.3 30.7 2.7 31 2 C33.9 7.9 34.1 12.5 34 19 C33 19.7 32 20.3 31 21 C29.7 19.4 28.4 17.7 27 16 C26.7 16 26.3 16 26 16 C26 16.7 26 17.3 26 18 C27.3 19 28.6 20 30 21 C29.8 21.8 29.8 21.8 29 26 C27.4 26.3 25.7 26.7 24 27 C23.7 25.7 23.3 24.4 23 23 C21.4 22.7 19.7 22.3 18 22 C17 21 16 20 15 19 C12.4 17.9 9.7 16.9 7 16 C6.7 14.7 6.3 13.4 6 12 C1 10 1 10 -4 9 C-4 7 -4 5 -4 3 C-2.7 2 -1.4 1 0 0 Z " fill="#3F6183" transform="translate(333,340)"/>
<path d="M0 0 C1 3 1 3 0.9 10.1 C1 17 1 17 3 19 C5 19 7 19 9 19 C9.7 17.7 10.3 16.4 11 15 C12 14 13 13 14 12 C15.3 12.7 16.6 13.3 18 14 C22.7 14.1 27.3 14.1 32 14 C33.3 16.6 34.6 19.3 36 22 C34.7 22.2 34.7 22.2 28 23 C27.8 22.7 27.8 22.7 27 21 C20 22 20 22 17.3 25 C14.9 29.2 12.9 33.5 11 38 C8 35 8 35 4.5 30.9 C1 27 1 27 -2 25 C-1.9 23.4 -1.8 21.9 -1.7 20.2 C-1.8 18.5 -1.9 16.8 -2 15 C-7 11 -7 11 -14 11 C-14 8.7 -14 6.4 -14 4 C-11.4 4 -8.7 4 -6 4 C-4 2.7 -2 1.4 0 0 Z " fill="#F5ECD9" transform="translate(246,155)"/>
<path d="M0 0 C1.6 0.7 3.3 1.3 5 2 C5.3 4 5.7 6 6 8 C4.7 9.3 3.4 10.6 2 12 C2 13 2 14 2 15 C5 15 7.9 15 11 15 C11.3 16.4 11.6 17.8 11.9 19.3 C13 24 13 24 14 27 C13 27 12 27 11 27 C10.3 28 9.7 29 9 30 C8.3 30 7.7 30 7 30 C6.3 28 5.7 26 5 24 C3 23.7 1 23.3 -1 23 C-1.3 24.2 -1.3 24.2 -3 30 C-8 31 -8 31 -14 29 C-14.7 27.4 -15.3 25.7 -16 24 C-14 24.3 -12 24.7 -10 25 C-9 25 -8 25 -7 25 C-8 19 -8 19 -12 15 C-14.3 14.3 -16.6 13.7 -19 13 C-19 13.7 -19 14.3 -19 15 C-19.7 14.7 -20.3 14.3 -21 14 C-20 12.4 -19 10.7 -18 9 C-12 8 -12 8 -8 10 C-11 4 -11 4 -13 2 C-12.7 1.7 -12.3 1.3 -12 1 C-9.3 1.3 -6.7 1.6 -4 2 C-3.3 4.3 -2.7 6.6 -2 9 C0 5 0 5 0 0 Z " fill="#39597B" transform="translate(327,364)"/>
<path d="M0 0 C1.7 1.7 3.3 3.3 5 5 C9.2 8.3 13.4 11.2 18 14 C18 17.6 18 21.3 18 25 C18.7 25 19.3 25 20 25 C19.7 23.7 19.3 22.4 19 21 C20 21.3 21 21.7 22 22 C22 24 22 26 22 28 C12.6 24.2 12.6 24.2 10 19 C10 16.7 10 14.4 10 12 C8.7 11.3 7.4 10.7 6 10 C5.3 9.3 4.7 8.7 4 8 C4 9 4 10 4 11 C5.3 11.7 6.6 12.3 8 13 C8 14 8 15 8 16 C7 16 6 16 5 16 C9.8 25.6 20.8 29.6 30 34 C30 32.4 30 30.7 30 29 C29.3 30 28.7 31 28 32 C26.3 31 24.7 30 23 29 C23 26 23 23.1 23 20 C22 19.7 21 19.3 20 19 C20 18 20 17 20 16 C28.4 18.7 36.7 21.9 45 25 C45.2 27 45.2 27 46 37 C45.7 37.2 45.7 37.2 44 38 C42.3 37.3 40.7 36.7 39 36 C39.3 35 39.7 34 40 33 C41 33.3 42 33.7 43 34 C43 32 43 30 43 28 C39.7 27 36.4 26 33 25 C33 29.6 33 34.2 33 39 C21.6 35.2 12.3 29.7 4 21 C2 14 1 7.2 0 0 Z " fill="#95503B" transform="translate(86,236)"/>
<path d="M0 0 C6 2 6 2 10 7 C10.3 8.3 10.7 9.6 11 11 C12.2 10.8 12.2 10.8 18 10 C24 14 24 14 27 20 C26.7 22.3 26.3 24.6 26 27 C24.7 28 23.4 29 22 30 C17 29 17 29 13 25 C13 23 13 21 13 19 C14.3 19 15.6 19 17 19 C17.3 20 17.7 21 18 22 C17.3 22 16.7 22 16 22 C16.7 22.7 17.3 23.3 18 24 C18.3 22.7 18.7 21.4 19 20 C18.3 19 17.7 18 17 17 C15.3 17 13.7 17 12 17 C11.9 18.3 11.7 19.6 11.6 20.9 C11 25 11 25 10 26 C7.7 25.7 5.4 25.3 3 25 C-1 19 -1 19 -1 12 C0.3 11.3 1.6 10.7 3 10 C4 11 5 12 6 13 C6 14.3 6 15.6 6 17 C5.3 17 4.7 17 4 17 C4 17.7 4 18.3 4 19 C5 19 6 19 7 19 C7 13 7 13 4 9 C2.3 8.7 0.7 8.3 -1 8 C-6 7 -6 7 -9 3 C-8.7 2.3 -8.3 1.7 -8 1 C-7.3 1.2 -7.3 1.2 -4 2 C-2.7 1.3 -1.4 0.7 0 0 Z " fill="#39597B" transform="translate(115,288)"/>
<path d="M0 0 C1.8 0.3 1.8 0.3 11 2 C10.3 3.2 9.7 4.4 9 5.6 C7 10 7 10 7 16 C5.3 15.5 3.6 15 1.8 14.5 C-4 13 -4 13 -9 13 C-9.7 13.7 -10.3 14.3 -11 15 C-10 22 -10 22 -6.4 25.2 C-2.3 27.8 1.4 29.5 6 31 C4.4 32.3 2.7 33.6 1 35 C-0.6 37 -2.3 39 -4 41 C-7.1 37.9 -7.7 34.1 -9 30 C-9.3 29 -9.7 28 -10 27 C-12 27 -14 27 -16 27 C-17.6 28.7 -19.3 30.3 -21 32 C-22.6 28.4 -24.3 24.7 -26 21 C-24.4 20 -22.7 19 -21 18 C-18.9 14.7 -16.9 11.4 -15 8 C-13.3 8 -11.5 8.1 -9.8 8.1 C-4 8 -4 8 0 6 C0 4 0 2 0 0 Z " fill="#F5EBD7" transform="translate(289,182)"/>
<path d="M0 0 C-1 0.3 -2 0.7 -3 1 C-1.3 2.6 0.3 4.3 2 6 C2.8 10.8 2.8 10.8 3 15 C1 15.7 -1 16.3 -3 17 C-3.7 18 -4.3 19 -5 20 C-7.3 19.7 -9.6 19.3 -12 19 C-12 20.3 -12 21.6 -12 23 C-12.7 23 -13.3 23 -14 23 C-14.6 21.9 -15.1 20.8 -15.7 19.7 C-18 16 -18 16 -23 13 C-22.7 11.7 -22.3 10.4 -22 9 C-23.3 8.7 -24.6 8.3 -26 8 C-27.5 6.5 -28.7 4.7 -30 3 C-30 2 -30 1 -30 0 C-24 1 -24 1 -20 4 C-20.3 4.3 -20.7 4.7 -21 5 C-19.7 5.3 -18.4 5.7 -17 6 C-17.7 4.7 -18.3 3.4 -19 2 C-14.9 1 -12.8 1.1 -9 3 C-9.3 2 -9.7 1 -10 0 C-7 -1 -7 -1 0 0 Z " fill="#7CA0B9" transform="translate(155,285)"/>
<path d="M0 0 C0.1 2.1 0.2 4.2 0.4 6.3 C1 13 1 13 3 16 C4.2 15.8 4.2 15.8 10 15 C11.5 9.8 12.4 5.3 13 0 C15 1.7 17 3.3 19 5 C19.8 5.2 19.8 5.2 24 6 C24.2 6.2 24.2 6.2 25 7 C31 7 31 7 37 3 C37.7 2.7 38.3 2.3 39 2 C39.7 4.3 40.3 6.6 41 9 C42.3 10.7 43.6 12.3 45 14 C43.7 15.3 42.4 16.6 41 18 C39 16.3 37 14.7 35 13 C29.9 10.4 27.4 11.7 22 13 C20 13.3 18 13.7 16 14 C10 18 10 18 5 24 C4.3 23 3.7 22 3 21 C-2.4 13.9 -7.8 11.3 -16 8 C-16 6 -16 4 -16 2 C-15.3 2.3 -15.3 2.3 -12 4 C-9.5 3.6 -2 0 0 0 Z " fill="#F4EAD6" transform="translate(255,109)"/>
<path d="M0 0 C0.7 0.3 0.7 0.3 4 2.1 C8.9 4.4 11.8 4 17 3 C16.3 4.3 15.7 5.6 15 7 C14.3 6.7 13.7 6.3 13 6 C11 6 9 6 7 6 C5.7 5.7 4.4 5.3 3 5 C2.7 4.3 2.3 3.7 2 3 C-1 2.7 -3.9 2.3 -7 2 C-6.7 3 -6.3 4 -6 5 C-5.3 5.3 -4.7 5.7 -4 6 C-5 6 -6 6 -7 6 C-6.7 7.3 -6.3 8.6 -6 10 C-6.3 10.2 -6.3 10.2 -8 11 C-8 10 -8 9 -8 8 C-12 9 -12 9 -14 11 C-14 9.7 -14 8.4 -14 7 C-15 7.3 -16 7.7 -17 8 C-17.3 9.3 -17.7 10.6 -18 12 C-19 13 -20 14 -21 15 C-21 16 -21 17 -21 18 C-20 17.7 -19 17.3 -18 17 C-17.7 16.3 -17.3 15.7 -17 15 C-16.7 16 -16.3 17 -16 18 C-14.7 18 -13.4 18 -12 18 C-10.2 23.3 -12.8 27.2 -15 32 C-17.3 32.7 -19.6 33.3 -22 34 C-19 33 -19 33 -17 33 C-19 38 -19 38 -24 41 C-24.7 40.7 -25.3 40.3 -26 40 C-25.7 39.3 -25.3 38.7 -25 38 C-25.7 37.7 -26.3 37.3 -27 37 C-27 35.4 -27 33.7 -27 32 C-27.7 31.7 -28.3 31.3 -29 31 C-28.1 25.4 -26.8 22 -24.2 17 C-23.6 15.6 -22.9 14.3 -22.2 12.9 C-16.7 3.2 -11.1 -1 0 0 Z " fill="#4E7598" transform="translate(417,349)"/>
<path d="M0 0 C8.1 2.3 11.6 5 16.4 11.9 C19 17 19 17 18 23 C25.6 23 33.2 23 41 23 C41 23.3 41 23.7 41 24 C36 24.2 31 24.3 26.1 24.4 C25.4 24.5 25.4 24.5 21.8 24.6 C14.9 24.7 10.6 24.4 4.7 20.7 C-1.1 14.9 -4 11.3 -4 3 C-2.7 2 -1.4 1 0 0 Z " fill="#EEF2EC" transform="translate(243,242)"/>
<path d="M0 0 C1.3 1 2.6 2 4 3 C4 3.7 4 4.3 4 5 C13.6 3.4 13.6 3.4 17 0 C17.2 0.7 17.2 0.7 18 4 C14 9 14 9 7 11 C4.3 10.7 1.7 10.4 -1 10 C-3 10.3 -5 10.7 -7 11 C-7 10 -7 9 -7 8 C-5.4 7.3 -3.7 6.7 -2 6 C-4 6.3 -6 6.7 -8 7 C-8 8.6 -8 10.3 -8 12 C-2 12 -2 12 3 11 C0 16 0 16 -7 18 C-7.8 17.7 -7.8 17.7 -12 16 C-14.3 15.3 -16.6 14.7 -19 14 C-19.3 13.7 -19.7 13.3 -20 13 C-20 11.4 -20 9.7 -20 8 C-16 5 -16 5 -11 3 C-7 0 -7 0 0 0 Z " fill="#39597B" transform="translate(337,402)"/>
<path d="M0 0 C5 2 5 2 6 4 C5.3 4.3 5.3 4.3 2 6 C2 13 2 13 5 17 C6.7 17.3 8.3 17.7 10 18 C9.7 16 9.3 14 9 12 C8 11.3 7 10.7 6 10 C6 10.7 6 11.3 6 12 C7 12.3 8 12.7 9 13 C8.7 14 8.3 15 8 16 C4 15 4 15 3 14 C3 7 3 7 4 6 C10 6 10 6 16 11 C17 13 17 13 17 19 C16.3 19.3 16.3 19.3 13 21 C12.7 22 12.3 23 12 24 C9.7 24 7.4 24 5 24 C3.3 22 1.7 20 0 18 C-2 17 -4 16 -6 15 C-8 11 -8 11 -8 4 C-7 3.7 -6 3.3 -5 3 C-4.3 3.3 -3.7 3.7 -3 4 C-2.7 3 -2.3 2 -2 1 C-1.3 0.7 -0.7 0.3 0 0 Z " fill="#39597B" transform="translate(143,344)"/>
<path d="M0 0 C3 3 3 3 3.4 7.7 C2.7 16.7 -1.7 22 -7 29 C-8 32 -8 32 -8 39 C-3 43 -3 43 4 44 C3.7 44.2 3.7 44.2 2 45 C1.7 47 1.3 49 1 51 C1.7 51.3 2.3 51.7 3 52 C2 53 1 54 0 55 C-0.2 59.7 -0.2 59.7 0 64 C-0.7 64 -1.3 64 -2 64 C-1.7 65.6 -1.3 67.3 -1 69 C-2 70 -2 70 -6.6 70.1 C-8 70 -9.5 70 -11 70 C-11 69.3 -11 68.7 -11 68 C-13 68 -15 68 -17 68 C-18.3 67 -19.6 66 -21 65 C-19.7 64.3 -18.4 63.7 -17 63 C-16.7 62.3 -16.3 61.7 -16 61 C-15.3 61.1 -15.3 61.1 -11.7 61.7 C-10.9 61.7 -10.9 61.7 -7 62 C-6 61 -5 60 -4 59 C-4 58.3 -4 57.7 -4 57 C-3.3 57 -2.7 57 -2 57 C-1.7 55.7 -1.3 54.4 -1 53 C-0.7 52 -0.3 51 0 50 C-1.3 49.7 -2.6 49.3 -4 49 C-3.2 48.8 -3.2 48.8 1 48 C0.7 47.3 0.3 46.7 0 46 C-2 45.3 -4 44.7 -6 44 C-6 44.7 -6 45.3 -6 46 C-8 46 -10 46 -12 46 C-12.3 44 -12.7 42 -13 40 C-14.3 38.7 -15.6 37.4 -17 36 C-17 34.4 -17 32.7 -17 31 C-15 31.3 -13 31.7 -11 32 C-10.7 31 -10.3 30 -10 29 C-10.7 28.7 -11.3 28.3 -12 28 C-10.7 27.7 -9.4 27.3 -8 27 C-7.3 26 -6.7 25 -6 24 C-6.3 23.3 -6.7 22.7 -7 22 C-5.7 21.3 -4.4 20.7 -3 20 C-0.8 15.9 -0.8 15.9 1 12 C0.3 11.7 -0.3 11.3 -1 11 C-0.3 10.7 0.3 10.3 1 10 C1 4 1 4 0 0 Z " fill="#51799D" transform="translate(248,343)"/>
</svg>
