<?xml version="1.0" encoding="UTF-8"?>
<!-- Generator: visioncortex VTracer 0.6.12 -->
<svg version="1.1" xmlns="http://www.w3.org/2000/svg" width="600" height="600" viewBox="0 0 600 600" role="img" aria-label="Small">
<path d="M0 0 C198 0 396 0 600 0 C600 198 600 396 600 600 C402 600 204 600 0 600 C0 402 0 204 0 0 Z " fill="#EDF2ED" transform="translate(0,0)"/>
<path d="M0 0 C1.1 0.1 2.3 0.1 3.4 0.2 C7.2 0.4 11.1 0.6 14.9 0.8 C17.6 1 20.3 1.1 23 1.3 C28.8 1.6 34.7 1.9 40.5 2.3 C49.7 2.8 58.8 3.3 68 3.8 C85.4 4.7 102.7 5.7 120.1 6.7 C128.3 7.2 136.5 7.6 144.8 8.1 C160.7 9 176.7 9.9 192.6 10.8 C192.6 11.4 192.6 12.1 192.6 12.8 C193.6 12.8 194.6 12.8 195.6 12.8 C195.6 88 195.6 163.3 195.6 240.8 C190 243.4 184.4 246.1 178.6 248.8 C168.4 253.8 158.2 259.1 148.1 264.4 C141.4 267.9 134.6 271.3 127.8 274.7 C120.8 278.2 113.9 281.8 107 285.5 C95.2 291.7 84.3 289.5 71.3 288.2 C69.5 288 67.8 287.8 66 287.7 C60.3 287.1 54.6 286.5 48.9 286 C44.9 285.6 40.9 285.2 36.9 284.8 C28.6 283.9 20.2 283.1 11.9 282.3 C2.2 281.3 -7.4 280.3 -17 279.4 C-26.3 278.5 -35.6 277.5 -44.8 276.6 C-48.8 276.2 -52.7 275.8 -56.6 275.4 C-76.6 273.4 -96.5 271.4 -116.4 268.8 C-117.5 264.3 -117.5 260.5 -117.5 255.9 C-117.5 254 -117.5 252.1 -117.5 250.2 C-117.5 248.1 -117.5 246 -117.5 244 C-117.5 241.8 -117.5 239.6 -117.5 237.4 C-117.5 231.4 -117.5 225.5 -117.5 219.6 C-117.5 213.3 -117.5 207.1 -117.5 200.9 C-117.5 189.2 -117.5 177.4 -117.5 165.6 C-117.4 152.2 -117.4 138.8 -117.4 125.4 C-117.4 97.9 -117.4 70.3 -117.4 42.8 C-116.4 42.7 -115.5 42.5 -114.5 42.4 C-111.4 41.8 -111.4 41.8 -109.4 39.8 C-108.6 39.6 -108.6 39.6 -104.4 38.8 C-104.4 39.4 -104.4 40.1 -104.4 40.8 C-104 40.6 -104 40.6 -102.4 39.8 C-102.7 39.1 -103 38.5 -103.4 37.8 C-102.4 37.4 -101.5 37 -100.5 36.6 C-80.1 28.3 -59.8 19.9 -39.4 11.5 C-38.4 11.1 -37.4 10.6 -36.3 10.2 C-33.5 9 -30.6 7.9 -27.8 6.7 C-26.1 6 -24.5 5.3 -22.8 4.6 C-18.4 2.8 -18.4 2.8 -15.3 1.2 C-10.1 -0.7 -5.4 -0.3 0 0 Z " fill="#B2B8BE" transform="translate(308.379638671875,158.216064453125)"/>
<path d="M0 0 C198 0 396 0 600 0 C600 33 600 66 600 100 C402 100 204 100 0 100 C0 67 0 34 0 0 Z " fill="#D5E4D7" transform="translate(0,500)"/>
<path d="M0 0 C0 75.2 0 150.5 0 228 C-5.6 230.6 -11.2 233.3 -17 236 C-27.3 241 -37.4 246.3 -47.5 251.6 C-54.3 255.1 -61 258.5 -67.9 261.9 C-71.1 263.5 -74.3 265.2 -77.4 266.9 C-78.4 267.4 -79.3 267.9 -80.3 268.4 C-83 269.9 -85.7 271.3 -88.4 272.8 C-93 275 -93 275 -99 276 C-99 199.8 -99 123.5 -99 45 C-78 35.1 -57 25.3 -35.9 15.8 C-29.6 12.9 -23.4 10.1 -17.1 7.2 C-16 6.7 -14.9 6.2 -13.8 5.7 C-1.5 0 -1.5 0 0 0 Z " fill="#989EA6" transform="translate(504,171)"/>
<path d="M0 0 C1.1 0.1 2.3 0.1 3.4 0.2 C7.2 0.4 11.1 0.6 14.9 0.8 C17.6 1 20.3 1.1 23 1.3 C28.8 1.6 34.7 1.9 40.5 2.3 C49.7 2.8 58.8 3.3 68 3.8 C85.4 4.7 102.7 5.7 120.1 6.7 C128.3 7.2 136.5 7.6 144.8 8.1 C160.7 9 176.7 9.9 192.6 10.8 C192.6 11.8 192.6 12.8 192.6 13.8 C181 19.7 169.2 25.3 157.3 30.8 C155.5 31.6 153.8 32.4 152 33.3 C135.8 40.7 119.6 48.1 103.4 55.5 C101.8 56.2 100.2 57 98.6 57.8 C88.7 58.2 78.7 57.2 68.8 56.5 C66.7 56.4 64.7 56.2 62.7 56.1 C57.3 55.7 51.9 55.3 46.4 55 C40.7 54.6 35 54.2 29.3 53.8 C18.6 53 7.8 52.3 -3 51.5 C-15.2 50.7 -27.5 49.9 -39.7 49 C-65 47.3 -90.2 45.5 -115.4 43.8 C-111.5 40.9 -109 39.9 -104.4 38.8 C-104.4 39.4 -104.4 40.1 -104.4 40.8 C-104 40.6 -104 40.6 -102.4 39.8 C-102.7 39.1 -103 38.5 -103.4 37.8 C-102.4 37.4 -101.5 37 -100.5 36.6 C-80.1 28.3 -59.8 19.9 -39.4 11.5 C-38.4 11.1 -37.4 10.6 -36.3 10.2 C-33.5 9 -30.6 7.9 -27.8 6.7 C-26.1 6 -24.5 5.3 -22.8 4.6 C-18.4 2.8 -18.4 2.8 -15.3 1.2 C-10.1 -0.7 -5.4 -0.3 0 0 Z " fill="#C4C7CB" transform="translate(308.379638671875,158.216064453125)"/>
<path d="M0 0 C8.4 8.5 12.8 18.4 13.1 30.3 C12.8 40.8 9.4 49.7 2.8 57.8 C-7.5 67.3 -18.3 70.6 -32.1 70.3 C-42.1 69.2 -49.9 64.6 -57.2 57.8 C-65.5 47.3 -68.6 36.1 -67.2 22.8 C-64.8 12.2 -59 3.3 -50.2 -3.2 C-33.3 -13.3 -15.7 -11.8 0 0 Z " fill="#BF6156" transform="translate(150.25,356.1875)"/>
</svg>
