<?xml version="1.0" encoding="UTF-8"?>
<!-- Generator: visioncortex VTracer 0.6.12 -->
<svg version="1.1" xmlns="http://www.w3.org/2000/svg" width="600" height="600" viewBox="0 0 600 600" role="img" aria-label="Tea">
<path d="M0 0 C198 0 396 0 600 0 C600 198 600 396 600 600 C402 600 204 600 0 600 C0 402 0 204 0 0 Z " fill="#EDF2ED" transform="translate(0,0)"/>
<path d="M0 0 C5.8 6 7.1 9.8 7.1 18 C7.1 20 7 22 6.9 24.1 C8.6 24.1 10.2 24.1 11.9 24.1 C11.9 31 11.9 37.9 11.9 45.1 C12.6 44.5 12.6 44.5 15.8 41.8 C23.1 36.1 30.8 34.2 39.9 35.1 C49.1 37.9 54.5 41.9 59.3 50.2 C63.8 61 62.8 73.2 58.9 84.1 C55.1 93.1 50.4 100.7 43.9 108.1 C43.1 109.2 42.2 110.3 41.3 111.5 C28.9 124.6 13.8 133.2 -3.2 138.7 C-11 141.4 -14.1 143.6 -18.1 151.1 C-19.1 154 -20.2 157 -21.1 160.1 C-21.9 160.1 -22.8 160.2 -23.7 160.3 C-35.1 161.8 -40.1 167.2 -47.1 176.1 C-47.4 176.5 -47.4 176.5 -48.8 178.5 C-51.4 181.4 -54.1 183.6 -57.3 185.9 C-58.4 186.7 -59.5 187.5 -60.6 188.3 C-61.4 188.9 -62.2 189.5 -63.1 190.1 C-62.6 190.1 -62.6 190.1 -60.1 190.5 C-55.6 191.3 -51.1 192 -46.6 192.8 C-45.1 193 -43.6 193.2 -42 193.5 C-28.3 195.8 -14.7 198.7 -2.2 205.1 C-1 205.7 0.3 206.3 1.6 207 C5 209.1 6.9 210.7 8.9 214.1 C8.9 220.1 8.9 220.1 7.2 223.1 C-4.5 233.8 -26.5 240.1 -42.1 240.1 C-44 240.7 -46 241.4 -48.1 242.1 C-53 242.7 -53 242.7 -78.1 246.1 C0.8 246.4 79.7 246.7 160.9 247.1 C160.9 280.1 160.9 313.1 160.9 347.1 C-37.1 347.1 -235.1 347.1 -439.1 347.1 C-439.1 314.1 -439.1 281.1 -439.1 247.1 C-363.5 246.7 -287.9 246.4 -210.1 246.1 C-218.6 245.1 -227.2 244.1 -236.1 243.1 C-241.4 242.2 -246.7 241.3 -252.1 240.2 C-253.4 240 -254.6 239.7 -256 239.5 C-265.9 237.5 -275.8 235.2 -285.1 231.1 C-285.4 230.4 -285.7 229.7 -286.1 229.1 C-284.9 228.4 -284.9 228.4 -279.1 225.1 C-279.9 225.5 -280.7 225.9 -281.5 226.3 C-282.6 226.8 -283.7 227.3 -284.9 227.9 C-286 228.4 -287 228.9 -288.1 229.5 C-308.2 237.7 -330.9 234 -352.1 232.1 C-346 216.9 -331.1 205.4 -316.7 198.5 C-302.7 192.9 -289.9 192.9 -276.1 198.6 C-273.1 200.1 -273.1 200.1 -268.4 203.3 C-262.9 206.8 -259.5 206.9 -253.1 207.1 C-259.6 199.8 -264.2 195.1 -274.1 193.1 C-297.3 187.4 -317.1 178 -330.1 157.1 C-340.3 138.8 -342.1 118.8 -344.6 98.3 C-345.1 94.9 -345.6 91.5 -346.1 88.1 C-340.8 89.4 -336.2 92 -331.4 94.5 C-330.4 95 -329.4 95.6 -328.3 96.1 C-326.2 97.2 -324.1 98.4 -322 99.5 C-319.4 100.9 -316.7 102.3 -314 103.7 C-291 116 -273.7 131.9 -265.1 157.1 C-262.4 166.2 -261.4 175.3 -260.7 184.8 C-260.1 188.9 -259.1 191.5 -257.1 195.1 C-251.1 195.1 -245.2 193.6 -239.3 192.6 C-236.2 192 -233.2 191.5 -230.1 191.1 C-228.3 190.8 -226.6 190.5 -224.8 190.2 C-219.4 190 -217.1 191 -212.6 193.7 C-181.9 210.1 -141.9 209.6 -108.9 201 C-74.3 190.3 -49.3 165.2 -32.5 133.9 C-16.5 102.1 -9.5 69 -5.1 34.1 C-6.3 34.6 -7.6 35.2 -8.9 35.8 C-81.8 68.3 -189.4 67 -264.5 40.8 C-274.9 36.8 -284.2 31.8 -290.6 22.2 C-292.5 16.9 -292.3 13.6 -291.1 8.1 C-283.8 -4.8 -268.4 -10.4 -254.9 -14.5 C-230.3 -21.2 -205.5 -24 -180.1 -25.9 C-178.3 -26.1 -176.6 -26.2 -174.7 -26.3 C-125.1 -29.4 -41 -34.1 0 0 Z " fill="#D5E4D7" transform="translate(439.0625,252.9375)"/>
<path d="M0 0 C5.8 6 7.1 9.8 7.1 18 C7.1 20 7 22 6.9 24.1 C8.6 24.1 10.2 24.1 11.9 24.1 C11.9 31 11.9 37.9 11.9 45.1 C12.6 44.5 12.6 44.5 15.8 41.8 C23.1 36.1 30.8 34.2 39.9 35.1 C49.1 37.9 54.5 41.9 59.3 50.2 C63.8 61 62.8 73.2 58.9 84.1 C55.1 93.1 50.4 100.7 43.9 108.1 C43.1 109.2 42.2 110.3 41.3 111.5 C28.9 124.6 13.8 133.2 -3.2 138.7 C-11 141.4 -14.1 143.6 -18.1 151.1 C-19.1 154 -20.2 157 -21.1 160.1 C-21.9 160.1 -22.8 160.2 -23.7 160.3 C-35.1 161.8 -40.1 167.2 -47.1 176.1 C-47.4 176.5 -47.4 176.5 -48.8 178.5 C-51.4 181.4 -54.1 183.6 -57.3 185.9 C-58.4 186.7 -59.5 187.5 -60.6 188.3 C-61.4 188.9 -62.2 189.5 -63.1 190.1 C-62.6 190.1 -62.6 190.1 -60.1 190.5 C-55.6 191.3 -51.1 192 -46.6 192.8 C-45.1 193 -43.6 193.2 -42 193.5 C-28.3 195.8 -14.7 198.7 -2.2 205.1 C-1 205.7 0.3 206.3 1.6 207 C5 209.1 6.9 210.7 8.9 214.1 C8.9 220.1 8.9 220.1 7.2 223.1 C-4.5 233.8 -26.5 240.1 -42.1 240.1 C-44.1 240.7 -46.1 241.4 -48.1 242.1 C-50.1 242.4 -52.2 242.8 -54.3 243.1 C-54.9 243.1 -54.9 243.1 -57.9 243.6 C-59.2 243.7 -60.5 243.9 -61.8 244.1 C-62.5 244.1 -62.5 244.1 -65.9 244.6 C-95.1 248.3 -124.6 249.5 -154.1 249.1 C-155.1 249 -156.2 249 -157.3 249 C-251.4 247.7 -251.4 247.7 -286.1 230.1 C-284.7 229.1 -283.4 228.1 -282.1 227.1 C-281.7 226.7 -281.4 226.4 -281.1 226.1 C-281.9 226.4 -281.9 226.4 -285.9 228.4 C-306.3 238.2 -330.3 234 -352.1 232.1 C-346 216.9 -331.1 205.4 -316.7 198.5 C-302.7 192.9 -289.9 192.9 -276.1 198.6 C-273.1 200.1 -273.1 200.1 -268.4 203.3 C-262.9 206.8 -259.5 206.9 -253.1 207.1 C-259.6 199.8 -264.2 195.1 -274.1 193.1 C-297.3 187.4 -317.1 178 -330.1 157.1 C-340.3 138.8 -342.1 118.8 -344.6 98.3 C-345.1 94.9 -345.6 91.5 -346.1 88.1 C-340.8 89.4 -336.2 92 -331.4 94.5 C-330.4 95 -329.4 95.6 -328.3 96.1 C-326.2 97.2 -324.1 98.4 -322 99.5 C-319.4 100.9 -316.7 102.3 -314 103.7 C-291 116 -273.7 131.9 -265.1 157.1 C-262.4 166.2 -261.4 175.3 -260.7 184.8 C-260.1 188.9 -259.1 191.5 -257.1 195.1 C-251.1 195.1 -245.2 193.6 -239.3 192.6 C-236.2 192 -233.2 191.5 -230.1 191.1 C-228.3 190.8 -226.6 190.5 -224.8 190.2 C-219.4 190 -217.1 191 -212.6 193.7 C-181.9 210.1 -141.9 209.6 -108.9 201 C-74.3 190.3 -49.3 165.2 -32.5 133.9 C-16.5 102.1 -9.5 69 -5.1 34.1 C-6.3 34.6 -7.6 35.2 -8.9 35.8 C-81.8 68.3 -189.4 67 -264.5 40.8 C-274.9 36.8 -284.2 31.8 -290.6 22.2 C-292.5 16.9 -292.3 13.6 -291.1 8.1 C-283.8 -4.8 -268.4 -10.4 -254.9 -14.5 C-230.3 -21.2 -205.5 -24 -180.1 -25.9 C-178.3 -26.1 -176.6 -26.2 -174.7 -26.3 C-125.1 -29.4 -41 -34.1 0 0 Z " fill="#E0D5B8" transform="translate(439.0625,252.9375)"/>
<path d="M0 0 C0.5 0.7 1 1.4 1.6 2.1 C24.8 29.5 74.8 31.1 108 34 C164.8 38.3 233.2 38.6 285 12 C285.7 12.3 286.3 12.7 287 13 C280.8 59.6 271 106.5 239 143 C238.3 143.9 237.6 144.7 236.8 145.6 C216 169.7 186.4 182.9 155 186 C121.2 188.1 85.5 183.8 59 161 C17.5 123.5 4.2 65.7 0 12 C-0.1 8 -0 4 0 0 Z " fill="#F1E6CC" transform="translate(148,274)"/>
<path d="M0 0 C5.3 1.3 9.8 3.9 14.6 6.4 C15.7 7 16.7 7.5 17.7 8.1 C19.8 9.2 21.9 10.3 24 11.4 C26.7 12.8 29.4 14.2 32 15.6 C55 27.9 72.4 43.9 81 69 C83.7 78.1 84.6 87.2 85.4 96.7 C86 100.8 86.9 103.5 89 107 C94.9 107 100.9 105.5 106.7 104.5 C120 102.2 120 102.2 126 102 C130 105 130 105 131 109 C130.9 109.7 130.9 109.7 130.7 113.3 C131.1 119.3 132.5 121 137 125 C155.7 137.1 182.5 137.4 203.9 137.4 C205.6 137.4 207.3 137.4 209.1 137.4 C227.5 137.2 244.6 135.1 262 129 C262 128 262 127 262 126 C263.6 124 265.3 122 267 120 C267.7 119 268.3 118 269 117 C269.7 117.7 270.3 118.3 271 119 C270.7 119.3 270.3 119.7 270 120 C271.3 120.3 272.6 120.7 274 121 C276 117 276.3 115.2 276.4 110.9 C276.6 108.9 276.8 107 277 105 C284.3 100.1 295.4 103.7 303.6 105.2 C304.8 105.4 306 105.6 307.3 105.9 C342.2 112.5 342.2 112.5 353.4 123.4 C355 126 355 126 355 132 C348.1 143.8 330.2 146.7 318 150 C313.1 151.2 309.1 152 304 152 C302 152.6 300 153.3 298 154 C295.9 154.4 293.9 154.7 291.8 155 C290.6 155.2 289.4 155.3 288.1 155.5 C286.8 155.7 285.6 155.8 284.2 156 C282.9 156.2 281.6 156.3 280.2 156.5 C251 160.2 221.5 161.4 192 161 C190.9 161 189.9 161 188.7 161 C94.7 159.7 94.7 159.7 60 142 C61.3 141 62.6 140 64 139 C64.3 138.7 64.7 138.3 65 138 C64.2 138.4 64.2 138.4 60.2 140.3 C39.8 150.1 15.8 146 -6 144 C0.1 128.8 14.9 117.3 29.4 110.5 C43.3 104.8 56.1 104.8 70 110.5 C73 112 73 112 77.6 115.2 C83.1 118.7 86.6 118.8 93 119 C86.5 111.7 81.8 107 72 105 C48.8 99.4 29 89.9 16 69 C5.7 50.8 3.9 30.7 1.4 10.3 C1 6.8 0.5 3.4 0 0 Z " fill="#C9D6C2" transform="translate(93,341)"/>
<path d="M0 0 C5.8 6 7.1 9.8 7.1 18 C7.1 20 7 22 6.9 24.1 C8.6 24.1 10.2 24.1 11.9 24.1 C11.9 31 11.9 37.9 11.9 45.1 C12.6 44.5 12.6 44.5 15.8 41.8 C23.1 36.1 30.8 34.2 39.9 35.1 C49.1 37.9 54.5 41.9 59.3 50.2 C63.8 61 62.8 73.2 58.9 84.1 C55.1 93.1 50.4 100.7 43.9 108.1 C43.1 109.2 42.2 110.3 41.3 111.5 C28.9 124.6 13.8 133.2 -3.2 138.7 C-11 141.4 -14.1 143.6 -18.1 151.1 C-19.1 154 -20.2 157 -21.1 160.1 C-21.9 160.1 -22.8 160.2 -23.7 160.3 C-35.1 161.8 -40.1 167.2 -47.1 176.1 C-47.7 176.9 -48.3 177.8 -49 178.7 C-51.6 181.6 -54.4 183.8 -57.6 186.2 C-58.7 187 -59.8 187.9 -61 188.8 C-62 189.5 -63 190.3 -64.1 191.1 C-65.4 192.1 -66.7 193 -68.1 194.1 C-68.4 197.7 -68.8 201.4 -69.1 205.1 C-70.1 206.7 -71 208.4 -72.1 210.1 C-73.7 209.4 -75.4 208.7 -77.1 208.1 C-77.1 207.4 -77.1 206.7 -77.1 206.1 C-78 207.4 -79 208.7 -80 210 C-83.1 214.1 -83.1 214.1 -84.1 215.1 C-83.4 215.7 -82.7 216.4 -82.1 217.1 C-117.7 232 -166.2 230.5 -202.4 217.9 C-208.4 215.2 -212.5 211.6 -216.1 206.1 C-216.6 201.7 -216.5 197.5 -216.1 193.1 C-215 193.5 -213.9 194 -212.7 194.5 C-202.3 198.7 -192.1 202 -181.1 204.1 C-179.9 204.3 -178.7 204.5 -177.5 204.7 C-142 210.3 -104.5 204.9 -74.7 184.1 C-35.4 154.9 -15.8 106.4 -8.5 59.2 C-7.2 50.8 -6.1 42.5 -5.1 34.1 C-6.3 34.6 -7.6 35.2 -8.9 35.8 C-81.8 68.3 -189.4 67 -264.5 40.8 C-274.9 36.8 -284.2 31.8 -290.6 22.2 C-292.5 16.9 -292.3 13.6 -291.1 8.1 C-283.8 -4.8 -268.4 -10.4 -254.9 -14.5 C-230.3 -21.2 -205.5 -24 -180.1 -25.9 C-178.3 -26.1 -176.6 -26.2 -174.7 -26.3 C-125.1 -29.4 -41 -34.1 0 0 Z M-284.1 4.9 C-286.6 8.8 -287.1 11.5 -287.1 16.1 C-285 23.3 -278.5 28.1 -272.1 31.7 C-202.6 65 -92.7 60.7 -21 35.8 C-12.7 32.3 -4.8 27.6 0.8 20.4 C2.7 14.8 2.6 11.7 0.2 6.1 C-15 -12.6 -45.8 -15.7 -68.2 -19.1 C-69.2 -19.3 -70.2 -19.4 -71.2 -19.6 C-93.5 -22.8 -115.9 -23.3 -138.3 -23.3 C-142.7 -23.3 -147 -23.3 -151.3 -23.3 C-254.4 -23.5 -254.4 -23.5 -284.1 4.9 Z " fill="#E0D5B8" transform="translate(439.0625,252.9375)"/>
<path d="M0 0 C5.3 1.3 9.8 3.9 14.6 6.4 C15.7 7 16.7 7.5 17.7 8.1 C19.8 9.2 21.9 10.3 24 11.4 C26.7 12.8 29.4 14.2 32 15.6 C55 27.9 72.4 43.9 81 69 C83.7 78.1 84.6 87.2 85.4 96.7 C86.8 106.8 93.8 113 101.6 119 C104 120.7 106.5 122.3 109 124 C111.7 126 114.3 128 117 130 C116.3 131.3 115.7 132.6 115 134 C110 132 110 132 106.2 129.5 C101.9 126.9 98.9 125.8 94 125 C93.1 124.8 93.1 124.8 88.6 124.1 C80.4 124.1 75.1 129.8 69.1 134.8 C47.9 151.6 19 146.2 -6 144 C0.1 128.8 14.9 117.3 29.4 110.5 C43.3 104.8 56.1 104.8 70 110.5 C73 112 73 112 77.6 115.2 C83.1 118.7 86.6 118.8 93 119 C86.5 111.7 81.8 107 72 105 C48.8 99.4 29 89.9 16 69 C5.7 50.8 3.9 30.7 1.4 10.3 C1 6.8 0.5 3.4 0 0 Z " fill="#8D8052" transform="translate(93,341)"/>
<path d="M0 0 C1.3 -0 2.5 -0 3.8 -0 C7.9 -0 12 -0 16.1 -0 C16.8 -0 16.8 -0 20.3 -0 C40.8 -0 61 0.4 81.3 3.2 C82.5 3.4 83.6 3.5 84.8 3.7 C104.1 6.3 124.2 9.5 141.3 19.2 C141.7 20.2 142 21.2 142.3 22.2 C116.5 33.6 88.2 37.1 60.3 39.2 C59.2 39.3 58 39.4 56.8 39.5 C44 40.3 31.3 40.4 18.5 40.5 C17.9 40.5 17.9 40.5 15.1 40.5 C-24.4 40.4 -69.4 39.4 -105.7 22.2 C-106 21.5 -106.3 20.9 -106.7 20.2 C-74.5 3.9 -35.8 0.1 0 0 Z " fill="#8FA273" transform="translate(278.671875,258.796875)"/>
<path d="M0 0 C4.4 0 8.8 0 13.2 -0 C36.4 -0 59.4 0.9 82.4 4.5 C83.7 4.7 85.1 4.9 86.5 5.2 C135.1 13 135.1 13 147.7 29.2 C149.8 33.5 150.5 35.6 149.6 40.3 C144.7 51.3 134.4 55.8 123.7 59.9 C54.1 84 -53.2 87.2 -121.1 56.6 C-129.4 52.4 -135.8 48.1 -139.4 39.3 C-139.5 33.9 -138.6 31.6 -135.5 27.1 C-118.1 10.8 -90.8 7.3 -68 4.1 C-67.5 4 -67.5 4 -64.7 3.6 C-43.1 0.7 -21.8 -0.1 0 0 Z M-128.3 31.8 C-130.4 35.3 -130.4 35.3 -130.5 38.9 C-128.8 44 -126.6 46.5 -121.9 49.4 C-120.6 50 -119.3 50.7 -117.9 51.3 C-116.6 52 -115.3 52.6 -114 53.3 C-103.6 57.7 -92.9 60.2 -81.9 62.3 C-80.5 62.6 -79.2 62.8 -77.8 63.1 C-64.1 65.6 -50.3 67.2 -36.4 68.3 C-35.3 68.4 -34.2 68.5 -33.1 68.5 C-20.8 69.5 -8.5 69.5 3.8 69.4 C5 69.4 6.1 69.4 7.3 69.4 C24.5 69.4 41.5 69.1 58.6 67.3 C59.7 67.2 60.7 67.1 61.8 67 C120.9 61.1 120.9 61.1 138.6 44.3 C141.1 40.5 141.1 38.7 140.6 34.3 C135.7 25 123.1 21.7 113.8 18.7 C79 9 42.7 6.8 6.7 6.9 C5.5 7 4.2 7 2.9 7 C-100.7 7.2 -100.7 7.2 -128.3 31.8 Z " fill="#F1E9D2" transform="translate(291.380126953125,229.7392578125)"/>
<path d="M0 0 C5.6 4.8 9.3 9.4 10 17.1 C10.2 36.1 4.1 50.1 -8.3 64.3 C-9 64.3 -9.6 64.3 -10.3 64.3 C-10.5 64.8 -10.5 64.8 -11.3 67.3 C-25.1 79.6 -42.2 91 -61.3 91.3 C-62 91 -62.6 90.7 -63.3 90.3 C-62.5 86 -61.4 83 -59.7 79.1 C-53.2 63.1 -49.1 46.3 -46.4 29.3 C-45.2 24.9 -43.8 23.2 -40.3 20.3 C-37.6 17.1 -35.2 13.7 -32.9 10.2 C-25.3 -0.6 -12.8 -6.5 0 0 Z " fill="#EEF2ED" transform="translate(485.3125,295.6875)"/>
<path d="M0 0 C10.4 8.2 17.4 19 19.1 32.2 C20.9 55.2 12.5 74.8 -1.9 92.2 C-2.4 92.9 -2.4 92.9 -5.2 96.4 C-24.9 117.1 -53.6 132.2 -81.9 136.2 C-81.4 129.2 -78.8 123.1 -73.6 118.1 C-70.5 116 -67.7 115.1 -64.1 114 C-50.5 109.7 -38.8 103.3 -27.9 94.2 C-26.5 93.2 -25.2 92.1 -23.8 91 C-10.1 77.7 -0.1 60.9 0.5 41.6 C0.2 32 -2.7 24.3 -9.6 17.6 C-16.1 12.9 -22 11.5 -29.9 12.2 C-38.3 14.2 -42.7 16.9 -49.9 22.2 C-49.9 14.7 -49.9 7.1 -49.9 -0.8 C-32.3 -7.8 -17.1 -9.7 0 0 Z " fill="#F1E6CC" transform="translate(499.875,276.75)"/>
<path d="M0 0 C4.9 5 6.7 8.2 7.3 15.1 C6.6 22.9 2.8 27.1 -3.1 32.1 C-64.1 70.9 -169.5 62.6 -237.1 48.8 C-279.4 39 -279.4 39 -290.6 22.2 C-292.5 16.9 -292.3 13.6 -291.1 8.1 C-283.8 -4.8 -268.4 -10.4 -254.9 -14.5 C-230.3 -21.2 -205.5 -24 -180.1 -25.9 C-178.3 -26.1 -176.6 -26.2 -174.7 -26.3 C-125.1 -29.4 -41 -34.1 0 0 Z M-284.1 4.9 C-286.6 8.8 -287.1 11.5 -287.1 16.1 C-285 23.3 -278.5 28.1 -272.1 31.7 C-202.6 65 -92.7 60.7 -21 35.8 C-12.7 32.3 -4.8 27.6 0.8 20.4 C2.7 14.8 2.6 11.7 0.2 6.1 C-15 -12.6 -45.8 -15.7 -68.2 -19.1 C-69.2 -19.3 -70.2 -19.4 -71.2 -19.6 C-93.5 -22.8 -115.9 -23.3 -138.3 -23.3 C-142.7 -23.3 -147 -23.3 -151.3 -23.3 C-254.4 -23.5 -254.4 -23.5 -284.1 4.9 Z " fill="#8D8153" transform="translate(439.0625,252.9375)"/>
<path d="M0 0 C11.1 8.8 17.6 19.3 21 33 C22.8 50.1 16.4 61.7 7.5 75.8 C-0.2 88.5 -1.3 101 1.9 115.3 C3.6 120.9 6.3 125.8 9 131 C8.7 131.7 8.3 132.3 8 133 C-5.2 121.7 -13.8 109.6 -16 92 C-16.4 78.6 -11 68.7 -4.3 57.7 C3.9 44.2 8.5 31.7 4.7 15.8 C3.4 11.3 1.9 7.2 0 3 C0 2 0 1 0 0 Z " fill="#C7D5C0" transform="translate(297,77)"/>
<path d="M0 0 C0.7 0 1.3 0 2 0 C2 0.7 2 1.3 2 2 C2.8 2.3 2.8 2.3 7 4 C8 4.5 9 4.9 10 5.4 C48.1 22.5 94.1 21.8 133 8 C134 7.6 135.1 7.2 136.1 6.7 C139 6 139 6 144 8 C144.7 8 145.3 8 146 8 C145.3 10 144.7 12 144 14 C142.4 13.3 140.7 12.7 139 12 C139 11.3 139 10.7 139 10 C138 11.3 137.1 12.6 136.1 13.9 C133 18 133 18 132 19 C132.3 19.3 132.3 19.3 134 21 C98.4 35.9 49.8 34.5 13.7 21.8 C7.7 19.1 3.6 15.5 0 10 C-0.4 4.5 -0.4 4.5 0 0 Z " fill="#F1E6CC" transform="translate(223,449)"/>
<path d="M0 0 C7.5 5.7 12.5 12.8 15 22 C16.3 32.6 14.5 40 9 49 C2.6 60.6 -0.5 69.2 3.1 82.3 C4.1 85.4 5.5 88.1 7 91 C6.7 91.7 6.3 92.3 6 93 C-3.3 84.6 -9.5 75.7 -10.3 62.9 C-9.7 52 -4.3 43.7 1.1 34.4 C5.8 26 5 15.8 2.6 6.7 C2 5.5 1.5 4.3 1 3 C0.7 2 0.3 1 0 0 Z " fill="#C7D5C0" transform="translate(245,111)"/>
<path d="M0 0 C8 6 11.9 14.2 14.1 23.8 C13.9 33.3 10.8 39.7 6 47.7 C1.1 55.9 -0.6 62.3 0 72 C1.1 75.8 2.5 79.3 4 83 C4.3 84.3 4.7 85.6 5 87 C-3.7 80.2 -8.5 72.8 -11 62 C-12.2 51.1 -6.7 42.5 -1.1 33.6 C4.1 24.5 4 15.3 1.5 5.3 C1 3.6 0.5 1.8 0 0 Z " fill="#C7D5C0" transform="translate(345,124)"/>
<path d="M0 0 C4.1 3 7 6.4 10.1 10.4 C15.5 17.5 21.2 24.3 27 31 C28.6 26.3 27.5 21.9 27 17 C30.5 20.5 30.1 23.9 30.1 28.6 C30.6 35.9 33.1 39.7 38 45 C40 47.5 42 50 43.9 52.6 C45.6 54.7 47.3 56.9 49 59 C49.2 53.3 48.6 48.7 46.9 43.2 C44.9 36.3 44.9 36.3 46 33 C49.8 39.5 51.7 47 52.2 54.4 C53 65.2 57.8 70.3 65 78 C66.7 80.3 68.4 82.6 70 85 C67 86 67 86 64 86 C63.7 85.8 63.7 85.8 62 85 C61.7 83.4 61.3 81.7 61 80 C58.5 76.7 58.5 76.7 55.5 73.3 C50.1 67.1 50.1 67.1 49 65 C47.8 64.8 46.6 64.5 45.4 64.3 C34.9 61.8 24.9 57.1 16 51 C16.3 50.8 16.3 50.8 18 50 C20.9 51.2 23.8 52.4 26.7 53.7 C32 55.8 37.3 58 43 58 C40.8 55.3 38.5 52.5 36.3 49.8 C34 47 34 47 31.8 43.6 C28.1 40.1 24.2 39 19.4 37.4 C12.8 34.7 6.3 31.5 3 25 C3.6 25.3 3.6 25.3 6.6 26.8 C7.4 27.1 7.4 27.1 11.3 29 C12.9 29.7 14.4 30.5 16 31.2 C20 33 20 33 23 33 C22.5 32.3 22 31.6 21.5 30.9 C19.9 28.9 18.3 26.8 16.8 24.7 C14.8 22.1 12.8 19.4 10.8 16.8 C9.7 15.4 8.7 14 7.6 12.6 C7.1 11.9 7.1 11.9 4.5 8.6 C2 5 2 5 0 0 Z " fill="#90A475" transform="translate(108,361)"/>
<path d="M0 0 C5 -0.6 8.2 0.4 12.7 2.4 C21.5 6.1 30.6 5.9 40 6 C40.2 6.3 40.2 6.3 41 8 C40 8 39 8.1 37.9 8.1 C36.6 8.2 35.3 8.3 33.9 8.4 C33.2 8.4 33.2 8.4 29.9 8.6 C21.7 9.5 18.6 12.2 13 18 C10.7 19.7 8.4 21.4 6 23 C5.3 22.7 4.7 22.3 4 22 C6.3 20 8.6 18 10.9 15.9 C13 14 13 14 14 12 C7.6 11.8 2.6 11.7 -2.4 16.1 C-3.1 16.9 -3.8 17.7 -4.6 18.5 C-7.8 22.1 -9.2 23.1 -14 25 C-13.3 24.3 -12.5 23.6 -11.8 22.8 C-9.3 20.3 -7.2 17.7 -5 15 C-12.2 16.8 -19.3 18.6 -26.2 21.3 C-31 23 -31 23 -35 22 C-32 20.7 -29 19.5 -26.1 18.2 C-24.4 17.5 -22.7 16.8 -21 16 C-16.4 14.2 -11.8 12.5 -7 11 C-9.7 8.3 -12.4 7.9 -16 7 C-16 6.7 -16 6.3 -16 6 C-10.2 6.4 -5.5 6.8 0 9 C3.8 8.5 3.8 8.5 7.8 7.6 C10.2 7.1 12.6 6.6 15 6 C10.1 4.4 5.1 2.7 0 1 C0 0.7 0 0.3 0 0 Z " fill="#8FA374" transform="translate(135,455)"/>
<path d="M0 0 C2.6 0.3 5.3 0.7 8 1 C8 1.7 8 2.3 8 3 C6.4 3 4.7 3 3 3 C3 3.7 3 4.3 3 5 C2 5.3 1 5.7 0 6 C0.3 7 0.7 8 1 9 C-0.6 9 -2.3 9 -4 9 C-4 10.6 -4 12.3 -4 14 C-6.3 13.3 -8.6 12.7 -11 12 C-11 12.7 -11 13.3 -11 14 C-10.3 14.7 -9.7 15.3 -9 16 C-9.7 16.7 -10.3 17.3 -11 18 C-12.6 17.7 -14.3 17.3 -16 17 C-16.3 15.7 -16.7 14.4 -17 13 C-15.4 12 -13.7 11 -12 10 C-12 9 -12 8 -12 7 C-13.3 7.3 -14.6 7.7 -16 8 C-15.7 6.7 -15.3 5.4 -15 4 C-14 3.7 -13 3.3 -12 3 C-10.4 4 -8.7 5 -7 6 C-6.7 5.3 -6.3 4.7 -6 4 C-5.3 4 -4.7 4 -4 4 C-4 3.3 -4 2.7 -4 2 C-2.7 2 -1.4 2 0 2 C0 1.3 0 0.7 0 0 Z " fill="#8D8254" transform="translate(399,271)"/>
<path d="M0 0 C0.7 0.3 1.3 0.7 2 1 C2.3 2.6 2.7 4.3 3 6 C3.7 6.3 4.3 6.7 5 7 C5 7.7 5 8.3 5 9 C5.7 9 6.3 9 7 9 C7 8.3 7 7.7 7 7 C7.7 7 8.3 7 9 7 C9.3 8 9.7 9 10 10 C9.7 10.7 9.3 11.3 9 12 C10 12 11 12 12 12 C12.3 13.3 12.7 14.6 13 16 C12 17 11 18 10 19 C10 19.3 10 19.7 10 20 C8.4 20 6.7 20 5 20 C5 19.3 5 18.7 5 18 C3 18 1 18 -1 18 C-0.7 16.7 -0.3 15.4 0 14 C-0.3 13.7 -0.7 13.3 -1 13 C-1.3 13.2 -1.3 13.2 -3 14 C-3.3 11.7 -3.7 9.4 -4 7 C-2.7 7.3 -1.4 7.7 0 8 C-0.7 6.7 -1.3 5.4 -2 4 C-1.3 4 -0.7 4 0 4 C-0.3 3 -0.7 2 -1 1 C-0.7 0.7 -0.3 0.3 0 0 Z " fill="#E6EDE4" transform="translate(400,457)"/>
<path d="M0 0 C3.8 1.1 6.8 2.9 10.2 4.9 C10.2 5.6 10.2 6.3 10.2 6.9 C7.8 7.9 5.4 8.9 3 9.9 C2.3 10.2 2.3 10.2 -1 11.6 C-4.8 12.9 -4.8 12.9 -9.8 12.9 C-9.2 12.6 -8.5 12.3 -7.8 11.9 C-8.5 10.6 -9.1 9.3 -9.8 7.9 C-8.8 7.9 -7.8 7.9 -6.8 7.9 C-6.8 6.3 -6.8 4.6 -6.8 2.9 C-2.8 -0.1 -2.8 -0.1 0 0 Z " fill="#8E8C5D" transform="translate(410.8125,274.0625)"/>
</svg>
