<?xml version="1.0" encoding="UTF-8"?>
<!-- Generator: visioncortex VTracer 0.6.12 -->
<svg version="1.1" xmlns="http://www.w3.org/2000/svg" width="600" height="600" viewBox="0 0 600 600" role="img" aria-label="Three">
<path d="M0 0 C198 0 396 0 600 0 C600 198 600 396 600 600 C402 600 204 600 0 600 C0 402 0 204 0 0 Z " fill="#EDF2ED" transform="translate(0,0)"/>
<path d="M0 0 C4.7 11.1 7.4 22.1 9 34 C9.8 32.8 10.6 31.6 11.4 30.4 C16.6 24 22.5 20.3 29.9 16.5 C34.4 13.8 35.9 11.7 38 7 C39 9 39 9 38 13 C39.7 12.4 41.3 11.7 43 11.1 C47.7 9.4 52 8.4 57 8 C54.4 10.6 51.8 11.3 48.4 12.6 C47.2 13.1 46 13.5 44.8 14 C43.9 14.3 42.9 14.7 42 15 C43.7 15.7 45.3 16.3 47 17 C47 17.3 47 17.7 47 18 C45.4 17.9 43.7 17.8 42.1 17.7 C32.7 17.7 26 23.3 19 29 C12.5 36 12.5 36 11 39 C11.7 38.9 11.7 38.9 15.1 38.2 C16 38 16.9 37.8 17.8 37.6 C20.1 37.2 22.3 36.7 24.5 36.2 C41.6 32.4 56.5 32.9 72 42 C87.2 53.4 94.6 69.3 97.3 87.8 C101.1 123 88.9 159.4 67 187 C66.1 187.9 65.2 188.8 64.2 189.8 C62 192 62 192 62 194 C78.3 197.8 93.6 198.6 110.2 198.5 C112.8 198.5 115.3 198.5 117.9 198.5 C123.3 198.5 128.6 198.5 134 198.5 C140.8 198.5 147.6 198.5 154.4 198.5 C159.7 198.6 165 198.5 170.3 198.5 C172.8 198.5 175.3 198.5 177.8 198.5 C192.4 198.6 205.8 197.8 220 194 C219.1 192.9 218.1 191.8 217.2 190.7 C191.6 160.8 180.2 128.2 182 89 C184 71.7 191.9 55.5 205 44 C218.1 34.3 231.8 30.9 248 32 C253.4 33.1 258.7 34.5 264 36 C265.6 36.3 267.3 36.7 269 37 C263.6 21.5 263.6 21.5 259.6 15.3 C257 11 257 11 258 6 C262.8 2.5 264.8 2 271 2 C276.6 11.9 279 22.9 281 34 C281.5 33.3 281.5 33.3 283.9 29.8 C289 23.3 295.4 19.3 302.3 15 C306.2 11.8 307.5 9.7 309 5 C310 9 310 9 309 11 C309.9 10.6 310.9 10.2 311.8 9.7 C312.4 9.4 312.4 9.4 315.6 8.1 C316.8 7.5 318 7 319.3 6.4 C322.9 5 326.1 4.4 330 4 C327.4 6.6 324.8 7.6 321.5 9.1 C320.3 9.7 319.2 10.2 318 10.8 C315 12 315 12 313 12 C313 12.7 313 13.3 313 14 C315.3 14 317.6 14 320 14 C320 14.3 320 14.7 320 15 C319.1 15.1 318.2 15.1 317.3 15.2 C304.5 16.4 297.8 22 289 31 C288.3 31 287.7 31 287 31 C285 35 285 35 283 40 C284.2 39.7 285.4 39.3 286.7 38.9 C288.3 38.5 289.9 38 291.6 37.6 C293.2 37.1 294.7 36.7 296.4 36.2 C311 32.4 324.2 33.4 338.1 39.1 C352.6 47.7 361.2 60 366 76 C374.1 109.8 364.8 145.6 347 175 C342.7 181.1 338.3 186.7 333 192 C333 192.7 333 193.3 333 194 C333.6 194.1 333.6 194.1 336.6 194.6 C338.1 194.9 339.7 195.2 341.2 195.4 C342.8 195.7 344.3 196 345.9 196.2 C348.6 196.7 351.3 197.3 354 198 C356.8 198.1 359.6 198.2 362.4 198.2 C363.3 198.2 363.3 198.2 367.8 198.3 C368.7 198.3 368.7 198.3 373.4 198.3 C375.1 198.3 376.8 198.4 378.6 198.4 C385 198.4 391.4 198.5 397.8 198.6 C412 198.7 426.3 198.9 441 199 C441 232 441 265 441 299 C243 299 45 299 -159 299 C-159 266 -159 233 -159 199 C-115.5 198.6 -115.5 198.6 -101.8 198.5 C-98.2 198.5 -94.6 198.5 -91 198.4 C-89.2 198.4 -87.3 198.4 -85.4 198.4 C-83.6 198.4 -81.8 198.3 -80 198.3 C-79.2 198.3 -79.2 198.3 -75.3 198.3 C-71 198 -67.2 197.1 -63 196 C-60.7 196 -58.3 196 -56 196 C-54.7 195.7 -53.4 195.3 -52 195 C-54.4 191 -56.3 188.5 -59.6 185.2 C-80.8 162.1 -90.7 129.9 -91 99 C-90 77.9 -83.7 59.3 -68.2 44.5 C-54.1 33.5 -39.4 31 -22 32 C-15 33.1 -8.6 35.5 -2 38 C-8.5 19.3 -8.5 19.3 -12.5 13.1 C-13.3 11.7 -14.2 10.4 -15 9 C-13.8 4.4 -12.8 3.7 -9 1 C-6 -0.5 -3.3 -0.1 0 0 Z " fill="#D4E3D6" transform="translate(159,301)"/>
<path d="M0 0 C4.7 11.1 7.4 22.1 9 34 C9.8 32.8 10.6 31.6 11.4 30.4 C16.6 24 22.5 20.3 29.9 16.5 C34.4 13.8 35.9 11.7 38 7 C39 9 39 9 38 13 C39.7 12.4 41.3 11.7 43 11.1 C47.7 9.4 52 8.4 57 8 C54.4 10.6 51.8 11.3 48.4 12.6 C47.2 13.1 46 13.5 44.8 14 C43.9 14.3 42.9 14.7 42 15 C43.7 15.7 45.3 16.3 47 17 C47 17.3 47 17.7 47 18 C45.4 17.9 43.7 17.8 42.1 17.7 C32.7 17.7 26 23.3 19 29 C12.5 36 12.5 36 11 39 C12.3 38.7 13.7 38.5 15.1 38.2 C16 38 16.9 37.8 17.8 37.6 C20.1 37.2 22.3 36.7 24.5 36.2 C41.6 32.4 56.5 32.9 72 42 C87.2 53.4 94.6 69.3 97.3 87.8 C101.1 122.9 88.9 159.5 67 187 C58.3 197.1 46.9 207.3 33 208.3 C24.9 208.3 18.7 207.7 11 205 C4.7 204.4 -0.8 204.6 -6.9 206.5 C-18.8 210 -28.7 208.4 -39.6 202.6 C-65.1 187.9 -79.2 159.2 -87 132 C-93.4 107.9 -93 81.3 -80.4 59.2 C-71.6 45.9 -60.5 37.5 -45.1 32.8 C-29.9 29.8 -16.2 32.6 -2 38 C-8.5 19.3 -8.5 19.3 -12.5 13.1 C-13.3 11.7 -14.2 10.4 -15 9 C-13.8 4.4 -12.8 3.7 -9 1 C-6 -0.5 -3.3 -0.1 0 0 Z " fill="#D03F27" transform="translate(159,301)"/>
<path d="M0 0 C5.3 9.4 8.1 21.3 9 32 C10.1 30.5 11.3 29 12.4 27.4 C17.5 21.1 23.2 16.6 30.3 12.6 C34.6 9.5 36 6.8 38 2 C39 5 39 5 38 8 C39.6 7.2 41.1 6.5 42.8 5.7 C48.7 3 54.6 1.4 61 0 C59.5 3 57.4 3.2 54.3 4.4 C50.1 6.1 46 7.9 42 10 C44 10.7 46 11.3 48 12 C48 12.3 48 12.7 48 13 C47.1 13 47.1 13 42.2 12.9 C33.9 13.6 29.2 17.6 23 23 C21.7 24 20.4 25 19.1 26.1 C15.6 29.4 13.4 32.8 11 37 C12.2 36.7 13.3 36.4 14.5 36.2 C16.1 35.8 17.6 35.4 19.2 35.1 C19.9 34.9 19.9 34.9 23.8 34 C40.4 30.1 55.9 30.4 70.8 39.2 C85.7 49.4 93.3 64.1 96.7 81.5 C102 114.9 91.2 151.2 71.6 178.4 C62.4 190.1 51.8 201.1 37 205 C27.3 205.7 19.2 205 10 202 C4.2 201.6 -0.1 201.7 -5.7 203.5 C-16 206.4 -26.4 206.4 -36.1 201.7 C-62.5 186.3 -78.5 159.4 -86.2 130.4 C-92.4 104.7 -92.7 78.6 -78.8 55.4 C-70 42.2 -57.7 33.5 -42 30 C-28 28.9 -14.8 29.6 -2 36 C-5.2 26.9 -8.4 18.6 -13.9 10.6 C-14.2 9.7 -14.6 8.9 -15 8 C-13 3 -13 3 -9.2 0.6 C-5 -1 -5 -1 0 0 Z " fill="#D03F27" transform="translate(297,81)"/>
<path d="M0 0 C5.6 9.9 8 20.9 10 32 C11 30.6 11.9 29.2 12.9 27.8 C18 21.3 24.4 17.3 31.3 13 C35.2 9.8 36.5 7.7 38 3 C39 7 39 7 38 9 C38.9 8.6 39.9 8.2 40.8 7.7 C41.4 7.4 41.4 7.4 44.6 6.1 C45.2 5.8 45.2 5.8 48.3 4.4 C51.9 3 55.1 2.4 59 2 C56.4 4.6 53.8 5.6 50.5 7.1 C49.3 7.7 48.2 8.2 47 8.8 C44 10 44 10 42 10 C42 10.7 42 11.3 42 12 C44.3 12 46.6 12 49 12 C49 12.3 49 12.7 49 13 C48.1 13.1 47.2 13.1 46.3 13.2 C33.5 14.4 26.8 20 18 29 C17.3 29 16.7 29 16 29 C14 33 14 33 12 38 C13.2 37.7 14.4 37.3 15.7 36.9 C17.3 36.5 18.9 36 20.6 35.6 C22.2 35.1 23.7 34.7 25.4 34.2 C40 30.4 53.2 31.4 67.1 37.1 C81.6 45.7 90.2 58 95 74 C103.1 107.9 93.8 143.6 76 173 C66.2 187.4 53.7 202 36 206 C27 206.8 19.7 205.4 11 203 C5.1 202.4 -0.1 202.7 -5.8 204.5 C-17.8 208 -27.7 206.4 -38.6 200.6 C-62.7 186.5 -78.2 158.7 -85.2 132.5 C-91.5 106.2 -92 78.9 -77.7 55.2 C-68.4 41.3 -55.3 33.3 -39 30 C-27.7 29.2 -17.9 30.9 -7 34 C-5.4 34.3 -3.7 34.7 -2 35 C-7.4 19.5 -7.4 19.5 -11.4 13.3 C-14 9 -14 9 -13 4 C-8.2 0.5 -6.2 0 0 0 Z " fill="#D03F27" transform="translate(430,303)"/>
<path d="M0 0 C8.3 2.1 13.8 9.2 18.3 16.1 C31.5 39 31.1 65.6 24.8 90.6 C16.8 119.1 3.2 146.8 -23 162.4 C-32.5 167.3 -43.6 167.7 -53.8 164.5 C-54.5 164.3 -54.5 164.3 -58 163 C-64.3 162.4 -69.8 162.6 -75.9 164.5 C-86.4 167.6 -96.1 167 -106 162 C-109.6 159.8 -109.6 159.8 -112 158 C-111.3 157.7 -110.7 157.3 -110 157 C-108.8 157.5 -107.7 157.9 -106.5 158.4 C-94.5 161.8 -83.4 160.8 -71.9 156.4 C-67.5 154.8 -63.3 153.9 -58.8 153 C-42.6 149.5 -29.9 142.5 -18 131 C-17.2 130.3 -16.5 129.6 -15.7 128.9 C4.1 110.4 14.8 80.5 16.3 54 C16.6 35.6 13.7 20.3 3 5 C2 3.4 1 1.7 0 0 Z " fill="#B53420" transform="translate(228,343)"/>
<path d="M0 0 C11.2 4.5 17 14.6 22 25 C32.7 51.8 28.1 82.6 17.8 108.8 C7.9 131.6 -5.9 154.4 -29.8 164.2 C-40 166.9 -50.2 165.2 -60 162 C-65.8 161.6 -70.1 161.7 -75.7 163.5 C-87.7 166.9 -98 165.8 -109 160 C-110.3 158.7 -111.6 157.4 -113 156 C-112.1 156.2 -112.1 156.2 -107.5 157.5 C-95.2 160.3 -84.8 159.8 -73 155.3 C-68.6 153.8 -64.2 153 -59.6 152.2 C-45.5 149.3 -33.8 143.5 -23 134 C-21.9 133.1 -20.7 132.3 -19.6 131.4 C1.9 111 13.6 81.9 15.3 52.8 C15.7 35.5 12.9 18.1 1.8 4.2 C0 2 0 2 0 0 Z " fill="#B4341F" transform="translate(367,121)"/>
<path d="M0 0 C7.8 2 13.4 8.7 17.8 15.2 C31.5 38.5 31.1 65 24.9 90.5 C17.2 117.8 4 146.6 -21.4 161.6 C-33.8 168.2 -44.9 166.7 -58 163 C-63.9 162.4 -69.1 162.7 -74.8 164.5 C-81.6 166.5 -88 166.3 -95 166 C-95 164.7 -95 163.3 -95 162 C-94.1 161.8 -93.2 161.7 -92.3 161.5 C-83.6 159.9 -75.3 157.7 -66.9 155 C-63.1 154 -59.9 154 -56 154 C-55 153.3 -54 152.7 -53 152 C-51 151.2 -48.9 150.4 -46.8 149.6 C-37.7 146.2 -30.6 142.2 -23 136 C-22.2 135.4 -21.4 134.7 -20.6 134.1 C0.3 116.5 13.2 87.8 16 61 C17.2 42.2 15.4 26.6 6.5 9.8 C5 7 5 7 4 4 C3.3 4 2.7 4 2 4 C1.7 3.3 1.7 3.3 0 0 Z " fill="#B4341F" transform="translate(499,343)"/>
<path d="M0 0 C11.3 0.7 23.7 2.1 33 9 C32.7 10.3 32.3 11.6 32 13 C30.4 12.7 28.7 12.3 27 12 C27 12.7 27 13.3 27 14 C27.3 14.2 27.3 14.2 29 15 C20.6 18 12.7 20 3.9 21.2 C2.8 21.4 1.7 21.5 0.6 21.7 C-11 23.4 -22.4 24.2 -34.1 24.2 C-35.4 24.2 -36.7 24.2 -38.1 24.2 C-40.9 24.2 -43.7 24.2 -46.5 24.2 C-50.8 24.2 -55 24.2 -59.2 24.2 C-78.5 24.3 -97.7 23.8 -116.7 20 C-118.4 19.7 -120.1 19.3 -121.9 19 C-126 18 -126 18 -129 16 C-128.3 16 -127.7 16 -127 16 C-127 15.3 -127 14.7 -127 14 C-128.3 14.2 -129.5 14.5 -130.8 14.7 C-132.2 14.8 -133.6 14.9 -135 15 C-136 14 -137 13 -138 12 C-137.7 10.7 -137.3 9.4 -137 8 C-136.3 7.7 -135.7 7.3 -135 7 C-134.3 6.3 -133.7 5.7 -133 5 C-125.1 2.6 -119.2 1.4 -111 3 C-111 2.3 -111 1.7 -111 1 C-105.7 2.1 -103 4.1 -98.7 7.2 C-89.5 13.4 -80.7 13.9 -70 13 C-66.7 12.1 -63.3 11.1 -60 10 C-54.2 9.6 -49.9 9.7 -44.4 11.5 C-33.7 14.5 -22.8 14.4 -12.7 9.6 C-8.1 6.9 -3.8 3.8 0 0 Z " fill="#CBE4D1" transform="translate(356,272)"/>
<path d="M0 0 C1.1 0.2 2.2 0.5 3.3 0.7 C6 1.3 8.7 1.9 11.4 2.5 C7.7 15.4 1.9 26 -9.4 33.8 C-23.6 41.2 -35.8 43.1 -51.6 39.5 C-47.5 35.2 -43.1 31.3 -38.6 27.5 C-37.7 26.7 -36.8 25.9 -35.9 25.1 C-30.9 22.6 -26.2 22.7 -20.6 22.5 C-22.6 22.2 -24.6 21.8 -26.6 21.5 C-23.5 18.3 -21 17.1 -16.9 15.3 C-16.3 15 -16.3 15 -13.4 13.7 C-12.5 13.3 -11.6 12.9 -10.6 12.5 C-17 14.4 -23.3 16.4 -29.6 18.5 C-29.6 17.2 -29.6 15.9 -29.6 14.5 C-30.2 15.7 -30.9 16.9 -31.5 18.1 C-35.2 23.4 -39 25.3 -44.6 28.5 C-47.3 30.8 -50 33.1 -52.6 35.5 C-53 35.5 -53.3 35.5 -53.6 35.5 C-54.3 24.9 -50.2 15.6 -43.6 7.5 C-31.1 -4.3 -15.8 -3.5 0 0 Z " fill="#A3B69C" transform="translate(364.625,70.5)"/>
<path d="M0 0 C-4 14 -10.4 24.9 -23 32.4 C-35.5 39.1 -49.2 39.7 -63 37 C-47.5 21 -47.5 21 -36 20 C-36.3 19 -36.7 18 -37 17 C-32.4 14.7 -27.8 12.4 -23 10 C-24.1 10.4 -25.3 10.9 -26.4 11.3 C-27.9 11.9 -29.4 12.4 -30.9 13 C-32.3 13.6 -33.8 14.1 -35.3 14.7 C-39 16 -39 16 -41 16 C-41 14.7 -41 13.4 -41 12 C-41.3 12.9 -41.6 13.7 -42 14.6 C-44.7 19.2 -48.1 21.2 -52.4 24.1 C-57.1 27.3 -61 30 -65 34 C-64.4 21.8 -61.2 12.1 -52.3 3.4 C-35.8 -9.6 -18.6 -4.4 0 0 Z " fill="#A3B69C" transform="translate(509,296)"/>
<path d="M0 0 C1.1 0.3 2.1 0.5 3.2 0.8 C5.5 1.4 7.8 2.2 10 3 C11 6 11 6 9.8 8.9 C3 21.3 -4.1 29.8 -17.7 34.7 C-23.3 36.1 -28.1 36.4 -33.8 36.3 C-35.6 36.3 -37.4 36.3 -39.3 36.3 C-44 36 -44 36 -49 34 C-45.5 29.4 -42.2 26.5 -37.2 23.6 C-36 22.9 -34.9 22.2 -33.7 21.5 C-29.5 19.8 -26.5 19.7 -22 20 C-23 19.3 -24 18.7 -25 18 C-21 16 -17 14 -13 12 C-13.9 12.3 -14.8 12.6 -15.8 12.9 C-16.4 13.1 -16.4 13.1 -19.4 14 C-20.6 14.4 -21.7 14.7 -23 15.1 C-26 16 -26 16 -28 16 C-28 14.4 -28 12.7 -28 11 C-28.6 12.2 -29.2 13.4 -29.8 14.6 C-33.3 19.4 -36.1 21 -41.3 23.6 C-44.8 25.4 -47.8 27.7 -51 30 C-51.3 30 -51.7 30 -52 30 C-51.7 20.5 -49.2 12.7 -42.8 5.6 C-29.5 -6.8 -16.2 -4.4 0 0 Z " fill="#A3B69C" transform="translate(225,298)"/>
<path d="M0 0 C6.7 16 9.2 31.6 9 49 C11.4 48.5 13.8 48.1 16.1 47.6 C16.8 47.5 16.8 47.5 20.1 46.9 C23.5 46.1 26.7 45.2 30 44 C30 44.7 30 45.3 30 46 C17.4 54 7 55.3 -7.9 53.4 C-13.2 51.6 -17.3 49.1 -22 46 C-22.3 45.3 -22.7 44.7 -23 44 C-21.8 44.3 -20.7 44.6 -19.5 44.8 C-18 45.2 -16.4 45.6 -14.9 45.9 C-13.4 46.3 -11.9 46.7 -10.3 47 C-6.9 47.8 -3.5 48.5 0 49 C-6 23.3 -6 23.3 -12.9 12.5 C-13.6 11.3 -14.3 10.2 -15 9 C-13.8 4.4 -12.8 3.7 -9 1 C-6 -0.5 -3.3 -0.1 0 0 Z " fill="#B43621" transform="translate(159,301)"/>
<path d="M0 0 C7.1 12.5 11.8 31.8 9 46 C11.6 45.5 14.1 45 16.7 44.6 C18.1 44.3 19.5 44 21 43.8 C24 43.2 27 42.6 30 42 C25 48.2 18.3 50.3 10.7 51.5 C-0 52.6 -9.2 50.6 -19 46 C-21.6 43.2 -21.6 43.2 -23 41 C-21.6 41.5 -20.2 41.9 -18.8 42.4 C-12.6 44.3 -6.4 45.1 0 46 C-2.4 34.6 -5.8 24.9 -11.2 14.6 C-13 11 -13 11 -15 6 C-10.2 0.8 -7.3 -1.5 0 0 Z " fill="#B43621" transform="translate(297,81)"/>
<path d="M0 0 C8 14.3 10.3 30.8 10 47 C17.1 46 23.4 44.8 30 42 C27.2 47.6 23.6 48.5 18 51 C6.8 53.8 -5.5 52.8 -16 48 C-19.8 45.2 -19.8 45.2 -22 43 C-20 42 -20 42 -16.1 43.3 C-14.4 43.9 -12.7 44.4 -11 45 C-7.3 45.8 -3.7 46.4 0 47 C-2 34.6 -5.2 23.1 -11.9 12.4 C-14 9 -14 9 -13 4 C-8.2 0.5 -6.2 0 0 0 Z " fill="#B43621" transform="translate(430,303)"/>
<path d="M0 0 C-1 0.5 -2.1 1 -3.1 1.5 C-4.5 2.1 -5.9 2.7 -7.2 3.4 C-8.6 4 -9.9 4.6 -11.3 5.3 C-13.9 6.5 -16.5 7.7 -19 9 C-17 9.7 -15 10.3 -13 11 C-13 11.3 -13 11.7 -13 12 C-13.9 12 -13.9 12 -18.8 11.9 C-27.2 12.6 -31.8 16.6 -38 22 C-39.3 23 -40.6 24 -41.9 25 C-45.6 28.6 -47.7 32.4 -50 37 C-50.7 37.7 -51.3 38.3 -52 39 C-52.8 35.3 -52.8 35.3 -53 31 C-50.9 28.4 -50.9 28.4 -48 26 C-47.2 25 -46.5 24.1 -45.7 23.1 C-41.4 18.2 -36.4 14.8 -30.8 11.6 C-26.4 8.6 -25 5.9 -23 1 C-22 4 -22 4 -23 7 C-21.4 6.2 -19.8 5.5 -18.1 4.7 C-3.7 -1.9 -3.7 -1.9 0 0 Z " fill="#BB5237" transform="translate(358,82)"/>
<path d="M0 0 C-2.5 1.2 -4.9 2.3 -7.4 3.5 C-8.7 4.1 -10.1 4.8 -11.5 5.5 C-15 7 -15 7 -17 7 C-17 7.7 -17 8.3 -17 9 C-14.7 9 -12.4 9 -10 9 C-10 9.3 -10 9.7 -10 10 C-10.9 10.1 -11.8 10.1 -12.7 10.2 C-25.5 11.4 -32.2 17 -41 26 C-41.7 26 -42.3 26 -43 26 C-44.8 29.6 -46.4 33.3 -48 37 C-48.7 37 -49.3 37 -50 37 C-50.5 29.9 -48.6 27.2 -44.1 22 C-39.1 17.2 -33.5 13.6 -27.7 9.9 C-23.8 6.8 -22.5 4.7 -21 0 C-20 4 -20 4 -21 6 C-20 5.6 -19.1 5.2 -18.1 4.7 C-16.8 4.2 -15.6 3.6 -14.2 3.1 C-13 2.5 -11.7 2 -10.5 1.4 C-3.9 -1.3 -3.9 -1.3 0 0 Z " fill="#BB5237" transform="translate(489,306)"/>
<path d="M0 0 C1 2 1 2 0 6 C1.7 5.4 3.3 4.7 5 4.1 C9.7 2.4 14 1.4 19 1 C16.4 3.6 13.8 4.3 10.4 5.6 C9.8 5.8 9.8 5.8 6.8 7 C5.9 7.3 4.9 7.7 4 8 C4.8 8.3 4.8 8.3 9 10 C9 10.3 9 10.7 9 11 C8.2 10.9 8.2 10.9 4.1 10.7 C-5.3 10.7 -12 16.3 -19 22 C-26 29.3 -26 29.3 -26 33 C-26.3 33.2 -26.3 33.2 -28 34 C-28.3 34.7 -28.7 35.3 -29 36 C-29.8 31.8 -29.8 31.8 -30 27 C-27.9 24.2 -27.9 24.2 -25 22 C-24.3 21.2 -23.5 20.4 -22.8 19.6 C-18.1 15.2 -12.8 11.9 -7.2 9.1 C-3.4 6.6 -2 4.1 0 0 Z " fill="#BB5237" transform="translate(197,308)"/>
</svg>
