<?xml version="1.0" encoding="UTF-8"?>
<!-- Generator: visioncortex VTracer 0.6.12 -->
<svg version="1.1" xmlns="http://www.w3.org/2000/svg" width="600" height="600" viewBox="0 0 600 600" role="img" aria-label="Two">
<path d="M0 0 C198 0 396 0 600 0 C600 198 600 396 600 600 C402 600 204 600 0 600 C0 402 0 204 0 0 Z " fill="#EDF2ED" transform="translate(0,0)"/>
<path d="M0 0 C198 0 396 0 600 0 C600 33 600 66 600 100 C402 100 204 100 0 100 C0 67 0 34 0 0 Z " fill="#D5E4D7" transform="translate(0,500)"/>
<path d="M0 0 C0.3 0.3 0.3 0.3 2 2 C-2.6 9.7 -7.3 17 -13 24 C-13.9 25.2 -14.8 26.4 -15.8 27.6 C-25.5 37.9 -38.7 45.5 -53.1 46.1 C-59.8 46.2 -66.3 45.8 -73 45 C-76.2 50.4 -76.2 51.3 -75 57 C-73.1 56.5 -71.2 56 -69.3 55.5 C-66.8 54.9 -64.3 54.2 -61.8 53.6 C-60.6 53.2 -59.3 52.9 -58 52.6 C-56.8 52.3 -55.6 52 -54.4 51.6 C-53.3 51.3 -52.2 51.1 -51 50.8 C-33.7 46.4 -15.4 48.8 0 58 C17 70 25.3 85.8 30.1 105.6 C31.2 112 31.3 118.1 31.3 124.5 C31.3 125.1 31.3 125.1 31.3 128.2 C31.1 144 28 158.1 23 173 C22.5 174.7 22.1 176.3 21.6 178.1 C12.1 206.9 -6.9 234.9 -34 249.6 C-45 254.9 -55.5 256.5 -67.4 253.5 C-77.6 251 -85.9 251.8 -96 254.3 C-108.1 257 -119.4 253 -129.8 247 C-135 243.8 -139.5 240.1 -144 236 C-144.8 235.2 -145.7 234.5 -146.6 233.7 C-173.7 207.9 -188.2 167.9 -190.3 131.1 C-190.7 106.8 -185.3 84.8 -168.3 66.8 C-154.1 53.2 -138.3 48.7 -119 48.9 C-107.7 49.2 -97.7 52.2 -87 56 C-89.1 43.8 -91.7 32 -98.4 21.4 C-101 17 -101 17 -100 13 C-96.9 9.6 -95.4 9 -90.7 8.8 C-89.5 8.8 -88.3 8.9 -87 9 C-84 14.6 -82 19.9 -80.4 26.1 C-80 27.6 -79.6 29.1 -79.1 30.7 C-78.8 32.1 -78.4 33.5 -78 35 C-77.3 37.3 -76.7 39.7 -76 42 C-75.9 41 -75.7 40 -75.6 38.9 C-73.4 25.7 -69.6 14 -59 5 C-41.2 -6.8 -19.9 -6.6 0 0 Z " fill="#CD3C25" transform="translate(511,167)"/>
<path d="M0 0 C11 9.9 13.8 21.9 16 36 C16.1 35.5 16.1 35.5 16.7 33 C23 7 23 7 27 3 C32.1 2.4 34.3 2.5 38.5 5.5 C39.3 6.3 40.2 7.2 41 8 C39.9 11.8 38.6 14.7 36.6 18.1 C31.3 28 29.2 39 27 50 C28 49.7 28.9 49.3 29.9 49 C50.2 42 69.7 40 90 48.2 C105.9 56 116.7 70.7 123 86.9 C134.2 121.5 124.9 159.4 109.9 191.5 C97.5 215.7 80.4 236.3 55 247 C46.6 249.6 38.7 249.9 30.2 247.5 C20 244.8 11.1 245.8 1 248.3 C-12.4 251.4 -24.8 246 -36 239 C-67.5 217.2 -84.3 179.5 -91.8 142.9 C-95.9 118.9 -94.9 92.9 -81 72 C-70.8 57.7 -58.4 49.1 -41.7 43.6 C-25 41.6 -10.4 43.6 5.3 48.9 C8.6 49.9 11.7 50.5 15 51 C15.2 42.4 15.2 42.4 13 39 C11.4 39.2 9.9 39.3 8.2 39.5 C-9.2 41 -23.2 39 -37.5 27.9 C-48.1 18.9 -55.2 8 -62 -4 C-47.6 -18.4 -14.4 -10.2 0 0 Z " fill="#CD3C24" transform="translate(149,173)"/>
<path d="M0 0 C7.7 7.7 8.5 24.6 9 35 C9 76.2 -6.4 118.1 -34.9 148 C-46.8 159.6 -61 168.2 -77.8 169.3 C-81.9 169.1 -84.9 168.6 -88.8 167.5 C-99 164.8 -107.9 165.8 -118 168.3 C-131.6 171.4 -143.7 165.9 -155 159 C-159.3 156.2 -159.3 156.2 -162 154 C-162 153.3 -162 152.7 -162 152 C-159.2 152.6 -156.4 153.2 -153.6 153.9 C-123.2 162.2 -91.3 156.1 -64.1 140.9 C-29.4 119.7 -11.4 81.2 -2 43 C0.9 29.3 1 14.8 -1 1 C-0.7 0.7 -0.3 0.3 0 0 Z " fill="#B7321D" transform="translate(268,253)"/>
<path d="M0 0 C2.7 2.7 3.3 5.4 4.5 9 C4.9 10.3 5.3 11.5 5.8 12.8 C8.5 22.2 9.4 30.8 9.3 40.5 C9.3 41.1 9.3 41.1 9.3 44.2 C9.1 60 6 74.1 1 89 C0.5 90.7 0.1 92.3 -0.4 94.1 C-9.9 122.9 -28.9 150.9 -56 165.6 C-67 170.9 -77.5 172.5 -89.4 169.5 C-99.6 167 -107.9 167.8 -118 170.3 C-131.4 173.3 -143.8 168 -155 161 C-159.3 157.6 -159.3 157.6 -162 155 C-157.8 153.6 -156.1 155.3 -152 157 C-121.4 164.8 -87.5 157 -60.7 141.4 C-55.4 138 -50.6 134.2 -46 130 C-45.2 129.3 -44.5 128.7 -43.7 128 C-17.4 103.2 -1 62.6 1 27 C1.2 17.9 0.7 9 0 0 Z " fill="#B7311D" transform="translate(533,251)"/>
<path d="M0 0 C1 0.8 2 1.7 3.1 2.6 C14 10.8 27.2 15.9 41 15 C43.1 14.5 45.2 14 47.3 13.5 C57.5 11 65.8 11.8 75.9 14.3 C90 17.4 102.2 12.1 114 5 C116.4 3.4 118.7 1.7 121 0 C121 0.7 121 1.3 121 2 C122.7 2 124.4 1.9 126.2 1.9 C132.9 1.9 139.2 2.7 145.8 3.8 C146.8 4 147.9 4.1 149 4.3 C155 5.3 160.5 6.4 166 9 C166.3 9.7 166.3 9.7 168 13 C149.3 27 108.4 24.1 85.9 24.2 C84.1 24.2 82.4 24.2 80.7 24.2 C77.1 24.2 73.4 24.2 69.8 24.2 C64.4 24.2 59 24.3 53.6 24.3 C-23.5 24.5 -23.5 24.5 -41 14 C-41.7 13 -42.3 12 -43 11 C-38.2 7.3 -34 6 -28.1 4.8 C-26.6 4.5 -25.1 4.2 -23.5 3.8 C-15.5 2.4 -8.1 1.9 0 2 C0 1.3 0 0.7 0 0 Z " fill="#C8E5CF" transform="translate(371,406)"/>
<path d="M0 0 C0.3 0.7 0.7 1.3 1 2 C2.4 1.9 3.8 1.9 5.3 1.8 C17.9 1.8 30.4 4.1 42 9 C42.3 10.3 42.7 11.6 43 13 C32.1 19.4 19.4 20.2 7.1 21.6 C6.1 21.7 5 21.9 4 22 C-122.8 36.2 -122.8 36.2 -166 13 C-163.6 8.2 -161.6 7.6 -156.6 5.9 C-148.9 3.9 -141 3 -133 2 C-132.3 1.9 -132.3 1.9 -128.7 1.3 C-122.3 0.6 -118.1 0.3 -112.8 4.1 C-112.4 4.4 -112.4 4.4 -110.4 6.1 C-101.6 13.1 -90.1 15.7 -79 15 C-76.9 14.5 -74.8 14 -72.8 13.5 C-62.6 11 -53.9 11.6 -43.8 14.3 C-30.3 17.6 -17.4 11.7 -6 5 C-4 3.4 -2 1.7 0 0 Z " fill="#C9E5CF" transform="translate(226,406)"/>
<path d="M0 0 C10.1 9.1 13.3 19.7 15.4 32.8 C16 36 16 36 17 37 C17.1 39.4 17.1 41.7 17.1 44.1 C17.1 45.4 17 46.6 17 48 C17 49 17 50 17 51 C16.7 51 16.3 51 16 51 C15.9 49.6 15.8 48.2 15.6 46.7 C15 42 15 42 13 39 C11.4 39.2 9.9 39.3 8.2 39.5 C-9.2 41 -23.2 39 -37.5 27.9 C-48.1 18.9 -55.2 8 -62 -4 C-47.6 -18.4 -14.4 -10.2 0 0 Z " fill="#9D9E82" transform="translate(149,173)"/>
<path d="M0 0 C0.3 0.3 0.3 0.3 2 2 C-2.6 9.7 -7.3 17 -13 24 C-13.9 25.2 -14.8 26.4 -15.8 27.6 C-25.5 37.9 -38.7 45.5 -53.1 46.1 C-58.4 46.2 -63.3 46 -68.6 45.2 C-69.3 45.2 -69.3 45.2 -73 45 C-74.3 46.3 -75.6 47.6 -77 49 C-77 43.6 -76.5 41 -75 36 C-74.6 33.9 -74.1 31.8 -73.7 29.6 C-71.2 18.7 -65.3 9.2 -55.9 2.9 C-38.7 -6.8 -18.5 -6.2 0 0 Z " fill="#9D9E82" transform="translate(511,167)"/>
</svg>
