<?xml version="1.0" encoding="UTF-8"?>
<!-- Generator: visioncortex VTracer 0.6.12 -->
<svg version="1.1" xmlns="http://www.w3.org/2000/svg" width="600" height="600" viewBox="0 0 600 600" role="img" aria-label="Vegetables">
<path d="M0 0 C198 0 396 0 600 0 C600 198 600 396 600 600 C402 600 204 600 0 600 C0 402 0 204 0 0 Z " fill="#EDF2ED" transform="translate(0,0)"/>
<path d="M0 0 C22.2 9.7 38.3 24.6 47.3 47.4 C47.6 49.1 47.9 50.7 48.3 52.4 C51.9 49.4 55.3 46.4 58.6 42.9 C71.2 30.9 87.2 28.3 104.1 28.2 C104.6 28.2 104.6 28.2 107.2 28.1 C116 28.1 122.4 29.4 129.5 34.4 C135.8 41.2 138.8 48.7 139.6 57.9 C139.3 62 138.6 64.4 137.3 68.2 C135.3 74.1 135.1 79.3 135.3 85.6 C135.4 93.3 135 98.6 131.3 105.4 C131 105.9 131 105.9 129.9 108 C126.6 113.7 122.8 118.1 118.1 122.6 C111.8 128.7 109 133.6 106.8 142 C105.1 148 103.5 151.5 98.8 155.5 C95.6 157.2 92.6 158.5 89.2 159.9 C82.7 162.5 79.7 165.5 75.6 171.2 C70.4 177.8 64.3 182.9 57.5 187.9 C49.9 194.2 45.3 202.7 44.5 212.7 C43.7 227.7 48.2 240.3 53.6 254 C61.2 273.2 63.4 292.6 56.3 312.4 C53.8 317.5 50.7 321.9 47.3 326.4 C57.5 327.1 67.7 327.7 78.3 328.4 C77.4 326.1 76.6 323.8 75.7 321.4 C72 309.6 70 297.5 67.9 285.3 C66.1 275.2 64.2 265.1 62 255 C57.2 233.7 53.3 212.1 65.3 192.4 C70 185.9 76.4 181.6 84.3 179.4 C86.3 179.3 88.4 179.2 90.5 179.1 C97.1 178.7 101.4 176.4 107.3 173.4 C113.2 172.5 118.4 172 124.3 173.4 C124.2 172.4 124.2 171.4 124.2 170.4 C124.5 156.3 131.1 140.2 141.3 130.4 C147.5 126.1 151.6 123.9 159.3 124.4 C164 125.6 164 125.6 168.3 127.4 C171.4 132.7 171.9 134.5 171.3 140.4 C169.3 143.4 169.3 143.4 167.3 145.4 C163.7 144.9 160.1 144.4 156.6 143.6 C155.5 143.5 154.4 143.5 153.3 143.4 C145.1 151.6 144.4 162.4 143.3 173.4 C144.2 173.4 145.1 173.3 146 173.2 C154.7 172.9 159.8 173.9 167.3 178.4 C170.1 179.9 172.6 179.3 175.8 179.2 C184.6 179.1 190.2 181.9 197.1 187.5 C201 192.3 202.9 196.7 205.3 202.4 C205.9 203.7 206.6 205.1 207.3 206.4 C214 204.7 214 204.7 216.3 202.4 C217.9 202.4 219.6 202.4 221.3 202.4 C221.7 201.5 222.2 200.5 222.6 199.5 C224.3 196.4 224.3 196.4 226.3 194.4 C227.9 194.4 229.6 194.4 231.3 194.4 C231.6 193.4 231.9 192.4 232.3 191.4 C235.1 190.8 235.1 190.8 238.3 190.4 C239.3 191.1 240.2 191.7 241.3 192.4 C243.6 192.5 245.9 192.5 248.3 192.4 C248.6 191.1 248.9 189.8 249.3 188.4 C250.9 187.8 252.6 187.1 254.3 186.4 C254.6 185.8 254.9 185.1 255.3 184.4 C256.4 184.4 257.5 184.5 258.7 184.5 C262.3 184.4 262.3 184.4 263.3 183.4 C264.9 183.4 266.6 183.4 268.3 183.4 C268.6 183.8 268.9 184.1 269.3 184.4 C269.8 184.5 269.8 184.5 272.7 184.9 C276.3 185.4 276.3 185.4 278.3 187.4 C279.6 187.8 280.9 188.1 282.3 188.4 C282.6 189.7 282.9 191.1 283.3 192.4 C284.9 192.8 286.6 193.1 288.3 193.4 C288.6 195.1 288.9 196.7 289.3 198.4 C290.6 198.8 291.9 199.1 293.3 199.4 C293.6 201.4 293.9 203.4 294.3 205.4 C295.6 204.8 296.9 204.1 298.3 203.4 C302.8 203.7 303.9 204.1 307.3 207.4 C308.4 207.8 309.6 208.1 310.8 208.4 C314.3 209.4 314.3 209.4 316.3 212.4 C316.3 214.1 316.3 215.7 316.3 217.4 C317.1 217.8 317.1 217.8 321.3 219.4 C323.4 223.7 322.2 228 321.3 232.4 C323.2 232.8 325.2 233.1 327.3 233.4 C327.3 234.1 327.3 234.7 327.3 235.4 C328.9 235.1 330.6 234.8 332.3 234.4 C333.3 235.1 334.2 235.7 335.3 236.4 C335.3 237.7 335.3 239.1 335.3 240.4 C336.6 240.8 337.9 241.1 339.3 241.4 C339.6 243.1 339.9 244.7 340.3 246.4 C341.3 246.8 342.2 247.1 343.3 247.4 C344.3 253.4 344.3 259.3 344.3 265.4 C342.9 266.1 341.6 266.7 340.3 267.4 C339.9 269.1 339.6 270.7 339.3 272.4 C340.6 272.8 341.9 273.1 343.3 273.4 C345.3 279.2 346.3 284.2 346.3 290.4 C345.8 291.1 345.8 291.1 343.3 294.4 C342.6 296.1 341.9 297.7 341.3 299.4 C340.3 300.4 339.3 301.4 338.3 302.4 C337.6 304.1 336.9 305.7 336.3 307.4 C335.6 307.4 334.9 307.4 334.3 307.4 C334.3 309.1 334.3 310.7 334.3 312.4 C333.6 313.1 332.9 313.7 332.3 314.4 C330.9 314.4 329.6 314.4 328.3 314.4 C327.9 315.7 327.6 317.1 327.3 318.4 C326.8 318.6 326.8 318.6 324.3 319.4 C321.3 320.4 321.3 320.4 320.3 321.4 C317.9 321.4 315.6 321.4 313.3 321.4 C311.6 321.8 310 322.1 308.3 322.4 C304.1 321.2 304.1 321.2 300.3 319.4 C299.6 318.1 298.9 316.8 298.3 315.4 C293.7 310.9 292.4 310.9 286.3 310.4 C284.9 310.1 283.6 309.8 282.3 309.4 C279.5 310.6 279.5 310.6 276.6 312.2 C275.7 312.8 274.7 313.3 273.7 313.9 C271.3 315.4 271.3 315.4 269.3 317.4 C270.1 317.4 271 317.4 271.8 317.3 C278.7 317.2 283.9 317.4 290.3 320.4 C289.1 326.4 287.3 328.9 283.3 333.4 C275.2 338.1 268.2 338.3 259.3 336.4 C259.3 337.1 259.3 337.7 259.3 338.4 C260.3 338.4 261.4 338.3 262.5 338.3 C268.3 338.5 273.7 339.5 279.3 340.6 C280.4 340.8 281.5 341.1 282.7 341.3 C311.2 347.3 311.2 347.3 317.3 356.4 C317.9 359.7 317.9 359.7 317.3 363.4 C286.9 397.4 204.6 396.8 163.3 399.4 C162.5 399.5 162.5 399.5 158.5 399.7 C113.8 402.6 68.9 402.4 24.3 399.4 C23.6 399.4 23.6 399.4 20.1 399.1 C-114.6 389.7 -114.6 389.7 -149.9 356.4 C-151.7 353.4 -151.7 353.4 -152 350.4 C-149.7 344.9 -145.9 342.5 -140.6 339.9 C-125.9 333.9 -109.5 331 -93.7 329.4 C-93.7 328.8 -93.7 328.1 -93.7 327.4 C-95.4 326.8 -97 326.1 -98.7 325.4 C-110.5 316.5 -124.8 305.6 -127.7 290.4 C-128.4 282.7 -126.5 277.5 -123.7 270.4 C-123.7 269.1 -123.7 267.8 -123.7 266.4 C-129.8 261.2 -134.7 259.2 -142.7 259.8 C-143.3 259.9 -143.3 259.9 -146.7 260.4 C-147 262.3 -147.3 264.3 -147.6 266.2 C-148.2 270.1 -148.5 272.1 -150.7 275.4 C-152.1 275.1 -153.4 274.8 -154.7 274.4 C-155.1 271.8 -155.4 269.1 -155.7 266.4 C-157.6 270.7 -159.3 275 -160.7 279.4 C-162.4 279.1 -164 278.8 -165.7 278.4 C-165.7 276.4 -165.7 274.5 -165.7 272.4 C-167.7 275.4 -169.7 278.4 -171.7 281.4 C-173.1 281.4 -174.4 281.4 -175.7 281.4 C-175.3 278 -174.8 274.7 -173.7 271.4 C-175.1 271.4 -176.4 271.4 -177.7 271.4 C-176.7 266.4 -176.7 266.4 -173.3 264.1 C-169.7 262.4 -169.7 262.4 -167.7 262.4 C-167.7 261.8 -167.7 261.1 -167.7 260.4 C-169.4 260.1 -171 259.8 -172.7 259.4 C-171.7 255.4 -171.7 255.4 -170.7 254.4 C-168.2 254.6 -165.7 254.8 -163.2 255 C-157.1 255.4 -152.6 255.1 -146.7 253.4 C-138.6 252.8 -133.1 254.4 -125.7 257.4 C-139.8 242.9 -139.8 242.9 -148.2 242.1 C-151.7 242.4 -151.7 242.4 -155.7 246.4 C-156.7 247.7 -157.7 249.1 -158.7 250.4 C-160.1 249.8 -161.4 249.1 -162.7 248.4 C-162.4 246.8 -162.1 245.1 -161.7 243.4 C-163.7 245.1 -165.7 246.7 -167.7 248.4 C-168.7 248.1 -169.7 247.8 -170.7 247.4 C-170.4 245.8 -170.1 244.1 -169.7 242.4 C-172.7 245.3 -175.2 248.1 -177.7 251.4 C-178.7 251.4 -179.7 251.4 -180.7 251.4 C-181.1 250.4 -181.4 249.4 -181.7 248.4 C-182.7 249.4 -183.7 250.4 -184.7 251.4 C-185.7 251.4 -186.7 251.4 -187.7 251.4 C-186.9 245.5 -186.9 245.5 -185.7 244.4 C-187.1 244.1 -188.4 243.8 -189.7 243.4 C-189.4 241.8 -189.1 240.1 -188.7 238.4 C-185 236 -182.1 235.3 -177.7 234.4 C-179.4 233.4 -181 232.4 -182.7 231.4 C-182.1 230.4 -181.4 229.4 -180.7 228.4 C-175.1 228.2 -170.2 229.1 -164.7 230.4 C-165.7 229.4 -166.7 228.4 -167.7 227.4 C-167.7 225.8 -167.7 224.1 -167.7 222.4 C-166.1 222.4 -164.4 222.4 -162.7 222.4 C-161.8 223.5 -160.9 224.5 -160 225.6 C-156.2 230.1 -152.7 231.9 -147.4 234.4 C-140.5 237.9 -134.6 241.4 -128.7 246.4 C-136.7 233.9 -146.7 221.4 -161.7 217.4 C-168.9 216.5 -172.6 218.9 -178.7 222.4 C-180.7 222.4 -182.7 222.4 -184.7 222.4 C-183.7 217.4 -183.7 217.4 -180.7 214.4 C-185.7 215.4 -185.7 215.4 -190.7 217.4 C-192.4 217.4 -194 217.4 -195.7 217.4 C-196.1 216.1 -196.4 214.8 -196.7 213.4 C-195.7 212.8 -195.7 212.8 -190.7 209.4 C-191.7 208.8 -192.7 208.1 -193.7 207.4 C-193.6 206.8 -193.6 206.8 -192.7 203.4 C-183 203.3 -183 203.3 -180.7 204.4 C-180.7 203.8 -180.7 203.1 -180.7 202.4 C-181.4 202.4 -182.1 202.4 -182.7 202.4 C-183.7 201.1 -184.7 199.8 -185.7 198.4 C-185.4 196.8 -185.1 195.1 -184.7 193.4 C-178.3 194.7 -176.8 197.5 -172.7 202.4 C-173.1 200.1 -173.4 197.8 -173.7 195.4 C-173.1 195.1 -173.1 195.1 -169.7 193.4 C-164.9 200.8 -164.9 200.8 -163.5 205 C-160.9 210.1 -156.4 212.4 -151.7 215.4 C-149.1 217.4 -146.4 219.4 -143.7 221.4 C-142.7 222.1 -141.8 222.7 -140.7 223.4 C-145.4 211.4 -145.4 211.4 -152 208.4 C-153.6 207.8 -155.1 207.1 -156.7 206.4 C-157.1 205.1 -157.4 203.8 -157.7 202.4 C-157.1 202.1 -156.4 201.8 -155.7 201.4 C-156.6 200.6 -156.6 200.6 -160.7 196.4 C-160.4 194.8 -160.1 193.1 -159.7 191.4 C-155.7 192.4 -155.7 192.4 -151.7 195.4 C-153.7 190.4 -153.7 190.4 -157.8 187.4 C-161.7 184.4 -161.7 184.4 -162.7 179.4 C-160.4 179.8 -158.1 180.1 -155.7 180.4 C-156.4 178.8 -157.1 177.1 -157.7 175.4 C-157.8 172.8 -157.8 170.1 -157.7 167.4 C-153.7 168.4 -153.7 168.4 -150.7 171.4 C-149.7 170.4 -148.8 169.4 -147.7 168.4 C-146.7 168.8 -145.8 169.1 -144.7 169.4 C-144.7 174.7 -144.7 180 -144.7 185.4 C-143.4 182.8 -142.1 180.1 -140.7 177.4 C-139.4 177.8 -138.1 178.1 -136.7 178.4 C-137.1 181.4 -137.4 184.4 -137.7 187.4 C-137.1 187.1 -137.1 187.1 -133.7 185.4 C-133.1 186.7 -132.4 188.1 -131.7 189.4 C-133.3 191.9 -134.8 194.4 -136.3 196.9 C-139.9 203.2 -139.5 209.5 -137.7 216.4 C-134.3 226.8 -129.7 237.5 -121.7 245.4 C-125 227.2 -125 227.2 -131.7 219.4 C-131.4 218.1 -131.1 216.8 -130.7 215.4 C-130.1 215.1 -129.4 214.8 -128.7 214.4 C-129 214 -129 214 -130.3 211.7 C-131.7 208.4 -131.7 208.4 -130.7 203.4 C-129.1 203.8 -127.4 204.1 -125.7 204.4 C-125.1 205.4 -124.4 206.4 -123.7 207.4 C-123.7 206.5 -123.6 205.6 -123.6 204.6 C-123.5 204.1 -123.5 204.1 -123.3 201 C-123.3 200.5 -123.3 200.5 -123.1 197.5 C-122.7 194.4 -122.7 194.4 -121.7 192.4 C-120.4 192.4 -119.1 192.4 -117.7 192.4 C-117.4 193.2 -117.4 193.2 -115.7 197.4 C-114.7 196.1 -113.8 194.8 -112.7 193.4 C-111.1 193.8 -109.4 194.1 -107.7 194.4 C-108.3 198.3 -108.9 200.8 -110.7 204.4 C-108.8 204.1 -106.8 203.8 -104.7 203.4 C-104.6 204.2 -104.6 204.2 -103.7 208.4 C-107 210.7 -110.3 213 -113.7 215.4 C-113.7 216.1 -113.7 216.7 -113.7 217.4 C-112.4 216.4 -111.1 215.4 -109.7 214.4 C-108.4 214.8 -107.1 215.1 -105.7 215.4 C-106.1 216.7 -106.4 218.1 -106.7 219.4 C-105.1 220.1 -103.4 220.7 -101.7 221.4 C-104.6 227.2 -108.8 227.3 -114.7 229.4 C-117.5 233.6 -117.1 236.4 -116.7 241.4 C-114.9 246.2 -114.9 246.2 -112.7 250.4 C-112.1 251.7 -111.4 253.1 -110.7 254.4 C-106.7 253.4 -106.7 253.4 -102.2 251.4 C-94 248.5 -87.9 248.5 -79.5 251 C-66.7 257.5 -55.9 268.5 -46.7 279.4 C-46.1 280.1 -45.4 280.7 -44.7 281.4 C-44.7 280.4 -44.7 279.4 -44.7 278.4 C-44.2 266 -42.8 253.7 -41.1 241.3 C-38.6 222.4 -39.9 208.2 -49.7 191.4 C-54.5 185.9 -60.3 183.7 -67 181 C-80 175.6 -88.5 171.1 -95.5 158.4 C-100.6 145.8 -102.2 133.7 -102.3 120.3 C-102.5 109.3 -105.5 102.3 -111.7 93.4 C-119.3 82.4 -123.4 73.2 -121.3 59.4 C-118.1 44.7 -109.2 35.6 -97.7 26.4 C-88.7 21.6 -79.2 22.5 -69.5 25 C-63.2 27 -58.2 29.9 -52.7 33.4 C-52.1 33.4 -51.4 33.4 -50.7 33.4 C-50.2 32.1 -49.7 30.9 -49.2 29.5 C-43.7 15.8 -38.9 7.5 -25.7 0.4 C-17.1 -3 -8.8 -2.9 0 0 Z " fill="#C3D2BD" transform="translate(224.734375,97.578125)"/>
<path d="M0 0 C198 0 396 0 600 0 C600 33 600 66 600 100 C402 100 204 100 0 100 C0 67 0 34 0 0 Z " fill="#D5E4D7" transform="translate(0,500)"/>
<path d="M0 0 C3.2 5.3 3.6 7.1 3 13 C1 16 1 16 -1 18 C-4.6 17.5 -8.1 17 -11.7 16.2 C-12.2 16.2 -12.2 16.2 -15 16 C-23.2 24.2 -23.9 35 -25 46 C-24.1 45.9 -23.2 45.9 -22.3 45.8 C-13.6 45.5 -8.4 46.5 -1 51 C1.9 52.4 4.3 51.9 7.5 51.8 C16.4 51.7 22 54.5 28.8 60.1 C32.7 64.9 34.7 69.3 37 75 C37.7 76.3 38.3 77.6 39 79 C45.8 77.2 45.8 77.2 48 75 C49.6 75 51.3 75 53 75 C53.5 74.1 53.9 73.1 54.4 72.1 C56 69 56 69 58 67 C59.6 67 61.3 67 63 67 C63.3 66 63.7 65 64 64 C66.8 63.4 66.8 63.4 70 63 C71 63.7 72 64.3 73 65 C75.3 65.1 77.7 65.1 80 65 C80.3 63.7 80.7 62.4 81 61 C82.6 60.3 84.3 59.7 86 59 C86.3 58.3 86.7 57.7 87 57 C88.1 57 89.3 57 90.4 57.1 C94 57 94 57 95 56 C96.6 56 98.3 56 100 56 C100.3 56.3 100.7 56.7 101 57 C102.1 57.1 103.3 57.3 104.4 57.4 C108 58 108 58 110 60 C111.3 60.3 112.6 60.7 114 61 C114.3 62.3 114.7 63.6 115 65 C116.6 65.3 118.3 65.7 120 66 C120.3 67.6 120.7 69.3 121 71 C122.3 71.3 123.6 71.7 125 72 C125.3 74 125.7 76 126 78 C127.3 77.3 128.6 76.7 130 76 C134.6 76.3 135.7 76.7 139 80 C140.2 80.3 141.4 80.7 142.6 81 C146 82 146 82 148 85 C148 86.6 148 88.3 148 90 C149.6 90.7 151.3 91.3 153 92 C155.1 96.2 153.9 100.6 153 105 C155 105.3 157 105.7 159 106 C159 106.7 159 107.3 159 108 C160.6 107.7 162.3 107.3 164 107 C165 107.7 166 108.3 167 109 C167 110.3 167 111.6 167 113 C168.3 113.3 169.6 113.7 171 114 C171.3 115.6 171.7 117.3 172 119 C173 119.3 174 119.7 175 120 C176.1 126 176.1 131.9 176 138 C175.3 138.3 175.3 138.3 172 140 C171.7 141.6 171.3 143.3 171 145 C172.3 145.3 173.6 145.7 175 146 C177 151.8 178 156.8 178 163 C177.5 163.7 177.5 163.7 175 167 C174.3 168.6 173.7 170.3 173 172 C172 173 171 174 170 175 C169.3 176.6 168.7 178.3 168 180 C167.3 180 166.7 180 166 180 C166 181.6 166 183.3 166 185 C165.3 185.7 164.7 186.3 164 187 C162.7 187 161.4 187 160 187 C159.7 188.3 159.3 189.6 159 191 C158 191.3 157.1 191.6 156.1 191.9 C153 193 153 193 152 194 C149.7 194 147.3 194 145 194 C143.4 194.3 141.7 194.7 140 195 C135.8 193.8 135.8 193.8 132 192 C131.3 190.7 130.7 189.4 130 188 C125.5 183.5 124.1 183.5 118 183 C116.7 182.7 115.4 182.3 114 182 C111.3 183.1 111.3 183.1 108.4 184.8 C107.4 185.4 106.5 185.9 105.5 186.5 C103 188 103 188 101 190 C101.8 190 102.7 189.9 103.6 189.9 C110.4 189.7 115.7 190 122 193 C120.8 198.9 119 201.5 115 206 C107.6 210.3 101.3 211.1 93 209 C89.7 209 86.3 209 83 209 C82.3 210.6 81.7 212.3 81 214 C78.7 218.6 76.5 223.1 74.2 227.6 C71.9 232.1 69.8 236.5 67.8 241.1 C66 245 66 245 64 246 C50.3 247.3 38.7 240.8 27.9 233.1 C25 230 25 230 23.6 226.9 C24.2 220.6 27.7 216.2 31 211 C32.5 208.5 33.9 206 35.4 203.5 C36 202.4 36.7 201.2 37.4 200 C40.5 194.1 40.4 188.6 40 182 C38.7 179 37.4 176 36 173 C35.7 168.2 35.8 164.6 37 160 C42.9 162.4 47.1 166.2 50 172 C50.3 165.1 50.7 158.1 51 151 C46 151 46 151 42 152 C41.3 151.7 40.7 151.3 40 151 C40 150.3 40 149.7 40 149 C38.4 148.7 36.7 148.3 35 148 C32.7 145.4 32.7 145.4 31 143 C30.8 144.1 30.7 145.2 30.5 146.4 C29.8 151.4 29 156.5 28.2 161.6 C28 163.4 27.7 165.1 27.5 166.9 C22.6 199.1 22.6 199.1 11 211 C3.5 216.2 -1.7 218.3 -10.8 217.8 C-18.4 217.7 -22.5 219.1 -29 223 C-38.3 225.3 -45.4 223.7 -54 220 C-55 219 -56 218 -57 217 C-59.8 216.7 -59.8 216.7 -63.1 216.6 C-71.5 216.1 -77.2 213.3 -83.8 207.9 C-94.7 194.6 -97.1 177.4 -99.9 160.8 C-101.7 149.8 -103.8 138.9 -106.2 127.9 C-111 106.5 -115 84.8 -103 65 C-98.2 58.4 -91.8 54.1 -84 52 C-81.9 51.8 -79.8 51.7 -77.8 51.7 C-71.2 51.3 -66.8 49 -61 46 C-55.1 45.1 -49.8 44.6 -44 46 C-44 45 -44.1 44 -44.1 42.9 C-43.7 28.9 -37.2 12.8 -27 3 C-17.4 -3.6 -10.9 -4.7 0 0 Z " fill="#CD4B2A" transform="translate(393,225)"/>
<path d="M0 0 C22.2 9.7 38.3 24.6 47.3 47.4 C47.6 49.1 47.9 50.7 48.3 52.4 C51.9 49.4 55.3 46.4 58.6 42.9 C71.2 30.9 87.2 28.3 104.1 28.2 C104.6 28.2 104.6 28.2 107.2 28.1 C116 28.1 122.4 29.4 129.5 34.4 C135.8 41.2 138.8 48.7 139.6 57.9 C139.3 62 138.6 64.4 137.3 68.2 C135.3 74.1 135.1 79.3 135.3 85.6 C135.4 93.3 135 98.6 131.3 105.4 C131 105.9 131 105.9 129.9 108 C126.6 113.7 122.8 118.1 118.1 122.6 C111.8 128.7 109 133.6 106.8 142 C105.1 148 103.5 151.5 98.8 155.5 C95.6 157.2 92.6 158.5 89.2 159.9 C82.7 162.5 79.7 165.5 75.6 171.2 C70.4 177.8 64.3 182.9 57.5 187.9 C50.9 193.4 46.1 200.8 44.8 209.6 C44.2 217.6 44.7 224.5 46.3 232.4 C46.3 234.1 46.3 235.7 46.3 237.4 C44 234 43.2 231.1 42.2 227.1 C41.9 225.8 41.5 224.5 41.2 223.2 C37.1 206.2 38.1 189.1 46.1 173.5 C52.1 163.8 58.9 158.6 68.3 152.4 C70.3 151.1 72.3 149.8 74.3 148.4 C59 156.2 48.9 164.5 40.3 179.4 C36.8 172.5 44.1 156.5 46.5 149.2 C48.3 144.4 48.3 144.4 49.3 142.4 C49.9 142.4 50.6 142.4 51.3 142.4 C51.9 141.1 52.6 139.8 53.3 138.4 C61.5 133 69.9 129.5 79 126.1 C92.2 121 92.2 121 95.3 116.4 C94.1 117.3 93 118.2 91.8 119 C86.3 122.7 80.5 124.7 74.4 126.9 C70.4 128.4 66.5 129.9 62.5 131.6 C61.4 132.1 60.3 132.5 59.2 133 C56.3 134.4 56.3 134.4 52.3 137.4 C51.6 137.1 50.9 136.8 50.3 136.4 C51.8 132.4 53.4 128.4 55 124.4 C55.5 123.3 55.9 122.2 56.4 121 C62.8 104.9 62.8 104.9 66.3 101.4 C67.3 101.4 68.2 101.4 69.3 101.4 C69.3 100.8 69.3 100.1 69.3 99.4 C78.2 96.3 87.1 93.6 96.3 91.4 C96.3 91.1 96.3 90.8 96.3 90.4 C92.6 91.4 88.8 92.3 85.1 93.3 C84.1 93.6 83 93.8 82 94.1 C77 95.4 72.1 96.7 67.3 98.4 C71.7 87.4 78.5 77.6 86.7 69 C88.7 67 90.7 64.8 92.5 62.6 C96.4 58.3 100.5 54.4 104.7 50.4 C106.1 49.1 107.5 47.8 109 46.4 C110.1 45.4 111.2 44.4 112.3 43.4 C108.5 46.4 105 49.5 101.5 52.7 C98.1 55.8 94.7 58.9 91.2 61.9 C78.1 73.7 78.1 73.7 75.3 79.4 C74.6 79.4 73.9 79.4 73.3 79.4 C71.1 68.6 70.5 57.1 76.3 47.4 C72 54.6 71.2 59 71.6 67.4 C72 79.3 71.7 88.1 63.3 97.4 C62.6 97.4 61.9 97.4 61.3 97.4 C60.3 92.1 59.3 86.9 58.3 81.4 C59.3 89.4 59.3 89.4 59.7 92.8 C60.6 105 55.2 114.1 49.3 124.4 C48.9 124.4 48.6 124.4 48.3 124.4 C47.9 122.7 47.5 121 47.1 119.3 C45.6 113.2 43.5 107.3 41.4 101.5 C39.4 96.1 39 91.3 38.7 85.7 C38.6 84.1 38.5 82.6 38.4 81 C38.4 79.8 38.3 78.6 38.3 77.4 C37.8 90 40 100.6 44 112.5 C48.8 128.2 44.4 138.9 38.3 153.4 C37.9 153.4 37.6 153.4 37.3 153.4 C37.1 151.8 36.9 150.2 36.8 148.5 C35.1 137.1 30.9 126.3 27.3 115.4 C27.9 117.7 28.5 120 29.1 122.2 C29.4 123.6 29.8 125 30.2 126.4 C31.1 129.7 32 133.1 33 136.4 C37.6 154.3 33.3 169.9 27.9 187 C27.5 188.2 27.1 189.4 26.8 190.7 C24.9 196.6 22.9 202.4 20.5 208.2 C14.2 224.3 18.9 243.1 22.1 259.6 C24.5 272.7 25.2 286.3 23.3 299.4 C22.8 299.9 22.8 299.9 20.3 302.4 C20.3 301.4 20.4 300.4 20.4 299.3 C20.4 297.9 20.5 296.5 20.5 295 C20.6 293.6 20.6 292.2 20.7 290.8 C19.6 276.5 14.7 263.9 8.9 250.9 C3.1 237.6 -1.2 224.9 -4.1 210.6 C-5.4 204.4 -7 198.3 -8.5 192.2 C-9.1 189.9 -9.7 187.6 -10.3 185.3 C-10.6 184.3 -10.8 183.3 -11.1 182.3 C-12.9 174.2 -12.9 166.5 -12.9 158.2 C-12.9 156.9 -12.9 155.5 -13 154.1 C-13 146.3 -12.4 139.1 -10.7 131.4 C-11.2 133.4 -11.7 135.4 -12.2 137.4 C-12.4 138.5 -12.7 139.6 -13 140.8 C-14.5 148 -14.9 155.1 -15.3 162.4 C-15.3 163.3 -15.3 163.3 -15.6 167.5 C-15.6 168.8 -15.7 170.1 -15.7 171.4 C-20 167.2 -21.1 160.1 -23 154.6 C-24 151.7 -25 148.9 -26.1 146.1 C-32.6 128.9 -28.8 108.7 -24.7 91.4 C-25.1 91.1 -25.4 90.8 -25.7 90.4 C-26 92.3 -26.3 94.3 -26.6 96.2 C-27.3 100.4 -28 104.6 -28.7 108.8 C-30 115.6 -30.9 122.5 -31.7 129.4 C-33.6 126.6 -34.9 124 -36.2 120.9 C-36.7 119.9 -37.2 118.8 -37.7 117.7 C-38.2 116.5 -38.7 115.4 -39.2 114.2 C-39.7 113.1 -40.2 112 -40.7 110.9 C-42 107.7 -43.4 104.6 -44.7 101.4 C-45.4 100 -46 98.5 -46.6 97 C-48.2 91.8 -46.9 87.6 -45.7 82.4 C-45.7 81.1 -45.7 79.8 -45.7 78.4 C-46.7 82.4 -47.7 86.3 -48.7 90.4 C-51.9 86.3 -54 82.1 -56.4 77.5 C-60.6 69.3 -65.3 61.8 -70.7 54.4 C-69.2 57.6 -67.6 60.7 -65.9 63.8 C-65.4 64.8 -64.8 65.8 -64.3 66.9 C-63.2 69 -62 71.1 -60.9 73.3 C-56.7 81.2 -56.7 81.2 -56.7 83.4 C-65.1 80.1 -73.4 76.8 -81.7 73.4 C-80.4 74.1 -79 74.8 -77.6 75.5 C-76.7 75.9 -75.8 76.4 -74.9 76.9 C-72.6 78 -70.4 79 -68.1 80.1 C-66.9 80.7 -65.7 81.3 -64.4 81.9 C-63.8 82.1 -63.8 82.1 -60.9 83.5 C-52.7 88.5 -50.3 96.7 -47 105.3 C-46.6 106.5 -46.1 107.8 -45.6 109.1 C-43.2 115.1 -41.1 121.1 -39.7 127.4 C-65.4 114.6 -65.4 114.6 -75.7 105.4 C-77.4 104.1 -79.1 102.7 -80.7 101.4 C-72.7 110.1 -63.9 115.8 -53.7 121.8 C-52.4 122.5 -51.1 123.3 -49.7 124.1 C-48.5 124.8 -47.3 125.5 -46.1 126.2 C-37.1 132.2 -35.1 138.1 -32.5 148.2 C-32.1 149.5 -31.8 150.7 -31.5 152 C-26.7 169.4 -26.7 169.4 -26.7 177.4 C-27.9 175.1 -29 172.8 -30.2 170.5 C-39.5 152.3 -53.4 144.8 -70.8 135.1 C-73.7 133.4 -73.7 133.4 -77.7 130.4 C-77.7 131.1 -77.7 131.7 -77.7 132.4 C-76.1 133.1 -74.4 133.7 -72.7 134.4 C-70.3 135.9 -68 137.5 -65.6 139.1 C-61.1 142.2 -56.5 145.2 -51.8 148 C-39 156.2 -32.4 167.9 -28.7 182.4 C-24.5 202.8 -24.9 222.8 -27.6 243.3 C-29.4 256.6 -29.8 270 -29.7 283.4 C-30.1 283.4 -30.4 283.4 -30.7 283.4 C-31.9 277.8 -31.9 272.3 -31.9 266.5 C-31.9 264.7 -31.9 262.8 -31.9 260.8 C-31.8 256.2 -31.3 251.9 -30.7 247.4 C-30 231.7 -30.1 221.5 -40.7 209.4 C-42.9 205.4 -44.8 201.4 -46.7 197.2 C-49.8 191.3 -53 187.3 -59 184.5 C-60.1 184 -61.1 183.5 -62.2 183 C-64.7 181.9 -67.2 180.8 -69.8 179.8 C-82.6 174.4 -90.3 169.2 -96.2 156.2 C-100.9 144.3 -102.2 133 -102.3 120.3 C-102.5 109.3 -105.5 102.3 -111.7 93.4 C-119.3 82.4 -123.4 73.2 -121.3 59.4 C-118.1 44.7 -109.2 35.6 -97.7 26.4 C-88.7 21.6 -79.2 22.5 -69.5 25 C-63.2 27 -58.2 29.9 -52.7 33.4 C-52.1 33.4 -51.4 33.4 -50.7 33.4 C-50.2 32.1 -49.7 30.9 -49.2 29.5 C-43.7 15.8 -38.9 7.5 -25.7 0.4 C-17.1 -3 -8.8 -2.9 0 0 Z " fill="#6A966A" transform="translate(224.734375,97.578125)"/>
<path d="M0 0 C1.6 0 3.3 0 5 0 C5.2 0.2 5.2 0.2 6 1 C7.1 1.1 8.3 1.3 9.4 1.4 C13 2 13 2 15 4 C16.3 4.3 17.6 4.7 19 5 C19.2 5.7 19.2 5.7 20 9 C21.6 9.3 23.3 9.7 25 10 C25.2 10.8 25.2 10.8 26 15 C27.3 15.3 28.6 15.7 30 16 C30.2 17 30.2 17 31 22 C32.3 21.3 33.6 20.7 35 20 C39.6 20.3 40.7 20.7 44 24 C45.2 24.3 46.4 24.7 47.6 25 C51 26 51 26 53 29 C53 30.6 53 32.3 53 34 C54.6 34.7 56.3 35.3 58 36 C60.1 40.2 58.9 44.6 58 49 C59 49.2 59 49.2 64 50 C64 50.7 64 51.3 64 52 C64.8 51.8 64.8 51.8 69 51 C70 51.7 71 52.3 72 53 C72 54.3 72 55.6 72 57 C73.3 57.3 74.6 57.7 76 58 C76.3 59.6 76.7 61.3 77 63 C78 63.3 79 63.7 80 64 C81.1 70 81.1 75.9 81 82 C80.3 82.3 80.3 82.3 77 84 C76.7 85.6 76.3 87.3 76 89 C77.3 89.3 78.6 89.7 80 90 C82 95.8 83 100.8 83 107 C82 108.3 81 109.6 80 111 C79.3 112.6 78.7 114.3 78 116 C77 117 76 118 75 119 C74.3 120.6 73.7 122.3 73 124 C72.3 124 71.7 124 71 124 C71 125.6 71 127.3 71 129 C70.3 129.7 69.7 130.3 69 131 C67.7 131 66.4 131 65 131 C64.7 132.3 64.3 133.6 64 135 C63 135.3 62.1 135.6 61.1 135.9 C58 137 58 137 57 138 C54.7 138 52.3 138 50 138 C48.4 138.3 46.7 138.7 45 139 C40.8 137.8 40.8 137.8 37 136 C36.3 134.7 35.7 133.4 35 132 C30.5 127.5 29.1 127.5 23 127 C22.3 126.8 22.3 126.8 19 126 C16.3 127.1 16.3 127.1 13.4 128.8 C12.4 129.4 11.5 129.9 10.5 130.5 C8 132 8 132 6 134 C6.8 134 7.7 133.9 8.6 133.9 C15.4 133.7 20.7 134 27 137 C25.8 142.9 24 145.5 20 150 C12.6 154.3 6.3 155.1 -2 153 C-5.3 153 -8.7 153 -12 153 C-12.7 154.6 -13.3 156.3 -14 158 C-16.3 162.6 -18.5 167.1 -20.8 171.6 C-23.1 176.1 -25.2 180.5 -27.2 185.1 C-29 189 -29 189 -31 190 C-44.7 191.3 -56.3 184.8 -67.1 177.1 C-70 174 -70 174 -71.4 170.9 C-70.8 164.6 -67.3 160.2 -64 155 C-62.5 152.5 -61.1 150 -59.6 147.5 C-59 146.4 -58.3 145.2 -57.6 144 C-54.5 138.1 -54.6 132.6 -55 126 C-56.3 123 -57.6 120 -59 117 C-59.3 112.2 -59.2 108.6 -58 104 C-52.1 106.4 -47.9 110.2 -45 116 C-44.7 109.1 -44.3 102.1 -44 95 C-49 95 -49 95 -53 96 C-53.7 95.7 -54.3 95.3 -55 95 C-55 94.3 -55 93.7 -55 93 C-56.6 92.7 -58.3 92.3 -60 92 C-63.2 88.1 -64.5 85 -65 80 C-65.5 79.9 -65.5 79.9 -68.2 79.2 C-72 78 -72 78 -76 74 C-77.6 73 -79.3 72 -81 71 C-82.5 68.1 -82 65.3 -82 62 C-82.3 61.3 -82.7 60.7 -83 60 C-83.2 56.1 -83.2 56.1 -83 52 C-82 51 -81 50 -80 49 C-79.3 49 -78.7 49 -78 49 C-78.3 47.4 -78.7 45.7 -79 44 C-76 39 -76 39 -72 36 C-70.4 36 -68.7 36 -67 36 C-66.8 35.1 -66.6 34.1 -66.4 33.2 C-64.6 29.2 -62.9 28.7 -59 27 C-58.7 26 -58.3 25 -58 24 C-55 22.9 -52 22 -49 21 C-48.3 20.3 -47.7 19.7 -47 19 C-45.4 19 -43.7 19 -42 19 C-41.5 18.1 -41.1 17.1 -40.6 16.1 C-39 13 -39 13 -37 11 C-35.4 11 -33.7 11 -32 11 C-31.7 10 -31.3 9 -31 8 C-28.2 7.4 -28.2 7.4 -25 7 C-24 7.7 -23 8.3 -22 9 C-19.7 9.1 -17.3 9.1 -15 9 C-14.7 7.7 -14.3 6.4 -14 5 C-12.4 4.3 -10.7 3.7 -9 3 C-8.7 2.3 -8.3 1.7 -8 1 C-6.9 1 -5.7 1 -4.6 1.1 C-1 1 -1 1 0 0 Z " fill="#4E7F59" transform="translate(488,281)"/>
<path d="M0 0 C4 1 4 1 7 4 C8 3 9 2 10 1 C11 1.3 12 1.7 13 2 C13 7.3 13 12.6 13 18 C14.3 15.4 15.6 12.7 17 10 C18.3 10.3 19.6 10.7 21 11 C20.7 14 20.3 16.9 20 20 C21.3 19.3 22.6 18.7 24 18 C24.3 18.7 24.3 18.7 26 22 C24.5 24.5 22.9 27 21.4 29.5 C17.8 35.8 18.2 42 20 48.9 C23.5 59.4 28.1 70.1 36 78 C32.7 59.8 32.7 59.8 26 52 C26.3 50.7 26.7 49.4 27 48 C27.7 47.7 28.3 47.3 29 47 C28.5 46.1 28 45.2 27.4 44.3 C26 41 26 41 27 36 C28.7 36.3 30.3 36.7 32 37 C32.7 38 33.3 39 34 40 C34.1 39.1 34.1 38.2 34.2 37.2 C34.2 36.6 34.2 36.6 34.4 33.6 C34.5 33 34.5 33 34.7 30 C35 27 35 27 36 25 C37.3 25 38.6 25 40 25 C40.3 25.8 40.3 25.8 42 30 C43 28.7 44 27.4 45 26 C46.7 26.3 48.3 26.7 50 27 C49.5 30.9 48.8 33.4 47 37 C49 36.7 51 36.3 53 36 C53.2 36.8 53.2 36.8 54 41 C50.7 43.3 47.4 45.6 44 48 C44 48.7 44 49.3 44 50 C45.3 49 46.6 48 48 47 C48.7 47.2 48.7 47.2 52 48 C51.7 49.3 51.3 50.6 51 52 C52.7 52.7 54.3 53.3 56 54 C53.1 59.8 48.9 59.9 43 62 C40.2 66.2 40.6 69 41 74 C42.9 78.8 42.9 78.8 45 83 C45.7 84.3 46.3 85.6 47 87 C51 86 51 86 55.5 83.9 C63.7 81 69.9 81.1 78.2 83.6 C91 90.1 101.8 101.1 111 112 C113 114.1 114.9 116.2 116.9 118.3 C120.5 122.3 124.1 126.2 127.4 130.4 C132 136.1 137 141.5 142 146.8 C145.4 150.5 148.7 154.2 152 158 C152.9 159.1 153.8 160.1 154.8 161.2 C160.1 167.4 165.4 173.6 170.5 180 C173.6 183.8 176.8 187.6 179.9 191.4 C181.1 192.8 182.3 194.3 183.5 195.8 C186.6 199.5 189.8 203.2 192.9 206.9 C197.6 212.3 201.5 217.7 205 224 C204.7 225.3 204.3 226.6 204 228 C195.7 232.2 182.4 226.1 174.3 223.5 C163.8 219.7 153.9 215.2 144 210 C142.7 209.4 141.5 208.7 140.2 208.1 C43.4 158.5 43.4 158.5 31.4 128.4 C28.8 118.4 30.4 112.4 34 103 C34 101.7 34 100.4 34 99 C27.9 93.8 23 91.8 15.1 92.4 C14.4 92.5 14.4 92.5 11 93 C10.7 94.9 10.4 96.8 10.1 98.8 C9.5 102.7 9.2 104.7 7 108 C5.7 107.7 4.4 107.3 3 107 C2.8 105.7 2.8 105.7 2 99 C0.1 103.3 -1.6 107.5 -3 112 C-4.6 111.7 -6.3 111.3 -8 111 C-8 109 -8 107 -8 105 C-9 106.5 -9 106.5 -14 114 C-15.3 114 -16.6 114 -18 114 C-17.5 110.5 -17.1 107.3 -16 104 C-17.3 104 -18.6 104 -20 104 C-19 99 -19 99 -15.6 96.7 C-12 95 -12 95 -10 95 C-10 94.3 -10 93.7 -10 93 C-11.6 92.7 -13.3 92.3 -15 92 C-14 88 -14 88 -13 87 C-10.5 87.1 -8 87.3 -5.4 87.6 C0.6 88 5.2 87.7 11 86 C19.1 85.4 24.6 87 32 90 C17.9 75.4 17.9 75.4 9.6 74.7 C6 75 6 75 2 79 C1 80.3 0 81.6 -1 83 C-2.3 82.3 -3.6 81.7 -5 81 C-4.7 79.4 -4.3 77.7 -4 76 C-6 77.6 -8 79.3 -10 81 C-10.5 80.8 -10.5 80.8 -13 80 C-12.7 78.4 -12.3 76.7 -12 75 C-15 77.9 -17.5 80.7 -20 84 C-21 84 -22 84 -23 84 C-23.3 83 -23.7 82 -24 81 C-25 82 -26 83 -27 84 C-28 84 -29 84 -30 84 C-29.1 78.1 -29.1 78.1 -28 77 C-29.3 76.7 -30.6 76.3 -32 76 C-31.7 74.4 -31.3 72.7 -31 71 C-27.3 68.6 -24.4 67.9 -20 67 C-21.6 66 -23.3 65 -25 64 C-24.3 63 -23.7 62 -23 61 C-17.4 60.8 -12.5 61.7 -7 63 C-8 62 -9 61 -10 60 C-10 58.4 -10 56.7 -10 55 C-8.4 55 -6.7 55 -5 55 C-4.1 56.1 -3.2 57.1 -2.3 58.2 C1.5 62.6 5.1 64.4 10.3 67 C17.2 70.5 23.2 73.9 29 79 C21 66.4 11 53.9 -4 50 C-11.2 49.1 -14.9 51.5 -21 55 C-23 55 -25 55 -27 55 C-26 50 -26 50 -23 47 C-28 48 -28 48 -33 50 C-34.6 50 -36.3 50 -38 50 C-38.3 48.7 -38.7 47.4 -39 46 C-37 44.7 -35 43.4 -33 42 C-34 41.3 -35 40.7 -36 40 C-35.7 38.7 -35.3 37.4 -35 36 C-25.2 35.9 -25.2 35.9 -23 37 C-23 36.3 -23 35.7 -23 35 C-23.7 35 -24.3 35 -25 35 C-26 33.7 -27 32.4 -28 31 C-27.7 29.4 -27.3 27.7 -27 26 C-20.6 27.3 -19 30 -15 35 C-15.3 32.7 -15.7 30.4 -16 28 C-14.7 27.3 -13.4 26.7 -12 26 C-7.2 33.4 -7.2 33.4 -5.8 37.6 C-3.1 42.6 1.3 45 6 48 C8.7 50 11.3 52 14 54 C15 54.7 16 55.3 17 56 C12.3 44 12.3 44 5.7 41 C4.1 40.3 2.6 39.7 1 39 C0.8 38.3 0.8 38.3 0 35 C0.7 34.7 1.3 34.3 2 34 C0.3 32.4 -1.3 30.7 -3 29 C-2.7 27.4 -2.3 25.7 -2 24 C2 25 2 25 6 28 C4 23 4 23 -0.1 20 C-4 17 -4 17 -5 12 C-2.7 12.3 -0.4 12.7 2 13 C1.3 11.4 0.7 9.7 0 8 C-0.1 5.3 -0.1 2.7 0 0 Z " fill="#CE7637" transform="translate(67,265)"/>
<path d="M0 0 C0 3 0 3 -3.5 6.8 C-6.2 9.3 -8.9 11.8 -11.8 14.2 C-25.7 26.7 -35.2 41.1 -45 57 C-43.7 56.4 -42.5 55.8 -41.1 55.2 C-36 53 -31 51.5 -25.6 50.2 C-23.9 49.7 -22.1 49.3 -20.4 48.9 C-16 48 -16 48 -13 49 C-17.3 51.8 -22 52.8 -26.9 54.1 C-27.9 54.3 -28.9 54.6 -29.9 54.9 C-34.2 56 -38.6 57.1 -43 58 C-43 58.7 -43 59.3 -43 60 C-43.8 60.5 -43.8 60.5 -48 63 C-50.1 67 -50.1 67 -52 71.9 C-52.7 73.6 -53.4 75.3 -54.1 77 C-54.4 77.8 -54.4 77.8 -56 82 C-56.5 83.4 -57.1 84.7 -57.6 86.1 C-58.8 89.1 -59.9 92 -61 95 C-60 94.5 -59.1 94 -58.1 93.5 C-49.5 89 -41 85.5 -31.9 82.5 C-26.8 80.5 -22.6 77.9 -18 75 C-17 75 -16 75 -15 75 C-20.1 79.8 -24.7 82.5 -31.2 85.1 C-32.9 85.7 -34.5 86.4 -36.2 87.1 C-39.1 88.2 -41.9 89.3 -44.7 90.4 C-58.5 96 -58.5 96 -61 101 C-61.7 101 -62.3 101 -63 101 C-64.9 108 -66.8 115 -68.7 122 C-69.1 123.6 -69.6 125.3 -70 126.9 C-71 131 -71 131 -71 134 C-70.5 133.3 -70.1 132.6 -69.6 131.9 C-61.2 119.9 -49.8 109 -35 106 C-38.5 108.9 -41.9 111.2 -45.9 113.4 C-59.5 121.2 -65.5 131.5 -70.8 145.9 C-73.9 158 -72.5 171 -70 183 C-69.6 189.1 -69.7 190.6 -73 196 C-73.3 197 -73.7 198 -74 199 C-72.7 199 -71.4 199 -70 199 C-69 199 -68 199 -67 199 C-59.7 222.3 -54 245.9 -64.5 269.3 C-68 276 -71.8 281.6 -78 286 C-78.7 286 -79.3 286 -80 286 C-80 285.3 -80 284.7 -80 284 C-80.7 284 -81.3 284 -82 284 C-82 285.3 -82 286.6 -82 288 C-83 288 -84 288 -85 288 C-85 290 -85 292 -85 294 C-107.6 295.3 -107.6 295.3 -115.6 289.9 C-119.1 286.1 -122.1 282.2 -125 278 C-126.2 276.7 -127.4 275.4 -128.6 274 C-129.7 272.7 -130.8 271.4 -132 270 C-139 261.9 -145.9 253.9 -153.2 246.1 C-158.7 239.8 -156.5 228.9 -156 221 C-155.3 214 -154.4 207 -153.4 200 C-152.1 189.9 -151.5 180.2 -152 170 C-146.6 173.8 -143.9 177 -142.4 183.5 C-141.2 193.7 -141.7 203.9 -143 214 C-143 217.3 -143 220.7 -143 224 C-142.5 219.7 -142 215.5 -141.6 211.2 C-141.2 207.9 -140.8 204.6 -140.4 201.2 C-137.5 175.5 -135.4 143.2 -150.2 120.6 C-157.9 111.2 -166.4 105.7 -176.7 99.6 C-181.3 96.8 -185.6 94 -190 91 C-190 90.3 -190 89.7 -190 89 C-184.3 91.8 -178.9 94.9 -173.4 98.1 C-172.2 98.7 -171.1 99.3 -169.9 100 C-160.6 105.3 -151.6 111.3 -146.1 120.7 C-145.5 121.6 -145 122.4 -144.5 123.3 C-142.9 126.2 -141.4 129.1 -140 132 C-141.9 122 -144.1 112.1 -146.8 102.2 C-147.2 100.6 -147.6 99 -148 97.4 C-151.9 88.8 -159.4 84.9 -167.4 80.6 C-177.6 74.8 -185.8 68.5 -194 60 C-193.7 59.3 -193.3 58.7 -193 58 C-192 59.1 -190.9 60.3 -189.9 61.4 C-181.2 70.1 -170 75.7 -159.2 81.3 C-156 83 -156 83 -152 86 C-153.6 81.8 -155.3 77.5 -156.9 73.3 C-158.3 69.7 -159.7 66.1 -161 62.5 C-161.4 61.6 -161.4 61.6 -163.1 57.2 C-163.7 55.6 -164.3 53.9 -164.9 52.2 C-169 43.9 -176.1 41.3 -184.3 37.8 C-194.9 33.3 -194.9 33.3 -196 31 C-186.4 33.6 -177.8 37.6 -169 42 C-170.5 38.9 -172.1 35.7 -173.6 32.6 C-174.5 30.8 -175.3 29.1 -176.2 27.3 C-178.9 22.2 -181.8 17.7 -185 13 C-184.7 12.3 -184.3 11.7 -184 11 C-174.6 21.8 -168.3 34.2 -162 47 C-159 41 -158.9 35.8 -158.9 29.1 C-158.9 27.8 -159 26.4 -159 25.1 C-159 24.1 -159 23 -159 22 C-156.9 26.3 -156.7 28.3 -156.8 33 C-156.7 33.6 -156.7 33.6 -156.7 36.7 C-157 41 -157 41 -158.4 46.5 C-160 55.1 -155.8 62.1 -152.1 69.8 C-151.8 70.5 -151.8 70.5 -150.1 74.2 C-148.4 77.8 -146.7 81.4 -145 85 C-143 83 -143.4 79.2 -143.2 76.6 C-142.1 67.2 -140.2 58.2 -138 49 C-137.7 49.2 -137.7 49.2 -136 50 C-136.3 51.2 -136.6 52.5 -136.9 53.8 C-141.1 73.5 -142.5 91.9 -135 111 C-133.9 114.2 -132.8 117.3 -131.7 120.5 C-130.8 123 -129.9 125.5 -129 128 C-128.9 126.4 -128.8 124.8 -128.7 123.1 C-127.9 110.7 -126.7 99 -123 87 C-122 91 -122 91 -122.9 95.3 C-127.5 119.1 -123 142.6 -116 165.4 C-115 169 -115 169 -114.2 173.5 C-111.4 187.8 -106.4 200.5 -100.4 213.8 C-94.9 226.3 -90.3 239.2 -90.8 253.1 C-90.8 254.4 -90.8 255.7 -90.9 257.1 C-90.9 258.1 -91 259 -91 260 C-84 246.1 -90.2 221.6 -93.1 207.2 C-97 186.1 -95 170.6 -87.2 151.2 C-85.2 145.8 -83.6 140.4 -82 134.9 C-81.7 133.9 -81.4 132.9 -81.1 131.9 C-76.1 114.3 -78.5 98.9 -84.1 81.8 C-85.7 76.8 -86.1 72.2 -86 67 C-85.7 67 -85.3 67 -85 67 C-84.8 67.9 -84.6 68.8 -84.3 69.8 C-82 79.5 -79.2 89 -76.3 98.5 C-75.2 102.4 -74.4 106 -74 110 C-72.8 107.1 -71.6 104.2 -70.5 101.2 C-69.9 99.6 -69.2 98 -68.5 96.3 C-65.5 85.7 -67 77.3 -70.4 67.2 C-73.3 58.6 -75.2 51.1 -75.1 42.1 C-75.1 40.9 -75 39.8 -75 38.6 C-75 37.7 -75 36.9 -75 36 C-74.3 35.7 -73.7 35.3 -73 35 C-73 36.1 -73 37.2 -73 38.4 C-72.6 49.4 -70.7 58.6 -67 69 C-66.2 71.3 -65.5 73.7 -64.7 76 C-64.1 77.7 -63.6 79.3 -63 81 C-55.3 67.7 -52 58.1 -55 43 C-55.1 40.4 -55.1 37.8 -55.1 35.2 C-55.1 33.8 -55 32.5 -55 31.1 C-55 30.6 -55 30.6 -55 28 C-54.7 28 -54.3 28 -54 28 C-51.9 46.8 -51.9 46.8 -51 56 C-50.3 56 -49.7 56 -49 56 C-48.3 54.3 -47.7 52.7 -47 51 C-46.1 49.8 -45.3 48.7 -44.4 47.5 C-41.2 41.5 -41.6 36.8 -41.9 30.1 C-42.4 21.4 -42.1 15 -38 7 C-37 6.3 -36 5.7 -35 5 C-36.3 8.3 -37.7 11.7 -39 15 C-39.1 19 -39.2 22.9 -39.1 26.8 C-39.1 27.9 -39.1 29 -39.1 30.1 C-39.1 32.7 -39 35.4 -39 38 C-38.3 38 -37.7 38 -37 38 C-36.3 36.7 -35.7 35.4 -35 34 C-25.4 22.6 -14.2 12.8 -3 3 C-2 2 -1 1 0 0 Z " fill="#E2E7CA" transform="translate(337,139)"/>
<path d="M0 0 C16.7 9.8 29.1 25.9 35.1 44.3 C35 48 35 48 31.9 51.7 C30.5 53 29 54.2 27.6 55.6 C11.8 70.4 3.2 90.8 1.7 112.4 C2.2 121.5 4.4 130.4 6.9 139.2 C10.8 152.6 9.2 166.4 7 180 C6.7 180 6.3 180 6 180 C6 178.5 6 177 5.9 175.4 C5.1 165 1.2 154.9 -2 145 C-2.1 145.4 -2.1 145.4 -2.4 147.5 C-2.9 151.3 -3.4 155.1 -3.9 158.9 C-4.1 160.2 -4.3 161.5 -4.5 162.9 C-4.7 164.1 -4.8 165.4 -5 166.7 C-5.2 167.8 -5.4 169 -5.5 170.2 C-6 173 -6 173 -7 175 C-7.1 176.3 -7.3 177.6 -7.4 179 C-8 184 -8 184 -9 188.3 C-10.3 195.5 -10.5 202.4 -10.6 209.6 C-10.7 211 -10.7 212.4 -10.7 213.8 C-10.8 217.2 -10.9 220.6 -11 224 C-11.7 223.7 -12.3 223.3 -13 223 C-21.4 196.1 -17.8 173.6 -8.6 147.6 C-2.7 130.4 -3.3 111.5 -11 95 C-14.5 89.6 -18.1 84.8 -22.3 80 C-26.3 75.3 -29.1 70.4 -31.9 64.9 C-37.8 54.1 -45.1 47.4 -54.7 39.9 C-58.3 36.9 -61.2 33.8 -64 30 C-63.1 25.5 -61.9 21.8 -60.2 17.6 C-59.9 16.9 -59.9 16.9 -58.7 13.7 C-54.3 3.9 -47.2 -3 -37.2 -7.1 C-23.4 -11 -12.2 -6.5 0 0 Z " fill="#51815B" transform="translate(238,104)"/>
<path d="M0 0 C0.8 0.2 0.8 0.2 5 1 C4.9 1.6 4.9 1.6 4.4 4.4 C4.3 5.6 4.1 6.8 4 8 C4.2 8.2 4.2 8.2 5 9 C4.6 16.7 3 23.7 0.9 31 C-2 41.8 -2 41.8 -2 44 C3.2 36.2 8 28.5 12 20 C12.7 20 13.3 20 14 20 C14.3 20.5 14.3 20.5 16 23 C19 23 21.9 23 25 23 C26 24.6 27 26.3 28 28 C27.3 28 26.7 28 26 28 C24 32 24 32 23 35 C24.3 34 25.6 33 27 32 C31.3 29.6 32.9 29 38 29 C38 29.7 38 30.3 38 31 C38.7 31.3 39.3 31.7 40 32 C39 32.6 37.9 33.2 36.9 33.8 C21.9 42.8 13.3 52.2 4 67 C9 63.7 12.3 60.6 15.7 55.8 C19.6 50.1 19.6 50.1 24 49 C26 49 28 49 30 49 C33.8 47.5 33.8 47.5 37.8 45.5 C44.8 42 44.8 42 47 42 C47.2 42.7 47.2 42.7 48 46 C48.5 46.3 48.5 46.3 51 48 C51 49.6 51 51.3 51 53 C49.2 53.7 47.5 54.4 45.7 55.1 C30.6 61.4 30.6 61.4 26 66 C26.8 66 27.7 65.9 28.6 65.9 C35.4 65.7 40.7 66 47 69 C45.8 74.9 44 77.5 40 82 C32.6 86.3 26.3 87.1 18 85 C14.7 85 11.3 85 8 85 C7.3 86.6 6.7 88.3 6 90 C3.7 94.6 1.5 99.1 -0.8 103.6 C-3.1 108.1 -5.2 112.5 -7.2 117.1 C-9 121 -9 121 -11 122 C-24.7 123.3 -36.3 116.8 -47.1 109.1 C-50 106 -50 106 -51.4 102.9 C-50.8 96.6 -47.3 92.2 -44 87 C-42.5 84.5 -41.1 82 -39.6 79.5 C-39 78.4 -38.3 77.2 -37.6 76 C-34.5 70.1 -34.6 64.6 -35 58 C-36.3 55 -37.6 52 -39 49 C-39.3 44.2 -39.2 40.6 -38 36 C-32.1 38.4 -27.9 42.2 -25 48 C-24.7 41.1 -24.3 34.1 -24 27 C-25 26.7 -26 26.3 -27 26 C-26.3 26 -25.7 26 -25 26 C-27.4 20.1 -30.1 15.1 -34 10 C-33 9.3 -32 8.7 -31 8 C-30.3 7 -29.7 6 -29 5 C-27 7.3 -25 9.6 -23 12 C-23 11 -23 10 -23 9 C-23 7.4 -23 5.7 -23 4 C-22 3.3 -21 2.7 -20 2 C-19.5 2.3 -19.5 2.3 -17 4 C-14 3.4 -11 2.7 -8 2 C-8 9.3 -8 16.5 -8 24 C-7.4 21.5 -6.8 19 -6.1 16.4 C-2.8 2.8 -2.8 2.8 0 0 Z " fill="#96B081" transform="translate(468,349)"/>
<path d="M0 0 C0.8 0.3 0.8 0.3 5 2 C5 2.7 5 3.3 5 4 C6 4.3 7 4.7 8 5 C8.7 5.7 9.3 6.3 10 7 C10.7 7 11.3 7 12 7 C12.1 8.5 12.1 9.9 12.2 11.4 C12.3 13.3 12.4 15.2 12.4 17.2 C12.5 19.1 12.6 21 12.7 22.9 C13 28 13 28 14 33 C16 46.7 10.6 56.4 4 68 C3.7 68 3.3 68 3 68 C2.6 66.3 2.2 64.6 1.8 62.9 C0.3 56.8 -1.7 50.9 -3.9 45 C-5.8 39.7 -6.3 34.9 -6.6 29.2 C-6.6 27.7 -6.7 26.2 -6.8 24.6 C-6.9 23.4 -6.9 22.2 -7 21 C-7.4 33.6 -5.3 44.2 -1.3 56.1 C3.6 71.8 -0.9 82.5 -7 97 C-7.3 97 -7.7 97 -8 97 C-8.1 96.2 -8.1 96.2 -8.5 92.1 C-10.2 80.7 -14.4 69.8 -18 59 C-17.4 61.3 -16.8 63.5 -16.2 65.8 C-15.8 67.2 -15.5 68.5 -15.1 70 C-14.2 73.3 -13.3 76.7 -12.3 80 C-7.6 97.8 -12 113.4 -17.4 130.6 C-17.7 131.8 -18.1 133 -18.5 134.2 C-20.4 140.2 -22.4 146 -24.8 151.7 C-31.1 167.9 -26.4 186.7 -23.2 203.2 C-20.7 216.3 -20 229.8 -22 243 C-23 244 -24 245 -25 246 C-25 245.5 -25 245.5 -24.9 242.9 C-24.8 241.5 -24.8 240 -24.8 238.6 C-24.7 237.2 -24.7 235.8 -24.6 234.4 C-25.5 221.7 -29.3 210.7 -34.7 199.3 C-43.8 180.1 -45.9 164.9 -43 144 C-42.8 142 -42.5 140.1 -42.3 138.1 C-41.5 132.4 -40.5 126.9 -39 121.3 C-37.6 115.4 -37 109.5 -36.4 103.5 C-36.2 102.3 -36.1 101.1 -36 99.9 C-35.6 96.9 -35.3 94 -35 91 C-32.5 96 -31 101.1 -29.4 106.4 C-29.1 107.5 -28.8 108.5 -28.5 109.6 C-27.1 114 -25.9 118.4 -25 123 C-23.2 110.1 -23.4 98.4 -27 86 C-33.1 61.4 -30.3 42.1 -17.9 20 C-14.8 15.1 -11 11.1 -7 7 C-5.7 5.6 -4.3 4.3 -2.9 2.9 C-2 1.9 -1 1 0 0 Z " fill="#709B6D" transform="translate(270,154)"/>
<path d="M0 0 C4 1 4 1 7 4 C8 3 9 2 10 1 C11 1.3 12 1.7 13 2 C13 7.3 13 12.6 13 18 C14.3 15.4 15.6 12.7 17 10 C18.3 10.3 19.6 10.7 21 11 C20.7 14 20.3 16.9 20 20 C21.3 19.3 22.6 18.7 24 18 C24.3 18.7 24.3 18.7 26 22 C24.5 24.5 22.9 27 21.4 29.5 C17.8 35.8 18.2 42 20 48.9 C23.5 59.4 28.1 70.1 36 78 C32.7 59.8 32.7 59.8 26 52 C26.3 50.7 26.7 49.4 27 48 C27.7 47.7 28.3 47.3 29 47 C28.5 46.1 28 45.2 27.4 44.3 C26 41 26 41 27 36 C28.7 36.3 30.3 36.7 32 37 C32.7 38 33.3 39 34 40 C34.1 39.1 34.1 38.2 34.2 37.2 C34.2 36.6 34.2 36.6 34.4 33.6 C34.5 33 34.5 33 34.7 30 C35 27 35 27 36 25 C37.3 25 38.6 25 40 25 C40.3 25.8 40.3 25.8 42 30 C43 28.7 44 27.4 45 26 C46.7 26.3 48.3 26.7 50 27 C49.5 30.9 48.8 33.4 47 37 C49 36.7 51 36.3 53 36 C53.2 36.8 53.2 36.8 54 41 C50.7 43.3 47.4 45.6 44 48 C44 48.7 44 49.3 44 50 C45.3 49 46.6 48 48 47 C48.7 47.2 48.7 47.2 52 48 C51.7 49.3 51.3 50.6 51 52 C52.7 52.7 54.3 53.3 56 54 C53.1 59.8 48.9 59.9 43 62 C40.2 66.2 40.6 69 41 74 C42.8 78.7 42.8 78.7 45 83 C45.6 84.2 46.2 85.4 46.8 86.6 C47.2 87.4 47.6 88.2 48 89 C47.4 89.5 47.4 89.5 44.2 92.2 C40 96 40 96 37 100 C33 98 33 98 30.2 96 C23.6 91.9 18.6 91.8 11 93 C10.7 94.9 10.4 96.8 10.1 98.8 C9.5 102.7 9.2 104.7 7 108 C5.7 107.7 4.4 107.3 3 107 C2.8 105.7 2.8 105.7 2 99 C0.1 103.3 -1.6 107.5 -3 112 C-4.6 111.7 -6.3 111.3 -8 111 C-8 109 -8 107 -8 105 C-9 106.5 -9 106.5 -14 114 C-15.3 114 -16.6 114 -18 114 C-17.5 110.5 -17.1 107.3 -16 104 C-17.3 104 -18.6 104 -20 104 C-19 99 -19 99 -15.6 96.7 C-12 95 -12 95 -10 95 C-10 94.3 -10 93.7 -10 93 C-11.6 92.7 -13.3 92.3 -15 92 C-14 88 -14 88 -13 87 C-10.5 87.1 -8 87.3 -5.4 87.6 C0.6 88 5.2 87.7 11 86 C19.1 85.4 24.6 87 32 90 C17.9 75.4 17.9 75.4 9.6 74.7 C6 75 6 75 2 79 C1 80.3 0 81.6 -1 83 C-2.3 82.3 -3.6 81.7 -5 81 C-4.7 79.4 -4.3 77.7 -4 76 C-6 77.6 -8 79.3 -10 81 C-10.5 80.8 -10.5 80.8 -13 80 C-12.7 78.4 -12.3 76.7 -12 75 C-15 77.9 -17.5 80.7 -20 84 C-21 84 -22 84 -23 84 C-23.3 83 -23.7 82 -24 81 C-25 82 -26 83 -27 84 C-28 84 -29 84 -30 84 C-29.1 78.1 -29.1 78.1 -28 77 C-29.3 76.7 -30.6 76.3 -32 76 C-31.7 74.4 -31.3 72.7 -31 71 C-27.3 68.6 -24.4 67.9 -20 67 C-21.6 66 -23.3 65 -25 64 C-24.3 63 -23.7 62 -23 61 C-17.4 60.8 -12.5 61.7 -7 63 C-8 62 -9 61 -10 60 C-10 58.4 -10 56.7 -10 55 C-8.4 55 -6.7 55 -5 55 C-4.1 56.1 -3.2 57.1 -2.3 58.2 C1.5 62.6 5.1 64.4 10.3 67 C17.2 70.5 23.2 73.9 29 79 C21 66.4 11 53.9 -4 50 C-11.2 49.1 -14.9 51.5 -21 55 C-23 55 -25 55 -27 55 C-26 50 -26 50 -23 47 C-28 48 -28 48 -33 50 C-34.6 50 -36.3 50 -38 50 C-38.3 48.7 -38.7 47.4 -39 46 C-37 44.7 -35 43.4 -33 42 C-34 41.3 -35 40.7 -36 40 C-35.7 38.7 -35.3 37.4 -35 36 C-25.2 35.9 -25.2 35.9 -23 37 C-23 36.3 -23 35.7 -23 35 C-23.7 35 -24.3 35 -25 35 C-26 33.7 -27 32.4 -28 31 C-27.7 29.4 -27.3 27.7 -27 26 C-20.6 27.3 -19 30 -15 35 C-15.3 32.7 -15.7 30.4 -16 28 C-14.7 27.3 -13.4 26.7 -12 26 C-7.2 33.4 -7.2 33.4 -5.8 37.6 C-3.1 42.6 1.3 45 6 48 C8.7 50 11.3 52 14 54 C15 54.7 16 55.3 17 56 C12.3 44 12.3 44 5.7 41 C4.1 40.3 2.6 39.7 1 39 C0.8 38.3 0.8 38.3 0 35 C0.7 34.7 1.3 34.3 2 34 C0.3 32.4 -1.3 30.7 -3 29 C-2.7 27.4 -2.3 25.7 -2 24 C2 25 2 25 6 28 C4 23 4 23 -0.1 20 C-4 17 -4 17 -5 12 C-2.7 12.3 -0.4 12.7 2 13 C1.3 11.4 0.7 9.7 0 8 C-0.1 5.3 -0.1 2.7 0 0 Z " fill="#6A966B" transform="translate(67,265)"/>
<path d="M0 0 C1.4 -0 2.8 -0 4.3 -0 C7.9 0.2 7.9 0.2 10.9 2.2 C10.9 3.2 10.9 4.2 10.9 5.2 C12.7 9.6 14.6 13.9 16.6 18.2 C22.1 30.7 22.1 30.7 19.9 37.1 C19.4 38 18.8 38.8 18.3 39.7 C17.8 40.6 17.2 41.5 16.6 42.5 C14.1 46.5 11.5 50.4 8.9 54.2 C6.1 62.7 7.8 73.6 8.9 82.2 C5.5 79.2 2.8 75.8 0.1 72.1 C-9.6 58.6 -19.6 49.5 -33.4 40.2 C-36.1 38.2 -36.1 38.2 -38.1 35.2 C-32.3 20.2 -27.6 10 -13.1 2.2 C-8.1 0.3 -5.3 -0 0 0 Z " fill="#5E8D64" transform="translate(212.125,95.75)"/>
<path d="M0 0 C10.7 9.7 16.5 23.3 23 36 C26 30 26.1 24.8 26.1 18.1 C26.1 16.8 26 15.4 26 14.1 C26 13.1 26 12 26 11 C28.1 15.3 28.3 17.3 28.2 22 C28.3 22.6 28.3 22.6 28.3 25.7 C28 30 28 30 26.6 35.5 C25 44.1 29.2 51.1 32.9 58.8 C33.6 60.2 34.2 61.7 34.9 63.2 C36.6 66.8 38.3 70.4 40 74 C42 72 41.6 68.2 41.8 65.6 C42.9 56.2 44.8 47.2 47 38 C47.3 38.2 47.3 38.2 49 39 C48.7 40.2 48.4 41.5 48.1 42.8 C43.9 62.5 42.5 80.9 50 100 C51.1 103.2 52.2 106.3 53.3 109.5 C54.2 112 55.1 114.5 56 117 C56.1 115.4 56.2 113.8 56.3 112.1 C57.1 99.7 58.3 88 62 76 C63 80 63 80 62.1 84.3 C57.5 108.1 62.1 131.5 69 154.3 C70.3 159.1 71.2 163.9 72.2 168.7 C74.3 178 77.4 186.3 81.4 194.9 C83 199 83.3 201.7 83 206 C81 206.3 79 206.7 77 207 C76.7 206 76.3 205 76 204 C75.3 203.7 74.7 203.3 74 203 C73.7 204.3 73.3 205.6 73 207 C72 203 72 203 73 201 C72.3 201 71.7 201 71 201 C71 200.3 71 199.7 71 199 C69.7 198.7 68.4 198.3 67 198 C66.3 197.7 65.7 197.3 65 197 C64.7 197.7 64.3 198.3 64 199 C62.9 193.7 62.9 188.5 62.9 183.1 C62.9 181.4 63 179.7 63 177.9 C63 176.6 63 175.3 63 174 C64.7 175 66.3 176 68 177 C67.3 176 66.7 175 66 174 C66 173 66 172 66 171 C65.3 171 64.7 171 64 171 C63.7 170 63.3 169 63 168 C62.7 169.3 62.3 170.6 62 172 C62 169.7 62 167.4 62 165 C63 164.3 64 163.7 65 163 C64.3 162.3 63.7 161.7 63 161 C62.3 162 61.7 163 61 164 C59.6 156.6 58.5 150.5 60 143 C59 142.7 58 142.3 57 142 C57.3 140.7 57.7 139.4 58 138 C57.3 138 56.7 138 56 138 C56 134.4 56 130.7 56 127 C55.3 127 54.7 127 54 127 C53 126 52 125 51 124 C50 124.3 49 124.7 48 125 C48.1 126.1 48.3 127.2 48.4 128.4 C49 133.2 49.5 138.1 50 143 C51 140 51 140 51 134 C51.7 133.3 52.3 132.7 53 132 C54 140.4 54.1 148.6 53.9 157.1 C54 161 54 161 55 165 C54.3 165.7 53.7 166.3 53 167 C52.3 166.7 51.7 166.3 51 166 C51 166.7 51 167.3 51 168 C52 168.3 53 168.7 54 169 C54 175.3 54 181.5 54 188 C46 192 46 192 45 192 C45.1 191.1 45.1 190.1 45.2 189.2 C49.5 127.5 49.5 127.5 31 105 C24.3 98.1 16.6 93.5 8.3 88.6 C3.7 85.8 -0.6 83 -5 80 C-5 79.3 -5 78.7 -5 78 C0.7 80.8 6.1 83.9 11.6 87.1 C12.8 87.7 13.9 88.3 15.1 89 C24.4 94.3 33.4 100.3 38.9 109.7 C39.5 110.6 40 111.4 40.5 112.3 C42.1 115.2 43.6 118.1 45 121 C43.1 111 40.9 101.1 38.2 91.2 C37.8 89.6 37.4 88 37 86.4 C33.1 77.8 25.6 73.9 17.6 69.6 C7.4 63.8 -0.8 57.5 -9 49 C-8.7 48.3 -8.3 47.7 -8 47 C-7 48.1 -5.9 49.3 -4.9 50.4 C3.8 59.1 15 64.7 25.8 70.3 C29 72 29 72 33 75 C31.4 70.8 29.7 66.5 28.1 62.3 C26.7 58.7 25.3 55.1 24 51.5 C23.6 50.6 23.6 50.6 21.9 46.2 C21.3 44.6 20.7 42.9 20.1 41.2 C16 32.9 8.9 30.3 0.7 26.8 C-9.9 22.3 -9.9 22.3 -11 20 C-1.4 22.6 7.2 26.6 16 31 C14.5 27.9 12.9 24.7 11.4 21.6 C10.5 19.8 9.7 18.1 8.8 16.3 C6.8 12.6 5 9.3 2.7 6 C0 2 0 2 0 0 Z " fill="#CEDABC" transform="translate(152,150)"/>
<path d="M0 0 C12.2 8.5 18.1 16.7 21.5 31.2 C23.7 39.8 27.1 43.5 34 49 C37.1 50.7 40.2 52.3 43.3 53.8 C56.9 60.8 64.6 68.6 72 82 C72.3 83.3 72.7 84.6 73 86 C71 84.7 69 83.4 67 82 C67 81.3 67 80.7 67 80 C66.3 79.7 66.3 79.7 63 78 C61.8 77.4 60.5 76.7 59.2 76.1 C57.8 75.4 56.4 74.7 54.9 73.9 C53.5 73.2 52.1 72.5 50.7 71.8 C47 70 47 70 44 69 C44.6 69.3 44.6 69.3 47.6 70.9 C62.4 78.9 73.6 85.2 79.2 101.7 C82 111.5 82.5 120.8 82 131 C75 124.2 71.2 117.7 67.1 108.9 C63.9 103 60.8 98.9 54.7 96.1 C54.2 95.8 54.2 95.8 51.5 94.6 C49 93.5 46.5 92.4 44 91.3 C31.1 86 23.4 80.8 17.5 67.8 C12.8 55.9 11.5 44.6 11.4 31.9 C11.3 20.8 8.2 14 2 5 C1.3 3.3 0.7 1.7 0 0 Z " fill="#50805A" transform="translate(111,186)"/>
<path d="M0 0 C3.2 5.3 3.6 7.1 3 13 C1 16 1 16 -1 18 C-4.6 17.5 -8.1 17 -11.7 16.2 C-12.2 16.2 -12.2 16.2 -15 16 C-24.6 25.6 -24.1 38.7 -24.1 51.5 C-24 55 -24 55 -23 58 C-21.1 58.4 -19.2 58.7 -17.3 59.1 C-11.7 60.5 -9.4 62.2 -6 67 C-4.4 67.7 -2.7 68.3 -1 69 C-1.7 69.5 -2.4 70 -3.1 70.5 C-6.7 73.6 -9.2 77.2 -12 81 C-12.4 80.8 -12.4 80.8 -14.4 80 C-20.3 78.4 -26 78.5 -32 80 C-35.7 80.2 -38.6 80.2 -42.1 78.9 C-46.1 78 -48.5 78.2 -52.5 78.8 C-57.9 79.4 -58.5 79.4 -63.1 75.8 C-64 74.5 -65 73.3 -66 72 C-67.3 71 -68.6 70 -70 69 C-69.5 68.8 -69.5 68.8 -67.2 67.8 C-64 66 -64 66 -62.3 63.5 C-59.2 60.1 -56.7 59.9 -52.2 59.2 C-51.6 59.1 -51.6 59.1 -48.1 58.5 C-47.1 58.3 -46.1 58.2 -45 58 C-45.1 56.4 -45.1 54.7 -45.2 53 C-45.1 35.6 -40.1 17 -28 4 C-18.7 -3.6 -11.1 -4.8 0 0 Z " fill="#5E8C64" transform="translate(393,225)"/>
<path d="M0 0 C1 1.6 2 3.3 3 5 C2.3 5 1.7 5 1 5 C-1 9 -1 9 -2 12 C-0.7 11 0.6 10 2 9 C6.3 6.6 7.9 6 13 6 C13 6.7 13 7.3 13 8 C13.7 8.3 14.3 8.7 15 9 C14 9.6 12.9 10.2 11.9 10.8 C-3.1 19.8 -11.7 29.2 -21 44 C-16 40.7 -12.7 37.6 -9.3 32.8 C-5.4 27.1 -5.4 27.1 -1 26 C1 26 3 26 5 26 C8.8 24.5 8.8 24.5 12.8 22.5 C19.8 19 19.8 19 22 19 C22.2 19.7 22.2 19.7 23 23 C24 23.7 25 24.3 26 25 C26 26.6 26 28.3 26 30 C24.2 30.7 22.5 31.4 20.7 32.1 C5.6 38.4 5.6 38.4 1 43 C1.8 43 2.7 42.9 3.6 42.9 C10.4 42.7 15.7 43 22 46 C20.8 51.9 19 54.5 15 59 C7.6 63.3 1.3 64.1 -7 62 C-10.3 62 -13.7 62 -17 62 C-17.3 62.8 -17.3 62.8 -19 67 C-21.3 71.7 -23.7 76.3 -26 81 C-28.2 85.3 -30.2 89.5 -32 94 C-33.3 93.7 -34.6 93.3 -36 93 C-36.7 90.7 -37.3 88.4 -38 86 C-36.4 86 -34.7 86 -33 86 C-33 87 -33 88 -33 89 C-32.3 87.7 -31.7 86.4 -31 85 C-31.7 85 -32.3 85 -33 85 C-34.1 81.1 -34.2 79.4 -32.5 75.6 C-32.1 75 -32.1 75 -30.2 72 C-26.1 65.1 -26.1 65.1 -24.5 61.8 C-23 59 -23 59 -19 55 C-17.7 55 -16.4 55 -15 55 C-15.3 53.7 -15.7 52.4 -16 51 C-13.4 48.4 -10.7 45.7 -8 43 C-9.3 43 -10.6 43 -12 43 C-12.7 44.3 -13.3 45.6 -14 47 C-15 48 -16 49 -17 50 C-18.6 50 -20.3 50 -22 50 C-22.2 49.5 -22.2 49.5 -23 47 C-23.5 47.2 -23.5 47.2 -26 48 C-26.7 46.7 -27.3 45.4 -28 44 C-27.7 43.5 -27.7 43.5 -26.2 40.8 C-24 36.7 -21.7 32.7 -19.5 28.7 C-18.5 26.9 -17.5 25.1 -16.5 23.2 C-15 20.5 -13.4 17.8 -11.9 15.1 C-11 13.4 -10.1 11.7 -9.2 10 C-7 6 -7 6 -6 3 C-6.7 2.3 -7.3 1.7 -8 1 C-2.2 0 -2.2 0 0 0 Z " fill="#77A073" transform="translate(493,372)"/>
<path d="M0 0 C5.4 3.8 8.1 7 9.6 13.5 C10.6 22.2 10.6 31.2 9.5 39.9 C8.9 45.1 8.9 50.2 8.9 55.5 C8.9 57.5 9 59.4 9 61.5 C9 63 9 64.5 9 66 C9.7 65 10.3 64 11 63 C11.1 63.9 11.1 63.9 11.7 68.6 C14.2 84.4 20.1 97.1 33 107 C37.8 109.6 41.5 110.5 47 110 C48 109.3 49 108.7 50 108 C50 106.7 50 105.4 50 104 C50.7 103.8 50.7 103.8 54 103 C56.3 98 57.9 93.4 59 88 C58.3 88 57.7 88 57 88 C57.3 86.4 57.7 84.7 58 83 C60 87 60 87 61 90 C62.8 86.3 62.7 81.9 63.1 77.9 C63.2 76 63.4 74.2 63.6 72.3 C63.7 70.9 63.9 69.5 64 68 C67 70 67 70 69 73 C68.6 75.8 68.6 75.8 67.7 79.1 C67.5 79.6 67.5 79.6 66.8 82.3 C66 85 66 85 65 87 C64.7 87.9 64.4 88.8 64 89.8 C61.5 96.8 58.9 101.4 54 107 C54 109 54 111 54 113 C55.5 112.7 55.5 112.7 63 111 C63.3 112.6 63.7 114.3 64 116 C63.3 116 62.7 116 62 116 C63 117 64 118 65 119 C64.8 119.5 64.8 119.5 64 122 C63.6 121.7 63.6 121.7 61.6 120.5 C56.8 118.5 53 119.1 47.8 119.5 C38 119.7 38 119.7 33.6 116.8 C31.1 114 29.1 111.2 27 108 C25.9 106.8 24.8 105.5 23.7 104.2 C21.5 101.7 19.2 99.1 17 96.6 C11.1 89.6 5 82.8 -1.2 76.1 C-6.7 69.8 -4.5 58.9 -4 51 C-3.3 44 -2.4 37 -1.4 30 C-0.1 19.9 0.5 10.2 0 0 Z " fill="#C0D0B7" transform="translate(185,309)"/>
<path d="M0 0 C0 3 0 3 -3.5 6.8 C-6.2 9.3 -8.9 11.8 -11.8 14.2 C-25.7 26.7 -35.2 41.1 -45 57 C-43.7 56.4 -42.5 55.8 -41.1 55.2 C-36 53 -31 51.5 -25.6 50.2 C-23.9 49.7 -22.1 49.3 -20.4 48.9 C-16 48 -16 48 -13 49 C-17.3 51.8 -22 52.8 -26.9 54.1 C-27.9 54.3 -28.9 54.6 -29.9 54.9 C-34.2 56 -38.6 57.1 -43 58 C-43 58.7 -43 59.3 -43 60 C-44.6 61 -46.3 62 -48 63 C-50.1 67 -50.1 67 -52 71.9 C-52.7 73.6 -53.4 75.3 -54.1 77 C-54.7 78.7 -55.3 80.3 -56 82 C-56.5 83.4 -57.1 84.7 -57.6 86.1 C-58.8 89.1 -59.9 92 -61 95 C-60 94.5 -59.1 94 -58.1 93.5 C-49.5 89 -41 85.5 -31.9 82.5 C-26.8 80.5 -22.6 77.9 -18 75 C-17 75 -16 75 -15 75 C-20.1 79.8 -24.7 82.5 -31.2 85.1 C-32.9 85.7 -34.5 86.4 -36.2 87.1 C-39.1 88.2 -41.9 89.3 -44.7 90.4 C-58.5 96 -58.5 96 -61 101 C-61.7 101 -62.3 101 -63 101 C-63.4 102.4 -63.8 103.8 -64.2 105.3 C-64.5 106.3 -64.7 107.3 -65 108.3 C-65.8 111.2 -66.5 114 -67.2 116.9 C-67.6 118.6 -68.1 120.3 -68.5 122.1 C-68.9 123.7 -69.3 125.3 -69.7 127 C-71 131 -71 131 -74 133 C-77.5 129 -79 127.1 -78.8 121.7 C-78.5 120.1 -78.3 118.6 -78 117 C-77.3 104.8 -80.4 93.3 -84.1 81.8 C-85.7 76.8 -86.1 72.2 -86 67 C-85.7 67 -85.3 67 -85 67 C-84.8 67.9 -84.6 68.8 -84.3 69.8 C-82 79.5 -79.2 89 -76.3 98.5 C-75.2 102.4 -74.4 106 -74 110 C-72.8 107.1 -71.6 104.2 -70.5 101.2 C-69.9 99.6 -69.2 98 -68.5 96.3 C-65.5 85.7 -67 77.3 -70.4 67.2 C-73.3 58.6 -75.2 51.1 -75.1 42.1 C-75.1 40.9 -75 39.8 -75 38.6 C-75 37.7 -75 36.9 -75 36 C-74.7 35.8 -74.7 35.8 -73 35 C-73 36.1 -73 37.2 -73 38.4 C-72.6 49.4 -70.7 58.6 -67 69 C-66.2 71.3 -65.5 73.7 -64.7 76 C-64.4 76.8 -64.4 76.8 -63 81 C-55.3 67.7 -52 58.1 -55 43 C-55.1 40.4 -55.1 37.8 -55.1 35.2 C-55.1 33.8 -55 32.5 -55 31.1 C-55 30.1 -55 29.1 -55 28 C-54.7 28 -54.3 28 -54 28 C-51.9 46.8 -51.9 46.8 -51 56 C-50.3 56 -49.7 56 -49 56 C-48.3 54.3 -47.7 52.7 -47 51 C-46.1 49.8 -45.3 48.7 -44.4 47.5 C-41.2 41.5 -41.6 36.8 -41.9 30.1 C-42.4 21.4 -42.1 15 -38 7 C-37 6.3 -36 5.7 -35 5 C-36.3 8.3 -37.7 11.7 -39 15 C-39.1 19 -39.2 22.9 -39.1 26.8 C-39.1 27.9 -39.1 29 -39.1 30.1 C-39.1 32.7 -39 35.4 -39 38 C-38.3 38 -37.7 38 -37 38 C-36.3 36.7 -35.7 35.4 -35 34 C-25.4 22.6 -14.2 12.8 -3 3 C-2 2 -1 1 0 0 Z " fill="#C7D5B8" transform="translate(337,139)"/>
<path d="M0 0 C-0.3 0.7 -0.7 1.3 -1 2 C-3.3 2.7 -5.6 3.4 -8 4 C-6 5 -4 6 -2 7 C-2 7.7 -2 8.3 -2 9 C-1 9.3 -0 9.7 1 10 C0.1 9.9 0.1 9.9 -4.2 9.2 C-6.1 9.2 -8 9.1 -10 9 C-19.6 18.6 -19.1 31.7 -19.1 44.5 C-19 48 -19 48 -18 51 C-16.1 51.4 -14.2 51.7 -12.3 52.1 C-6.7 53.5 -4.4 55.2 -1 60 C0.6 60.7 2.3 61.3 4 62 C3.3 62.5 2.6 63 1.9 63.5 C-1.7 66.6 -4.2 70.2 -7 74 C-7.4 73.8 -7.4 73.8 -9.4 73 C-15.3 71.4 -21 71.5 -27 73 C-30.7 73.2 -33.6 73.2 -37.1 71.9 C-41.1 71 -43.5 71.2 -47.5 71.8 C-52.9 72.4 -53.5 72.4 -58.1 68.8 C-59 67.5 -60 66.3 -61 65 C-62.3 64 -63.6 63 -65 62 C-64.5 61.8 -64.5 61.8 -62.2 60.8 C-59 59 -59 59 -57.3 56.5 C-54.2 53.1 -51.7 52.9 -47.2 52.2 C-46.6 52.1 -46.6 52.1 -43.1 51.5 C-42.1 51.3 -41.1 51.2 -40 51 C-41.6 55.2 -42.8 57.8 -46 61 C-46.7 61 -47.3 61 -48 61 C-43.9 66 -40.4 67.1 -34 68 C-28.5 68.5 -25 67.4 -20 65 C-20.8 63.3 -21.6 61.5 -22.4 59.8 C-27.7 48.4 -27.9 33.8 -24.8 21.8 C-19.6 8.2 -15.1 -0.2 0 0 Z " fill="#4E7F59" transform="translate(388,232)"/>
<path d="M0 0 C0.8 0.2 0.8 0.2 5 1 C4.9 1.6 4.9 1.6 4.4 4.4 C4.3 5.6 4.1 6.8 4 8 C4.2 8.2 4.2 8.2 5 9 C4.5 17.3 2.7 25.2 0.8 33.3 C0.6 33.9 0.6 33.9 -0.1 37.1 C-0.4 38.3 -0.7 39.5 -1 40.7 C-1.1 41.3 -1.1 41.3 -1.8 44 C-3.2 47.6 -5.2 49.4 -8 52 C-10 54.7 -12 57.3 -14 60 C-14.3 60 -14.7 60 -15 60 C-14.8 58.6 -14.7 57.1 -14.5 55.6 C-13.5 45.2 -13.3 34.4 -15 24 C-15.7 27 -16.3 29.9 -17 33 C-17.7 32.3 -18.3 31.7 -19 31 C-20 35.3 -21 39.6 -22 44 C-22.3 44 -22.7 44 -23 44 C-23.3 38.4 -23.7 32.8 -24 27 C-25 26.7 -26 26.3 -27 26 C-26.3 26 -25.7 26 -25 26 C-27.4 20.1 -30.1 15.1 -34 10 C-33 9.3 -32 8.7 -31 8 C-30.3 7 -29.7 6 -29 5 C-27 7.3 -25 9.6 -23 12 C-23 11 -23 10 -23 9 C-23 7.4 -23 5.7 -23 4 C-22 3.3 -21 2.7 -20 2 C-19 2.7 -18 3.3 -17 4 C-14 3.4 -11 2.7 -8 2 C-8 9.3 -8 16.5 -8 24 C-7.4 21.5 -6.8 19 -6.1 16.4 C-2.8 2.8 -2.8 2.8 0 0 Z " fill="#6C986B" transform="translate(468,349)"/>
<path d="M0 0 C2 1 2 1 5 6 C6.3 6.3 7.6 6.7 9 7 C9 7.7 9 8.3 9 9 C14 9 14 9 17 8 C18 8.3 19 8.7 20 9 C20 16.3 20 23.5 20 31 C17 28 17 28 14.1 24.5 C11 21 11 21 6 18 C5.6 26.9 6.3 31.8 10 40 C10.5 46.9 10.3 51.9 7 58 C6.4 59.1 5.9 60.3 5.3 61.4 C5.1 61.9 5.1 61.9 4 64 C-2.4 64.1 -8.6 63.7 -15 63 C-14.3 61.5 -13.5 60.1 -12.8 58.6 C-6.3 44 -4.8 27.9 -2.7 12.3 C-2.5 10.9 -2.3 9.4 -2.1 7.9 C-1.9 6.6 -1.7 5.3 -1.5 4 C-1 1 -1 1 0 0 Z " fill="#EBF1EB" transform="translate(424,367)"/>
<path d="M0 0 C10.2 20.3 8.6 39.1 5.4 60.7 C3.4 75.6 3.4 90.1 5 105 C1.5 101.5 -0.3 98 -2.6 93.6 C-3.4 92.1 -4.2 90.6 -5 89.1 C-12.7 73.1 -8.5 46.8 -4 30.3 C-2.6 24.4 -2 18.5 -1.4 12.5 C-1.2 11.3 -1.1 10.1 -1 8.9 C-0.6 5.9 -0.3 3 0 0 Z " fill="#BECFB6" transform="translate(235,245)"/>
<path d="M0 0 C-3.6 8.9 -9.6 13.6 -17.1 19.4 C-25.5 26.1 -31.8 33.1 -33.5 44.1 C-34.1 52.2 -33.5 59.1 -32 67 C-32 68.6 -32 70.3 -32 72 C-34.3 68.6 -35 65.7 -36.1 61.7 C-36.4 60.4 -36.7 59.1 -37.1 57.8 C-38.7 51 -39.1 44.9 -39.1 37.9 C-39.1 36.2 -39.1 34.4 -39.1 32.7 C-39 28 -39 28 -38 23 C-37.3 23 -36.7 23 -36 23 C-36 22.3 -36 21.7 -36 21 C-35.3 21 -34.7 21 -34 21 C-33.3 19.7 -32.7 18.4 -32 17 C-25.3 7.7 -11.6 0 0 0 Z " fill="#54835C" transform="translate(303,263)"/>
<path d="M0 0 C0.7 0.7 1.3 1.3 2 2 C1.6 5.1 1.6 5.1 1 8 C1.3 7.7 1.7 7.3 2 7 C2.3 7 2.7 7 3 7 C3 7.9 3 8.7 3.1 9.6 C3.8 38 3.8 38 5.6 50.2 C6.4 58.1 6.1 66.1 6 74 C5.7 74 5.3 74 5 74 C4.7 70.4 4.3 66.7 4 63 C3.3 64.3 2.7 65.6 2 67 C2.7 68 3.3 69 4 70 C3.5 70.3 3.5 70.3 1 72 C1.7 73.3 2.3 74.6 3 76 C3 77.3 3 78.6 3 80 C2 80 1 80 0 80 C-0.3 81.3 -0.7 82.6 -1 84 C-1.1 82.8 -1.2 81.6 -1.3 80.4 C-2.1 71.2 -3.3 62.2 -5.1 53.2 C-8.7 33.9 -8.2 18 0 0 Z " fill="#D0DCBD" transform="translate(249,293)"/>
<path d="M0 0 C-1.2 5.9 -3 8.5 -7 13 C-14.4 17.3 -20.7 18.1 -29 16 C-32.3 16 -35.7 16 -39 16 C-37 11 -37 11 -32.6 9.1 C-28 8 -28 8 -24 10 C-24 9.3 -24 8.7 -24 8 C-21 8.3 -18.1 8.7 -15 9 C-21 6.6 -26.7 5.9 -33 8 C-26.4 -5.1 -12.2 -5.7 0 0 Z " fill="#52825C" transform="translate(515,418)"/>
<path d="M0 0 C0.3 0 0.7 0 1 0 C1 1.3 1 2.5 1 3.8 C1.4 16.3 2.8 28.3 5.2 40.7 C7.9 55 9.2 69.5 7 84 C6 85 5 86 4 87 C4 86.5 4 86.5 4.1 83.9 C4.2 82.5 4.2 81 4.2 79.6 C4.3 78.2 4.3 76.8 4.4 75.4 C3.3 60.6 -1.9 47.7 -7.8 34.2 C-9.2 31.1 -10.6 27.9 -12 24.8 C-12.6 23.4 -13.2 22 -13.8 20.6 C-15 17 -15 17 -14 12 C-13.7 12 -13.3 12 -13 12 C-12.8 12.8 -12.5 13.6 -12.3 14.5 C-10.8 18.6 -8.9 22.4 -6.9 26.4 C-6.2 27.8 -5.4 29.2 -4.7 30.7 C-4.1 31.8 -3.6 32.9 -3 34 C-2.7 34 -2.3 34 -2 34 C-2.1 33.4 -2.1 33.4 -2.5 30.2 C-3 24.7 -3.1 19.4 -3.1 13.9 C-3.1 12.1 -3 10.2 -3 8.3 C-3 6.9 -3 5.5 -3 4 C-2.3 3.7 -1.7 3.3 -1 3 C-0.7 2 -0.3 1 0 0 Z " fill="#97B081" transform="translate(241,313)"/>
<path d="M0 0 C8.2 -0.7 13.6 1.2 20.9 4.7 C24 6 24 6 28 6 C28.3 6.7 28.7 7.3 29 8 C28.7 8.7 28.3 9.3 28 10 C29.3 10.7 30.6 11.3 32 12 C35.7 14.3 35.7 14.3 39 17 C39.2 17.8 39.2 17.8 40 22 C26.2 23.1 14.7 17 3.9 9 C0.8 5.8 0.1 4.4 0 0 Z " fill="#759E70" transform="translate(417,449)"/>
<path d="M0 0 C1.3 0.7 2.6 1.3 4 2 C4.3 3.7 4.7 5.3 5 7 C5.7 7 6.3 7 7 7 C7 6.3 7 5.7 7 5 C7.7 5 8.3 5 9 5 C9.8 10 10.4 15 11 20 C11.1 21.1 11.3 22.3 11.4 23.4 C12 32.8 8.4 38.6 3 46 C2.3 46 1.7 46 1 46 C-4.5 19.1 -4.5 19.1 -1 10 C-0.3 10 0.3 10 1 10 C1.7 8.7 2.3 7.4 3 6 C2.3 6 1.7 6 1 6 C0.7 4 0.3 2 0 0 Z " fill="#6C976B" transform="translate(285,149)"/>
<path d="M0 0 C5.9 2.4 8.2 4.9 12 10 C13.7 14.9 13.1 16.8 11.2 21.7 C10.5 23.1 9.7 24.5 9 26 C8.3 27.3 7.7 28.6 7 30 C6.3 30 5.7 30 5 30 C4.8 28.9 4.5 27.7 4.2 26.6 C3 22 3 22 0.9 17.6 C-1.7 11.3 -1.6 6.5 0 0 Z " fill="#57865F" transform="translate(430,385)"/>
<path d="M0 0 C0.3 0 0.7 0 1 0 C1.7 3.3 2.3 6.6 3 10 C5 9 5 9 7 6 C7.3 19.8 7 33.2 5.1 46.9 C3.4 60.2 2.9 73.6 3 87 C2.7 87 2.3 87 2 87 C0.8 81.4 0.9 75.9 0.9 70.1 C0.9 68.2 0.9 66.3 0.9 64.4 C1 59.8 1.4 55.5 2 51 C2.1 47.9 2.2 44.7 2.2 41.6 C2.2 40 2.2 38.4 2.2 36.8 C2 32 2 32 1 27.7 C-0.2 22 -0.2 16.6 -0.1 10.9 C-0.1 9.9 -0.1 8.8 -0.1 7.7 C-0.1 5.2 -0 2.6 0 0 Z " fill="#93AE7F" transform="translate(192,294)"/>
<path d="M0 0 C6.6 6.6 7.8 23 8.2 31.9 C8.1 32.9 8.1 34 8 35 C8.7 35 9.3 35 10 35 C10.7 33.3 11.3 31.7 12 30 C13.5 27.5 15 25.1 16.6 22.7 C17 22.1 17 22.1 19.1 18.9 C19.7 17.9 20.4 17 21 16 C21.3 17 21.7 18 22 19 C20.5 21.9 20.5 21.9 18.2 25.3 C10.6 37.2 10.6 37.2 10.8 45.2 C10.8 45.9 10.8 45.9 10.8 49.2 C11 53.8 11.4 58.4 12 63 C8 60 8 60 7.2 56.8 C7.1 55.5 7 54.1 6.9 52.8 C6.8 52 6.8 52 6.4 48.1 C6.1 44.5 5.8 41 5.6 37.4 C4.8 26.7 3.5 16.6 0.8 6.2 C0 3 0 3 0 0 Z " fill="#B6C8A9" transform="translate(209,115)"/>
<path d="M0 0 C-0.4 0.2 -0.4 0.2 -2.7 1.5 C-19.7 10.9 -29.6 20.5 -35.8 39.3 C-37.2 45.9 -37.7 52.3 -38 59 C-38.3 59 -38.7 59 -39 59 C-40.3 40.2 -40.3 40.2 -39 31 C-38.3 30.7 -37.7 30.3 -37 30 C-36.3 28.7 -35.6 27.4 -34.9 26.1 C-29.6 16.8 -12.1 -4 0 0 Z " fill="#C5D4B9" transform="translate(302,246)"/>
</svg>
