<?xml version="1.0" encoding="UTF-8"?>
<svg xmlns="http://www.w3.org/2000/svg" width="600" height="600" viewBox="0 0 600 600" role="img" aria-label="Book">
  <rect width="600" height="600" fill="#EEF3EE"/>
  <rect y="470" width="600" height="130" fill="#D5E4D7"/>
  <ellipse cx="300" cy="480" rx="160" ry="28" fill="#D5E4D7"/>
  <path d="M140 180 L300 200 L300 450 L140 420 Z" fill="#F5E8D0"/>
  <path d="M460 180 L300 200 L300 450 L460 420 Z" fill="#F5E8D0"/>
  <path d="M140 180 L300 200 L460 180 L460 160 L300 180 L140 160 Z" fill="#B9412E"/>
  <rect x="292" y="195" width="16" height="255" fill="#D46A57"/>
  <rect x="170" y="250" width="90" height="10" rx="4" fill="#9AA3A8"/>
  <rect x="170" y="280" width="70" height="10" rx="4" fill="#9AA3A8"/>
  <rect x="170" y="310" width="80" height="10" rx="4" fill="#9AA3A8"/>
  <rect x="340" y="250" width="90" height="10" rx="4" fill="#9AA3A8"/>
  <rect x="340" y="280" width="70" height="10" rx="4" fill="#9AA3A8"/>
  <rect x="340" y="310" width="80" height="10" rx="4" fill="#9AA3A8"/>
</svg>
