<?xml version="1.0" encoding="UTF-8"?>
<!-- Generator: visioncortex VTracer 0.6.12 -->
<svg version="1.1" xmlns="http://www.w3.org/2000/svg" width="600" height="600" viewBox="0 0 600 600" role="img" aria-label="Book">
<path d="M0 0 C198 0 396 0 600 0 C600 198 600 396 600 600 C402 600 204 600 0 600 C0 402 0 204 0 0 Z " fill="#EDF2ED" transform="translate(0,0)"/>
<path d="M0 0 C3.9 3.6 7.4 7.4 10.7 11.5 C13.8 8.8 17 6.1 20 3.3 C20.8 2.5 21.7 1.8 22.5 1 C23.2 0.3 24 -0.4 24.8 -1.2 C61.1 -30.4 122.7 -29.3 166.7 -28.5 C168 -24.5 169.4 -20.5 170.7 -16.5 C172.6 -15.6 174.6 -14.7 176.6 -13.9 C179.9 -12.3 179.9 -12.3 182.7 -10.5 C183.9 -5.9 183.9 -5.9 184.7 -1.5 C188.6 1.3 188.6 1.3 192.7 3.5 C193.7 5.2 194.7 6.8 195.7 8.5 C198.7 10.5 198.7 10.5 204.1 10.3 C209.7 10.5 209.7 10.5 211.9 12.3 C214.6 17.1 215.3 22.2 216.2 27.7 C216.4 28.9 216.6 30.1 216.8 31.4 C217.5 35.6 218.2 39.7 218.9 43.9 C219.5 46.8 220 49.7 220.5 52.7 C221.8 60.6 223.2 68.5 224.5 76.3 C225.9 84.5 227.3 92.6 228.7 100.8 C230.4 110.6 232.1 120.4 233.8 130.3 C237 148.8 240.2 167.3 243.5 185.8 C244.2 189.3 244.8 192.8 245.4 196.3 C245.8 198.5 246.2 200.8 246.6 203 C246.8 204.1 247 205.1 247.2 206.2 C248.1 211.4 249.1 216.6 250 221.8 C251 227.5 252 233.2 253 238.8 C253.3 240.5 253.6 242.1 254 243.8 C254.2 245.3 254.5 246.8 254.8 248.3 C255 249.6 255.2 250.9 255.5 252.2 C255.7 255.5 255.7 255.5 253.7 260.5 C249 263.2 245.1 263.9 239.8 263.7 C238.4 263.7 237.1 263.7 235.7 263.7 C234.2 263.6 232.7 263.6 231.2 263.6 C229.6 263.5 228.1 263.5 226.5 263.5 C221.3 263.4 216.2 263.3 211 263.1 C207.4 263.1 203.8 263 200.3 262.9 C190.9 262.7 181.4 262.5 172 262.3 C162.4 262.1 152.8 261.9 143.2 261.7 C124.4 261.3 105.5 260.9 86.7 260.5 C86.4 262.5 86 264.5 85.7 266.5 C81.7 264.5 81.7 264.5 77.7 260.5 C72.3 259.9 72.3 259.9 66.7 260.5 C63.1 263.5 63.1 263.5 60.7 266.5 C60 266.5 59.4 266.5 58.7 266.5 C58.7 264.2 58.7 261.9 58.7 259.5 C44.7 259.5 44.7 259.5 40.7 263.3 C40 264.4 39.4 265.4 38.7 266.5 C25.8 275.2 8.1 274.5 -6.7 272.3 C-12 271.1 -15.7 269.4 -20.3 266.5 C-20.9 265.5 -21.5 264.4 -22.1 263.4 C-27.5 258.6 -33.8 259.9 -40.7 260.1 C-42.2 260.1 -43.8 260.1 -45.4 260.2 C-48.7 260.2 -52 260.3 -55.3 260.4 C-60.1 260.5 -64.9 260.6 -69.7 260.6 C-77.9 260.8 -86 260.9 -94.2 261.1 C-99.5 261.2 -104.9 261.3 -110.2 261.4 C-125.3 261.7 -140.5 262 -155.6 262.3 C-165 262.5 -174.3 262.7 -183.7 262.8 C-187.2 262.9 -190.7 263 -194.3 263.1 C-199.2 263.2 -204.1 263.2 -209 263.3 C-210.5 263.4 -211.9 263.4 -213.4 263.4 C-214.1 263.4 -214.1 263.4 -217.5 263.5 C-218.6 263.5 -219.8 263.6 -221 263.6 C-227 263.4 -230.4 263.2 -235.3 259.5 C-236.3 254.4 -236 251.7 -235.2 246.7 C-234.9 245.1 -234.6 243.5 -234.3 241.8 C-234 240.1 -233.7 238.3 -233.3 236.5 C-233 234.6 -232.7 232.8 -232.3 230.9 C-231.4 225.7 -230.5 220.6 -229.6 215.5 C-228.6 210.1 -227.7 204.8 -226.7 199.4 C-224.9 189.1 -223 178.9 -221.2 168.7 C-218.9 156 -216.7 143.4 -214.4 130.8 C-213.6 126.3 -212.8 121.8 -212 117.4 C-211.8 116.3 -211.6 115.2 -211.4 114.1 C-210.3 107.7 -209.2 101.3 -208 95 C-207.5 92 -206.9 88.9 -206.4 85.9 C-205.7 82.1 -205 78.2 -204.3 74.3 C-202.6 64.8 -200.9 55.4 -199.3 45.9 C-199 44.1 -198.7 42.2 -198.4 40.3 C-197.8 36.8 -197.2 33.3 -196.6 29.9 C-196.4 28.3 -196.1 26.8 -195.8 25.2 C-195.6 23.8 -195.4 22.5 -195.2 21.1 C-194.3 17.5 -193.2 14.7 -191.3 11.5 C-188.1 9.9 -184.9 10.4 -181.3 10.5 C-180.3 10.8 -179.3 11.2 -178.3 11.5 C-178.3 10.8 -178.3 10.2 -178.3 9.5 C-176.7 7.8 -175 6.1 -173.3 4.5 C-172.9 4 -172.9 4 -170.7 1.8 C-168.3 -0.5 -168.3 -0.5 -165.3 -1.5 C-165.2 -2.9 -165.1 -4.2 -165.1 -5.6 C-163.3 -10.5 -163.3 -10.5 -160.6 -12 C-159.5 -12.5 -158.5 -12.9 -157.4 -13.4 C-151.7 -15.8 -151.7 -15.8 -149.9 -19.3 C-149.1 -22.3 -149.1 -22.3 -148.3 -27.5 C-129.9 -45.9 -18.4 -16.1 0 0 Z " fill="#FAE9CB" transform="translate(290.3125,164.5)"/>
<path d="M0 0 C1.3 4 2.7 8 4 12 C5.9 12.9 7.9 13.8 9.9 14.6 C13.3 16.2 13.3 16.2 16 18 C17.2 22.6 17.2 22.6 18 27 C21.9 29.8 21.9 29.8 26 32 C27 33.7 28 35.3 29 37 C32 39 32 39 37.4 38.8 C43 39 43 39 45.2 40.8 C47.9 45.6 48.6 50.7 49.5 56.2 C49.7 57.4 49.9 58.6 50.1 59.9 C50.9 64.1 51.6 68.2 52.3 72.4 C52.8 75.3 53.3 78.2 53.8 81.2 C55.2 89.1 56.5 97 57.9 104.8 C59.2 113 60.6 121.1 62.1 129.3 C63.7 139.1 65.4 148.9 67.1 158.8 C70.3 177.3 73.5 195.8 76.9 214.3 C77.5 217.8 78.1 221.3 78.7 224.8 C79.1 227 79.5 229.3 79.9 231.5 C80.1 232.6 80.3 233.6 80.5 234.7 C81.4 239.9 82.4 245.1 83.3 250.3 C84.3 256 85.3 261.7 86.4 267.3 C86.7 269 87 270.6 87.3 272.3 C87.5 273.8 87.8 275.3 88.1 276.8 C88.3 278.1 88.5 279.4 88.8 280.7 C89 284 89 284 87 289 C82.3 291.7 78.5 292.4 73.1 292.2 C71.7 292.2 70.4 292.2 69 292.2 C67.5 292.1 66 292.1 64.5 292.1 C63 292 61.4 292 59.8 292 C54.6 291.9 49.5 291.8 44.3 291.6 C40.7 291.6 37.2 291.5 33.6 291.4 C24.2 291.2 14.8 291 5.3 290.8 C-4.3 290.6 -13.9 290.4 -23.5 290.2 C-42.3 289.8 -61.2 289.4 -80 289 C-80.3 291 -80.7 293 -81 295 C-85 293 -85 293 -89 289 C-94.4 288.4 -94.4 288.4 -100 289 C-103.6 292 -103.6 292 -106 295 C-106.7 295 -107.3 295 -108 295 C-108 292.7 -108 290.4 -108 288 C-122 288 -122 288 -126 291.8 C-126.7 292.9 -127.3 293.9 -128 295 C-140.8 303.7 -158.6 303 -173.4 300.8 C-178.7 299.6 -182.4 297.9 -187 295 C-187.6 294 -188.2 292.9 -188.8 291.9 C-194.2 287.1 -200.5 288.4 -207.4 288.6 C-208.9 288.6 -210.5 288.6 -212.1 288.7 C-215.4 288.7 -218.7 288.8 -222 288.9 C-226.8 289 -231.6 289.1 -236.4 289.1 C-244.6 289.3 -252.7 289.4 -260.9 289.6 C-266.2 289.7 -271.5 289.8 -276.9 289.9 C-292 290.2 -307.2 290.5 -322.3 290.8 C-331.7 291 -341 291.2 -350.3 291.3 C-353.9 291.4 -357.4 291.5 -361 291.6 C-365.9 291.7 -370.8 291.7 -375.7 291.8 C-377.2 291.9 -378.6 291.9 -380.1 291.9 C-380.8 291.9 -380.8 291.9 -384.2 292 C-385.3 292 -386.5 292.1 -387.7 292.1 C-393.7 291.9 -397.1 291.7 -402 288 C-403 282.9 -402.7 280.2 -401.8 275.2 C-401.6 273.6 -401.3 272 -401 270.3 C-400.7 268.6 -400.3 266.8 -400 265 C-399.7 263.1 -399.4 261.3 -399 259.4 C-398.1 254.2 -397.2 249.1 -396.3 244 C-395.3 238.6 -394.3 233.3 -393.4 227.9 C-391.6 217.6 -389.7 207.4 -387.9 197.2 C-385.6 184.5 -383.4 171.9 -381.1 159.3 C-380.3 154.8 -379.5 150.3 -378.7 145.9 C-378.5 144.8 -378.3 143.7 -378.1 142.6 C-377 136.2 -375.8 129.8 -374.7 123.5 C-374.2 120.5 -373.6 117.4 -373.1 114.4 C-372.4 110.6 -371.7 106.7 -371 102.8 C-369.3 93.3 -367.6 83.9 -366 74.4 C-365.7 72.6 -365.4 70.7 -365.1 68.8 C-364.5 65.3 -363.9 61.8 -363.3 58.4 C-363.1 56.8 -362.8 55.3 -362.5 53.7 C-362.3 52.3 -362.1 51 -361.9 49.6 C-361 46 -359.9 43.2 -358 40 C-354.8 38.4 -351.6 38.9 -348 39 C-347.7 39.2 -347.7 39.2 -346 40 C-347.3 50.9 -348.9 61.7 -350.9 72.5 C-351.1 74.1 -351.4 75.7 -351.7 77.3 C-352.6 82.5 -353.5 87.6 -354.5 92.8 C-355.1 96.4 -355.8 100 -356.4 103.7 C-358.1 113.3 -359.9 122.8 -361.6 132.4 C-363 140.1 -364.3 147.8 -365.7 155.5 C-377.1 219.1 -377.1 219.1 -380.7 239 C-380.9 240.1 -381.1 241.1 -381.3 242.3 C-382.2 246.9 -383.1 251.6 -383.9 256.3 C-384.2 257.8 -384.5 259.3 -384.8 260.9 C-385 262.2 -385.3 263.4 -385.5 264.8 C-386 268 -386 268 -386 273 C-385.4 272.9 -385.4 272.9 -382.5 272.6 C-337.2 267.1 -337.2 267.1 -317 266 C-316.3 266 -316.3 266 -312.6 265.7 C-298.9 265 -285.2 264.8 -271.4 264.8 C-267.8 264.8 -264.1 264.8 -260.4 264.8 C-240.4 264.7 -220.6 265.6 -200.8 268.9 C-198.9 269.3 -196.9 269.6 -195 269.9 C-188 271.4 -184.1 273.1 -180 279 C-179.7 279.7 -179.3 280.3 -179 281 C-175.1 280.2 -171.9 279.3 -168.2 277.9 C-159 274.9 -152.1 275.8 -143 279 C-142 279.7 -141 280.3 -140 281 C-138.7 281 -137.4 281 -136 281 C-135.4 280.1 -134.8 279.1 -134.2 278.2 C-130.9 273.4 -127.7 271.7 -122.2 270.4 C-121.2 270.1 -120.2 269.9 -119.2 269.6 C-115.8 269 -112.4 268.5 -109 268 C-108.3 254.1 -109.3 241 -111.3 227.2 C-116.6 190.3 -118.3 153.1 -119.5 115.8 C-119.5 114.4 -119.6 113.1 -119.6 111.7 C-119.8 105.2 -120 98.6 -120.2 92 C-120.6 79.6 -121.1 67.1 -122 54.7 C-122 53.5 -122.1 52.4 -122.2 51.2 C-122.8 43 -124 35 -126 27 C-126.4 25.6 -126.7 24.1 -127.1 22.6 C-127.2 22 -127.2 22 -128 19 C-86 3.1 -44.6 -0.8 0 0 Z " fill="#FAE9CB" transform="translate(457,136)"/>
<path d="M0 0 C198 0 396 0 600 0 C600 33 600 66 600 100 C402 100 204 100 0 100 C0 67 0 34 0 0 Z " fill="#D5E4D7" transform="translate(0,500)"/>
<path d="M0 0 C4.6 11.8 6.3 23 7 35.6 C7.1 36.9 7.2 38.2 7.3 39.6 C8.1 53.3 8.7 67.1 9.3 80.8 C11.3 130.2 14.6 179 22.1 227.9 C23.3 236.4 24.3 244.5 24 253 C25 252.7 26 252.3 27 252 C30.9 251.9 34.8 251.8 38.8 251.8 C39.3 251.8 39.3 251.8 42.4 251.8 C46.2 251.8 50.1 251.8 54 251.8 C55.3 251.8 56.6 251.8 58 251.8 C93.8 251.9 129.5 253.6 165 258.6 C169.3 259 173.6 259 178 259 C169.1 208.4 160.2 157.7 151.1 107.1 C149.5 98.2 147.9 89.2 146.3 80.2 C143.2 62.8 140.1 45.4 137 28 C141 25.4 143.3 25.5 148 26 C153.2 30.3 153.4 36.9 154.5 43.2 C154.7 44.4 154.9 45.6 155.1 46.9 C155.9 51.1 156.6 55.2 157.3 59.4 C157.8 62.3 158.3 65.2 158.8 68.2 C160.2 76.1 161.5 84 162.9 91.8 C164.2 100 165.6 108.1 167.1 116.3 C168.7 126.1 170.4 135.9 172.1 145.8 C175.3 164.3 178.5 182.8 181.9 201.3 C182.5 204.8 183.1 208.3 183.7 211.8 C184.1 214 184.5 216.3 184.9 218.5 C185.1 219.6 185.3 220.6 185.5 221.7 C186.4 226.9 187.4 232.1 188.3 237.3 C189.3 243 190.3 248.7 191.4 254.3 C191.7 256 192 257.6 192.3 259.3 C192.5 260.8 192.8 262.3 193.1 263.8 C193.3 265.1 193.5 266.4 193.8 267.7 C194 271 194 271 192 276 C187.3 278.7 183.5 279.4 178.1 279.2 C176.7 279.2 175.4 279.2 174 279.2 C172.5 279.1 171 279.1 169.5 279.1 C168 279 166.4 279 164.8 279 C159.6 278.9 154.5 278.8 149.3 278.6 C145.7 278.6 142.2 278.5 138.6 278.4 C129.2 278.2 119.8 278 110.3 277.8 C100.7 277.6 91.1 277.4 81.5 277.2 C62.7 276.8 43.8 276.4 25 276 C24.7 278 24.3 280 24 282 C20 280 20 280 16 276 C10.6 275.4 10.6 275.4 5 276 C1.4 279 1.4 279 -1 282 C-1.7 282 -2.3 282 -3 282 C-3 279.7 -3 277.4 -3 275 C-17 275 -17 275 -21 278.8 C-21.7 279.9 -22.3 280.9 -23 282 C-35.8 290.7 -53.6 290 -68.4 287.8 C-73.7 286.6 -77.4 284.9 -82 282 C-82.6 281 -83.2 279.9 -83.8 278.9 C-89.2 274.1 -95.5 275.4 -102.4 275.6 C-103.9 275.6 -105.5 275.6 -107.1 275.7 C-110.4 275.7 -113.7 275.8 -117 275.9 C-121.8 276 -126.6 276.1 -131.4 276.1 C-139.6 276.3 -147.7 276.4 -155.9 276.6 C-161.2 276.7 -166.5 276.8 -171.9 276.9 C-187 277.2 -202.2 277.5 -217.3 277.8 C-226.7 278 -236 278.2 -245.3 278.3 C-248.9 278.4 -252.4 278.5 -256 278.6 C-260.9 278.7 -265.8 278.7 -270.7 278.8 C-272.2 278.9 -273.6 278.9 -275.1 278.9 C-275.8 278.9 -275.8 278.9 -279.2 279 C-280.3 279 -281.5 279.1 -282.7 279.1 C-288.7 278.9 -292.1 278.7 -297 275 C-298 269.9 -297.7 267.2 -296.8 262.2 C-296.6 260.6 -296.3 259 -296 257.3 C-295.7 255.6 -295.3 253.8 -295 252 C-294.7 250.1 -294.4 248.3 -294 246.4 C-293.1 241.2 -292.2 236.1 -291.3 231 C-290.3 225.6 -289.3 220.3 -288.4 214.9 C-286.6 204.6 -284.7 194.4 -282.9 184.2 C-280.6 171.5 -278.4 158.9 -276.1 146.3 C-275.3 141.8 -274.5 137.3 -273.7 132.9 C-273.5 131.8 -273.3 130.7 -273.1 129.6 C-272 123.2 -270.8 116.8 -269.7 110.5 C-269.2 107.5 -268.6 104.4 -268.1 101.4 C-267.4 97.6 -266.7 93.7 -266 89.8 C-264.3 80.3 -262.6 70.9 -261 61.4 C-260.7 59.6 -260.4 57.7 -260.1 55.8 C-259.5 52.3 -258.9 48.8 -258.3 45.4 C-258.1 43.8 -257.8 42.3 -257.5 40.7 C-257.3 39.3 -257.1 38 -256.9 36.6 C-256 33 -254.9 30.2 -253 27 C-249.8 25.4 -246.6 25.9 -243 26 C-242.3 26.3 -241.7 26.7 -241 27 C-242.3 37.9 -243.9 48.7 -245.9 59.5 C-246.1 61.1 -246.4 62.7 -246.7 64.3 C-247.6 69.5 -248.5 74.6 -249.5 79.8 C-250.1 83.4 -250.8 87 -251.4 90.7 C-253.1 100.3 -254.9 109.8 -256.6 119.4 C-258 127.1 -259.3 134.8 -260.7 142.5 C-272.1 206.1 -272.1 206.1 -275.7 226 C-275.9 227.1 -276.1 228.1 -276.3 229.3 C-277.2 233.9 -278.1 238.6 -278.9 243.3 C-279.2 244.8 -279.5 246.3 -279.8 247.9 C-280 249.2 -280.3 250.4 -280.5 251.8 C-281 255 -281 255 -281 260 C-280.4 259.9 -280.4 259.9 -277.5 259.6 C-232.2 254.1 -232.2 254.1 -212 253 C-211.3 253 -211.3 253 -207.6 252.7 C-193.9 252 -180.2 251.8 -166.4 251.8 C-162.8 251.8 -159.1 251.8 -155.4 251.8 C-135.4 251.7 -115.6 252.6 -95.8 255.9 C-93.9 256.3 -91.9 256.6 -90 256.9 C-83 258.4 -79.1 260.1 -75 266 C-74.7 266.7 -74.3 267.3 -74 268 C-70.1 267.2 -66.9 266.3 -63.2 264.9 C-54 261.9 -47.1 262.8 -38 266 C-37 266.7 -36 267.3 -35 268 C-33.7 268 -32.4 268 -31 268 C-30.4 267.1 -29.8 266.1 -29.2 265.2 C-25.9 260.4 -22.7 258.7 -17.2 257.4 C-16.2 257.1 -15.2 256.9 -14.2 256.6 C-10.8 256 -7.4 255.5 -4 255 C-3.3 241.1 -4.3 228 -6.3 214.2 C-11.6 177.3 -13.3 140.1 -14.5 102.8 C-14.5 101.4 -14.6 100.1 -14.6 98.7 C-14.8 92.2 -15 85.6 -15.2 79 C-15.6 66.6 -16.1 54.1 -17 41.7 C-17 40.5 -17.1 39.4 -17.2 38.2 C-17.8 30 -19 22 -21 14 C-21.4 12.6 -21.7 11.1 -22.1 9.6 C-22.2 9 -22.2 9 -23 6 C-20.3 5 -17.6 4 -14.9 3 C-13.4 2.4 -11.9 1.9 -10.3 1.3 C-6 0 -6 0 0 0 Z " fill="#7A434A" transform="translate(352,149)"/>
<path d="M0 0 C3.2 -0.1 6.4 -0.1 9.5 -0.2 C11 -0.2 12.4 -0.3 13.8 -0.4 C23.3 -0.5 23.3 -0.5 27.9 3.7 C28.3 4.3 28.3 4.3 30.2 7.3 C44.1 15.6 63.8 14.5 79 10.9 C87.4 7.7 87.4 7.7 90.1 3.1 C94.7 -1.1 99 -0.1 105.1 0.1 C106.1 0.2 107.1 0.2 108.2 0.3 C108.2 2.6 108.2 4.9 108.2 7.3 C109.3 6.1 110.4 5 111.5 3.8 C116.2 0.3 116.2 0.3 121.7 -0.6 C128.2 0.5 130.7 2.6 135.2 7.3 C135.2 5 135.2 2.7 135.2 0.3 C148.6 0.5 161.9 0.8 175.3 1 C181.5 1.1 187.7 1.3 193.9 1.4 C199.9 1.5 205.9 1.6 211.9 1.7 C214.2 1.7 216.5 1.8 218.7 1.8 C238.3 2.2 257.6 2.9 277 5.2 C278.5 5.3 279.9 5.5 281.5 5.7 C305 8.4 305 8.4 313.2 13.3 C311.2 17.3 311.2 17.3 308.2 18.5 C299.8 20.6 291.5 22.3 282.9 23.3 C281.6 23.5 280.3 23.6 279 23.8 C246.3 27.6 213.4 29.5 180.6 31 C179.3 31.1 177.9 31.1 176.6 31.2 C137.2 33 97.9 33.5 58.5 33.5 C57.4 33.5 56.3 33.5 55.2 33.5 C18.5 33.5 -18.1 33.1 -54.8 31.3 C-55.9 31.3 -57.1 31.2 -58.2 31.1 C-171.9 25.7 -171.9 25.7 -190.8 16.3 C-190.8 15 -190.8 13.7 -190.8 12.3 C-154.1 -2.3 -108 2.1 -69.1 1.4 C-64.6 1.3 -60.1 1.2 -55.5 1.1 C-43.6 0.9 -31.7 0.6 -19.7 0.5 C-13.1 0.4 -6.6 0.2 0 0 Z " fill="#C3D2BA" transform="translate(240.8046875,423.69580078125)"/>
<path d="M0 0 C-3.9 24.3 -7.9 48.6 -12.1 72.8 C-12.7 76.1 -13.2 79.4 -13.8 82.7 C-15.2 91.2 -16.7 99.8 -18.2 108.3 C-19.7 116.9 -21.1 125.6 -22.6 134.2 C-27.4 162.2 -32.2 190.1 -37 218 C-36.5 218 -36.5 218 -34.3 217.8 C-22.2 216.8 -10.1 216.8 2.1 216.8 C3.2 216.7 4.3 216.7 5.4 216.7 C54.2 216.8 115.2 222.2 153 257 C154.7 259 156.4 261 158 263 C155.6 263.8 153.2 264.6 150.8 265.4 C150.1 265.7 150.1 265.7 146.8 266.8 C143 268 143 268 138 269 C137.6 268.4 137.6 268.4 135.6 265.2 C125.7 253.6 102.4 254.8 88.3 253.7 C75.6 252.7 62.9 252.7 50.1 252.8 C48.9 252.8 47.6 252.8 46.4 252.8 C7.3 252.9 -31.2 256.4 -70 261 C-69.3 251.9 -67.9 243.1 -66.3 234.1 C-66 232.6 -65.7 231 -65.4 229.4 C-64.5 224.3 -63.6 219.1 -62.7 214 C-62 210.3 -61.4 206.7 -60.7 203.1 C-59 193.5 -57.3 183.9 -55.5 174.3 C-53.5 162.9 -51.4 151.5 -49.4 140 C-47.7 130.8 -46.1 121.6 -44.4 112.4 C-41.6 96.7 -38.8 81.1 -36.1 65.4 C-35.9 64.2 -35.7 63 -35.4 61.7 C-34.5 56.2 -33.5 50.7 -32.6 45.3 C-32.3 43.4 -31.9 41.6 -31.6 39.7 C-31.4 38.1 -31.1 36.6 -30.8 35 C-29.4 28.2 -28.1 24.7 -23 20 C-22.1 19.1 -21.3 18.2 -20.4 17.2 C-18 15 -18 15 -15 14 C-14.9 12.6 -14.7 11.2 -14.6 9.8 C-13 5 -13 5 -8.6 1.9 C-4 0 -4 0 0 0 Z " fill="#EAD3AC" transform="translate(140,149)"/>
<path d="M0 0 C5.2 0.5 8.9 1.8 13 5 C13.3 6.5 13.6 7.9 13.9 9.4 C15 14 15 14 18.9 16.8 C20.3 17.5 21.6 18.2 23 19 C24 20.7 25 22.3 26 24 C27.3 25.3 28.6 26.6 30 28 C31 31.8 31.8 35.5 32.4 39.4 C32.6 40.6 32.8 41.8 33 43 C33.7 46.9 34.4 50.9 35.1 54.8 C35.6 57.6 36.1 60.4 36.5 63.1 C37.9 70.6 39.2 78.1 40.4 85.5 C41.8 93.3 43.1 101 44.5 108.7 C46.1 117.9 47.7 127.2 49.4 136.5 C52.6 154.8 55.8 173.2 59.1 191.5 C59.3 192.5 59.5 193.6 59.7 194.7 C61.3 203.5 62.9 212.3 64.5 221.1 C65.4 226.2 66.3 231.4 67.2 236.5 C67.4 237.2 67.4 237.2 68.1 241 C69.2 247.3 70.3 253.6 71 260 C61.9 260.3 53.1 259.2 44.1 258.1 C28.7 256.4 13.4 254.9 -2 254 C-2.7 254 -2.7 254 -6.3 253.7 C-22.5 252.8 -38.6 252.9 -54.8 252.9 C-57.7 252.9 -60.5 252.9 -63.3 253 C-70.2 253 -77.1 253 -84 253 C-84.3 249.8 -84.7 246.6 -85 243.4 C-85.2 241.7 -85.4 239.9 -85.6 238.1 C-85.9 234 -86.1 230.1 -86 226 C-60.5 215.8 -28.5 216.7 -1.5 216.8 C-0.4 216.8 0.6 216.8 1.7 216.8 C11.1 216.8 20.5 216.9 29.9 217.5 C31.2 217.6 32.5 217.7 33.9 217.8 C34.9 217.9 36 217.9 37 218 C32.6 192.5 28.2 167 23.9 141.4 C21.8 129.6 19.8 117.7 17.8 105.9 C16 95.5 14.2 85.2 12.4 74.9 C11.5 69.4 10.6 63.9 9.6 58.5 C8.6 52.3 7.5 46.2 6.5 40.1 C6.2 38.3 5.8 36.5 5.5 34.7 C5.2 33 5 31.3 4.7 29.6 C4.5 28.8 4.5 28.8 3.8 24.7 C2.8 18.6 1.6 12.4 0.5 6.3 C0 3 0 3 0 0 Z " fill="#F5E5C7" transform="translate(460,149)"/>
<path d="M0 0 C0.7 0.3 1.3 0.7 2 1 C1 5 1 5 -0.4 8.5 C-2.3 14 -3.3 19.5 -4.3 25.2 C-4.7 27.7 -5.1 30.2 -5.6 32.8 C-5.8 34.1 -6 35.4 -6.3 36.8 C-7.5 44.1 -8.9 51.3 -10.2 58.6 C-10.8 61.7 -11.4 64.8 -12 67.9 C-12.1 68.7 -12.1 68.7 -12.8 72.7 C-18.1 101 -23.2 129.2 -28.3 157.4 C-29.8 166.1 -31.4 174.7 -33 183.4 C-33.5 186.2 -34 189 -34.5 191.8 C-35.2 196 -36 200.1 -36.7 204.3 C-37.4 208.1 -38.1 211.9 -38.8 215.7 C-39 216.9 -39.2 218 -39.4 219.2 C-40.4 224.4 -41.3 229.7 -42 235 C-37.8 235.8 -34.1 236.1 -29.9 235.9 C-28.7 235.8 -27.5 235.7 -26.2 235.7 C-24.9 235.6 -23.7 235.5 -22.3 235.5 C-21 235.4 -19.6 235.3 -18.2 235.3 C-13.9 235.1 -9.6 234.8 -5.2 234.6 C24.8 233.1 54.8 231.8 84.9 231.8 C86.2 231.8 87.6 231.8 89 231.8 C148.6 231.8 148.6 231.8 162 236 C165.3 239.9 165.3 239.9 168 244 C174.7 250.7 181.6 251 190.6 251.3 C197.8 251.2 204.6 250.6 211 247 C213.2 244.3 214.8 241.6 216.2 238.5 C218.7 235 220.8 234.7 225 234 C227.6 233.9 230.3 233.8 232.9 233.9 C234.3 233.9 235.6 233.9 237 233.9 C238 234 239 234 240 234 C239.7 236.3 239.3 238.6 239 241 C238 241.1 236.9 241.1 235.8 241.2 C234.5 241.3 233.1 241.4 231.7 241.4 C230.3 241.5 229 241.6 227.6 241.7 C224 242 224 242 221 243 C220.1 244.4 219.2 245.8 218.2 247.3 C213.7 253.8 210.4 255.4 202.8 257.2 C190.7 258.8 176.3 259.5 166 252 C163.3 249.1 161.8 246.6 160 243 C147 236.5 117.9 242.3 103.5 242.6 C100.1 242.7 96.8 242.8 93.4 242.8 C86.4 243 79.4 243.1 72.4 243.2 C63.5 243.4 54.6 243.6 45.7 243.7 C38.8 243.9 31.8 244 24.9 244.1 C21.6 244.2 18.4 244.3 15.1 244.3 C-8.3 244.8 -31.6 245.4 -55 246 C-51 221.4 -46.7 196.8 -42.3 172.2 C-41.7 168.7 -41.1 165.2 -40.4 161.7 C-38.8 152.6 -37.2 143.4 -35.6 134.3 C-32.9 119.7 -30.3 105.1 -27.7 90.5 C-26.9 85.5 -26 80.5 -25.1 75.5 C-24.8 73.9 -24.5 72.3 -24.2 70.7 C-23.6 67.5 -23.1 64.4 -22.5 61.3 C-21 52.8 -19.6 44.4 -18.1 35.9 C-17.8 34.1 -17.5 32.3 -17.2 30.4 C-16.6 26.9 -16 23.3 -15.4 19.8 C-15.1 18.2 -14.9 16.6 -14.6 15 C-14.4 13.6 -14.1 12.2 -13.9 10.7 C-13 7.1 -11.9 4.2 -10 1 C-6.8 -0.6 -3.6 -0.1 0 0 Z " fill="#717A86" transform="translate(109,175)"/>
<path d="M0 0 C5.2 4.4 5.5 10.9 6.5 17.3 C6.7 18.5 6.9 19.8 7.2 21 C7.9 25.2 8.6 29.4 9.3 33.6 C9.8 36.5 10.3 39.5 10.8 42.4 C12.2 50.4 13.6 58.3 14.9 66.2 C16.3 74.4 17.7 82.5 19.1 90.7 C20.8 100.5 22.5 110.3 24.2 120.1 C27.5 139.3 30.8 158.4 34.2 177.5 C34.6 179.7 35 181.9 35.4 184 C36.8 192 38.2 199.9 39.6 207.8 C40.5 213.1 41.5 218.3 42.4 223.5 C42.6 225 42.9 226.5 43.2 228.1 C43.4 229.5 43.7 230.8 43.9 232.2 C44 232.8 44 232.8 44.6 235.8 C45 239 45 239 45 245 C17.7 245.2 -9.5 244.7 -36.8 244.1 C-41.3 244 -45.8 244 -50.3 243.9 C-74.2 243.4 -98.1 242.9 -122 242 C-123 238 -122.8 235.9 -122 232 C-76.6 231.6 -31.4 232.1 14 235 C15.5 235.1 17 235.2 18.6 235.3 C23.2 235.6 27.5 235.9 32 237 C32.2 229.8 31.6 223.3 30.2 216.3 C30.1 215.3 29.9 214.2 29.7 213.2 C29.1 209.8 28.4 206.4 27.8 203 C27.4 200.7 26.9 198.3 26.5 195.9 C25.5 190.8 24.6 185.7 23.7 180.6 C22.2 172.7 20.7 164.8 19.3 156.9 C19 155.6 18.8 154.3 18.5 153 C18.1 150.3 17.6 147.7 17.1 145.1 C16.4 141.2 15.7 137.3 14.9 133.4 C11.4 114.4 8 95.5 4.7 76.4 C0.7 53.6 -3.6 30.8 -8 8 C-8.7 8 -9.3 8 -10 8 C-10.2 6.8 -10.2 6.8 -11 1 C-7.1 -0.3 -4.1 -0.4 0 0 Z " fill="#717A86" transform="translate(500,175)"/>
<path d="M0 0 C-1.2 9.8 -2.8 19.5 -4.3 29.2 C-4.4 29.7 -4.4 29.7 -4.9 32.5 C-9.7 62.5 -14.8 92.4 -19.9 122.4 C-21.9 134.3 -23.9 146.2 -25.9 158.2 C-26.7 162.4 -27.4 166.7 -28.1 171 C-31.4 190.6 -34.7 210.3 -38 230 C-36.8 229.8 -35.7 229.6 -34.5 229.4 C-13 226 8.2 224.7 29.8 224.7 C33.3 224.8 36.8 224.7 40.3 224.7 C72.2 224.7 106.1 228.5 135 243 C134.7 243.7 134.3 244.3 134 245 C132.5 244.6 131 244.2 129.4 243.8 C128.4 243.5 127.4 243.2 126.4 242.9 C124.2 242.3 122 241.7 119.8 241.1 C66.8 225.9 5.4 229.1 -48 240 C-42.8 208.8 -37.5 177.6 -32.2 146.5 C-31 139 -29.7 131.6 -28.4 124.2 C-20 74.7 -20 74.7 -16.3 53.6 C-16.1 52.4 -15.9 51.2 -15.7 49.9 C-14.7 44.3 -13.8 38.7 -12.8 33.1 C-12.4 31.2 -12.1 29.2 -11.8 27.2 C-11.4 25.5 -11.1 23.7 -10.8 21.8 C-10.1 17.6 -9.5 13.5 -9 9.3 C-8 4 -8 4 -4.4 1.2 C-1 0 -1 0 0 0 Z " fill="#F5E5C7" transform="translate(135,150)"/>
<path d="M0 0 C0.3 0 0.7 0 1 0 C0.4 9 -0.6 17.8 -2.1 26.6 C-2.4 27.9 -2.6 29.2 -2.8 30.6 C-3.5 34.9 -4.2 39.2 -5 43.4 C-5.5 46.5 -6 49.6 -6.5 52.6 C-7.8 60.7 -9.2 68.7 -10.6 76.8 C-11.9 84.7 -13.2 92.7 -14.6 100.6 C-15.6 106.9 -16.7 113.2 -17.7 119.5 C-18 121.1 -18.2 122.6 -18.5 124.2 C-19.3 128.9 -20.1 133.6 -20.9 138.3 C-21.1 139.8 -21.4 141.4 -21.6 143 C-23.2 152.4 -24.8 161.9 -26.4 171.4 C-27.5 177.5 -28.5 183.7 -29.6 189.8 C-30 192.7 -30.5 195.6 -31 198.5 C-31.7 202.5 -32.4 206.5 -33 210.4 C-33.2 211.6 -33.4 212.8 -33.6 214 C-34.6 219.7 -35.2 225.2 -35 231 C-33.3 230.7 -31.5 230.3 -29.7 230 C-11.9 226.8 5.9 224.5 24 223 C25.1 222.9 26.2 222.8 27.3 222.7 C38.9 221.8 50.5 221.8 62.2 221.8 C65.8 221.8 69.3 221.7 72.9 221.7 C93.1 221.6 113.1 223.1 132.9 227.6 C134.8 228 136.7 228.4 138.6 228.8 C143 230 143 230 146 232 C141.7 233.4 138.6 232.2 134.2 231.2 C110.3 226.5 86.2 225.5 61.9 225.6 C60.6 225.6 59.2 225.6 57.9 225.6 C36.8 225.7 15.9 226.4 -5 229 C-6.2 229.2 -7.5 229.3 -8.8 229.5 C-39.7 233.5 -39.7 233.5 -48 239 C-47.4 230.3 -46.3 221.9 -44.7 213.4 C-44.5 212.1 -44.2 210.8 -44 209.4 C-43.2 205.1 -42.4 200.8 -41.6 196.5 C-41.1 193.4 -40.5 190.4 -40 187.3 C-38.5 179.2 -37 171 -35.6 162.9 C-33.3 150.2 -31 137.4 -28.7 124.7 C-27.8 119.9 -27 115.2 -26.1 110.5 C-23.2 94.4 -20.4 78.4 -17.5 62.3 C-17.4 61.5 -17.4 61.5 -16.7 57.5 C-15.4 49.9 -14.1 42.4 -12.7 34.8 C-12.3 32.2 -11.8 29.5 -11.3 26.8 C-11.2 26.2 -11.2 26.2 -10.7 23.1 C-8.2 8.7 -8.2 8.7 -2 3 C-1.3 2 -0.7 1 0 0 Z " fill="#F5E5C7" transform="translate(119,166)"/>
<path d="M0 0 C1.6 0.3 3.3 0.7 5 1 C10.2 30.2 15.1 59.4 20 88.7 C20.6 92.2 21.2 95.6 21.8 99.1 C23.6 109.7 25.4 120.4 27.1 131 C29 141.8 30.8 152.6 32.6 163.5 C34 171.7 35.4 180 36.8 188.3 C37.3 191.7 37.9 195 38.5 198.4 C39.2 203 40 207.6 40.8 212.2 C41 213.6 41.2 214.9 41.5 216.3 C41.7 217.5 41.9 218.7 42.1 220 C42.3 221 42.4 222.1 42.6 223.2 C43 226 43 226 43 231 C36.9 230.5 30.8 230 24.8 229.2 C6.9 227.1 -10.9 226.7 -28.9 226.6 C-30.1 226.6 -31.2 226.6 -32.4 226.6 C-47.2 226.5 -61.5 227.4 -76.1 229.4 C-81 230 -81 230 -85 230 C-85.3 231 -85.7 232 -86 233 C-86 230.7 -86 228.4 -86 226 C-60.5 215.8 -28.5 216.7 -1.5 216.8 C-0.4 216.8 0.6 216.8 1.7 216.8 C11.1 216.8 20.5 216.9 29.9 217.5 C31.2 217.6 32.5 217.7 33.9 217.8 C34.9 217.9 36 217.9 37 218 C32.6 192.5 28.2 167 23.9 141.4 C21.8 129.6 19.8 117.7 17.8 105.9 C16 95.5 14.2 85.2 12.4 74.9 C11.5 69.4 10.6 63.9 9.6 58.5 C8.6 52.3 7.5 46.2 6.5 40.1 C6.2 38.3 5.8 36.5 5.5 34.7 C5.2 33 5 31.3 4.7 29.6 C4.5 28.8 4.5 28.8 3.8 24.7 C2.8 18.6 1.6 12.4 0.5 6.3 C0 3 0 3 0 0 Z " fill="#EBD3AC" transform="translate(460,149)"/>
<path d="M0 0 C5 1 5 1 6 2 C6.7 6.2 7.4 10.3 8.1 14.5 C8.6 17.4 9 20.3 9.5 23.2 C9.7 24.8 10 26.4 10.3 28 C11.7 36.9 13.1 45.8 14.6 54.7 C14.7 55.7 14.9 56.7 15 57.7 C18.4 78.2 21.8 98.6 25.2 119.1 C25.4 120.7 25.7 122.3 26 124 C28.7 140.4 31.5 156.9 34.2 173.3 C35.3 179.6 36.3 185.8 37.4 192.1 C38.1 196.4 38.8 200.8 39.6 205.2 C40 207.8 40.4 210.5 40.9 213.1 C41.1 214.3 41.3 215.5 41.5 216.8 C42.5 222.5 43.3 228.2 44 234 C42.3 233.7 40.6 233.4 38.8 233.1 C-4.9 225.9 -47.8 224.6 -92 225 C-92.2 225.3 -92.2 225.3 -93 227 C-95 227 -97 227 -99 227 C-99 224.7 -99 222.4 -99 220 C-58.8 214.4 -18.1 216.7 22 222 C27.3 222.7 32.7 223.3 38 224 C36.5 215.4 35 206.7 33.6 198.1 C33.3 196.7 33.1 195.4 32.8 194 C29.5 174.6 26.2 155.3 22.8 136 C22.7 135 22.5 133.9 22.3 132.9 C21.6 128.7 20.8 124.5 20.1 120.2 C9.3 58 9.3 58 4.6 30.4 C4.2 27.9 3.7 25.3 3.3 22.8 C2.7 19.5 2.2 16.1 1.6 12.8 C1.3 10.9 1 9.1 0.6 7.2 C0 3 0 3 0 0 Z " fill="#EBD3AC" transform="translate(474,164)"/>
<path d="M0 0 C3.2 3.2 2.3 6.5 2.3 10.9 C2.3 12.8 2.3 14.7 2.3 16.7 C2.3 18.9 2.3 21 2.3 23.2 C2.3 25.4 2.3 27.6 2.3 29.9 C2.4 36 2.4 42.1 2.4 48.2 C2.4 54.6 2.4 61 2.5 67.4 C2.5 79.5 2.6 91.6 2.6 103.7 C2.6 117.5 2.7 131.2 2.7 145 C2.8 173.3 2.9 201.7 3 230 C3.8 229.3 4.6 228.7 5.4 228 C6.5 227.1 7.5 226.2 8.6 225.3 C9.7 224.4 10.7 223.5 11.8 222.6 C20.2 215.8 37.2 203 48 203 C48 206.8 48 210.6 48.1 214.4 C48.1 215.5 48.1 216.6 48.1 217.7 C48.1 220.5 48.1 223.2 48 226 C45.3 228.7 38.7 228.5 35.1 229.1 C27.4 230.8 24.2 233.4 20 240 C15 239 15 239 11.8 237.6 C7.6 235.8 3.4 234.9 -1 234 C-1 203.8 -1 173.6 -1.1 143.4 C-1.1 129.3 -1.1 115.3 -1.1 101.3 C-1.1 89 -1.1 76.8 -1.1 64.6 C-1.1 58.1 -1.1 51.7 -1.1 45.2 C-1.1 39.1 -1.1 33 -1.1 26.9 C-1.1 24.7 -1.1 22.4 -1.1 20.2 C-1.1 17.1 -1.1 14.1 -1.1 11 C-1.1 9.3 -1.1 7.6 -1.1 5.9 C-1 2 -1 2 0 0 Z " fill="#EBD4AE" transform="translate(301,178)"/>
<path d="M0 0 C1.1 0 2.2 0 3.4 0 C99.1 0.1 99.1 0.1 116.1 14.2 C116.5 15.5 116.8 16.8 117.1 18.2 C108 18.5 99.2 17.4 90.2 16.3 C74.9 14.5 59.5 13.1 44.1 12.2 C43.4 12.1 43.4 12.1 39.8 11.9 C23.6 11 7.5 11.1 -8.7 11.1 C-11.5 11.1 -14.4 11.1 -17.2 11.1 C-24.1 11.1 -31 11.2 -37.9 11.2 C-37.9 8.2 -37.9 5.2 -37.9 2.2 C-31.8 -3.8 -8.7 -0 0 0 Z " fill="#EAD2AC" transform="translate(413.875,390.8125)"/>
</svg>
