<?xml version="1.0" encoding="UTF-8"?>
<svg xmlns="http://www.w3.org/2000/svg" width="600" height="600" viewBox="0 0 600 600" role="img" aria-label="Car">
  <rect width="600" height="600" fill="#EEF3EE"/>
  <rect y="470" width="600" height="130" fill="#D5E4D7"/>
  <path d="M90 380 L120 300 Q150 250 220 240 L380 240 Q450 250 480 300 L520 380 Z" fill="#B9412E"/>
  <rect x="90" y="370" width="430" height="70" rx="20" fill="#B9412E"/>
  <path d="M200 250 L240 300 L200 300 Z" fill="#7EB4D4"/>
  <rect x="250" y="250" width="100" height="50" rx="8" fill="#7EB4D4"/>
  <path d="M370 250 L410 300 L370 300 Z" fill="#7EB4D4"/>
  <circle cx="170" cy="440" r="42" fill="#3A3F45"/>
  <circle cx="170" cy="440" r="22" fill="#C5CCD0"/>
  <circle cx="430" cy="440" r="42" fill="#3A3F45"/>
  <circle cx="430" cy="440" r="22" fill="#C5CCD0"/>
  <rect x="500" y="390" width="22" height="14" rx="4" fill="#F0C070"/>
  <circle cx="105" cy="395" r="8" fill="#D46A57"/>
</svg>
