<?xml version="1.0" encoding="UTF-8"?>
<!-- Generator: visioncortex VTracer 0.6.12 -->
<svg version="1.1" xmlns="http://www.w3.org/2000/svg" width="600" height="600" viewBox="0 0 600 600" role="img" aria-label="Car">
<path d="M0 0 C198 0 396 0 600 0 C600 198 600 396 600 600 C402 600 204 600 0 600 C0 402 0 204 0 0 Z " fill="#EDF2ED" transform="translate(0,0)"/>
<path d="M0 0 C1.2 0 2.4 0 3.6 0 C60.6 0.1 106.3 7.6 151.7 44.9 C160.6 52.1 169.8 56.4 180.5 60.3 C185.4 62.2 188.8 63.5 191.4 68.2 C192.1 71.5 192.1 71.5 192.4 74.2 C190.7 74.4 190.7 74.4 182.4 75.2 C183.5 79.5 185 81.7 187.6 85.3 C188.4 86.4 189.2 87.4 190 88.5 C192.4 91.2 192.4 91.2 197.4 93.2 C197.5 93.7 197.5 93.7 197.9 96.6 C198.1 97.3 198.1 97.3 198.7 101.1 C198.8 101.9 198.8 101.9 199.4 105.6 C200.4 110.2 200.4 110.2 202 114.6 C205.8 127.2 203.2 143.6 197.9 155.6 C192.9 160.8 186.3 163.6 179.4 165.7 C175.4 168.2 175.4 168.2 174.4 171.1 C174 173.5 173.5 175.9 173.2 178.3 C171.2 187.9 166.6 196.6 158.4 202.2 C151.8 205.5 146.2 205.3 139 205 C137.4 204.9 135.8 204.9 134.1 204.8 C127.5 203.9 123 201.8 118.2 197.1 C115.7 193.7 114.7 191.3 113.3 187.4 C112.1 184.7 112.1 184.7 110.4 182.2 C99.4 178.4 89.3 179.3 77.9 180.4 C76.1 180.5 74.2 180.7 72.3 180.8 C68.5 181.2 64.6 181.5 60.8 181.8 C54.9 182.4 49 182.9 43 183.4 C39.3 183.7 35.5 184 31.8 184.4 C30 184.5 28.2 184.7 26.4 184.8 C24.8 185 23.1 185.1 21.4 185.3 C20 185.4 18.6 185.5 17.1 185.7 C12 186.4 8.9 187.8 5 191.1 C-1.7 196.8 -7.3 197.6 -16 197.6 C-17.8 197.6 -19.6 197.7 -21.4 197.7 C-27.6 197.1 -33.1 195.7 -37.6 191.2 C-40.6 190.8 -43.6 190.4 -46.6 190.2 C-47 191.6 -47.4 193.1 -47.8 194.6 C-51.3 205.2 -56.9 213.9 -66.8 219.6 C-73 222.2 -78.6 222.3 -85.4 222.4 C-87.1 222.4 -88.8 222.4 -90.5 222.4 C-100.6 222 -109.6 219.6 -116.7 212 C-119.7 208.2 -122.2 204.3 -124.6 200.2 C-125.3 200.8 -125.9 201.5 -126.6 202.2 C-135.9 202.9 -145.4 202.1 -154.6 201.2 C-155 200.9 -155.3 200.5 -155.6 200.2 C-159.3 200 -163 199.8 -166.6 199.7 C-167.8 199.6 -168.9 199.6 -170.1 199.6 C-173.7 199.4 -177.4 199.3 -181 199.2 C-185.7 199 -190.5 198.9 -195.2 198.7 C-196.4 198.6 -197.5 198.6 -198.7 198.6 C-208.3 198.2 -218 197.7 -227.6 197.2 C-228.3 198.5 -228.9 199.8 -229.6 201.2 C-238.3 209.8 -245.6 212.4 -257.7 212.6 C-269.5 212.5 -278.4 210.8 -287.4 202.7 C-293.6 195.7 -293.6 195.7 -293.6 193.2 C-297.3 192.9 -300.9 192.5 -304.6 192.2 C-305.3 190.9 -305.9 189.5 -306.6 188.2 C-308 188.1 -309.4 188 -310.8 187.9 C-315.6 187.2 -317.4 186.7 -320.6 183.2 C-322.9 177.5 -322.4 177.5 -320.6 172.2 C-320.9 168.5 -320.9 168.5 -321.5 164.4 C-323.2 152.3 -322.9 141.8 -318.6 130.2 C-316 126.7 -316 126.7 -313.6 124.2 C-311.3 124.5 -309 124.8 -306.6 125.2 C-299.8 116.8 -299.8 116.8 -298.6 111.2 C-300.6 106.9 -300.6 106.9 -302.6 103.2 C-298.5 98.7 -293.8 95.4 -288.6 92.2 C-287.5 91.5 -286.3 90.8 -285.2 90.1 C-262.6 76.7 -237.1 71.7 -211.8 66 C-208.6 65.2 -208.6 65.2 -203.6 63.2 C-203.2 62.1 -202.8 61 -202.4 59.8 C-199.9 54.7 -196.9 54.1 -191.6 52.2 C-186.2 50.1 -182.1 47.5 -177.5 43.9 C-124 3.1 -65.3 -0.1 0 0 Z " fill="#D72F27" transform="translate(361.625,187.8125)"/>
<path d="M0 0 C198 0 396 0 600 0 C600 33 600 66 600 100 C402 100 204 100 0 100 C0 67 0 34 0 0 Z " fill="#D5E4D7" transform="translate(0,500)"/>
<path d="M0 0 C0.9 0.7 1.8 1.4 2.7 2 C5 4 5 4 7 7 C7.3 12 7.3 12 7 17 C3.5 20.5 2.5 20.5 -2.3 20.8 C-3 20.9 -3 20.9 -6.3 21.2 C-7.8 21.3 -9.2 21.4 -10.7 21.5 C-12.2 21.6 -13.7 21.7 -15.3 21.8 C-18.5 22.1 -21.8 22.4 -25 22.6 C-33.2 23.2 -41.3 24 -49.4 24.6 C-52.8 24.9 -56.2 25.2 -59.5 25.5 C-87.2 27.8 -115 30.2 -142.7 32.9 C-143.8 33 -144.8 33.1 -145.9 33.2 C-163.8 34.9 -163.8 34.9 -171 36 C-170.5 37.2 -170.1 38.5 -169.6 39.7 C-167.8 45.5 -167 51.1 -166.4 57.1 C-166.3 58.2 -166.1 59.4 -166 60.6 C-164.6 75 -164.2 89.5 -163.9 104.1 C-163.8 108.2 -163.7 112.4 -163.5 116.5 C-163.5 119.1 -163.4 121.6 -163.3 124.2 C-163.1 132.8 -163.1 132.8 -162 135 C-152.9 135.2 -144 134.5 -135 133.7 C-134.2 133.6 -134.2 133.6 -130.4 133.3 C-125.6 132.9 -120.7 132.4 -115.9 132 C-109.6 131.4 -103.2 130.9 -96.9 130.3 C-95.5 130.2 -94 130.1 -92.5 129.9 C-85.3 129.3 -78.2 128.9 -71 129 C-70.9 117.8 -70.9 106.5 -70.9 95.3 C-70.9 91.5 -70.9 87.6 -70.8 83.8 C-70.8 78.3 -70.8 72.8 -70.8 67.3 C-70.8 65.6 -70.8 63.9 -70.8 62.2 C-70.8 52 -71.5 42.1 -73 32 C-66 39 -67.9 53.5 -67.9 62.7 C-67.9 63.4 -67.9 63.4 -67.9 67.1 C-67.9 67.8 -67.9 67.8 -67.9 71.7 C-67.9 74.9 -67.9 78.1 -67.9 81.3 C-67.9 86.2 -67.9 91.2 -67.9 96.1 C-67.9 99.2 -67.9 102.3 -67.9 105.5 C-67.9 106.9 -67.9 108.4 -67.9 109.9 C-67.9 111.3 -67.9 112.6 -67.9 114.1 C-67.9 114.7 -67.9 114.7 -67.9 117.7 C-68 120.9 -68.4 123.9 -69 127 C-60.4 127.2 -52.1 126.6 -43.6 125.7 C-43 125.6 -43 125.6 -39.9 125.3 C-38.7 125.2 -37.5 125.1 -36.2 124.9 C-35.1 124.8 -34.1 124.7 -33 124.6 C-27.5 123.5 -25.1 121.2 -22.1 116.7 C-18.6 110.5 -15.9 104.1 -13.2 97.6 C-8.4 86.2 -3.4 75.1 2 64 C3 67 3 67 3 70 C4.2 68.9 5.4 67.8 6.7 66.6 C13.1 61.2 17.7 60.4 26 61 C33.4 63.6 37.2 68 42 74 C42 74.7 42 75.3 42 76 C41.3 76.3 41.3 76.3 38 78 C39 81 40 84 41 87 C41.4 88 41.7 89 42.1 90 C42.2 90.5 42.2 90.5 43.1 93 C46.4 103.9 46 116.1 43 127 C42.3 127.3 41.7 127.7 41 128 C40.5 130 40.2 132.1 39.8 134.2 C37.6 145.1 33.5 155.5 24 162 C17.5 165.3 11.9 165.1 4.6 164.8 C3 164.8 1.4 164.7 -0.3 164.6 C-6.9 163.7 -11.4 161.6 -16.2 156.9 C-18.7 153.5 -19.7 151.2 -21.1 147.2 C-22.3 144.6 -22.3 144.6 -24 142 C-35 138.2 -45 139.1 -56.5 140.2 C-58.3 140.3 -60.1 140.5 -62 140.6 C-65.9 141 -69.7 141.3 -73.6 141.7 C-79.5 142.2 -85.4 142.7 -91.3 143.2 C-95.1 143.5 -98.8 143.8 -102.6 144.2 C-104.4 144.3 -106.1 144.5 -108 144.6 C-109.6 144.8 -111.2 144.9 -112.9 145.1 C-114.4 145.2 -115.8 145.3 -117.3 145.5 C-122.4 146.2 -125.5 147.6 -129.4 150.9 C-136.1 156.6 -141.7 157.4 -150.4 157.4 C-152.2 157.5 -153.9 157.5 -155.8 157.5 C-161.9 156.9 -167.5 155.5 -172 151 C-175 150.6 -178 150.3 -181 150 C-181.4 151.4 -181.7 152.9 -182.1 154.4 C-185.7 165.1 -191.2 173.7 -201.1 179.4 C-207.4 182 -213 182.2 -219.8 182.2 C-221.5 182.2 -223.2 182.2 -224.9 182.2 C-235 181.8 -243.9 179.4 -251.1 171.8 C-254.1 168 -256.5 164.1 -259 160 C-259.7 160.7 -260.3 161.3 -261 162 C-270.3 162.7 -279.8 161.9 -289 161 C-289.3 160.7 -289.7 160.3 -290 160 C-293.7 159.8 -297.3 159.6 -301 159.5 C-302.2 159.5 -303.3 159.4 -304.4 159.4 C-308.1 159.2 -311.7 159.1 -315.4 159 C-320.1 158.8 -324.8 158.7 -329.6 158.5 C-330.7 158.5 -331.9 158.4 -333.1 158.4 C-342.7 158 -352.4 157.6 -362 157 C-362.7 158.3 -363.3 159.6 -364 161 C-372.6 169.6 -380 172.2 -392.1 172.4 C-403.9 172.3 -412.8 170.6 -421.8 162.5 C-428 155.6 -428 155.6 -428 153 C-431.6 152.7 -435.3 152.3 -439 152 C-439.7 150.7 -440.3 149.4 -441 148 C-442 147.7 -443 147.3 -444 147 C-434.5 146.9 -425.1 147.3 -415.6 147.8 C-413.9 147.9 -412.3 148 -410.6 148.1 C-407 148.2 -403.5 148.4 -400 148.6 C-394.7 148.9 -389.4 149.1 -384 149.4 C-346.2 151.3 -346.2 151.3 -330 153.6 C-322.8 154.2 -315.6 154.1 -308.4 154.1 C-306.8 154.1 -305.2 154.1 -303.6 154.1 C-298.5 154.1 -293.5 154.1 -288.4 154.1 C-285 154.1 -281.6 154.1 -278.2 154 C-269.8 154 -261.4 154 -253 154 C-250.8 148.5 -250.2 143.5 -249.6 137.7 C-247.7 121.2 -243.9 107.7 -236 93 C-235 91 -234 89 -233 87 C-234.6 85.7 -236.3 84.4 -238 83 C-233.7 74.5 -225.6 69.5 -217 66 C-207.1 63.5 -199.7 63.8 -190.4 68.2 C-185.9 71 -182.6 74.1 -179 78 C-178.4 76.7 -177.9 75.5 -177.3 74.2 C-175 70 -175 70 -170 67 C-169.3 67 -168.7 67 -168 67 C-168.3 63.9 -168.5 60.7 -168.8 57.6 C-168.9 56.7 -168.9 56.7 -169.3 52.3 C-170 47.2 -171.3 42.8 -173 38 C-173.8 29.6 -172.4 24.1 -168 17 C-167.3 15.9 -166.6 14.8 -165.9 13.6 C-153.1 -6.3 -139.1 -25.5 -115 -31 C-72.9 -36.9 -32.8 -27 0 0 Z " fill="#C3271F" transform="translate(496,228)"/>
<path d="M0 0 C0.3 1.3 0.7 2.6 1 4 C0.4 4.7 -0.3 5.4 -0.9 6.1 C-1.3 6.5 -1.3 6.5 -3.4 8.8 C-3.8 9.3 -3.8 9.3 -5.8 11.5 C-8 14 -8 14 -10 17 C-8.8 17.4 -7.6 17.7 -6.3 18.1 C10 24 10 24 14 30 C13.5 30.8 13 31.7 12.4 32.6 C2.1 49.9 -1.6 67.1 -3.5 87.1 C-4.5 94.5 -4.5 94.5 -7 97 C-9.2 97.1 -11.3 97.1 -13.5 97.1 C-14.9 97.2 -16.2 97.2 -17.7 97.2 C-18.4 97.2 -18.4 97.2 -22.3 97.2 C-23.1 97.2 -23.1 97.2 -27 97.2 C-30.3 97.2 -33.6 97.2 -37 97.2 C-42 97.2 -47 97.2 -52 97.2 C-55.3 97.2 -58.5 97.2 -61.7 97.2 C-62.5 97.2 -62.5 97.2 -66.2 97.3 C-74.7 97.2 -82.9 96.6 -91.3 95.5 C-96.6 94.8 -101.9 94.5 -107.2 94.3 C-108.3 94.2 -109.4 94.1 -110.5 94.1 C-112.9 94 -115.3 93.9 -117.6 93.7 C-121.3 93.6 -125 93.4 -128.7 93.2 C-140.3 92.6 -151.9 92 -163.4 91.5 C-168.2 91.2 -173 91 -177.8 90.7 C-180.1 90.6 -182.4 90.5 -184.7 90.4 C-187.8 90.3 -191 90.1 -194.1 89.9 C-195.9 89.9 -197.7 89.8 -199.6 89.7 C-204.1 89 -206 88.4 -209 85 C-211.3 79.3 -210.8 79.3 -209 74 C-209.2 70.3 -209.2 70.3 -209.9 66.2 C-211.5 54.2 -211.2 43.6 -207 32 C-204.4 28.5 -204.4 28.5 -202 26 C-199.7 26.3 -197.4 26.7 -195 27 C-188.1 18.6 -188.1 18.6 -187 13 C-188.9 8.7 -188.9 8.7 -191 5 C-190.3 4.7 -189.7 4.3 -189 4 C-188.4 5.3 -187.8 6.6 -187.2 7.9 C-185 12 -185 12 -182 14 C-179 14.2 -176 14.4 -173.1 14.4 C-172.1 14.4 -172.1 14.4 -167.5 14.5 C-165.5 14.6 -163.4 14.6 -161.4 14.6 C-160.9 14.6 -160.9 14.6 -158.4 14.7 C-154.2 14.7 -150 14.8 -145.9 14.9 C-139.9 14.9 -133.9 15.1 -127.9 15.3 C-108.5 16 -90.7 13.1 -71.8 9.2 C-60.9 6.9 -49.9 5.2 -38.9 3.6 C-37.3 3.3 -35.6 3.1 -33.9 2.8 C-22.5 1.2 -11.5 -0.1 0 0 Z " fill="#C5261E" transform="translate(250,286)"/>
<path d="M0 0 C6.9 10.9 7 18.7 4.5 31.1 C2.1 40.6 -1.8 49.2 -6 58 C-7.5 61.4 -9 64.7 -10.6 68.1 C-11.3 69.8 -12.1 71.4 -12.8 73.1 C-15.4 78.9 -17.9 84.7 -20.3 90.5 C-23.4 96.8 -26 100.4 -32 104 C-34.9 104.6 -34.9 104.6 -38.2 104.9 C-38.8 105 -38.8 105 -41.8 105.3 C-42.4 105.4 -42.4 105.4 -45.6 105.7 C-46.2 105.8 -46.2 105.8 -49.2 106.1 C-56.9 106.9 -64.3 107.1 -72 107 C-71.8 106 -71.7 105 -71.5 103.9 C-71 100.2 -70.9 96.7 -70.9 93 C-70.8 91.6 -70.8 90.3 -70.8 88.9 C-70.8 87.4 -70.8 86 -70.8 84.5 C-70.8 83 -70.8 81.5 -70.8 79.9 C-70.8 76.7 -70.8 73.5 -70.8 70.3 C-70.8 65.5 -70.8 60.6 -70.8 55.8 C-70.8 52.7 -70.8 49.5 -70.8 46.4 C-70.8 45.7 -70.8 45.7 -70.7 42.1 C-70.8 33.2 -71.5 24.7 -73 16 C-73 17.7 -72.7 19.3 -72.5 21 C-71.7 28.7 -71.9 36.4 -71.9 44.2 C-71.9 45.8 -71.9 47.4 -71.9 49.1 C-71.9 52.6 -71.9 56 -71.9 59.5 C-71.9 64.7 -71.9 70 -71.9 75.3 C-71.9 78.7 -71.9 82 -71.9 85.4 C-71.9 86.9 -71.9 88.5 -71.9 90.1 C-71.9 90.9 -71.9 90.9 -71.9 94.6 C-71.9 95.9 -71.9 97.2 -71.9 98.5 C-72 101.8 -72.4 104.8 -73 108 C-84.2 109 -95.4 110 -106.6 111 C-110.4 111.3 -114.2 111.7 -118 112 C-123.5 112.5 -128.9 113 -134.4 113.5 C-136.1 113.6 -137.8 113.8 -139.6 113.9 C-147.7 114.6 -155.8 115.2 -164 115 C-167.2 110.3 -166.4 104.9 -166.5 99.3 C-166.6 96.7 -166.7 94 -166.7 91.4 C-166.8 87.2 -166.9 83.1 -167 78.9 C-168 35.6 -168 35.6 -173 15 C-167.7 13.3 -162.6 12.5 -157.1 12 C-156.2 11.9 -156.2 11.9 -151.7 11.5 C-149.8 11.3 -147.8 11.2 -145.9 11 C-143.8 10.8 -141.8 10.6 -139.8 10.4 C-134.4 9.9 -128.9 9.4 -123.5 8.9 C-120.2 8.6 -116.8 8.3 -113.5 8 C-88.7 5.7 -63.9 3.5 -39.1 1.4 C-38.2 1.4 -38.2 1.4 -33.5 1 C-22.3 0.1 -11.2 -0.2 0 0 Z " fill="#CE2A22" transform="translate(498,249)"/>
<path d="M0 0 C2.7 3.4 2.7 3.4 4.3 7.3 C7.2 13.8 9.7 17.4 16 21 C20.1 22.4 23.9 22.4 28.2 22.7 C29 22.7 29 22.7 33.2 23 C42.4 23 48.5 20.5 55 14 C66.4 13.4 77.9 15.6 89 18 C89 19.3 89 20.6 89 22 C80.6 24.2 72.5 25.8 63.9 26.8 C62.5 27 61.1 27.1 59.7 27.3 C-15.3 35.8 -90.9 41 -166.3 44.8 C-169.8 45 -173.2 45.2 -176.7 45.4 C-386.8 56.5 -386.8 56.5 -434 35 C-434.2 34.5 -434.2 34.5 -435 32 C-428.5 29.6 -422.3 28.3 -415.5 27.4 C-413.7 27.1 -412 26.9 -410.2 26.6 C-393.9 24.6 -393.9 24.6 -388.7 26.9 C-377.7 31.8 -363.8 31.5 -352.3 28.5 C-347.1 25.5 -340.8 21.6 -338 16 C-323.6 15.9 -309.3 16.2 -295 16.8 C-291.3 16.9 -287.7 17.1 -284 17.2 C-281.7 17.3 -279.3 17.4 -277 17.5 C-276.5 17.5 -276.5 17.5 -273.7 17.6 C-266.1 17.9 -266.1 17.9 -265 19 C-239.3 21.6 -239.3 21.6 -234 18 C-233.3 19.4 -232.6 20.7 -231.8 22.1 C-226.6 31.1 -221.6 35.2 -212 39 C-201 41.6 -186.2 41.8 -176 37 C-165.7 30.1 -161.5 20.2 -157 9 C-148.7 8.5 -148.7 8.5 -145.3 10.9 C-144.5 11.6 -143.8 12.3 -143 13 C-134.2 16.9 -121.7 16.6 -112.6 14.1 C-107.9 11.8 -104.5 8.7 -101 5 C-97 4 -93.2 3.6 -89 3.2 C-87.4 3 -85.8 2.9 -84.1 2.7 C-76.6 2.1 -69 1.4 -61.5 0.8 C-57.6 0.4 -53.6 0.1 -49.6 -0.3 C-43.9 -0.8 -38.2 -1.3 -32.5 -1.8 C-30.7 -2 -29 -2.1 -27.2 -2.3 C-17.4 -3.1 -9.4 -3.1 0 0 Z " fill="#B3CAB6" transform="translate(472,369)"/>
<path d="M0 0 C10.2 8.2 14.6 20.2 16.6 32.8 C17.9 45.7 17.9 58.8 13 71 C11.7 71 10.4 71 9 71 C8.6 72.4 8.3 73.9 7.9 75.4 C4.3 86.1 -1.2 94.7 -11.1 100.4 C-17.4 103 -23 103.2 -29.8 103.2 C-31.5 103.2 -33.2 103.2 -34.9 103.2 C-45 102.8 -53.9 100.4 -61.1 92.8 C-64.1 89 -66.5 85.1 -69 81 C-69.7 81.7 -70.3 82.3 -71 83 C-80.3 83.7 -89.8 82.9 -99 82 C-99.3 81.7 -99.7 81.3 -100 81 C-103.7 80.8 -107.3 80.6 -111 80.5 C-111.6 80.5 -111.6 80.5 -114.4 80.4 C-118.1 80.2 -121.7 80.1 -125.4 80 C-130.1 79.8 -134.8 79.7 -139.6 79.5 C-140.7 79.5 -141.9 79.4 -143.1 79.4 C-152.7 79 -162.4 78.6 -172 78 C-172.3 78.7 -172.3 78.7 -174 82 C-182.6 90.6 -190 93.2 -202.1 93.4 C-213.9 93.3 -222.8 91.6 -231.8 83.5 C-238 76.6 -238 76.6 -238 74 C-241.6 73.7 -245.3 73.3 -249 73 C-249.7 71.7 -250.3 70.4 -251 69 C-252 68.7 -253 68.3 -254 68 C-244.5 67.9 -235.1 68.3 -225.6 68.8 C-224.8 68.8 -224.8 68.8 -220.6 69.1 C-217 69.2 -213.5 69.4 -210 69.6 C-204.7 69.9 -199.4 70.1 -194 70.4 C-156.2 72.3 -156.2 72.3 -140 74.6 C-132.8 75.2 -125.6 75.1 -118.4 75.1 C-116.8 75.1 -115.2 75.1 -113.6 75.1 C-108.5 75.1 -103.5 75.1 -98.4 75.1 C-95 75.1 -91.6 75.1 -88.2 75 C-79.8 75 -71.4 75 -63 75 C-60.8 69.5 -60.2 64.5 -59.6 58.7 C-57.1 37.7 -52.3 16.6 -35.6 2.2 C-24.3 -5.6 -12.1 -7.6 0 0 Z " fill="#152637" transform="translate(306,307)"/>
<path d="M0 0 C4.7 0 9.3 0 14 0 C16.9 0 19.9 0 22.9 0 C23.6 0 23.6 0 27.1 0 C27.7 0 27.7 0 31 0.1 C31.5 0.1 31.5 0.1 34.4 0.1 C37.9 0.2 41.2 0.7 44.6 1.2 C44.6 1.9 44.6 2.5 44.6 3.2 C43 4.5 41.3 5.9 39.6 7.2 C38.2 8.8 36.8 10.5 35.5 12.2 C32.3 16.1 29.1 20 25.8 23.9 C20.8 29.9 16.2 36.2 11.6 42.5 C6 49.5 1.2 52.9 -7.4 55.2 C-11.7 55.5 -15.8 55.7 -20.1 55.7 C-21.3 55.7 -22.6 55.7 -23.9 55.7 C-28 55.7 -32.1 55.7 -36.2 55.8 C-39.1 55.8 -41.9 55.8 -44.8 55.8 C-50.8 55.9 -56.8 55.9 -62.8 55.9 C-70.5 55.9 -78.2 56 -85.8 56.1 C-91.7 56.1 -97.7 56.1 -103.6 56.2 C-106.4 56.2 -109.3 56.2 -112.1 56.2 C-116 56.2 -120 56.3 -124 56.3 C-125.1 56.3 -126.3 56.3 -127.5 56.3 C-135.5 56.3 -143.4 55.9 -151.4 55.2 C-148.4 52.2 -148.4 52.2 -144.4 51.2 C-143.4 51.2 -142.4 51.2 -141.4 51.2 C-139.2 49.4 -137.1 47.5 -135 45.6 C-130.1 41.2 -124.7 37.2 -119.4 33.2 C-117.9 32.1 -116.5 31 -115 29.9 C-77.4 1.7 -46.3 -0.2 0 0 Z " fill="#324863" transform="translate(306.358642578125,199.794189453125)"/>
<path d="M0 0 C0.9 0.7 1.8 1.4 2.7 2 C5 4 5 4 7 7 C7.3 12 7.3 12 7 17 C3.5 20.5 2.6 20.5 -2.2 20.8 C-3.5 20.9 -4.8 21 -6.2 21.1 C-7.6 21.2 -9 21.4 -10.5 21.5 C-13.6 21.7 -16.7 22 -19.9 22.2 C-20.7 22.3 -20.7 22.3 -24.9 22.6 C-31.8 23.1 -38.7 23.7 -45.7 24.4 C-52.8 25 -60 25.6 -67.2 26.2 C-70.9 26.5 -74.6 26.9 -78.3 27.2 C-83.7 27.6 -89.2 28.1 -94.6 28.6 C-96.2 28.7 -97.9 28.9 -99.6 29 C-101.1 29.1 -102.6 29.3 -104.2 29.4 C-105.6 29.5 -106.9 29.6 -108.3 29.8 C-111.9 30 -115.4 30 -119 30 C-118 29.3 -117 28.7 -116 28 C-116.7 27.3 -117.3 26.7 -118 26 C-117.8 23 -117.4 20 -117 17 C-124.4 10.1 -132.8 9.7 -142.4 9.6 C-146.3 10 -148.7 11.2 -152 13 C-153 13 -154 13 -155 13 C-155.7 11.7 -156.3 10.4 -157 9 C-158 9 -159 9 -160 9 C-160.2 8.5 -160.2 8.5 -161 6 C-135.1 -27.6 -135.1 -27.6 -113.8 -31.3 C-71.8 -36.1 -32.8 -27 0 0 Z " fill="#192C3F" transform="translate(496,228)"/>
<path d="M0 0 C9.3 7.5 13.3 18.5 14.8 30.1 C15.2 38.6 15.1 46.8 12.8 55.1 C12.5 55.2 12.5 55.2 10.8 56.1 C10.3 58.1 10 60.2 9.6 62.2 C7.4 73.2 3.3 83.6 -6.2 90.1 C-12.7 93.3 -18.3 93.2 -25.6 92.9 C-26.4 92.8 -26.4 92.8 -30.5 92.7 C-37.1 91.8 -41.6 89.6 -46.4 85 C-48.8 81.6 -50 79.1 -51.4 75.3 C-54.2 70.1 -54.2 70.1 -59.5 67.9 C-61 67.6 -62.6 67.3 -64.2 67.1 C-64.2 66.7 -64.2 66.4 -64.2 66.1 C-63.5 66 -63.5 66 -60.3 65.7 C-58.7 65.6 -57 65.4 -55.3 65.2 C-53.7 65.1 -52 64.9 -50.3 64.8 C-49.6 64.7 -49.6 64.7 -46.2 64.1 C-43 59.3 -42.8 53.8 -41.9 48.3 C-38.6 30.2 -34.7 13.5 -20.2 1.1 C-13.3 -2.9 -7.2 -3.3 0 0 Z " fill="#213950" transform="translate(526.1875,299.9375)"/>
<path d="M0 0 C2.6 4.4 2.9 7.2 2.9 12.3 C1.5 16.1 -0 19.5 -1.9 23.1 C-3 25.1 -4 27.1 -5 29.1 C-5.3 29.7 -5.3 29.7 -6.6 32.2 C-9.7 38.6 -12.3 45.3 -15 51.8 C-18.1 58.6 -20.6 62.5 -27.1 66.3 C-30 66.9 -30 66.9 -33.3 67.3 C-34.4 67.4 -35.6 67.5 -36.9 67.6 C-37.5 67.7 -37.5 67.7 -40.6 68 C-41.8 68.1 -43 68.3 -44.3 68.4 C-51.9 69.2 -59.4 69.4 -67.1 69.3 C-66.9 68.3 -66.7 67.3 -66.6 66.2 C-66.1 62.5 -66 59.1 -66 55.4 C-66 54 -66 52.7 -66 51.3 C-66 49.8 -66 48.4 -66.1 46.9 C-66.1 29.7 -65.7 12.5 -65.1 -4.7 C-13.1 -11.5 -13.1 -11.5 0 0 Z " fill="#C8261E" transform="translate(493.0625,286.6875)"/>
<path d="M0 0 C8 4.6 11.7 10.3 14.8 18.9 C18.3 33.6 17.2 46.7 9.9 60 C6.7 64.9 3.3 67.9 -1.9 70.4 C-8 71.6 -11.9 70.7 -17.2 67.5 C-25 60.3 -28.6 51.1 -29.3 40.6 C-29.6 27 -28.3 16.6 -19 6 C-12.7 0.2 -8.6 -0.7 0 0 Z " fill="#90B2C4" transform="translate(293,326)"/>
<path d="M0 0 C4.9 16.6 6.9 33.9 9 51 C4.6 51.5 0.3 52 -4.1 52.5 C-5.4 52.6 -6.6 52.8 -7.9 52.9 C-8.5 53 -8.5 53 -11.5 53.3 C-12.6 53.5 -13.7 53.6 -14.8 53.7 C-17.9 54 -20.9 54 -24 54 C-23.8 52.3 -23.8 52.3 -23 44 C-30.4 37.1 -38.8 36.7 -48.4 36.6 C-52.3 37 -54.7 38.2 -58 40 C-59 40 -60 40 -61 40 C-61.5 34.8 -61.3 32.5 -58.5 28 C-45 12.2 -34.8 1.7 -13.1 -0.4 C-2.4 -1.2 -2.4 -1.2 0 0 Z " fill="#334964" transform="translate(402,201)"/>
<path d="M0 0 C10.8 7 16.4 16.3 19.8 28.4 C23.6 47.6 21 65.8 10.9 82.5 C5.3 89.7 -1.2 93.7 -10.1 95.5 C-13.6 95.6 -17 95.6 -20.4 95.6 C-21.3 95.6 -21.3 95.6 -25.9 95.5 C-27.3 95.5 -28.7 95.5 -30.1 95.5 C-30.1 95.2 -30.1 94.8 -30.1 94.5 C-28.5 94.3 -28.5 94.3 -20.1 93.5 C-20.8 93.1 -20.8 93.1 -24.1 91.2 C-34.2 84.4 -39.1 74.1 -41.8 62.5 C-45 45.8 -42.6 28.3 -33.9 13.5 C-25.9 1.9 -14.1 -5.1 0 0 Z M-23.2 18.6 C-32.7 29.6 -32.9 42.7 -32.1 56.5 C-30.6 65.5 -27.3 71.8 -21.1 78.5 C-16.1 81.5 -13.8 82.3 -8.1 82.5 C-1.7 80.5 3.1 77.1 6.9 71.5 C13.6 58.6 15.4 45.7 11.9 31.5 C8.8 22.3 5.3 16.5 -3.1 11.5 C-12.6 10.8 -16.5 12 -23.2 18.6 Z " fill="#213850" transform="translate(296.125,314.5)"/>
<path d="M0 0 C15.7 0.5 32.7 2.3 47 9 C50.2 14.3 51.9 19.4 53.6 25.2 C53.9 26.2 54.2 27.2 54.6 28.3 C56.4 34.2 57.5 39.8 58 46 C43 47.8 28 49 13 50 C10.9 44.2 9.6 38.2 8.2 32.2 C6 23 3.7 14 0.9 5 C0 2 0 2 0 0 Z " fill="#334964" transform="translate(414,201)"/>
<path d="M0 0 C2.2 0.1 4.4 0.1 6.5 0.2 C7.5 0.2 7.5 0.2 12.3 0.4 C14.3 0.5 16.3 0.5 18.3 0.6 C18.9 0.6 18.9 0.6 21.6 0.7 C23.8 0.8 26.1 0.9 28.4 1 C31.8 1.1 35.2 1.3 38.6 1.4 C43 1.6 47.3 1.8 51.7 2 C55.3 2.1 58.9 2.3 62.5 2.4 C63.9 2.4 65.3 2.5 66.8 2.5 C68 2.6 69.1 2.6 70.4 2.6 C77.7 4 82.4 9.8 87.4 14.9 C88.8 16.2 90.1 17.6 91.5 19 C94.5 22.2 94.5 22.2 94.5 23.2 C72.7 23.6 51.1 23 29.3 21.8 C28 21.8 26.8 21.7 25.5 21.6 C-11.1 19.8 -11.1 19.8 -16.5 16.2 C-15.2 14.1 -13.9 12 -12.6 9.9 C-11.9 8.7 -11.2 7.6 -10.5 6.3 C-7.1 1.2 -6.4 0.3 0 0 Z " fill="#152637" transform="translate(65.4521484375,349.787353515625)"/>
<path d="M0 0 C1.7 0 3.4 0 5.1 0 C6.9 0.1 8.7 0.1 10.6 0.1 C11.5 0.2 11.5 0.2 16.2 0.2 C19.9 0.3 23.6 0.3 27.3 0.4 C32.1 0.5 36.9 0.6 41.6 0.6 C44.2 0.6 46.8 0.7 49.4 0.7 C50.6 0.7 51.8 0.7 53 0.7 C57.7 0.9 60.9 1 64.8 3.8 C66.7 6.5 66.7 6.5 68.7 11.5 C67.2 13.1 65.7 14.7 64.2 16.2 C63.3 17.1 62.5 18 61.6 18.8 C52.3 27.3 45 27.2 32.7 26.9 C31.1 26.9 29.6 26.9 27.9 26.9 C23.2 26.8 18.4 26.7 13.7 26.5 C12.1 26.5 10.5 26.4 8.9 26.4 C7.3 26.3 5.8 26.3 4.3 26.2 C2.9 26.1 1.6 26.1 0.2 26 C-3.3 25.5 -3.3 25.5 -8.3 22.5 C-11.2 18.1 -13.3 13.5 -13.4 8.1 C-10.5 1 -7.6 -0.1 0 0 Z " fill="#17283A" transform="translate(78.33984375,303.4765625)"/>
<path d="M0 0 C7 4.8 9.8 10.2 12.2 18.1 C14.2 30.8 13.6 42.6 7.2 54 C4.2 57.7 2.3 60.1 -2 62 C-6.7 62.2 -8.8 61.2 -12.7 58.5 C-19.7 51.1 -21.9 41.7 -22 31.6 C-21.6 20.8 -19.2 11.4 -12 3 C-5.6 -0.9 -5.6 -0.9 0 0 Z " fill="#688499" transform="translate(518,319)"/>
<path d="M0 0 C-9.4 12.4 -19.3 23.2 -35.5 25.6 C-74.2 30.1 -74.2 30.1 -81.2 26.3 C-85.5 22.8 -89.2 19 -93 15 C-91 12 -91 12 -88.1 11.1 C-87.5 11 -87.5 11 -84.4 10.4 C-83 10.1 -81.6 9.8 -80.1 9.6 C-78.6 9.3 -77 9 -75.4 8.7 C-73.9 8.4 -72.3 8.1 -70.6 7.8 C-51.8 4.3 -32.9 1.5 -14 -1 C-12 -1.3 -10.1 -1.5 -8.1 -1.8 C-4 -2 -4 -2 0 0 Z " fill="#D7E7ED" transform="translate(249,289)"/>
<path d="M0 0 C-3.9 2.6 -8 4.5 -12.2 6.5 C-30.7 15.7 -52.2 27.4 -66 43.3 C-71 48.7 -74.5 50.6 -82 50.9 C-84.9 50.8 -87.7 50.7 -90.6 50.6 C-91.4 50.5 -91.4 50.5 -95.1 50.4 C-98.7 50.3 -102.4 50.2 -106 50 C-103.4 46.6 -100.8 43.8 -97.4 41.2 C-96.5 40.5 -95.6 39.8 -94.7 39.1 C-94.3 38.7 -94.3 38.7 -92 37 C-91.2 36.4 -90.4 35.7 -89.5 35.1 C-49.2 3.4 -49.2 3.4 -35.8 1.8 C-35.2 1.7 -35.2 1.7 -32.4 1.3 C-31.3 1.2 -30.1 1.1 -29 1 C-28.5 0.9 -28.5 0.9 -25.8 0.7 C-17.2 -0.1 -8.6 -0.1 0 0 Z " fill="#89ADC4" transform="translate(273,203)"/>
<path d="M0 0 C0.3 1 0.7 2 1 3 C3 3 5 3 7 3 C7.2 3.9 7.4 4.8 7.6 5.7 C7.8 7 8.1 8.2 8.3 9.4 C8.4 10 8.4 10 9.1 13.1 C10 17 10 17 11.6 21.3 C15.4 34 12.8 50.3 7.5 62.4 C3.7 66.4 -1 68.6 -6 71 C-6.7 71.3 -6.7 71.3 -10 73 C-11 73 -12 73 -13 73 C-12.9 72.4 -12.9 72.4 -12.5 69.4 C-11.3 55.9 -11.3 42.1 -17.7 29.7 C-19 27 -19 27 -18 24 C-16.7 23.7 -15.4 23.3 -14 23 C-14 22 -14 21 -14 20 C-13.3 20 -12.7 20 -12 20 C-11.8 18.6 -11.5 17.2 -11.3 15.8 C-10 10.9 -9 9.1 -5 6 C-4 5.7 -3 5.3 -2 5 C-1.3 3.4 -0.7 1.7 0 0 Z " fill="#C7271F" transform="translate(552,281)"/>
<path d="M0 0 C9.3 7.5 13.3 18.5 14.8 30.1 C15.2 38.7 14.9 46.7 12.8 55.1 C12.2 54.7 11.5 54.4 10.8 54.1 C10.8 53.2 10.8 52.4 10.7 51.5 C10.1 37.9 7.7 22.3 -2.2 12.1 C-7.1 8.7 -11.3 8.5 -17.2 9.1 C-25.6 13.2 -29.7 20.5 -33.1 28.8 C-38.6 45.3 -37.8 62.5 -30.9 78.3 C-24.6 89.4 -24.6 89.4 -18.8 91 C-17.9 91 -17.1 91 -16.2 91.1 C-16.2 91.7 -16.2 92.4 -16.2 93.1 C-19.2 93 -22.2 92.9 -25.2 92.8 C-26.9 92.8 -28.5 92.7 -30.2 92.7 C-37 91.8 -41.5 89.7 -46.4 85 C-48.8 81.6 -50 79.1 -51.4 75.3 C-54.2 70.1 -54.2 70.1 -59.5 67.9 C-61 67.6 -62.6 67.3 -64.2 67.1 C-64.2 66.7 -64.2 66.4 -64.2 66.1 C-63.5 66 -63.5 66 -60.3 65.7 C-58.7 65.6 -57 65.4 -55.3 65.2 C-53.7 65.1 -52 64.9 -50.3 64.8 C-49.6 64.7 -49.6 64.7 -46.2 64.1 C-43 59.3 -42.8 53.8 -41.9 48.3 C-38.6 30.2 -34.7 13.5 -20.2 1.1 C-13.3 -2.9 -7.2 -3.3 0 0 Z " fill="#152637" transform="translate(526.1875,299.9375)"/>
<path d="M0 0 C1.3 -0 2.7 -0.1 4.1 -0.1 C8.3 0.4 9.8 1.2 12.7 4.3 C14.7 7.6 14.7 7.6 16.5 11.2 C17.1 12.5 17.7 13.7 18.3 14.9 C19.7 18.3 19.7 18.3 19.7 23.3 C15.4 27.6 -1.5 25.7 -7.5 25.8 C-8.7 25.8 -9.9 25.8 -11.2 25.9 C-21.1 26 -26.2 23.1 -33.6 16.3 C-34.5 15.4 -35.4 14.4 -36.4 13.4 C-37.3 12.5 -38.3 11.5 -39.2 10.5 C-39.9 9.8 -40.6 9.1 -41.3 8.3 C-40.7 7 -40 5.7 -39.3 4.3 C-36 3.8 -32.7 3.4 -29.4 2.9 C-27.6 2.6 -25.8 2.3 -23.9 2.1 C-15.9 1 -8 0.1 0 0 Z " fill="#162739" transform="translate(200.3125,343.6875)"/>
<path d="M0 0 C0.7 1.3 1.3 2.6 2 4 C2.3 4.5 2.3 4.5 4 7 C5.3 6 6.6 5 8 4 C17.7 0.8 28 2.8 37 7 C38.3 8.3 39.6 9.6 41 11 C40.8 14 40.4 17 40 20 C40.7 20.7 41.3 21.3 42 22 C36.1 24.5 30.9 25.6 24.6 26.2 C22.8 26.3 21 26.5 19.2 26.7 C17.3 26.9 15.5 27 13.6 27.2 C12.6 27.3 12.6 27.3 8 27.7 C-0.1 28.5 -7.9 29.1 -16 29 C-17 17.8 -10.3 9.6 -4 1 C-3.7 1.7 -3.3 2.3 -3 3 C-2 3 -1 3 0 3 C0 2 0 1 0 0 Z " fill="#162638" transform="translate(339,234)"/>
<path d="M0 0 C2.8 3.5 5 7.4 5 12 C-32 12 -68.9 12 -107 12 C-100.2 4.1 -98.5 4.1 -89 3.2 C-88.2 3.1 -88.2 3.1 -84.1 2.7 C-76.6 2.1 -69 1.4 -61.5 0.8 C-57.6 0.4 -53.6 0.1 -49.6 -0.3 C-43.9 -0.8 -38.2 -1.3 -32.5 -1.8 C-30.7 -2 -29 -2.1 -27.2 -2.3 C-17.4 -3.1 -9.3 -3.2 0 0 Z " fill="#EBF1EB" transform="translate(472,369)"/>
<path d="M0 0 C4.7 0 9.3 0 14 0 C16.9 0 19.9 0 22.9 0 C23.6 0 23.6 0 27.1 0 C27.7 0 27.7 0 31 0.1 C31.5 0.1 31.5 0.1 34.4 0.1 C37.9 0.2 41.2 0.7 44.6 1.2 C44.6 1.9 44.6 2.5 44.6 3.2 C43 4.5 41.3 5.9 39.6 7.2 C38.2 8.8 36.8 10.5 35.5 12.2 C32.3 16.1 29.1 20 25.8 23.9 C20.8 29.9 16.2 36.2 11.6 42.5 C6 49.5 1.2 52.9 -7.4 55.2 C-11.7 55.5 -15.8 55.7 -20.1 55.7 C-21.3 55.7 -22.6 55.7 -23.9 55.7 C-28 55.7 -32.1 55.7 -36.2 55.8 C-39.1 55.8 -41.9 55.8 -44.8 55.8 C-50.8 55.9 -56.8 55.9 -62.8 55.9 C-70.5 55.9 -78.2 56 -85.8 56.1 C-91.7 56.1 -97.7 56.1 -103.6 56.2 C-106.4 56.2 -109.3 56.2 -112.1 56.2 C-116 56.2 -120 56.3 -124 56.3 C-125.1 56.3 -126.3 56.3 -127.5 56.3 C-135.5 56.3 -143.4 55.9 -151.4 55.2 C-148.4 52.2 -148.4 52.2 -144.4 51.2 C-143.4 51.2 -142.4 51.2 -141.4 51.2 C-139.2 49.4 -137.1 47.5 -135 45.6 C-130.1 41.2 -124.7 37.2 -119.4 33.2 C-117.9 32.1 -116.5 31 -115 29.9 C-77.4 1.7 -46.3 -0.2 0 0 Z M-57.7 3.5 C-58.3 3.6 -58.3 3.6 -61.2 3.9 C-90.2 7.2 -118.5 33.2 -139.4 52.2 C-139.4 52.5 -139.4 52.9 -139.4 53.2 C-122 53.3 -104.7 53.4 -87.4 53.4 C-79.3 53.4 -71.3 53.5 -63.2 53.5 C-55.4 53.6 -47.7 53.6 -39.9 53.6 C-36.9 53.6 -34 53.6 -31 53.6 C-26.9 53.7 -22.7 53.7 -18.6 53.7 C-17.3 53.7 -16.1 53.7 -14.9 53.7 C-8 53.7 -3.3 53 2.6 49.2 C8.3 43.5 13 37.2 17.9 30.8 C21 26.8 24.1 22.8 27.3 18.8 C28.4 17.5 29.4 16.3 30.5 14.9 C33.7 11.2 37.1 7.7 40.6 4.2 C40.6 3.9 40.6 3.5 40.6 3.2 C35.9 2.4 31.3 2.1 26.4 2 C25 2 23.6 2 22.2 2 C21.4 2 21.4 2 17.6 2 C16 2 14.4 2 12.8 2 C9.4 2 6 2 2.7 2 C-2.4 2 -7.4 1.9 -12.5 1.9 C-27.6 1.8 -42.7 2 -57.7 3.5 Z " fill="#17283B" transform="translate(306.358642578125,199.794189453125)"/>
<path d="M0 0 C0.2 0.3 0.2 0.3 1 2 C-0.4 5 -0.4 5 -2.3 8.5 C-2.9 9.7 -3.6 10.8 -4.2 12 C-6 15 -6 15 -8 17 C-16.6 18.5 -25.3 19.2 -34 19 C-34.7 19.3 -35.3 19.7 -36 20 C-42.3 20.9 -47.8 21.3 -53.4 18.1 C-56.1 15.8 -58.7 13.7 -61 11 C-61 10.3 -61 9.7 -61 9 C-54.5 7.9 -48 6.7 -41.4 5.6 C-40.5 5.5 -40.5 5.5 -35.9 4.7 C-8.7 0 -8.7 0 0 0 Z " fill="#95B7CC" transform="translate(225,294)"/>
<path d="M0 0 C0.7 0.3 1.3 0.7 2 1 C2.3 2 2.7 3 3 4 C3.7 4.3 4.3 4.7 5 5 C5 5.7 5 6.3 5 7 C119.3 17.5 119.3 17.5 172.2 8.4 C179.4 7.3 185.9 8.4 193 10 C188.1 12.5 183.4 12.9 178 13.5 C177.4 13.6 177.4 13.6 174.6 13.9 C126.2 19 77.5 17.2 29.1 14 C28 13.9 26.9 13.9 25.8 13.8 C4.2 12.2 4.2 12.2 -2 6 C-1.3 4 -0.7 2 0 0 Z " fill="#D62F27" transform="translate(41,360)"/>
<path d="M0 0 C4.8 2.2 4.8 2.2 8.8 6.2 C8.6 10 8.6 10 7.8 13.2 C-18.3 16 -18.3 16 -31.2 15.2 C-32.2 14.2 -32.2 14.2 -32.6 11.1 C-32 5.9 -29.9 3.9 -26.2 0.2 C-17.8 -3.1 -8.6 -2.9 0 0 Z " fill="#D83028" transform="translate(371.1875,238.75)"/>
<path d="M0 0 C0.9 -0 0.9 -0 5.4 -0 C15.1 0 24.8 0.1 34.6 0.1 C36.2 0.1 37.8 0.1 39.4 0.2 C43.6 0.2 47.8 0.2 51.9 0.3 C53.1 0.3 54.4 0.3 55.6 0.3 C63.8 0.5 63.8 0.5 67.7 3.5 C71.9 9.4 71.9 9.4 73.6 12.1 C71.5 16.1 69.8 18.1 66.6 21.1 C66.1 21.5 66.1 21.5 63.9 23.6 C54.3 30.9 47.1 31.8 35.2 31.5 C33.8 31.5 32.4 31.5 31 31.4 C26.8 31.4 22.7 31.3 18.6 31.1 C18 31.1 18 31.1 15.1 31 C-2.7 30.6 -2.7 30.6 -9.4 28.1 C-13.9 23.3 -15.5 17.6 -16.4 11.1 C-12.4 2.3 -9.3 0 0 0 Z M-10.9 5.5 C-12.7 8.6 -13.4 10.6 -13.4 14.1 C-12.4 17.3 -12.4 17.3 -10.8 20.4 C-10.2 21.4 -9.7 22.5 -9.2 23.5 C-7.4 26.1 -7.4 26.1 -3.4 28.1 C8.4 29.5 20.6 29.4 32.6 29.6 C34.2 29.6 35.8 29.7 37.4 29.7 C48.5 29.8 54 28.1 62.4 20.6 C63.1 19.8 63.9 19 64.6 18.3 C65.9 16.9 67.2 15.5 68.6 14.1 C65.7 7.1 65.7 7.1 61.6 4.1 C57.3 3.6 53.5 3.3 49.3 3.3 C48.1 3.3 46.8 3.3 45.6 3.3 C42.8 3.2 40 3.2 37.2 3.2 C32 3.1 26.9 3 21.7 2.9 C17.9 2.9 14.2 2.8 10.5 2.8 C8.7 2.7 6.9 2.7 5 2.6 C3.3 2.6 1.6 2.6 -0.1 2.6 C-0.9 2.6 -0.9 2.6 -4.7 2.5 C-8.4 3.1 -8.4 3.1 -10.9 5.5 Z " fill="#8AAEC4" transform="translate(78.44921875,300.8671875)"/>
<path d="M0 0 C2 2 2 2 2 7 C-5.4 9.1 -12.9 10 -20.5 10.9 C-21.2 11 -21.2 11 -24.7 11.4 C-27.7 11.8 -30.6 12.2 -33.6 12.5 C-38 13.1 -42.5 13.6 -47 14.2 C-49.8 14.5 -52.7 14.9 -55.6 15.2 C-56.9 15.4 -58.2 15.5 -59.6 15.7 C-68.4 16.8 -77.2 17.5 -86 18 C-73.6 8.7 -53.3 8.2 -38.2 5.8 C-36 5.5 -33.9 5.1 -31.7 4.8 C-27.6 4.1 -23.5 3.5 -19.4 2.8 C-16.1 2.3 -12.8 1.8 -9.4 1.2 C-6.3 0.7 -3.2 0.4 0 0 Z " fill="#DB3129" transform="translate(424,337)"/>
<path d="M0 0 C6.3 2.5 11.5 6.1 17 10 C17.9 10.6 18.9 11.2 19.8 11.8 C22.3 13.7 22.3 13.7 26 18 C26.5 22.5 26 26.6 25 31 C23 33 19.1 32.4 16.4 32.6 C15.1 32.6 13.7 32.7 12.2 32.8 C11.7 32.8 11.7 32.8 9 33 C7.7 28.4 6.4 23.9 5.1 19.3 C4.7 18 4.3 16.7 3.9 15.4 C3.6 14.1 3.2 12.9 2.8 11.6 C2.5 10.5 2.2 9.3 1.8 8.1 C1.1 5.5 0.5 2.7 0 0 Z " fill="#334964" transform="translate(467,214)"/>
<path d="M0 0 C0.2 0.7 0.2 0.7 1 4 C-20.8 28.7 -38 31.2 -70.1 33.3 C-78.4 33.5 -82.6 32.1 -88.6 26.6 C-91.2 24.1 -93.7 21.7 -96 19 C-96 18 -96 17 -96 16 C-99 16.7 -101.9 17.3 -105 18 C-105.7 17.3 -106.3 16.7 -107 16 C-27.3 -0.7 -27.3 -0.7 0 0 Z M-12.5 1.7 C-13.2 1.8 -13.2 1.8 -17.1 2.3 C-18.7 2.5 -20.4 2.8 -22.1 3 C-23.7 3.2 -25.4 3.5 -27.2 3.7 C-44.2 6.1 -61.1 8.8 -78 12 C-78.7 12.1 -78.7 12.1 -82 12.7 C-83.3 13 -84.6 13.2 -85.9 13.5 C-87 13.7 -88.1 13.9 -89.3 14.2 C-92 15 -92 15 -94 18 C-92.3 19.8 -90.5 21.6 -88.8 23.4 C-87.8 24.4 -86.8 25.4 -85.8 26.4 C-80 31.8 -75.1 31.4 -67.5 31.3 C-60.7 30.9 -53.9 30.4 -47.1 29.8 C-45.9 29.6 -44.7 29.5 -43.4 29.4 C-27.2 27.7 -16.4 21.5 -5.6 9.2 C-4 7.2 -2.5 5.1 -1 3 C-5.7 0.7 -7.4 1 -12.5 1.7 Z " fill="#1E3247" transform="translate(250,286)"/>
<path d="M0 0 C-0.7 1.6 -1.3 3.3 -2 5 C-11.1 6.5 -20.1 7.9 -29.2 9.3 C-32.3 9.8 -35.3 10.3 -38.4 10.8 C-42.9 11.5 -47.3 12.2 -51.7 12.9 C-53.1 13.1 -54.5 13.4 -55.9 13.6 C-57.2 13.8 -58.5 14 -59.8 14.2 C-60.9 14.4 -62 14.6 -63.2 14.7 C-66 15 -66 15 -69 14 C-66.9 12.9 -64.9 11.9 -62.8 10.8 C-62.2 10.5 -62.2 10.5 -59.3 9 C-48.8 4.1 -39.7 1.2 -28.1 0.7 C-26.9 0.6 -25.7 0.5 -24.5 0.5 C-16.4 -0 -8.2 -0.1 0 0 Z " fill="#D72E26" transform="translate(211,317)"/>
<path d="M0 0 C3 4 4.8 7.1 6 12 C1.2 13.6 -3.7 13.4 -8.7 13.5 C-9.2 13.5 -9.2 13.5 -11.9 13.7 C-17.9 13.8 -20.7 13.2 -25.6 9.7 C-29 6 -29 6 -32 2 C-6.3 -2.2 -6.3 -2.2 0 0 Z " fill="#93B5CB" transform="translate(205,350)"/>
<path d="M0 0 C-3.9 5.7 -8.3 9.2 -15 11 C-25.8 12 -35.2 12.3 -45 7 C-45.7 6 -46.3 5 -47 4 C-37.7 2.6 -28.4 1.6 -19 0.9 C-17.9 0.8 -16.9 0.7 -15.7 0.6 C-10.5 0.2 -5.3 -0.1 0 0 Z " fill="#162738" transform="translate(371,374)"/>
<path d="M0 0 C38.6 0 77.2 0 117 0 C117.2 0.3 117.2 0.3 118 2 C117.2 2.2 116.4 2.4 115.6 2.5 C107.4 4.4 99.3 6.2 91.1 8.1 C87.5 8.9 83.9 9.7 80.3 10.5 C59.6 15.2 38.3 21.1 19.4 30.9 C18.6 31.2 17.8 31.6 17 32 C16.3 31.7 15.7 31.3 15 31 C42 13.7 75.3 8.6 106 2 C88.5 1.8 88.5 1.8 0 1 C0 0.7 0 0.3 0 0 Z " fill="#B2251F" transform="translate(178,255)"/>
<path d="M0 0 C-3 3 -6.1 2.9 -10.3 3.5 C-12 3.8 -13.7 4 -15.4 4.3 C-16.3 4.4 -16.3 4.4 -20.8 5.1 C-22.6 5.4 -24.3 5.7 -26.2 6 C-39.3 8 -39.3 8 -45 8 C-45.3 5.4 -45.7 2.7 -46 0 C-10.1 -4 -10.1 -4 0 0 Z " fill="#DB3129" transform="translate(473,336)"/>
<path d="M0 0 C2 0 4 0 6 0 C8.3 5.7 10 11.5 11.6 17.4 C11.8 18.2 11.8 18.2 12.8 22.2 C16 35 16 35 16 41 C15.8 40.5 15.8 40.5 15 38 C14.7 38.2 14.7 38.2 13 39 C13.3 40.3 13.7 41.6 14 43 C13.3 43 12.7 43 12 43 C12 43.7 12 44.3 12 45 C12.7 45.3 13.3 45.7 14 46 C13.7 46.7 13.3 47.3 13 48 C14.6 48.3 16.3 48.7 18 49 C18 50.3 18 51.6 18 53 C12.2 54.1 12.2 54.1 10 53 C9.9 52 9.9 50.9 9.8 49.9 C9.7 48.5 9.6 47.1 9.6 45.7 C9.5 45 9.5 45 9.3 41.6 C8.7 32.4 7.7 23.6 5.6 14.6 C5.4 13.6 5.4 13.6 4.4 8.8 C3 4 3 4 0 0 Z " fill="#1E354C" transform="translate(400,198)"/>
<path d="M0 0 C0 0.7 0 1.3 0 2 C-2.3 2.3 -4.6 2.7 -7 3 C-5.4 4.7 -3.7 6.4 -2 8 C-1.2 8.9 -0.4 9.9 0.4 10.8 C6 14.2 11.7 13.5 18 13 C19.3 12.7 20.6 12.3 22 12 C30.1 11.7 38 12 46 13 C46 13.3 46 13.7 46 14 C1.7 19.1 1.7 19.1 -6 13 C-9.1 10.1 -12 7.1 -15 4 C-11.4 -1.4 -6 -0.1 0 0 Z " fill="#C9DDE6" transform="translate(171,300)"/>
<path d="M0 0 C1 4 1 4 0 7 C-26.1 9.7 -26.1 9.7 -39 9 C-39.3 8.7 -39.7 8.3 -40 8 C-40 6.3 -40 4.7 -40 3 C-39 2.9 -37.9 2.9 -36.9 2.8 C-32.2 2.6 -27.5 2.3 -22.8 2.1 C-22 2 -22 2 -17.9 1.8 C-17.1 1.8 -17.1 1.8 -13.1 1.5 C-11.7 1.5 -10.3 1.4 -8.8 1.3 C-5 1 -5 1 0 0 Z " fill="#AA251F" transform="translate(379,245)"/>
<path d="M0 0 C3.2 3.1 5.7 6.1 8 9.9 C7.7 11.3 7.3 12.6 7 13.9 C0.3 14.8 -3.2 13 -8.5 9 C-12.1 6 -15.6 3.1 -19 -0.1 C-19 -0.4 -19 -0.7 -19 -1.1 C-3.7 -2.5 -3.7 -2.5 0 0 Z " fill="#AB251F" transform="translate(351,263.0625)"/>
<path d="M0 0 C0.7 0 1.3 0 2 0 C2.3 0.6 2.3 0.6 3.7 3.8 C5.8 7.7 7.3 9.5 11 12 C9.8 13.4 8.6 14.8 7.3 16.3 C4 21 3.9 21.6 4.8 27.8 C8.3 36 8.3 36 11 39 C25 42.3 40.7 41.1 55 41.1 C56.4 41.1 57.8 41.1 59.2 41.1 C60.6 41.1 61.9 41.1 63.2 41.1 C64.4 41.1 65.6 41.1 66.8 41.1 C70 41 70 41 75 40 C70.7 44.3 68.9 44.1 62.9 44.1 C61.4 44.1 59.9 44.1 58.4 44.1 C57.6 44.1 57.6 44.1 53.6 44.1 C52.8 44.1 52.8 44.1 48.8 44.1 C15.5 44 15.5 44 8 41 C4.3 35 1.4 29 1 22 C2.9 18 5.3 14.5 8 11 C7.3 11 6.7 11 6 11 C5.7 12 5.3 13 5 14 C4 12 4 12 3 8 C2 5.3 1 2.7 0 0 Z " fill="#1B2D41" transform="translate(59,290)"/>
<path d="M0 0 C1.4 0 2.8 0.1 4.2 0.1 C5.9 0.1 7.6 0.2 9.3 0.2 C23.8 0.7 38.3 1.6 52.9 2.5 C52.9 2.8 52.9 3.1 52.9 3.5 C43.1 4.1 43.1 4.1 -6.1 7.5 C-6.1 2.9 -4.6 0.7 0 0 Z " fill="#E4ECE8" transform="translate(137.1484375,384.5390625)"/>
<path d="M0 0 C5.9 1.2 9.2 3.5 14 7 C14.3 7.7 14.7 8.3 15 9 C10.9 18.7 10.9 18.7 8 23 C6.4 22.7 4.7 22.3 3 22 C2.5 19.3 2 16.5 1.5 13.8 C1.4 13.1 1.4 13.1 0.7 9.2 C0 5 0 5 0 0 Z " fill="#475E71" transform="translate(39,339)"/>
<path d="M0 0 C0.7 1.3 1.3 2.6 2 4 C0.3 8.6 -1 10 -5 13 C-10.2 13.2 -10.2 13.2 -15 13 C-18 8 -18 8 -17 3 C-11.7 -0.5 -6.2 -0.1 0 0 Z " fill="#DBECF6" transform="translate(218,297)"/>
<path d="M0 0 C0.7 0.3 1.3 0.7 2 1 C-4.9 10 -12.4 19.2 -23 24 C-24 23.7 -25 23.3 -26 23 C-24.5 20.6 -23 18.2 -21.5 15.7 C-20 13 -20 13 -18.6 8.6 C-15.3 4.1 -13.6 4.1 -8.3 3.1 C-7.6 3 -7.6 3 -4.2 2.6 C-3.2 2.4 -2.1 2.2 -1 2 C-0.7 1.3 -0.3 0.7 0 0 Z " fill="#89ADC3" transform="translate(247,288)"/>
<path d="M0 0 C2 0 4 0 6 0 C6.7 0.7 7.3 1.3 8 2 C10 2.7 12 3.4 14 4 C14.3 5.3 14.7 6.6 15 8 C13.4 9 11.7 10 10 11 C9 12 8 13 7 14 C0.4 14 -1 13 -6 9 C-5.7 7.7 -5.3 6.4 -5 5 C-4 4.7 -3 4.3 -2 4 C-1.3 2.7 -0.7 1.4 0 0 Z " fill="#BC2922" transform="translate(485,263)"/>
<path d="M0 0 C0 0.3 0 0.7 0 1 C-1.4 1.1 -2.8 1.2 -4.3 1.3 C-6.1 1.5 -8 1.6 -9.9 1.8 C-10.9 1.9 -10.9 1.9 -15.5 2.3 C-42.6 5.9 -69 31.9 -89 49 C-89.7 48.3 -90.3 47.7 -91 47 C-80.8 38 -70 30 -59 22 C-58.4 21.5 -58.4 21.5 -55.2 19.2 C-37.3 6.1 -22.7 -2.3 0 0 Z " fill="#203449" transform="translate(257,203)"/>
<path d="M0 0 C0 0.3 0 0.7 0 1 C-22.5 3.1 -45 5.1 -67.5 7 C-69.6 7.2 -71.7 7.3 -73.9 7.5 C-76.9 7.8 -79.9 8 -82.9 8.3 C-84.7 8.4 -86.4 8.5 -88.2 8.7 C-92.8 9 -97.4 9.1 -102 9 C-102 8.3 -102 7.7 -102 7 C-96.9 5.3 -91.5 5.4 -86.2 5.1 C-84.9 5 -83.6 4.9 -82.3 4.8 C-78.1 4.6 -74 4.3 -69.8 4.1 C-64.4 3.7 -59 3.4 -53.6 3 C-52.9 3 -52.9 3 -49.6 2.8 C-39.4 2.1 -29.2 1.3 -19 0.4 C-12.6 -0.1 -6.4 -0.1 0 0 Z " fill="#AF2620" transform="translate(432,368)"/>
<path d="M0 0 C1.3 0.3 2.6 0.7 4 1 C4.7 3.4 5.3 5.9 6 8.3 C6.4 9.7 6.7 11 7.1 12.4 C8 16 8 16 8 19 C2.7 21.1 0.5 20.9 -5 20 C-4.5 17.6 -4.1 15.2 -3.6 12.8 C-3.4 11.5 -3.1 10.1 -2.9 8.8 C-2 5 -2 5 0 0 Z " fill="#263A51" transform="translate(285,372)"/>
<path d="M0 0 C-0.1 8.5 -3 12.5 -8 19 C-12.2 14.8 -12.7 10.7 -14 5 C-14 3.7 -14 2.4 -14 1 C-9.2 0 -4.9 -0.1 0 0 Z " fill="#21354B" transform="translate(280,364)"/>
<path d="M0 0 C4.3 0 8.6 0 13 0 C12.5 6.5 11.6 12 9 18 C8.3 18 7.7 18 7 18 C5.6 15.9 4.3 13.9 2.9 11.8 C2.2 10.7 1.4 9.5 0.7 8.3 C-1 5 -1 5 0 0 Z " fill="#273B52" transform="translate(293,363)"/>
<path d="M0 0 C2.9 2.9 4.1 4.8 5.8 8.4 C6.2 9.3 6.6 10.2 7.1 11.2 C8 14 8 14 7 19 C2 18.5 -1.6 17.4 -6 15 C-4.9 9.1 -3.7 4.8 0 0 Z " fill="#213449" transform="translate(273,337)"/>
<path d="M0 0 C1.1 5.4 0.5 7.7 -0.9 12.8 C-1.3 14.2 -1.7 15.5 -2.1 16.9 C-2.4 17.9 -2.7 18.9 -3 20 C-4.3 19.7 -5.6 19.3 -7 19 C-7.5 16.9 -8 14.9 -8.5 12.8 C-8.8 11.7 -9.1 10.5 -9.3 9.3 C-10 6 -10 6 -10 1 C-6.8 -0.6 -3.5 -0.1 0 0 Z " fill="#273B52" transform="translate(291,329)"/>
<path d="M0 0 C0 3 0 3 -3 7 C-1 10.6 1 14.3 3 18 C2.7 18.7 2.3 19.3 2 20 C-0.3 19 -2.5 17.9 -4.8 16.8 C-5.4 16.5 -5.4 16.5 -8.6 15 C-12 13 -12 13 -15 8 C-13.4 6 -11.7 4 -10 2 C-8.9 2.2 -7.8 2.5 -6.7 2.7 C-5.5 2.8 -4.3 2.9 -3 3 C-2 2 -1 1 0 0 Z " fill="#BF302C" transform="translate(58,310)"/>
<path d="M0 0 C3.3 3.3 4.4 5.7 6 10 C6 11.6 6 13.3 6 15 C2.7 16.8 -0.6 18.4 -4 20 C-5 19.7 -6 19.3 -7 19 C-6.7 11.8 -3.3 6.2 0 0 Z " fill="#283C54" transform="translate(299,336)"/>
<path d="M0 0 C0.7 0 1.3 0 2 0 C1.5 1.5 1.1 3 0.6 4.5 C-0.7 9.1 -1.6 13.3 -2 18 C-1.3 18 -0.7 18 0 18 C-0.3 16.4 -0.7 14.7 -1 13 C-0.1 9.6 0.9 6.3 2 3 C7 5 7 5 10 10 C3.5 18.9 3.5 18.9 -1 20 C-2.3 19.3 -3.6 18.7 -5 18 C-4 11.5 -2.9 5.9 0 0 Z " fill="#ACC8D7" transform="translate(53,294)"/>
</svg>
