<?xml version="1.0" encoding="UTF-8"?>
<!-- Generator: visioncortex VTracer 0.6.12 -->
<svg version="1.1" xmlns="http://www.w3.org/2000/svg" width="600" height="600" viewBox="0 0 600 600" role="img" aria-label="Home">
<path d="M0 0 C198 0 396 0 600 0 C600 198 600 396 600 600 C402 600 204 600 0 600 C0 402 0 204 0 0 Z " fill="#EDF2ED" transform="translate(0,0)"/>
<path d="M0 0 C8.1 -0.3 15 1.2 22.6 4.2 C24.4 6.1 24 9.2 24.1 11.8 C24.2 12.4 24.2 12.4 24.4 15.4 C24.4 16.3 24.5 17.2 24.6 18.2 C27.9 19.2 31.2 20.2 34.6 21.2 C34.6 24.8 34.6 28.5 34.6 32.2 C32.9 32.9 31.3 33.5 29.6 34.2 C29.5 40 29.5 45.7 29.5 51.5 C29.5 52.3 29.5 52.3 29.4 56.4 C29.5 66.1 30.3 71.9 37.2 78.9 C38 79.6 38.7 80.4 39.6 81.2 C42 84.1 44.4 87 46.8 89.8 C47.3 90.5 47.3 90.5 50.2 94 C53.6 98.3 56.6 102.7 59.6 107.2 C61 109.1 62.5 110.9 64 112.7 C69.2 119 74.4 125.2 78.6 132.2 C80.7 134.9 82.8 137.6 85 140.2 C86.1 141.6 87.3 143 88.4 144.4 C90.2 146.5 92 148.7 93.8 150.8 C95.6 153.2 95.6 153.2 96.9 156 C99.1 160.2 102 163.5 105 167.1 C109.1 172 112.5 176.7 115.6 182.2 C117.1 184.4 118.7 186.5 120.4 188.6 C120.8 189.1 120.8 189.1 123 192 C124.6 194 126.2 195.9 127.8 197.9 C129.5 199.9 131.1 202 132.6 204.2 C131.3 210.7 129.6 212.9 124.6 217.2 C119.6 217.2 114.7 217.2 109.6 217.2 C109.6 258.1 109.6 299 109.6 341.2 C110.2 341.2 110.9 341.2 111.6 341.2 C111.6 347.5 111.6 353.7 111.6 360.2 C110.2 360.4 108.9 360.6 107.5 360.9 C94.7 362.9 81.9 365 69.1 367.1 C62.5 368.2 55.9 369.2 49.4 370.3 C43 371.3 36.6 372.3 30.3 373.4 C27.9 373.8 25.4 374.2 23 374.6 C19.6 375.1 16.2 375.7 12.8 376.2 C11.7 376.4 10.7 376.6 9.6 376.7 C1.7 378 -6.1 379.3 -13.9 380.7 C-17.4 381.2 -17.4 381.2 -22.4 381.2 C-22.4 382.9 -22.4 384.5 -22.4 386.2 C-31.2 395.5 -42.6 394.7 -54.6 395.3 C-61 395.7 -65.6 396.6 -71.4 399.2 C-76 399.6 -76 399.6 -80.8 399.6 C-82.4 399.6 -84 399.6 -85.6 399.6 C-97 398.7 -97 398.7 -100.4 395.2 C-103.9 394.7 -107.3 394.3 -110.8 393.9 C-114.6 393.2 -117.2 392.2 -120.4 390.2 C-121.1 388.9 -121.7 387.6 -122.4 386.2 C-127.7 385.9 -133 385.5 -138.4 385.2 C-138.8 378.9 -139.1 372.7 -139.4 366.2 C-141.1 366.5 -142.7 366.9 -144.4 367.2 C-145.1 366.5 -145.7 365.9 -146.4 365.2 C-144.1 364.5 -141.8 363.9 -139.4 363.2 C-146.8 362.5 -154.3 361.8 -161.7 361.1 C-164.2 360.9 -166.7 360.7 -169.2 360.4 C-216.3 356 -216.3 356 -229.4 359.6 C-231.1 360.1 -232.9 360.6 -234.6 361.1 C-235.9 361.4 -237.1 361.8 -238.4 362.2 C-238.8 365.5 -239.1 368.8 -239.4 372.2 C-240.7 372.1 -241.9 372 -243.2 371.9 C-244.8 371.8 -246.4 371.7 -248.1 371.6 C-249.7 371.5 -251.3 371.3 -253 371.2 C-257.4 371.2 -257.4 371.2 -262.4 373.2 C-265.9 373.5 -269.4 373.6 -273 373.8 C-276.4 374.2 -276.4 374.2 -279.2 375.7 C-289.2 380.3 -305 377.8 -315.4 375.2 C-316.7 373.9 -318.1 372.6 -319.4 371.2 C-321 370.9 -322.6 370.6 -324.2 370.3 C-330.2 369 -333 367.4 -337.4 363.2 C-339.8 358.3 -340.6 355.4 -339.9 349.9 C-338.4 346.2 -338.4 346.2 -334.4 342.2 C-333.4 341.9 -332.4 341.5 -331.4 341.2 C-332.1 339.6 -332.7 337.9 -333.4 336.2 C-333.8 331.6 -334 328.4 -331.9 324.2 C-328.3 321.3 -324.9 321.2 -320.4 321.2 C-320.5 320.1 -320.6 318.9 -320.7 317.8 C-320.3 310.8 -318.3 306.1 -313.4 301.1 C-308.1 298.6 -304.2 298.7 -298.4 299.2 C-297.6 299.7 -297.6 299.7 -293.4 302.2 C-293.1 270.9 -292.8 239.5 -292.4 207.2 C-298.4 207.2 -304.3 207.2 -310.4 207.2 C-315.1 202.7 -315.1 202.7 -317.4 198.2 C-315.6 193.6 -313.6 190.4 -310.8 186.3 C-310.3 185.6 -310.3 185.6 -307.8 182.1 C-307.3 181.3 -307.3 181.3 -304.4 177.2 C-303.1 175.3 -301.9 173.5 -300.6 171.6 C-293.6 161.5 -286.5 151.5 -279.4 141.4 C-274.3 134.2 -269.3 127 -264.2 119.7 C-261.3 115.6 -258.4 111.5 -255.6 107.4 C-249.8 99.2 -244.1 91 -238.4 82.8 C-232.9 74.9 -227.5 67.1 -222 59.3 C-217.5 52.8 -212.9 46.3 -208.4 39.8 C-202.7 31.6 -197 23.5 -191.3 15.4 C-189 12 -186.7 8.6 -184.4 5.2 C-172.6 7.8 -160.9 10.5 -149.1 13.3 C-147.5 13.7 -145.9 14.1 -144.2 14.4 C-139.1 15.7 -133.9 16.9 -128.7 18.1 C-121.6 19.8 -114.4 21.5 -107.2 23.3 C-105.5 23.7 -103.7 24.1 -101.9 24.5 C-90.9 27.1 -80 29.7 -69 32.3 C-68.4 32.5 -68.4 32.5 -65.1 33.2 C-59.1 34.6 -53.2 36.1 -47.2 37.5 C-45.1 37.9 -43 38.4 -40.9 38.9 C-39.2 39.3 -37.4 39.8 -35.5 40.2 C-31.4 41.2 -31.4 41.2 -28.4 42.2 C-28.5 43.2 -28.6 44.3 -28.7 45.3 C-29 59.6 -22.8 66.1 -13.4 76.2 C-11.4 78.7 -9.4 81.2 -7.5 83.7 C-6.6 84.8 -5.7 85.9 -4.8 87.1 C-3.3 89.1 -1.8 91 -0.3 93 C4.4 99.1 4.4 99.1 6.6 100.2 C6.6 76.8 6.6 53.3 6.6 29.2 C-3.8 29.2 -13.9 29.5 -24.2 30.2 C-28.4 30.2 -28.4 30.2 -32.4 28.2 C-32.5 24.5 -32.5 20.9 -32.4 17.2 C-30 14.8 -23.7 15.5 -20.4 15.2 C-20.4 14.3 -20.3 13.3 -20.2 12.4 C-20.2 11.2 -20.1 10 -20 8.8 C-19.9 7.6 -19.8 6.4 -19.7 5.1 C-19.4 2.2 -19.4 2.2 -18.4 1.2 C-12.3 0.5 -6.1 0.4 0 0 Z " fill="#F8E1BC" transform="translate(404.4296875,86.796875)"/>
<path d="M0 0 C0.7 -0 0.7 -0 4.4 -0 C101.3 0 198.1 0.3 294.9 1.1 C294.9 34.1 294.9 67.1 294.9 101.1 C96.9 101.1 -101.1 101.1 -305.1 101.1 C-305.1 68.1 -305.1 35.1 -305.1 1.1 C-203.4 0.3 -101.7 -0 0 0 Z " fill="#D4E3D6" transform="translate(305.0625,498.875)"/>
<path d="M0 0 C8.1 -0.3 15 1.2 22.6 4.2 C24.4 6.1 24 9.2 24.1 11.8 C24.2 12.4 24.2 12.4 24.4 15.4 C24.4 16.3 24.5 17.2 24.6 18.2 C27.9 19.2 31.2 20.2 34.6 21.2 C34.6 24.8 34.6 28.5 34.6 32.2 C32.9 32.9 31.3 33.5 29.6 34.2 C29.5 40 29.5 45.7 29.5 51.5 C29.5 52.3 29.5 52.3 29.4 56.4 C29.5 66.1 30.3 71.9 37.2 78.9 C38 79.6 38.7 80.4 39.6 81.2 C42 84.1 44.4 87 46.8 89.8 C47.3 90.5 47.3 90.5 50.2 94 C53.6 98.3 56.6 102.7 59.6 107.2 C61 109.1 62.5 110.9 64 112.7 C69.2 119 74.4 125.2 78.6 132.2 C80.7 134.9 82.8 137.6 85 140.2 C86.1 141.6 87.3 143 88.4 144.4 C90.2 146.5 92 148.7 93.8 150.8 C95.6 153.2 95.6 153.2 96.9 156 C99.1 160.2 102 163.5 105 167.1 C109.1 172 112.5 176.7 115.6 182.2 C117.1 184.4 118.7 186.5 120.4 188.6 C120.8 189.1 120.8 189.1 123 192 C124.6 194 126.2 195.9 127.8 197.9 C129.5 199.9 131.1 202 132.6 204.2 C131.3 210.6 129.5 212.9 124.6 217.2 C119.9 218.1 115.5 217.7 110.8 217.3 C109.4 217.2 108 217.1 106.6 217.1 C103.7 216.9 100.8 216.7 97.9 216.5 C92.4 216.1 86.8 215.9 81.2 215.6 C73.9 215.3 66.7 214.9 59.4 214.5 C58.7 214.5 58.7 214.5 54.8 214.2 C46.6 213.8 38.5 213.4 30.4 212.9 C23.7 212.6 17 212.2 10.3 211.9 C2.2 211.4 -6 211 -14.1 210.6 C-17.2 210.4 -20.3 210.2 -23.4 210.1 C-27.7 209.9 -31.9 209.6 -36.2 209.4 C-37.5 209.3 -38.8 209.3 -40.1 209.2 C-46.3 208.8 -49.9 208.4 -54.4 204.2 C-55.9 202.3 -57.4 200.3 -58.7 198.3 C-63.1 191.9 -67.7 185.8 -72.4 179.7 C-77.7 172.8 -82.9 165.9 -87.9 158.8 C-97.3 145.6 -107 132.8 -116.8 119.9 C-121.1 114.4 -125.2 108.8 -129.4 103.2 C-136.8 93.3 -144.2 83.5 -151.7 73.7 C-157.7 65.8 -163.7 57.9 -169.6 50 C-170.7 48.5 -171.7 47 -172.9 45.5 C-173.9 44.2 -174.9 42.8 -175.9 41.4 C-178.4 38.2 -178.4 38.2 -180.4 37.2 C-181.1 38.9 -181.7 40.5 -182.4 42.2 C-184.3 45 -186.3 47.7 -188.3 50.5 C-189.5 52.1 -190.7 53.7 -191.9 55.3 C-192.5 56.1 -193.1 56.9 -193.7 57.8 C-198.3 64.2 -202.9 70.7 -207.4 77.2 C-209.4 80 -211.4 82.9 -213.4 85.7 C-214.4 87.1 -215.4 88.5 -216.4 90 C-218.4 92.8 -220.4 95.6 -222.4 98.3 C-228.3 106.8 -234.3 115.3 -240.2 123.8 C-243.9 129.1 -247.7 134.4 -251.4 139.7 C-256.9 147.5 -262.4 155.3 -267.8 163.1 C-270.3 166.6 -272.8 170.1 -275.2 173.6 C-275.5 174 -275.5 174 -277.1 176.3 C-278.8 178.7 -280.5 181.2 -282.3 183.7 C-283.3 185.2 -284.4 186.7 -285.4 188.2 C-286.5 189.8 -287.6 191.3 -288.8 192.9 C-291.8 197.9 -292.3 201.5 -292.4 207.2 C-308.5 208.6 -308.5 208.6 -313.2 205.2 C-315.1 202.7 -315.1 202.7 -317.4 198.2 C-315.6 193.6 -313.6 190.4 -310.8 186.3 C-310.3 185.6 -310.3 185.6 -307.8 182.1 C-307.3 181.3 -307.3 181.3 -304.4 177.2 C-303.1 175.3 -301.9 173.5 -300.6 171.6 C-293.6 161.5 -286.5 151.5 -279.4 141.4 C-274.3 134.2 -269.3 127 -264.2 119.7 C-261.3 115.6 -258.4 111.5 -255.6 107.4 C-249.8 99.2 -244.1 91 -238.4 82.8 C-232.9 74.9 -227.5 67.1 -222 59.3 C-217.5 52.8 -212.9 46.3 -208.4 39.8 C-202.7 31.6 -197 23.5 -191.3 15.4 C-189 12 -186.7 8.6 -184.4 5.2 C-172.6 7.8 -160.9 10.5 -149.1 13.3 C-147.5 13.7 -145.9 14.1 -144.2 14.4 C-139.1 15.7 -133.9 16.9 -128.7 18.1 C-121.6 19.8 -114.4 21.5 -107.2 23.3 C-105.5 23.7 -103.7 24.1 -101.9 24.5 C-90.9 27.1 -80 29.7 -69 32.3 C-67.7 32.6 -66.5 32.9 -65.1 33.2 C-59.1 34.6 -53.2 36.1 -47.2 37.5 C-45.1 37.9 -43 38.4 -40.9 38.9 C-39.2 39.3 -37.4 39.8 -35.5 40.2 C-31.4 41.2 -31.4 41.2 -28.4 42.2 C-28.5 43.2 -28.6 44.3 -28.7 45.3 C-29 59.6 -22.8 66.1 -13.4 76.2 C-11.4 78.7 -9.4 81.2 -7.5 83.7 C-6.6 84.8 -5.7 85.9 -4.8 87.1 C-3.3 89.1 -1.8 91 -0.3 93 C4.4 99.1 4.4 99.1 6.6 100.2 C6.6 76.8 6.6 53.3 6.6 29.2 C-3.8 29.2 -13.9 29.5 -24.2 30.2 C-28.4 30.2 -28.4 30.2 -32.4 28.2 C-32.5 24.5 -32.5 20.9 -32.4 17.2 C-30 14.8 -23.7 15.5 -20.4 15.2 C-20.4 14.3 -20.3 13.3 -20.2 12.4 C-20.2 11.2 -20.1 10 -20 8.8 C-19.9 7.6 -19.8 6.4 -19.7 5.1 C-19.4 2.2 -19.4 2.2 -18.4 1.2 C-12.3 0.5 -6.1 0.4 0 0 Z " fill="#C24525" transform="translate(404.4296875,86.796875)"/>
<path d="M0 0 C10.9 9.7 14.5 22.2 15.9 36.4 C16.2 44.6 16.1 52.7 16.1 60.9 C16.1 63.2 16.1 65.6 16.1 67.9 C16.1 72.8 16.1 77.7 16.1 82.6 C16.1 88.9 16.1 95.2 16.1 101.5 C16.1 106.3 16.1 111.1 16 116 C16 118.3 16 120.6 16 122.9 C16 126.1 16 129.4 16 132.6 C16 134.4 16 136.3 16 138.1 C15.9 142.4 15.9 142.4 14.9 145.4 C18.2 145.6 18.2 145.6 34.9 146.4 C34.9 143.1 34.9 139.8 34.9 136.4 C37.1 131.9 38.3 130.7 42.9 128.4 C45.2 128.4 47.5 128.3 49.9 128.4 C49.8 128 49.8 128 49.2 125.5 C48.8 120.4 49.9 117.1 51.9 112.4 C56.4 108 57.1 107.6 63.2 107.1 C68.5 107.5 70.2 108.7 73.9 112.4 C74.8 111 75.6 109.6 76.6 108.2 C79.9 103.3 82.3 100.3 87.9 98.4 C97.7 97.9 97.7 97.9 102.2 100.1 C106.5 103.9 109.5 106.8 110.9 112.4 C110.9 115.8 110.9 119.1 110.9 122.4 C111.9 122.1 112.9 121.8 113.9 121.4 C122 120.9 122 120.9 125.9 123.3 C129.9 127.6 129 131.7 128.9 137.4 C128.5 138.1 128.2 138.8 127.9 139.4 C129.3 139.7 130.8 140 132.2 140.3 C136.9 141.4 136.9 141.4 138.9 143.4 C146.1 143.8 153.2 143.1 160.4 142.2 C161.5 142 162.6 141.9 163.7 141.7 C167.3 141.3 171 140.8 174.6 140.4 C177.1 140.1 179.6 139.7 182.2 139.4 C188.8 138.6 195.4 137.8 202.1 136.9 C212.7 135.6 223.3 134.3 233.9 133 C237.7 132.5 241.4 132 245.1 131.6 C247.3 131.3 249.6 131 251.9 130.7 C252.4 130.7 252.4 130.7 255 130.3 C259.7 129.7 264.1 129.4 268.9 129.4 C268.9 135.7 268.9 142 268.9 148.4 C267.5 148.7 266.2 148.9 264.8 149.1 C252 151.2 239.2 153.2 226.4 155.3 C219.8 156.4 213.2 157.5 206.7 158.5 C200.3 159.6 193.9 160.6 187.6 161.6 C185.2 162 182.7 162.4 180.3 162.8 C176.9 163.3 173.5 163.9 170.1 164.4 C169 164.6 168 164.8 166.9 165 C159 166.2 151.2 167.6 143.4 168.9 C139.9 169.4 139.9 169.4 134.9 169.4 C134.9 171.1 134.9 172.7 134.9 174.4 C126.1 183.8 114.7 182.9 102.7 183.6 C96.3 184 91.7 184.8 85.9 187.4 C81.4 187.8 81.4 187.8 76.5 187.8 C75.7 187.8 75.7 187.8 71.7 187.8 C60.3 186.9 60.3 186.9 56.9 183.4 C53.4 182.9 50 182.5 46.5 182.1 C42.7 181.4 40.1 180.5 36.9 178.4 C36.2 177.1 35.6 175.8 34.9 174.4 C29.6 174.1 24.3 173.8 18.9 173.4 C18.5 167.2 18.2 160.9 17.9 154.4 C16.2 154.8 14.6 155.1 12.9 155.4 C12.2 154.8 11.6 154.1 10.9 153.4 C12 153.1 12 153.1 17.9 151.4 C10.5 150.7 3.1 150 -4.4 149.4 C-6.9 149.1 -9.4 148.9 -11.9 148.6 C-59 144.2 -59 144.2 -72.1 147.9 C-73.8 148.3 -75.5 148.8 -77.3 149.3 C-78.6 149.7 -79.8 150.1 -81.1 150.4 C-81.5 153.7 -81.8 157 -82.1 160.4 C-83.4 160.3 -84.6 160.2 -85.9 160.1 C-87.5 160 -89.1 159.9 -90.8 159.8 C-92.4 159.7 -94 159.6 -95.7 159.5 C-100.1 159.4 -100.1 159.4 -105.1 161.4 C-108.6 161.8 -112.1 161.9 -115.7 162 C-119.1 162.4 -119.1 162.4 -121.9 164 C-131.9 168.6 -147.7 166.1 -158.1 163.4 C-159.4 162.1 -160.8 160.8 -162.1 159.4 C-163.7 159.1 -165.3 158.9 -166.9 158.6 C-172.9 157.3 -175.7 155.7 -180.1 151.4 C-182.5 146.5 -183.3 143.6 -182.6 138.1 C-181.1 134.4 -181.1 134.4 -177.1 130.4 C-176.1 130.1 -175.1 129.8 -174.1 129.4 C-174.5 128.6 -174.5 128.6 -176.1 124.4 C-176.5 119.8 -176.7 116.6 -174.6 112.4 C-171 109.5 -167.6 109.4 -163.1 109.4 C-163.2 108.3 -163.3 107.2 -163.4 106 C-163 99.1 -161 94.3 -156.1 89.4 C-150.8 86.8 -147 86.8 -141.1 87.4 C-136.2 89.8 -133.8 92.7 -131.1 97.4 C-130.2 101.3 -130 104.5 -130.1 108.4 C-128.9 108.3 -127.7 108.2 -126.4 108.1 C-122.1 108.4 -122.1 108.4 -119.7 110.4 C-117.3 115 -117.1 119.4 -117.1 124.4 C-116.1 123.8 -115.1 123.1 -114.1 122.4 C-105.1 121.6 -105.1 121.6 -101.1 124.9 C-100.4 125.7 -99.8 126.6 -99.1 127.4 C-98.8 127.8 -98.5 128.1 -98.1 128.4 C-97.8 130.8 -97.4 133.1 -97.1 135.4 C-96.2 135.5 -95.2 135.6 -94.2 135.7 C-89.8 136.1 -85.4 136.5 -81 136.9 C-80.2 136.9 -80.2 136.9 -76.4 137.3 C-74.9 137.4 -73.4 137.5 -71.9 137.7 C-70.6 137.8 -69.2 137.9 -67.8 138 C-64.6 138.4 -61.4 138.9 -58.1 139.4 C-58.1 138.1 -58.1 136.8 -58.1 135.4 C-58.2 122.7 -58.3 110.1 -58.3 97.5 C-58.3 91 -58.3 84.5 -58.4 78 C-58.4 71.7 -58.4 65.4 -58.4 59.2 C-58.4 56.8 -58.4 54.4 -58.4 52 C-58.6 33.6 -58.1 17.4 -46 2.6 C-31.3 -9.4 -16.2 -10.1 0 0 Z " fill="#67845C" transform="translate(247.125,298.5625)"/>
<path d="M0 0 C9.9 9.8 19.2 20.8 26.9 32.4 C30 37 33.3 41.1 36.8 45.3 C41.2 50.7 45.4 56 49 62 C51.1 64.7 53.3 67.4 55.4 70 C56.6 71.4 57.7 72.8 58.9 74.2 C60.6 76.3 62.4 78.5 64.2 80.6 C66 83 66 83 67.3 85.8 C69.5 90 72.4 93.3 75.4 96.9 C79.5 101.8 82.9 106.5 86 112 C87.6 114.2 89.2 116.3 90.8 118.4 C91.2 118.9 91.2 118.9 93.4 121.8 C95 123.8 96.6 125.7 98.2 127.7 C99.9 129.7 101.5 131.8 103 134 C101.9 139.6 101.4 141.4 97 145 C92.2 145.7 87.6 145.3 82.8 145 C81.5 144.9 80.3 144.9 79 144.8 C74.4 144.6 69.7 144.3 65 144 C59.9 143.7 54.8 143.4 49.8 143.1 C48.4 143 46.9 142.9 45.5 142.8 C28.3 141.8 11.2 140.9 -6 140 C-29.7 138.8 -53.3 137.5 -77 136 C-75 131 -75 131 -72 126 C-68.7 126 -65.4 126 -62 126 C-62 125.3 -62 124.7 -62 124 C-63.5 124.2 -65 124.3 -66.6 124.5 C-72 124 -72 124 -75.6 120.7 C-76.6 119.2 -77.7 117.7 -78.8 116.1 C-79.1 115.7 -79.1 115.7 -80.6 113.7 C-82.4 111.1 -84.2 108.6 -86 106 C-88.2 103 -90.4 100 -92.6 96.9 C-93.6 95.4 -94.7 94 -95.8 92.4 C-100 86.6 -104.3 81 -108.7 75.3 C-113.3 69.3 -117.8 63.1 -122.3 57 C-127 50.6 -131.9 44.2 -136.8 37.9 C-139.6 34.3 -142 31 -144 27 C-136.2 27.6 -128.7 28.5 -121 30 C-121.4 29.5 -121.4 29.5 -123.3 26.7 C-124.3 25.3 -125.2 23.8 -126.2 22.4 C-127.2 21 -128.2 19.5 -129.2 18.1 C-131.5 14.7 -133.8 11.4 -136 8 C-130.4 9.4 -128.5 13.3 -125.4 17.9 C-125.1 18.3 -125.1 18.3 -123.6 20.4 C-121.4 23.6 -119.2 26.8 -117 30 C-113.3 30.8 -109.7 31.5 -105.9 32.1 C-104.9 32.2 -103.8 32.4 -102.7 32.6 C-93.8 33.9 -84.9 35.1 -76 36 C-78 33 -80 30.1 -82 27 C-81.3 26.3 -80.7 25.7 -80 25 C-79.6 25.8 -79.3 26.6 -78.9 27.5 C-75.3 33.8 -72.6 36.5 -65.5 38.6 C-60.4 39.5 -55.2 40.1 -50.1 40.7 C-46.9 41 -43.7 41.5 -40.6 42.1 C-35 43 -35 43 -30 43 C-30.2 42.3 -30.2 42.3 -31 39 C-30.3 39.8 -29.7 40.6 -29 41.4 C-25.2 44.7 -22.6 45 -17.6 45.8 C-16 46.1 -14.4 46.3 -12.8 46.6 C-11.9 46.7 -11.9 46.7 -7.7 47.3 C-6 47.6 -4.3 47.8 -2.6 48.1 C1.6 48.8 5.8 49.4 10 50 C9.6 49.6 9.6 49.6 7.8 47.6 C-0.4 37.5 -1.3 29.9 -0.6 17.1 C-0.6 15.5 -0.5 13.8 -0.5 12.1 C-0.4 8.1 -0.2 4 0 0 Z " fill="#B44124" transform="translate(434,157)"/>
<path d="M0 0 C0.7 0 1.3 0 2 0 C2.7 1.2 3.5 2.3 4.2 3.5 C9.2 10.9 14.6 17.9 20 25 C21.9 27.6 23.9 30.2 25.8 32.8 C26.8 34.1 27.8 35.4 28.8 36.8 C92.2 121.3 92.2 121.3 95.1 125.2 C97 127.7 99 130.3 100.9 132.9 C106.2 140 111.5 147.1 116.8 154.2 C122.7 162.3 128.7 170.3 134.8 178.2 C139.8 184.7 139.8 184.7 142 188 C145.3 188.4 148.7 188.8 152 189 C152 189.7 152 190.3 152 191 C148.7 191.3 145.4 191.7 142 192 C140.4 195 138.7 197.9 137 201 C138 201 138 201 143 200.9 C151.1 200.9 159.1 201.4 167.2 201.8 C168.7 201.9 170.2 202 171.8 202.1 C176.6 202.4 181.4 202.7 186.2 202.9 C192.5 203.3 198.8 203.7 205.1 204 C206.6 204.1 208.2 204.2 209.7 204.3 C220.2 204.9 230.7 205.3 241.2 205.7 C249.1 205.9 256.9 206.4 264.7 207 C275.8 207.8 286.9 208.4 298.1 208.8 C302.1 209 306 209.3 310 210 C309.7 210.7 309.3 211.3 309 212 C287.3 211.4 265.6 210.5 243.9 209.3 C243.1 209.3 243.1 209.3 239.2 209 C231.1 208.6 223 208.2 214.8 207.7 C208.2 207.4 201.5 207 194.8 206.7 C186.6 206.2 178.5 205.8 170.3 205.4 C167.2 205.2 164.2 205 161.1 204.9 C156.8 204.7 152.5 204.4 148.2 204.2 C146.9 204.1 145.7 204.1 144.4 204 C138.2 203.6 134.5 203.2 130 199 C128.5 197.1 127.1 195.1 125.7 193.1 C121.3 186.7 116.7 180.6 112 174.5 C106.7 167.6 101.5 160.7 96.5 153.6 C87.2 140.4 77.4 127.6 67.6 114.7 C63.4 109.2 59.2 103.6 55 98 C47.6 88.1 40.2 78.3 32.7 68.5 C26.7 60.6 20.8 52.7 14.9 44.8 C13.8 43.3 12.7 41.8 11.6 40.3 C10.6 38.9 9.5 37.6 8.5 36.2 C6 33 6 33 4 32 C3.3 33.7 2.7 35.3 2 37 C0.1 39.8 -1.9 42.5 -3.9 45.2 C-5.1 46.9 -6.2 48.5 -7.4 50.1 C-8 50.9 -8.6 51.7 -9.2 52.6 C-13.9 59 -18.4 65.5 -23 72 C-25 74.8 -27 77.7 -29 80.5 C-30 81.9 -31 83.3 -32 84.8 C-34 87.6 -36 90.4 -37.9 93.1 C-43.9 101.6 -49.9 110.1 -55.8 118.6 C-59.5 123.9 -63.3 129.2 -67 134.5 C-72.5 142.3 -77.9 150.1 -83.4 157.9 C-85.9 161.4 -88.3 164.9 -90.8 168.4 C-91.1 168.8 -91.1 168.8 -92.7 171.1 C-94.4 173.5 -96.1 176 -97.8 178.4 C-98.9 180 -99.9 181.5 -101 183 C-102.1 184.6 -103.2 186.1 -104.4 187.7 C-107.4 192.7 -107.8 196.3 -108 202 C-124.1 203.4 -124.1 203.4 -128.8 200 C-130.6 197.5 -130.6 197.5 -133 193 C-131.2 188.4 -129.2 185.2 -126.4 181.1 C-125.9 180.4 -125.9 180.4 -123.4 176.8 C-122.8 176 -122.8 176 -120 172 C-118.7 170.1 -117.4 168.3 -116.1 166.4 C-109.1 156.3 -102.1 146.3 -95 136.2 C-89.9 129 -84.8 121.8 -79.8 114.5 C-76.9 110.4 -74 106.3 -71.1 102.2 C-65.4 94 -59.7 85.8 -54 77.6 C-48.5 69.7 -43 61.9 -37.6 54.1 C-33 47.6 -28.5 41.1 -24 34.6 C-18.3 26.4 -12.6 18.3 -6.9 10.2 C-4.6 6.8 -2.3 3.4 0 0 Z " fill="#945531" transform="translate(220,92)"/>
<path d="M0 0 C6.9 6.1 11.5 12.3 13.1 21.6 C13.3 22.1 13.3 22.1 14.1 24.6 C14.2 28.4 14.3 32.2 14.2 36 C14.2 37.2 14.2 38.3 14.2 39.5 C14.2 43.4 14.2 47.3 14.2 51.2 C14.2 53.9 14.2 56.5 14.2 59.2 C14.2 66.3 14.2 73.4 14.2 80.5 C14.2 87.7 14.2 94.9 14.2 102.1 C14.2 116.3 14.1 130.5 14.1 144.6 C7.1 144.7 0.3 144.4 -6.7 143.8 C-7.7 143.7 -8.7 143.6 -9.7 143.5 C-12.8 143.2 -15.9 142.9 -19 142.6 C-21.1 142.4 -23.2 142.2 -25.4 142 C-30.5 141.6 -35.7 141.1 -40.9 140.6 C-40.9 126.5 -41 112.4 -41 98.3 C-41 91.7 -41 85.2 -41 78.6 C-41 72.3 -41.1 65.9 -41.1 59.6 C-41.1 57.2 -41.1 54.8 -41.1 52.4 C-41.2 17.8 -41.2 17.8 -32.9 6.6 C-23.7 -2.5 -11.8 -5.8 0 0 Z " fill="#BE4225" transform="translate(239.875,303.375)"/>
<path d="M0 0 C1.2 0 2.4 0.1 3.7 0.1 C5.1 0.1 6.5 0.2 7.9 0.2 C8.6 0.2 8.6 0.2 12.4 0.3 C13.2 0.3 13.2 0.3 17.1 0.5 C20.3 0.5 23.6 0.6 26.9 0.7 C31.9 0.9 36.8 1 41.8 1.1 C45 1.2 48.1 1.3 51.3 1.4 C52.8 1.4 54.3 1.5 55.8 1.5 C56.5 1.5 56.5 1.5 60.1 1.6 C61.3 1.7 62.5 1.7 63.8 1.7 C67.3 2.1 67.3 2.1 74.3 4.1 C74.3 26.8 74.3 49.6 74.3 73.1 C76.6 73.1 78.9 73.1 81.3 73.1 C81.3 77 81.3 81 81.3 85.1 C70.7 85.8 60.1 86.5 49.6 87.2 C46 87.4 42.4 87.7 38.8 87.9 C33.6 88.3 28.4 88.6 23.3 89 C21.7 89.1 20.1 89.2 18.4 89.3 C9.4 89.9 0.4 90.3 -8.7 90.1 C-9.7 89.1 -9.7 89.1 -9.9 83.6 C-9.7 78.1 -9.7 78.1 -8.7 77.1 C-7.1 77.1 -5.4 77.1 -3.7 77.1 C-3.7 76.1 -3.7 75.2 -3.7 74.2 C-3.8 64.3 -3.8 54.5 -3.8 44.6 C-3.8 41 -3.8 37.3 -3.8 33.6 C-3.8 28.3 -3.8 23.1 -3.8 17.8 C-3.8 16.1 -3.8 14.5 -3.8 12.8 C-3.8 11.2 -3.8 9.7 -3.8 8.1 C-3.8 6.8 -3.8 5.5 -3.9 4.1 C-3.7 0.1 -3.7 0.1 0 0 Z " fill="#68855D" transform="translate(394.7306213378906,318.9422149658203)"/>
<path d="M0 0 C0.8 0.3 1.7 0.6 2.5 0.9 C6.2 2.1 9.8 2.7 13.6 3.2 C14.4 3.3 14.4 3.3 18 3.9 C21.1 4.3 24.1 4.7 27.1 5.1 C28.6 5.4 30 5.6 31.5 5.8 C32.8 6 34.1 6.2 35.5 6.3 C46.3 8.4 52.7 17 59.2 25.2 C64.2 31.5 69.9 37 75.5 42.5 C79.2 46.2 82.6 50 86 54 C88 56 90 58 92 60 C90.1 68.9 90.1 68.9 89 70 C85.5 70.1 82 70.1 78.4 70.1 C76.5 70.1 74.6 70 72.6 70 C71.8 70 71.8 70 68 70 C68 75.6 68 81.2 68 87 C65 87 62.1 87 59 87 C57.3 84.3 55.7 81.7 54 79 C53.4 78 52.8 77 52.1 76 C51.5 75 50.9 74 50.2 72.9 C49.7 72 49.1 71 48.5 70 C47 67 47 67 46.9 63.9 C45.5 58.1 41.6 54.8 37.4 50.8 C36.5 49.9 35.6 49.1 34.8 48.2 C32 45.5 29.2 42.8 26.4 40.1 C24.6 38.2 22.7 36.4 20.8 34.5 C16.2 30 11.6 25.5 7 21 C-1.4 29.4 -9.4 38 -16.8 47.3 C-19 50 -19 50 -22.7 53.5 C-27.1 59.6 -27 64.2 -26.9 71.5 C-27 72.7 -27 73.9 -27 75.1 C-27 78.1 -27 81 -27 84 C-29.3 84 -31.6 84 -34 84 C-36.3 79.4 -38.6 74.8 -41 70 C-43.6 70 -46.3 70 -49 70 C-51 67 -53 64.1 -55 61 C-51.1 55.5 -47 50.9 -42.2 46.2 C-39 43 -36 39.5 -33 36 C-29.5 32.3 -26.1 28.5 -22.6 24.8 C-14.9 16.6 -7.4 8.4 0 0 Z " fill="#C24325" transform="translate(212,232)"/>
<path d="M0 0 C4.9 2.3 7.4 5.3 10 10 C11 13.9 11.1 17 11 21 C12.2 20.9 13.5 20.8 14.8 20.7 C19 21 19 21 21.4 23 C23.8 27.5 24 31.9 24 37 C25 36.3 26 35.7 27 35 C36 34.2 36 34.2 40.1 37.4 C40.7 38.3 41.3 39.1 42 40 C42.3 40.3 42.7 40.7 43 41 C44.3 47.3 43.6 51.1 41 57 C42 58 43 59 44 60 C44.9 62.8 44.9 62.8 45 66 C42.5 71 41.4 71.9 36 74 C32.5 74.3 29 74.4 25.5 74.6 C22 75 22 75 19.2 76.5 C9.3 81.1 -6.5 78.6 -17 76 C-18.3 74.7 -19.6 73.4 -21 72 C-22.6 71.7 -24.1 71.4 -25.8 71.1 C-31.7 69.8 -34.6 68.2 -39 64 C-41.4 59 -42.1 56.1 -41.4 50.7 C-40 47 -40 47 -36 43 C-35.5 42.8 -35.5 42.8 -33 42 C-33.7 40.4 -34.3 38.7 -35 37 C-35.4 32.3 -35.6 29.2 -33.4 25 C-29.9 22.1 -26.5 22 -22 22 C-22.1 20.9 -22.2 19.7 -22.2 18.6 C-21.9 11.6 -19.9 6.9 -14.9 1.9 C-9.6 -0.7 -5.8 -0.6 0 0 Z " fill="#5F6247" transform="translate(106,386)"/>
<path d="M0 0 C4.7 2.4 6.2 4.6 9.2 8.8 C14.1 15.4 18.9 21.9 23.9 28.3 C29.1 35.2 34.3 42 39.4 49 C44 55.3 48.7 61.6 53.5 67.8 C57.3 72.7 61 77.7 64.7 82.6 C67 85.7 69.3 88.7 71.6 91.8 C80.1 103.1 88.6 114.6 97 126 C105.6 137.7 114.3 149.4 123 161 C123.5 161.7 123.5 161.7 126.2 165.4 C129 169 129 169 131 170 C133.1 170.2 135.3 170.3 137.4 170.5 C138.8 170.5 140.2 170.6 141.6 170.7 C143.1 170.8 144.6 170.9 146.2 170.9 C147.8 171 149.4 171.1 151 171.2 C156.3 171.5 161.6 171.8 166.9 172.1 C170.5 172.3 174.2 172.5 177.8 172.7 C187.4 173.2 197.1 173.7 206.7 174.2 C216.5 174.8 226.3 175.3 236.2 175.8 C255.4 176.9 274.7 178 294 179 C292.7 179.3 291.4 179.7 290 180 C290 182.6 290 185.3 290 188 C273.6 188.2 257.4 187.5 241 186.7 C238.3 186.6 235.5 186.5 232.7 186.3 C227 186.1 221.2 185.8 215.5 185.5 C208.1 185.1 200.8 184.8 193.5 184.4 C186.4 184.1 179.4 183.8 172.3 183.4 C171 183.3 169.7 183.3 168.3 183.2 C162.2 182.9 156.2 182.6 150.1 182.3 C146.4 182.1 142.7 182 139.1 181.8 C137.7 181.8 136.4 181.7 135 181.7 C133.9 181.6 132.8 181.6 131.7 181.6 C126.8 180.5 124.8 176.8 122.2 172.9 C121.1 171.3 120.1 169.7 119 168 C115.2 162.4 111.2 157 107.1 151.6 C103 146.5 99.3 141.2 95.8 135.7 C94 133 92 130.5 90 128 C88.6 126.1 87.2 124.2 85.8 122.3 C85 121.4 84.3 120.4 83.6 119.4 C82 117 82 117 82 115 C80.7 114.3 79.4 113.7 78 113 C75.2 109 73.2 105.8 72 101 C71.3 101 70.7 101 70 101 C69.3 99.8 69.3 99.8 66 94 C66.3 93.3 66.7 92.7 67 92 C66 92.3 65 92.7 64 93 C63.2 91.9 62.5 90.8 61.7 89.7 C59 86 59 86 56 83 C54.8 81.4 53.6 79.7 52.4 78.1 C45.8 68.9 39 59.9 32 51 C30.9 49.5 29.7 48.1 28.6 46.6 C26 43.3 23.5 40.1 20.9 36.9 C15.5 30.2 10.5 23.4 6 16 C6.7 15 7.3 14 8 13 C3.2 13.8 1.3 14.6 -1.9 18.3 C-2.3 19 -2.3 19 -4.7 22.6 C-5.7 24.1 -6.8 25.6 -7.8 27.2 C-8.9 28.8 -9.9 30.4 -11 32 C-13 34.8 -14.9 37.6 -16.9 40.4 C-17.9 41.8 -18.9 43.3 -19.9 44.7 C-23 49 -26.1 53.3 -29.2 57.6 C-35 65.5 -40.5 73.5 -46.1 81.5 C-51.2 88.8 -56.4 96.1 -61.7 103.3 C-65.5 108.7 -69.3 114.1 -73 119.5 C-78.8 127.9 -84.7 136.2 -90.7 144.5 C-94.4 149.6 -98.1 154.7 -101.7 159.9 C-102.3 160.7 -102.9 161.6 -103.5 162.5 C-105.9 165.9 -108.1 169.2 -110 173 C-110.7 173 -111.3 173 -112 173 C-113.6 162.4 -110.8 157.1 -104.6 148.5 C-103.4 146.8 -102.1 145.2 -100.9 143.5 C-97.8 139.4 -94.9 135.1 -91.9 130.9 C-86.7 123.3 -81.4 115.8 -76.1 108.3 C-72.7 103.6 -69.3 98.8 -66 94 C-59.7 85 -53.4 76 -47 67 C-45 64.2 -43 61.3 -41 58.5 C-37 52.8 -33 47.2 -29 41.5 C-28 40.1 -27 38.7 -26 37.3 C-24 34.4 -22 31.6 -20 28.7 C-13.2 19.2 -6.6 9.6 0 0 Z " fill="#D8B78B" transform="translate(224,124)"/>
<path d="M0 0 C10.9 9.7 14.5 22.2 15.9 36.4 C16.2 44.6 16.1 52.7 16.1 60.9 C16.1 63.2 16.1 65.6 16.1 67.9 C16.1 72.8 16.1 77.7 16.1 82.6 C16.1 88.9 16.1 95.2 16.1 101.5 C16.1 106.3 16.1 111.1 16 116 C16 118.3 16 120.6 16 122.9 C16 126.1 16 129.4 16 132.6 C16 134.4 16 136.3 16 138.1 C15.9 142.4 15.9 142.4 14.9 145.4 C18.2 145.6 18.2 145.6 34.9 146.4 C36.9 149.7 38.8 153 40.9 156.4 C39.2 157.4 37.6 158.4 35.9 159.4 C33 164.5 32.6 168.6 32.9 174.4 C28.3 174.1 23.6 173.8 18.9 173.4 C18.5 167.2 18.2 160.9 17.9 154.4 C16.2 154.8 14.6 155.1 12.9 155.4 C12.2 154.8 11.6 154.1 10.9 153.4 C12 153.1 12 153.1 17.9 151.4 C16.2 151.3 14.6 151.1 12.9 151 C7.9 150.4 7.9 150.4 6.9 149.4 C6.8 145.7 6.7 142.1 6.7 138.4 C6.7 137.2 6.7 136.1 6.7 134.9 C6.7 132.3 6.7 129.8 6.6 127.3 C6.6 123.3 6.6 119.2 6.6 115.2 C6.5 103.8 6.4 92.4 6.4 81 C6.4 74.1 6.3 67.1 6.3 60.1 C6.3 57.5 6.2 54.8 6.2 52.2 C6.2 48.4 6.2 44.7 6.2 41 C6.2 39.9 6.2 38.8 6.2 37.7 C6.1 32.6 5.8 29.2 3.9 24.4 C3.6 23.2 3.4 22 3.2 20.7 C1.1 13.9 -2.8 9.3 -8.2 4.9 C-15.1 2.3 -22 2.5 -29 4.6 C-29.5 4.9 -29.5 4.9 -32.1 6.4 C-33.3 7.1 -34.5 7.8 -35.7 8.4 C-44.8 16.4 -46.2 26 -47.1 37.4 C-47.4 45.6 -47.3 53.8 -47.3 62 C-47.3 64.4 -47.3 66.7 -47.3 69.1 C-47.3 75.2 -47.2 81.3 -47.2 87.5 C-47.2 97.4 -47.1 107.2 -47.1 117.1 C-47.1 120.5 -47.1 124 -47.1 127.4 C-47.1 129.5 -47 131.6 -47 133.7 C-47 135.6 -47 137.4 -47 139.3 C-47.1 143.4 -47.1 143.4 -48.1 145.4 C-48.9 145.4 -48.9 145.4 -52.8 145.1 C-62.5 145.1 -71.8 148 -81.1 150.4 C-81.5 153.7 -81.8 157 -82.1 160.4 C-87.4 160.1 -92.7 159.8 -98.1 159.4 C-98.5 158.8 -98.8 158.1 -99.1 157.4 C-98.8 156.8 -98.8 156.8 -97.1 153.4 C-97.5 149.2 -97.5 149.2 -98.1 145.4 C-99.1 145.1 -100.1 144.8 -101.1 144.4 C-100.1 141.8 -99.1 139.2 -98.1 136.4 C-95 136.6 -91.9 136.7 -88.8 136.8 C-87.1 136.9 -85.4 137 -83.6 137 C-78.1 137.3 -72.7 137.9 -67.2 138.5 C-65.5 138.6 -63.8 138.8 -62.1 139 C-60.8 139.2 -59.5 139.3 -58.1 139.4 C-58.1 138.1 -58.1 136.8 -58.1 135.4 C-58.2 122.7 -58.3 110.1 -58.3 97.5 C-58.3 91 -58.3 84.5 -58.4 78 C-58.4 71.7 -58.4 65.4 -58.4 59.2 C-58.4 56.8 -58.4 54.4 -58.4 52 C-58.6 33.6 -58.1 17.4 -46 2.6 C-31.3 -9.4 -16.2 -10.1 0 0 Z " fill="#945632" transform="translate(247.125,298.5625)"/>
<path d="M0 0 C1 0 1 0 5.8 0 C6.8 0 6.8 0 11.5 0 C13.9 0 16.3 0 18.7 0.1 C26.3 0.1 33.9 0.1 41.7 0.1 C42 21.9 42.3 43.7 42.7 66.1 C43.7 66.4 44.6 66.8 45.7 67.1 C45.7 69.8 45.7 72.4 45.7 75.1 C44.7 76.1 44.7 76.1 39.4 76.2 C29.7 76.2 20.1 75.7 10.4 75.2 C8.5 75.1 6.6 75 4.7 74.9 C2.9 74.8 1.1 74.7 -0.7 74.6 C-2.4 74.6 -4 74.5 -5.7 74.4 C-9.3 74.1 -9.3 74.1 -10.3 73.1 C-10.4 70.4 -10.4 67.8 -10.3 65.1 C-8.7 65.1 -7 65.1 -5.3 65.1 C-5.3 63.2 -5.3 61.2 -5.4 59.3 C-5.4 52.1 -5.4 45 -5.4 37.8 C-5.4 34.7 -5.4 31.6 -5.4 28.5 C-5.4 24.1 -5.4 19.7 -5.4 15.2 C-5.4 13.8 -5.4 12.4 -5.4 11 C-5.4 7.7 -5.4 4.4 -5.3 1.1 C-4.3 0.1 -4.3 0.1 0 0 Z " fill="#67835B" transform="translate(130.336181640625,317.886474609375)"/>
<path d="M0 0 C2.5 0.2 5.1 0.5 7.6 0.7 C13.8 1.3 19.9 1.9 26.1 2.4 C26.2 2.8 26.2 2.8 27.1 4.4 C25.1 5.1 23.1 5.8 21.1 6.4 C22.1 6.3 22.1 6.3 27.1 5.4 C27.1 12.7 27.1 20 27.1 27.4 C-11.6 45.6 -50.2 36.9 -90.9 30.4 C-90.9 26.8 -90.9 23.2 -90.9 19.4 C-89 19.6 -87.1 19.9 -85.2 20.1 C-78.1 20.9 -71 21.7 -63.9 22.4 C-60.8 22.8 -57.8 23.1 -54.7 23.4 C-50.3 23.9 -45.8 24.4 -41.4 24.9 C-40.1 25.1 -38.7 25.2 -37.3 25.4 C-24 26.8 -13.6 27.3 -0.9 22.4 C-2.6 22.3 -4.2 22.1 -5.9 21.9 C-12.1 21.3 -18.2 20.6 -24.4 20 C-27.1 19.7 -29.7 19.4 -32.4 19.2 C-60.7 16.2 -60.7 16.2 -73.9 14.4 C-73.9 10.5 -73.9 6.5 -73.9 2.4 C-49.4 -6.3 -25.4 -2.4 0 0 Z " fill="#D4B489" transform="translate(238.9375,446.5625)"/>
<path d="M0 0 C8.1 -0.3 15 1.2 22.6 4.2 C24.4 6.1 24 9.2 24.1 11.8 C24.2 13 24.3 14.2 24.4 15.4 C24.4 16.3 24.5 17.2 24.6 18.2 C27.9 19.2 31.2 20.2 34.6 21.2 C34.6 24.8 34.6 28.5 34.6 32.2 C32.9 32.9 31.3 33.5 29.6 34.2 C29.6 57.6 29.6 81.1 29.6 105.2 C21.7 103.9 13.7 102.6 5.6 101.2 C5.9 77.4 6.2 53.7 6.6 29.2 C-3.8 29.2 -13.9 29.5 -24.2 30.2 C-28.4 30.2 -28.4 30.2 -32.4 28.2 C-32.5 24.5 -32.5 20.9 -32.4 17.2 C-30 14.8 -23.7 15.5 -20.4 15.2 C-20.4 14.3 -20.3 13.3 -20.2 12.4 C-20.2 11.2 -20.1 10 -20 8.8 C-19.9 7.6 -19.8 6.4 -19.7 5.1 C-19.4 2.2 -19.4 2.2 -18.4 1.2 C-12.3 0.5 -6.1 0.4 0 0 Z " fill="#F2D6AC" transform="translate(404.4296875,86.796875)"/>
<path d="M0 0 C4.3 -0 8.5 -0 12.8 -0.1 C14 -0.1 15.2 -0.1 16.4 -0.1 C17 -0.1 17 -0.1 19.9 -0.1 C21 -0.1 22.1 -0.1 23.2 -0.1 C26 0 26 0 30 1 C33.6 1.1 37.3 1 40.9 0.9 C45.6 1 50.3 1.5 55 2 C55 10.6 55 19.2 55 28 C55.7 28 56.3 28 57 28 C57 31 57 33.9 57 37 C56.7 37 56.3 37 56 37 C55.7 43.9 55.3 50.9 55 58 C45.8 58.7 36.5 59.3 27 60 C25.8 53.9 25.9 48.3 26 42 C25.7 47.6 25.3 53.2 25 59 C19.3 59.7 14.2 60.1 8.5 60.1 C7.1 60.1 5.7 60 4.2 60 C3.2 60 2.1 60 1 60 C1 59.6 1 59.6 1 57.4 C1 53.5 1 49.6 1.1 45.7 C1.1 44.3 1.1 43 1.1 41.6 C1.1 40.3 1.1 39 1.1 37.6 C1.1 36.4 1.1 35.2 1.1 34 C1 31 1 31 0 28 C-0.1 25.9 -0.1 23.7 -0.1 21.6 C-0.1 20.3 -0.1 19.1 -0.1 17.8 C-0.1 16.5 -0.1 15.2 -0.1 13.8 C-0.1 12.5 -0.1 11.2 -0 9.8 C-0 6.5 -0 3.3 0 0 Z " fill="#668059" transform="translate(401,329)"/>
<path d="M0 0 C0 6.3 0 12.5 0 19 C-1.4 19.2 -2.7 19.4 -4.1 19.7 C-16.9 21.7 -29.7 23.8 -42.5 25.9 C-49.1 27 -55.6 28 -62.2 29.1 C-68.6 30.1 -74.9 31.1 -81.3 32.2 C-83.7 32.6 -86.1 33 -88.5 33.3 C-91.9 33.9 -95.4 34.5 -98.8 35 C-99.8 35.2 -100.9 35.4 -102 35.5 C-109.8 36.8 -117.7 38.1 -125.5 39.5 C-129 40 -129 40 -134 40 C-134.7 38.7 -135.3 37.4 -136 36 C-134.4 35 -132.7 34 -131 33 C-128 29 -127.9 25.6 -127.9 20.8 C-128 18.9 -128 17 -128 15 C-112.2 13 -96.4 11.1 -80.6 9.1 C-73.3 8.2 -65.9 7.3 -58.6 6.4 C-51.5 5.5 -44.4 4.7 -37.3 3.8 C-34.6 3.4 -31.9 3.1 -29.2 2.8 C-25.4 2.3 -21.7 1.8 -17.9 1.4 C-16.8 1.2 -15.6 1.1 -14.5 1 C-9.6 0.4 -4.9 0 0 0 Z " fill="#945531" transform="translate(516,428)"/>
<path d="M0 0 C7.6 5.7 11.8 11.8 13.7 21.1 C14.9 30.7 12.3 39.5 6.7 47.4 C1.1 53.1 -4.4 55.6 -12.3 56.4 C-20.5 55.7 -26.3 53 -31.9 47.1 C-37.1 37.8 -38.8 30.5 -37.9 20.1 C-35.3 11.1 -31 4.9 -23.4 -0.4 C-15.3 -3.2 -8 -3.1 0 0 Z " fill="#647754" transform="translate(237.9375,173.9375)"/>
<path d="M0 0 C4.3 1.4 5 4.1 7 8 C-0.6 19.1 -8.2 30.1 -16 41 C-18 43.8 -20 46.7 -22 49.5 C-26 55.2 -30 60.8 -34 66.5 C-35 67.9 -36 69.3 -37 70.8 C-39 73.6 -41 76.4 -42.9 79.1 C-48.9 87.6 -54.9 96.1 -60.8 104.6 C-64.5 109.9 -68.3 115.2 -72 120.5 C-77.5 128.3 -83 136.1 -88.4 143.9 C-90.8 147.4 -93.3 150.8 -95.7 154.1 C-96.9 155.8 -98.1 157.5 -99.3 159.1 C-100.4 160.6 -101.4 162.1 -102.6 163.6 C-105.3 168.6 -105.8 172.3 -106 178 C-111.9 178 -117.9 178 -124 178 C-118 168.4 -111.6 159.2 -105 150 C-99.1 141.7 -93.3 133.4 -87.5 125 C-81.7 116.6 -75.9 108.3 -70 100 C-61.3 87.7 -52.6 75.4 -44 63 C-22.7 32.5 -22.7 32.5 -12.8 18.7 C-8.4 12.6 -4.1 6.3 0 0 Z " fill="#5F5D43" transform="translate(218,116)"/>
<path d="M0 0 C-0.3 23.8 -0.7 47.5 -1 72 C-5.5 69.8 -6.9 67.8 -9.9 63.9 C-14.1 58.4 -18.4 53 -22.8 47.7 C-23.8 46.3 -24.9 45 -26 43.6 C-29 40 -29 40 -31.4 37.6 C-36.2 32.6 -36.4 28.6 -36.4 21.9 C-36.3 19.3 -36.2 16.6 -36 14 C-37 13.7 -38 13.3 -39 13 C-38 13 -37 13 -36 13 C-36 11.2 -36 9.4 -36.1 7.6 C-36 2 -36 2 -35 1 C-32.2 0.8 -29.3 0.6 -26.4 0.4 C-24.9 0.4 -23.3 0.3 -21.7 0.2 C-14.5 -0 -7.2 0 0 0 Z " fill="#FAE7C4" transform="translate(412,115)"/>
<path d="M0 0 C3.6 0 7.3 0 11 0 C11.3 41.2 11.7 82.5 12 125 C9.7 126.3 7.4 127.6 5 129 C2.6 133.7 2.4 137.7 2 143 C1 143 0 143 -1 143 C-1.2 127.6 -1.3 112.2 -1.4 96.8 C-1.5 89.6 -1.6 82.5 -1.6 75.3 C-1.7 68.4 -1.8 61.5 -1.8 54.6 C-1.9 51.9 -1.9 49.3 -1.9 46.7 C-2 43 -2 39.3 -2 35.6 C-2 34.5 -2 33.4 -2.1 32.3 C-2.1 27.4 -2 22.8 -1 18 C-0.3 18 0.3 18 1 18 C0.7 17.3 0.3 16.7 0 16 C-0.1 13.3 -0.1 10.6 -0.1 7.9 C-0.1 6.4 -0 4.9 -0 3.4 C-0 2.3 -0 1.2 0 0 Z " fill="#D7B68A" transform="translate(280,302)"/>
<path d="M0 0 C8.1 -0.3 15 1.2 22.6 4.2 C24.4 6.1 24 9.2 24.1 11.8 C24.2 13 24.3 14.2 24.4 15.4 C24.4 16.3 24.5 17.2 24.6 18.2 C27.9 19.2 31.2 20.2 34.6 21.2 C34.6 24.9 34.6 28.5 34.6 32.2 C33.6 33.2 33.6 33.2 30.4 33.5 C26.1 33.2 22.9 32.5 18.8 31.2 C4.8 27.3 -10 29.2 -24.3 30.2 C-28.4 30.2 -28.4 30.2 -32.4 28.2 C-32.5 24.5 -32.5 20.9 -32.4 17.2 C-30 14.8 -23.7 15.5 -20.4 15.2 C-20.4 14.3 -20.3 13.3 -20.2 12.4 C-20.2 11.2 -20.1 10 -20 8.8 C-19.9 7.6 -19.8 6.4 -19.7 5.1 C-19.4 2.2 -19.4 2.2 -18.4 1.2 C-12.3 0.5 -6.1 0.4 0 0 Z " fill="#983E22" transform="translate(404.4296875,86.796875)"/>
<path d="M0 0 C1.3 0.3 2.6 0.7 4 1 C7.6 10.7 8.2 20.7 9 31 C9.5 29.2 10.1 27.4 10.6 25.6 C13.2 17.9 16.5 11.9 23 7 C24.3 7.3 25.6 7.7 27 8 C26.5 14 25.1 18.9 22.9 24.5 C22.4 25.9 21.8 27.3 21.3 28.8 C20.9 29.8 20.4 30.9 20 32 C21 31.2 21.9 30.4 22.9 29.6 C27.5 26.7 30.7 26.2 36 26 C34.9 31.7 33.2 33.7 29.4 38.1 C28.4 39.3 27.4 40.5 26.4 41.7 C19.9 48 14.4 49.5 5.6 49.4 C4 49.4 2.4 49.4 0.8 49.4 C-10.4 48.4 -17.2 43.8 -25 36 C-24.7 35 -24.3 34 -24 33 C-17.2 33.4 -12.1 35 -6 38 C-6.5 37.4 -6.5 37.4 -9.2 34.6 C-14.1 28.6 -18 23.9 -18 16 C-17 15.7 -16 15.3 -15 15 C-9.5 17.9 -6 22.3 -2 27 C-1.7 27 -1.3 27 -1 27 C-1.3 25.8 -1.7 24.5 -2 23.2 C-3.5 15.3 -4.7 7.1 0 0 Z " fill="#5E5D44" transform="translate(318,437)"/>
<path d="M0 0 C9.5 -0.2 18.8 0.9 28.2 2 C30.4 2.3 32.6 2.5 34.8 2.7 C52.7 4.4 52.7 4.4 58 8.2 C60.1 10.7 61.5 13.1 63 16 C64.1 17.5 65.1 19 66.2 20.5 C67.1 21.8 68 23.2 69 24.6 C69.9 26 70.9 27.4 71.9 28.9 C72.6 29.9 73.3 30.9 74 32 C69.1 33.2 65.3 32.7 60.2 32.3 C58.3 32.1 56.3 31.9 54.3 31.8 C53.8 31.7 53.8 31.7 51.3 31.5 C48.2 31.2 45.1 30.9 42.1 30.6 C40.1 30.5 38.2 30.3 36.2 30.1 C35.3 30 35.3 30 30.8 29.6 C20.1 28.2 20.1 28.2 15.4 22.9 C14.2 21.2 13 19.5 11.9 17.8 C11.3 17 10.7 16.1 10.1 15.3 C8.4 12.9 6.7 10.4 5 8 C4 6.7 3.1 5.3 2.1 3.9 C0 1 0 1 0 0 Z " fill="#C94626" transform="translate(318,221)"/>
<path d="M0 0 C4.3 4.1 7.8 8.5 11.4 13.1 C12 13.9 12.6 14.7 13.3 15.5 C18.9 22.8 24.3 30.2 29.8 37.6 C33.3 42.4 36.9 47.1 40.5 51.8 C44.3 56.7 48 61.7 51.7 66.6 C54 69.7 56.3 72.7 58.6 75.8 C67.1 87.1 75.6 98.6 84 110 C91.7 120.5 99.5 131 107.4 141.5 C110 145 112.5 148.5 115 152 C114.3 153.3 113.7 154.6 113 156 C113.7 156 114.3 156 115 156 C115 158.6 115 161.3 115 164 C110.2 158.1 105.7 152.2 101.8 145.8 C98.4 140.4 94.5 135.8 90.4 131 C86.8 126.6 84 121.8 81 117 C79.7 115.3 78.3 113.7 77 112 C75.6 110.1 74.2 108.2 72.8 106.3 C72 105.4 71.3 104.4 70.6 103.4 C69 101 69 101 69 99 C68.3 98.7 68.3 98.7 65 97 C62.2 93 60.2 89.8 59 85 C58.3 85 57.7 85 57 85 C56.3 83.8 56.3 83.8 53 78 C53.3 77.3 53.7 76.7 54 76 C53 76.3 52 76.7 51 77 C50.2 75.9 49.5 74.8 48.7 73.7 C46 70 46 70 43 67 C41.8 65.4 40.6 63.7 39.4 62.1 C32.8 52.9 26 43.9 19 35 C17.9 33.5 16.7 32.1 15.6 30.6 C13 27.3 10.5 24.1 7.9 20.9 C-1.8 8.7 -1.8 8.7 -3 4 C-2 3.3 -1 2.7 0 2 C0 1.3 0 0.7 0 0 Z " fill="#E0C095" transform="translate(237,140)"/>
<path d="M0 0 C10.2 -0.1 20.3 0.5 30.4 1.2 C32.4 1.3 34.3 1.4 36.3 1.4 C50.2 2.5 50.2 2.5 55.4 6.9 C57.9 10.2 60 13.4 62 17 C63.3 18.8 64.7 20.5 66.1 22.2 C69 26 69 26 69 27 C58.3 27.1 47.6 26.8 36.9 26.3 C36 26.3 36 26.3 31.5 26.2 C18.8 25.5 18.8 25.5 13.7 21.2 C11.1 17.9 9 14.6 7 11 C5.6 9.1 4.3 7.2 2.9 5.2 C0 1 0 1 0 0 Z " fill="#C64426" transform="translate(468,265)"/>
<path d="M0 0 C0 4 0 7.9 0 12 C-10.6 12.7 -21.1 13.4 -31.7 14.1 C-35.3 14.4 -38.9 14.6 -42.5 14.9 C-47.7 15.2 -52.8 15.6 -58 15.9 C-59.6 16 -61.2 16.1 -62.8 16.2 C-71.9 16.8 -80.9 17.2 -90 17 C-91 16 -91 16 -91.1 10.5 C-91 5 -91 5 -90 4 C-87.5 3.8 -85 3.6 -82.5 3.5 C-80.9 3.4 -79.3 3.4 -77.6 3.3 C-75.8 3.2 -74.1 3.1 -72.2 3 C-70.4 2.9 -68.6 2.9 -66.8 2.8 C-63 2.6 -59.2 2.4 -55.3 2.2 C-49.5 1.9 -43.6 1.7 -37.8 1.4 C-34.1 1.2 -30.4 1 -26.7 0.8 C-25.8 0.8 -25.8 0.8 -21.4 0.6 C-19.7 0.5 -18.1 0.4 -16.4 0.4 C-15 0.3 -13.5 0.2 -12.1 0.1 C-8 0 -4 -0 0 0 Z " fill="#955531" transform="translate(476,392)"/>
<path d="M0 0 C7.7 6.5 14.8 13.5 22 20.6 C23.6 22.2 25.2 23.7 26.8 25.3 C29.1 27.5 31.4 29.8 33.7 32.1 C35.1 33.4 36.5 34.8 37.9 36.2 C41.1 40.2 41.8 42 42 47 C43.4 49.8 43.4 49.8 45.1 52.3 C48 57 48 57 48 59 C42.9 57.3 40.1 53.1 36.7 49.1 C33 45 33 45 29.5 41.9 C24.1 37.2 19.1 32.2 14.1 27.2 C13.1 26.2 12.1 25.3 11.2 24.3 C10.3 23.4 9.3 22.5 8.4 21.5 C7.6 20.7 6.8 19.9 5.9 19 C4 17 4 17 3 15 C-1.6 17.3 -3.6 19.8 -6.9 23.8 C-8 25 -9 26.2 -10 27.4 C-12 29.7 -13.9 32.1 -15.8 34.5 C-16.1 34.9 -16.1 34.9 -18 37 C-18.7 37 -19.3 37 -20 37 C-20.7 38.3 -21.3 39.6 -22 41 C-22.7 40 -23.3 39 -24 38 C-24.3 38.2 -24.3 38.2 -26 39 C-27.3 38.7 -28.6 38.3 -30 38 C-30 39 -30 40 -30 41 C-28.3 41 -26.7 41 -25 41 C-25 44 -25 44 -27.9 47.5 C-31.8 53.1 -31.8 56.3 -32 63 C-32.3 63 -32.7 63 -33 63 C-34.8 41.5 -34.8 41.5 -30.7 33.6 C-27.6 30.1 -24.5 27.1 -21 24 C-19.2 22.1 -17.4 20.1 -15.7 18.1 C-14.9 17.2 -14.1 16.4 -13.3 15.5 C-8.7 10.4 -4.2 5.4 0 0 Z " fill="#EDD0A6" transform="translate(218,252)"/>
<path d="M0 0 C8.9 0.5 17.7 1.4 26.6 2.4 C27.6 2.6 28.7 2.7 29.7 2.8 C41.5 4.3 41.5 4.3 45.9 9.4 C46.9 10.8 48 12.2 49 13.6 C50 15 51 16.4 52.1 17.8 C54.8 21.8 57.5 25.8 60 30 C51.5 30.2 43.1 29.6 34.7 28.8 C33.3 28.7 32 28.6 30.6 28.5 C29.3 28.4 28 28.3 26.7 28.1 C25.5 28 24.4 27.9 23.2 27.8 C16.1 26 12.4 18.6 8.3 12.9 C7.7 12.1 7.7 12.1 4.9 8.2 C2 4 2 4 0 0 Z " fill="#C74426" transform="translate(377,228)"/>
<path d="M0 0 C9.9 9.9 19.2 20.8 26.9 32.4 C30 37 33.4 41.2 36.9 45.4 C39.4 48.5 41.7 51.7 44 55 C38.6 56.4 33.8 55.1 28.4 54.1 C27.9 54 27.9 54 25.2 53.6 C14.2 51.6 14.2 51.6 10.1 46.3 C9.4 45.4 8.7 44.5 7.9 43.6 C5.8 40.8 3.9 38 2 35 C1.3 35 0.7 35 0 35 C0 23.4 0 11.9 0 0 Z " fill="#C14325" transform="translate(434,157)"/>
<path d="M0 0 C7.6 5.7 11.8 11.8 13.7 21.1 C14.9 30.7 12.3 39.5 6.7 47.4 C1.1 53.1 -4.4 55.6 -12.3 56.4 C-20.5 55.7 -26.3 53 -31.9 47.1 C-37.1 37.8 -38.8 30.5 -37.9 20.1 C-35.3 11.1 -31 4.9 -23.4 -0.4 C-15.3 -3.2 -8 -3.1 0 0 Z M-28.3 11.8 C-33.2 19.7 -33.5 26 -31.9 35.1 C-28.3 42.8 -24.9 46.8 -16.9 50.1 C-11.1 50.8 -7.1 49.9 -1.9 47.1 C3.3 42.7 6.4 37.6 8.1 31.1 C8.6 23.7 7.4 18.6 4.1 12.1 C-1.2 6.8 -4.2 4.2 -11.6 3.8 C-19.3 4.2 -23.2 6.1 -28.3 11.8 Z " fill="#955531" transform="translate(237.9375,173.9375)"/>
<path d="M0 0 C5.3 0.2 10.7 0.6 16 1 C17 1 17 1 21.8 1.3 C36.9 2.3 36.9 2.3 42.4 6.7 C45 10 47 13.3 49 17 C50.4 18.9 51.7 20.9 53.1 22.8 C56 27 56 27 56 28 C52.3 28 48.7 28 45 28 C43.9 28 42.8 28 41.7 28 C20.1 27.7 20.1 27.7 12.7 21.3 C9.7 17 7.3 12.7 5 8 C3.4 5.6 1.7 3.3 0 1 C0 0.7 0 0.3 0 0 Z " fill="#C64426" transform="translate(423,234)"/>
<path d="M0 0 C33.4 2.9 33.4 2.9 43.1 9.9 C45.7 13.2 47.9 16.4 50 20 C51.5 21.9 53.1 23.8 54.7 25.7 C58 30 58 30 58 32 C54.9 31.6 51.9 31.2 48.9 30.7 C45.1 30.2 41.3 29.7 37.5 29.4 C19.4 27.2 19.4 27.2 12.8 21.1 C9.8 16.9 7.4 12.6 5 8 C3.4 5.7 1.7 3.3 0 1 C0 0.7 0 0.3 0 0 Z " fill="#C84626" transform="translate(341,143)"/>
<path d="M0 0 C9.2 -0.6 9.2 -0.6 13.1 2.4 C13.7 3.3 14.3 4.1 15 5 C15.2 5.2 15.2 5.2 16 6 C17.3 12.3 16.6 16.1 14 22 C15 23 16 24 17 25 C17.9 27.8 17.9 27.8 18 31 C15.5 36 14.4 36.9 9 39 C5.7 39 5.7 39 2.2 38.6 C1 38.5 -0.1 38.4 -1.3 38.3 C-2.2 38.2 -3.1 38.1 -4 38 C-4 35.4 -4 32.7 -4 30 C-5.3 29.3 -6.6 28.7 -8 28 C-7.8 26.9 -7.6 25.8 -7.4 24.7 C-7 21 -7 21 -9 18 C-13.1 17.3 -13.1 17.3 -17 17 C-15 15 -15 15 -12 14 C-11.3 13 -10.7 12 -10 11 C-10.3 10 -10.7 9 -11 8 C-9.7 8.3 -8.4 8.7 -7 9 C-7 8 -7 7 -7 6 C-6 5.4 -5.1 4.8 -4.1 4.1 C-1 2 -1 2 0 0 Z " fill="#67815A" transform="translate(133,421)"/>
<path d="M0 0 C22.5 0 22.5 0 31.1 0.2 C32.8 0.3 34.5 0.3 36.2 0.3 C38.2 0.4 40.2 0.4 42.2 0.5 C45.5 0.6 45.5 0.6 62 1 C62 21.8 62 42.6 62 64 C59 63 59 63 57 61 C56.9 57.1 56.8 53.3 56.9 49.4 C56.9 48.3 56.9 47.2 56.9 46.1 C56.9 43.4 57 40.7 57 38 C57.3 38 57.7 38 58 38 C58.3 35.7 58.7 33.4 59 31 C58.3 31 57.7 31 57 31 C57 22.4 57 13.8 57 5 C48.8 4.7 40.5 4.3 32 4 C31.7 5.3 31.3 6.6 31 8 C31 6.7 31 5.4 31 4 C21.4 3.7 11.9 3.3 2 3 C2.3 12.9 2.7 22.8 3 33 C4.6 33.3 6.3 33.7 8 34 C8 34.3 8 34.7 8 35 C6.4 35 4.7 35 3 35 C3 44.2 3 53.5 3 63 C10.9 62.7 18.8 62.3 27 62 C27 53.1 27 44.2 27 35 C27.3 35 27.7 35 28 35 C28.2 37.6 28.3 40.2 28.5 42.9 C28.6 44.3 28.7 45.8 28.8 47.3 C29 52.2 29 57.1 29 62 C29.9 62 29.9 62 34.6 61.9 C37 61.9 39.5 61.9 41.9 61.9 C43.1 61.9 44.3 61.8 45.6 61.8 C48.7 61.8 51.9 61.9 55 62 C55.7 62.7 56.3 63.3 57 64 C49.5 64.8 42 65.3 34.4 65.6 C33.3 65.6 32.2 65.6 31 65.7 C6.2 66.5 6.2 66.5 0 65 C0 43.6 0 22.1 0 0 Z " fill="#5E6045" transform="translate(399,326)"/>
<path d="M0 0 C4.9 0.5 9.7 0.9 14.6 1.5 C17.8 1.8 21.1 2 24.3 2.1 C30 2.4 33.6 2.7 37.9 6.7 C40.5 10 42.7 13.4 45 17 C46.4 18.8 47.7 20.5 49.1 22.2 C52 26 52 26 52 27 C47.7 26.8 43.4 26.6 39.1 26.3 C35.8 26.1 32.6 26 29.3 25.8 C18.5 25.2 18.5 25.2 14.4 22 C12.4 19.4 10.7 16.8 9 14 C7.7 12.4 6.4 10.8 5.1 9.2 C2 5 2 5 0 0 Z " fill="#C64426" transform="translate(466,239)"/>
<path d="M0 0 C6.2 1 7.7 1.7 12 6 C16 12.4 16.1 18.6 16.1 26 C16.1 27.5 16.1 29.1 16.1 30.6 C16.1 32.2 16.1 33.8 16.1 35.4 C16.1 37 16.1 38.6 16 40.2 C16 44.1 16 48.1 16 52 C10.7 52 5.4 52 0 52 C0 34.8 0 17.7 0 0 Z " fill="#C64426" transform="translate(229,317)"/>
<path d="M0 0 C1.5 4.5 1.1 9.1 1.1 13.8 C1.1 14.9 1.1 15.9 1.1 17 C1.1 20.4 1.1 23.8 1.1 27.2 C1.1 29.5 1.1 31.8 1 34.1 C1 39.7 1 45.4 1 51 C-2.9 53 -7.7 52.1 -12 52 C-13 51.7 -14 51.3 -15 51 C-15.1 45.2 -15.2 39.4 -15.2 33.6 C-15.3 31.9 -15.3 30.3 -15.4 28.6 C-15.5 13.3 -15.5 13.3 -11 6 C-4.9 0 -4.9 0 0 0 Z " fill="#C64426" transform="translate(226,317)"/>
<path d="M0 0 C2.5 0.2 5.1 0.5 7.6 0.7 C13.8 1.3 19.9 1.9 26.1 2.4 C26.2 2.8 26.2 2.8 27.1 4.4 C19.8 6.3 12.5 8 5.1 9.4 C3.4 9.8 1.8 10.1 0.1 10.4 C-2.4 10.3 -4.8 10.1 -7.2 9.9 C-7.9 9.8 -7.9 9.8 -11.6 9.5 C-13.2 9.3 -14.8 9.2 -16.4 9 C-17.2 8.9 -17.2 8.9 -21.3 8.5 C-26.4 8 -31.6 7.5 -36.8 7 C-40.2 6.7 -43.7 6.3 -47.2 6 C-55.8 5.1 -64.4 4.3 -72.9 3.4 C-72.9 2.8 -72.9 2.1 -72.9 1.4 C-69.9 0.5 -66.9 -0.3 -63.9 -1.1 C-62.2 -1.6 -60.5 -2.1 -58.8 -2.6 C-40.2 -6.2 -18.7 -1.8 0 0 Z " fill="#F1D6AD" transform="translate(238.9375,446.5625)"/>
<path d="M0 0 C0 8.9 0 17.8 0 27 C-8.2 28 -15.8 28.1 -24 28 C-24 19.1 -24 10.2 -24 1 C-6.8 0 -6.8 0 0 0 Z " fill="#C5DBD1" transform="translate(426,361)"/>
<path d="M0 0 C7.9 0 15.8 0 24 0 C24 8.6 24 17.2 24 26 C16.1 26.3 8.2 26.7 0 27 C0 18.1 0 9.2 0 0 Z " fill="#C6DCD2" transform="translate(432,361)"/>
<path d="M0 0 C4.5 -0.2 8.6 -0.1 13 1 C14.5 3.2 16 5.5 17.5 7.8 C22.5 12.2 30.5 12.2 36.9 13 C42.3 14.1 43.8 14.8 47 19 C47.7 19.8 48.3 20.6 49 21.4 C54 27.8 54 27.8 54 30 C41.6 30.4 24.4 29.8 14.2 22.2 C11.8 18.9 9.9 15.6 8 12 C6.5 9.9 4.9 7.8 3.4 5.8 C0 1 0 1 0 0 Z " fill="#C64426" transform="translate(390,177)"/>
<path d="M0 0 C4.3 0.3 8.6 0.7 13 1 C13 1.7 13 2.3 13 3 C13.8 3 14.6 3.1 15.4 3.1 C30.2 3.9 44.8 5.5 59.5 7.1 C62.3 7.3 65 7.6 67.8 7.9 C74.5 8.6 81.3 9.3 88 10 C75.9 19.1 60 16.1 45.8 14.6 C44.4 14.4 43 14.3 41.6 14.1 C38.6 13.8 35.7 13.5 32.8 13.2 C28.3 12.7 23.8 12.2 19.3 11.8 C16.4 11.4 13.6 11.1 10.7 10.8 C9.4 10.7 8 10.5 6.7 10.4 C3.4 10 0.2 9.5 -3 9 C-3.7 8 -4.3 7 -5 6 C-3.9 5.9 -2.7 5.7 -1.6 5.6 C2 5 2 5 3 4 C2 3 1 2 0 1 C0 0.7 0 0.3 0 0 Z " fill="#F0D8B0" transform="translate(152,458)"/>
<path d="M0 0 C7.9 0 15.8 0 24 0 C24 8.6 24 17.2 24 26 C16.1 26 8.2 26 0 26 C0 17.4 0 8.8 0 0 Z " fill="#C5DCD2" transform="translate(402,330)"/>
<path d="M0 0 C8.2 -0.1 15.8 0.2 24 1 C24 9.2 24 17.5 24 26 C16.1 26 8.2 26 0 26 C0 17.4 0 8.8 0 0 Z " fill="#C5DBD1" transform="translate(432,330)"/>
<path d="M0 0 C3.6 0.5 7.2 1 10.8 1.4 C11.3 1.5 11.3 1.5 13.8 1.8 C25.6 3.4 25.6 3.4 29.6 8.7 C31.1 10.8 32.5 12.9 34 15 C35.8 17.5 37.7 20 39.5 22.6 C44 28.8 44 28.8 44 31 C41.1 30.7 38.2 30.4 35.4 30.1 C33.8 30 32.2 29.8 30.5 29.6 C23.7 28.7 20.1 27.8 15.8 22.3 C15.1 21.3 14.3 20.4 13.5 19.4 C13.1 18.8 13.1 18.8 11 16 C10 14.7 9 13.3 8 12 C0 1.2 0 1.2 0 0 Z " fill="#C94626" transform="translate(269,156)"/>
<path d="M0 0 C0.8 0.3 0.8 0.3 5 2 C5.3 3.3 5.7 4.6 6 6 C7 5.7 8 5.3 9 5 C8.7 6.3 8.3 7.6 8 9 C8.3 9.7 8.7 10.3 9 11 C10 11 11 11 12 11 C12 12.3 12 13.6 12 15 C14.6 15.3 17.3 15.7 20 16 C21 21 21 21 21 25 C19.3 25.3 17.7 25.7 16 26 C15.7 25.3 15.3 24.7 15 24 C14 24.3 13 24.7 12 25 C11 24.7 10 24.3 9 24 C8.7 25.3 8.3 26.6 8 28 C9.7 28.3 11.3 28.7 13 29 C12.7 30.6 12.3 32.3 12 34 C11.3 34 10.7 34 10 34 C10.3 35 10.7 36 11 37 C9 39 9 39 6.4 40 C1 40 -1.2 37.6 -5 34 C-7.4 29 -8.1 26.1 -7.4 20.7 C-6 17 -6 17 -2 13 C-1 12.7 -0 12.3 1 12 C0.3 10.4 -0.3 8.7 -1 7 C-0.6 3.2 -0.6 3.2 0 0 Z " fill="#66805A" transform="translate(72,416)"/>
<path d="M0 0 C-1 0.3 -2 0.7 -3 1 C-3.1 2.3 -3.3 3.6 -3.4 4.9 C-4 9 -4 9 -5 10 C-2 11 0.9 12 4 13 C0 14 0 14 -4 13 C-15.7 12.6 -27.3 13.2 -38.9 14 C-43 14 -43 14 -47 12 C-47 8.3 -47 4.7 -47 1 C-45.1 -0.9 -41.5 -0.4 -38.9 -0.5 C-37.5 -0.6 -36 -0.7 -34.5 -0.8 C-33 -0.9 -31.5 -1 -29.9 -1.1 C-29.1 -1.1 -29.1 -1.1 -25.3 -1.3 C-6.3 -2.5 -6.3 -2.5 0 0 Z " fill="#935431" transform="translate(419,103)"/>
<path d="M0 0 C0.6 0 0.6 0 3.9 0 C5.3 0 6.7 0.1 8.1 0.1 C8.7 0.1 8.7 0.1 12.2 0.1 C15.6 0.1 19 0.2 22.4 0.2 C21.4 3.2 20.4 6.1 19.4 9.2 C12.4 9.2 5.5 9.2 -1.6 9.2 C-1.6 14.8 -1.6 20.4 -1.6 26.2 C-4.6 26.2 -7.6 26.2 -10.6 26.2 C-12.3 23.5 -14 20.9 -15.6 18.2 C-16.3 17.2 -16.9 16.2 -17.5 15.2 C-18.2 14.1 -18.8 13.1 -19.4 12 C-20.1 11 -20.7 10 -21.3 9 C-22.6 6.2 -22.6 6.2 -22.6 1.2 C-18.8 3.7 -15.2 6.3 -11.6 9.2 C-11.4 8.1 -11.1 7 -10.8 5.8 C-8.8 -0.3 -5.8 -0.1 0 0 Z " fill="#993B20" transform="translate(281.63671875,292.8046875)"/>
<path d="M0 0 C0 1.6 0 3.3 0 5 C-1.9 6.9 -5 6.4 -7.5 6.6 C-8.9 6.7 -10.3 6.8 -11.7 6.9 C-13.3 7 -14.8 7.1 -16.4 7.2 C-17.1 7.2 -17.1 7.2 -21.1 7.5 C-24.4 7.8 -27.7 8 -31.1 8.2 C-36.1 8.6 -41.2 8.9 -46.2 9.3 C-49.5 9.5 -52.7 9.7 -55.9 9.9 C-57.4 10 -58.9 10.2 -60.5 10.3 C-69.3 10.9 -78.1 11.1 -87 11 C-87.3 9.4 -87.7 7.7 -88 6 C-83.1 4.4 -77.9 4.4 -72.8 4.1 C-72.2 4 -72.2 4 -69.1 3.8 C-65.2 3.5 -61.2 3.3 -57.3 3 C-54.7 2.8 -52.1 2.6 -49.5 2.5 C-42.3 2 -35.2 1.5 -28 1 C-26.3 0.9 -24.6 0.8 -22.8 0.7 C-15.2 0.2 -7.7 -0.1 0 0 Z " fill="#D9B88D" transform="translate(474,404)"/>
<path d="M0 0 C10.5 -0.1 20.9 0 31.4 0.4 C32.4 0.5 33.5 0.5 34.6 0.6 C41.8 0.8 48.9 1.4 56 2 C56 4.7 56 7.3 56 10 C55 11 55 11 49.8 11.1 C40.1 11 30.4 10.5 20.8 10.1 C18.9 10 17 9.9 15 9.8 C13.2 9.7 11.5 9.6 9.6 9.5 C8 9.5 6.3 9.4 4.7 9.3 C1 9 1 9 0 8 C-0 5.3 -0 2.7 0 0 Z " fill="#955531" transform="translate(120,383)"/>
<path d="M0 0 C0 0.3 0 0.7 0 1 C-0.4 1 -0.4 1 -2.7 1.2 C-11.4 2.1 -17.8 3.7 -24 10 C-35 23.9 -32.3 43.9 -32.2 60.6 C-32.2 62.9 -32.1 65.3 -32.1 67.6 C-32.1 73.8 -32.1 79.9 -32.1 86.1 C-32 95.9 -32 105.8 -32 115.7 C-32 119.1 -32 122.6 -31.9 126 C-31.9 128.1 -31.9 130.2 -31.9 132.3 C-31.9 134.1 -31.9 135.9 -31.9 137.8 C-32 142 -32 142 -33 144 C-34 144 -35 144 -36 144 C-36.1 129 -36.1 114.1 -36.2 99.1 C-36.2 92.2 -36.2 85.3 -36.2 78.3 C-36.3 71.6 -36.3 64.9 -36.3 58.2 C-36.3 55.6 -36.3 53.1 -36.3 50.5 C-36.3 47 -36.3 43.4 -36.3 39.8 C-36.4 38.7 -36.4 37.7 -36.4 36.6 C-36.3 26.5 -34 18.2 -28 10 C-18.9 1 -12.4 -0.5 0 0 Z " fill="#5E5D44" transform="translate(232,300)"/>
<path d="M0 0 C4 2 4 2 6 6 C4.7 7.4 3.4 8.8 2.1 10.3 C-1.2 13.9 -4.3 17.5 -7.3 21.3 C-11.8 26.9 -16.6 32.1 -21.5 37.2 C-24 40 -24 40 -26 43 C-30 43 -33.9 43 -38 43 C-34.8 37.7 -31.4 34.3 -27 30 C-24.7 27.3 -22.3 24.7 -20 22 C-18 19.8 -16 17.7 -14.1 15.6 C-9.3 10.4 -4.6 5.2 0 0 Z " fill="#5F5D43" transform="translate(212,247)"/>
<path d="M0 0 C1 1 1 1 1.1 5.3 C1 10 1 10 0 14 C-5.3 15.1 -10.4 15.3 -15.8 15.6 C-17.7 15.6 -19.6 15.7 -21.6 15.8 C-22.3 15.8 -22.3 15.8 -26 16 C-27.2 11 -26.7 7 -26 2 C-21.9 -2.1 -5.4 -0.2 0 0 Z " fill="#C84526" transform="translate(411,87)"/>
<path d="M0 0 C11.6 0 23.1 0 35 0 C34.7 1 34.3 2 34 3 C29.7 3 25.4 3 21 3 C21 9.9 21 16.9 21 24 C20.7 24 20.3 24 20 24 C19.7 17.1 19.3 10.1 19 3 C14.4 3.3 9.8 3.7 5 4 C4.7 12.6 4.3 21.2 4 30 C5 30.3 6 30.7 7 31 C6.3 31.7 5.7 32.3 5 33 C4.7 36.9 4.5 40.7 4.4 44.6 C4.3 45.7 4.3 46.8 4.3 47.9 C4.2 50.6 4.1 53.3 4 56 C8.3 56 12.6 56 17 56 C16.7 56.7 16.3 57.3 16 58 C10.7 58 5.4 58 0 58 C0 38.9 0 19.7 0 0 Z " fill="#5E5D44" transform="translate(131,323)"/>
<path d="M0 0 C12.3 0 24.7 0.4 37 1 C37.3 16.5 37.7 32 38 48 C25.3 47.4 12.7 46.8 0 46 C0 30.8 0 15.6 0 0 Z M2 2 C2 15.9 2 29.7 2 44 C6.9 44.3 11.9 44.7 17 45 C19.1 42.9 18.1 37.7 18.1 35 C18.1 33.1 18.1 31.3 18.1 29.4 C18.1 28.4 18.1 28.4 18.1 23.5 C18.1 21.6 18.1 19.6 18.1 17.6 C18.1 15.8 18.1 13.9 18.1 12 C18.1 10.3 18.1 8.6 18.1 6.9 C18 3 18 3 17 2 C12.1 2 7.1 2 2 2 Z M20 3 C20 16.9 20 30.7 20 45 C25.3 45.3 30.6 45.7 36 46 C36 40 36 34.1 36.1 28.1 C36.1 26.1 36.1 24.1 36.1 22 C36.1 19.1 36.1 16.2 36.1 13.3 C36.1 11.5 36.1 9.8 36.1 8 C36 4 36 4 35 3 C30.1 3 25.1 3 20 3 Z " fill="#9A3B20" transform="translate(209,386)"/>
<path d="M0 0 C10.8 -0.1 21.6 0.2 32.4 0.8 C33.9 0.9 35.4 1 36.9 1.1 C41.7 1.4 46.5 1.7 51.3 1.9 C57.6 2.3 63.9 2.7 70.2 3 C70.9 3.1 70.9 3.1 74.8 3.3 C85.3 3.9 95.7 4.3 106.2 4.7 C114.1 4.9 121.9 5.4 129.7 6 C140.8 6.8 151.9 7.4 163.1 7.8 C167.1 8 171 8.3 175 9 C174.7 9.7 174.3 10.3 174 11 C152.2 10.4 130.5 9.4 108.7 8.2 C105.5 8 102.4 7.8 99.2 7.6 C91 7.2 82.8 6.7 74.6 6.2 C66.2 5.7 57.7 5.3 49.3 4.8 C32.9 3.9 16.4 2.9 0 2 C0 1.3 0 0.7 0 0 Z " fill="#665D42" transform="translate(355,293)"/>
<path d="M0 0 C4 0 7.9 0 12 0 C12 8.6 12 17.2 12 26 C9.7 26 7.4 26 5 26 C2.7 21.4 0.4 16.8 -2 12 C-4.6 12 -7.3 12 -10 12 C-6.8 7.7 -3.8 3.8 0 0 Z " fill="#8E4C2E" transform="translate(173,290)"/>
<path d="M0 0 C4 0 7.9 0 12 0 C12 7.9 12 15.8 12 24 C8 24 4.1 24 0 24 C-2.2 21.8 -1.1 18.1 -1.1 15.1 C-1.1 14.1 -1.1 13.1 -1.1 12 C-1.1 11.5 -1.1 11.5 -1.1 8.9 C-1.1 1.1 -1.1 1.1 0 0 Z " fill="#C6DCD1" transform="translate(136,326)"/>
<path d="M0 0 C4 0.2 8 0.6 12 1 C12 8.6 12 16.2 12 24 C7.7 24 3.4 24 -1 24 C-1 20.2 -1 16.4 -1.1 12.6 C-1.1 11.5 -1.1 10.4 -1.1 9.3 C-1.1 6.5 -1.1 3.8 -1 1 C-0.7 0.7 -0.3 0.3 0 0 Z " fill="#C7DBCF" transform="translate(136,354)"/>
<path d="M0 0 C4.9 4.6 8.8 9.8 12.9 15.2 C13.6 16.1 14.2 17 14.9 17.9 C19.4 23.8 23.8 29.9 28 36 C27.3 37.3 26.7 38.6 26 40 C26.7 40 27.3 40 28 40 C28 42.6 28 45.3 28 48 C23.2 42.1 18.7 36.2 14.8 29.8 C11.4 24.3 7.4 19.6 3.2 14.7 C1 12 1 12 -2 7 C-1 2 -1 2 0 0 Z " fill="#E5C79C" transform="translate(324,256)"/>
<path d="M0 0 C4 0 7.9 0 12 0 C12 7.9 12 15.8 12 24 C8 24 4.1 24 0 24 C0 16.1 0 8.2 0 0 Z " fill="#C6DCD2" transform="translate(153,355)"/>
<path d="M0 0 C4 0 7.9 0 12 0 C12 7.9 12 15.8 12 24 C8 24 4.1 24 0 24 C0 16.1 0 8.2 0 0 Z " fill="#C7DDD3" transform="translate(153,326)"/>
<path d="M0 0 C1.1 0.1 2.3 0.1 3.4 0.2 C8.7 0.5 13.9 0.7 19.1 1 C20 1 20 1 24.6 1.3 C34.4 1.8 44.2 2.1 54 2 C54 3.6 54 5.3 54 7 C49.9 9.8 47.2 9.1 42.3 8.8 C40.6 8.7 38.8 8.6 37 8.5 C35.2 8.4 33.3 8.3 31.4 8.2 C29.6 8.1 27.8 8 26 7.9 C17.6 7.4 9.3 6.9 1 6 C0.7 4 0.3 2 0 0 Z " fill="#E7CA9F" transform="translate(122,391)"/>
<path d="M0 0 C8.6 5.6 8.6 5.6 10 11 C10.7 11.3 11.3 11.7 12 12 C11.7 11 11.3 10 11 9 C14.3 9 17.6 9 21 9 C21 14.3 21 19.6 21 25 C18 25 15.1 25 12 25 C10.3 22.3 8.7 19.7 7 17 C6.4 16 5.8 15 5.1 14 C4.5 12.9 3.8 11.9 3.2 10.8 C2.6 9.8 2 8.8 1.4 7.8 C0 5 0 5 0 0 Z " fill="#835334" transform="translate(259,294)"/>
<path d="M0 0 C0 1.3 0 2.6 0 4 C-2.3 4 -4.6 4 -7 4 C-7 5.6 -7 7.3 -7 9 C-7 13 -7 13 -8 15 C-8.7 15 -9.3 15 -10 15 C-9.3 16.6 -8.7 18.3 -8 20 C-8 21.6 -8 23.3 -8 25 C-8.7 25.3 -8.7 25.3 -12 27 C-11.7 27.7 -11.3 28.3 -11 29 C-12 29 -13 29 -14 29 C-14.3 30.3 -14.7 31.6 -15 33 C-15 32.3 -15 31.7 -15 31 C-16 30.7 -17 30.3 -18 30 C-18 29.3 -18 28.7 -18 28 C-18.7 27.7 -19.3 27.3 -20 27 C-20 26.3 -20 25.7 -20 25 C-21 25 -22 25 -23 25 C-23.7 25.7 -24.3 26.3 -25 27 C-25.3 26 -25.7 25 -26 24 C-22.5 20.5 -20.8 20.4 -16 20 C-15.3 20 -14.7 20 -14 20 C-14.1 18.9 -14.2 17.7 -14.2 16.6 C-13.9 10.1 -12 5.2 -7.6 0.4 C-5 -1 -5 -1 0 0 Z " fill="#667F59" transform="translate(98,388)"/>
<path d="M0 0 C1 0.3 2 0.7 3 1 C1.7 2.6 0.4 4.3 -1 6 C-0.7 7 -0.3 8 0 9 C-0.3 9.7 -0.7 10.3 -1 11 C-2.3 10.7 -3.6 10.3 -5 10 C-8 13 -8 13 -9 16 C-8.3 16 -7.7 16 -7 16 C-6.3 17.6 -5.7 19.3 -5 21 C-6.3 22.3 -7.6 23.6 -9 25 C-9.3 24 -9.7 23 -10 22 C-10.7 22.3 -11.3 22.7 -12 23 C-13.3 22.7 -14.6 22.3 -16 22 C-16 23 -16 24 -16 25 C-14.3 25 -12.7 25 -11 25 C-11 28 -11 28 -13.9 31.5 C-17.8 37.1 -17.8 40.3 -18 47 C-18.3 47 -18.7 47 -19 47 C-20.8 25.4 -20.8 25.4 -16.6 17.5 C-13.6 14.1 -10.4 11 -7 8 C-5.6 6.4 -4.1 4.8 -2.8 3.1 C-1.8 2.1 -0.9 1.1 0 0 Z " fill="#DDBD92" transform="translate(204,268)"/>
<path d="M0 0 C5.6 2 8.7 4 12 9 C12.8 12.9 12.8 12.9 13 16 C10.9 16.2 8.7 16.4 6.6 16.6 C5.4 16.7 4.2 16.8 2.9 16.9 C2.5 16.9 2.5 16.9 0 17 C-1 16 -1 16 -1.1 12.7 C-1.1 12 -1.1 12 -1.1 8.5 C-1.1 7.1 -1.1 5.8 -1.1 4.3 C-1 1 -1 1 0 0 Z " fill="#C9DBCF" transform="translate(229,182)"/>
<path d="M0 0 C0.6 0 0.6 0 3.6 0 C4.2 0 4.2 0 7.2 0.1 C8.2 0.1 9.1 0.1 10.1 0.1 C10 5.2 9 7.2 5.9 11.5 C2 15.2 1.1 15.6 -3.9 16.1 C-4 13.6 -4 11.1 -4 8.7 C-4 7.3 -4 5.9 -4 4.5 C-3.9 0.1 -3.9 0.1 0 0 Z " fill="#C7DBD0" transform="translate(231.94140625,202.90234375)"/>
<path d="M0 0 C2 2 2 2 2 8 C1 9 0 10 -1 11 C-6 10 -6 10 -8 9 C-8 10.5 -8 12 -7.9 13.5 C-7.9 15.5 -7.9 17.4 -7.9 19.4 C-7.9 21.3 -7.8 23.2 -7.8 25.2 C-8 30 -8 30 -10 32 C-12.2 29.8 -11.1 25.9 -11.1 23 C-11.1 21.9 -11.1 20.8 -11.1 19.8 C-11.1 18.7 -11.1 17.6 -11.1 16.6 C-11.1 11.9 -10.9 7.6 -10 3 C-5 0 -5 0 0 0 Z " fill="#7F4C31" transform="translate(210,370)"/>
<path d="M0 0 C0 5.3 0 10.6 0 16 C-4.6 16 -9.2 16 -14 16 C-12.9 10 -11.3 6.4 -7 2 C-4 0 -4 0 0 0 Z " fill="#CBDED5" transform="translate(224,183)"/>
<path d="M0 0 C4.6 0 9.2 0 14 0 C14 4.9 14 9.9 14 15 C6.7 13.8 5.3 11.8 1 6 C0.7 4 0.3 2 0 0 Z " fill="#CDE0D7" transform="translate(210,204)"/>
</svg>
