<?xml version="1.0" encoding="UTF-8"?>
<svg xmlns="http://www.w3.org/2000/svg" width="600" height="600" viewBox="0 0 600 600" role="img" aria-label="Home">
  <rect width="600" height="600" fill="#EEF3EE"/>
  <rect y="470" width="600" height="130" fill="#D5E4D7"/>
  <rect x="150" y="280" width="300" height="200" fill="#F5E8D0"/>
  <polygon points="130,280 300,140 470,280" fill="#B9412E"/>
  <rect x="380" y="160" width="40" height="70" fill="#B9412E"/>
  <rect x="265" y="360" width="70" height="120" rx="4" fill="#8B6540"/>
  <circle cx="320" cy="420" r="6" fill="#E8A84A"/>
  <rect x="180" y="310" width="70" height="70" fill="#8B6540"/>
  <rect x="190" y="320" width="22" height="22" fill="#7EB4D4"/>
  <rect x="218" y="320" width="22" height="22" fill="#7EB4D4"/>
  <rect x="190" y="348" width="22" height="22" fill="#7EB4D4"/>
  <rect x="218" y="348" width="22" height="22" fill="#7EB4D4"/>
  <rect x="350" y="310" width="70" height="70" fill="#8B6540"/>
  <rect x="360" y="320" width="22" height="22" fill="#7EB4D4"/>
  <rect x="388" y="320" width="22" height="22" fill="#7EB4D4"/>
  <rect x="360" y="348" width="22" height="22" fill="#7EB4D4"/>
  <rect x="388" y="348" width="22" height="22" fill="#7EB4D4"/>
</svg>
