<?xml version="1.0" encoding="UTF-8"?>
<!-- Generator: visioncortex VTracer 0.6.12 -->
<svg version="1.1" xmlns="http://www.w3.org/2000/svg" width="600" height="600" viewBox="0 0 600 600" role="img" aria-label="Money">
<path d="M0 0 C198 0 396 0 600 0 C600 198 600 396 600 600 C402 600 204 600 0 600 C0 402 0 204 0 0 Z " fill="#EDF2ED" transform="translate(0,0)"/>
<path d="M0 0 C5.6 3.6 8.8 8.6 12.5 14.1 C13.7 15.9 15 17.7 16.2 19.5 C16.8 20.4 17.5 21.3 18.1 22.3 C21 26.5 24 30.8 27 35 C28.2 36.7 29.3 38.3 30.5 40 C31.1 40.8 31.7 41.6 32.2 42.5 C34 45 35.8 47.5 37.5 50.1 C43.2 58.3 49 66.4 54.9 74.5 C59 80.3 63.1 86 67 92 C69.3 95.5 71.7 99 74.1 102.4 C75 103.8 76 105.1 76.9 106.5 C79.2 109.8 81.4 113 83.8 116.1 C90.6 125.4 95.7 132.8 94.6 144.8 C94.1 147.5 93.5 150.3 93 153 C93.3 154 93.7 155 94 156 C94.1 159.5 94.1 162.9 94.1 166.4 C94.1 168.2 94.1 170.1 94.1 172 C94 177 94 177 93 182 C93.3 182.7 93.7 183.3 94 184 C94.1 187.6 94.1 191.2 94.1 194.8 C94.1 196.8 94.1 198.7 94.1 200.8 C94 206 94 206 93 211 C93.3 212 93.7 213 94 214 C94.3 225.9 94.3 225.9 93 231 C89.4 234.5 86.2 235.8 81.3 236.9 C80.1 237.2 78.8 237.5 77.5 237.8 C76.2 238.1 74.9 238.4 73.5 238.8 C72.8 238.9 72.8 238.9 69.5 239.7 C64.2 241 59.5 242 54 242 C53.7 243.6 53.3 245.3 53 247 C54.3 247.7 55.6 248.3 57 249 C57 251 57 253 57 255 C58.8 255.7 60.5 256.4 62.3 257.1 C73.6 261.8 81.9 267.5 88.9 277.8 C91.1 284.2 90.8 290.1 88.3 296.3 C80.6 308.5 69.7 314.2 56 318 C48.3 319.7 40.8 320.4 32.9 320.4 C31.8 320.4 30.7 320.4 29.6 320.4 C12.9 320.1 -4.1 316 -16.8 304.5 C-18.9 302.1 -21 299.6 -23 297 C-26.7 293.3 -30.1 292.5 -35 291 C-31.1 302.9 -24 310.9 -13 317 C14.6 329.1 43.6 330.1 72 320 C83.1 315.3 92.3 307.8 98 297 C98.7 295.4 99.3 293.7 100 292 C100.3 292 100.7 292 101 292 C101.1 293.5 101.2 295.1 101.4 296.7 C102 302 102 302 104 307 C104.8 317.6 102.6 323.7 96.6 332.6 C87.9 340.9 77.5 346.6 66 350 C64.7 350.4 63.4 350.8 62.1 351.2 C35 358.1 3.1 356 -21.4 342.1 C-28.2 337.5 -34 332.5 -39 326 C-40.5 327.2 -42.1 328.4 -43.7 329.6 C-65.5 345.4 -93.8 348.3 -119.9 344.9 C-139.1 341.7 -157.4 335.5 -170 320 C-175.1 310.7 -175.4 304.1 -173 294 C-173.4 294.1 -173.4 294.1 -175.6 294.6 C-184.8 296.6 -193.9 298.6 -203 300.7 C-206.4 301.4 -209.8 302.2 -213.2 302.9 C-218.1 304 -223 305.1 -227.9 306.2 C-228.6 306.4 -228.6 306.4 -232.4 307.2 C-235.3 307.9 -238.1 308.5 -241 309.1 C-243.6 309.7 -246.3 310.3 -248.9 310.9 C-250.2 311.2 -251.4 311.5 -252.6 311.7 C-253.7 312 -254.8 312.2 -255.9 312.5 C-260.5 313.2 -264.6 313.4 -269.1 312.1 C-276 307.1 -279.8 296.7 -283.8 289.1 C-284.7 287.2 -285.7 285.4 -286.6 283.5 C-287.1 282.5 -287.6 281.5 -288.2 280.5 C-290.4 276.3 -292.6 272.1 -294.8 267.9 C-300.8 256.6 -306.6 245.2 -312.4 233.8 C-316.3 226.2 -320.1 218.7 -324.1 211.3 C-324.8 210.2 -325.4 209.1 -326 207.9 C-327.1 205.9 -328.2 203.9 -329.3 201.9 C-335.7 190 -334.1 176.4 -334.1 163.3 C-334.1 161.4 -334.1 159.5 -334.1 157.6 C-334.1 153.6 -334.1 149.7 -334.1 145.7 C-334.1 140.6 -334.1 135.6 -334.1 130.5 C-334.1 125.6 -334.1 120.8 -334.1 115.9 C-334.1 114.1 -334.1 112.3 -334.1 110.4 C-334.1 108.7 -334.1 107 -334.1 105.3 C-334.1 103.8 -334.1 102.3 -334.1 100.8 C-334 97 -334 97 -333 92 C-333 90.3 -333 88.6 -333.1 86.9 C-332.9 71.9 -332.9 71.9 -327 66 C-322.8 64.8 -322.8 64.8 -317.5 63.7 C-316.5 63.5 -315.6 63.3 -314.6 63.1 C-311.5 62.5 -308.3 61.9 -305.2 61.2 C-303 60.8 -300.8 60.4 -298.7 59.9 C-294.2 59 -289.8 58.1 -285.4 57.3 C-276.3 55.5 -267.3 53.6 -258.2 51.8 C-256.7 51.4 -255.1 51.1 -253.4 50.8 C-244 48.8 -234.6 46.8 -225.1 44.8 C-210 41.5 -194.7 38.5 -179.5 35.6 C-165.9 33 -152.4 30.2 -138.9 27.2 C-130 25.2 -120.9 23.5 -111.9 21.8 C-100.5 19.8 -89.3 17.4 -78 15 C-71.8 13.7 -65.6 12.4 -59.4 11.1 C-57.8 10.7 -56.2 10.4 -54.5 10 C-42.5 7.5 -30.4 5.1 -18.4 2.8 C-3.5 0 -3.5 0 0 0 Z " fill="#E0A744" transform="translate(414,130)"/>
<path d="M0 0 C198 0 396 0 600 0 C600 33 600 66 600 100 C402 100 204 100 0 100 C0 67 0 34 0 0 Z " fill="#D5E4D7" transform="translate(0,500)"/>
<path d="M0 0 C2.1 2.3 4.1 4.6 6 7 C14.3 12.9 20.8 14.3 30.9 14.1 C32.6 14.1 34.3 14.1 36.1 14.1 C37.4 14 38.7 14 40 14 C41.4 16 42.8 18.1 44.3 20.1 C45.5 21.9 46.8 23.7 48 25.5 C51.2 30 54.4 34.6 57.6 39.2 C76.4 66.1 76.4 66.1 83 75.1 C83.9 76.4 84.8 77.6 85.8 78.9 C86.6 80.1 87.4 81.2 88.2 82.3 C90 85 90 85 90 87 C88.8 87.4 87.6 87.8 86.4 88.2 C81.2 90.4 77.4 92.5 74.6 97.6 C73.7 102.7 73.9 107.7 74 113 C69.9 115 66.7 115.7 62.2 116.5 C58.2 117.2 54.3 117.9 50.4 119.1 C45.6 120.4 40.9 120.6 36 121 C36 121.7 36 122.3 36 123 C37.1 123.1 38.3 123.2 39.5 123.2 C44.4 124.1 48 125.7 52.4 128 C53.8 128.7 55.2 129.4 56.7 130.2 C60 132 60 132 61 133 C70.8 132.5 80.2 130.2 89.8 128.2 C91.4 127.8 93.1 127.5 94.8 127.1 C103.4 125.3 111.9 123.3 120.3 120.7 C123 120 123 120 126 120 C126.1 124.3 125.8 127.8 125 132 C125.3 133 125.7 134 126 135 C126.1 138.5 126.1 141.9 126.1 145.4 C126.1 147.2 126.1 149.1 126.1 151 C126 156 126 156 125 161 C125.3 161.7 125.7 162.3 126 163 C126.1 166.6 126.1 170.2 126.1 173.8 C126.1 175.8 126.1 177.7 126.1 179.8 C126 185 126 185 125 190 C125.3 191 125.7 192 126 193 C126.3 204.9 126.3 204.9 125 210 C121.4 213.5 118.2 214.8 113.3 215.9 C112.1 216.2 110.8 216.5 109.5 216.8 C108.2 217.1 106.9 217.4 105.5 217.8 C104.8 217.9 104.8 217.9 101.5 218.7 C96.2 220 91.5 221 86 221 C85.7 222.6 85.3 224.3 85 226 C86 226.7 87 227.3 88 228 C86.4 228 84.7 228 83 228 C82.3 229.3 81.7 230.6 81 232 C70.5 245.9 59.4 253.3 42.4 257.3 C22.8 259.8 5.4 255.3 -10.4 243.1 C-24.8 230.7 -35.6 214.4 -37.2 195.1 C-38.3 173.9 -34.5 155.9 -20.4 139.4 C-16.9 135.8 -13.1 132.9 -9 130 C-10.2 130.6 -11.5 131.2 -12.8 131.8 C-19.7 134.5 -26.9 135.7 -34.2 137.1 C-37.8 137.8 -41.4 138.5 -44.9 139.5 C-50.3 140.9 -55.8 141.9 -61.2 142.9 C-68.8 144.4 -76.3 146 -83.7 147.9 C-96 151 -108.4 153.5 -120.8 155.9 C-129.7 157.7 -138.5 159.7 -147.3 161.8 C-155.8 163.7 -164.2 165.5 -172.7 167.1 C-176.5 167.9 -180.2 168.8 -183.9 169.8 C-189 171 -189 171 -194 171 C-194.9 169.8 -195.8 168.6 -196.7 167.4 C-201.6 160.8 -208 157.1 -216 155 C-218.6 154.9 -221.3 154.8 -223.9 154.9 C-225.2 154.9 -226.6 154.9 -227.9 154.9 C-228.9 155 -230 155 -231 155 C-235.4 145.8 -235.4 145.8 -236.7 143 C-239 138.1 -241.3 133.3 -243.6 128.5 C-248.1 119 -252.6 109.5 -257.1 100 C-258.4 97.3 -259.7 94.5 -261.1 91.7 C-261.7 90.4 -262.3 89 -263 87.6 C-263.6 86.4 -264.2 85.2 -264.8 84 C-266 81 -266 81 -266 78 C-265.2 77.6 -264.4 77.3 -263.6 76.9 C-257.5 74 -252.7 71.8 -249 66 C-247.9 62.7 -247.7 59.8 -247.4 56.3 C-247.4 55.1 -247.3 54 -247.2 52.7 C-247.2 52.3 -247.2 52.3 -247 50 C-189.3 37.8 -189.3 37.8 -160.9 32.2 C-151 30.2 -141 28.1 -131.1 26 C-109.2 21.1 -87.2 16.6 -65.2 12.1 C-59 10.8 -52.9 9.5 -46.7 8.2 C-41.9 7.2 -37.1 6.3 -32.3 5.3 C-30 4.8 -27.7 4.3 -25.5 3.9 C-22.3 3.2 -19.2 2.6 -16 1.9 C-14.2 1.5 -12.4 1.2 -10.6 0.8 C-6 0 -6 0 0 0 Z " fill="#B7CCB3" transform="translate(382,151)"/>
<path d="M0 0 C0.3 0.2 0.3 0.2 2 1 C2.1 5.3 1.8 8.8 1 13 C1.3 14 1.7 15 2 16 C2.1 19.5 2.1 22.9 2.1 26.4 C2.1 28.2 2.1 30.1 2.1 32 C2 37 2 37 1 42 C1.3 42.7 1.7 43.3 2 44 C2.1 47.6 2.1 51.2 2.1 54.8 C2.1 56.8 2.1 58.7 2.1 60.8 C2 66 2 66 1 71 C1.3 72 1.7 73 2 74 C2.3 85.9 2.3 85.9 1 91 C-2.6 94.5 -5.8 95.8 -10.7 96.9 C-11.9 97.2 -13.2 97.5 -14.5 97.8 C-15.8 98.1 -17.1 98.4 -18.5 98.8 C-19.8 99.1 -21.1 99.4 -22.5 99.7 C-27.8 101 -32.5 102 -38 102 C-38.3 103.6 -38.7 105.3 -39 107 C-38.5 107.3 -38.5 107.3 -36 109 C-37.6 109 -39.3 109 -41 109 C-41.3 109.7 -41.3 109.7 -43 113 C-53.5 126.9 -64.6 134.3 -81.6 138.3 C-101.2 140.8 -118.6 136.3 -134.4 124.1 C-148.8 111.7 -159.6 95.4 -161.2 76.1 C-162.3 54.9 -158.5 36.9 -144.3 20.4 C-140.8 16.8 -137.2 13.9 -133 11 C-132.3 11 -131.7 11 -131 11 C-131 10.3 -131 9.7 -131 9 C-113.9 0.8 -96.7 -1 -78.6 5.5 C-66.4 10.6 -66.4 10.6 -63 14 C-53.2 13.5 -43.8 11.2 -34.2 9.2 C-32.6 8.8 -30.9 8.5 -29.2 8.1 C-2.5 2.5 -2.5 2.5 0 0 Z " fill="#F6D487" transform="translate(506,270)"/>
<path d="M0 0 C5.6 3.6 8.8 8.6 12.5 14.1 C13.7 15.9 15 17.7 16.2 19.5 C16.8 20.4 17.5 21.3 18.1 22.3 C21 26.5 24 30.8 27 35 C28.2 36.7 29.3 38.3 30.5 40 C31.1 40.8 31.7 41.6 32.2 42.5 C34 45 35.8 47.5 37.5 50.1 C43.2 58.3 49 66.4 54.9 74.5 C59 80.3 63.1 86 67 92 C69.3 95.5 71.7 99 74.1 102.4 C75 103.8 76 105.1 76.9 106.5 C78.5 108.9 80.2 111.3 81.9 113.7 C83.8 116.4 85.8 119.3 87.7 122.1 C88.3 122.9 88.9 123.8 89.6 124.7 C92.1 128.4 93.9 131.5 94.7 135.9 C93.8 140 92.5 140.7 89 143 C85.4 144.1 85.4 144.1 81.3 145 C79.7 145.3 78.2 145.7 76.6 146 C75 146.3 73.5 146.7 71.8 147 C70.3 147.3 68.7 147.7 67.1 148 C64 148.7 60.9 149.3 57.8 150 C51.4 151.3 45.2 152.8 38.9 154.3 C31.4 155.7 28 154.6 21.7 150.6 C16.2 147.4 10.2 145.5 4 144 C4 143.3 4 142.7 4 142 C4.5 141.9 4.5 141.9 7.1 141.4 C15.5 139.9 23.7 138.1 32 136 C35 135.3 38 134.7 41 134 C41 133.1 41 133.1 40.8 128.4 C40.8 121.1 42.1 117 47.2 111.6 C51.2 108.9 53.3 108.5 58 108 C49.5 95.6 40.8 83.2 32.1 70.9 C23.9 59.4 15.9 47.7 8 36 C6.8 36 5.5 36.1 4.2 36.1 C-10.4 36.5 -19.3 35.3 -30.2 25 C-32 23 -32 23 -32 21 C-36 21.8 -40 22.6 -43.9 23.4 C-45.2 23.7 -46.4 23.9 -47.7 24.2 C-54.8 25.6 -61.9 27.1 -69 28.5 C-72 29.1 -75 29.7 -77.9 30.3 C-79.4 30.6 -80.9 30.9 -82.5 31.3 C-91.1 33 -99.8 34.8 -108.4 36.5 C-113.6 37.6 -118.8 38.6 -124 39.7 C-126.5 40.2 -128.9 40.7 -131.3 41.2 C-143.6 43.6 -155.8 46.2 -168 48.8 C-187.2 52.9 -206.5 56.8 -225.7 60.8 C-231.3 61.9 -237 63.1 -242.6 64.2 C-246.1 64.9 -249.6 65.6 -253 66.3 C-259.2 67.6 -265.3 68.8 -271.4 70.2 C-275 71 -275 71 -279 71 C-279 71.9 -278.9 72.7 -278.9 73.6 C-278.6 80.5 -278.5 85.4 -283 91 C-287.5 95.6 -291.9 97.2 -298 99 C-297.7 99.6 -297.7 99.6 -296.4 102.5 C-295.1 105.5 -293.7 108.6 -292.4 111.7 C-289.1 119.3 -285.7 126.8 -281.9 134.2 C-278.9 140.2 -276.1 146.2 -273.3 152.1 C-271.8 155.4 -270.2 158.7 -268.6 161.9 C-267.9 163.5 -267.2 165 -266.4 166.6 C-265.8 167.9 -265.1 169.3 -264.4 170.8 C-263 174 -263 174 -263 176 C-262 175.7 -261 175.3 -260 175 C-247.2 174.3 -238.6 177.6 -229 186 C-228 187.6 -227 189.3 -226 191 C-219.9 190.5 -214.2 189.3 -208.2 187.8 C-203.1 186.5 -198 185.6 -192.8 184.6 C-185.9 183.2 -178.9 181.8 -172.1 180.1 C-163.5 178.1 -155 176.3 -146.4 174.6 C-128.8 171 -111.2 167.4 -93.8 162.9 C-88.6 161.7 -83.3 160.7 -78.1 159.8 C-72.3 158.7 -66.6 157.3 -60.9 155.9 C-57 155 -53 154.4 -49 154 C-53 158 -53 158 -57.7 161.5 C-61.9 164.7 -64.2 167.8 -66.9 172.2 C-71.1 178.2 -74.8 179.2 -81.9 180.6 C-83.5 180.8 -85.2 181 -86.9 181.3 C-92.4 182.1 -97.6 183.5 -103 185 C-107.7 186 -112.4 187 -117.1 187.9 C-126.4 189.8 -135.7 191.8 -145 194.1 C-154.3 196.2 -163.7 198 -173 199.8 C-179.2 201 -185.2 202.3 -191.3 203.8 C-200.4 206.2 -209.7 208.1 -218.9 210 C-229.8 212.2 -240.6 214.6 -251.4 217.3 C-256.1 218.2 -259.7 218.8 -264 216.2 C-268.2 211.7 -270.4 206.6 -273 201 C-274.3 198.3 -275.6 195.5 -276.9 192.8 C-277.9 190.7 -278.9 188.7 -279.8 186.7 C-282.5 181 -285.3 175.4 -288.1 169.8 C-292 162.1 -295.5 154.3 -299 146.5 C-301.2 141.6 -303.5 136.8 -306 132 C-311.8 120.7 -317.2 109.2 -322.4 97.6 C-324.4 93.2 -326.5 88.9 -328.7 84.6 C-331 79.5 -331.9 75.6 -331 70 C-326.3 65.3 -323.9 65 -317.5 63.7 C-316.5 63.5 -315.6 63.3 -314.6 63.1 C-311.5 62.5 -308.3 61.9 -305.2 61.2 C-303 60.8 -300.8 60.4 -298.7 59.9 C-294.2 59 -289.8 58.1 -285.4 57.3 C-276.3 55.5 -267.3 53.6 -258.2 51.8 C-256.7 51.4 -255.1 51.1 -253.4 50.8 C-244 48.8 -234.6 46.8 -225.1 44.8 C-210 41.5 -194.7 38.5 -179.5 35.6 C-165.9 33 -152.4 30.2 -138.9 27.2 C-130 25.2 -120.9 23.5 -111.9 21.8 C-100.5 19.8 -89.3 17.4 -78 15 C-71.8 13.7 -65.6 12.4 -59.4 11.1 C-57.8 10.7 -56.2 10.4 -54.5 10 C-42.5 7.5 -30.4 5.1 -18.4 2.8 C-3.5 0 -3.5 0 0 0 Z " fill="#6C9375" transform="translate(414,130)"/>
<path d="M0 0 C3.6 2.8 6.8 5.7 10 9 C10.9 9.9 11.9 10.9 12.8 11.8 C19.3 21.2 21.7 30.6 20 42 C16.5 53 9.4 60.4 -0.8 65.8 C-17.5 73.6 -33.4 73.8 -51 68 C-66.2 61.9 -77.3 52 -84 37 C-86.4 27.5 -85.6 18.8 -81 10 C-61.1 -16 -25.9 -16.5 0 0 Z " fill="#6C9375" transform="translate(321,202)"/>
<path d="M0 0 C11 8.3 17.2 17.3 20.8 30.6 C22.3 43.5 20.6 56.2 12.3 66.8 C3.9 76.6 -5 81.5 -18.1 82.6 C-31.6 81.5 -42 76.8 -51.7 67.2 C-61.6 55.2 -64.5 42.6 -63.7 27.2 C-61.2 15.5 -55.4 6.2 -45.7 -0.8 C-30.5 -9.7 -15 -8.8 0 0 Z " fill="#FAE2AF" transform="translate(430.6875,303.75)"/>
<path d="M0 0 C2.1 2.3 4.1 4.6 6 7 C14.3 12.9 20.8 14.3 30.9 14.1 C32.6 14.1 34.3 14.1 36.1 14.1 C37.4 14 38.7 14 40 14 C41.4 16 42.8 18.1 44.3 20.1 C45.5 21.9 46.8 23.7 48 25.5 C51.2 30 54.4 34.6 57.6 39.2 C76.4 66.1 76.4 66.1 83 75.1 C83.9 76.4 84.8 77.6 85.8 78.9 C86.6 80.1 87.4 81.2 88.2 82.3 C90 85 90 85 90 87 C88.8 87.4 87.6 87.8 86.4 88.2 C81.2 90.4 77.4 92.5 74.6 97.6 C73.7 102.7 73.9 107.7 74 113 C69.9 115 66.7 115.7 62.2 116.5 C57 117.4 52.1 118.5 47 120 C39 121.7 31.4 122 23.2 121.8 C10 121.7 -0.4 124.8 -11.6 131.5 C-18.5 134.5 -26 135.5 -33.3 136.9 C-37.3 137.7 -41.2 138.5 -45.2 139.6 C-50.5 140.9 -55.8 141.9 -61.2 142.9 C-68.8 144.4 -76.3 146 -83.7 147.9 C-96 151 -108.4 153.5 -120.8 155.9 C-129.7 157.7 -138.5 159.7 -147.3 161.8 C-155.8 163.7 -164.2 165.5 -172.7 167.1 C-176.5 167.9 -180.2 168.8 -183.9 169.8 C-189 171 -189 171 -194 171 C-194.9 169.8 -195.8 168.6 -196.7 167.4 C-201.6 160.8 -208 157.1 -216 155 C-218.6 154.9 -221.3 154.8 -223.9 154.9 C-225.2 154.9 -226.6 154.9 -227.9 154.9 C-228.9 155 -230 155 -231 155 C-235.4 145.8 -235.4 145.8 -236.7 143 C-239 138.1 -241.3 133.3 -243.6 128.5 C-248.1 119 -252.6 109.5 -257.1 100 C-258.4 97.3 -259.7 94.5 -261.1 91.7 C-261.7 90.4 -262.3 89 -263 87.6 C-263.6 86.4 -264.2 85.2 -264.8 84 C-266 81 -266 81 -266 78 C-265.2 77.6 -264.4 77.3 -263.6 76.9 C-257.5 74 -252.7 71.8 -249 66 C-247.9 62.7 -247.7 59.8 -247.4 56.3 C-247.4 55.1 -247.3 54 -247.2 52.7 C-247.2 52.3 -247.2 52.3 -247 50 C-189.3 37.8 -189.3 37.8 -160.9 32.2 C-151 30.2 -141 28.1 -131.1 26 C-109.2 21.1 -87.2 16.6 -65.2 12.1 C-59 10.8 -52.9 9.5 -46.7 8.2 C-41.9 7.2 -37.1 6.3 -32.3 5.3 C-30 4.8 -27.7 4.3 -25.5 3.9 C-22.3 3.2 -19.2 2.6 -16 1.9 C-14.2 1.5 -12.4 1.2 -10.6 0.8 C-6 0 -6 0 0 0 Z M-14.1 8.4 C-15.6 8.7 -17.1 9 -18.7 9.3 C-20.4 9.7 -22.1 10 -23.8 10.4 C-25.6 10.8 -27.4 11.1 -29.2 11.5 C-34.2 12.5 -39.2 13.6 -44.2 14.6 C-47.3 15.2 -50.5 15.9 -53.6 16.5 C-69 19.7 -84.5 22.9 -99.9 26.1 C-104.2 27 -108.4 27.9 -112.7 28.8 C-131.1 32.6 -149.5 36.5 -167.9 40.3 C-174 41.6 -180.1 42.8 -186.2 44.1 C-193.4 45.6 -200.7 47.1 -207.9 48.6 C-210.6 49.2 -213.3 49.8 -216 50.3 C-219.7 51.1 -223.4 51.9 -227.1 52.6 C-228.2 52.9 -229.3 53.1 -230.4 53.3 C-237.9 54.9 -237.9 54.9 -239 56 C-239.1 57.3 -239.2 58.7 -239.3 60.1 C-240.3 67.1 -242.3 71.4 -247.4 76.3 C-251 79 -251 79 -256 82 C-253.5 90.7 -249.4 98.6 -245.4 106.7 C-239.7 118.4 -234.1 130.2 -228.9 142.2 C-227 146 -227 146 -224 148 C-222.3 148.1 -220.7 148.2 -219 148.4 C-206.8 149.3 -198.4 154.6 -190 163 C-185.9 162.5 -182 161.9 -178 161 C-176.6 160.7 -175.2 160.4 -173.8 160.1 C-168.8 159.1 -163.9 158 -158.9 156.9 C-156 156.3 -153.1 155.7 -150.2 155 C-147.1 154.4 -144 153.7 -141 153 C-131.1 150.9 -121.3 148.8 -111.5 146.6 C-108.1 145.9 -104.7 145.1 -101.3 144.4 C-79.1 139.6 -56.8 134.8 -34.6 130 C-29.7 129 -24.8 127.9 -19.9 126.9 C-4.9 123.6 10.1 120.4 25.1 117.2 C30 116.1 35 115.1 39.9 114 C43.1 113.3 46.3 112.7 49.4 112 C51.2 111.6 53.1 111.2 54.9 110.8 C56.5 110.5 58 110.1 59.6 109.8 C63 109 63 109 65 108 C65.3 106 65.6 104 65.8 101.9 C66.6 95.5 68.5 91.8 73 87 C74.6 86 76.3 85 78 84 C76 78.9 73.5 75.1 70.4 70.6 C69.8 69.8 69.2 69 68.7 68.1 C66.8 65.4 64.9 62.7 63 60 C61 57.1 58.9 54.2 56.9 51.3 C55.6 49.3 54.2 47.3 52.8 45.4 C49.7 41 46.8 36.7 44.1 32 C37.8 21.5 37.8 21.5 32.3 19.9 C28.5 19.7 24.8 19.8 21 20 C11.1 17.7 3.7 13.4 -4 7 C-7.5 7 -10.6 7.7 -14.1 8.4 Z " fill="#EAF0EA" transform="translate(382,151)"/>
<path d="M0 0 C0.7 0 1.3 0 2 0 C6.3 8.4 10.5 16.9 14.5 25.5 C17.2 31.2 19.9 36.8 22.7 42.4 C30.3 57.5 37.7 72.8 44.8 88.2 C47.2 93.5 49.8 98.5 52.6 103.6 C56 109.9 58.9 116.3 61.6 122.9 C63.7 127.6 65.7 131.2 70 134 C77.3 133.6 84.2 132.5 91.3 130.9 C92.3 130.7 93.3 130.5 94.3 130.3 C97.5 129.6 100.7 128.9 103.9 128.1 C106.2 127.6 108.4 127.1 110.7 126.6 C116.8 125.3 122.9 124 128.9 122.6 C135.2 121.3 141.4 119.9 147.7 118.5 C157.6 116.4 167.5 114.2 177.4 112 C193.5 108.4 209.7 104.9 225.8 101.4 C232.2 100 238.5 98.6 244.9 97.2 C245.9 97 247 96.8 248.1 96.5 C250.4 96 252.7 95.5 255 95 C254 101.3 253 107.5 252 114 C221.5 120.8 190.9 127.5 160.4 134.3 C147.9 137 135.5 139.8 123 142.5 C117.4 143.8 111.8 145 106.2 146.3 C103.8 146.8 101.4 147.3 99 147.9 C95.7 148.6 92.4 149.3 89.1 150 C87.4 150.4 85.6 150.8 83.8 151.2 C71.4 153.3 71.4 153.3 66.2 150.5 C56.9 139.8 51.7 124.2 45.8 111.4 C41.1 101.2 36.1 91.1 31 81 C29.1 77.2 27.2 73.4 25.3 69.6 C23.2 65.5 21.2 61.3 19.1 57.2 C17.3 53.6 15.4 49.9 13.6 46.2 C12.6 44.4 11.7 42.5 10.8 40.6 C9.4 37.8 8 35.1 6.6 32.3 C5.8 30.7 5 29.1 4.1 27.4 C-1.4 16 -1.4 16 -1.2 8.7 C-1.2 7.5 -1.2 6.3 -1.2 5 C-1 2 -1 2 0 0 Z " fill="#557A5F" transform="translate(81,225)"/>
<path d="M0 0 C3.3 3.3 4.7 6.1 6.7 10.2 C7 10.8 7 10.8 8.6 14 C9 14.9 9 14.9 11 19 C16.4 29.9 22 40.8 27.6 51.6 C38.4 72.7 49.2 93.7 59.2 115.2 C64.2 125.7 64.2 125.7 70 128 C80.7 127.8 91 125 101.4 122.6 C103.4 122.2 105.4 121.7 107.4 121.3 C111.7 120.3 116 119.3 120.3 118.4 C127 116.9 133.7 115.4 140.4 113.9 C159.1 109.7 177.7 105.5 196.3 101.3 C202.6 99.9 208.8 98.5 215.1 97.1 C219.3 96.1 223.5 95.2 227.8 94.2 C230.3 93.6 232.8 93.1 235.3 92.5 C236.5 92.2 237.6 92 238.7 91.7 C243.3 90.7 247.3 90 252 90 C253.6 95.9 255.3 101.9 257 108 C255 109 255 109 250.9 108.1 C226.5 103.5 202.2 106.9 181 120 C180.3 120.7 179.5 121.3 178.8 122 C175.3 124.5 172.2 125.2 168 126.2 C167.2 126.3 167.2 126.3 163 127.3 C161.2 127.7 159.4 128.1 157.6 128.5 C155.7 128.9 153.8 129.3 151.9 129.8 C147.8 130.7 143.7 131.6 139.6 132.5 C133.8 133.8 128 135.1 122.2 136.5 C117.4 137.6 112.5 138.7 107.6 139.8 C105.3 140.3 102.9 140.9 100.5 141.4 C97.2 142.2 93.8 143 90.5 143.7 C89.5 143.9 89.5 143.9 84.6 145.1 C69.4 147.6 69.4 147.6 64 144 C61.7 140.6 59.9 137.3 58.2 133.7 C57.5 132.3 56.8 130.8 56.1 129.4 C55.4 127.9 54.7 126.5 54 125 C50 116.9 46 108.9 41.7 100.9 C38.2 94.4 34.9 87.7 31.8 80.9 C27.4 71.8 22.7 62.9 17.9 54 C13 45.1 8.6 36 4.2 26.8 C3 24.1 1.7 21.4 0.2 18.8 C-1.4 15.2 -1.3 12.2 -1.2 8.2 C-1.2 6.9 -1.2 5.5 -1.2 4.2 C-1 1 -1 1 0 0 Z " fill="#50745A" transform="translate(81,261)"/>
<path d="M0 0 C13.3 11.5 22 26.4 23.6 44 C24.1 61.9 19.1 75.8 7.3 89.3 C-4.9 99.8 -18 103.8 -33.8 102.9 C-50.5 100.7 -62.9 91.9 -73.6 79.4 C-83.8 64.8 -87.6 49.1 -85.4 31.5 C-82.5 16.6 -74.3 4.1 -61.9 -4.5 C-40.8 -15.3 -19.1 -14.7 0 0 Z M-65 16.1 C-72.9 26.8 -74.7 37.9 -73.8 50.9 C-72.2 59.3 -69 65.9 -63.8 72.9 C-62.9 74.1 -62 75.3 -61.1 76.5 C-52.2 85.6 -41.3 90.2 -28.7 91.2 C-16.4 90.4 -7.8 85.9 0.9 77.1 C8.7 67.1 12.1 56.5 11.2 43.9 C9.1 29.8 3.5 18.7 -7.8 9.9 C-28.3 -2.3 -47.8 -1.1 -65 16.1 Z " fill="#E1A744" transform="translate(440.79296875,295.140625)"/>
<path d="M0 0 C-0.7 1.6 -1.3 3.3 -2 5 C1 8 1 8 3 9 C3.2 9.8 3.2 9.8 4 14 C8 16 8 16 10 16 C10.2 16.7 10.2 16.7 11 20 C12.6 20.7 14.3 21.3 16 22 C16.3 21.8 16.3 21.8 18 21 C17.4 28.5 15.1 32.1 9.5 37.1 C-5.7 47 -22.8 48.9 -40.5 45.9 C-52.1 43.3 -62 38.8 -69 29 C-70.9 23.3 -70.8 17.8 -68.4 12.2 C-52.9 -8.4 -22 -8.8 0 0 Z " fill="#FAE2AE" transform="translate(339,386)"/>
<path d="M0 0 C0.3 0 0.7 0 1 0 C1.2 1.2 1.3 2.3 1.5 3.5 C3.2 9.7 5.8 14.9 8.8 20.6 C11 25 13 29.5 15 34 C18.7 42.5 22.8 50.7 27 59 C31.4 67.7 35.7 76.4 39.4 85.4 C42.4 92.1 45.7 98.5 49 105 C53.6 114.2 58.1 123.3 62.4 132.7 C64.7 137.3 66.6 141.1 71 144 C79.4 143.6 87.7 141.5 95.9 139.8 C97.4 139.5 99 139.2 100.5 138.9 C110.5 136.8 120.5 134.5 130.4 132.2 C139.9 130 149.3 128 158.8 126.1 C165 124.8 171.1 123.5 177.2 122.1 C187.2 119.6 197.3 117.6 207.5 115.6 C217.7 113.5 227.8 111.3 238 109 C239.5 108.7 241.1 108.3 242.7 108 C245.6 107.3 248.5 106.6 251.3 105.9 C255 105 255 105 259 105 C258.3 106.6 257.7 108.3 257 110 C256.6 111.4 256.1 112.7 255.7 114.1 C251.8 119.8 246.8 120.3 240.4 121.5 C239.1 121.8 237.8 122.1 236.4 122.4 C232 123.3 227.5 124.2 223.1 125.1 C219.9 125.8 216.8 126.5 213.6 127.1 C206.7 128.6 199.7 130.1 192.7 131.5 C181 134 169.3 136.5 157.6 139.1 C154.1 139.9 150.7 140.7 147.2 141.4 C146.1 141.7 145 141.9 143.8 142.2 C142.7 142.4 141.5 142.7 140.4 142.9 C138.1 143.4 135.8 143.9 133.5 144.4 C132.4 144.7 131.3 144.9 130.1 145.2 C127.8 145.7 125.6 146.2 123.3 146.7 C116.7 148.1 110.2 149.6 103.7 151 C100.7 151.6 97.8 152.3 94.8 152.9 C71.1 158.1 71.1 158.1 65.6 155.3 C62 150.8 59.9 145.9 57.6 140.7 C56.7 138.5 55.7 136.3 54.7 134.2 C54.5 133.6 54.5 133.6 53.3 131 C50.4 124.5 47.2 118.3 44 112 C38.2 100.6 32.7 89.1 27.1 77.6 C24.1 71.3 21 65 17.9 58.8 C14.3 51.7 10.9 44.4 7.6 37.2 C7.3 36.6 7.3 36.6 5.9 33.7 C2.1 25.4 2.1 25.4 1 22 C0.3 21.7 -0.3 21.3 -1 21 C-1.1 13.9 -1.1 7 0 0 Z " fill="#B3C9B0" transform="translate(82,203)"/>
<path d="M0 0 C2.2 3.3 3.8 6.6 5.6 10.1 C8.5 16 11.4 21.7 14.5 27.5 C18 34.2 21.5 40.9 24.8 47.6 C27 52 29.3 56.3 31.5 60.6 C37.8 72.4 43.8 84.3 49.8 96.1 C51.3 99 52.7 101.8 54.1 104.6 C55 106.2 55.8 107.9 56.7 109.6 C62.5 120.6 62.5 120.6 66 123 C72.8 123.4 78.1 122.9 84.7 120.9 C90.6 119.3 96.7 118.2 102.8 117.1 C107.5 116.1 112.1 115 116.7 113.8 C123.1 112.2 129.7 110.8 136.2 109.4 C139 108.8 141.8 108.2 144.5 107.6 C145.8 107.3 147.1 107.1 148.5 106.8 C151.4 106.1 154.3 105.5 157.2 104.8 C161 104 161 104 165 104 C165 104.5 165 104.5 165.1 107.2 C165.6 119 167.5 126.5 176 135 C197 150.8 224.1 154.4 249.5 150.9 C266 148 284.3 141.7 294.4 127.6 C295 126.8 295.5 125.9 296 125 C297.4 127.9 298.8 130.8 300.1 133.8 C307.3 146.9 319.6 153.6 333.6 157.9 C360.5 165 389.5 164.4 414.4 150.7 C422.4 145.8 428.7 139.9 432 131 C432.9 126.4 433.5 121.7 434 117 C437.4 120.4 437 122.7 437.4 127.6 C437.3 135.6 434 141 429.6 147.6 C420.9 155.9 410.5 161.6 399 165 C397.7 165.4 396.4 165.8 395.1 166.2 C368 173.1 336.1 171 311.6 157.1 C304.8 152.5 299 147.5 294 141 C292.5 142.2 290.9 143.4 289.3 144.6 C267.5 160.4 239.2 163.3 213.1 159.9 C193.9 156.7 175.6 150.5 163 135 C157.9 125.7 157.6 119.1 160 109 C159.1 109.2 158.3 109.4 157.4 109.6 C148.2 111.6 139.1 113.6 130 115.7 C126.6 116.4 123.2 117.2 119.8 117.9 C114.9 119 110 120.1 105.1 121.2 C103.6 121.5 102.1 121.9 100.6 122.2 C97.7 122.9 94.9 123.5 92 124.1 C89.4 124.7 86.7 125.3 84.1 125.9 C82.8 126.2 81.6 126.5 80.4 126.7 C79.8 126.9 79.8 126.9 77.1 127.5 C72.5 128.2 68.4 128.4 63.9 127.1 C57 122.1 53.2 111.7 49.2 104.1 C48.3 102.2 47.3 100.4 46.4 98.5 C45.9 97.5 45.4 96.5 44.8 95.5 C42.6 91.3 40.4 87.1 38.2 82.9 C32.2 71.6 26.4 60.2 20.6 48.8 C16.7 41.2 12.9 33.7 8.8 26.2 C8.2 25.1 7.6 24 7 22.8 C5.9 20.8 4.7 18.7 3.6 16.7 C0.5 10.9 -0.6 6.6 0 0 Z " fill="#B4C9B0" transform="translate(81,315)"/>
<path d="M0 0 C4.1 4.1 5.9 7.3 8.4 12.4 C9.2 14.1 10 15.8 10.9 17.6 C11.3 18.4 11.8 19.3 12.2 20.3 C18.7 33.5 25.3 46.6 32.6 59.5 C35.9 65.6 38.8 71.9 41.8 78.2 C46.4 88 51.4 97.7 56.6 107.3 C57.6 109.2 58.6 111.1 59.6 113 C63.7 120.8 63.7 120.8 67 123 C73.2 123.3 78.6 122.7 84.7 121.3 C86.3 120.9 88 120.5 89.7 120.1 C91.5 119.7 93.2 119.3 95.1 118.8 C96.9 118.4 98.8 118 100.7 117.6 C105.5 116.4 110.4 115.3 115.3 114.2 C122.1 112.6 129 111 135.9 109.4 C139.5 108.6 143.2 107.7 146.9 106.9 C148.5 106.5 150.2 106.1 151.9 105.7 C153.3 105.4 154.8 105.1 156.3 104.7 C160 104 160 104 165 104 C165 110.3 165 116.5 165 123 C130.7 130.9 130.7 130.9 114.2 134.1 C108.8 135.3 103.5 136.7 98.2 138.1 C94.2 139.2 90.1 140.1 86 141 C84.6 141.4 83.1 141.7 81.6 142.1 C76.2 143.1 71.5 143.5 66 143 C60.3 138.8 57.7 132.1 54.6 125.9 C53.3 123.4 52.1 121 50.8 118.5 C50.2 117.3 49.6 116 48.9 114.7 C45.9 108.9 42.9 103.2 39.9 97.4 C38.8 95.1 37.6 92.9 36.5 90.7 C34.1 86.2 31.8 81.8 29.5 77.3 C28.4 75.1 27.3 73 26.1 70.8 C25.6 69.8 25 68.7 24.5 67.7 C21.5 61.9 18.6 56.2 15.8 50.4 C13.1 45.1 10.2 39.8 7.2 34.6 C0.7 23 -2 14.4 -1 1 C-0.7 0.7 -0.3 0.3 0 0 Z " fill="#4F735A" transform="translate(81,296)"/>
<path d="M0 0 C0.7 0 1.3 0 2 0 C29.2 54.4 29.2 54.4 31 58 C32.6 61.1 34.1 64.2 35.7 67.3 C41.2 78.3 46.6 89.4 51.8 100.6 C64.3 127.7 64.3 127.7 70 132 C76.7 132.4 82.8 131.7 89.3 130.2 C90.2 130 90.2 130 94.8 129 C96.8 128.6 98.7 128.2 100.7 127.7 C102.8 127.3 104.9 126.8 106.9 126.4 C112.5 125.1 118 123.9 123.5 122.7 C129.2 121.4 134.9 120.2 140.7 118.9 C161.3 114.4 181.9 109.8 202.4 105.2 C204 104.8 205.6 104.5 207.2 104.1 C214.5 102.5 221.7 100.9 228.9 99.2 C230.2 98.9 231.5 98.6 232.8 98.3 C235.2 97.8 237.6 97.3 239.9 96.7 C244 95.8 247.8 95 252 95 C252.3 99 252.7 102.9 253 107 C236.1 110.8 219.2 114.5 202.3 118.3 C194.5 120 186.6 121.8 178.8 123.5 C177.3 123.8 175.7 124.2 174.2 124.5 C171.1 125.2 168.1 125.9 165 126.6 C157.6 128.2 150.1 129.9 142.6 131.5 C139.8 132.2 136.9 132.8 134 133.4 C132.6 133.7 131.2 134.1 129.8 134.4 C122.5 136 115.2 137.6 107.9 139.3 C104.9 140 102 140.7 99 141.3 C95.6 142.1 92.2 142.9 88.8 143.7 C74.9 146.8 74.9 146.8 68 145 C63.7 140.7 61.7 137 58.9 131.7 C58.5 130.8 58 129.8 57.5 128.9 C53.6 121.3 50 113.7 46.3 106.1 C38 88.6 29.3 71.3 20.2 54.2 C17.4 48.8 14.7 43.4 12 37.9 C9.2 32.4 6.4 26.9 3.7 21.4 C1.1 16.1 -0.2 12.1 -0.1 6.2 C-0.1 5 -0.1 3.9 -0.1 2.7 C-0 1.8 -0 0.9 0 0 Z " fill="#8CAA8D" transform="translate(80,244)"/>
<path d="M0 0 C3.8 3.8 5.4 6.5 7.8 11.2 C8.1 11.9 8.1 11.9 9.6 15.1 C10.4 16.7 11.2 18.3 12 20 C17.4 30.9 22.9 41.7 28.5 52.4 C33.6 62.3 38.6 72.1 43.2 82.2 C46.1 88.3 49.3 94.3 52.5 100.3 C54.9 104.8 57.3 109.4 59.6 113.9 C60.2 115.2 60.8 116.5 61.5 117.8 C63 121 63 121 64 125 C75.5 130.7 89.9 125.1 101.7 122.4 C103.7 121.9 105.8 121.4 107.9 121 C113.4 119.7 118.8 118.5 124.3 117.2 C133 115.2 141.8 113.2 150.6 111.2 C153.6 110.5 156.7 109.8 159.7 109.1 C161.6 108.7 163.4 108.2 165.3 107.8 C167 107.4 168.6 107.1 170.3 106.7 C174 106 174 106 176 107 C174.9 108.3 173.8 109.7 172.6 111.1 C169.6 114.9 167.9 118.1 167 123 C166.7 122.3 166.3 121.7 166 121 C164.9 121.3 163.8 121.5 162.7 121.8 C152.3 124.1 142 126.5 131.7 128.8 C126.3 130 121 131.2 115.7 132.5 C110.6 133.6 105.4 134.8 100.3 136 C97.4 136.6 94.5 137.3 91.6 138 C89.8 138.4 88 138.8 86.2 139.2 C84.6 139.5 83.1 139.9 81.5 140.2 C70 142.2 70 142.2 65.1 139.3 C62.9 136.9 61.5 134.6 60 131.6 C59.8 131.1 59.8 131.1 58.4 128.4 C58.2 127.8 58.2 127.8 56.8 124.9 C55.7 122.6 54.5 120.2 53.4 117.8 C52.8 116.7 52.2 115.5 51.6 114.3 C48.7 108.4 45.6 102.6 42.5 96.8 C40.4 92.7 38.3 88.6 36.3 84.5 C32 75.9 27.6 67.4 23.2 58.9 C17 46.9 10.9 34.9 5 22.8 C3 19 3 19 1 17 C0 13.2 -0.1 10.2 -0.1 6.2 C-0.1 5.1 -0 3.9 -0 2.7 C-0 1.8 -0 0.9 0 0 Z " fill="#8DAB8E" transform="translate(80,279)"/>
<path d="M0 0 C8.4 7.9 14.9 18.4 16.2 30 C16.5 43.2 12.2 52.7 3.6 62.5 C-12.2 76.4 -31 77.7 -51.2 76.8 C-69.1 74.2 -84.9 65 -96.4 51.2 C-103.1 42.1 -105.8 33 -105.2 21.8 C-102.6 9.6 -97.5 0.1 -87.2 -7.2 C-59 -23.8 -25.2 -21.3 0 0 Z M-89.2 3.8 C-96.1 13.2 -98.3 20.3 -97.2 31.8 C-92.7 46.4 -83.5 56.6 -70.2 63.8 C-52.5 71.6 -35.5 73.4 -17.2 66.8 C-6.3 62.2 1.7 55 6.7 44.2 C9.7 34.9 8.8 25.4 4.6 16.7 C-1.3 7.1 -9.3 0.2 -19.2 -5.2 C-20.5 -5.9 -21.7 -6.7 -23.1 -7.4 C-45.6 -17 -71.5 -13.5 -89.2 3.8 Z " fill="#EBF1EB" transform="translate(333.1875,203.1875)"/>
<path d="M0 0 C10 2.9 17.5 7 23 16 C24.6 20.9 24.7 25.3 22.8 30.2 C16.1 40.8 6.6 44.6 -5 48 C-21.1 51.4 -38.4 49.6 -53.1 42.6 C-62.6 36.3 -62.6 36.3 -64 32 C-63.4 32 -63.4 32 -60.3 31.7 C-42.1 30 -21.1 26.2 -8 12 C-5.2 8.1 -2.5 4.1 0 0 Z " fill="#FAE2AE" transform="translate(468,394)"/>
<path d="M0 0 C0 2.3 0 4.6 0 7 C-1.5 6.8 -3.1 6.7 -4.6 6.5 C-25.4 4.7 -45.3 7.1 -63 19 C-63.9 19.6 -64.9 20.2 -65.8 20.9 C-70.9 25.8 -73.6 31.2 -74.3 38.2 C-73.7 46.2 -69.7 52.5 -64 58 C-47.1 70.4 -25 72.9 -4.7 70.5 C9 68.2 22.9 64.1 32.4 53.3 C32.9 52.5 33.4 51.8 34 51 C35.3 49.7 36.6 48.4 38 47 C38 47.7 38 48.3 38 49 C40.3 49.7 42.6 50.3 45 51 C40.5 62.2 30.9 68.2 20.1 72.9 C-5.7 82.3 -35.7 82.3 -60.7 70.8 C-70.9 65.3 -78.8 58.7 -83.9 48.1 C-85.8 41 -85.9 33.9 -83 27 C-72.3 11.7 -57.2 3.4 -39 0 C-25.9 -2.1 -13.1 -2.6 0 0 Z " fill="#F7D589" transform="translate(331,368)"/>
<path d="M0 0 C16.2 2 29.1 10.9 39.5 23.1 C43.7 29.6 44.8 35.3 44 43 C39.4 56 30.7 63.8 18.9 70.2 C-6.4 81.9 -35.9 81.6 -61.8 72.2 C-73.9 67.5 -84.2 60.1 -90.9 48.8 C-92 46 -92 46 -92 42 C-83.7 43.5 -80 46.3 -75 53 C-75 53.7 -75 54.3 -75 55 C-73.7 55.7 -72.4 56.3 -71 57 C-70.4 57.5 -70.4 57.5 -67.2 59.8 C-54.9 68.1 -39.2 70.4 -24.8 70.3 C-23.6 70.3 -22.5 70.3 -21.4 70.3 C-13.3 70.2 -5.8 69.5 2 67 C3.1 66.7 4.2 66.3 5.3 66 C16.4 62.1 25.6 56.7 31 46 C33.2 39.5 32.6 33.5 30 27.2 C22.3 16.3 11.3 11.3 -1 7 C-0.7 4.7 -0.3 2.4 0 0 Z " fill="#FAD78C" transform="translate(471,379)"/>
<path d="M0 0 C3.2 4.7 5.7 9.3 7.8 14.6 C9.9 19.8 12.2 24.8 14.7 29.8 C15.2 30.7 15.6 31.7 16.1 32.6 C17.1 34.6 18 36.5 19 38.5 C20.5 41.6 22.1 44.7 23.6 47.9 C25.7 52.1 27.8 56.4 29.9 60.7 C34.5 70 39.1 79.4 43.6 88.7 C44 89.5 44 89.5 46.1 93.8 C51.6 105 57 116.4 62.1 127.8 C64.2 132.2 66.1 136.1 69 140 C75.3 141.3 80.6 140 86.8 138.7 C87.3 138.6 87.3 138.6 90.2 138 C99.1 136.2 108 134.3 116.8 132 C123.5 130.3 130.2 129.1 137 128 C140 127.3 143 126.7 146 126 C148.5 125.4 151 124.9 153.6 124.3 C154.2 124.2 154.2 124.2 157.7 123.4 C160.6 122.8 163.4 122.2 166.3 121.6 C177.3 119.2 177.3 119.2 182.6 118 C186.2 117.2 189.8 116.4 193.4 115.6 C200.7 114.1 208.1 112.5 215.5 110.9 C216.1 110.7 216.1 110.7 219.5 110 C223.6 109.1 227.7 108.2 231.9 107.3 C234.7 106.7 237.5 106.1 240.4 105.5 C247.2 104 254.1 102.5 261 101 C260.3 102.6 259.7 104.3 259 106 C257.7 106.3 256.4 106.5 255 106.8 C253.3 107.1 251.5 107.5 249.7 107.8 C248 108.1 246.2 108.5 244.4 108.8 C240.8 109.6 237.3 110.5 233.7 111.5 C227.1 113.2 220.5 114.6 213.9 115.9 C204.6 117.8 195.3 119.8 186 122.1 C176.7 124.2 167.3 126 158 127.8 C151.8 129 145.8 130.3 139.7 131.8 C130.6 134.2 121.3 136.1 112.1 138 C101.2 140.2 90.4 142.6 79.6 145.3 C74.9 146.2 71.3 146.8 67 144.2 C62.8 139.7 60.6 134.6 58 129 C56.7 126.3 55.4 123.5 54.1 120.8 C53.1 118.7 52.1 116.7 51.2 114.7 C48.5 109 45.7 103.4 42.9 97.8 C39 90.1 35.5 82.3 32 74.5 C29.8 69.6 27.5 64.8 25 60 C19.2 48.7 13.8 37.2 8.6 25.6 C6.6 21.2 4.4 16.8 2.3 12.4 C0.2 7.4 -0.2 5.2 0 0 Z " fill="#53775D" transform="translate(83,202)"/>
<path d="M0 0 C7.8 7.8 7.8 7.8 8.2 14.3 C7.9 20 6.2 22.9 2.1 26.8 C-4.2 31.3 -10.4 31.8 -18 31 C-24.6 28.7 -29.9 26.2 -33.8 20.3 C-35.8 14.8 -36 10.1 -33.5 4.8 C-24 -5.7 -12.1 -6.2 0 0 Z " fill="#6D9476" transform="translate(205,240)"/>
<path d="M0 0 C4.9 3.1 6.9 6.7 9 12 C9.6 16.3 9.3 18.3 7.4 22.2 C4.1 26.1 0.8 28.4 -4 30 C-14 30.6 -21.1 29.1 -29 22.8 C-32.5 18.4 -33.5 15.6 -34 10 C-32.8 4.7 -31.7 2.6 -27.6 -0.9 C-18.5 -6.2 -8.9 -4.9 0 0 Z " fill="#6D9476" transform="translate(399,200)"/>
<path d="M0 0 C0.7 0 1.3 0 2 0 C6.3 8.4 10.5 16.9 14.5 25.5 C17.2 31.2 19.9 36.8 22.7 42.4 C30.3 57.5 37.7 72.8 44.8 88.2 C48 95.1 51.5 101.7 55.1 108.3 C57 112 57 112 59 117 C58.8 117.5 58.8 117.5 58 120 C57.3 118.7 56.7 117.4 56 116 C55.7 119.6 55.3 123.3 55 127 C51.3 123.3 49.7 119.6 47.4 114.9 C47.2 114.4 47.2 114.4 46.1 112.1 C44.6 109.2 43.2 106.2 41.8 103.3 C40.4 100.4 39 97.6 37.6 94.7 C36.7 92.8 35.8 90.9 34.9 89 C31 81 27 73 23 65 C19.9 58.7 16.7 52.5 13.6 46.2 C12.6 44.4 11.7 42.5 10.8 40.6 C9.4 37.8 8 35.1 6.6 32.3 C5.8 30.7 5 29.1 4.1 27.4 C-1.4 16 -1.4 16 -1.2 8.7 C-1.2 7.5 -1.2 6.3 -1.2 5 C-1 2 -1 2 0 0 Z " fill="#50755B" transform="translate(81,225)"/>
<path d="M0 0 C0.7 0.3 1.3 0.7 2 1 C3.5 5.5 3.3 9.3 3 14 C0 18.8 -3.9 19.9 -9.3 21.2 C-9.9 21.3 -9.9 21.3 -13 22 C-13.9 22.2 -13.9 22.2 -18.4 23.3 C-34.1 27 -34.1 27 -41 27 C-41.5 26.2 -42 25.5 -42.5 24.7 C-42.8 24.2 -42.8 24.2 -44.4 21.7 C-45 20.7 -45.6 19.7 -46.3 18.7 C-47.5 16.8 -48.7 14.9 -50 13 C-42.2 11 -34.3 9.1 -26.4 7.2 C-25.1 6.9 -23.7 6.6 -22.3 6.3 C-19.6 5.7 -16.9 5.1 -14.2 4.5 C-12.9 4.2 -11.7 3.9 -10.4 3.6 C-9.3 3.3 -8.1 3.1 -7 2.8 C-4 2 -4 2 0 0 Z " fill="#51755C" transform="translate(505,282)"/>
<path d="M0 0 C0.7 0.3 1.3 0.7 2 1 C2.5 6.7 1.7 9.6 -2 14 C-5.1 15.3 -5.1 15.3 -8.7 16.1 C-10 16.4 -11.4 16.8 -12.8 17.1 C-14.2 17.4 -15.6 17.7 -17 18 C-18.4 18.3 -19.7 18.6 -21.2 19 C-25.3 20 -29.5 20.9 -33.7 21.8 C-34.4 22 -34.4 22 -38 22.8 C-39.4 23.1 -40.7 23.4 -42.1 23.7 C-43.4 24 -44.6 24.3 -45.8 24.5 C-49 25 -49 25 -53 24 C-55.7 21.4 -58.4 18.7 -61 16 C-57 14 -53.7 13.1 -49.4 12.2 C-47.8 11.9 -46.3 11.5 -44.7 11.2 C-43.1 10.8 -41.5 10.5 -39.9 10.1 C-38.3 9.8 -36.8 9.4 -35.2 9.1 C-22.2 6.3 -22.2 6.3 -15.9 4.9 C-14.3 4.6 -12.7 4.2 -11 3.9 C-9.5 3.6 -8.1 3.2 -6.6 2.9 C-3 2 -3 2 0 0 Z " fill="#AFC5AC" transform="translate(506,270)"/>
<path d="M0 0 C0.7 0.3 1.3 0.7 2 1 C3.5 5.5 3.3 9.3 3 14 C0.7 18.5 -0.4 19.7 -5 22 C-7.1 22.6 -9.3 23.1 -11.4 23.5 C-12.7 23.8 -13.9 24 -15.2 24.3 C-16.5 24.6 -17.8 24.8 -19.1 25.1 C-19.8 25.3 -19.8 25.3 -23.1 26 C-32.7 28 -32.7 28 -35 28 C-33.7 21.4 -32.4 14.8 -31 8 C-28.8 7.5 -26.7 7 -24.5 6.5 C-21.7 5.9 -18.9 5.2 -16.1 4.6 C-14.6 4.2 -13.2 3.9 -11.8 3.6 C-10.4 3.3 -9.1 3 -7.7 2.6 C-7 2.5 -7 2.5 -3.9 1.8 C-1 1 -1 1 0 0 Z " fill="#50745B" transform="translate(505,340)"/>
<path d="M0 0 C1.9 3.8 1.2 7.9 1 12 C-3.1 18.8 -7.1 19.2 -14.5 21.2 C-16 21.5 -17.6 21.8 -19.1 22.2 C-20.7 22.5 -22.2 22.9 -23.8 23.2 C-28 24 -28 24 -34 24 C-35 18.7 -36 13.4 -37 8 C-34.8 7.5 -32.6 7 -30.3 6.5 C-27.4 5.9 -24.5 5.2 -21.6 4.6 C-20.2 4.2 -18.7 3.9 -17.2 3.6 C-15.8 3.3 -14.4 3 -13 2.6 C-11.7 2.3 -10.4 2.1 -9.1 1.8 C-1.9 0 -1.9 0 0 0 Z " fill="#52765C" transform="translate(507,312)"/>
<path d="M0 0 C0.7 0.3 1.3 0.7 2 1 C2.2 6.2 2 9.1 0 14 C-4.4 15.6 -4.4 15.6 -10 17 C-11.9 17.5 -13.7 17.9 -15.6 18.4 C-16.6 18.6 -16.6 18.6 -21.3 19.8 C-23.2 20.2 -25.1 20.6 -27.1 21.1 C-32 22 -32 22 -37 21 C-38.3 17.7 -39.6 14.4 -41 11 C-40.1 10.8 -40.1 10.8 -35.5 9.8 C-33 9.3 -30.6 8.7 -28.2 8.2 C-27 7.9 -25.8 7.7 -24.6 7.4 C-4.4 3 -4.4 3 0 0 Z " fill="#8CAA8D" transform="translate(506,298)"/>
<path d="M0 0 C0.7 0 1.3 0 2 0 C2.3 6.2 2.3 8.5 -1 14 C-10.1 18 -22 21 -32 21 C-32 17 -32 13.1 -32 9 C-31.1 8.8 -30.2 8.6 -29.3 8.4 C-25.2 7.5 -21.2 6.6 -17.1 5.6 C-15.7 5.3 -14.3 5 -12.8 4.7 C-12.2 4.5 -12.2 4.5 -8.8 3.7 C-7.5 3.4 -6.3 3.2 -5 2.9 C-2 2 -2 2 0 0 Z " fill="#8DAA8E" transform="translate(506,327)"/>
<path d="M0 0 C0.7 0 1.3 0 2 0 C2.3 3.2 2.3 3.2 2 7 C-1.8 10.9 -5.5 11.9 -10.7 13 C-11.5 13.2 -11.5 13.2 -15.4 14 C-17 14.3 -18.5 14.7 -20.2 15 C-21.7 15.3 -23.3 15.7 -24.9 16 C-28 16.7 -31.1 17.3 -34.2 18 C-40.6 19.3 -46.8 20.8 -53.1 22.3 C-57 23 -57 23 -63 23 C-63.7 22 -64.3 21 -65 20 C-57 17.9 -48.9 16.2 -40.8 14.7 C-37 14 -37 14 -33.6 13 C-29.2 11.8 -24.7 10.9 -20.2 10 C-18.5 9.7 -16.8 9.3 -15.1 9 C-13.4 8.7 -11.7 8.3 -10 8 C-6.7 7.3 -3.3 6.7 0 6 C0 4 0 2 0 0 Z " fill="#54785E" transform="translate(506,262)"/>
<path d="M0 0 C0.3 0 0.7 0 1 0 C1 5 1 5 -1.1 7.2 C-4.3 9.2 -7 10.1 -10.7 10.9 C-12 11.2 -13.2 11.5 -14.6 11.8 C-15.2 12 -15.2 12 -18.6 12.8 C-19.9 13.1 -21.2 13.4 -22.6 13.7 C-32.4 16 -32.4 16 -37 16 C-36.7 14.7 -36.3 13.4 -36 12 C-27.5 9.5 -19 7.7 -10.3 6.1 C-6 5 -6 5 -1 2 C-0.7 1.3 -0.3 0.7 0 0 Z " fill="#B2C8AF" transform="translate(506,356)"/>
</svg>
