<?xml version="1.0" encoding="UTF-8"?>
<!-- Generator: visioncortex VTracer 0.6.12 -->
<svg version="1.1" xmlns="http://www.w3.org/2000/svg" width="600" height="600" viewBox="0 0 600 600" role="img" aria-label="Ticket">
<path d="M0 0 C198 0 396 0 600 0 C600 198 600 396 600 600 C402 600 204 600 0 600 C0 402 0 204 0 0 Z " fill="#EDF2ED" transform="translate(0,0)"/>
<path d="M0 0 C0.7 -0 0.7 -0 4 -0 C8.4 -0 12.8 -0 17.2 0 C20.3 -0 23.5 -0 26.6 -0 C35.2 -0 43.8 -0 52.3 0 C61.3 0 70.3 0 79.2 0 C94.3 0 109.3 0 124.4 0.1 C141.8 0.1 159.2 0.1 176.6 0.1 C193.3 0.1 210.1 0.1 226.8 0.1 C233.9 0.1 241.1 0.1 248.2 0.1 C256.6 0.1 264.9 0.2 273.3 0.2 C276.4 0.2 279.5 0.2 282.6 0.2 C286.8 0.2 291 0.2 295.2 0.2 C296.4 0.2 297.6 0.2 298.9 0.2 C309.3 0.3 316.9 3.2 324.4 10.7 C329.5 19 330.5 24.5 330.5 34.2 C330.5 34.7 330.5 34.7 330.5 37.2 C330.5 39.4 330.5 41.5 330.5 43.6 C330.5 46.9 330.5 50.2 330.5 53.5 C330.5 55.6 330.5 57.7 330.5 59.7 C330.5 61.6 330.5 63.5 330.5 65.5 C330.4 69.7 330.4 69.7 329.4 70.7 C328.6 70.9 328.6 70.9 324.8 71.6 C316.3 73.4 311.4 76.6 306.4 83.7 C302.9 92.4 302.6 99.3 306.1 108.1 C310.2 114.6 314.3 117.7 321.4 120.7 C324.4 121.4 327.4 122.1 330.4 122.7 C330.5 129.2 330.6 135.7 330.6 142.2 C330.6 144.4 330.7 146.6 330.7 148.8 C330.7 152 330.8 155.2 330.8 158.4 C330.8 160.3 330.8 162.2 330.8 164.2 C330.1 173.5 327.3 181.2 320.4 187.7 C311.6 193.2 305 193.9 294.8 193.9 C294.2 193.9 294.2 193.9 290.8 193.9 C286.5 193.9 282.1 193.9 277.7 194 C274.5 194 271.4 194 268.2 194 C257.9 194 247.5 194 237.2 194.1 C235.4 194.1 233.7 194.1 231.9 194.1 C215.3 194.1 198.7 194.1 182.1 194.1 C160.9 194.2 139.7 194.2 118.5 194.3 C103.6 194.3 88.6 194.3 73.7 194.4 C64.8 194.4 55.9 194.4 47 194.4 C38.6 194.5 30.2 194.5 21.8 194.4 C18.8 194.4 15.7 194.5 12.6 194.5 C8.4 194.5 4.2 194.5 -0 194.5 C-1.2 194.5 -2.4 194.5 -3.7 194.5 C-12.1 194.4 -18.6 192.5 -25.6 187.7 C-34 178.8 -36 170.6 -35.9 158.6 C-35.9 157.6 -35.9 156.5 -35.9 155.5 C-35.9 152.2 -35.8 148.9 -35.8 145.7 C-35.8 143.5 -35.8 141.2 -35.8 139 C-35.7 133.6 -35.7 128.2 -35.6 122.7 C-32.6 122 -29.6 121.3 -26.7 120.6 C-20.4 118.8 -16.6 116.1 -12.7 110.9 C-8.8 103.2 -8.1 97.3 -9.6 88.7 C-12.2 81.9 -15.9 78.2 -21.6 73.7 C-26.2 71.9 -29.8 71.3 -34.6 70.7 C-38 67.4 -35.9 55.7 -35.9 51.1 C-35.9 47.9 -36 44.8 -36 41.7 C-36.1 29.6 -35.9 20.2 -29.1 9.9 C-20.4 2 -11.6 -0.1 0 0 Z " fill="#C54536" transform="translate(152.6068572998047,199.25155639648438)"/>
<path d="M0 0 C198 0 396 0 600 0 C600 33 600 66 600 100 C402 100 204 100 0 100 C0 67 0 34 0 0 Z " fill="#D5E4D7" transform="translate(0,500)"/>
<path d="M0 0 C1.3 0 2.6 0 4 0 C4.7 1.5 5.5 3.1 6.2 4.7 C7.2 6.7 8.2 8.8 9.2 10.9 C9.7 11.9 10.2 12.9 10.7 13.9 C13.7 20.3 16.8 26.7 20 33 C21 33.1 21.9 33.2 22.9 33.4 C27.2 33.9 31.5 34.4 35.8 34.9 C37.3 35.1 38.8 35.3 40.4 35.5 C41.1 35.6 41.1 35.6 44.7 36 C46 36.2 47.4 36.4 48.7 36.5 C52 37 52 37 55 38 C55.2 38.7 55.2 38.7 56 42 C49 49.2 41.7 56 33.9 62.3 C31 66 31 66 31.2 70.4 C32.3 77.8 33.5 85.1 34.9 92.3 C35.4 95.2 35.7 98.1 36 101 C35 102 34 103 33 104 C23.7 99.5 14.7 94.8 6 89.4 C3 88 3 88 -2 89 C-4.6 90.3 -4.6 90.3 -7.3 91.9 C-8.3 92.5 -9.3 93.1 -10.3 93.7 C-12.3 94.9 -14.4 96.1 -16.5 97.3 C-21.6 100.4 -25.8 102.8 -32 103 C-33.1 98.7 -32.8 96.7 -32 92.4 C-31.7 91.2 -31.5 89.9 -31.3 88.6 C-30.8 85.9 -30.2 83.2 -29.7 80.6 C-29.5 79.3 -29.3 78 -29 76.7 C-28.8 75.5 -28.6 74.4 -28.4 73.2 C-28 70 -28 70 -29 65 C-31.4 62.1 -31.4 62.1 -34.6 59.1 C-35.6 58.1 -36.7 57 -37.8 55.9 C-40.4 53.6 -42.9 51.3 -45.5 49.1 C-48.4 46.5 -50.7 44.1 -53 41 C-52.7 40 -52.3 39 -52 38 C-43.8 36.4 -35.6 35.3 -27.3 34.4 C-26.1 34.2 -24.9 34.1 -23.7 34 C-20.8 33.6 -17.9 33.3 -15 33 C-14.7 31.4 -14.3 29.7 -14 28 C-13.2 25.9 -12.3 23.9 -11.3 21.9 C-11.1 21.3 -11.1 21.3 -9.7 18.4 C-9.2 17.2 -8.6 16 -8.1 14.8 C-7.5 13.6 -7 12.4 -6.4 11.2 C-2.3 2.3 -2.3 2.3 0 0 Z " fill="#FAEFDA" transform="translate(250,245)"/>
<path d="M0 0 C5.9 4.9 10.6 10.8 12.1 18.4 C12.8 27.5 10.9 34 6.1 41.7 C0.1 47.2 -6.8 50.8 -15 51.1 C-23.5 50.1 -30.4 47.2 -35.9 40.4 C-41 32.8 -42.4 27.7 -41.9 18.4 C-38.9 9.1 -35.4 3.4 -26.8 -1.4 C-17.2 -5.6 -9.1 -4.8 0 0 Z " fill="#F9EFDB" transform="translate(424.875,274.5625)"/>
<path d="M0 0 C63 0 126.1 0 191 0 C191.3 1.3 191.7 2.6 192 4 C129.6 4.3 67.3 4.7 3 5 C2 7.6 1 10.3 0 13 C-4.7 19.3 -9.3 23.1 -17 25 C-17.2 28.4 -17.4 31.7 -17.5 35.1 C-17.6 37 -17.7 38.9 -17.8 40.8 C-17 46 -17 46 -13.2 49.4 C-11.8 50.3 -10.4 51.1 -9 52 C-0 62 2.8 71 2.4 84.1 C1.4 93.8 -2.5 100.8 -9 108 C-10.4 108.8 -11.8 109.7 -13.2 110.6 C-17 114 -17 114 -17.8 119.4 C-17.7 120.4 -17.7 120.4 -17.5 125.4 C-17.5 126.4 -17.4 127.4 -17.4 128.5 C-17.3 131 -17.2 133.5 -17 136 C-15.5 136.7 -13.9 137.4 -12.3 138.2 C-5.3 141.7 -1.5 145.9 2 153 C2 154.3 2 155.6 2 157 C64.4 157 126.7 157 191 157 C191.3 158.3 191.7 159.6 192 161 C128.6 161 65.3 161 0 161 C-1.7 157 -3.3 153.1 -5 149 C-10.2 143.3 -13.2 142.6 -21 140 C-21 130.4 -21 120.9 -21 111 C-18 109 -15.1 107 -12 105 C-5 96 -1.1 86.7 -2.6 75.3 C-4.1 65.9 -7.2 58.8 -14.8 52.9 C-19 50 -19 50 -21 49 C-21 39.8 -21 30.5 -21 21 C-17.7 20 -14.4 19 -11 18 C-4.7 12.2 -3.3 8.3 0 0 Z " fill="#DE8253" transform="translate(155,216)"/>
<path d="M0 0 C9.5 -0.1 19 -0.1 28.5 -0.1 C31.8 -0.1 35 -0.1 38.2 -0.2 C42.9 -0.2 47.5 -0.2 52.1 -0.2 C53.6 -0.2 55.1 -0.2 56.6 -0.2 C57.9 -0.2 59.2 -0.2 60.6 -0.2 C61.8 -0.2 63 -0.2 64.2 -0.2 C67 0 67 0 69 2 C69.2 2.7 69.2 2.7 70.4 6.3 C72.7 12.9 74.2 15.1 80.5 18.2 C85 20 85 20 89 21 C89.2 25.4 89.4 29.7 89.6 34.1 C89.6 35.3 89.7 36.5 89.8 37.8 C90 46.8 90 46.8 87.1 50.3 C84.7 52.2 84.7 52.2 80 55 C72.7 62.2 69.8 70 69.5 80 C69.9 91.4 73.8 99.1 82 107 C84.3 108.3 86.6 109.6 89 111 C89 120.6 89 130.1 89 140 C86 141 83.1 142 80 143 C72.8 148.2 70.8 152.7 68 161 C45.6 161 23.1 161 0 161 C0 159.7 0 158.4 0 157 C21.4 157 42.9 157 65 157 C66 154 67 151.1 68 148 C71.6 142.4 76.1 139.9 82 137 C83 137 84 137 85 137 C85 129.1 85 121.2 85 113 C83.4 112.3 81.7 111.7 80 111 C71.9 103.9 66.8 95.9 65 85 C64.3 73 66.8 64.6 74 55 C76.4 52.3 78.4 50.3 81.6 48.6 C85.3 44.6 84.8 40 84.8 34.8 C84.8 33.7 84.9 32.7 84.9 31.6 C84.9 29.1 85 26.5 85 24 C84.5 23.9 84.5 23.9 82.2 23.6 C75.3 22.3 71 17.5 67 12 C66.7 10.7 66.7 10.7 65 4 C43.6 4 22.1 4 0 4 C0 2.7 0 1.4 0 0 Z " fill="#DE8253" transform="translate(378,216)"/>
<path d="M0 0 C3 3 3 3 5 8 C8.3 8.7 11.6 9.3 15 10 C15 11 15 12 15 13 C14.6 13.3 14.6 13.3 12.5 14.9 C8.6 19.7 9.7 23.9 10 30 C6 29 6 29 1 26 C-4 28 -4 28 -7 30 C-8 30 -9 30 -10 30 C-9.7 28.3 -9.4 26.6 -9.1 24.9 C-9 19 -9 19 -11.9 15.5 C-12.9 14.7 -14 13.9 -15 13 C-15 12 -15 11 -15 10 C-13.2 9.8 -13.2 9.8 -4 9 C-3.7 7.4 -3.3 5.7 -3 4 C-2 2.7 -1 1.4 0 0 Z " fill="#C74936" transform="translate(410,282)"/>
<path d="M0 0 C0.7 0 1.3 0 2 0 C2.5 1.4 3.1 2.8 3.6 4.2 C7 10.9 10.1 13.2 17 16 C17 16.7 17 17.3 17 18 C9.2 22 9.2 22 7 22 C6.7 22.8 6.7 22.8 5 27 C4 29 3 31 2 33 C1.3 33 0.7 33 0 33 C-0.6 31.5 -1.2 29.9 -1.9 28.3 C-4.9 22.1 -8.7 20.5 -15 18 C-15 17.3 -15 16.7 -15 16 C-13.4 15.3 -11.9 14.7 -10.2 14 C-4.9 11.4 -3.1 8.6 -1 3 C-0.7 2 -0.3 1 0 0 Z " fill="#DE8253" transform="translate(318,235)"/>
<path d="M0 0 C3.2 2.4 4.7 4.1 6 7.9 C6 12 5.1 14.4 3 18 C-0.4 20.5 -2.4 21 -6.6 21 C-10.8 19.8 -12.4 18.5 -15 15 C-16.2 11 -16.2 8.8 -14.9 4.8 C-11 -0.9 -6.5 -1.9 0 0 Z " fill="#F8EFDB" transform="translate(185,244)"/>
<path d="M0 0 C3 3 3 3 4.2 5.9 C6.6 10.1 9.6 11.1 14 13 C13.7 14 13.3 15 13 16 C12.5 16.2 12.5 16.2 10.2 17.3 C5.6 19.8 3.6 23.1 2 28 C1 27.7 0 27.3 -1 27 C-1.6 25.7 -2.1 24.5 -2.7 23.2 C-5.4 18.2 -7.8 17.1 -13 15 C-13 14.3 -13 13.7 -13 13 C-11.6 12.6 -10.1 12.2 -8.6 11.8 C-7.9 11.5 -7.9 11.5 -4 10 C-3.3 8.4 -2.7 6.7 -2 5 C-1.3 3.4 -0.7 1.7 0 0 Z " fill="#DE8253" transform="translate(179,322)"/>
</svg>
