<?xml version="1.0" encoding="UTF-8"?>
<!-- Generator: visioncortex VTracer 0.6.12 -->
<svg version="1.1" xmlns="http://www.w3.org/2000/svg" width="600" height="600" viewBox="0 0 600 600" role="img" aria-label="Fire">
<path d="M0 0 C198 0 396 0 600 0 C600 198 600 396 600 600 C402 600 204 600 0 600 C0 402 0 204 0 0 Z " fill="#EDF2ED" transform="translate(0,0)"/>
<path d="M0 0 C15.9 8.4 29.2 20.5 42 33 C42.8 33.8 43.7 34.6 44.5 35.4 C51.1 41.7 56.5 48.8 62 56 C62.8 57.1 63.6 58.1 64.5 59.2 C80.2 80.2 91 104.5 97 130 C97.3 131.3 97.6 132.6 98 134 C102.3 154.9 101.2 177.7 97.6 198.6 C97 203 97.2 206.6 98 211 C104.5 211.5 108.4 210.3 114 207 C115 206 116 205 117 204 C117.7 204 118.3 204 119 204 C119.7 202.7 120.3 201.4 121 200 C121.9 198.7 122.9 197.4 123.8 196 C130.3 185.9 133 175.8 135 164 C171 198.5 187.8 262.3 189 311 C189 312.5 189.1 314 189.1 315.6 C189.8 369.1 173.7 420.5 137 460 C135.8 461.3 134.6 462.6 133.4 463.9 C125.4 471.4 116.6 477.7 107 483 C110.2 486.2 120.1 485.6 124.4 486.1 C129.4 486.9 133.5 487.9 138 490 C138.7 491 139.3 492 140 493 C126 501.4 105 501 89 502 C87.6 502.1 86.3 502.2 84.9 502.3 C73.6 502.9 62.4 503.2 51 503.2 C49.3 503.2 47.6 503.2 45.8 503.2 C42.1 503.2 38.4 503.2 34.8 503.2 C29.2 503.2 23.7 503.2 18.2 503.2 C-50.6 503.3 -50.6 503.3 -77 495 C-77.5 494.5 -77.5 494.5 -80 492 C-72.5 484.5 -57.1 485 -47 484 C-49.7 481.3 -52.1 479.6 -55.3 477.6 C-92.9 452.7 -113.5 411.9 -123 369 C-134.7 311.4 -124.3 249.5 -93 199.6 C-90.3 195.6 -87.5 192.3 -84 189 C-84 190.4 -84.1 191.8 -84.1 193.3 C-84.4 213.7 -82 231.5 -69 248 C-64.4 252.4 -59.9 255.6 -54 258 C-54.3 256.9 -54.6 255.8 -54.9 254.6 C-62.8 220.4 -52.4 185.7 -34.8 156.3 C-30.9 150.2 -26.6 144.4 -22.3 138.6 C0.9 106.4 13.7 73.1 9.5 33.2 C8.1 25.4 5.8 17.9 3.2 10.4 C2 7 1 3.5 0 0 Z " fill="#CC4729" transform="translate(270,32)"/>
<path d="M0 0 C4 2 4 2 8.4 5.6 C14.3 10.4 20.5 14.2 27 18 C22.8 22.2 14.3 21.4 8.6 22.1 C3.4 22.9 -1.1 24.1 -6 26 C-6.3 26.7 -6.7 27.3 -7 28 C18.6 38.3 50.5 37.1 77.8 37.2 C79.5 37.2 81.2 37.2 83 37.2 C86.7 37.2 90.3 37.2 94 37.2 C99.5 37.2 105 37.2 110.5 37.2 C181.7 37.3 181.7 37.3 209 29 C209.7 28.3 210.3 27.7 211 27 C206.3 24.2 203.7 23.3 198.5 22.4 C197.1 22.2 195.7 21.9 194.2 21.7 C188.5 20.8 182.8 19.9 177 19 C181.2 15.5 185.6 12.7 190.2 9.9 C193 8 193 8 195.6 5.4 C199.9 2.4 202.2 2.4 207.4 2.4 C209.1 2.4 210.9 2.4 212.6 2.4 C213.6 2.4 213.6 2.4 218.3 2.4 C220.3 2.4 222.3 2.4 224.3 2.4 C229.7 2.4 235.2 2.5 240.6 2.5 C246.3 2.5 251.9 2.5 257.6 2.5 C268.4 2.5 279.1 2.6 289.8 2.6 C304.4 2.7 318.9 2.7 333.4 2.8 C356.3 2.8 379.1 2.9 402 3 C402 36 402 69 402 103 C204 103 6 103 -198 103 C-198 70 -198 37 -198 3 C-132.7 2.7 -67.3 2.3 0 2 C0 1.3 0 0.7 0 0 Z " fill="#D5E4D6" transform="translate(198,497)"/>
<path d="M0 0 C-0.3 1.5 -0.7 3.1 -1 4.6 C-5 29.1 -0.5 52.7 13.7 73 C19.7 80.9 26.2 88.1 32.9 95.3 C55.9 120.2 72.3 146.8 72.1 181.4 C72.1 182.6 72.1 183.7 72 184.8 C72 187.5 72 190.3 72 193 C81.2 185.4 86.3 177.3 90 166 C101.2 177.2 102 200.9 102.4 216 C101.8 239.1 96.2 260.8 85 281 C84.1 282.7 83.1 284.4 82.2 286.1 C66.5 310.1 45.8 328.1 18 336 C16.9 336.3 15.8 336.6 14.7 336.9 C-12.3 344.2 -41.7 340.1 -66.3 327.2 C-71.9 323.9 -77 320.2 -82 316 C-83 315.2 -84 314.3 -85.1 313.4 C-110.5 291.1 -124.5 258.5 -126.8 225.1 C-127.9 196.3 -119.3 168.1 -102 145 C-100 148 -100 148 -98.7 153.6 C-97.3 159.4 -95.2 164 -92 169 C-91.3 169.3 -90.7 169.7 -90 170 C-89.9 169.6 -89.9 169.6 -89.4 167.7 C-87.8 163.6 -85.8 159.9 -83.6 156.2 C-72 135.8 -66.5 115.1 -61.9 92.3 C-57.4 70.3 -49.7 49.9 -36 32 C-35.6 31.5 -35.6 31.5 -33.8 29.1 C-10.7 0 -10.7 0 0 0 Z " fill="#E5672B" transform="translate(313,190)"/>
<path d="M0 0 C27.1 19.6 43.9 51.4 50.3 83.7 C52.1 97.4 52.1 111.5 49 125 C58.1 120.4 62.4 113.9 67 105 C77.7 119.3 79.4 141.4 77.3 158.6 C74.4 177.2 67.2 192.6 54 206 C52.9 207.2 51.9 208.4 50.8 209.6 C35.6 223.1 16.8 228.1 -3 227 C-22.3 223.9 -38.5 212.1 -50.2 196.7 C-62.5 178.2 -66.4 157.5 -63.4 135.6 C-58.4 113.4 -44.6 95.9 -30.1 79.1 C-15.7 62.3 0.2 43.1 0.1 19.8 C0.1 18.7 0.1 17.5 0.1 16.3 C0.1 15.1 0.1 13.9 0.1 12.7 C0.1 11.5 0.1 10.3 0 9 C0 6 0 3 0 0 Z " fill="#F1B03C" transform="translate(294,303)"/>
<path d="M0 0 C39.3 14.7 92.6 12.7 131.1 -3.4 C131.7 -3.7 132.4 -4 133.1 -4.4 C145.3 -4.3 159.4 -3.8 170.1 2.6 C170.1 3.6 170.1 4.6 170.1 5.6 C143.7 16.2 110.1 14.8 82.1 14.8 C81.2 14.8 81.2 14.8 76.8 14.8 C73.2 14.8 69.5 14.8 65.8 14.8 C60.3 14.8 54.8 14.8 49.3 14.8 C-19.5 15 -19.5 15 -45.9 6.6 C-46.9 5.6 -47.9 4.6 -48.9 3.6 C-38 -7.3 -13.2 -5.2 0 0 Z " fill="#A7452E" transform="translate(238.9375,520.375)"/>
</svg>
