<?xml version="1.0" encoding="UTF-8"?>
<!-- Generator: visioncortex VTracer 0.6.12 -->
<svg version="1.1" xmlns="http://www.w3.org/2000/svg" width="600" height="600" viewBox="0 0 600 600" role="img" aria-label="Forest">
<path d="M0 0 C198 0 396 0 600 0 C600 198 600 396 600 600 C402 600 204 600 0 600 C0 402 0 204 0 0 Z " fill="#EDF2ED" transform="translate(0,0)"/>
<path d="M0 0 C2 2.6 4 5.3 6 8 C12.4 8.2 12.4 8.2 19 8 C27 12 27 12 32 18 C34.2 24.5 34.2 29.3 32 36 C34 36.3 36 36.7 38 37 C45 43 45 43 46 45 C46.5 56.2 46.5 56.2 43 62 C45 62.7 47 63.3 49 64 C56 72.2 56 72.2 56 82 C52.1 89.8 49.1 91.5 41 95 C47 103 47 103 55 108 C54.7 109 54.3 110 54 111 C50.7 111 47.4 111 44 111 C50.4 121.3 57 127 68 132 C67.7 133 67.3 134 67 135 C65.8 135.3 65.8 135.3 60 137 C60.7 137.3 61.3 137.7 62 138 C62 139 62 140 62 141 C52 141 52 141 50 140 C57.3 151.9 63.8 158.3 77 163 C78.6 163.7 80.3 164.3 82 165 C82 166 82 167 82 168 C76 171 76 171 68 172 C70 173.3 72 174.6 74 176 C74 176.7 74 177.3 74 178 C71 178.7 68.1 179.3 65 180 C72.5 190.7 79 196.9 91 202 C91 203 91 204 91 205 C85.4 207.2 80.9 208 75 206 C82 213 88.7 217.6 98 221 C97.7 222.3 97.3 223.6 97 225 C95 226 95 226 86 227 C86 227.7 86 228.3 86 229 C79 229 79 229 76 228 C84.5 242 93.6 248.8 108 256 C108 256.7 108 257.3 108 258 C102.7 261.6 96.2 260.1 90 260 C92 261.6 94 263.3 96 265 C95.7 265.7 95.3 266.3 95 267 C92 267 89.1 267 86 267 C94.8 279.6 106.6 287.2 121 292 C120.7 293.6 120.3 295.3 120 297 C112.8 300.6 108 300.4 100 300 C98.4 299.3 96.7 298.7 95 298 C95 298.7 95 299.3 95 300 C95.7 300 96.3 300 97 300 C99 302.3 101 304.6 103 307 C106.6 309.4 110.3 311.7 114 314 C115.3 315.3 116.6 316.6 118 318 C111.4 322.4 107.8 322.7 100 323 C100.7 324.3 101.3 325.6 102 327 C101 328 101 328 95.4 328.2 C89 328 89 328 81 325 C82.6 327.6 84.3 330.3 86 333 C86 333.7 86 334.3 86 335 C76 335 76 335 71 333 C71 334.3 71 335.6 71 337 C64 336 64 336 59 333 C58.7 334.6 58.3 336.3 58 338 C55 337.3 52.1 336.7 49 336 C49.3 354.8 49.7 373.6 50 393 C50.7 392.7 51.3 392.3 52 392 C54 392 56 392 58 392 C58.7 392.7 59.3 393.3 60 394 C60.3 392.7 60.7 391.4 61 390 C59.4 389.7 57.7 389.3 56 389 C55 388 54 387 53 386 C53 385 53 384 53 383 C58 384 58 384 61 388 C61.3 385.7 61.7 383.4 62 381 C59.4 379.4 56.7 377.7 54 376 C54 374.4 54 372.7 54 371 C55.6 371.3 57.3 371.7 59 372 C60 373.6 61 375.3 62 377 C62 374.7 62 372.4 62 370 C61.7 369.7 61.3 369.3 61 369 C61 366.4 61 363.7 61 361 C62.3 360.7 63.6 360.3 65 360 C66 361 66 361 66.1 367.6 C66 369.7 66 371.8 66 374 C67.3 372.4 68.6 370.7 70 369 C71.6 369.3 73.3 369.7 75 370 C74.3 371.6 73.7 373.3 73 375 C70.7 376 68.4 377 66 378 C65.7 380.3 65.3 382.6 65 385 C66.3 383.7 67.6 382.4 69 381 C70.6 381.3 72.3 381.7 74 382 C73.7 383.3 73.3 384.6 73 386 C70 387 67.1 388 64 389 C63.7 391 63.3 393 63 395 C65.3 395 67.6 395 70 395 C74 400 74 400 74 407 C75.6 407.3 77.3 407.7 79 408 C79.3 407.3 79.7 406.7 80 406 C81 411 81 411 81 418 C82.6 418.3 84.3 418.7 86 419 C87 420 87 420 87 427 C80.1 430.4 72.6 429.1 65 429 C64.3 430.3 63.7 431.6 63 433 C52.6 436.5 38.8 434.2 27.9 434.2 C24.9 434.2 21.9 434.2 18.8 434.2 C15.9 434.2 13 434.2 10.1 434.2 C7.4 434.2 4.8 434.2 2.1 434.2 C-4 434 -4 434 -6 432 C-7.6 431.7 -9.3 431.3 -11 431 C-10.7 432 -10.3 433 -10 434 C-43.6 435.1 -43.6 435.1 -59 435 C-58.7 436 -58.3 437 -58 438 C-58.3 438.7 -58.7 439.3 -59 440 C-64.5 440.1 -70.1 440.1 -75.6 440.1 C-77.2 440.1 -77.2 440.1 -85 440.2 C-93 440 -93 440 -99 438 C-99.3 437.3 -99.7 436.7 -100 436 C-102.3 436 -104.6 436 -107 436 C-106.3 437 -105.7 438 -105 439 C-115.2 439 -125.5 439 -136 439 C-135.3 438 -134.7 437 -134 436 C-137.2 435.9 -140.4 435.8 -143.8 435.8 C-145.6 435.7 -147.4 435.7 -149.2 435.6 C-154 436 -154 436 -158 440 C-163 440.5 -163 440.5 -169.3 440.4 C-171.5 440.4 -173.7 440.4 -176 440.4 C-177.2 440.4 -177.2 440.4 -183.1 440.3 C-185.5 440.3 -187.8 440.3 -190.2 440.3 C-207.7 440.2 -207.7 440.2 -210 439 C-209.7 437.7 -209.3 436.4 -209 435 C-214.6 435 -220.2 435 -226 435 C-225 436 -224 437 -223 438 C-229.3 438 -235.5 438 -242 438 C-241.7 439.3 -241.3 440.6 -241 442 C-246.5 441.6 -250.8 441.1 -256 439 C-265.7 438.6 -275.3 439.4 -285 440 C-285 439.3 -285 438.7 -285 438 C-281 435 -281 435 -279 435 C-279 434.3 -279 433.7 -279 433 C-278.3 433 -277.7 433 -277 433 C-277 432.3 -277 431.7 -277 431 C-278.7 431 -280.4 431 -282.1 431 C-289.7 431.1 -297.3 431.1 -304.9 431.1 C-306.2 431.1 -306.2 431.1 -312.9 431.2 C-314.2 431.2 -314.2 431.2 -320.6 431.2 C-322.9 431.2 -325.2 431.2 -327.6 431.2 C-333 431 -333 431 -335 429 C-339 428.7 -343 428.3 -347 428 C-348.3 427.3 -349.6 426.7 -351 426 C-351.3 424.7 -351.7 423.4 -352 422 C-349 419 -349 419 -344 418 C-349.3 414.8 -354.5 411.8 -360 409 C-360 408.3 -360 407.7 -360 407 C-353.3 406.8 -348.5 407.1 -342 409 C-348.9 402.2 -354.9 398.3 -364 395 C-363.7 394 -363.3 393 -363 392 C-356.5 389.8 -352.8 391.1 -346.8 393.9 C-343.8 395.5 -340.8 397.1 -338 399 C-341.7 393 -345.4 387.5 -349.9 382 C-354 377 -354 377 -354 374 C-345.7 375.7 -341.3 380.7 -336 387 C-337 381 -337 381 -339.1 375.9 C-341 371 -341 371 -341 367 C-338 368 -338 368 -334.9 373.8 C-332 380 -332 380 -331 384 C-330.4 381.9 -329.8 379.8 -329.1 377.7 C-327 371 -327 371 -325 368 C-324.3 368 -323.7 368 -323 368 C-323.3 377.6 -323.7 387.1 -324 397 C-323 393.7 -322 390.4 -321 387 C-320 385.7 -319 384.4 -318 383 C-317.3 383 -316.7 383 -316 383 C-316.3 387.6 -316.7 392.2 -317 397 C-315.7 396.3 -314.4 395.7 -313 395 C-313.3 379.2 -313.7 363.3 -314 347 C-314.8 347.5 -314.8 347.5 -319 350 C-320.6 350 -322.3 350 -324 350 C-324.2 348.8 -324.2 348.8 -325 343 C-326.4 344.1 -327.8 345.2 -329.2 346.4 C-335 350.8 -336.7 352 -344 352 C-343 346 -343 346 -341 340 C-342.5 340.6 -344 341.3 -345.5 341.9 C-352 344.4 -357.1 345.4 -364 344 C-363 337 -363 337 -360 331 C-364.9 331 -369.9 331 -375 331 C-375.7 329.7 -376.3 328.4 -377 327 C-376 325.7 -376 325.7 -371 319 C-372.3 319.3 -373.6 319.7 -375 320 C-383.8 320.6 -389.5 319.8 -397 315 C-397.3 313.7 -397.7 312.4 -398 311 C-396.2 310.3 -394.5 309.6 -392.7 308.9 C-378.1 302.5 -367.5 293.7 -358 281 C-358.9 281 -358.9 281 -363.2 281.1 C-369 281 -369 281 -373 279 C-372.3 277.4 -371.7 275.7 -371 274 C-370.3 274 -369.7 274 -369 274 C-369 273.3 -369 272.7 -369 272 C-370.8 272.1 -372.6 272.2 -374.5 272.2 C-381.9 272 -386.7 270.3 -392 265 C-391.8 264.3 -391.8 264.3 -391 261 C-389.7 260.8 -388.4 260.7 -387 260.5 C-371.3 256.6 -359.4 248.1 -349 236 C-350.9 236 -352.8 236.1 -354.8 236.1 C-361 236 -361 236 -365 234 C-362.2 228.5 -358.1 226.5 -353 223 C-352.3 222.3 -352.3 222.3 -349 219 C-351.6 219.1 -354.3 219.2 -357 219.3 C-366 219 -366 219 -374 214 C-374.2 213.3 -374.2 213.3 -375 210 C-373.3 209.6 -371.6 209.3 -369.9 208.9 C-354.7 204.7 -343.1 197.1 -333 185 C-336.3 184.7 -339.6 184.3 -343 184 C-342 179 -342 179 -340 177 C-342 177.1 -344 177.2 -346 177.3 C-353 177 -353 177 -361 172 C-361.3 170.7 -361.7 169.4 -362 168 C-359.5 165.5 -355.4 165.8 -352 165 C-337.4 158.4 -329 151 -321 137 C-322.6 137 -324.3 137 -326 137 C-326.3 136.3 -326.7 135.7 -327 135 C-326.3 133.7 -325.7 132.4 -325 131 C-327 131.7 -329 132.3 -331 133 C-340 133 -340 133 -346 130 C-345.7 128.7 -345.3 127.4 -345 126 C-342.7 125 -340.4 124 -338 123 C-326.4 116 -319.7 107.8 -313 96 C-313 95.3 -313 94.7 -313 94 C-314.3 94.3 -315.6 94.7 -317 95 C-326 95 -326 95 -329 93 C-326.4 87.7 -322.9 86.3 -318 83 C-310.6 76.7 -307 69.8 -303 61 C-304.6 61.7 -306.3 62.3 -308 63 C-310.6 63 -313.3 63 -316 63 C-316 57.2 -312.8 55.3 -309 51 C-300.6 37.6 -297.5 23.5 -295 8 C-294.7 7.3 -294.3 6.7 -294 6 C-293 6.3 -292 6.7 -291 7 C-290.6 8.5 -290.3 10 -289.9 11.6 C-286.1 27.1 -282.3 39.3 -271 51 C-271.3 52.3 -271.7 53.6 -272 55 C-279 54 -279 54 -282 53 C-275.6 65.3 -269 73.5 -258 82 C-258.3 83 -258.7 84 -259 85 C-261 86 -261 86 -271 86 C-272.6 85.3 -274.3 84.7 -276 84 C-270.6 94.7 -264.7 102.3 -254.9 109.4 C-253.3 110.6 -251.7 111.8 -250 113 C-250 114.3 -250 115.6 -250 117 C-254.3 119.2 -260.2 118 -265 118 C-263.4 121 -261.7 123.9 -260 127 C-256 125 -256 125 -253 123 C-251 123 -249 123 -247 123 C-247.3 122 -247.7 121 -248 120 C-248.5 111.4 -248 108 -244 100 C-237 93 -237 93 -232 90 C-230.7 90 -229.4 90 -228 90 C-229 88.3 -230 86.7 -231 85 C-231.6 76.6 -231.8 73.1 -227 66 C-218.6 59 -218.4 59 -207 59 C-207.3 58.3 -207.7 57.7 -208 57 C-208 49 -208 49 -204 41 C-196.5 35 -196.5 35 -189 35 C-189 32.4 -189 29.7 -189 27 C-182.2 16.1 -182.2 16.1 -176 13 C-169.9 12.5 -169.9 12.5 -163 13 C-160.3 15.3 -157.7 17.6 -155 20 C-151.3 19.8 -147.7 19.5 -144 19 C-137.6 22.6 -135 25 -131 31 C-130 30.9 -130 30.9 -125 30.6 C-118 31 -118 31 -110 37 C-106.5 42.9 -106.8 46.3 -107 53 C-104.4 53.7 -101.7 54.3 -99 55 C-93 59 -93 59 -88 66 C-87.4 76.7 -87.4 76.7 -89 80 C-87.7 80.2 -87.7 80.2 -81 81 C-74 86 -74 86 -70 92 C-69.7 94.3 -69.3 96.6 -69 99 C-68.7 98.7 -68.3 98.3 -68 98 C-68.3 96.3 -68.7 94.7 -69 93 C-69 86 -69 86 -66 80 C-68 79.7 -70 79.3 -72 79 C-78 72 -78 72 -78 62 C-76.4 60 -74.7 58 -73 56 C-72.3 56 -71.7 56 -71 56 C-71.5 54.8 -71.5 54.8 -74 49 C-74 41 -74 41 -70 34 C-63 30 -63 30 -55 30 C-55 27.4 -55 24.7 -55 22 C-51 16 -51 16 -45 12 C-39.6 11.2 -39.6 11.2 -35 11 C-34.5 10 -34.5 10 -32 5 C-21.7 -5.1 -13.4 -6 0 0 Z " fill="#487156" transform="translate(437,65)"/>
<path d="M0 0 C0.7 1.3 1.3 2.6 2 4 C-4 4 -4 4 -6 3 C-2.4 8.4 5 9 11 11 C16.4 13.7 19.8 15.8 24 20 C24 22 24 24 24 26 C40.8 26 57.7 26 75 26 C75 59 75 92 75 126 C-123 126 -321 126 -525 126 C-525 93 -525 60 -525 26 C-507.8 26 -490.7 26 -473 26 C-473 24 -473 22 -473 20 C-464.2 11.2 -453.8 8.3 -442 5 C-436 5 -436 5 -430 9 C-430 9.3 -430 9.7 -430 10 C-432.3 10.3 -434.6 10.7 -437 11 C-439 15 -439 15 -439 17 C-436.4 17.3 -433.8 17.6 -431.1 17.9 C-423 19 -423 19 -421 21 C-416.9 21.2 -412.7 21.4 -408.6 21.4 C-406 21.5 -403.5 21.5 -400.9 21.5 C-398.3 21.6 -395.6 21.6 -392.9 21.6 C-391.5 21.6 -391.5 21.6 -384.8 21.7 C-378.2 21.8 -371.6 21.9 -365 22 C-365 22.7 -365 23.3 -365 24 C-365.7 24 -366.3 24 -367 24 C-367 24.7 -367 25.3 -367 26 C-371 29 -371 29 -373 29 C-373 29.7 -373 30.3 -373 31 C-370.3 30.7 -367.5 30.3 -364.7 30 C-353.1 28.8 -346.1 28.3 -335 32 C-334 32.2 -334 32.2 -329 33 C-329.3 31.7 -329.7 30.4 -330 29 C-327.2 28.8 -327.2 28.8 -313 28 C-313.3 27.5 -313.3 27.5 -315 25 C-308.4 25 -301.8 25 -295 25 C-295.7 25.3 -296.3 25.7 -297 26 C-297.3 27.3 -297.7 28.6 -298 30 C-289.4 30.1 -280.8 30.2 -272.2 30.2 C-269.8 30.3 -267.4 30.3 -264.8 30.4 C-263.7 30.4 -263.7 30.4 -257.8 30.4 C-255.6 30.4 -253.5 30.4 -251.2 30.5 C-246 30 -246 30 -242 26 C-237 25.6 -237 25.6 -231.2 25.8 C-230.3 25.8 -230.3 25.8 -225.5 25.9 C-224.7 25.9 -224.7 25.9 -221 26 C-221.7 27 -222.3 28 -223 29 C-213.4 29 -203.9 29 -194 29 C-194.7 28 -195.3 27 -196 26 C-193.4 26 -190.7 26 -188 26 C-187.3 27 -186.7 28 -186 29 C-178 30 -170.1 30.3 -162 30.6 C-159.2 30.6 -156.4 30.7 -153.5 30.8 C-151.4 30.9 -149.2 30.9 -147 31 C-147 29.7 -147 28.4 -147 27 C-148 26.3 -149 25.7 -150 25 C-148.2 25 -146.5 25 -144.7 25 C-129.4 25.1 -114.2 24.8 -99 24 C-99 23.3 -99 22.7 -99 22 C-97.4 22 -95.7 22 -94 22 C-93.3 22.7 -92.7 23.3 -92 24 C-87.3 24.2 -82.6 24.3 -77.9 24.3 C-75.1 24.3 -72.2 24.3 -69.3 24.3 C-66.3 24.3 -63.2 24.3 -60.1 24.2 C-58.6 24.3 -58.6 24.3 -51 24.3 C-49.6 24.3 -49.6 24.3 -42.3 24.3 C-39.7 24.3 -37 24.3 -34.3 24.3 C-28 24 -28 24 -24 22 C-23.7 21.3 -23.3 20.7 -23 20 C-20.1 19.9 -17.2 19.7 -14.2 19.6 C-5 19 -5 19 -2 18 C-2 15.7 -2 13.4 -2 11 C-2.8 10.7 -2.8 10.7 -7 9 C-7.3 6.4 -7.7 3.7 -8 1 C-6 0 -6 0 0 0 Z " fill="#D2E3D4" transform="translate(525,474)"/>
<path d="M0 0 C2 2.6 4 5.3 6 8 C12.4 8.2 12.4 8.2 19 8 C27 12 27 12 32 18 C34.2 24.5 34.2 29.3 32 36 C34 36.3 36 36.7 38 37 C45 43 45 43 46 45 C46.5 56.2 46.5 56.2 43 62 C45 62.7 47 63.3 49 64 C56 72.2 56 72.2 56 82 C52.8 88.4 50.3 90.8 44 94 C42.4 93.7 40.7 93.3 39 93 C35.9 86.8 33.8 81.6 32 75 C31.3 75 30.7 75 30 75 C29.8 76.4 29.5 77.8 29.3 79.2 C26.5 91.5 22 102 13 111 C13 111.7 13 112.3 13 113 C15.3 113 17.6 113 20 113 C17.1 123.3 11.1 129.2 3 136 C3 136.7 3 137.3 3 138 C11 138 11 138 15 137 C10.6 145.4 6.2 152.1 -2 157 C-5.5 144.7 -5.2 134.7 0 123 C2 120 4.1 117 6.2 114.1 C12 106 12 106 13 103 C6.2 108.8 1.3 114.8 -4 122 C-4.7 121.7 -5.3 121.3 -6 121 C-6.8 99.9 -6.8 99.9 0 90 C0.9 88.3 1.9 86.6 2.9 84.8 C3.6 83.6 4.3 82.3 5 81 C0 85 0 85 -6 92 C-6.3 92 -6.7 92 -7 92 C-7.3 81.4 -7.7 70.9 -8 60 C-9.6 60 -11.3 60 -13 60 C-13.3 63.3 -13.7 66.6 -14 70 C-18 68 -18 68 -22 64 C-23 63.7 -24 63.3 -25 63 C-23.7 64.7 -22.4 66.5 -21.1 68.2 C-15.5 76.1 -14.8 79.6 -14.9 89.2 C-14.9 91.3 -14.9 93.3 -14.9 95.3 C-15 96.9 -15 98.4 -15 100 C-22.4 92.6 -27.8 84.1 -33 75 C-33 74.3 -33 73.7 -33 73 C-33.7 73 -34.3 73 -35 73 C-34.2 75.1 -33.4 77.2 -32.5 79.4 C-30 86 -30 86 -30 88 C-32.1 87.7 -34.1 87.3 -36.2 87 C-43 86 -43 86 -47 86 C-47 86.7 -47 87.3 -47 88 C-44 88.3 -41.1 88.7 -38 89 C-28.7 92.8 -23.9 97.8 -18.6 106.5 C-15.6 114 -15.4 119.3 -15.6 127.2 C-15.7 128.4 -15.7 128.4 -15.8 134.5 C-15.9 136.3 -15.9 138.1 -16 140 C-17.6 140.3 -19.3 140.7 -21 141 C-21.3 139.5 -21.3 139.5 -23 132 C-24 130.3 -25 128.7 -26 127 C-26 126.3 -26 125.7 -26 125 C-31 123 -31 123 -38 122 C-38.6 120.4 -39.2 118.8 -39.8 117.1 C-42 112 -42 112 -46 110 C-47 110 -48 110 -49 110 C-48.7 111 -48.3 112 -48 113 C-48 122 -48 122 -51 128 C-52.6 129.7 -54.3 131.3 -56 133 C-56.7 136 -57.3 138.9 -58 142 C-56.7 142.7 -56.7 142.7 -50 146 C-44.3 153.1 -45 153.1 -45 163 C-45.3 163.3 -45.7 163.7 -46 164 C-45.1 164.3 -45.1 164.3 -40.8 165.6 C-34.4 168.2 -31.8 171.3 -28 177 C-26 177 -24 177 -22 177 C-16 181 -16 181 -14 186 C-14 193 -14 193 -15 195 C-12.4 195 -9.7 195 -7 195 C1.1 200.4 1.1 200.4 3 206 C3 213 3 213 2 216 C3.6 216.7 5.1 217.4 6.8 218.2 C12 221 15.1 223.2 17 229 C17.7 237.8 16.4 242.1 11 249 C12.3 250 13.6 251 15 252 C15.3 254.6 15.7 257.3 16 260 C17.3 260.3 18.6 260.7 20 261 C23 266 23 266 22 273 C21.7 273.7 21.3 274.3 21 275 C23 275.3 25 275.7 27 276 C32 282.2 32 282.2 32 291 C29 296 29 296 25 300 C25.7 301 26.3 302 27 303 C27 311 27 311 23 318 C17 321 17 321 8 321 C7.5 322.2 7.5 322.2 5 328 C-0 332 -0 332 -7 333 C-13 330 -13 330 -18 325 C-19 325.3 -20 325.7 -21 326 C-20.7 323.4 -20.3 320.7 -20 318 C-21 318 -22 318 -23 318 C-23.7 320.6 -24.3 323.3 -25 326 C-31 324 -31 324 -32 323 C-32.7 306.7 -32.7 306.7 -30.6 298.4 C-24.5 292.7 -17.1 293.6 -9 293 C-7.4 292 -5.7 291 -4 290 C-5.6 290.3 -7.3 290.7 -9 291 C-19.3 291.2 -19.3 291.2 -23 290 C-23 289 -23 288 -23 287 C-22.3 287 -21.7 287 -21 287 C-20.3 284.4 -19.7 281.7 -19 279 C-18.5 277.5 -18.5 277.5 -16 270 C-17 270 -18 270 -19 270 C-19.5 271.5 -19.5 271.5 -22 279 C-25.1 284.2 -28.4 289.1 -32 294 C-32.7 294 -33.3 294 -34 294 C-34.3 278.5 -34.7 263 -35 247 C-35.7 247 -36.3 247 -37 247 C-37.1 249.9 -37.2 252.9 -37.4 255.9 C-38 265 -38 265 -40 267 C-50 255.3 -50 255.3 -50 249 C-50.7 249 -51.3 249 -52 249 C-49.4 258.5 -45.5 265.8 -40 274 C-39.6 279.9 -39.6 279.9 -39.7 286.9 C-39.7 289.3 -39.8 291.7 -39.8 294.1 C-40 301.8 -40.4 309.4 -41 317 C-45 313 -45 313 -49 306 C-49 305 -49 304 -49 303 C-49.7 303 -50.3 303 -51 303 C-56.1 290.9 -58.2 279.9 -60 267 C-60.7 266.7 -61.3 266.3 -62 266 C-61.7 269.4 -61.4 272.7 -61.1 276.1 C-60.9 277.9 -60.7 279.8 -60.5 281.7 C-60.1 285.8 -59.6 289.9 -59 294 C-66 288 -66 288 -71 281 C-68.4 288.7 -64.8 294.1 -59.2 300 C-46.6 315.1 -42.6 329.5 -42.8 348.6 C-42.8 350.1 -42.8 350.1 -42.9 357.4 C-42.9 359.5 -43 361.7 -43 364 C-44 364 -45 364 -46 364 C-47 361 -48 358.1 -49 355 C-55 350 -55 350 -60.5 349.4 C-66 350 -66 350 -72 355 C-73 356.6 -74 358.3 -75 360 C-82.5 356.2 -87.4 349.9 -92 343 C-92 342.3 -92 341.7 -92 341 C-87.7 341 -83.4 341 -79 341 C-84 336 -84 336 -89 332 C-90.3 330 -91.6 328 -93 326 C-90 326 -87.1 326 -84 326 C-85.3 324.7 -86.6 323.4 -88 322 C-88 321.3 -88 320.7 -88 320 C-89.3 319.3 -90.6 318.7 -92 318 C-93.6 315.9 -95.1 313.8 -96.8 311.7 C-102 305 -102 305 -110 300 C-110 301.3 -110 302.6 -110 304 C-115 302 -115 302 -116 300 C-116.3 302 -116.7 304 -117 306 C-118 306 -119 306 -120 306 C-121.3 304 -122.6 302 -124 300 C-127 302 -127 302 -129 306 C-130.3 306.3 -131.6 306.7 -133 307 C-133.3 305 -133.7 303 -134 301 C-134.8 301.5 -134.8 301.5 -139 304 C-139.7 304 -140.3 304 -141 304 C-141.7 305.6 -142.3 307.3 -143 309 C-144 310.6 -145 312.3 -146 314 C-146.7 314 -147.3 314 -148 314 C-148 311.4 -148 308.7 -148 306 C-150.3 306 -152.6 306 -155 306 C-155 305 -155 304 -155 303 C-153 301.4 -151 299.7 -149 298 C-148.1 290.7 -148.1 290.7 -148 284 C-144.7 283.7 -141.4 283.3 -138 283 C-138.7 285.3 -139.3 287.6 -140 290 C-134.3 287 -130.6 284.6 -126 280 C-125 283 -124 285.9 -123 289 C-119 287 -119 287 -116 279 C-115.7 277 -115.3 275 -115 273 C-112.4 275 -109.7 277 -107 279 C-102 281 -102 281 -97 280 C-98.3 278.7 -99.7 277.5 -101.1 276.2 C-105.9 271.1 -109.4 266 -113 260 C-112.7 259.3 -112.3 258.7 -112 258 C-109.7 258.7 -107.4 259.3 -105 260 C-104.3 260 -103.7 260 -103 260 C-106 255 -106 255 -112 249 C-114.3 244.5 -114.3 244.5 -116.2 239.5 C-116.9 237.9 -117.6 236.2 -118.3 234.5 C-119.6 231.1 -120.8 227.5 -122 224 C-123.9 229 -125.7 234.1 -127.4 239.1 C-130.8 248.1 -136 254.6 -142 262 C-138.7 261.7 -135.4 261.3 -132 261 C-135.7 269.5 -140.6 275.4 -147 282 C-147.3 282 -147.7 282 -148 282 C-149.2 272.2 -149.3 262.5 -149.4 252.6 C-149.4 250.9 -149.4 249.2 -149.5 247.4 C-149.6 228.5 -142.8 218.1 -131 204 C-126.4 200.6 -121.7 197.3 -117 194 C-110 188.2 -103.4 182.6 -100 174 C-101.3 174 -102.6 174 -104 174 C-106.7 177 -109.4 180 -112 183 C-114.3 184.7 -116.6 186.3 -119 188 C-121.3 183.4 -117.2 174.7 -116 170 C-115.7 168.7 -115.3 167.4 -115 166 C-116.6 165.7 -118.3 165.3 -120 165 C-120.7 163.7 -121.3 162.4 -122 161 C-123 160 -124 159 -125 158 C-127.6 158 -130.3 158 -133 158 C-134.6 156.7 -136.3 155.4 -138 154 C-139.3 155 -140.6 156 -142 157 C-144.3 157.3 -146.6 157.7 -149 158 C-149.3 155.4 -149.7 152.7 -150 150 C-151 149.7 -152 149.3 -153 149 C-154 146 -154 146 -153 143 C-154.6 143.7 -156.3 144.3 -158 145 C-158.3 144.7 -158.7 144.3 -159 144 C-159 141.7 -159 139.4 -159 137 C-157.7 136 -156.4 135 -155 134 C-156.3 133.7 -157.6 133.3 -159 133 C-159 131 -159 129 -159 127 C-158.3 127 -157.7 127 -157 127 C-157 126.3 -157 125.7 -157 125 C-158 124.7 -159 124.3 -160 124 C-159.3 124 -158.7 124 -158 124 C-158.3 122.7 -158.7 121.4 -159 120 C-158.3 120 -157.7 120 -157 120 C-156.7 120.3 -156.3 120.7 -156 121 C-156.3 120 -156.7 119 -157 118 C-157.3 118.2 -157.3 118.2 -159 119 C-159.7 118.7 -160.3 118.3 -161 118 C-161 117.3 -161 116.7 -161 116 C-161.7 115.7 -161.7 115.7 -165 114 C-167 113 -169 112 -171 111 C-180 111 -180 111 -187 114 C-188 114 -189 114 -190 114 C-190.3 114.3 -190.7 114.7 -191 115 C-191.3 115.3 -191.7 115.7 -192 116 C-191.3 116.3 -190.7 116.7 -190 117 C-190 121.3 -190 125.6 -190 130 C-191 130.3 -192 130.7 -193 131 C-193 130.3 -193 129.7 -193 129 C-201 129 -201 129 -208 133 C-209 134.3 -210 135.6 -211 137 C-213.3 137 -215.6 137 -218 137 C-219.3 137.3 -220.6 137.7 -222 138 C-222 138.7 -222 139.3 -222 140 C-223.7 141.7 -225.3 143.3 -227 145 C-227.7 147.3 -228.3 149.6 -229 152 C-231.3 152 -233.6 152 -236 152 C-237.3 152.3 -238.6 152.7 -240 153 C-240 153.7 -240 154.3 -240 155 C-240.7 155 -241.3 155 -242 155 C-243.3 160.2 -243.3 164.8 -242 170 C-251 171 -251 171 -255 170 C-255 169.3 -255 168.7 -255 168 C-256.3 167.3 -257.6 166.7 -259 166 C-261 163 -261 163 -261 153 C-259.4 151 -257.7 149 -256 147 C-257.6 145 -259.3 143 -261 141 C-261 131 -261 131 -256 125 C-253 123 -253 123 -247 123 C-247.3 122 -247.7 121 -248 120 C-248.5 111.4 -248 108 -244 100 C-237 93 -237 93 -232 90 C-230.7 90 -229.4 90 -228 90 C-228.5 89.2 -228.5 89.2 -231 85 C-231.6 76.6 -231.8 73.1 -227 66 C-218.6 59 -218.4 59 -207 59 C-207.3 58.3 -207.7 57.7 -208 57 C-208 49 -208 49 -204 41 C-196.5 35 -196.5 35 -189 35 C-189 32.4 -189 29.7 -189 27 C-182.2 16.1 -182.2 16.1 -176 13 C-169.9 12.5 -169.9 12.5 -163 13 C-160.3 15.3 -157.7 17.6 -155 20 C-151.3 19.8 -147.7 19.5 -144 19 C-137.6 22.6 -135 25 -131 31 C-129 30.9 -127 30.8 -125 30.6 C-118 31 -118 31 -110 37 C-106.5 42.9 -106.8 46.3 -107 53 C-105.7 53.3 -105.7 53.3 -99 55 C-93 59 -93 59 -88 66 C-87.4 76.7 -87.4 76.7 -89 80 C-86.4 80.3 -83.7 80.7 -81 81 C-74 86 -74 86 -70 92 C-69.7 94.3 -69.3 96.6 -69 99 C-68.7 98.7 -68.3 98.3 -68 98 C-68.3 96.3 -68.7 94.7 -69 93 C-69 86 -69 86 -66 80 C-67 79.8 -67 79.8 -72 79 C-78 72 -78 72 -78 62 C-77.2 61 -77.2 61 -73 56 C-72.3 56 -71.7 56 -71 56 C-72 53.7 -73 51.4 -74 49 C-74 41 -74 41 -70 34 C-63 30 -63 30 -55 30 C-55 27.4 -55 24.7 -55 22 C-51 16 -51 16 -45 12 C-39.6 11.2 -39.6 11.2 -35 11 C-34 9 -33 7 -32 5 C-21.7 -5.1 -13.4 -6 0 0 Z " fill="#5E8A69" transform="translate(437,65)"/>
<path d="M0 0 C1 0.3 2 0.7 3 1 C3.4 2.5 3.7 4 4.1 5.6 C7.9 21.1 11.7 33.3 23 45 C22.7 46.3 22.3 47.6 22 49 C15 48 15 48 12 47 C18.4 59.3 25 67.5 36 76 C35.7 77 35.3 78 35 79 C33 80 33 80 23 80 C21.3 79.3 19.7 78.7 18 78 C23.4 88.7 29.3 96.3 39.1 103.4 C40.7 104.6 42.3 105.8 44 107 C44 108.3 44 109.6 44 111 C39.7 113.2 33.8 112 29 112 C29.8 113.4 30.7 114.8 31.5 116.2 C35.1 123.1 34 126.8 34 135 C35.7 137 37.3 139 39 141 C37.3 143 35.7 145 34 147 C34 150.3 34 153.6 34 157 C35.7 158.7 37.3 160.3 39 162 C39 162.7 39 163.3 39 164 C43.3 164 47.6 164 52 164 C51.3 162.7 50.7 161.4 50 160 C50 153 50 153 52 149 C52.7 149 53.3 149 54 149 C54 148.3 54 147.7 54 147 C58 145 58 145 64 145 C65.3 142 66.6 139.1 68 136 C69.3 135.3 70.6 134.7 72 134 C72 133.3 72 132.7 72 132 C76 130 76 130 83 130 C84.7 128.3 86.3 126.7 88 125 C93 122 93 122 101 123 C101 123.7 101 124.3 101 125 C101.7 124.7 102.3 124.3 103 124 C103 120.7 103 117.4 103 114 C103.3 113 103.7 112 104 111 C103 110.7 102 110.3 101 110 C101.7 109.7 102.3 109.3 103 109 C102.7 108 102.3 107 102 106 C102.7 106 103.3 106 104 106 C104.7 106.7 105.3 107.3 106 108 C106.7 107.3 107.3 106.7 108 106 C114 104 114 104 123 104 C129 107 129 107 133 110 C133 110.7 133 111.3 133 112 C133.8 111.8 133.8 111.8 138 111 C139 115 139 115 138 119 C137.7 117.3 137.3 115.7 137 114 C136 118 136 118 136 122 C135.7 123.3 135.3 124.6 135 126 C136 126 137 126 138 126 C138.7 127.3 139.3 128.6 140 130 C138.7 130.3 137.4 130.7 136 131 C136 133.3 136 135.6 136 138 C137 137.3 138 136.7 139 136 C140 136 141 136 142 136 C141.7 138.3 141.3 140.6 141 143 C142.3 143.3 143.6 143.7 145 144 C145.3 146.3 145.7 148.6 146 151 C154 149 154 149 157 147 C158.3 148.3 159.6 149.6 161 151 C164 151 166.9 151 170 151 C174 155 174 155 174 158 C175.6 158.7 177.3 159.3 179 160 C178.2 167.3 176.9 173.9 175 181 C181.1 176.3 185.9 171.9 191 166 C192.3 166.7 193.6 167.3 195 168 C189.8 180.9 177.1 189.4 166 197 C156.3 204.8 149.8 215.3 146 227 C145.6 233.7 145.5 240 145.6 246.7 C145.6 248.4 145.7 250.1 145.7 251.9 C145.8 259.7 146.1 267.3 147 275 C152.7 269 157.3 263.4 161 256 C158 256 155.1 256 152 256 C154 252 154 252 157.2 248.6 C164.7 239.5 167.8 228.2 171 217 C175.5 219.2 177.4 229.7 179 234 C182.4 241.7 184.7 244.7 191 251 C191 252 191 253 191 254 C187 255 187 255 182 253 C186.5 261.3 191.1 267.6 198 274 C197.3 274.7 196.7 275.3 196 276 C187.5 274.9 185.8 273.7 180 268 C179.6 269.7 179.1 271.5 178.7 273.2 C177 279 177 279 174 283 C173 283 172 283 171 283 C170.3 281.8 170.3 281.8 167 276 C164.7 278 162.4 280 160 282 C158 282.7 156 283.3 154 284 C154.3 282 154.7 280 155 278 C152 278 149.1 278 146 278 C146.1 279.1 146.1 279.1 146.3 284.7 C146 292 146 292 141 297 C140.3 297 139.7 297 139 297 C139 298 139 299 139 300 C141.3 300 143.6 300 146 300 C146 302.6 146 305.3 146 308 C146.7 308 147.3 308 148 308 C148.7 306.4 149.3 304.7 150 303 C153 298 153 298 161 294 C161 296.3 161 298.6 161 301 C162.6 300 164.3 299 166 298 C166 297 166 296 166 295 C167.6 294.3 169.3 293.7 171 293 C174 298 174 298 174 300 C175 300 176 300 177 300 C177 297.7 177 295.4 177 293 C177.7 293.3 178.3 293.7 179 294 C179 294.7 179 295.3 179 296 C180.3 296.3 181.6 296.7 183 297 C182.7 295.4 182.3 293.7 182 292 C191.5 297.2 196.6 303.3 203 312 C205.3 314 207.6 316 210 318 C210 318.7 210 319.3 210 320 C207.4 320.3 204.7 320.7 202 321 C203 322 204 323 205 324 C205 324.7 205 325.3 205 326 C206.3 326.7 207.6 327.3 209 328 C211.3 330 213.6 332 216 334 C215.7 334.7 215.3 335.3 215 336 C205 336 205 336 202 335 C202.9 336.4 203.9 337.8 204.9 339.2 C208 344 208 344 210 348 C201.8 347.1 198.7 346.1 192 342 C192 344.3 192 346.6 192 349 C185 346 185 346 181 343 C181 342.3 181 341.7 181 341 C180.3 341 179.7 341 179 341 C179 343.6 179 346.3 179 349 C173.5 347.6 170.9 343.9 167 340 C165.8 341.2 164.5 342.3 163.2 343.5 C159 347 159 347 155 347 C155 344.7 155 342.4 155 340 C154.4 340.4 154.4 340.4 151.2 342.4 C146 345 146 345 140.1 345.9 C133.1 347.2 129.5 349.8 124 354 C122.7 354.3 121.4 354.7 120 355 C120 356 120 357 120 358 C124.3 358.7 128.6 359.3 133 360 C127 367 127 367 120 371 C119 371 118 371 117 371 C117.1 369.6 117.2 368.3 117.4 366.9 C118.8 349.9 119.7 332.8 120.5 315.7 C120.7 312.8 120.8 310 121 307 C121.1 304.9 121.2 302.8 121.3 300.6 C122 296 122 296 126 292 C126 289 126 286.1 126 283 C126.8 282.3 126.8 282.3 131 279 C133 274 133 274 132 266 C128 262 128 262 123 260 C122 258 121 256 120 254 C113.3 250.6 110.3 251 103 252 C103.7 250.7 104.3 249.4 105 248 C105 239 105 239 100 233 C100.7 232 101.3 231 102 230 C102 222 102 222 98 216 C93 214 93 214 86 214 C86 211.4 86 208.7 86 206 C84.3 205 82.7 204 81 203 C81 201 81 199 81 197 C79 193 79 193 75 191 C72.7 191 70.4 191 68 191 C68 188.4 68 185.7 68 183 C65 177 65 177 61 175 C57.7 175 54.4 175 51 175 C50 173.3 49 171.7 48 170 C41 168 41 168 34 171 C33.7 170.7 33.3 170.3 33 170 C31 170 29 170 27 170 C26 172.3 25 174.6 24 177 C21.7 176 19.4 175 17 174 C9 174 9 174 3 178 C1.1 183.2 1.1 183.2 0 188 C-1.3 188.3 -2.6 188.7 -4 189 C-4.3 189.7 -4.7 190.3 -5 191 C-6.3 190.7 -7.6 190.3 -9 190 C-16 190 -16 190 -21 193 C-23 196 -23 196 -24 203 C-25.3 203.3 -25.3 203.3 -32 205 C-37 209 -37 209 -38 212 C-38 219 -38 219 -37 222 C-38.3 223 -39.6 224 -41 225 C-41.7 227.3 -42.3 229.6 -43 232 C-43.7 232.7 -43.7 232.7 -47 236 C-48 238 -48 238 -48 244 C-47 245.3 -46 246.6 -45 248 C-45.1 248.8 -45.1 248.8 -45.6 252.9 C-46 258 -46 258 -42 263 C-40.8 263.5 -40.8 263.5 -35 266 C-36.3 268.3 -37.6 270.6 -39 273 C-39 281 -39 281 -37 287 C-38 288.3 -39 289.6 -40 291 C-40.6 302.9 -40.6 302.9 -38 308 C-36.7 308.7 -35.4 309.3 -34 310 C-34 310.7 -34 311.3 -34 312 C-30.4 312 -26.7 312 -23 312 C-23.3 314.3 -23.7 316.6 -24 319 C-21 324 -21 324 -15 326 C-12.7 325.7 -10.4 325.3 -8 325 C-7 327 -6 329 -5 331 C2 332 2 332 8 328 C9.3 328.7 10.6 329.3 12 330 C14 330 16 330 18 330 C15.6 324.1 12.6 321.3 8 316.9 C0.2 309.3 0.2 309.3 -2 306 C-2 305 -2 304 -2 303 C2 305 2 305 9 312 C9.8 312.5 9.8 312.5 14 315 C14 312.4 14 309.7 14 307 C15 307.3 16 307.7 17 308 C17.3 308.9 17.3 308.9 19 313.3 C22.5 321.1 27.1 326 33 332 C33.9 318 32.2 310.4 25 298 C23.4 295.1 21.8 292.2 20.2 289.2 C14.9 280.8 9 274 2 267 C3.3 266.3 4.6 265.7 6 265 C6.3 263.4 6.7 261.7 7 260 C10 263 10 263 15 271 C15 271.7 15 272.3 15 273 C15.7 273 16.3 273 17 273 C17.1 271.6 17.1 271.6 17.4 264.8 C18 256 18 256 19 251 C24 257.7 22.1 265.8 22 274 C24.5 284.1 28.3 291 35 299 C36.9 295.3 36.2 290.8 36.3 286.7 C36.4 284.7 36.4 282.6 36.4 280.5 C36.5 278.3 36.5 276.1 36.6 273.9 C36.6 272.8 36.6 272.8 36.7 267.3 C36.8 261.8 36.9 256.4 37 251 C39.3 251 41.6 251 44 251 C46.6 261.9 46.2 272.8 46 284 C49 281 49 281 53 275 C57 269 57 269 60 266 C60.7 266 61.3 266 62 266 C59.1 274.7 55.3 282 51 290 C48.3 298 48.8 305 48.9 313.4 C48.9 316.5 48.9 319.6 48.9 322.8 C49 325.2 49 327.5 49 330 C57.4 320.7 63.6 310.7 70 300 C71 300 72 300 73 300 C72 306 72 306 69 314 C70.5 313.5 72.1 313 73.7 312.4 C79 311 79 311 84 312 C79 316 79 316 72.2 319.1 C64.4 323.3 61.5 326.5 57 334 C56.4 334.9 56.4 334.9 53.5 339.6 C50.2 348 50.5 355.2 51 364 C51.1 366.7 51.2 369.4 51.4 372.2 C53.6 415.9 53.6 415.9 64.6 426.4 C66.1 427.6 67.5 428.8 69 430 C69.7 430.7 70.3 431.3 71 432 C64.7 432 58.5 432 52 432 C52.3 433.3 52.7 434.6 53 436 C47.5 435.6 43.2 435.1 38 433 C28.3 432.6 18.7 433.4 9 434 C9 433.3 9 432.7 9 432 C13 429 13 429 15 429 C15 428.3 15 427.7 15 427 C15.7 427 16.3 427 17 427 C17 426.3 17 425.7 17 425 C15.3 425 13.6 425 11.9 425 C4.3 425.1 -3.3 425.1 -10.9 425.1 C-12.2 425.1 -12.2 425.1 -18.9 425.2 C-20.2 425.2 -20.2 425.2 -26.6 425.2 C-28.9 425.2 -31.2 425.2 -33.6 425.2 C-39 425 -39 425 -41 423 C-45 422.7 -49 422.3 -53 422 C-54.3 421.3 -55.6 420.7 -57 420 C-57.3 418.7 -57.7 417.4 -58 416 C-55 413 -55 413 -50 412 C-55.3 408.8 -60.5 405.8 -66 403 C-66 402.3 -66 401.7 -66 401 C-59.3 400.8 -54.5 401.1 -48 403 C-54.9 396.2 -60.9 392.3 -70 389 C-69.7 388 -69.3 387 -69 386 C-62.5 383.8 -58.8 385.1 -52.8 387.9 C-49.8 389.5 -46.8 391.1 -44 393 C-47.7 387 -51.4 381.5 -55.9 376 C-60 371 -60 371 -60 368 C-51.7 369.7 -47.3 374.7 -42 381 C-43 375 -43 375 -45.1 369.9 C-47 365 -47 365 -47 361 C-44 362 -44 362 -40.9 367.8 C-38 374 -38 374 -37 378 C-36.4 375.9 -35.8 373.8 -35.1 371.7 C-33 365 -33 365 -31 362 C-30.3 362 -29.7 362 -29 362 C-29.3 371.6 -29.7 381.1 -30 391 C-29 387.7 -28 384.4 -27 381 C-26 379.7 -25 378.4 -24 377 C-23.3 377 -22.7 377 -22 377 C-22.3 381.6 -22.7 386.2 -23 391 C-21.7 390.3 -20.4 389.7 -19 389 C-19.3 373.2 -19.7 357.3 -20 341 C-20.8 341.5 -20.8 341.5 -25 344 C-26.7 344 -28.3 344 -30 344 C-30.2 342.8 -30.2 342.8 -31 337 C-32.4 338.1 -33.8 339.2 -35.2 340.4 C-41 344.8 -42.7 346 -50 346 C-49 340 -49 340 -47 334 C-48.5 334.6 -50 335.3 -51.5 335.9 C-58 338.4 -63.1 339.4 -70 338 C-69 331 -69 331 -66 325 C-71 325 -75.9 325 -81 325 C-81.7 323.7 -82.3 322.4 -83 321 C-82 319.7 -82 319.7 -77 313 C-78.3 313.3 -79.6 313.7 -81 314 C-89.8 314.6 -95.5 313.8 -103 309 C-103.3 307.7 -103.7 306.4 -104 305 C-102.2 304.3 -100.5 303.6 -98.7 302.9 C-84.1 296.5 -73.5 287.7 -64 275 C-64.9 275 -64.9 275 -69.2 275.1 C-75 275 -75 275 -79 273 C-78.3 271.4 -77.7 269.7 -77 268 C-76.3 268 -75.7 268 -75 268 C-75 267.3 -75 266.7 -75 266 C-76.8 266.1 -78.6 266.2 -80.5 266.2 C-87.9 266 -92.7 264.3 -98 259 C-97.8 258.3 -97.8 258.3 -97 255 C-95.7 254.8 -94.4 254.7 -93 254.5 C-77.3 250.6 -65.4 242.1 -55 230 C-56.9 230 -58.8 230.1 -60.8 230.1 C-67 230 -67 230 -71 228 C-68.2 222.5 -64.1 220.5 -59 217 C-58.3 216.3 -58.3 216.3 -55 213 C-57.6 213.1 -60.3 213.2 -63 213.3 C-72 213 -72 213 -80 208 C-80.2 207.3 -80.2 207.3 -81 204 C-79.3 203.6 -77.6 203.3 -75.9 202.9 C-60.7 198.7 -49.1 191.1 -39 179 C-42.3 178.7 -45.6 178.3 -49 178 C-48 173 -48 173 -46 171 C-48 171.1 -50 171.2 -52 171.3 C-59 171 -59 171 -67 166 C-67.3 164.7 -67.7 163.4 -68 162 C-65.5 159.5 -61.4 159.8 -58 159 C-43.4 152.4 -35 145 -27 131 C-28.7 131 -30.3 131 -32 131 C-32.3 130.3 -32.7 129.7 -33 129 C-32.7 128.3 -32.7 128.3 -31 125 C-33 125.7 -35 126.3 -37 127 C-46 127 -46 127 -52 124 C-51.8 123.3 -51.8 123.3 -51 120 C-48.7 119 -46.4 118 -44 117 C-32.4 110 -25.7 101.8 -19 90 C-19 89.3 -19 88.7 -19 88 C-20.3 88.3 -21.6 88.7 -23 89 C-32 89 -32 89 -35 87 C-32.4 81.7 -28.9 80.3 -24 77 C-16.6 70.7 -13 63.8 -9 55 C-10.7 55.7 -12.3 56.3 -14 57 C-16.6 57 -19.3 57 -22 57 C-22 51.2 -18.8 49.3 -15 45 C-6.6 31.6 -3.5 17.5 -1 2 C-0.7 1.3 -0.3 0.7 0 0 Z " fill="#436B51" transform="translate(143,71)"/>
<path d="M0 0 C3 4 3 4 3 6 C4 5.7 5 5.3 6 5 C13 5 13 5 19 9 C21 14 21 14 21 20 C20.7 20.7 20.3 21.3 20 22 C22.3 21.7 24.6 21.3 27 21 C32 24 32 24 34 28 C33.7 30 33.3 32 33 34 C34.7 34.7 36.3 35.3 38 36 C39 37 39 37 39 43 C38.7 43.7 38.3 44.3 38 45 C39.2 44.8 39.2 44.8 45 44 C51 47 51 47 55 53 C55 61 55 61 53 65 C53.8 65.8 53.8 65.8 58 70 C58 79 58 79 57 82 C58.5 81.8 58.5 81.8 66 81 C73 85 73 85 75 88 C75 89 75 90 75 91 C76.6 91.3 78.3 91.7 80 92 C85 97 85 97 86 105 C83 111 83 111 80 114 C79.3 114 78.7 114 78 114 C78.3 117 78.7 119.9 79 123 C78 124.3 77 125.6 76 127 C75.3 127 74.7 127 74 127 C74 128.4 74 129.8 74.1 131.3 C74 140.1 73.5 149 73.1 157.9 C73 158.8 73 158.8 72.8 163.2 C72.1 176.4 72.1 176.4 71 182 C70.3 180.7 69.7 179.4 69 178 C65 172 65 172 62 170 C53 170 53 170 49 172 C48.7 173 48.7 173 47 178 C46.7 178.7 46.3 179.3 46 180 C42.7 180 39.4 180 36 180 C31 185 31 185 30 187 C29.3 187 28.7 187 28 187 C27 185.4 26 183.7 25 182 C23 181 23 181 15 181 C12 185 12 185 11 193 C8 193.3 5.1 193.7 2 194 C1.1 180.8 2.9 173.2 10 162 C11 160.4 11.9 158.8 12.9 157.1 C19.1 150.9 26.2 147.9 34 144 C34.3 143.7 34.7 143.3 35 143 C33 143.3 31 143.7 29 144 C26.4 144.3 23.7 144.7 21 145 C22 140 22 140 25 131 C22 132 22 132 18.4 138.2 C13.4 147 8.2 155.9 0 162 C-0.1 156.4 -0.2 150.8 -0.2 145.1 C-0.3 142 -0.3 138.9 -0.4 135.6 C0.2 122.3 5.7 113.6 12 102 C12.7 100.4 13.3 98.7 14 97 C7.6 102.1 4.3 108.1 0 115 C-0.7 115 -1.3 115 -2 115 C-2.1 113.4 -2.1 111.9 -2.2 110.3 C-2.3 108.3 -2.4 106.3 -2.4 104.2 C-2.5 102.2 -2.6 100.2 -2.7 98.1 C-3 93 -3 93 -4 90 C-4 87.4 -4 84.7 -4 82 C-6.3 82 -8.6 82 -11 82 C-11 85.3 -11 88.5 -10.9 91.9 C-10.9 96.2 -10.9 100.5 -10.9 104.8 C-10.9 106.9 -10.8 109.1 -10.8 111.3 C-10.8 113.4 -10.8 115.4 -10.8 117.5 C-10.8 119.5 -10.8 121.4 -10.8 123.3 C-11 128 -11 128 -13 132 C-24.6 115.6 -27 106 -27 86 C-27.3 85.3 -27.7 84.7 -28 84 C-29 90.7 -30 97.3 -31 104 C-31.7 104 -32.3 104 -33 104 C-38.9 94.3 -38.9 94.3 -40 92 C-40.3 94 -40.7 96 -41 98 C-42.3 98 -43.6 98 -45 98 C-43.5 99.4 -42 100.8 -40.4 102.3 C-23.8 119.7 -13.7 140.2 -14 164 C-22.9 156.3 -27.9 150 -32 139 C-32.7 138.7 -33.3 138.3 -34 138 C-33.8 139.5 -33.8 139.5 -33 147 C-39.3 143.4 -43.1 140.1 -48 135 C-48.7 134.7 -49.3 134.3 -50 134 C-45.4 142 -40 147.1 -33.4 153.4 C-30 157 -30 157 -30 161 C-36 162 -36 162 -41 160 C-41.8 160.7 -41.8 160.7 -46 164 C-53 163 -53 163 -56 159 C-56 158 -56 157 -56 156 C-57 156.7 -58 157.3 -59 158 C-67 157 -67 157 -72 152 C-73 146 -73 146 -73 144 C-76 143.7 -78.9 143.3 -82 143 C-82 142.3 -82 141.7 -82 141 C-83.7 140.3 -85.3 139.7 -87 139 C-89.9 133.3 -89.3 128.3 -89 122 C-88 120.7 -87 119.4 -86 118 C-86.3 117 -86.3 117 -88 112 C-88 104 -88 104 -85 99 C-85 98.3 -85 97.7 -85 97 C-87 96 -89 95 -91 94 C-95 89 -95 89 -94.6 83.9 C-94.5 83.1 -94.5 83.1 -94 79 C-95 77.7 -96 76.4 -97 75 C-97 69 -97 69 -93 63 C-92.7 62.8 -92.7 62.8 -91 62 C-90.3 59.7 -89.7 57.4 -89 55 C-88 54 -87 53 -86 52 C-86.3 51.3 -86.7 50.7 -87 50 C-87 43 -87 43 -84 38 C-78 34 -78 34 -72 34 C-72 31.7 -72 29.4 -72 27 C-67 21 -67 21 -64 20 C-57 20 -57 20 -53 22 C-52.3 20.7 -51.7 19.4 -51 18 C-50.3 18 -49.7 18 -49 18 C-48 15 -47 12.1 -46 9 C-39 4 -39 4 -31 4 C-29 5 -27 6 -25 7 C-24 5 -23 3 -22 1 C-21.7 0.7 -21.3 0.3 -21 0 C-18 0 -15 0 -12 0 C-7 -2 -7 -2 0 0 Z " fill="#8DAF8C" transform="translate(191,240)"/>
<path d="M0 0 C5.3 3.6 7.6 5.8 11 11 C13 11 15 11 17 11 C23 15 23 15 25 20 C25 27 25 27 24 29 C26.6 29 29.3 29 32 29 C40.1 34.4 40.1 34.4 42 40 C42 47 42 47 41 50 C42.6 50.7 44.1 51.4 45.8 52.2 C51 55 54.1 57.2 56 63 C56.7 71.8 55.4 76.1 50 83 C51.3 84 52.6 85 54 86 C54.3 88.6 54.7 91.3 55 94 C56.3 94.3 57.6 94.7 59 95 C62 100 62 100 61 107 C60.7 107.7 60.3 108.3 60 109 C61 109.2 61 109.2 66 110 C71 116.2 71 116.2 71 125 C68 130 68 130 64 134 C64.7 135 65.3 136 66 137 C66 145 66 145 62 152 C56 155 56 155 47 155 C46 157.3 45 159.6 44 162 C39 166 39 166 32 167 C26 164 26 164 21 159 C20 159.3 19 159.7 18 160 C18.3 157.4 18.7 154.7 19 152 C18 152 17 152 16 152 C15.7 153.3 15.7 153.3 14 160 C8 158 8 158 7 157 C6.3 140.7 6.3 140.7 8.4 132.4 C14.5 126.7 21.9 127.6 30 127 C31.6 126 33.3 125 35 124 C34.2 124.2 34.2 124.2 30 125 C19.7 125.2 19.7 125.2 16 124 C16 123 16 122 16 121 C16.7 121 17.3 121 18 121 C18.7 118.4 19.3 115.7 20 113 C21 110 22 107.1 23 104 C22 104 21 104 20 104 C19 107 18 109.9 17 113 C13.9 118.2 10.6 123.1 7 128 C6.3 128 5.7 128 5 128 C4.7 112.5 4.3 97 4 81 C3.3 81 2.7 81 2 81 C1.9 82.5 1.9 82.5 1.6 89.9 C1 99 1 99 -1 101 C-11 89.3 -11 89.3 -11 83 C-11.7 83 -12.3 83 -13 83 C-10.4 92.5 -6.5 99.8 -1 108 C-0.6 113.9 -0.6 113.9 -0.7 120.9 C-0.7 123.3 -0.8 125.7 -0.8 128.1 C-1 135.8 -1.4 143.4 -2 151 C-6 147 -6 147 -10 140 C-10 139 -10 138 -10 137 C-10.7 137 -11.3 137 -12 137 C-17.1 124.9 -19.2 113.9 -21 101 C-21.7 100.7 -22.3 100.3 -23 100 C-22.7 103.4 -22.4 106.7 -22.1 110.1 C-22 111 -22 111 -21.5 115.7 C-21.1 119.8 -20.6 123.9 -20 128 C-27 122 -27 122 -32 115 C-29.4 122.7 -25.8 128.1 -20.2 134 C-7.6 149.1 -3.6 163.5 -3.8 182.6 C-3.8 184.1 -3.8 184.1 -3.9 191.4 C-3.9 193.5 -4 195.7 -4 198 C-5 198 -6 198 -7 198 C-8 195 -9 192.1 -10 189 C-16 184 -16 184 -21.5 183.4 C-27 184 -27 184 -33 189 C-34 190.6 -35 192.3 -36 194 C-43.5 190.2 -48.4 183.9 -53 177 C-53 176.3 -53 175.7 -53 175 C-48.7 175 -44.4 175 -40 175 C-45 170 -45 170 -50 166 C-51.3 164 -52.6 162 -54 160 C-51 160 -48.1 160 -45 160 C-45.7 159.3 -45.7 159.3 -49 156 C-49 155.3 -49 154.7 -49 154 C-49.7 153.7 -49.7 153.7 -53 152 C-54.6 149.9 -56.1 147.8 -57.8 145.7 C-63 139 -63 139 -71 134 C-71 135.3 -71 136.6 -71 138 C-76 136 -76 136 -77 134 C-77.2 135 -77.2 135 -78 140 C-79 140 -80 140 -81 140 C-82.3 138 -83.6 136 -85 134 C-88 136 -88 136 -90 140 C-91.3 140.3 -92.6 140.7 -94 141 C-94.3 139 -94.7 137 -95 135 C-96.6 136 -98.3 137 -100 138 C-100.7 138 -101.3 138 -102 138 C-102.7 139.6 -103.3 141.3 -104 143 C-105 144.6 -106 146.3 -107 148 C-107.7 148 -108.3 148 -109 148 C-109 145.4 -109 142.7 -109 140 C-111.3 140 -113.6 140 -116 140 C-116 139 -116 138 -116 137 C-114 135.4 -112 133.7 -110 132 C-109.1 124.7 -109.1 124.7 -109 118 C-107.4 117.8 -107.4 117.8 -99 117 C-99.7 119.3 -100.3 121.6 -101 124 C-95.3 121 -91.6 118.6 -87 114 C-86 117 -85 119.9 -84 123 C-80 121 -80 121 -77 113 C-76.7 111 -76.3 109 -76 107 C-73.4 109 -70.7 111 -68 113 C-63 115 -63 115 -58 114 C-59.3 112.7 -60.7 111.5 -62.1 110.2 C-66.9 105.1 -70.4 100 -74 94 C-73.7 93.3 -73.3 92.7 -73 92 C-70.7 92.7 -68.4 93.3 -66 94 C-65.3 94 -64.7 94 -64 94 C-67 89 -67 89 -72 84 C-72 83.3 -72 82.7 -72 82 C-70.5 81.7 -70.5 81.7 -63 80 C-60.7 79 -58.4 78 -56 77 C-56.7 76 -57.3 75 -58 74 C-58 65 -58 65 -53 59 C-51.7 58.3 -50.4 57.7 -49 57 C-50 55 -51 53 -52 51 C-52 43 -52 43 -48 37 C-43 33 -43 33 -39 31 C-38.7 28.4 -38.3 25.7 -38 23 C-34 17 -34 17 -25 14 C-24 11.7 -23 9.4 -22 7 C-14.6 -0.4 -10.4 -1.2 0 0 Z " fill="#89AC89" transform="translate(398,231)"/>
<path d="M0 0 C2 0 4 0 6 0 C7.3 1.6 8.6 3.3 10 5 C15 6 15 6 19 4 C21.6 3.3 24.3 2.7 27 2 C27.3 1.7 27.7 1.3 28 1 C33 1 33 1 40 4 C40.3 5.5 40.3 5.5 42 13 C43 14 44 15 45 16 C48 16 50.9 16 54 16 C55 18.3 56 20.6 57 23 C63 25 63 25 64 25 C64 28.3 64 31.6 64 35 C61.7 36 59.4 37 57 38 C55 42 55 42 56 49 C57 52 58 54.9 59 58 C60.7 58.7 62.3 59.3 64 60 C64.2 60.7 64.2 60.7 65 64 C66.6 64.1 68.1 64.1 69.8 64.2 C75 65 75 65 79 70 C81 71 81 71 89 71 C90.7 69.4 92.3 67.7 94 66 C99.2 66.2 99.2 66.2 104 67 C104.7 67 105.3 67 106 67 C104.4 114 104.4 114 103 121 C102.3 119.7 101.7 118.4 101 117 C97 111 97 111 94 109 C85 109 85 109 81 111 C80.3 113 79.7 115 79 117 C78.7 117.7 78.3 118.3 78 119 C74.7 119 71.4 119 68 119 C63 124 63 124 62 126 C61.3 126 60.7 126 60 126 C59 124.4 58 122.7 57 121 C55 120 55 120 47 120 C44 124 44 124 43 132 C40 132.3 37.1 132.7 34 133 C33.1 119.8 34.9 112.2 42 101 C43 99.4 43.9 97.8 44.9 96.1 C51.1 89.9 58.2 86.9 66 83 C66.3 82.7 66.7 82.3 67 82 C65 82.3 63 82.7 61 83 C58.4 83.3 55.7 83.7 53 84 C54 79 54 79 57 70 C54 71 54 71 50.4 77.2 C45.4 86 40.2 94.9 32 101 C31.9 95.4 31.8 89.8 31.8 84.1 C31.7 81 31.7 77.9 31.6 74.6 C32.2 61.3 37.7 52.6 44 41 C44.7 39.4 45.3 37.7 46 36 C39.6 41.1 36.3 47.1 32 54 C31.3 54 30.7 54 30 54 C29.9 52.4 29.9 50.9 29.8 49.3 C29.7 47.3 29.6 45.3 29.6 43.2 C29.5 41.2 29.4 39.2 29.3 37.1 C29 32 29 32 28 29 C28 26.4 28 23.7 28 21 C25.7 21 23.4 21 21 21 C21 24.3 21 27.5 21.1 30.9 C21.1 35.2 21.1 39.5 21.1 43.8 C21.1 45.9 21.2 48.1 21.2 50.3 C21.2 52.4 21.2 54.4 21.2 56.5 C21.2 58.5 21.2 60.4 21.2 62.3 C21 67 21 67 19 71 C7.4 54.6 5 45 5 25 C4.8 24.7 4.8 24.7 4 23 C3 29.7 2 36.3 1 43 C0.3 43 -0.3 43 -1 43 C-6.9 33.2 -6.9 33.2 -8 31 C-8.3 33 -8.7 35 -9 37 C-10.3 37 -11.6 37 -13 37 C-11.5 38.4 -10 39.8 -8.4 41.3 C8.2 58.7 18.3 79.2 18 103 C9.1 95.3 4.1 89 0 78 C-0.3 77.8 -0.3 77.8 -2 77 C-1.8 78.5 -1.8 78.5 -1 86 C-7.3 82.4 -11.1 79.1 -16 74 C-16.3 73.8 -16.3 73.8 -18 73 C-13.4 81 -8 86.1 -1.4 92.4 C2 96 2 96 2 100 C-4 101 -4 101 -9 99 C-10.7 100.3 -12.3 101.6 -14 103 C-21 102 -21 102 -24 98 C-24 97 -24 96 -24 95 C-25 95.7 -26 96.3 -27 97 C-35 96 -35 96 -40 91 C-41 85 -41 85 -41 83 C-44 82.7 -46.9 82.3 -50 82 C-50 81.3 -50 80.7 -50 80 C-51.7 79.3 -53.3 78.7 -55 78 C-57.9 72.3 -57.3 67.3 -57 61 C-56 59.7 -55 58.4 -54 57 C-54.7 55 -55.3 53 -56 51 C-56 43 -56 43 -53 38 C-53 37 -53 36 -53 35 C-50.4 34.7 -47.7 34.3 -45 34 C-44.7 36.3 -44.3 38.6 -44 41 C-41 41.3 -38.1 41.7 -35 42 C-33.7 40.7 -32.4 39.4 -31 38 C-28.7 37.3 -26.4 36.7 -24 36 C-19.3 29.8 -20.8 23.6 -21 16 C-18.7 15.3 -16.4 14.7 -14 14 C-13 12.7 -12 11.4 -11 10 C-8.7 9.3 -6.4 8.7 -4 8 C-1 3 -1 3 0 0 Z " fill="#608C69" transform="translate(159,301)"/>
<path d="M0 0 C2 2.6 4 5.3 6 8 C12.4 8.2 12.4 8.2 19 8 C27 12 27 12 32 18 C34.2 24.5 34.2 29.3 32 36 C34 36.3 36 36.7 38 37 C45 43 45 43 46 45 C46.5 56.2 46.5 56.2 43 62 C45 62.7 47 63.3 49 64 C56 72.2 56 72.2 56 82 C52.8 88.4 50.3 90.8 44 94 C42.4 93.7 40.7 93.3 39 93 C35.9 86.8 33.8 81.6 32 75 C31.3 75 30.7 75 30 75 C29.8 76.4 29.5 77.8 29.3 79.2 C26.5 91.5 22 102 13 111 C13 111.7 13 112.3 13 113 C15.3 113 17.6 113 20 113 C17.1 123.3 11.1 129.2 3 136 C3 136.7 3 137.3 3 138 C11 138 11 138 15 137 C10.6 145.4 6.2 152.1 -2 157 C-5.5 144.7 -5.2 134.7 0 123 C2 120 4.1 117 6.2 114.1 C12 106 12 106 13 103 C6.2 108.8 1.3 114.8 -4 122 C-4.7 121.7 -5.3 121.3 -6 121 C-6.8 99.9 -6.8 99.9 0 90 C0.5 89.1 0.5 89.1 2.9 84.8 C3.6 83.6 4.3 82.3 5 81 C0 85 0 85 -6 92 C-6.3 92 -6.7 92 -7 92 C-7.3 81.4 -7.7 70.9 -8 60 C-10.6 59.7 -13.3 59.3 -16 59 C-16.7 57.7 -17.3 56.4 -18 55 C-23 53 -23 53 -32 53 C-37 56 -37 56 -40 61 C-41 60.7 -42 60.3 -43 60 C-51 60 -51 60 -56 63 C-58.6 68.2 -58.1 72.3 -58 78 C-59.2 78.3 -59.2 78.3 -65 80 C-65.2 80.3 -65.2 80.3 -66 82 C-66 81.3 -66 80.7 -66 80 C-68 79.7 -70 79.3 -72 79 C-78 72 -78 72 -78 62 C-76.4 60 -74.7 58 -73 56 C-72.3 56 -71.7 56 -71 56 C-71.5 54.8 -71.5 54.8 -74 49 C-74 41 -74 41 -70 34 C-63 30 -63 30 -55 30 C-55 27.4 -55 24.7 -55 22 C-51 16 -51 16 -45 12 C-39.6 11.2 -39.6 11.2 -35 11 C-34 9 -33 7 -32 5 C-21.7 -5.1 -13.4 -6 0 0 Z " fill="#8BAD8C" transform="translate(437,65)"/>
<path d="M0 0 C1 1 2 2 3 3 C4.3 2.7 5.6 2.3 7 2 C7 18.8 7 35.7 7 53 C8 53.2 8 53.2 13 54 C17.9 58.9 18 61.7 18 69 C19.6 69.3 21.3 69.7 23 70 C23.7 68 24.3 66 25 64 C26.3 62.7 27.6 61.4 29 60 C31 60 33 60 35 60 C35.7 60.7 36.3 61.3 37 62 C37.3 60.7 37.7 59.4 38 58 C36.4 57.7 34.7 57.3 33 57 C32 56 31 55 30 54 C30 53 30 52 30 51 C35 52 35 52 38 56 C38.3 53.7 38.7 51.4 39 49 C36.4 47.4 33.7 45.7 31 44 C31 42.4 31 40.7 31 39 C32.6 39.3 34.3 39.7 36 40 C37 41.6 38 43.3 39 45 C39 42.7 39 40.4 39 38 C38.7 37.7 38.3 37.3 38 37 C38 34.4 38 31.7 38 29 C39.3 28.7 40.6 28.3 42 28 C43 29 43 29 43.1 35.6 C43 37.7 43 39.8 43 42 C44.3 40.4 45.6 38.7 47 37 C48.6 37.3 50.3 37.7 52 38 C51.3 39.6 50.7 41.3 50 43 C47.7 44 45.4 45 43 46 C42.7 48.3 42.3 50.6 42 53 C43.3 51.7 44.6 50.4 46 49 C47.6 49.3 49.3 49.7 51 50 C50.7 51.3 50.3 52.6 50 54 C47 55 44.1 56 41 57 C40.7 59 40.3 61 40 63 C42.3 63 44.6 63 47 63 C51 68 51 68 51 75 C52.6 75.3 54.3 75.7 56 76 C56.3 75.3 56.7 74.7 57 74 C58 79 58 79 58 86 C59.6 86.3 61.3 86.7 63 87 C64 88 64 88 64 95 C57.1 98.4 49.6 97.1 42 97 C41.7 97.7 41.7 97.7 40 101 C29.6 104.5 15.8 102.2 4.9 102.2 C1.9 102.2 -1.1 102.2 -4.2 102.2 C-7.1 102.2 -10 102.2 -12.9 102.2 C-15.6 102.2 -18.2 102.2 -20.9 102.2 C-27 102 -27 102 -29 100 C-31 100 -33 100 -35 100 C-35 99.3 -35 98.7 -35 98 C-34.3 97.8 -34.3 97.8 -31 97 C-30.7 94.7 -30.3 92.4 -30 90 C-29 89.7 -29 89.7 -24 88 C-24 85.4 -24 82.7 -24 80 C-19 76 -19 76 -13 76 C-13.3 74.7 -13.7 73.4 -14 72 C-16 71 -16 71 -25 71 C-25 68 -25 65.1 -25 62 C-26 61 -27 60 -28 59 C-34 60 -34 60 -37 61 C-37.7 58 -38.3 55.1 -39 52 C-40.6 50.4 -42.3 48.7 -44 47 C-46.6 47 -49.3 47 -52 47 C-52.1 41.7 -52.1 36.4 -52.1 31.1 C-52.1 28.2 -52.2 25.2 -52.2 22.2 C-52 15 -52 15 -50 13 C-49 13.7 -48 14.3 -47 15 C-43.7 15 -40.4 15 -37 15 C-35.4 13.4 -33.7 11.7 -32 10 C-28 10 -24 10 -20 10 C-16 7 -16 7 -15 4 C-13.5 3.9 -11.9 3.8 -10.3 3.7 C-5 3 -5 3 0 0 Z " fill="#608C6A" transform="translate(460,397)"/>
<path d="M0 0 C2.7 2.3 5.3 4.6 8 7 C11.7 6.8 15.3 6.5 19 6 C25.4 9.6 28 12 32 18 C34 17.9 36 17.8 38 17.6 C45 18 45 18 53 24 C56.5 29.9 56.2 33.3 56 40 C58.6 40.7 61.3 41.3 64 42 C70 46 70 46 75 53 C75.3 59.4 75.3 59.4 75 65 C71 67 71 67 66 66 C66.3 66.3 66.7 66.7 67 67 C66.3 67.7 65.7 68.3 65 69 C64.7 67.3 64.3 65.7 64 64 C65 64 66 64 67 64 C66.7 63.7 66.3 63.3 66 63 C65 63 64 63 63 63 C63 62 63 61 63 60 C62.7 60.2 62.7 60.2 61 61 C61 60.3 61 59.7 61 59 C60.3 59 59.7 59 59 59 C59 59.7 59 60.3 59 61 C57.7 61 56.4 61 55 61 C55 62.3 55 63.6 55 65 C54.3 65 53.7 65 53 65 C52.8 65.5 52.8 65.5 52 68 C51.3 68 50.7 68 50 68 C50.3 65.7 50.7 63.4 51 61 C50 62 50 62 49 66 C48.7 66.7 48.7 66.7 47 70 C46.3 68.7 45.7 67.4 45 66 C43 66 43 66 40 67 C40.7 67.7 41.3 68.3 42 69 C41.3 69 40.7 69 40 69 C39.8 69.7 39.8 69.7 39 73 C38.7 73.7 38.3 74.3 38 75 C38.7 75 39.3 75 40 75 C41 76 42 77 43 78 C43.5 78.2 43.5 78.2 46 79 C45.3 79.3 45.3 79.3 42 81 C42 80.3 42 79.7 42 79 C40 78.7 38 78.3 36 78 C31 75 31 75 30 73 C31.3 72.7 32.6 72.3 34 72 C34 71.7 34 71.3 34 71 C32.4 71.3 30.7 71.7 29 72 C29 72.7 29 73.3 29 74 C27.7 74.3 26.4 74.7 25 75 C24.7 73.3 24.3 71.7 24 70 C23.3 69.8 23.3 69.8 20 69 C19.7 67.7 19.7 67.7 18 61 C18.7 60 19.3 59 20 58 C19.5 57.8 19.5 57.8 17 57 C17 55.7 17 54.4 17 53 C17.7 53 18.3 53 19 53 C19 52.3 19 51.7 19 51 C17.4 51 15.7 51 14 51 C14 50.3 14 49.7 14 49 C12 48.7 10 48.3 8 48 C7.7 47.3 7.7 47.3 6 44 C4.7 44 3.4 44 2 44 C1.3 44 0.7 44 0 44 C-0.3 45.7 -0.7 47.3 -1 49 C-3.3 49.7 -5.6 50.3 -8 51 C-7.8 51.7 -7.8 51.7 -7 55 C-8.6 54.7 -10.3 54.3 -12 54 C-11.8 54.7 -11.8 54.7 -11 58 C-11.3 58.2 -11.3 58.2 -13 59 C-13.3 58.8 -13.3 58.8 -15 58 C-14.7 59 -14.3 60 -14 61 C-14.7 61 -15.3 61 -16 61 C-16.3 62 -16.7 63 -17 64 C-18.3 63.3 -19.6 62.7 -21 62 C-21 60.7 -21 59.4 -21 58 C-20 58 -19 58 -18 58 C-19 57.7 -20 57.3 -21 57 C-21.7 58.3 -22.3 59.6 -23 61 C-24.7 61 -26.3 61 -28 61 C-29 61.7 -30 62.3 -31 63 C-31.3 62.8 -31.3 62.8 -33 62 C-33.2 62.3 -33.2 62.3 -34 64 C-35.7 64 -37.3 64 -39 64 C-39 64.7 -39 65.3 -39 66 C-40 66 -41 66 -42 66 C-42 67.3 -42 68.6 -42 70 C-43.3 70 -44.6 70 -46 70 C-46.3 71.3 -46.7 72.6 -47 74 C-47.3 74.7 -47.7 75.3 -48 76 C-50 75 -50 75 -51 74 C-51.3 75 -51.7 76 -52 77 C-53.7 77 -55.3 77 -57 77 C-57 76 -57 75 -57 74 C-58.7 73.7 -60.3 73.3 -62 73 C-63.3 71.7 -64.6 70.4 -66 69 C-66.7 69 -67.3 69 -68 69 C-68 59 -68 59 -64 53 C-55.6 46 -55.4 46 -44 46 C-44.3 45.3 -44.7 44.7 -45 44 C-45 36 -45 36 -41 28 C-33.5 22 -33.5 22 -26 22 C-26 19.4 -26 16.7 -26 14 C-18.3 1.6 -14.1 -1 0 0 Z " fill="#547F61" transform="translate(274,78)"/>
<path d="M0 0 C5 6.7 3.1 14.8 3 23 C5.5 33.1 9.3 40 16 48 C17.9 44.3 17.2 39.8 17.3 35.7 C17.3 34.7 17.3 34.7 17.4 29.5 C17.5 27.3 17.5 25.1 17.6 22.9 C17.6 21.8 17.6 21.8 17.7 16.3 C17.8 10.8 17.9 5.4 18 0 C20.3 0 22.6 0 25 0 C27.6 10.9 27.2 21.8 27 33 C30 30 30 30 34 24 C38 18 38 18 41 15 C41.7 15 42.3 15 43 15 C40.1 23.7 36.3 31 32 39 C29.3 47 29.8 54 29.9 62.4 C29.9 65.5 29.9 68.6 29.9 71.8 C30 74.2 30 76.5 30 79 C38.4 69.7 44.6 59.7 51 49 C52 49 53 49 54 49 C53 55 53 55 50 63 C51.5 62.5 53.1 62 54.7 61.4 C60 60 60 60 65 61 C60 65 60 65 53.2 68.1 C45.4 72.3 42.5 75.5 38 83 C36.8 84.8 35.7 86.7 34.5 88.6 C31.2 97 31.5 104.2 32 113 C32.1 115.7 32.2 118.4 32.4 121.2 C34.6 164.9 34.6 164.9 45.6 175.4 C47.1 176.6 48.5 177.8 50 179 C50.7 179.7 51.3 180.3 52 181 C45.7 181 39.5 181 33 181 C33.3 182.3 33.7 183.6 34 185 C28.5 184.6 24.2 184.1 19 182 C9.3 181.6 -0.3 182.4 -10 183 C-10 182.3 -10 181.7 -10 181 C-6 178 -6 178 -4 178 C-4 177.3 -4 176.7 -4 176 C-3.3 176 -2.7 176 -2 176 C-2 175.3 -2 174.7 -2 174 C-10.6 174 -19.2 174 -28 174 C-28 173 -28 172 -28 171 C-27.2 170.7 -27.2 170.7 -23 169 C-24 167.7 -25 166.4 -26 165 C-25.7 163.4 -25.3 161.7 -25 160 C-19 161 -19 161 -16 163 C-16.7 160.7 -17.3 158.4 -18 156 C-17 149 -17 149 -14 146 C-7 147 -7 147 -6 148 C-6 145.4 -6 142.7 -6 140 C-5.7 139.3 -5.7 139.3 -4 136 C-2 135.7 -0 135.3 2 135 C3.7 136.3 5.3 137.6 7 139 C7 139.7 7 140.3 7 141 C7.7 141 8.3 141 9 141 C14.5 101.7 14.5 101.7 7.6 86.3 C6.1 84.6 4.6 82.8 3 81 C1.6 79.4 0.2 77.7 -1.2 76 C-5.1 72 -9 68 -12.9 64.1 C-19 58 -19 58 -21 55 C-21 54 -21 53 -21 52 C-17 54 -17 54 -10 61 C-8.3 62 -6.7 63 -5 64 C-5 61.4 -5 58.7 -5 56 C-4.5 56.2 -4.5 56.2 -2 57 C-1.3 58.8 -0.7 60.5 0 62.3 C3.5 70.1 8.1 75 14 81 C14.9 67 13.2 59.4 6 47 C5.2 45.6 5.2 45.6 1.2 38.2 C-4.1 29.8 -10 23 -17 16 C-15.7 15.3 -14.4 14.7 -13 14 C-12.7 12.4 -12.3 10.7 -12 9 C-9 12 -9 12 -4 20 C-4 20.7 -4 21.3 -4 22 C-3.3 22 -2.7 22 -2 22 C-1.9 19.3 -1.7 16.6 -1.6 13.8 C-1 5 -1 5 0 0 Z " fill="#4D5A40" transform="translate(162,322)"/>
<path d="M0 0 C0.7 0 1.3 0 2 0 C3 2.6 4 5.2 5 7.8 C9.7 19.2 14.4 26.4 25 33 C24.7 34 24.3 35 24 36 C20.7 36 17.4 36 14 36 C20.4 46.3 27 52 38 57 C37.7 58 37.3 59 37 60 C34.7 60.7 32.4 61.3 30 62 C30.7 62.3 31.3 62.7 32 63 C32 64 32 65 32 66 C22 66 22 66 20 65 C27.3 76.9 33.8 83.3 47 88 C48.6 88.7 50.3 89.3 52 90 C52 91 52 92 52 93 C46 96 46 96 38 97 C40 98.3 42 99.6 44 101 C44 101.7 44 102.3 44 103 C39.8 105.1 34.6 104.2 30 104 C28 103 26 102 24 101 C24 102.7 24 104.3 24 106 C17 103.7 14.7 100.6 10 95 C8.7 97.3 7.4 99.6 6 102 C5.3 102 4.7 102 4 102 C3.7 100.3 3.3 98.7 3 97 C2.3 97 1.7 97 1 97 C0.3 98.7 -0.3 100.3 -1 102 C-2.6 103.3 -4.3 104.6 -6 106 C-7 105 -7 105 -8 98 C-10.3 100 -12.6 102 -15 104 C-15.7 103.3 -16.3 102.7 -17 102 C-16.7 100 -16.3 98 -16 96 C-16.8 96.7 -16.8 96.7 -20.9 100.1 C-22.9 101.4 -24.9 102.7 -27 104 C-30 103.3 -32.9 102.7 -36 102 C-36 100.7 -36 99.4 -36 98 C-34 96.3 -32 94.7 -30 93 C-30 92.7 -30 92.3 -30 92 C-33 91.7 -35.9 91.3 -39 91 C-39.7 90.7 -40.3 90.3 -41 90 C-40 87 -40 87 -35 84 C-34.3 84 -33.7 84 -33 84 C-33 81.7 -33 79.4 -33 77 C-32.3 78.3 -31.7 79.6 -31 81 C-25.3 75.3 -20.1 69.9 -16 63 C-16.5 63.2 -16.5 63.2 -19 64 C-21.6 64 -24.3 64 -27 64 C-27 62.7 -27 61.4 -27 60 C-24.4 57.6 -21.7 55.3 -19 53 C-13 45 -13 45 -10 38 C-11.2 38.2 -11.2 38.2 -17 39 C-17 35 -17 35 -11 28 C-5.9 19 -2.9 9.9 0 0 Z " fill="#507C5F" transform="translate(467,140)"/>
<path d="M0 0 C1 1 2 2 3 3 C4.3 2.7 5.6 2.3 7 2 C7 18.8 7 35.7 7 53 C8 53.2 8 53.2 13 54 C17 58 17 58 18 67 C17.3 68 16.7 69 16 70 C15.5 69.8 15.5 69.8 13 69 C12 66.4 11 63.7 10 61 C10.2 60.7 10.2 60.7 11 59 C10.3 59.7 9.7 60.3 9 61 C6.7 61.7 4.4 62.3 2 63 C1 64.3 0 65.6 -1 67 C-1.3 66.7 -1.3 66.7 -3 65 C-5.3 65 -7.6 65 -10 65 C-11 67.3 -12 69.6 -13 72 C-16 71.7 -18.9 71.3 -22 71 C-23 71 -24 71 -25 71 C-25 68 -25 65.1 -25 62 C-26 61 -27 60 -28 59 C-34 60 -34 60 -37 61 C-37.7 58 -38.3 55.1 -39 52 C-40.6 50.4 -42.3 48.7 -44 47 C-46.6 47 -49.3 47 -52 47 C-52.1 41.7 -52.1 36.4 -52.1 31.1 C-52.1 28.2 -52.2 25.2 -52.2 22.2 C-52 15 -52 15 -50 13 C-49 13.7 -48 14.3 -47 15 C-43.7 15 -40.4 15 -37 15 C-35.4 13.4 -33.7 11.7 -32 10 C-28 10 -24 10 -20 10 C-16 7 -16 7 -15 4 C-13.5 3.9 -11.9 3.8 -10.3 3.7 C-5 3 -5 3 0 0 Z " fill="#537E60" transform="translate(460,397)"/>
<path d="M0 0 C2 0.7 4 1.3 6 2 C6 6.6 6 11.1 6.1 15.7 C6.1 18.2 6.1 20.8 6.1 23.4 C5.9 41.8 5.9 41.8 3 49 C2.3 49 1.7 49 1 49 C-0.7 47.4 -2.3 45.7 -4 44 C-6 44 -8 44 -10 44 C-10.3 47 -10.7 49.9 -11 53 C-11.3 54.3 -11.7 55.6 -12 57 C-12.5 56.7 -12.5 56.7 -15 55 C-16.7 55 -18.3 55 -20 55 C-23 60 -23 60 -22 69 C-21.7 70 -21.3 71 -21 72 C-22.3 71.3 -23.6 70.7 -25 70 C-26 69.8 -26 69.8 -31 69 C-30 75 -30 75 -28 78 C-29 78.3 -29 78.3 -34 80 C-34 80.7 -34 81.3 -34 82 C-39 82.1 -43.9 82.1 -48.9 82.1 C-50.3 82.1 -50.3 82.1 -57.2 82.2 C-64 82 -64 82 -66 80 C-70 79.6 -74 79.3 -78 79 C-78 78.7 -78 78.3 -78 78 C-75.9 77.8 -75.9 77.8 -65 77 C-64 75 -64 75 -64 69 C-63.7 68.7 -63.7 68.7 -62 67 C-57 68 -57 68 -55 69 C-55 67 -55 65 -55 63 C-54 62 -53 61 -52 60 C-50.3 60.3 -48.7 60.7 -47 61 C-47 59 -47 57 -47 55 C-42 50 -42 50 -38 49 C-38 46.4 -38 43.7 -38 41 C-33 36 -33 36 -26 35 C-25.7 35.2 -25.7 35.2 -24 36 C-24.1 34.8 -24.1 34.8 -24.5 28.6 C-25 19.7 -25.1 10.9 -25 2 C-23.6 2.8 -22.2 3.6 -20.8 4.5 C-16 7 -16 7 -12 7 C-11.7 5.4 -11.3 3.7 -11 2 C-9 3 -7 4 -5 5 C-3.7 5 -2.4 5 -1 5 C-0.7 3.4 -0.3 1.7 0 0 Z " fill="#527E5F" transform="translate(168,414)"/>
<path d="M0 0 C7.1 9.5 7.4 15.2 8 27 C9.5 36.7 11.2 42.3 16 51 C5.8 51 -4.5 51 -15 51 C-14.3 50 -13.7 49 -13 48 C-19.9 47.7 -26.9 47.3 -34 47 C-34 46 -34 45 -34 44 C-37 44.7 -39.9 45.3 -43 46 C-42 43 -41 40.1 -40 37 C-46 37 -46 37 -51 39 C-50 35.4 -49 31.7 -48 28 C-53 29 -53 29 -56 31 C-56 28 -56 25.1 -56 22 C-56.3 20.4 -56.7 18.7 -57 17 C-47.9 12.9 -43.7 12.9 -34 13 C-27.6 11.5 -27.6 11.5 -23 10 C-23 12.3 -23 14.6 -23 17 C-16 16 -16 16 -13 15 C-13 15.7 -13 16.3 -13 17 C-11.7 17.3 -10.4 17.7 -9 18 C-9 20 -9 22 -9 24 C-8 24 -7 24 -6 24 C-6.1 22.5 -6.2 20.9 -6.4 19.3 C-5.9 11.8 -3.4 6.7 0 0 Z " fill="#3E6E54" transform="translate(316,453)"/>
<path d="M0 0 C1.3 1.6 2.6 3.3 4 5 C9 10 9 10 12 11 C12 8.4 12 5.7 12 3 C12.7 3 13.3 3 14 3 C14.8 3.8 14.8 3.8 19 8 C20.6 8.7 22.3 9.3 24 10 C24.3 8 24.7 6 25 4 C30 6 30 6 34 8 C35.6 8.1 37.1 8.1 38.8 8.2 C45.1 9.2 47.6 11.5 52 16 C52.3 15.3 52.7 14.7 53 14 C53.3 14.7 53.3 14.7 55 18 C57 19.3 59 20.6 61 22 C55.9 27.1 53 26.6 46 27 C45.3 27.3 44.7 27.7 44 28 C39.9 26.5 35.9 24.9 32 23 C32.2 24.5 32.2 24.5 33 32 C27 31 27 31 19 25 C18.7 29.3 18.3 33.6 18 38 C11.2 36.6 9.3 33.3 5 28 C4.3 26.7 3.7 25.4 3 24 C1 26 -1 28 -3 30 C-3.7 30 -4.3 30 -5 30 C-5.2 28.5 -5.2 28.5 -6 21 C-7.2 22 -7.2 22 -13 27 C-14 27.2 -14 27.2 -19 28 C-18.7 25.7 -18.3 23.4 -18 21 C-20.6 22.6 -23.3 24.3 -26 26 C-27.3 25.7 -28.6 25.3 -30 25 C-29.7 23.7 -29.3 22.4 -29 21 C-30 21.3 -31 21.7 -32 22 C-42 22 -42 22 -47 20 C-47 19 -47 18 -47 17 C-45.4 16.1 -43.9 15.1 -42.2 14.2 C-37 11 -37 11 -33 8 C-31.1 7.7 -29.2 7.4 -27.2 7.1 C-21 6 -21 6 -14 2 C-13.3 2 -12.7 2 -12 2 C-12 4.3 -12 6.6 -12 9 C-5 6 -5 6 0 0 Z " fill="#618D6B" transform="translate(310,409)"/>
<path d="M0 0 C0.3 30.6 0.3 30.6 -2 42 C-2.3 41.3 -2.3 41.3 -4 38 C-8 32 -8 32 -11 30 C-20 30 -20 30 -24 32 C-24.7 34 -25.3 36 -26 38 C-26.2 38.3 -26.2 38.3 -27 40 C-30.3 40 -33.6 40 -37 40 C-42 45 -42 45 -43 47 C-43.7 47 -44.3 47 -45 47 C-45.5 46.2 -45.5 46.2 -48 42 C-50 41 -50 41 -58 41 C-61 45 -61 45 -62 53 C-63.5 53.2 -63.5 53.2 -71 54 C-71.7 41.9 -71.2 34 -64 24 C-62.7 23.8 -62.7 23.8 -56 23 C-54.3 24.6 -52.7 26.3 -51 28 C-48.4 28 -45.7 28 -43 28 C-41.7 26.7 -40.4 25.4 -39 24 C-38 24 -38 24 -33.1 24.1 C-27 24 -27 24 -22 19 C-21.7 17.4 -21.3 15.7 -21 14 C-19.3 13.3 -17.7 12.7 -16 12 C-15.3 10 -14.7 8 -14 6 C-12.8 5.8 -12.8 5.8 -7 5 C-1 0 -1 0 0 0 Z " fill="#EAF0E9" transform="translate(264,380)"/>
<path d="M0 0 C2 0.3 4 0.7 6 1 C6.7 11.2 7.3 21.5 8 32 C11 28.7 13.9 25.4 17 22 C17.7 22 18.3 22 19 22 C16.8 28.5 13.7 33.3 10 39 C8.5 43.4 8.9 47.6 8.9 52.2 C9 55.4 9 58.7 9 62 C12.9 58.1 16.2 53.6 19.8 49.4 C23 46 23 46 27 44 C25.4 50.5 20.8 55.3 16.9 60.6 C10.6 70.1 10.4 78.9 10 90 C8.4 88.3 6.7 86.7 5 85 C2.7 84 0.4 83 -2 82 C-2 80.1 -2 78.2 -2 76.3 C-2 73.8 -2.1 71.3 -2.1 68.8 C-2.1 66.3 -2.2 63.8 -2.2 61.3 C-3.4 50 -7.7 43.6 -15 35 C-24 31 -24 31 -33 29 C-33 28.3 -33 27.7 -33 27 C-26.7 26 -22 26 -16 29 C-16.8 27.3 -17.6 25.5 -18.5 23.8 C-21 18 -21 18 -21 14 C-20.3 14 -19.7 14 -19 14 C-17.5 16.6 -16 19.2 -14.4 21.9 C-10.7 28.3 -6.8 34.3 -2 40 C-1.9 36.7 -1.8 33.3 -1.7 30 C-1.6 28.1 -1.6 26.3 -1.5 24.4 C-2.2 16.6 -6.3 11.9 -11 6 C-11 5.3 -11 4.7 -11 4 C-7 5 -7 5 0 11 C0 7.4 0 3.7 0 0 Z " fill="#4D5A40" transform="translate(423,124)"/>
<path d="M0 0 C1 1 2 2 3 3 C4.3 2.7 5.6 2.3 7 2 C7 9.7 7 17.5 7.1 25.2 C7.1 27.5 7.1 29.7 7.1 31.9 C7.1 34 7.1 36.2 7.1 38.3 C7.1 40.3 7.1 42.2 7.1 44.2 C7 49 7 49 6 53 C5.7 52.8 5.7 52.8 4 52 C4 49.7 4 47.4 4 45 C0 41 0 41 -6 40 C-6 36.7 -6 33.4 -6 30 C-10 23 -10 23 -13 21 C-16.3 21 -19.6 21 -23 21 C-28 26 -28 26 -31 32 C-32.3 31 -33.6 30 -35 29 C-37 29 -39 29 -41 29 C-45 33 -45 33 -46 37 C-48 36.3 -50 35.7 -52 35 C-52.2 19.6 -52.2 19.6 -52 15 C-51.3 14.3 -50.7 13.7 -50 13 C-49 13.7 -48 14.3 -47 15 C-43.7 15 -40.4 15 -37 15 C-35.4 13.4 -33.7 11.7 -32 10 C-28 10 -24 10 -20 10 C-16 7 -16 7 -15 4 C-13.5 3.9 -11.9 3.8 -10.3 3.7 C-5 3 -5 3 0 0 Z " fill="#EBF1EB" transform="translate(460,397)"/>
<path d="M0 0 C0.8 0.8 0.8 0.8 5 5 C10 9 10 9 12 10 C12 7 12 4.1 12 1 C14.6 3 17.3 5 20 7 C22.1 8 24.2 9.1 26.4 10.1 C32.3 13.2 33 14 35 20 C36.3 20.7 37.6 21.3 39 22 C41.3 24 43.6 26 46 28 C45.7 28.7 45.3 29.3 45 30 C40.3 30.1 35.7 30.1 31 30 C30 29 29 28 28 27 C25.7 25.4 23.4 23.7 21 22 C21 24.3 21 26.6 21 29 C15.7 26.9 10.7 24.5 8 19 C7 21 6 23 5 25 C1 21 1 21 -1 18 C-3 20.3 -5 22.6 -7 25 C-12 28 -12 28 -15 28 C-15 25.4 -15 22.7 -15 20 C-16.3 20.7 -16.3 20.7 -23 24 C-25.3 24.3 -27.6 24.7 -30 25 C-30 24.3 -30 23.7 -30 23 C-32.6 23 -35.3 23 -38 23 C-38.8 22.7 -38.8 22.7 -43 21 C-41.3 16 -36.4 14.6 -32 12 C-31.3 11.3 -30.7 10.7 -30 10 C-28.5 9.8 -28.5 9.8 -21 9 C-15.9 5.4 -15.9 5.4 -12 2 C-11.3 2.3 -10.7 2.7 -10 3 C-10.3 5.3 -10.7 7.6 -11 10 C-6 7 -6 7 0 0 Z " fill="#628D6B" transform="translate(313,377)"/>
<path d="M0 0 C0.3 1.3 0.7 2.6 1 4 C1.7 4 2.3 4 3 4 C2.7 8 2.3 11.9 2 16 C2.7 16 3.3 16 4 16 C4.3 14.4 4.7 12.7 5 11 C6.7 9.7 8.3 8.4 10 7 C11 7.3 12 7.7 13 8 C10 13 10 13 7 16 C9 17 11 18 13 19 C14 20 15 21 16 22 C16 18.4 16 14.7 16 11 C17.3 11.3 18.6 11.7 20 12 C20.3 13.6 20.7 15.3 21 17 C21.7 17 22.3 17 23 17 C23.3 14.7 23.7 12.4 24 10 C25 9 26 8 27 7 C28 7.3 29 7.7 30 8 C31 15 31 15 31 19 C31.8 18.5 31.8 18.5 36 16 C36.7 16.3 37.3 16.7 38 17 C37.7 19.6 37.3 22.3 37 25 C37 25.7 37 26.3 37 27 C38 26.3 39 25.7 40 25 C42 25 44 25 46 25 C46.2 25.5 46.2 25.5 47 28 C46 30 45 32 44 34 C46.6 33.7 49.3 33.3 52 33 C52.2 33.7 52.2 33.7 53 37 C49 41 49 41 44 41.5 C41.9 41.5 39.9 41.4 37.7 41.4 C35.5 41.4 33.3 41.4 31 41.4 C29.8 41.4 29.8 41.4 23.9 41.3 C21.5 41.3 19.2 41.3 16.8 41.3 C-0.7 41.2 -0.7 41.2 -3 40 C-2.7 38.7 -2.3 37.4 -2 36 C-2.7 35.3 -3.3 34.7 -4 34 C-3.3 33.8 -3.3 33.8 0 33 C-0.3 31.7 -0.7 30.4 -1 29 C-0.7 28.7 -0.3 28.3 0 28 C2.3 28.3 4.6 28.7 7 29 C7.7 29 8.3 29 9 29 C8.3 27.4 7.7 25.7 7 24 C4.7 24 2.4 24 0 24 C0.3 21.7 0.7 19.4 1 17 C0.2 16.8 0.2 16.8 -3.9 15.7 C-9 14 -9 14 -11 11 C-9.3 10.7 -7.7 10.3 -6 10 C-4 11.6 -2 13.3 0 15 C0 8 0 8 -1 6 C-0.7 4 -0.3 2 0 0 Z " fill="#8DAF8C" transform="translate(230,464)"/>
<path d="M0 0 C6 3 6 3 10 6 C10 6.7 10 7.3 10 8 C11.6 7.7 13.3 7.3 15 7 C16 11 16 11 15 15 C14.8 14.2 14.8 14.2 14 10 C13 14 13 14 13 18 C12.7 19.3 12.3 20.6 12 22 C13 22 14 22 15 22 C15.7 23.3 16.3 24.6 17 26 C15.7 26.3 14.4 26.7 13 27 C13 29.3 13 31.6 13 34 C14 33.3 15 32.7 16 32 C17 32 18 32 19 32 C18.7 33.7 18.3 35.3 18 37 C18.3 38 18.7 39 19 40 C14.8 54 14.8 54 11 59 C8.5 46.6 6.9 38.2 11 26 C9.4 27.3 7.7 28.6 6 30 C4 30 2 30 0 30 C-1.3 28.7 -2.6 27.4 -4 26 C-3.5 32.9 -2.8 39.8 -1.9 46.7 C-1 55 -1 55 -1 64 C-9.8 57 -14.3 46.5 -18 36 C-18 35.3 -18 34.7 -18 34 C-15 33.3 -12.1 32.7 -9 32 C-9.3 30.3 -9.7 28.7 -10 27 C-10 26.3 -10 25.7 -10 25 C-11.3 24.3 -12.6 23.7 -14 23 C-14 20 -14 17.1 -14 14 C-15 13.7 -16 13.3 -17 13 C-16.3 11.3 -15.7 9.7 -15 8 C-16 8.3 -17 8.7 -18 9 C-13.5 0.1 -9.3 0 0 0 Z " fill="#3E6D54" transform="translate(266,175)"/>
<path d="M0 0 C1.3 1.6 2.6 3.3 4 5 C6 7 8 9 10 11 C10.9 16.1 10.9 16.1 11 22.2 C11.1 24.4 11.2 26.6 11.2 28.8 C11.3 31.1 11.3 33.4 11.4 35.8 C11.4 36.9 11.4 36.9 11.6 42.6 C12.4 70.2 12.4 70.2 8 79 C6 79 4 79 2 79 C2 76 2 73.1 2 70 C-1 65 -1 65 -8 62 C-8 56.4 -8 50.7 -8.1 45.1 C-8.1 41.9 -8.1 38.8 -8.1 35.5 C-7.8 10 -7.8 10 -2 3 C-1.3 2 -0.7 1 0 0 Z " fill="#4D5A40" transform="translate(475,388)"/>
<path d="M0 0 C6 9 6 9 7 12 C9 12.7 11 13.3 13 14 C13 11 13 8.1 13 5 C15.6 7 18.3 9 21 11 C22.5 11.7 22.5 11.7 30 15 C29.3 12.4 28.7 9.7 28 7 C29.3 7.7 30.6 8.3 32 9 C35.7 10.4 39.3 11.7 43 13 C44 11 44 11 43 6 C56.4 12.5 56.4 12.5 62 17 C61.8 17.5 61.8 17.5 61 20 C53.1 20.3 48.6 19.9 41 17 C42.6 19.6 44.3 22.3 46 25 C46 25.7 46 26.3 46 27 C36 27 36 27 31 25 C31 26.3 31 27.6 31 29 C24 28 24 28 19 25 C18.8 25.8 18.8 25.8 18 30 C16.5 29.7 16.5 29.7 9 28 C9 34.6 9 41.2 9 48 C8.7 48 8.3 48 8 48 C8 46.5 8.1 45.1 8.1 43.5 C8 27.4 8 27.4 2.4 19.6 C1 18.4 -0.5 17.2 -2 16 C-2.7 17 -2.7 17 -6 22 C-6.7 22.7 -7.3 23.3 -8 24 C-8.4 29.7 -8.7 35.3 -9 41 C-9.3 41 -9.7 41 -10 41 C-10.3 36.4 -10.7 31.8 -11 27 C-12.3 27.3 -13.6 27.7 -15 28 C-15.7 27 -16.3 26 -17 25 C-18.6 26 -20.3 27 -22 28 C-24.6 28 -27.3 28 -30 28 C-29 27.3 -28 26.7 -27 26 C-22 21 -22 21 -21 17 C-18.4 15.4 -15.7 13.7 -13 12 C-11.7 10.4 -10.4 8.7 -9 7 C-8.3 8.3 -7.7 9.6 -7 11 C-4 8 -4 8 0 0 Z " fill="#407056" transform="translate(477,373)"/>
<path d="M0 0 C1.3 0.3 2.6 0.7 4 1 C4 5.3 4 9.6 4 14 C5.3 12.4 6.6 10.7 8 9 C8.8 9.2 8.8 9.2 13 10 C12.3 11.6 11.7 13.3 11 15 C9.8 15.5 9.8 15.5 4 18 C3.7 20.3 3.3 22.6 3 25 C4.3 23.7 5.6 22.4 7 21 C8.6 21.3 10.3 21.7 12 22 C11.7 23.3 11.3 24.6 11 26 C8 27 5.1 28 2 29 C1.7 31 1.3 33 1 35 C3.3 35 5.6 35 8 35 C12 40 12 40 12 47 C13.6 47.3 15.3 47.7 17 48 C17.2 47.7 17.2 47.7 18 46 C19 51 19 51 19 58 C20.6 58.3 22.3 58.7 24 59 C25 60 25 60 25 67 C18.4 70.3 11.3 69.1 4 69 C3.3 66.7 2.7 64.4 2 62 C0.4 61.7 -1.3 61.3 -3 61 C-2.9 60.2 -2.9 60.2 -2.4 56.1 C-2.3 54.4 -2.1 52.7 -2 51 C-2.7 50.3 -3.3 49.7 -4 49 C-10 49 -10 49 -14 51 C-14.3 49.8 -14.3 49.8 -16 44 C-16.3 43.3 -16.7 42.7 -17 42 C-13 34 -13 34 -10 32 C-8 32 -6 32 -4 32 C-3.3 32.7 -2.7 33.3 -2 34 C-1.7 32.7 -1.3 31.4 -1 30 C-2.6 29.7 -4.3 29.3 -6 29 C-7 28 -8 27 -9 26 C-9 25 -9 24 -9 23 C-4 24 -4 24 -1 28 C-0.7 25.7 -0.3 23.4 0 21 C-2.6 19.4 -5.3 17.7 -8 16 C-8 14.4 -8 12.7 -8 11 C-6.4 11.3 -4.7 11.7 -3 12 C-2 13.6 -1 15.3 0 17 C0 14.7 0 12.4 0 10 C-0.3 9.7 -0.7 9.3 -1 9 C-1 1 -1 1 0 0 Z " fill="#49775C" transform="translate(499,425)"/>
<path d="M0 0 C8 6 8 6 12 14 C16.6 20.6 21.5 25.3 28 30 C27.8 30.5 27.8 30.5 27 33 C17.4 33 11.6 32.1 4 26 C4.2 26.8 4.2 26.8 5 31 C0 29 0 29 -1 27 C-1.3 29 -1.7 31 -2 33 C-3 33 -4 33 -5 33 C-6.3 31 -7.6 29 -9 27 C-12 29 -12 29 -14 33 C-14.7 33.2 -14.7 33.2 -18 34 C-18.3 32 -18.7 30 -19 28 C-19.8 28.5 -19.8 28.5 -24 31 C-24.7 31 -25.3 31 -26 31 C-26.3 31.8 -26.3 31.8 -28 36 C-28.5 36.8 -28.5 36.8 -31 41 C-31.7 41 -32.3 41 -33 41 C-33 38.4 -33 35.7 -33 33 C-35.3 33 -37.6 33 -40 33 C-40 32 -40 31 -40 30 C-39 29.2 -39 29.2 -34 25 C-33.1 17.7 -33.1 17.7 -33 11 C-29.7 10.7 -26.4 10.3 -23 10 C-23.7 12.3 -24.3 14.6 -25 17 C-19.3 14 -15.6 11.6 -11 7 C-10 10 -9 12.9 -8 16 C-4 14 -4 14 -1 6 C-0.7 4 -0.3 2 0 0 Z " fill="#6E9676" transform="translate(322,338)"/>
<path d="M0 0 C6 0 6 0 11 4 C12.8 9.2 12.8 9.2 14 14 C15.3 13.3 16.6 12.7 18 12 C19 12.2 19 12.2 24 13 C26 16 26 16 25 25 C28 24.7 30.9 24.3 34 24 C35 24.7 36 25.3 37 26 C37.2 26.8 37.2 26.8 38 31 C35.7 31 33.4 31 31 31 C30.3 31.5 30.3 31.5 27 34 C27 37 27 39.9 27 43 C26 43.2 26 43.2 21 44 C20 51 20 51 20 52 C18.4 52 16.7 52 15 52 C14.7 52.7 14.3 53.3 14 54 C-0 38.1 -1.7 21.8 -1 1 C-0.7 0.7 -0.3 0.3 0 0 Z " fill="#3D6D54" transform="translate(410,443)"/>
<path d="M0 0 C0.7 0 1.3 0 2 0 C4.3 4.7 6.7 9.3 9 14 C9.8 14.3 9.8 14.3 14 16 C14.3 14 14.7 12 15 10 C17.3 12 19.6 14 22 16 C29 20 29 20 31 20 C30.7 18.4 30.3 16.7 30 15 C30.7 15 31.3 15 32 15 C42 28.3 42 28.3 42 32 C34.5 31.1 31.2 29.8 25 26 C24.3 25.7 23.7 25.3 23 25 C24 28 25 30.9 26 34 C25 34.3 24 34.7 23 35 C17.6 32.1 13.3 29.3 9 25 C8.3 26.6 7.7 28.3 7 30 C2 28 2 28 -3 21 C-3.9 22.5 -4.8 23.9 -5.8 25.4 C-9 30 -9 30 -13 31 C-13.2 30.2 -13.2 30.2 -14 26 C-15.6 27.3 -17.3 28.6 -19 30 C-19.6 28.4 -20.1 26.9 -20.7 25.2 C-23 20 -23 20 -28 16 C-29 15 -30 14 -31 13 C-23 7 -23 7 -20 6 C-20.3 8.6 -20.7 11.3 -21 14 C-15 10 -15 10 -10 2 C-8.4 3.6 -6.7 5.3 -5 7 C-2 4 -2 4 0 0 Z " fill="#3D6D54" transform="translate(474,269)"/>
<path d="M0 0 C-1 3.6 -2 7.3 -3 11 C1.6 9 6.2 7 11 5 C11 7.6 11 10.3 11 13 C21.6 7.2 21.6 7.2 25 5 C25.2 6 25.2 6 26 11 C28.6 9.4 31.3 7.7 34 6 C34.7 6 35.3 6 36 6 C37 11 37 11 33 20 C30.8 25.5 30.4 30.2 30 36 C29 36 28 36 27 36 C26.8 35 26.8 35 26 30 C25 29.7 24 29.3 23 29 C23 28.3 23 27.7 23 27 C21 28 19 29 17 30 C15.7 29.7 14.4 29.3 13 29 C13 26.7 13 24.4 13 22 C11 23 9 24 7 25 C1.2 26.2 -4.1 26.1 -10 26 C-10 25.3 -10 24.7 -10 24 C-11.3 23.7 -12.6 23.3 -14 23 C-14 18 -14 18 -9 13 C-11.6 12.7 -14.3 12.3 -17 12 C-19.6 10.7 -22.3 9.4 -25 8 C-25 6.7 -25 5.4 -25 4 C-16.3 -1.5 -10 -1.2 0 0 Z " fill="#638E6C" transform="translate(280,441)"/>
<path d="M0 0 C1.3 0.7 2.6 1.3 4 2 C7 2 9.9 2 13 2 C13.7 4.3 14.3 6.6 15 9 C15.3 9.3 15.7 9.7 16 10 C15.4 25 8.2 34.6 -1 46 C0.6 45.8 0.6 45.8 9 45 C5.3 53.5 0.4 59.4 -6 66 C-6.3 66 -6.7 66 -7 66 C-8.2 56.2 -8.3 46.5 -8.4 36.6 C-8.4 34.9 -8.4 33.2 -8.5 31.4 C-8.6 18.9 -6.4 10.6 0 0 Z " fill="#8DAD93" transform="translate(296,281)"/>
<path d="M0 0 C1 1.3 2 2.6 3 4 C4 5 5 6 6 7 C6.7 5 7.3 3 8 1 C8.8 1.8 8.8 1.8 13 6 C16 8 19 10.1 22 12 C21.8 10.7 21.8 10.7 21 4 C29.6 8.8 34.7 13.6 40 22 C40 23 40 24 40 25 C32.5 24.1 29.2 22.8 23 19 C23 21.3 23 23.6 23 26 C16 23 16 23 12 20 C12 19.3 12 18.7 12 18 C11.3 18 10.7 18 10 18 C10 20.6 10 23.3 10 26 C4.5 24.6 1.9 20.9 -2 17 C-3.2 18.2 -4.5 19.3 -5.8 20.5 C-10 24 -10 24 -14 24 C-14 21.7 -14 19.4 -14 17 C-15.3 17.8 -16.5 18.6 -17.8 19.4 C-23.5 22.2 -27.8 22.8 -34 23 C-32 20.7 -30 18.4 -28 16 C-27 14.4 -26 12.7 -25 11 C-26.6 10.7 -28.3 10.3 -30 10 C-30 9.3 -30 8.7 -30 8 C-27.9 7.4 -25.9 6.8 -23.8 6.1 C-17 4 -17 4 -13 2 C-13.3 5 -13.7 7.9 -14 11 C-6 7 -6 7 0 0 Z " fill="#3D6D54" transform="translate(312,394)"/>
<path d="M0 0 C0.7 0 1.3 0 2 0 C2.9 1.5 3.8 3.1 4.8 4.7 C8 10 8 10 12 15 C13.1 26.7 13.1 38.3 13 50 C10.7 50 8.4 50 6 50 C1 53 1 53 -1 60 C-3 60 -5 60 -7 60 C-7.1 50 -7.1 40 -7 30 C-7 27.8 -7 25.6 -7 23.4 C-6.8 12.9 -6.5 8.7 0 0 Z " fill="#4D5A40" transform="translate(131,400)"/>
<path d="M0 0 C1 1 2 2 3 3 C3 3.7 3 4.3 3 5 C3.7 5 4.3 5 5 5 C5.3 4.3 5.7 3.7 6 3 C5.2 16.1 3.7 29.3 -6 39 C-10.4 39.1 -14.8 38.9 -19.2 38.7 C-20.4 38.6 -20.4 38.6 -26.4 38.3 C-28.3 38.2 -30.1 38.1 -32 38 C-32 37 -32 36 -32 35 C-30.3 34.3 -28.7 33.7 -27 33 C-28 31.7 -29 30.4 -30 29 C-29.7 27.4 -29.3 25.7 -29 24 C-23 25 -23 25 -20 27 C-20.7 24.7 -21.3 22.4 -22 20 C-21 13 -21 13 -18 10 C-11 11 -11 11 -10 12 C-10 9.4 -10 6.7 -10 4 C-7 -2 -7 -1.2 0 0 Z " fill="#3D6D54" transform="translate(166,458)"/>
<path d="M0 0 C4 1 4 1 6 2 C6 2.7 6 3.3 6 4 C6.8 4.3 6.8 4.3 11 6 C13.6 7.3 16.3 8.6 19 10 C19 11.3 19 12.6 19 14 C13.1 17.6 9.8 17.2 3 17 C2 17 1 17 0 17 C1 18.3 2 19.6 3 21 C3 21.7 3 22.3 3 23 C3.7 23 4.3 23 5 23 C4.7 24.3 4.3 25.6 4 27 C-2.4 27.2 -6.9 27 -13 25 C-13 26.6 -13 28.3 -13 30 C-17 31 -17 31 -22 29 C-24.3 29 -26.6 29 -29 29 C-33 33 -33 33 -35 37 C-35.3 37 -35.7 37 -36 37 C-36 32.4 -36 27.8 -36 23 C-33.7 24 -31.4 25 -29 26 C-30 22.4 -31 18.7 -32 15 C-31.3 14.3 -30.7 13.7 -30 13 C-27.7 13.3 -25.4 13.7 -23 14 C-23.3 11.4 -23.7 8.7 -24 6 C-23.3 6 -22.7 6 -22 6 C-22 6.7 -22 7.3 -22 8 C-20.4 8.5 -18.8 8.9 -17.1 9.4 C-12 11 -12 11 -10 12 C-10.7 9 -11.3 6.1 -12 3 C-10.1 3.5 -8.2 4 -6.2 4.5 C0 6 0 6 3 6 C2 4 1 2 0 0 Z " fill="#66916F" transform="translate(359,442)"/>
<path d="M0 0 C9.5 5.2 14.6 11.3 21 20 C23.3 22 25.6 24 28 26 C28 26.7 28 27.3 28 28 C16.2 28 9.9 23.6 1 16 C0.7 18.6 0.3 21.3 0 24 C-5 22 -5 22 -11 15 C-12.4 16.5 -13.8 18 -15.3 19.5 C-20 24 -20 24 -23 24 C-23 21.7 -23 19.4 -23 17 C-31 22 -31 22 -33 24 C-35.6 24 -38.3 24 -41 24 C-39 21.4 -37 18.7 -35 16 C-34.5 15.1 -34.5 15.1 -32.1 10.8 C-29 6 -29 6 -21 2 C-21 4.3 -21 6.6 -21 9 C-19.4 8 -17.7 7 -16 6 C-16 5 -16 4 -16 3 C-14.4 2.3 -12.7 1.7 -11 1 C-8 6 -8 6 -8 8 C-7 8 -6 8 -5 8 C-5 5.7 -5 3.4 -5 1 C-4.3 1.3 -3.7 1.7 -3 2 C-3 2.7 -3 3.3 -3 4 C-1.7 4.3 -0.4 4.7 1 5 C0.8 4.2 0.8 4.2 0 0 Z " fill="#3E6E55" transform="translate(325,363)"/>
<path d="M0 0 C2 0.7 4 1.3 6 2 C4 4.3 2 6.6 0 9 C0 11.6 0 14.3 0 17 C3 20 3 20 6 22 C6 22.7 6 23.3 6 24 C5.3 24.3 5.3 24.3 2 26 C1 27.6 0 29.3 -1 31 C-6 35 -6 35 -12 35 C-12.3 36.6 -12.7 38.3 -13 40 C-14.6 41.6 -16.3 43.3 -18 45 C-25 45 -25 45 -29 44 C-29.2 44.2 -29.2 44.2 -30 45 C-38 45 -38 45 -41 43 C-36.6 31.9 -27.5 26.7 -18 20 C-10.8 14.1 -4.8 8 0 0 Z " fill="#3D6D54" transform="translate(338,239)"/>
<path d="M0 0 C7 1 7 1 11 6 C15 8 15 8 25 8 C26 7.7 27 7.3 28 7 C28.3 8.3 28.7 9.6 29 11 C31.6 11.3 34.3 11.7 37 12 C37.7 12.7 38.3 13.3 39 14 C46 14 46 14 50 13 C50 21.2 50 29.5 50 38 C49 38 48 38 47 38 C46 35 45 32.1 44 29 C38 24 38 24 32.5 23.4 C27 24 27 24 21 29 C20 30.6 19 32.3 18 34 C10.5 30.2 5.6 23.9 1 17 C1 16.3 1 15.7 1 15 C5.3 15 9.6 15 14 15 C9 10 9 10 4 6 C2.7 4 1.4 2 0 0 Z " fill="#EBF1EB" transform="translate(344,391)"/>
<path d="M0 0 C-1 8 -1 8 -2 11 C0.3 9.7 2.6 8.4 5 7 C6 7.3 7 7.7 8 8 C7 14 7 14 5 18 C7.3 18 9.6 18 12 18 C11.8 18.8 11.8 18.8 11 23 C11.7 24.3 12.3 25.6 13 27 C12.7 27.7 12.3 28.3 12 29 C6.5 29.1 0.9 29.1 -4.6 29.1 C-7.7 29.1 -10.8 29.2 -14 29.2 C-22 29 -22 29 -28 27 C-28.3 25.7 -28.7 24.4 -29 23 C-27.4 22.7 -25.7 22.3 -24 22 C-25 20.4 -26 18.7 -27 17 C-26.7 15.7 -26.3 14.4 -26 13 C-22 14 -22 14 -19 16 C-19 13.4 -19 10.7 -19 8 C-18.7 7 -18.3 6 -18 5 C-16.7 5.3 -15.4 5.7 -14 6 C-13 7.6 -12 9.3 -11 11 C-10.2 9.6 -9.5 8.1 -8.7 6.6 C-4.8 0 -4.8 0 0 0 Z " fill="#6E9775" transform="translate(366,476)"/>
<path d="M0 0 C7.1 9.5 7.4 15.2 8 27 C9.5 36.7 11.2 42.3 16 51 C5.8 51 -4.5 51 -15 51 C-13.4 48.4 -11.7 45.7 -10 43 C-8.2 36.6 -7.6 31.5 -7.2 24.9 C-6.5 15.4 -4.7 8.4 0 0 Z " fill="#4D5A40" transform="translate(316,453)"/>
<path d="M0 0 C8.4 4.2 12.4 14.7 16 23 C17.1 28.6 17.1 33.6 17.1 39.3 C17.1 41.3 17 43.3 17 45.4 C17 46.9 17 48.4 17 50 C15 48.4 13 46.7 11 45 C2 44 2 44 -3 45 C-2.3 43.7 -1.7 42.4 -1 41 C-1 32 -1 32 -6 26 C-5.3 25 -4.7 24 -4 23 C-4 15 -4 15 -8 9 C-8.7 8.3 -9.3 7.7 -10 7 C-7.7 5.7 -5.4 4.4 -3 3 C-2 2 -1 1 0 0 Z " fill="#618D6B" transform="translate(249,278)"/>
<path d="M0 0 C4 0 7.9 0 12 0 C13 5 13 5 10 12 C6 15 6 15 1 16 C0.7 17.3 0.3 18.6 0 20 C-4 23 -4 23 -13 23 C-13.7 22.7 -14.3 22.3 -15 22 C-16.6 23.6 -18.3 25.3 -20 27 C-20.3 27.3 -20.7 27.7 -21 28 C-31 28 -31 28 -35 25 C-33.6 17.8 -31.2 11 -29 4 C-28.7 4.7 -28.3 5.3 -28 6 C-26.7 5.3 -25.4 4.7 -24 4 C-23.2 5 -23.2 5 -19 10 C-14 12 -14 12 -7 11 C-2 7 -2 7 0 0 Z " fill="#638F6C" transform="translate(444,385)"/>
<path d="M0 0 C3 1 3 1 7 6 C8 6.3 9 6.7 10 7 C9.8 6 9.8 6 9 1 C15.8 5.9 18.2 8.8 22 16 C22 16.7 22 17.3 22 18 C15 17 15 17 9 13 C9 15 9 17 9 19 C6.7 17.7 4.4 16.4 2 15 C1.3 14.7 0.7 14.3 0 14 C-1.6 16.6 -3.3 19.3 -5 22 C-6.3 23.3 -7.6 24.6 -9 26 C-9.7 26 -10.3 26 -11 26 C-11.7 24 -12.3 22 -13 20 C-15.3 21.7 -17.6 23.3 -20 25 C-24.6 26.5 -29.2 26.1 -34 26 C-32 22 -32 22 -27 17 C-24.6 14 -22.3 11 -20 8 C-18.4 6 -16.7 4 -15 2 C-14 5 -14 5 -15 8 C-10 5 -10 5 -5 1 C-4.3 2.7 -3.7 4.3 -3 6 C-2 4 -1 2 0 0 Z " fill="#3E6E54" transform="translate(470,197)"/>
<path d="M0 0 C2 0.7 4 1.3 6 2 C6 10.6 6 19.2 6 28 C4.7 28.2 4.7 28.2 -2 29 C-4 27 -6 25 -8 23 C-14 23 -14 23 -20 28 C-20.7 30.6 -21.3 33.3 -22 36 C-27.3 30.7 -25 16.5 -25.1 9.6 C-25 7.1 -25 4.6 -25 2 C-23.6 2.8 -22.2 3.6 -20.8 4.5 C-16 7 -16 7 -12 7 C-11.7 5.4 -11.3 3.7 -11 2 C-10 2.5 -10 2.5 -5 5 C-3.7 5 -2.4 5 -1 5 C-0.7 3.4 -0.3 1.7 0 0 Z " fill="#EAF0EA" transform="translate(168,414)"/>
</svg>
