<?xml version="1.0" encoding="UTF-8"?>
<svg xmlns="http://www.w3.org/2000/svg" width="600" height="600" viewBox="0 0 600 600" role="img" aria-label="Forest">
  <rect width="600" height="600" fill="#EEF3EE"/>
  <rect y="470" width="600" height="130" fill="#D5E4D7"/>
  <rect x="70" y="340" width="22" height="140" rx="6" fill="#6E5235"/>
  <circle cx="81" cy="290" r="55" fill="#3F6B4E"/>
  <circle cx="50" cy="310" r="32" fill="#4A7A5C"/>
  <circle cx="112" cy="310" r="32" fill="#4A7A5C"/>
  <rect x="200" y="320" width="22" height="160" rx="6" fill="#6E5235"/>
  <circle cx="211" cy="265" r="60" fill="#3F6B4E"/>
  <circle cx="175" cy="290" r="36" fill="#4A7A5C"/>
  <circle cx="247" cy="290" r="36" fill="#4A7A5C"/>
  <rect x="340" y="330" width="22" height="150" rx="6" fill="#6E5235"/>
  <circle cx="351" cy="275" r="58" fill="#3F6B4E"/>
  <circle cx="316" cy="300" r="34" fill="#4A7A5C"/>
  <circle cx="386" cy="300" r="34" fill="#4A7A5C"/>
  <rect x="480" y="345" width="22" height="135" rx="6" fill="#6E5235"/>
  <circle cx="491" cy="295" r="52" fill="#3F6B4E"/>
  <circle cx="460" cy="315" r="30" fill="#4A7A5C"/>
  <circle cx="522" cy="315" r="30" fill="#4A7A5C"/>
  <rect x="130" y="380" width="24" height="100" rx="7" fill="#8B6540"/>
  <circle cx="142" cy="330" r="52" fill="#5A8B68"/>
  <circle cx="110" cy="350" r="32" fill="#6FA07D"/>
  <circle cx="174" cy="350" r="32" fill="#6FA07D"/>
  <circle cx="142" cy="300" r="30" fill="#8BB89A"/>
  <rect x="270" y="370" width="26" height="110" rx="7" fill="#8B6540"/>
  <circle cx="283" cy="315" r="58" fill="#5A8B68"/>
  <circle cx="245" cy="340" r="36" fill="#6FA07D"/>
  <circle cx="321" cy="340" r="36" fill="#6FA07D"/>
  <circle cx="283" cy="280" r="34" fill="#8BB89A"/>
  <rect x="410" y="385" width="24" height="95" rx="7" fill="#8B6540"/>
  <circle cx="422" cy="335" r="50" fill="#5A8B68"/>
  <circle cx="390" cy="355" r="30" fill="#6FA07D"/>
  <circle cx="454" cy="355" r="30" fill="#6FA07D"/>
  <circle cx="422" cy="305" r="28" fill="#8BB89A"/>
</svg>
