<?xml version="1.0" encoding="UTF-8"?>
<!-- Generator: visioncortex VTracer 0.6.12 -->
<svg version="1.1" xmlns="http://www.w3.org/2000/svg" width="600" height="600" viewBox="0 0 600 600" role="img" aria-label="Horse">
<path d="M0 0 C198 0 396 0 600 0 C600 198 600 396 600 600 C402 600 204 600 0 600 C0 402 0 204 0 0 Z " fill="#EDF2ED" transform="translate(0,0)"/>
<path d="M0 0 C0 8.2 0 16.5 0 25 C4 25.7 7.9 26.3 12 27 C15 24.6 16.7 22.9 19 20 C19.5 19.6 19.5 19.6 22.1 17.6 C24.6 15.3 26.3 13.4 28.2 10.7 C28.7 10.1 28.7 10.1 31 7 C31.7 7 32.3 7 33 7 C33.3 17.4 32.9 25.6 28 35 C28 38 28 38 29.6 39.6 C30 39.9 30 39.9 31.8 41.3 C35.2 44.2 37.7 47.1 40 51 C39.7 51.7 39.3 52.3 39 53 C38.2 52 38.2 52 34 47 C41.1 61.2 41.1 61.2 47 65 C44.4 65 41.7 65 39 65 C39.6 65.6 39.6 65.6 42.4 68.6 C45.7 72.3 47 74.9 47 80 C46.7 81.3 46.3 82.6 46 84 C44.1 96.9 56.8 111 63.4 121.4 C65.5 124.9 67.6 128.3 69.6 131.8 C71 134 71 134 74.3 137.4 C77.9 142.2 78.4 146.1 78 152 C76.8 155.6 76.8 155.6 75 159 C74.5 160.7 74.1 162.4 73.6 164.1 C72.3 168.7 70.6 171.7 67 175 C63.6 176.2 63.6 176.2 60 177 C59.5 177.3 59.5 177.3 57.2 178.6 C51.9 180.9 46.9 180.8 41.5 179.3 C38.1 177.9 35.5 176.6 33.1 173.8 C32.2 171.5 31.4 169.3 30.6 167 C27.3 158.7 21.8 155.8 14.4 151.6 C7.7 147.9 1.4 144 -4.7 139.4 C-8.4 137.1 -11.7 137.1 -16 137 C-17.9 142.1 -18.8 147.3 -19.5 152.7 C-19.8 154.6 -20.1 156.6 -20.4 158.5 C-20.5 159.5 -20.7 160.5 -20.8 161.6 C-23 177.1 -25.3 192.6 -29.3 207.9 C-31.9 218.1 -30.1 226.7 -27.5 236.8 C-22 258.7 -22.6 277.6 -33.1 297.9 C-34.8 300.7 -36.5 302.7 -38.7 305 C-43.1 310.2 -43.4 316.6 -44.4 323.2 C-46.1 333.6 -49.5 343.1 -53 353 C-58.6 369 -62.1 383.5 -62.6 400.5 C-62.8 406.9 -63.9 412.5 -65.8 418.6 C-68.3 427.4 -68.4 435.8 -68.4 444.9 C-68.4 445.6 -68.4 445.6 -68.4 449.3 C-68.4 457.5 -67.7 465.1 -65.7 473.1 C-65 476 -65 476 -64.6 480.8 C-63.3 489.7 -58.2 495.3 -51.6 501.1 C-48.5 504.6 -46.6 508.2 -44.5 512.2 C-43.1 514.7 -41.7 517.1 -40.1 519.4 C-38 523 -38 523 -39 527 C-44.9 529.5 -50.6 529.3 -56.8 529.2 C-57.9 529.3 -58.9 529.3 -60 529.3 C-66.3 529.3 -72 528.8 -78 527 C-80.2 523.7 -80.4 522 -80.8 518.1 C-80.8 517 -80.9 516 -81 514.9 C-81 512 -81 512 -79 508 C-78.3 498.3 -78.3 498.3 -82 494 C-84.3 492.3 -86.7 490.7 -89 489 C-91.2 484.7 -91.2 482.5 -91.2 477.8 C-91.2 476.5 -91.2 475.2 -91.2 473.9 C-91 470 -91 470 -90.5 466.4 C-90 461.6 -89.8 456.8 -89.8 452 C-89.8 451.1 -89.8 450.2 -89.8 449.2 C-89.8 447.3 -89.8 445.3 -89.8 443.4 C-89.8 440.4 -89.8 437.4 -89.8 434.4 C-89.8 432.5 -89.8 430.6 -89.8 428.7 C-89.8 428.3 -89.8 428.3 -89.7 426 C-89.8 422.5 -89.9 419.4 -91 416 C-92.4 411.7 -92.2 407.5 -92.2 403 C-92.2 402.5 -92.2 402.5 -92.1 400 C-92.1 396.9 -92.1 393.8 -92.1 390.8 C-91.7 353.9 -91.7 353.9 -94.6 339.4 C-94.8 338 -95.1 336.5 -95.4 335.1 C-95.6 334.1 -95.8 333 -96 332 C-98 332.3 -100 332.7 -102 333 C-102.1 333.7 -102.2 334.3 -102.4 335 C-103.2 338.8 -104.3 342.4 -105.4 346.1 C-105.9 347.7 -106.4 349.3 -106.9 351 C-107.6 353.5 -108.4 356 -109.1 358.5 C-117.2 385.3 -117.2 385.3 -117.4 396.3 C-117.9 406.2 -119.3 416 -124 424.8 C-126.4 429.9 -127.1 434.5 -127.8 440.1 C-127.9 441.1 -128 442.1 -128.1 443.2 C-129.2 453.3 -129.4 463.3 -129.1 473.4 C-129 475.8 -129 478.2 -128.9 480.6 C-128.6 492.3 -125.7 499.2 -117.8 507.7 C-114.7 511.6 -112.7 516.2 -110.6 520.7 C-109 524 -109 524 -107.2 526.7 C-106 529 -106 529 -107 533 C-112.7 535.4 -118.1 535.3 -124.1 535.3 C-124.6 535.3 -124.6 535.3 -127.2 535.3 C-134.6 535.2 -141 534.3 -148 532 C-151 518 -151 518 -148 512.1 C-145.8 507.7 -145.2 505.8 -146 501 C-148.2 496.9 -150.7 493.3 -154 490 C-156 482 -154.5 475 -152.7 467.1 C-150.7 458.1 -149.2 449.2 -148.1 440.1 C-148.1 439.5 -148.1 439.5 -147.7 436.8 C-146.9 429.8 -147 423.5 -148.6 416.5 C-149.4 411.9 -149.5 407.2 -148.5 402.7 C-147.4 396.7 -147.8 390.4 -147.8 384.3 C-147.8 382.8 -147.8 381.3 -147.8 379.7 C-147.9 368.1 -148.5 356.7 -149.6 345.2 C-149.9 341.1 -150.1 337.1 -150 333 C-150.6 333.2 -151.2 333.3 -151.9 333.5 C-156.3 334.2 -160.7 334.2 -165.1 334.2 C-166.1 334.2 -167.1 334.2 -168.2 334.2 C-171.4 334.2 -174.6 334.2 -177.8 334.2 C-178.9 334.3 -180 334.3 -181.1 334.3 C-196.6 334.2 -211.8 334.1 -227 331 C-227.9 330.8 -228.7 330.6 -229.6 330.5 C-244.6 327.3 -259.2 322.6 -273 315.9 C-275 315 -275 315 -277 315 C-277.4 316 -277.8 317.1 -278.1 318.1 C-280.7 325.2 -283.3 332 -286.8 338.6 C-288.1 341.2 -289.1 343.8 -290.1 346.5 C-294.9 358.1 -302.2 368.9 -309.6 379 C-313 383.9 -314.6 387.7 -315.6 393.7 C-316.3 398.1 -317.1 402.5 -318.2 406.9 C-322.1 427.3 -317.4 451.8 -310.1 470.9 C-309 474.1 -308.3 477.2 -307.6 480.4 C-305.8 487.8 -302.2 492.1 -296.4 497.1 C-292.7 500.2 -291.2 502.7 -289 507 C-287.6 509.3 -286.2 511.6 -284.8 513.9 C-284 515.1 -283.3 516.2 -282.6 517.4 C-282.1 518.3 -281.5 519.1 -281 520 C-281.7 521.3 -282.3 522.6 -283 524 C-288.4 525.4 -293.6 525.2 -299.2 525.2 C-300.3 525.2 -301.4 525.2 -302.5 525.2 C-309 525.2 -314.7 524.7 -321 523 C-323.6 516.4 -324.3 512.1 -323 505 C-322.7 504.3 -322.3 503.7 -322 503 C-321.6 500.2 -321.6 500.2 -322 497 C-324.6 493.9 -327.6 491.5 -330.7 488.9 C-334.7 485.4 -335.9 483.4 -336.3 478.1 C-336.3 476.4 -336.3 474.8 -336.4 473.1 C-337.1 451.7 -340.2 430.4 -346.6 409.9 C-346.9 409 -347.1 408.1 -347.4 407.2 C-348 405.5 -348.5 403.8 -349.1 402.1 C-351.3 394.9 -352.2 389 -349.4 382 C-348.7 380.7 -348 379.4 -347.2 378.1 C-339.3 363.1 -333.9 348.1 -338.3 331 C-339.5 327.1 -341 323.5 -343 320 C-348.5 327.4 -353 335.1 -357.3 343.2 C-363.4 354.3 -369.7 365.1 -377.4 375.2 C-383.1 382.6 -385.5 389.3 -387.7 398.4 C-389 403.1 -390.8 407 -393.1 411.2 C-396.9 418.4 -398.7 425 -400 433 C-400.4 434.8 -400.7 436.5 -401.1 438.2 C-403 448.6 -403.4 459 -403.7 469.5 C-403.8 471.2 -403.9 472.9 -403.9 474.6 C-404.8 494.3 -404.8 494.3 -397.5 502.9 C-394.8 506.3 -393.5 509.3 -392 513.3 C-390.6 517 -388.8 520.4 -387 523.9 C-386 526 -386 526 -386 529 C-398.1 534.2 -412.6 533.4 -425 529 C-428.4 525.6 -428.2 521.2 -428.3 516.6 C-428.3 512.6 -428.1 511.2 -426 507.6 C-423.1 502.4 -423 497.8 -424 492 C-425.4 489.6 -425.4 489.6 -427 487.4 C-429.8 483.6 -430.8 480.9 -430.5 476.1 C-429.7 471.3 -428.4 466.7 -427.1 462.1 C-425.1 455 -423.9 448 -422.8 440.8 C-422.6 439.7 -422.4 438.7 -422.3 437.6 C-420.4 425.1 -419.9 412.9 -420.4 400.4 C-421.1 377.1 -421.1 377.1 -413.4 367.2 C-403.4 354 -401.3 335 -403 319 C-404.9 307.6 -407.4 296.3 -410 285 C-410 288.5 -410 292 -410.1 295.5 C-410.1 296 -410.1 296 -410.1 298.5 C-410.1 302.6 -410 306.6 -409.5 310.8 C-408.7 317.1 -408.8 323.4 -408.8 329.8 C-408.7 331.1 -408.7 332.4 -408.7 333.8 C-408.7 341.8 -409.5 348.4 -412 356 C-412.3 356 -412.7 356 -413 356 C-413.2 353.5 -413.2 353.5 -414 341 C-414.1 342.9 -414.1 344.8 -414.2 346.8 C-415.2 360.4 -419.3 373.2 -424.7 385.6 C-428.2 394.6 -428.3 403 -428.4 412.5 C-428.6 421.2 -429.6 429.6 -436 436 C-435.7 434.7 -435.3 433.4 -435 432 C-434.7 426 -434.7 419.9 -436 414 C-436.1 415.6 -436.2 417.1 -436.2 418.8 C-437.5 431.9 -442.4 441 -452 450 C-452.7 449.7 -453.3 449.3 -454 449 C-453 447 -452 445 -451 443 C-451.5 443.5 -452 444.1 -452.5 444.6 C-457 449.4 -460.9 452.6 -467 455 C-467.7 454.7 -468.3 454.3 -469 454 C-468.2 453.1 -467.5 452.1 -466.7 451.1 C-460.2 441.1 -460.6 431.6 -461 420 C-461.4 420.9 -461.9 421.8 -462.3 422.8 C-465.1 428 -469 431.2 -474.4 433.4 C-475.3 433.6 -476.1 433.8 -477 434 C-477 433.3 -477 432.7 -477 432 C-476.7 431.7 -476.7 431.7 -475.2 430.2 C-468.8 423.6 -468.7 415.6 -468.8 406.9 C-469.2 400.5 -470.6 394.3 -472 388 C-472 393.9 -472 399.9 -472 406 C-475.5 401.6 -476.7 399.7 -478.2 394.6 C-478.5 393.5 -478.8 392.5 -479.2 391.4 C-485 367.9 -477.1 348.2 -468 327 C-468.6 327.6 -469.2 328.2 -469.8 328.9 C-473.7 332.7 -477.5 335.4 -483 336 C-482.1 334.9 -481.2 333.8 -480.3 332.6 C-467.7 315.6 -466.9 294.9 -465.6 274.5 C-464.4 256.8 -462.4 240.9 -454 225 C-453.5 224 -453 223 -452.5 222 C-443.4 205 -428.3 192.2 -410 186 C-404.1 184.3 -398.2 182.7 -392 183.3 C-382.6 183.9 -377.6 181.5 -369.9 176.4 C-347.1 162.3 -317.4 161.2 -292 167 C-284.8 168.8 -277.7 170.7 -270.6 172.7 C-240.2 181.1 -206.9 185.5 -178 170 C-174.6 167.6 -171.9 165 -169.2 161.8 C-169 161.5 -169 161.5 -167.5 159.7 C-167 159.1 -166.5 158.6 -166 158 C-165.7 157.7 -165.3 157.3 -165 157 C-166.4 156.7 -167.9 156.5 -169.4 156.2 C-174 155 -174 155 -176 152 C-174.9 152.1 -173.8 152.2 -172.6 152.4 C-165.1 151.8 -159.5 147.9 -154.2 142.6 C-149.6 136.9 -147.4 129.8 -145 123 C-149.8 129.6 -149.8 129.6 -152 133 C-151.3 121.3 -146.2 114.1 -138 106 C-134.4 103.4 -134.4 103.4 -132 102 C-133.4 101.9 -134.8 101.8 -136.3 101.7 C-141 101 -141 101 -144 98 C-142.4 97.8 -140.8 97.6 -139.2 97.4 C-126.3 95 -118.6 86.2 -111 76 C-110.3 74.7 -109.7 73.4 -109 72 C-111.3 74 -113.6 76 -116 78 C-114.4 70.7 -109.8 65.9 -103.8 61.8 C-99.3 59 -94.8 56.4 -90 54 C-89.5 53.4 -89.5 53.4 -87 50.3 C-78.4 40.2 -66.3 36.6 -53.6 35.1 C-47.4 34.4 -42.3 32.8 -36.6 30.1 C-31.7 28 -27.3 27.9 -22 28 C-21.8 27.2 -21.6 26.5 -21.4 25.7 C-18.2 17.2 -10.6 0 0 0 Z " fill="#A06130" transform="translate(502,23)"/>
<path d="M0 0 C4.3 1.4 8.5 3 12.6 4.8 C27 10.5 41.7 14.6 57 17 C58.2 17.2 59.3 17.4 60.5 17.6 C74.2 19.4 87.8 19.2 101.6 19.1 C104 19.1 106.5 19.1 109 19.1 C115 19.1 121 19 127 19 C129 35.9 130.2 52.6 130.1 69.6 C130.1 71.1 130.1 72.6 130.1 74.2 C130.1 74.9 130.1 74.9 130.1 78.6 C130.1 79.9 130.1 81.2 130.1 82.5 C130 85.5 129.6 88.1 129 91 C128.8 95.8 129 99.9 130.1 104.6 C131.2 110.1 131 115.1 130.4 120.7 C130.3 121.7 130.2 122.7 130.1 123.7 C128.8 136 126.9 148.4 123.9 160.4 C122.5 166.2 122.1 171.7 125 177 C126.9 179.7 129 182.4 131 185 C132.6 188.1 132.3 190.5 132 194 C131.3 195.1 130.6 196.3 129.9 197.4 C127 204.3 128.2 210.7 129 218 C137 219.8 144.7 220.2 152.9 220.2 C153.9 220.3 154.9 220.3 155.9 220.3 C161 220.3 165.2 220 170 218 C169.4 213.4 167.5 210.1 165.1 206.1 C163.1 202.7 161.2 199.3 159.5 195.8 C157.7 192.4 155.4 190 152.7 187.2 C146.9 179.7 147.2 171.1 147 162 C147 161.1 146.9 160.3 146.9 159.4 C146.6 148.2 146.9 137.2 148.2 126.1 C148.4 125.1 148.5 124.1 148.6 123.1 C149.4 117 151.1 112.5 154 107 C156.6 99.1 158.1 91.3 158.4 83 C159.2 61.8 167 38.5 175 19 C177 18.7 179 18.3 181 18 C187.3 38 186.1 59.1 185.9 79.9 C185.9 82.9 185.9 86 185.8 89 C185.8 89.9 185.8 90.8 185.8 91.8 C185.8 96.7 186.5 100.4 188 105 C188.2 108.3 188.3 111.4 188.2 114.7 C188.2 115.6 188.2 116.6 188.2 117.5 C188.2 119.5 188.2 121.4 188.2 123.4 C188.2 126.4 188.2 129.3 188.2 132.3 C188.2 134.2 188.2 136.1 188.2 138 C188.2 138.9 188.2 139.8 188.2 140.7 C188.1 145.9 187.7 150.9 187 156 C186.9 158.6 186.8 161.1 186.8 163.7 C186.7 164.9 186.7 166.2 186.7 167.5 C187 171.3 187.7 173 190 176 C192.3 177.7 194.7 179.3 197 181 C199.4 185.7 199.3 188.7 199 194 C198.3 195.3 197.7 196.6 197 198 C197 200.9 197 200.9 197.3 204.1 C197.4 204.7 197.4 204.7 197.6 207.3 C198 210 198 210 199 212 C206.1 214.1 212.8 214.3 220.2 214.2 C221.2 214.3 222.3 214.3 223.4 214.3 C228.6 214.3 233.1 214.1 238 212 C237.5 207.2 235.3 204 232.6 200 C228 193.1 228 193.1 226.4 190.2 C225 188 225 188 222.2 185.8 C217.5 181.7 214.8 176.5 212 171 C212 168.4 212 165.7 212 163 C265.8 163 319.6 163 375 163 C375 196 375 229 375 263 C177 263 -21 263 -225 263 C-225 230 -225 197 -225 163 C-201.2 163 -177.5 163 -153 163 C-152.3 165.6 -151.7 168.3 -151 171 C-150.1 172.1 -149.3 173.1 -148.4 174.2 C-145.1 179.5 -145.1 184 -146 190 C-147.3 192.3 -148.6 194.7 -150 197 C-150.8 203.1 -150.1 208.2 -148 214 C-135.2 217.8 -122 218.7 -109 215 C-110.2 212.2 -111.5 209.3 -112.8 206.5 C-113.1 205.7 -113.4 204.9 -113.8 204.1 C-119.9 190.3 -119.9 190.3 -123.6 185.9 C-128.1 180.5 -128.2 175.5 -128 168.6 C-128 167 -128 165.3 -127.9 163.6 C-127.9 162.8 -127.9 162 -127.8 161.1 C-127.8 158.5 -127.7 156 -127.6 153.4 C-127.3 143.8 -126.6 134.5 -125 125 C-124.8 123.5 -124.6 122.1 -124.4 120.5 C-122.8 109.2 -118.9 100.2 -114 90 C-112 85.8 -110.7 81.8 -109.8 77.2 C-108.1 70.5 -105 65.8 -100.9 60.3 C-99.6 58.4 -98.2 56.5 -96.9 54.5 C-96.2 53.6 -95.5 52.6 -94.8 51.7 C-90.5 45.4 -86.8 38.7 -83 32 C-81.4 29.2 -79.8 26.4 -78.2 23.6 C-77.2 21.8 -76.1 20 -75.1 18.1 C-72.6 13.6 -69.9 9.3 -67 5 C-61.3 9.3 -60.6 16.4 -59 23 C-57.7 39 -62.4 51.8 -70.1 65.5 C-73.8 72.3 -73.7 78.2 -71.8 85.7 C-71.3 87.3 -70.8 88.9 -70.2 90.6 C-69.7 92.3 -69.1 94.1 -68.6 95.9 C-68.3 96.8 -68 97.7 -67.8 98.6 C-61.2 119.6 -58.6 141.9 -58.5 163.9 C-57.9 169.3 -56 172.2 -51.9 175.8 C-51.3 176.3 -50.6 176.7 -49.9 177.2 C-46 180 -46 180 -44 183 C-43.7 186.2 -43.7 188.4 -45 191.3 C-46.2 194.4 -46.1 196.4 -45.7 199.6 C-45.6 200.6 -45.5 201.5 -45.4 202.5 C-45 205 -45 205 -44 208 C-36.7 210 -29.8 210.3 -22.2 210.2 C-21.1 210.3 -20 210.3 -18.9 210.3 C-17.8 210.3 -16.7 210.3 -15.6 210.3 C-15.2 210.3 -15.2 210.3 -12.7 210.3 C-9.8 210 -7.6 209.2 -5 208 C-6.5 203.9 -8.5 200.3 -10.9 196.6 C-11.2 196 -11.2 196 -12.9 193.3 C-13.6 192.2 -14.3 191.1 -15 190 C-15.7 188.9 -16.3 187.9 -17 186.8 C-18.9 184.2 -20.5 182.5 -23 180.6 C-29.6 174.9 -31.4 168.9 -33.2 160.6 C-34 156.9 -35.2 153.4 -36.4 149.8 C-43.4 128.1 -45.2 105.4 -40 83.2 C-39 79 -39 79 -38.6 75.3 C-38 71.8 -37 69.9 -35.1 67 C-34.7 66.5 -34.7 66.5 -33.2 64.1 C-31.6 61.9 -30.1 59.7 -28.6 57.5 C-20.7 45.9 -14.5 33.9 -9.2 21 C-7.4 16.5 -5.4 12.2 -3.3 7.9 C-2.1 5.3 -1 2.7 0 0 Z " fill="#CEDDCD" transform="translate(225,337)"/>
<path d="M0 0 C1 2 1 2 -0.4 6.7 C-3.8 18.5 -4.2 29.4 1.6 40.5 C5.3 47.1 9.6 51.5 16.9 54 C24.3 55.7 30.3 54.6 37 51 C37.5 50.5 37.5 50.5 40 48 C40.7 48 41.3 48 42 48 C42.2 48.8 42.3 49.7 42.5 50.5 C46.2 59 54.1 63.7 62 68 C62 69 62 70 62 71 C62.7 72.3 63.3 73.6 64 75 C64 76 64 77 64 78 C64.9 78 65.9 77.9 66.8 77.9 C70 78 70 78 73 80 C74.6 80 76.3 80 78 80 C78.7 77 79.3 74.1 80 71 C80.7 71.3 81.3 71.7 82 72 C82 73.3 82 74.6 82 76 C82.7 76 83.3 76 84 76 C84.1 74.9 84.2 73.8 84.3 72.7 C85 69 85 69 88 66 C91.2 65.8 91.2 65.8 94 66 C94.3 66.7 94.7 67.3 95 68 C94 68 93 68 92 68 C92.7 70 93.3 72 94 74 C95 74 96 74 97 74 C97.3 75 97.7 76 98 77 C98.7 77.3 99.3 77.7 100 78 C99.8 77.5 99.8 77.5 98.5 74.8 C97 71 97 71 97 67 C100.2 68.6 100.7 71.8 102 75 C103.1 74.5 104.2 74 105.3 73.5 C109 72 109 72 112 72 C112 70.3 112 68.7 112 67 C112.7 66.7 113.3 66.3 114 66 C115 72.9 115.2 76.6 112 83 C111.5 84.7 111.1 86.4 110.6 88.1 C109.3 92.7 107.6 95.7 104 99 C100.6 100.2 100.6 100.2 97 101 C96.1 101.5 95.1 102.1 94.2 102.6 C88.9 104.9 83.9 104.8 78.5 103.3 C75.1 101.9 72.5 100.6 70.1 97.8 C69.2 95.5 68.4 93.3 67.6 91 C64.3 82.7 58.8 79.8 51.4 75.6 C44.7 71.9 38.4 68 32.3 63.4 C28.6 61.1 25.3 61.1 21 61 C19.1 66.1 18.2 71.3 17.5 76.7 C17.2 78.6 16.9 80.6 16.6 82.5 C16.5 83.5 16.3 84.5 16.2 85.6 C14 101.1 11.7 116.6 7.7 131.9 C5.1 142.1 6.9 150.7 9.5 160.8 C15 182.7 14.4 201.6 3.9 221.9 C2.2 224.7 0.5 226.7 -1.7 229 C-6.1 234.2 -6.4 240.6 -7.4 247.2 C-9.1 257.6 -12.5 267.1 -16 277 C-21.6 293 -25.1 307.5 -25.6 324.5 C-25.8 330.9 -26.9 336.5 -28.8 342.6 C-31.3 351.4 -31.4 359.8 -31.4 368.9 C-31.4 369.6 -31.4 369.6 -31.4 373.3 C-31.4 381.5 -30.7 389.1 -28.7 397.1 C-28 400 -28 400 -27.6 404.8 C-26.3 413.7 -21.2 419.3 -14.6 425.1 C-11.5 428.6 -9.6 432.2 -7.5 436.2 C-6.1 438.7 -4.7 441.1 -3.1 443.4 C-1 447 -1 447 -2 451 C-7.9 453.5 -13.6 453.3 -19.8 453.2 C-20.9 453.3 -21.9 453.3 -23 453.3 C-29.3 453.3 -35 452.8 -41 451 C-43.2 447.7 -43.4 446 -43.8 442.1 C-43.8 441 -43.9 440 -44 438.9 C-44 436 -44 436 -42 432 C-41.3 422.3 -41.3 422.3 -45 418 C-47.3 416.3 -49.7 414.7 -52 413 C-54.2 408.7 -54.2 406.5 -54.2 401.8 C-54.2 400.5 -54.2 399.2 -54.2 397.9 C-54 394 -54 394 -53.5 390.4 C-53 385.6 -52.8 380.8 -52.8 376 C-52.8 375.1 -52.8 374.2 -52.8 373.2 C-52.8 371.3 -52.8 369.3 -52.8 367.4 C-52.8 364.4 -52.8 361.4 -52.8 358.4 C-52.8 356.5 -52.8 354.6 -52.8 352.7 C-52.8 352.3 -52.8 352.3 -52.7 350 C-52.8 346.5 -52.9 343.4 -54 340 C-55.4 335.7 -55.2 331.5 -55.2 327 C-55.2 326.5 -55.2 326.5 -55.1 324 C-55.1 320.9 -55.1 317.8 -55.1 314.8 C-54.7 277.9 -54.7 277.9 -57.6 263.4 C-57.8 262 -58.1 260.5 -58.4 259.1 C-58.6 258.1 -58.8 257 -59 256 C-61 256.3 -63 256.7 -65 257 C-65.1 257.7 -65.2 258.3 -65.4 259 C-66.2 262.8 -67.3 266.4 -68.4 270.1 C-68.9 271.7 -69.4 273.3 -69.9 275 C-70.6 277.5 -71.4 280 -72.1 282.5 C-80.2 309.3 -80.2 309.3 -80.4 320.3 C-80.9 330.2 -82.3 340 -87 348.8 C-89.4 353.9 -90.1 358.5 -90.8 364.1 C-90.9 365.1 -91 366.1 -91.1 367.2 C-92.2 377.3 -92.4 387.3 -92.1 397.4 C-92 399.8 -92 402.2 -91.9 404.6 C-91.6 416.3 -88.7 423.2 -80.8 431.7 C-77.7 435.6 -75.7 440.2 -73.6 444.7 C-72 448 -72 448 -70.2 450.7 C-69 453 -69 453 -70 457 C-75.7 459.4 -81.1 459.3 -87.1 459.3 C-87.6 459.3 -87.6 459.3 -90.2 459.3 C-97.6 459.2 -104 458.3 -111 456 C-114 442 -114 442 -111 436.1 C-108.8 431.7 -108.2 429.8 -109 425 C-111.2 420.9 -113.7 417.3 -117 414 C-119 406 -117.5 399 -115.7 391.1 C-113.7 382.1 -112.2 373.2 -111.1 364.1 C-111.1 363.5 -111.1 363.5 -110.7 360.8 C-109.9 353.8 -110 347.5 -111.6 340.5 C-112.4 335.9 -112.5 331.2 -111.5 326.7 C-110.4 320.7 -110.8 314.4 -110.8 308.3 C-110.8 306.8 -110.8 305.3 -110.8 303.7 C-110.9 292.1 -111.5 280.7 -112.6 269.2 C-112.9 265.1 -113.1 261.1 -113 257 C-113.6 257.2 -114.2 257.3 -114.9 257.5 C-119.3 258.2 -123.7 258.2 -128.1 258.2 C-129.1 258.2 -130.1 258.2 -131.2 258.2 C-134.4 258.2 -137.6 258.2 -140.8 258.2 C-141.9 258.3 -143 258.3 -144.1 258.3 C-159.6 258.2 -174.8 258.1 -190 255 C-190.9 254.8 -191.7 254.6 -192.6 254.5 C-207.6 251.3 -222.2 246.6 -236 239.9 C-238 239 -238 239 -240 239 C-240.4 240 -240.8 241.1 -241.1 242.1 C-243.7 249.2 -246.3 256 -249.8 262.6 C-251.1 265.2 -252.1 267.8 -253.1 270.5 C-257.9 282.1 -265.2 292.9 -272.6 303 C-276 307.9 -277.6 311.7 -278.6 317.7 C-279.3 322.1 -280.1 326.5 -281.2 330.9 C-285.1 351.3 -280.4 375.8 -273.1 394.9 C-272 398.1 -271.3 401.2 -270.6 404.4 C-268.8 411.8 -265.2 416.1 -259.4 421.1 C-255.7 424.2 -254.2 426.7 -252 431 C-250.6 433.3 -249.2 435.6 -247.8 437.9 C-247 439.1 -246.3 440.2 -245.6 441.4 C-245.1 442.3 -244.5 443.1 -244 444 C-244.7 445.3 -245.3 446.6 -246 448 C-251.4 449.4 -256.6 449.2 -262.2 449.2 C-263.3 449.2 -264.4 449.2 -265.5 449.2 C-272 449.2 -277.7 448.7 -284 447 C-286.6 440.4 -287.3 436.1 -286 429 C-285.7 428.3 -285.3 427.7 -285 427 C-284.6 424.2 -284.6 424.2 -285 421 C-287.6 417.9 -290.6 415.5 -293.7 412.9 C-297.7 409.4 -298.9 407.4 -299.3 402.1 C-299.3 400.4 -299.3 398.8 -299.4 397.1 C-300.1 375.7 -303.2 354.4 -309.6 333.9 C-309.7 333.5 -309.7 333.5 -310.4 331.2 C-311 329.5 -311.5 327.8 -312.1 326.1 C-314.3 318.9 -315.2 313 -312.4 306 C-311.7 304.7 -311 303.4 -310.2 302.1 C-302.3 287.1 -296.9 272.1 -301.3 255 C-302.5 251.1 -304 247.5 -306 244 C-311.5 251.4 -316 259.1 -320.3 267.2 C-326.4 278.3 -332.7 289.1 -340.4 299.2 C-346.1 306.6 -348.5 313.3 -350.7 322.4 C-352 327.1 -353.8 331 -356.1 335.2 C-359.9 342.4 -361.7 349 -363 357 C-363.4 358.8 -363.7 360.5 -364.1 362.2 C-366 372.6 -366.4 383 -366.7 393.5 C-366.8 395.2 -366.9 396.9 -366.9 398.6 C-367.8 418.3 -367.8 418.3 -360.5 426.9 C-357.8 430.3 -356.5 433.3 -355 437.3 C-353.6 441 -351.8 444.4 -350 447.9 C-349 450 -349 450 -349 453 C-361.1 458.2 -375.6 457.4 -388 453 C-391.4 449.6 -391.2 445.2 -391.3 440.6 C-391.3 436.6 -391.1 435.2 -389 431.6 C-386.1 426.4 -386 421.8 -387 416 C-388.4 413.6 -388.4 413.6 -390 411.4 C-392.8 407.6 -393.8 404.9 -393.5 400.1 C-392.7 395.3 -391.4 390.7 -390.1 386.1 C-388.1 379 -386.9 372 -385.8 364.8 C-385.6 363.7 -385.4 362.7 -385.3 361.6 C-383.6 350.6 -382.8 339.7 -383.2 328.6 C-383.2 327.9 -383.2 327.9 -383.4 324.3 C-383.5 321.4 -383.6 318.5 -383.7 315.6 C-384 304.8 -381.6 297 -374 289 C-371.2 288.1 -371.2 288.1 -369 288 C-368.7 285.4 -368.3 282.7 -368 280 C-367.7 280 -367.3 280 -367 280 C-366.9 283.2 -366.8 286.3 -366.8 289.5 C-366.7 290.4 -366.7 291.3 -366.6 292.2 C-366.6 298.5 -367.9 302.4 -371 308 C-371.2 312.5 -371.2 312.5 -371 316 C-368 317 -368 317 -365.1 316.2 C-361.6 313.7 -361.4 312.8 -360.2 308.9 C-358.4 302.9 -355.4 300.3 -350.7 296.4 C-340.5 287.3 -330.7 272.9 -328.8 259.2 C-329 255 -329 255 -332 252 C-335.2 251.3 -335.2 251.3 -338 251 C-334.8 248.6 -332 246.9 -328.5 245 C-314.7 237 -303.2 225.1 -297.9 210 C-296.8 205.3 -296.8 200.9 -296.9 196.1 C-296.9 194.1 -297 192.2 -297 190.3 C-297 187.3 -297.1 184.3 -297.1 181.2 C-297.5 160.3 -294.1 145 -280 129 C-279.7 129.7 -279.3 130.3 -279 131 C-278 130.7 -277 130.3 -276 130 C-275.7 130.3 -275.3 130.7 -275 131 C-274 131 -273 131 -272 131 C-271 131 -270 131 -269 131 C-268.7 131.3 -268.3 131.7 -268 132 C-268 131 -268 130 -268 129 C-267.3 129 -266.7 129 -266 129 C-265.3 128.3 -264.7 127.7 -264 127 C-263.3 127.8 -263.3 127.8 -260 132 C-261.2 134.3 -262.3 136.7 -263.5 139 C-264.2 140.5 -264.9 141.9 -265.7 143.4 C-267.2 146.4 -268.7 149.3 -270.3 152.2 C-275.3 161.6 -278.1 168.6 -276.3 179.2 C-271.5 193.3 -262 201.7 -250 210 C-249.2 210.5 -248.5 211.1 -247.7 211.6 C-227.6 224.6 -203.4 230.1 -179.8 230.2 C-178.7 230.3 -177.5 230.3 -176.3 230.3 C-164.1 230.4 -152.1 228.4 -142 221 C-134.1 212.1 -133.9 198.4 -133 187 C-132.3 187.3 -131.7 187.7 -131 188 C-130.3 191.1 -129.7 194.1 -129.2 197.2 C-126.9 209.5 -124.2 220.1 -115 229 C-110.2 231.4 -108.4 231.7 -103 231 C-92.9 227.1 -84.2 222.4 -79.6 212.2 C-77.8 207.1 -77.3 202.3 -77 197 C-74.7 200 -73.2 202.3 -71.7 205.7 C-71.4 206.1 -71.4 206.1 -70.4 208.3 C-69.5 210.1 -68.6 212 -67.8 213.8 C-67.3 214.7 -66.9 215.6 -66.5 216.5 C-66.3 216.9 -66.3 216.9 -65.3 218.9 C-64 221 -64 221 -60 224 C-49.8 217.8 -43.4 210.6 -38 200 C-37 203 -37 203 -37 205 C-24.9 188 -22.1 170.3 -21 150 C-19.1 153.7 -18.3 156.7 -17.4 160.8 C-17.1 161.9 -16.9 163.1 -16.6 164.3 C-16.5 164.7 -16.5 164.7 -16 167 C-15.3 167 -14.7 167 -14 167 C-13.6 165.7 -13.2 164.4 -12.7 163.1 C-11.6 159.8 -10.5 156.5 -9.3 153.2 C2.6 119.3 1.5 91.2 -9.1 57.1 C-10 54 -10 54 -10 52 C-10.7 52 -11.3 52 -12 52 C-15.6 79.9 -17.9 107.9 -20 136 C-20.3 136 -20.7 136 -21 136 C-21.8 127.5 -22.2 119 -22.2 110.4 C-22.2 109.3 -22.2 108.1 -22.2 106.9 C-22.2 104.5 -22.2 102 -22.2 99.6 C-22.2 95.9 -22.3 92.3 -22.3 88.6 C-22.4 59.7 -22.5 24.7 -2 2 C-1.3 1.3 -0.7 0.7 0 0 Z " fill="#8A552A" transform="translate(465,99)"/>
<path d="M0 0 C4.3 1.4 8.5 3 12.6 4.8 C27 10.5 41.7 14.6 57 17 C58.2 17.2 59.3 17.4 60.5 17.6 C74.2 19.4 87.8 19.2 101.6 19.1 C104 19.1 106.5 19.1 109 19.1 C115 19.1 121 19 127 19 C129 35.9 130.2 52.6 130.1 69.6 C130.1 71.1 130.1 72.6 130.1 74.2 C130.1 74.9 130.1 74.9 130.1 78.6 C130.1 79.9 130.1 81.2 130.1 82.5 C130 85.5 129.6 88.1 129 91 C128.8 95.8 129 99.9 130.1 104.6 C131.2 110.1 131 115.1 130.4 120.7 C130.3 121.7 130.2 122.7 130.1 123.7 C128.8 136 126.9 148.4 123.9 160.4 C122.5 166.2 122.1 171.7 125 177 C126.9 179.7 129 182.4 131 185 C132.5 188 132.1 190.7 132 194 C131.7 195 131.3 196 131 197 C112.7 197.2 94.4 197.3 76.2 197.4 C67.7 197.5 59.2 197.5 50.7 197.6 C42.5 197.7 34.3 197.7 26.1 197.8 C23 197.8 19.9 197.8 16.7 197.8 C12.4 197.9 8 197.9 3.6 197.9 C2.3 197.9 1 198 -0.3 198 C-8.9 197.9 -8.9 197.9 -12.1 195.2 C-14.2 192.5 -15.7 189.5 -17.4 186.4 C-19 183.9 -20.6 182.5 -22.9 180.6 C-29.6 174.9 -31.4 169 -33.2 160.6 C-34 156.9 -35.2 153.4 -36.4 149.8 C-43.4 128.1 -45.2 105.4 -40 83.2 C-39 79 -39 79 -38.6 75.3 C-38 71.8 -37 69.9 -35.1 67 C-34.7 66.5 -34.7 66.5 -33.2 64.1 C-31.6 61.9 -30.1 59.7 -28.6 57.5 C-20.7 45.9 -14.5 33.9 -9.2 21 C-7.4 16.5 -5.4 12.2 -3.3 7.9 C-2.1 5.3 -1 2.7 0 0 Z " fill="#EDF2ED" transform="translate(225,337)"/>
<path d="M0 0 C-1.1 0.9 -2.2 1.8 -3.4 2.7 C-17.9 15.5 -27.4 33.9 -30 53 C-30.3 58.1 -30.2 63.1 -30.2 68.2 C-30.2 69.5 -30.2 70.8 -30.2 72.2 C-30.2 78.3 -29.9 84 -29 90 C-28.9 92.5 -28.8 94.9 -28.7 97.4 C-28.7 98.1 -28.7 98.1 -28.6 101.6 C-28.6 102.3 -28.6 102.3 -28.5 105.9 C-28.1 120.9 -28.1 120.9 -27.5 126.1 C-26.7 132.3 -26.8 138.5 -26.8 144.8 C-26.7 146.1 -26.7 147.4 -26.7 148.8 C-26.7 156.8 -27.5 163.4 -30 171 C-30.3 171 -30.7 171 -31 171 C-31.2 168.5 -31.2 168.5 -32 156 C-32 157 -32 157 -32.2 161.8 C-33.2 175.4 -37.3 188.2 -42.7 200.6 C-46.2 209.6 -46.3 218 -46.4 227.5 C-46.6 236.2 -47.6 244.6 -54 251 C-53.7 249.7 -53.3 248.4 -53 247 C-52.7 241 -52.7 234.9 -54 229 C-54.1 230.6 -54.2 232.1 -54.2 233.8 C-55.5 246.9 -60.4 256 -70 265 C-70.7 264.7 -71.3 264.3 -72 264 C-71 262 -70 260 -69 258 C-69.5 258.5 -70 259.1 -70.5 259.6 C-75 264.4 -78.9 267.6 -85 270 C-85.7 269.7 -86.3 269.3 -87 269 C-86.2 268.1 -85.5 267.1 -84.7 266.1 C-78.2 256.1 -78.6 246.6 -79 235 C-79.4 235.9 -79.9 236.8 -80.3 237.8 C-83.1 243 -87 246.2 -92.4 248.4 C-93.3 248.6 -94.1 248.8 -95 249 C-95 248.3 -95 247.7 -95 247 C-94.4 246.4 -93.8 245.8 -93.2 245.2 C-86.8 238.6 -86.7 230.6 -86.8 221.9 C-87.2 215.5 -88.6 209.3 -90 203 C-90 208.9 -90 214.9 -90 221 C-93.5 216.6 -94.7 214.7 -96.2 209.6 C-96.3 209.1 -96.3 209.1 -97.2 206.4 C-103 182.9 -95.1 163.2 -86 142 C-86.6 142.6 -87.2 143.2 -87.8 143.9 C-91.7 147.7 -95.5 150.4 -101 151 C-100.1 149.9 -99.2 148.8 -98.3 147.6 C-85.7 130.6 -84.9 109.9 -83.6 89.5 C-82.4 71.8 -80.4 55.9 -72 40 C-71.5 39 -71 38 -70.5 37 C-61.4 20 -46.3 7.2 -28 1 C-7.3 -4.9 -7.3 -4.9 0 0 Z " fill="#61412B" transform="translate(120,208)"/>
<path d="M0 0 C-0.9 7.1 -2.1 9.5 -7.8 14 C-15.7 21.2 -18.4 31.6 -21 41.5 C-22 45 -22 45 -24 47 C-24.1 46.3 -24.1 46.3 -24.4 42.6 C-25 38 -25 38 -26 36 C-29.8 47.2 -29.8 47.2 -30.9 51.5 C-34 61.7 -37.9 69.7 -46 77 C-46.7 77.3 -46.7 77.3 -50 79 C-49.5 78.2 -49.1 77.3 -48.6 76.5 C-46.3 71.4 -45 66.6 -45 61 C-45.4 61.9 -45.8 62.8 -46.3 63.7 C-49.1 69.5 -51.9 75.1 -55.7 80.2 C-62.1 89.3 -63.3 96.8 -63.6 107.6 C-63.8 114 -64.7 119.1 -67 125 C-69 122 -69 122 -70 119 C-71.3 122.6 -72.6 126.3 -74 130 C-75 130 -76 130 -77 130 C-77.3 131.3 -77.7 132.6 -78 134 C-83.8 142.5 -83.8 142.5 -89 145 C-87.9 141.1 -86.7 137.2 -85.4 133.4 C-84.4 130.2 -83.5 127.3 -83 124 C-83.5 124.2 -83.5 124.2 -86 125 C-86.2 123.5 -86.2 123.5 -87 116 C-91.7 125.6 -94.1 134.3 -95 145 C-96 145 -97 145 -98 145 C-98.3 146.3 -98.5 147.6 -98.8 148.9 C-101 158.5 -103.4 166.2 -111.9 171.9 C-112.6 172.3 -113.3 172.6 -114 173 C-114.7 172.7 -115.3 172.3 -116 172 C-115.7 171.6 -115.7 171.6 -114.1 169.6 C-110.8 165.5 -110.9 163.2 -111 158 C-111.5 158.5 -111.9 159 -112.4 159.6 C-118.2 165.6 -123.7 169.9 -132 172 C-138.2 181.9 -140.7 193.6 -143 205 C-143.3 206.3 -143.7 207.6 -144 209 C-155.5 214.8 -177.7 208.5 -190 207 C-190.3 206 -190.7 205 -191 204 C-184.8 204.5 -178.5 204.9 -172.3 205.5 C-171.8 205.6 -171.8 205.6 -169.3 205.8 C-167.2 206 -165.2 206.2 -163.2 206.3 C-157.8 206.8 -152.5 207.1 -147 207 C-146.8 206.1 -146.6 205.3 -146.3 204.4 C-145.3 200.3 -144.1 196.1 -143 192 C-142.8 191.2 -142.6 190.4 -142.3 189.6 C-139.3 178.4 -135.7 168.2 -130 158 C-129.3 158 -128.7 158 -128 158 C-128 156.7 -128 155.4 -128 154 C-129 155.6 -130 157.2 -130.9 158.9 C-131.5 159.8 -132 160.7 -132.6 161.6 C-133.4 163.1 -134.3 164.5 -135 166 C-137.4 166.5 -139.9 167 -142.4 167.4 C-145 168 -145 168 -147.4 169.1 C-150.5 170.2 -153 170.2 -156.3 170.1 C-157.4 170.1 -158.4 170.1 -159.6 170.1 C-160.4 170 -161.2 170 -162 170 C-162.7 168.7 -163.3 167.4 -164 166 C-163.1 165.4 -162.1 164.8 -161.1 164.2 C-158 162 -158 162 -156 159 C-156.7 159.3 -157.3 159.7 -158 160 C-159.8 160.2 -161.6 160.3 -163.4 160.3 C-164.4 160.3 -165.4 160.4 -166.4 160.4 C-169 160 -169 160 -172 156 C-171.2 155.6 -170.3 155.2 -169.4 154.8 C-168.3 154.2 -167.3 153.7 -166.1 153.1 C-165 152.6 -163.9 152.1 -162.8 151.5 C-160 150 -160 150 -158 148 C-160 148.3 -162 148.7 -164 149 C-164.3 148 -164.7 147 -165 146 C-164.2 145.6 -163.4 145.2 -162.5 144.9 C-153.8 140.6 -148 135.5 -142 128 C-143.4 127.7 -144.9 127.5 -146.4 127.2 C-151 126 -151 126 -153 123 C-151.9 123.1 -150.8 123.2 -149.6 123.4 C-142.1 122.8 -136.5 118.9 -131.2 113.6 C-126.6 107.9 -124.4 100.8 -122 94 C-126.7 100.6 -126.7 100.6 -129 104 C-128.3 92.3 -123.2 85.1 -115 77 C-111.4 74.4 -111.4 74.4 -109 73 C-110.4 72.9 -111.8 72.8 -113.3 72.7 C-118 72 -118 72 -121 69 C-120.2 68.9 -120.2 68.9 -116.2 68.4 C-103.3 66 -95.6 57.2 -88 47 C-87.3 45.7 -86.7 44.4 -86 43 C-88.3 45 -90.6 47 -93 49 C-91.4 41.7 -86.8 36.9 -80.8 32.8 C-76.3 30 -71.8 27.4 -67 25 C-66 23.8 -65 22.6 -64 21.3 C-55.4 11.2 -43.3 7.6 -30.6 6.1 C-24.4 5.4 -19.6 3.7 -13.9 1 C-9.2 -0.7 -5 -0.3 0 0 Z " fill="#61422C" transform="translate(479,52)"/>
<path d="M0 0 C5.7 4.3 6.4 11.4 8 18 C9.3 34 4.6 46.8 -3.1 60.5 C-6.8 67.3 -6.7 73.2 -4.8 80.7 C-4.3 82.3 -3.8 83.9 -3.2 85.6 C-2.7 87.3 -2.1 89.1 -1.6 90.9 C-1.3 91.8 -1 92.7 -0.8 93.6 C5.8 114.6 8.4 136.9 8.5 158.9 C9.1 164.3 11 167.2 15.1 170.8 C15.7 171.3 16.4 171.7 17.1 172.2 C21 175 21 175 23 178 C23.8 183.8 21.4 187.8 19 193 C-30 194.2 -30 194.2 -49 194 C-49.3 193.3 -49.7 192.6 -50 191.9 C-50.4 191 -50.9 190.1 -51.3 189.2 C-51.8 188.3 -52.2 187.4 -52.6 186.5 C-54.4 183.3 -56.7 180.8 -59 178 C-61.1 173.1 -61.2 168.9 -61 163.6 C-61 162 -61 160.3 -60.9 158.6 C-60.9 157.8 -60.9 157 -60.8 156.1 C-60.8 153.5 -60.7 151 -60.6 148.4 C-60.3 138.8 -59.6 129.5 -58 120 C-57.8 118.5 -57.6 117.1 -57.4 115.5 C-55.8 104.2 -51.9 95.2 -47 85 C-45 80.8 -43.7 76.8 -42.8 72.2 C-41.1 65.5 -38 60.8 -33.9 55.3 C-32.6 53.4 -31.2 51.5 -29.9 49.5 C-29.2 48.6 -28.5 47.6 -27.8 46.7 C-23.5 40.4 -19.8 33.7 -16 27 C-14.4 24.2 -12.8 21.4 -11.2 18.6 C-10.2 16.8 -9.1 15 -8.1 13.1 C-5.6 8.6 -2.9 4.3 0 0 Z " fill="#EDF2EC" transform="translate(158,342)"/>
<path d="M0 0 C5 2.9 9.4 6.5 14 10 C19.9 14.3 25.8 18.2 32.1 21.8 C34 23 34 23 35 24 C35.4 28.6 34.6 31.5 32.6 35.6 C30.6 39.6 28.7 43.7 27 47.9 C20.8 63.1 13.1 76.7 3.4 90 C-0 94.9 -1.6 98.7 -2.6 104.7 C-3.3 109.1 -4.1 113.5 -5.2 117.9 C-9.1 138.3 -4.4 162.8 2.9 181.9 C4 185.1 4.7 188.2 5.4 191.4 C7.2 198.8 10.8 203.1 16.6 208.1 C20.3 211.2 21.8 213.7 24 218 C25.4 220.3 26.8 222.6 28.2 224.9 C29 226.1 29.7 227.2 30.4 228.4 C30.9 229.3 31.5 230.1 32 231 C31.3 232.3 30.7 233.6 30 235 C24.6 236.4 19.4 236.2 13.8 236.2 C12.7 236.2 11.6 236.2 10.5 236.2 C4 236.2 -1.7 235.7 -8 234 C-10.6 227.4 -11.3 223.1 -10 216 C-9.7 215.3 -9.3 214.7 -9 214 C-8.6 211.2 -8.6 211.2 -9 208 C-11.6 204.9 -14.6 202.5 -17.7 199.9 C-21.7 196.4 -22.9 194.4 -23.3 189.1 C-23.3 187.4 -23.3 185.8 -23.4 184.1 C-24.1 162.7 -27.2 141.4 -33.6 120.9 C-33.9 120 -34.1 119.1 -34.4 118.2 C-35 116.5 -35.5 114.8 -36.1 113.1 C-38.3 105.9 -39.2 100 -36.4 93 C-35.7 91.7 -35 90.4 -34.2 89.1 C-25.7 73 -20.7 57.3 -26.1 39.3 C-27 37 -27 37 -29 33 C-29.5 29.4 -29.5 27.7 -27.3 24.7 C-26.9 24.3 -26.9 24.3 -25 22.4 C-12 8.9 -12 8.9 -12 1 C-7.7 -0.4 -4.4 -1.1 0 0 Z " fill="#794728" transform="translate(189,312)"/>
<path d="M0 0 C0.3 0 0.7 0 1 0 C1.7 13.8 -2.4 24.5 -10 36 C-10.3 36.3 -10.7 36.7 -11 37 C-4.9 36.7 -0.6 33.8 4 30 C6.3 27.4 8.1 24.8 10 22 C10 24.9 9.7 27.2 9 30 C8.3 30.7 7.7 31.3 7 32 C6.4 35.3 5.8 38.5 5.3 41.8 C3.4 53.4 -0.1 64 -4 75 C-9.6 91 -13.1 105.5 -13.6 122.5 C-13.8 128.9 -14.9 134.5 -16.8 140.6 C-19.3 149.4 -19.4 157.8 -19.4 166.9 C-19.4 168.3 -19.4 169.8 -19.4 171.3 C-19.4 179.5 -18.7 187.1 -16.7 195.1 C-16 198 -16 198 -15.6 202.8 C-14.3 211.7 -9.2 217.3 -2.6 223.1 C0.5 226.6 2.4 230.2 4.5 234.2 C5.9 236.7 7.3 239.1 8.9 241.4 C11 245 11 245 10 249 C4.1 251.5 -1.6 251.3 -7.8 251.2 C-8.9 251.3 -9.9 251.3 -11 251.3 C-17.3 251.3 -23 250.8 -29 249 C-31.2 245.7 -31.4 244 -31.8 240.1 C-31.8 239 -31.9 238 -32 236.9 C-32 234 -32 234 -30 230 C-29.3 220.3 -29.3 220.3 -33 216 C-35.3 214.3 -37.7 212.7 -40 211 C-42.2 206.7 -42.2 204.5 -42.2 199.8 C-42.2 198.5 -42.2 197.2 -42.2 195.9 C-42 192 -42 192 -41.5 188.4 C-41 183.6 -40.8 178.8 -40.8 174 C-40.8 173.1 -40.8 172.2 -40.8 171.2 C-40.8 169.3 -40.8 167.3 -40.8 165.4 C-40.8 162.4 -40.8 159.4 -40.8 156.4 C-40.8 154.5 -40.8 152.6 -40.8 150.7 C-40.8 149.8 -40.8 148.9 -40.7 148 C-40.8 144.5 -40.9 141.4 -42 138 C-43.4 133.7 -43.2 129.5 -43.2 125 C-43.2 124 -43.1 123 -43.1 122 C-43.1 118.9 -43.1 115.8 -43.1 112.8 C-42.7 75.9 -42.7 75.9 -45.6 61.4 C-45.8 60 -46.1 58.5 -46.4 57.1 C-46.5 56.6 -46.5 56.6 -47 54 C-48.6 54 -50.3 54 -52 54 C-51.3 49.4 -50.7 44.8 -50 40 C-49.7 40.7 -49.3 41.3 -49 42 C-46.9 40.6 -44.8 39.2 -42.8 37.8 C-42.2 37.4 -42.2 37.4 -39.2 35.5 C-36.2 33.2 -34.2 31 -32 28 C-31.3 28.3 -30.7 28.7 -30 29 C-31.6 31.1 -33.2 33.2 -34.8 35.3 C-35.7 36.5 -36.6 37.7 -37.5 38.9 C-40 42 -40 42 -43 45 C-41 46 -41 46 -38.1 45.2 C-24.9 40.6 -15.4 34.8 -8 22.8 C-7 20 -7 20 -7 15 C-6 15 -5 15 -4 15 C-3.7 13.4 -3.3 11.7 -3 10 C-2.3 10 -1.7 10 -1 10 C-1 8.7 -1 7.4 -1.1 6.1 C-1 2 -1 2 0 0 Z " fill="#764628" transform="translate(453,301)"/>
<path d="M0 0 C-0.8 1.1 -1.7 2.2 -2.6 3.4 C-3.7 4.9 -4.9 6.5 -6 8 C-6.6 8.8 -7.2 9.5 -7.7 10.3 C-19.8 26.9 -24.4 43.9 -24.2 64.2 C-24.2 65.5 -24.2 66.8 -24.2 68.2 C-24.2 74.3 -23.9 80 -23 86 C-22.9 88.5 -22.8 90.9 -22.7 93.4 C-22.7 94.1 -22.7 94.1 -22.6 97.6 C-22.6 98.3 -22.6 98.3 -22.5 101.9 C-22.1 116.9 -22.1 116.9 -21.5 122.1 C-20.7 128.3 -20.8 134.5 -20.8 140.8 C-20.7 142.1 -20.7 143.4 -20.7 144.8 C-20.7 152.8 -21.5 159.4 -24 167 C-24.3 167 -24.7 167 -25 167 C-25.2 164.5 -25.2 164.5 -26 152 C-26 153 -26 153 -26.2 157.8 C-27.2 171.4 -31.3 184.2 -36.7 196.6 C-40.2 205.6 -40.3 214 -40.4 223.5 C-40.6 232.2 -41.6 240.6 -48 247 C-47.7 245.7 -47.3 244.4 -47 243 C-46.7 237 -46.7 230.9 -48 225 C-48.1 226.6 -48.2 228.1 -48.2 229.8 C-49.5 242.9 -54.4 252 -64 261 C-64.7 260.7 -65.3 260.3 -66 260 C-65 258 -64 256 -63 254 C-65.3 256.3 -67.6 258.6 -70 261 C-70.7 260.7 -71.3 260.3 -72 260 C-71.1 256.3 -69.8 253.4 -68 250 C-67 250 -66 250 -65 250 C-65.2 248.9 -65.4 247.8 -65.6 246.6 C-66.3 238.8 -66.2 232.4 -61 226 C-62 225.7 -63 225.3 -64 225 C-64.9 208.6 -60.9 194.2 -55.5 178.9 C-52.5 170.1 -51.1 161.3 -50 152 C-49.7 152 -49.3 152 -49 152 C-47.9 157.2 -47.9 162.1 -47.9 167.4 C-47.9 169 -48 170.6 -48 172.3 C-48 173.5 -48 174.7 -48 176 C-47.3 175.7 -46.7 175.3 -46 175 C-45.7 172.2 -45.3 169.3 -45 166.5 C-44.8 164.9 -44.6 163.3 -44.4 161.7 C-43.6 152.2 -44.8 144.8 -47.4 135.6 C-56.7 101.2 -56.6 69.9 -39 38 C-33.6 28.7 -26.4 20.7 -18 14 C-17.1 13.1 -16.3 12.3 -15.4 11.4 C-13 9 -13 9 -9 6 C-20.3 7.5 -30.3 16.2 -38 24 C-38.6 24.6 -39.2 25.2 -39.9 25.9 C-44.5 30.8 -47.8 36.3 -51.2 42 C-53 45 -53 45 -56 49 C-54.4 34.7 -42.6 22.5 -32.1 13.6 C-23 6.7 -11.6 0 0 0 Z " fill="#443023" transform="translate(114,212)"/>
<path d="M0 0 C6.3 20 5.1 41.1 4.9 61.9 C4.9 64.9 4.9 68 4.8 71 C4.8 71.9 4.8 72.8 4.8 73.8 C4.8 78.7 5.5 82.4 7 87 C7.2 90.3 7.3 93.4 7.2 96.7 C7.2 97.6 7.2 98.6 7.2 99.5 C7.2 101.5 7.2 103.4 7.2 105.4 C7.2 108.4 7.2 111.3 7.2 114.3 C7.2 116.2 7.2 118.1 7.2 120 C7.2 120.9 7.2 121.8 7.2 122.7 C7.1 127.9 6.7 132.9 6 138 C5.9 140.6 5.8 143.1 5.8 145.7 C5.7 146.3 5.7 146.3 5.7 149.5 C6 153.3 6.7 155 9 158 C11.3 159.7 13.7 161.3 16 163 C18.4 167.8 18.4 170.7 18 176 C16.5 178.8 16.5 178.8 15 181 C10.1 181 5.2 181 0.3 180.9 C-2.2 180.9 -4.7 180.9 -7.2 180.9 C-8.8 180.9 -10.3 180.8 -12 180.8 C-13.4 180.8 -14.8 180.8 -16.3 180.8 C-20 180 -20 180 -22.3 177.2 C-22.9 176.1 -23.4 175.1 -24 174 C-24.5 173.4 -24.5 173.4 -27.1 170.6 C-33.8 162.4 -33.7 154.2 -34 144 C-34 143.1 -34.1 142.3 -34.1 141.4 C-34.4 130.2 -34.1 119.2 -32.8 108.1 C-32.6 107.1 -32.5 106.1 -32.4 105.1 C-31.6 99 -29.9 94.5 -27 89 C-24.4 81.1 -22.9 73.3 -22.6 65 C-21.8 44.3 -14.6 19.8 -6 1 C-4 0 -4 0 0 0 Z " fill="#ECF1EC" transform="translate(406,355)"/>
<path d="M0 0 C51.2 0 102.3 0 155 0 C155 3 155 5.9 155 9 C156.2 14.1 159.9 17.9 163 22 C164.5 25 164.1 27.7 164 31 C163.7 32 163.3 33 163 34 C144.7 34.2 126.4 34.3 108.2 34.4 C99.7 34.5 91.2 34.5 82.7 34.6 C74.5 34.7 66.3 34.7 58.1 34.8 C55 34.8 51.9 34.8 48.7 34.8 C44.4 34.9 40 34.9 35.6 34.9 C35 34.9 35 34.9 31.7 35 C23.1 34.9 23.1 34.9 19.9 32.2 C17.8 29.5 16.3 26.5 14.6 23.4 C13 20.9 11.4 19.5 9.1 17.6 C2.9 12.4 1.2 8.1 0 0 Z " fill="#D4E3D6" transform="translate(193,500)"/>
<path d="M0 0 C0.7 1.3 1.3 2.6 2 4 C2.7 4 3.3 4 4 4 C3.9 4.9 3.7 5.9 3.6 6.9 C3.4 8.2 3.2 9.6 3 11 C2.9 11.8 2.7 12.6 2.6 13.4 C1.6 19.7 2.3 23.5 6 29 C7.3 29.7 8.6 30.3 10 31 C15.1 26 19.7 20.7 24 15 C24.7 15 25.3 15 26 15 C26 12.4 26 9.7 26 7 C26.3 7 26.7 7 27 7 C27.4 23.5 27.4 23.5 25 31 C21.9 40.7 21.5 49.8 21.6 59.9 C21.6 61.3 21.6 62.8 21.6 64.3 C21.6 72.5 22.3 80.1 24.3 88.1 C25 91 25 91 25.4 95.8 C26.7 104.7 31.8 110.3 38.4 116.1 C41.5 119.6 43.4 123.2 45.5 127.2 C46.9 129.7 48.3 132.1 49.9 134.4 C52 138 52 138 51 142 C45.1 144.5 39.4 144.3 33.2 144.2 C32.1 144.3 31.1 144.3 30 144.3 C23.7 144.3 18 143.8 12 142 C9.8 138.7 9.6 137 9.2 133.1 C9.2 132 9.1 131 9 129.9 C9 127 9 127 11 123 C11.7 113.3 11.7 113.3 8 109 C5.7 107.3 3.3 105.7 1 104 C-1.2 99.7 -1.2 97.5 -1.2 92.8 C-1.2 91.5 -1.2 90.2 -1.2 88.9 C-1 85 -1 85 -0.5 81.4 C0 76.6 0.2 71.8 0.2 67 C0.2 66.1 0.2 65.2 0.2 64.2 C0.2 62.3 0.2 60.3 0.2 58.4 C0.2 55.4 0.2 52.4 0.2 49.4 C0.2 47.5 0.2 45.6 0.2 43.7 C0.2 42.8 0.2 41.9 0.3 41 C0.2 36.3 -0.3 32.4 -2 28 C-2.6 18.5 -2.1 9.3 0 0 Z " fill="#63422B" transform="translate(412,408)"/>
<path d="M0 0 C0.3 0 0.7 0 1 0 C1.6 5.7 0.5 9.8 -1.5 15 C-3.8 21.3 -5.6 26.1 -2.9 32.6 C-1.3 36.1 0.2 39.2 3 42 C3.7 44.3 3.7 44.3 4.3 47.2 C4.5 48.3 4.7 49.3 5 50.4 C5.1 50.9 5.1 50.9 5.6 53.6 C5.7 54.2 5.7 54.2 6.3 56.9 C6.9 59.6 7.4 62.3 8 65 C9.7 65.3 11.3 65.7 13 66 C13.3 65.3 13.7 64.7 14 64 C14.7 65 15.3 66 16 67 C17 67 18 67 19 67 C19.7 66 20.3 65 21 64 C22.4 69.4 23.6 74.8 24.9 80.2 C26.4 86.6 28.1 92.9 30.1 99.1 C30.9 101.7 31.6 104.2 32.3 106.8 C34.8 112.9 38.5 117.1 43.7 121.1 C46.8 123.7 48.1 126.4 50 130 C51.4 132.3 52.8 134.6 54.2 136.9 C55 138.1 55.7 139.2 56.4 140.4 C56.9 141.3 57.5 142.1 58 143 C57.3 144.3 56.7 145.6 56 147 C50.6 148.4 45.4 148.2 39.8 148.2 C38.7 148.2 37.6 148.2 36.5 148.2 C30 148.2 24.3 147.7 18 146 C15.4 139.4 14.7 135.1 16 128 C16.3 127.3 16.7 126.7 17 126 C17.4 123.2 17.4 123.2 17 120 C14.4 116.9 11.4 114.5 8.3 111.9 C4.3 108.4 3.1 106.4 2.7 101.1 C2.7 99.4 2.7 97.8 2.6 96.1 C1.9 74.7 -1.2 53.4 -7.6 32.9 C-7.9 32 -8.1 31.1 -8.4 30.2 C-9 28.5 -9.5 26.8 -10.1 25.1 C-12.2 18.4 -13.2 12.2 -10.6 5.5 C-9 3 -9 3 -7 2 C-7 5 -7 7.9 -7 11 C-7.7 11 -8.3 11 -9 11 C-8.3 13 -7.7 15 -7 17 C-4.6 11.4 -2.3 5.7 0 0 Z " fill="#62412B" transform="translate(163,400)"/>
<path d="M0 0 C0.3 0.7 0.7 1.3 1 2 C23.1 2 45.2 2 68 2 C69 5 70 7.9 71 11 C73.4 13.5 73.4 13.5 76.1 15.4 C79.1 17.5 80.9 18.9 83 22 C83.8 27.8 81.4 31.8 79 37 C30 38.2 30 38.2 11 38 C10.7 37.3 10.3 36.6 10 35.9 C9.6 35 9.1 34.1 8.7 33.2 C8.2 32.3 7.8 31.4 7.4 30.5 C5.6 27.3 3.3 24.8 1 22 C-2.3 15 -1.3 7.4 0 0 Z " fill="#D4E3D6" transform="translate(98,498)"/>
<path d="M0 0 C0.3 0 0.7 0 1 0 C1.1 1.1 1.1 2.3 1.2 3.5 C2.1 16.1 4.9 26.1 14.8 34.7 C21.1 38.1 27 39.9 34.1 38.3 C38.7 36.7 41.5 35.5 45 32 C45.7 32 46.3 32 47 32 C47.2 32.8 47.3 33.7 47.5 34.5 C51.2 43 59.1 47.7 67 52 C67 53 67 54 67 55 C67.3 55.7 67.3 55.7 69 59 C69 60 69 61 69 62 C69.9 62 70.9 61.9 71.8 61.9 C75 62 75 62 78 64 C79.6 64 81.3 64 83 64 C83.7 61 84.3 58.1 85 55 C85.7 55.3 86.3 55.7 87 56 C87 57.3 87 58.6 87 60 C87.7 60 88.3 60 89 60 C89.1 58.9 89.2 57.8 89.3 56.7 C90 53 90 53 93 50 C96.2 49.8 96.2 49.8 99 50 C99.3 50.7 99.7 51.3 100 52 C99 52 98 52 97 52 C97.3 53 97.3 53 99 58 C100 58 101 58 102 58 C102.3 59 102.7 60 103 61 C103.7 61.3 104.3 61.7 105 62 C104.5 60.9 104 59.9 103.5 58.8 C102 55 102 55 102 51 C105.2 52.6 105.7 55.8 107 59 C108.1 58.5 109.2 58 110.3 57.5 C114 56 114 56 117 56 C117 54.3 117 52.7 117 51 C117.7 50.7 118.3 50.3 119 50 C120 56.9 120.2 60.6 117 67 C116.5 68.7 116.1 70.4 115.6 72.1 C114.3 76.7 112.6 79.7 109 83 C105.6 84.2 105.6 84.2 102 85 C101.1 85.5 100.1 86.1 99.2 86.6 C93.9 88.9 88.9 88.8 83.5 87.3 C80.1 85.9 77.5 84.6 75.1 81.8 C74.2 79.5 73.4 77.3 72.6 75 C69.3 66.7 63.8 63.8 56.4 59.6 C49.7 55.9 43.4 52 37.3 47.4 C33.6 45.1 30.3 45.1 26 45 C24.4 49.4 23.5 53.7 22.9 58.4 C22.7 59.6 22.5 60.9 22.4 62.1 C22.2 63.1 22.1 64 22 65 C20.7 65 19.4 65 18 65 C4 40.9 4 40.9 1.6 29 C1 26 1 26 -0.1 23.2 C-1.3 19 -1.2 15.1 -1.2 10.8 C-1.2 9.2 -1.2 7.6 -1.2 5.9 C-1 2 -1 2 0 0 Z " fill="#8F572C" transform="translate(460,115)"/>
<path d="M0 0 C1 4 1 4 -0.8 7.6 C-3.4 12.8 -4.1 17.3 -4.8 23.1 C-4.9 24.1 -5 25.1 -5.1 26.2 C-6.2 36.3 -6.4 46.3 -6.1 56.4 C-6 58.8 -6 61.2 -5.9 63.6 C-5.6 75.3 -2.7 82.2 5.2 90.7 C8.3 94.6 10.3 99.2 12.4 103.7 C14 107 14 107 15.8 109.7 C17 112 17 112 16 116 C10.3 118.4 4.9 118.3 -1.1 118.3 C-1.6 118.3 -1.6 118.3 -4.2 118.3 C-11.6 118.2 -18 117.3 -25 115 C-28 101 -28 101 -25 95.1 C-22.8 90.7 -22.2 88.8 -23 84 C-25.2 79.9 -27.7 76.3 -31 73 C-32.1 68.8 -32.2 65.3 -32 61 C-31.3 60.3 -30.7 59.7 -30 59 C-29.3 59.7 -28.7 60.3 -28 61 C-27.3 60.7 -26.5 60.4 -25.8 60.1 C-24.8 59.7 -23.8 59.3 -22.8 58.9 C-21.8 58.6 -20.9 58.2 -19.9 57.8 C-16.8 56.9 -15.1 57.1 -12 58 C-12.3 59 -12.7 60 -13 61 C-13 60.3 -13 59.7 -13 59 C-14.3 59 -15.6 59 -17 59 C-17 60 -17 61 -17 62 C-17.7 62 -18.3 62 -19 62 C-19.3 63 -19.7 64 -20 65 C-20.7 65 -21.3 65 -22 65 C-23.7 65.6 -25.3 66.3 -27 67 C-26.3 67.7 -25.7 68.3 -25 69 C-23.4 68.7 -21.8 68.4 -20.2 68.1 C-19.3 68 -18.4 67.8 -17.5 67.6 C-15 67 -15 67 -12 65 C-11.8 57.4 -11.8 57.4 -14 54 C-15 54.2 -15 54.2 -20 55 C-19.6 53 -19.1 51 -18.6 49.1 C-18.4 48 -18.1 46.9 -17.9 45.7 C-17.6 44.8 -17.3 43.9 -17 43 C-16.7 42.8 -16.7 42.8 -15 42 C-14.5 39.6 -13.9 37.2 -13.5 34.7 C-13.1 32.3 -12.5 29.9 -11.9 27.6 C-9.1 13.8 -9.1 13.8 -11.4 9 C-12 8.3 -12.5 7.7 -13 7 C-13 6 -13 5 -13 4 C-11.7 4 -10.4 4 -9 4 C-9 3.3 -9 2.7 -9 2 C-5.7 1.2 -4.3 0.9 -1 2 C-0.7 1.3 -0.3 0.7 0 0 Z " fill="#67442C" transform="translate(379,440)"/>
<path d="M0 0 C4.8 2.4 5.7 4.3 8 9 C9.9 16.5 8.8 23.2 6.9 30.6 C6.7 31.5 6.5 32.4 6.3 33.4 C3.9 42.9 0.9 52.2 -2.1 61.5 C-3.1 64.4 -4 67.2 -4.9 70 C-5.5 71.9 -6.1 73.7 -6.7 75.6 C-7 76.4 -7.3 77.2 -7.5 78.1 C-12.1 91.7 -12.1 91.7 -17 95 C-21 94 -21 94 -22 93 C-24 73.3 -24 53.3 -24.2 33.5 C-24.2 32.5 -24.2 31.6 -24.2 30.6 C-24.2 24.5 -24.2 18.8 -20.3 13.8 C-14 8.5 -7.2 4.2 0 0 Z " fill="#9E602F" transform="translate(389,324)"/>
<path d="M0 0 C0.7 5.4 -1.1 8.7 -3.6 13.3 C-5 16 -6.1 18.7 -7.1 21.5 C-11.9 33.1 -19.2 43.9 -26.6 54 C-29.8 58.6 -31.3 61.8 -31.9 67.5 C-32.5 72 -32.7 73.7 -35.6 77.3 C-36.4 77.9 -37.2 78.4 -38 79 C-38.2 71.9 -37.6 65.9 -36 59 C-36.5 59.7 -37 60.4 -37.6 61 C-38.3 61.9 -39 62.8 -39.7 63.8 C-40.4 64.6 -41.1 65.5 -41.8 66.4 C-44 69 -46.2 71.1 -49 73 C-51.8 72.9 -51.8 72.9 -54 72 C-56.2 67.7 -55.4 62.3 -54 57.8 C-52.8 53.4 -52.4 49.2 -52.1 44.7 C-51.1 34.3 -49.9 24.7 -42 17 C-31.5 9 -31.5 9 -28 9 C-27.7 9.7 -27.3 10.3 -27 11 C-26.3 10.7 -25.7 10.3 -25 10 C-24.7 8.7 -24.3 7.4 -24 6 C-22.7 6.3 -21.4 6.7 -20 7 C-19 6.3 -18 5.7 -17 5 C-16.3 5.7 -15.7 6.3 -15 7 C-16.7 8.3 -18.3 9.6 -20 11 C-19.2 11.2 -19.2 11.2 -15 12 C-14.7 11.3 -14.3 10.7 -14 10 C-13 10.3 -12 10.7 -11 11 C-8.3 10.1 -8.3 10.1 -6 9 C-6 8 -6 7 -6 6 C-7.3 6 -8.6 6 -10 6 C-10 5.3 -10 4.7 -10 4 C-9.3 3.7 -8.7 3.3 -8 3 C-8 2.3 -8 1.7 -8 1 C-1.1 0 -1.1 0 0 0 Z " fill="#80512E" transform="translate(219,348)"/>
<path d="M0 0 C0.7 0 1.3 0 2 0 C2.3 10.4 1.9 18.6 -3 28 C-3 31 -3 31 -1.4 32.6 C-0.7 33.2 0 33.7 0.8 34.3 C4.2 37.2 6.7 40.1 9 44 C8.8 44.3 8.8 44.3 8 46 C6.4 44 4.7 42 3 40 C10.1 54.2 10.1 54.2 16 58 C11.7 58.2 10 58 6 56 C6 56.7 6 57.3 6 58 C0.1 57.7 -2.8 55 -7 51 C-7.7 51.7 -8.3 52.3 -9 53 C-9 54 -9 55 -9 56 C-8.3 56 -7.7 56 -7 56 C-6.3 58.3 -5.7 60.6 -5 63 C-5.9 62.4 -6.9 61.8 -7.9 61.2 C-11 59.5 -13.6 58.4 -16.9 57.2 C-22.5 55.1 -26.4 51.7 -30 47 C-30 46.3 -30 45.7 -30 45 C-31.2 46.1 -32.5 47.1 -33.8 48.2 C-39 52.3 -44.5 54.6 -51 56 C-51.7 55.7 -52.3 55.3 -53 55 C-51.9 53.8 -50.8 52.6 -49.7 51.3 C-45.9 47 -43.4 43.6 -42 38 C-44 38.7 -46 39.3 -48 40 C-47.2 39.3 -46.5 38.5 -45.7 37.8 C-43 35 -43 35 -40 31 C-39.3 31 -38.7 31 -38 31 C-36.2 27.4 -34.6 23.7 -33 20 C-32.5 20 -32.5 20 -30.2 20.2 C-20.2 20.8 -20.2 20.8 -16.7 18.6 C-15 16.8 -13.5 14.9 -12 13 C-11 12.2 -10 11.4 -8.9 10.6 C-6.4 8.3 -4.7 6.4 -2.8 3.7 C-1.8 2.5 -0.9 1.3 0 0 Z " fill="#64422B" transform="translate(533,30)"/>
<path d="M0 0 C1 0 2 0 3 0 C3 0.7 3 0.7 2.8 4 C2.6 8.9 2.4 13.8 2.1 18.7 C2 20.9 2 23 1.9 25.1 C1.7 28.2 1.6 31.2 1.4 34.3 C1.4 34.7 1.4 34.7 1.3 37.1 C0.4 57.6 0.4 57.6 7.5 65.9 C10.2 69.3 11.5 72.3 13 76.3 C14.4 80 16.2 83.4 18 86.9 C19 89 19 89 19 92 C6.9 97.2 -7.6 96.4 -20 92 C-23.4 88.6 -23.2 84.2 -23.3 79.6 C-23.3 75.6 -23.1 74.2 -21 70.6 C-18.1 65.4 -18 60.8 -19 55 C-20.4 52.5 -21.9 50.5 -23.7 48.2 C-26 44.3 -25.4 40.5 -25 36 C-24.7 35.8 -24.7 35.8 -23 35 C-23 35.7 -23 36.3 -23 37 C-22 37.3 -21 37.7 -20 38 C-20.7 38 -21.3 38 -22 38 C-21 41.4 -20.4 42.8 -17.4 44.8 C-17 45 -17 45 -15 46 C-14.7 45.3 -14.3 44.7 -14 44 C-13 43.5 -12 43.1 -11 42.6 C-10 42.1 -9 41.6 -8 41 C-7.7 39.7 -7.3 38.4 -7 37 C-6 36 -5 35 -4 34 C-3.6 31.3 -3.6 31.3 -3.5 28.1 C-3.2 21.7 -2.4 15.4 -1.4 9.1 C-1.3 8.2 -1.2 7.3 -1 6.4 C-0.7 4.3 -0.3 2.1 0 0 Z " fill="#66442C" transform="translate(97,460)"/>
<path d="M0 0 C5 2.9 9.4 6.5 14 10 C15.7 11.3 17.5 12.5 19.2 13.8 C19.6 14 19.6 14 21.6 15.4 C25 17.6 28.5 19.6 32.1 21.4 C34 23 34 23 34.8 25.7 C34.9 26.4 34.9 27.2 35 28 C33.7 27.3 32.4 26.7 31 26 C24.8 28.4 19.9 32.2 14.6 36.2 C12.1 37.9 9.9 39.1 7 40 C6 39.7 5 39.3 4 39 C3.8 39.3 3.8 39.3 3 41 C2 41 1 41 0 41 C-0.3 41.7 -0.7 42.3 -1 43 C-3 42 -3 42 -4 41 C-4.7 41.2 -5.4 41.4 -6.2 41.6 C-9.1 42 -11.1 41.7 -14 41 C-13.7 42.3 -13.3 43.6 -13 45 C-13.8 45.2 -13.8 45.2 -18 46 C-18.3 45.7 -18.7 45.3 -19 45 C-20.3 45 -21.6 45 -23 45 C-25 44 -25 44 -25.8 41.8 C-26.1 40.8 -26.3 39.9 -26.6 39 C-27.9 34.1 -27.9 34.1 -29 33 C-29.4 29.4 -29.5 27.6 -27.3 24.7 C-26.5 23.9 -25.8 23.2 -25 22.4 C-12 8.9 -12 8.9 -12 1 C-7.7 -0.4 -4.4 -1.1 0 0 Z " fill="#62412A" transform="translate(189,312)"/>
<path d="M0 0 C0.1 0.7 0.1 0.7 0.3 4.2 C1.2 10.7 1.2 10.7 4 14 C6.3 15.7 8.7 17.3 11 19 C13.4 23.8 13.4 26.7 13 32 C11.5 34.8 11.5 34.8 10 37 C5.1 37 0.2 37 -4.7 36.9 C-7.2 36.9 -9.7 36.9 -12.2 36.9 C-13.8 36.9 -15.3 36.8 -17 36.8 C-18.4 36.8 -19.8 36.8 -21.3 36.8 C-25 36 -25 36 -27.3 33.2 C-27.9 32.1 -28.4 31.1 -29 30 C-30 28.9 -31 27.7 -32.1 26.6 C-37.1 20.4 -38.1 16.2 -38.1 8.2 C-38.1 6.9 -38.1 5.5 -38 4.1 C-38 3.1 -38 2.1 -38 1 C-32.7 0.9 -27.5 0.7 -22.2 0.6 C-20.5 0.5 -18.7 0.5 -16.9 0.4 C-14.3 0.4 -11.8 0.3 -9.2 0.2 C-7.6 0.2 -6.1 0.1 -4.5 0.1 C-1 0 -1 0 0 0 Z " fill="#D4E3D5" transform="translate(411,499)"/>
<path d="M0 0 C0.3 0 0.7 0 1 0 C1.4 2.9 1.7 5.7 2.1 8.6 C2.3 10.2 2.5 11.8 2.7 13.5 C2.9 17.3 2.9 20.3 2 24 C4.3 24 6.5 24 8.8 24.1 C9.4 24.1 9.4 24.1 12.6 24.1 C16 24 16 24 19 23 C18.3 22.7 17.7 22.3 17 22 C18.6 18.8 21.8 18.3 25 17 C25.7 16.7 26.3 16.3 27 16 C27.1 18.7 27.1 21.4 27.1 24.1 C27.1 25.6 27.2 27.1 27.2 28.6 C27 32.8 26.3 36.1 25 40 C24.3 40 23.7 40 23 40 C22.7 41 22.3 42 22 43 C19.4 42.7 16.7 42.3 14 42 C14.3 43 14.7 44 15 45 C13.4 44.7 11.7 44.3 10 44 C10.7 45.2 11.4 46.3 12.1 47.5 C16.9 58.2 11.6 71.5 8 82 C7.6 83.3 7.3 84.6 6.9 86 C6.1 88.8 5.1 91.4 4 94 C4.8 93.8 4.8 93.8 9 93 C12.5 97.6 12.3 99.4 12 105 C7.4 108.6 3.8 109.6 -2 110 C-3 108.7 -4 107.4 -5 106 C2.6 103.1 2.6 103.1 6 102 C6 101 6 100 6 99 C6.8 98.8 6.8 98.8 11 98 C5.9 98 3.6 99 -1 101 C-3.9 101.7 -3.9 101.7 -6 102 C-8.8 97.1 -7.6 93.6 -6.3 88.3 C-4.5 80 -3.2 71.7 -2.2 63.3 C-2.1 62.2 -1.9 61.1 -1.8 60 C-1 52.9 -1 46.5 -2.6 39.5 C-3.5 34.3 -3.4 29.4 -2 24.4 C-0.8 19.4 -0.6 14.6 -0.4 9.5 C-0.3 8.6 -0.3 7.7 -0.3 6.7 C-0.2 4.5 -0.1 2.2 0 0 Z " fill="#7A4B2B" transform="translate(356,400)"/>
<path d="M0 0 C0.7 0 1.3 0 2 0 C1 17.8 -5.6 34.6 -11.5 51.2 C-14.2 59.1 -16.1 66.7 -17 75 C-17.7 75.2 -17.7 75.2 -21 76 C-22.1 78.3 -23.1 80.6 -24 83 C-25 84 -26 85 -27 86 C-31.9 84.2 -31.9 84.2 -33 82 C-33.7 70.8 -32.8 59.8 -31.6 48.6 C-31.5 47.5 -31.4 46.3 -31.2 45.1 C-30.1 35.6 -28.3 30.9 -21.3 24.2 C-13.5 16.6 -6.5 8.7 0 0 Z " fill="#8A552B" transform="translate(457,335)"/>
<path d="M0 0 C0.7 0.3 1.3 0.7 2 1 C-0.2 9.2 -2.7 17.1 -6 25 C-5.3 25 -4.7 25 -4 25 C-4.6 28.6 -5.1 32.2 -5.8 35.8 C-5.9 36.8 -6.1 37.9 -6.2 38.9 C-6.4 39.9 -6.6 40.9 -6.7 41.9 C-6.9 42.8 -7 43.7 -7.2 44.6 C-8 47 -8 47 -12 50 C-12.7 52.5 -12.7 52.5 -13 55.5 C-13.1 56.6 -13.2 57.6 -13.4 58.8 C-13.5 59.9 -13.6 61 -13.7 62.2 C-13.8 63.3 -13.9 64.4 -14 65.6 C-14.3 67.7 -14.5 69.9 -14.7 72 C-15.1 75.7 -15.5 79.4 -16 83 C-17 83 -18 83 -19 83 C-19.3 84.3 -19.7 85.6 -20 87 C-22.2 89 -24.3 90.7 -27 92 C-29.6 90.5 -31.8 89.2 -34 87 C-34.4 85.3 -34.7 83.7 -35 82 C-35.3 80.7 -35.7 79.4 -36 78 C-35.3 74.6 -34.6 71.2 -33.7 67.8 C-33.2 66 -32.8 64.2 -32.3 62.3 C-32.1 61.4 -31.9 60.6 -31.6 59.6 C-31 57.1 -30.4 54.5 -29.9 51.9 C-29 48 -29 48 -28 47 C-27.6 44.7 -27.3 42.3 -27 40 C-26.3 40 -25.7 40 -25 40 C-24.7 33.4 -24.3 26.8 -24 20 C-21.1 24.3 -21.4 27.9 -21 33 C-19 32.4 -17 31.7 -15 31 C-14 29 -14 29 -14 26 C-14.3 25 -14.7 24 -15 23 C-15.6 19.8 -15.6 19.8 -15 16 C-12.9 13.9 -10.7 12.3 -8.3 10.6 C-4.2 7.7 -2.2 4.4 0 0 Z " fill="#7A4A2A" transform="translate(109,415)"/>
<path d="M0 0 C0.7 0.7 1.3 1.3 2 2 C1.4 3.1 0.8 4.1 0.2 5.2 C-7.3 20.7 -7.5 41.1 -2.1 57.3 C-1 60 -1 60 0.2 62.4 C2.9 71.1 -0.9 82.4 -4.6 90.4 C-7.7 96.1 -10.9 101.1 -17 104 C-15.9 100.1 -14.7 96.2 -13.4 92.4 C-12.4 89.2 -11.5 86.3 -11 83 C-11.5 83.2 -11.5 83.2 -14 84 C-14.3 81 -14.7 78.1 -15 75 C-19.7 84.6 -22.1 93.3 -23 104 C-24 104 -25 104 -26 104 C-26.3 105.3 -26.5 106.6 -26.8 107.9 C-28.3 114.6 -29.8 120.5 -34 126 C-34.7 126 -35.3 126 -36 126 C-35.7 125.2 -35.5 124.5 -35.2 123.7 C-34.8 122.5 -34.4 121.3 -34 120 C-33.7 119.3 -33.5 118.5 -33.2 117.8 C-30.9 110.5 -30.8 103.9 -30.9 96.4 C-31.1 86.9 -31.1 77.7 -27 69 C-26.3 69 -25.7 69 -25 69 C-24.7 68.7 -24.7 68.7 -23 67 C-23.5 71.9 -24.3 76.3 -26 81 C-25.3 81 -24.7 81 -24 81 C-23.9 80.6 -23.9 80.6 -23.2 78.5 C-22 75 -22 75 -20.2 71.4 C-16.9 64.7 -14.2 57.8 -11.9 50.7 C-11 48 -11 48 -10 47 C-10 44.1 -10.1 41.3 -10.2 38.4 C-10.4 24.4 -7 12.3 0 0 Z " fill="#463327" transform="translate(407,93)"/>
<path d="M0 0 C0.9 0.1 1.9 0.1 2.8 0.2 C3.1 0.8 3.5 1.5 3.8 2.2 C2.8 2.2 1.8 2.2 0.8 2.2 C1.5 4.2 2.1 6.1 2.8 8.2 C3.8 8.2 4.8 8.2 5.8 8.2 C6 8.7 6 8.7 6.8 11.2 C7.5 11.5 8.1 11.8 8.8 12.2 C8.3 11.1 7.8 10 7.3 8.9 C5.8 5.2 5.8 5.2 5.8 1.2 C9.1 2.8 9.5 5.9 10.8 9.2 C11.9 8.7 13 8.2 14.1 7.7 C17.8 6.2 17.8 6.2 20.8 6.2 C20.8 4.5 20.8 2.9 20.8 1.2 C21.5 0.9 22.1 0.5 22.8 0.2 C23.9 7.1 24 10.8 20.8 17.2 C20.3 18.9 19.9 20.6 19.4 22.2 C18.1 26.9 16.4 29.9 12.8 33.2 C9.4 34.4 9.4 34.4 5.8 35.2 C4.9 35.7 4 36.3 3 36.8 C-2.2 39.1 -7.3 39 -12.7 37.5 C-16.1 36.1 -18.7 34.8 -21.1 31.9 C-26.6 18.4 -26.6 18.4 -25.2 14.2 C-23 14.2 -23 14.2 -20.2 15.2 C-15.2 21.3 -15.2 21.3 -15.2 24.2 C-14 24 -14 24 -8.2 23.2 C-8.2 20.3 -9.2 18.1 -10.2 15.4 C-11.3 11.9 -11.3 8.9 -11.2 5.2 C-10.5 5.5 -9.9 5.8 -9.2 6.2 C-9.2 7.5 -9.2 8.8 -9.2 10.2 C-8.5 10.2 -7.9 10.2 -7.2 10.2 C-7.1 9.1 -7 8 -6.9 6.9 C-6 2.2 -4.9 0.3 0 0 Z " fill="#553E2D" transform="translate(556.1875,164.8125)"/>
<path d="M0 0 C8.6 11.5 11.2 21.8 12 36 C7 37.3 2 37.2 -3.1 37.2 C-3.6 37.2 -3.6 37.2 -6.2 37.2 C-9.4 37.2 -12.6 37.2 -15.8 37.2 C-16.9 37.3 -18 37.3 -19.1 37.3 C-58.5 37.3 -58.5 37.3 -67 33 C-67 32.3 -67 31.7 -67 31 C-65.4 31 -63.8 30.9 -62.1 30.9 C-18.4 29.7 -18.4 29.7 -4.5 16.3 C-1.4 11.4 -0.7 5.6 0 0 Z " fill="#784628" transform="translate(340,320)"/>
<path d="M0 0 C0.5 1 0.9 1.9 1.4 2.9 C2 4.1 2.7 5.4 3.3 6.7 C3.6 7.3 3.6 7.3 5.2 10.4 C7 14 7 14 8.8 16.7 C10 19 10 19 9 23 C3.3 25.4 -2.1 25.3 -8.1 25.3 C-8.6 25.3 -8.6 25.3 -11.2 25.3 C-18.6 25.2 -25 24.3 -32 22 C-33.1 16.8 -34 12.4 -34 7 C-33.7 8 -33.3 9 -33 10 C-31.9 9.4 -30.9 8.9 -29.8 8.3 C-19.5 3 -11.8 -0.4 0 0 Z " fill="#4A3A2F" transform="translate(386,533)"/>
<path d="M0 0 C0.6 1.4 1.1 2.9 1.7 4.4 C3.5 9 5.7 13.4 8 17.9 C9 20 9 20 9 23 C-3.1 28.2 -17.6 27.4 -30 23 C-33.5 19.5 -33 16 -33.1 11.2 C-33 9.8 -33 8.4 -33 7 C-32.3 7.7 -31.7 8.3 -31 9 C-30.2 8.6 -29.4 8.2 -28.5 7.8 C-14.5 0.7 -14.5 0.7 -8.4 0.4 C-7.8 0.3 -7.8 0.3 -4.9 0.1 C-3.3 0.1 -1.6 0 0 0 Z " fill="#4E3D30" transform="translate(107,529)"/>
<path d="M0 0 C0.7 0 1.3 0 2 0 C0.9 5.1 -0.2 10.1 -2 15 C-1.7 14.8 -1.7 14.8 -0.2 13.8 C9.1 8.1 17 4.6 28 4 C28.4 4.7 28.8 5.4 29.1 6.1 C31.6 10.7 34 15.1 36.9 19.4 C39 23 39 23 38 27 C32.1 29.5 26.4 29.3 20.2 29.2 C19.1 29.3 18.1 29.3 17 29.3 C10.7 29.3 5 28.8 -1 27 C-4.1 22.4 -4.1 17.5 -4 12 C-2.6 8.6 -2.6 8.6 -1 6 C-0.3 2.6 -0.3 2.6 0 0 Z " fill="#4C3C2F" transform="translate(425,523)"/>
<path d="M0 0 C1.4 2.2 2.9 4.5 4.3 6.7 C5.1 7.9 5.9 9.2 6.7 10.4 C8.5 13.3 10.3 16.1 12 19 C11.3 20.3 10.7 21.6 10 23 C4.6 24.4 -0.6 24.2 -6.2 24.2 C-7.3 24.2 -8.4 24.2 -9.5 24.2 C-16 24.2 -21.7 23.7 -28 22 C-31.1 13.5 -31.1 13.5 -30 9 C-29.7 9.7 -29.3 10.3 -29 11 C-28.3 11 -27.7 11 -27 11 C-27 10.3 -27 9.7 -27 9 C-10.1 0 -10.1 0 0 0 Z " fill="#4A3A2E" transform="translate(209,524)"/>
<path d="M0 0 C9.8 19.6 12.7 48.7 6.2 69.6 C5.8 70.7 5.4 71.8 5 73 C4.8 73.5 4.8 73.5 3.9 76.1 C0.9 84 -3.4 91 -8 98 C-9 98 -10 98 -11 98 C-10.5 94.9 -9.7 92 -8.8 89 C-5.6 77.8 -4.2 67.7 -4 56 C-2 59.9 -1.7 62 -1.4 66.2 C-1.3 67.3 -1.2 68.4 -1.1 69.5 C-1.1 70.3 -1.1 71.2 -1 72 C1.5 64.4 1.3 57 1.2 49 C1.2 48.3 1.2 48.3 1.2 45 C1.2 38.5 0.8 32.4 0 26 C-0.1 21.5 -0.1 17 -0.1 12.5 C-0.1 11.9 -0.1 11.9 -0 8.9 C-0 5.9 -0 3 0 0 Z " fill="#E4E8DF" transform="translate(91,304)"/>
<path d="M0 0 C0.3 0 0.7 0 1 0 C1.1 1.4 1.3 2.9 1.4 4.4 C2 9 2 9 3 11 C2.1 14 1.1 17 0 20 C-0.7 18.7 -1.3 17.4 -2 16 C-5.1 22.3 -5.5 30 -5 37 C-3.6 38.4 -2.2 39.8 -0.8 41.1 C1.9 43.9 4.5 46.9 7.1 49.8 C8.4 51.3 9.7 52.7 11 54.1 C19.6 63.4 25.9 73.9 30 86 C29.7 86.7 29.3 87.3 29 88 C28.2 87 27.3 86 26.4 85 C16.1 73 16.1 73 11.8 68.9 C3.9 61.1 -3.7 51.8 -7 41 C-7 39.3 -7 37.7 -7 36 C-7.7 36.2 -7.7 36.2 -11 37 C-11.7 39 -12.3 41 -13 43 C-14 39.2 -14 37.6 -13.2 33.9 C-13.1 33 -12.9 32.1 -12.8 31.2 C-12 29 -12 29 -9 27 C-8.5 24.7 -8.5 24.7 -8.2 21.8 C-7.2 15 -5 5 0 0 Z " fill="#8B552A" transform="translate(392,167)"/>
<path d="M0 0 C0.3 0 0.7 0 1 0 C0.9 3.8 0.9 7.6 0.8 11.4 C0.7 11.9 0.7 11.9 0.7 14.6 C0.4 25.5 -3 33 -9 42.1 C-16.1 53 -19.1 60.9 -19.5 73.8 C-19.8 80.7 -19.8 80.7 -22 84 C-22.1 82.7 -22.3 81.3 -22.4 79.9 C-22.9 75.9 -23.4 72 -24 68 C-24 67.7 -24 67.3 -24 67 C-24.3 66.7 -24.7 66.3 -25 66 C-26.5 50.7 -22.6 36.6 -14 24 C-13.3 24 -12.7 24 -12 24 C-12.3 27.3 -12.7 30.6 -13 34 C-12.3 34 -11.7 34 -11 34 C-10.7 32.3 -10.3 30.7 -10 29 C-9.3 29.3 -8.7 29.7 -8 30 C-4.9 21.5 -2.5 13.5 -1.4 4.5 C-1 2 -1 2 0 0 Z " fill="#443022" transform="translate(435,86)"/>
<path d="M0 0 C0.3 0 0.7 0 1 0 C1.1 1.2 1.2 2.4 1.3 3.6 C2.6 16.4 3.9 26.3 13 36 C16.7 38.8 18.5 39.6 22.8 40.7 C23.2 40.8 23.2 40.8 25.7 41.4 C26.5 41.6 27.2 41.8 28 42 C28 42.7 28 43.3 28 44 C27.7 44.2 27.7 44.2 26 45 C24.2 49.4 23.5 53.7 22.9 58.4 C22.7 59.6 22.5 60.9 22.4 62.1 C22.2 63.1 22.1 64 22 65 C20.7 65 19.4 65 18 65 C4 40.9 4 40.9 1.6 29 C1 26 1 26 -0.1 23.2 C-1.3 19 -1.2 15.1 -1.2 10.8 C-1.2 9.2 -1.2 7.6 -1.2 5.9 C-1 2 -1 2 0 0 Z " fill="#7A4728" transform="translate(460,115)"/>
<path d="M0 0 C0.7 0 1.3 0 2 0 C-0.7 8.3 -0.7 8.3 -2.1 11.7 C-4.6 18.2 -5.6 24 -6 31 C3.3 33.9 12.2 35.5 22 34.7 C28.2 31.2 29.8 23.8 31.8 17.4 C32.2 15.9 32.6 14.5 33 13 C33.7 13 34.3 13 35 13 C35.3 11.3 35.7 9.7 36 8 C37 8 38 8 39 8 C38.6 8.9 38.2 9.9 37.9 10.9 C33.9 21.1 30.8 31.4 28 42 C14.6 42.7 1.3 40.7 -12 39 C-15 26.5 -5.5 11 0 0 Z " fill="#8B542A" transform="translate(303,215)"/>
<path d="M0 0 C3 1 3 1 6 3 C6.3 2 6.7 1 7 0 C7.1 0.8 7.1 1.5 7.2 2.3 C9.6 28.4 9.6 28.4 12.1 40.1 C16.3 59.5 16.3 59.5 13 68 C13.7 68 14.3 68 15 68 C15.2 72.9 15.2 75.6 13 80 C12.9 79 12.8 77.9 12.7 76.9 C11.8 67.7 10.1 59.3 7.4 50.4 C5.4 43.9 3.7 37.3 2 30.7 C1 27 1 27 0 26 C-0.9 17.2 -1.2 8.7 0 0 Z " fill="#4B3B30" transform="translate(66,301)"/>
<path d="M0 0 C3.3 3.3 2.9 7.2 3.2 11.8 C2.7 21 -0.5 27.7 -6 35 C-6.8 36.1 -7.5 37.1 -8.3 38.2 C-11.7 41.8 -15.5 44.8 -20 47 C-21 46.7 -22 46.3 -23 46 C-24.2 41.1 -23.5 40.3 -21 36 C-19.1 33.5 -17.2 31.1 -15.3 28.7 C-8.5 20 -3.5 10.5 0 0 Z " fill="#9D6030" transform="translate(449,278)"/>
<path d="M0 0 C0.7 0 1.3 0 2 0 C2.7 5.5 3.3 11 4 16.6 C4.2 18.1 4.4 19.6 4.6 21.2 C7.7 47.8 7.7 47.8 3 60 C2.3 60.7 1.7 61.3 1 62 C-0.2 54.3 -1.3 46.8 -1 39 C-2.3 39 -3.6 39 -5 39 C-5.1 29.6 -5.1 29.6 -4.5 26.6 C-3.9 23.3 -3.8 20.1 -3.6 16.8 C-3.3 10.6 -2.3 5.7 0 0 Z " fill="#9B5E2F" transform="translate(359,350)"/>
<path d="M0 0 C1 0.2 1 0.2 6 1 C6 1.7 6 2.3 6 3 C5 3 4 3 3 3 C4.5 16.1 8.3 24.1 18 33 C17.7 33.2 17.7 33.2 16 34 C9.4 30.5 5.3 24.6 2 18 C1.5 18.8 1 19.7 0.5 20.6 C-4.4 27.3 -9.8 31.7 -18 34 C-18.7 33.7 -19.3 33.3 -20 33 C-18.9 31.8 -17.8 30.6 -16.7 29.3 C-12.9 25 -10.4 21.6 -9 16 C-11 16.7 -13 17.3 -15 18 C-14.2 17.3 -13.5 16.5 -12.7 15.8 C-10 13 -10 13 -7 9 C-6.3 9 -5.7 9 -5 9 C-4.3 7.7 -3.7 6.4 -3 5 C-2 3.3 -1 1.7 0 0 Z " fill="#513827" transform="translate(500,52)"/>
<path d="M0 0 C0.7 0.3 1.3 0.7 2 1 C1 2.1 0.1 3.3 -0.9 4.4 C-11.5 18.1 -19.3 35.7 -21 53 C7.2 56.4 7.2 56.4 19 57 C19.1 56.4 19.1 56.4 19.7 53.6 C21.8 43.7 24.3 34.4 28 25 C29 25 30 25 31 25 C30.6 26.2 30.2 27.4 29.8 28.6 C26.9 37.8 24.1 47 21.8 56.3 C21 59 21 59 20 60 C16.8 60 13.7 59.9 10.6 59.7 C9.6 59.6 8.7 59.6 7.7 59.5 C-16.4 58.2 -16.4 58.2 -25 55 C-23.2 35.4 -13.9 13.9 0 0 Z " fill="#AD8560" transform="translate(312,200)"/>
<path d="M0 0 C0.3 0 0.7 0 1 0 C1.1 1.4 1.2 2.8 1.4 4.2 C1.5 6.1 1.7 8 1.9 9.9 C2 10.8 2 11.7 2.1 12.7 C2.7 18.9 3.7 24.9 5 31 C5.2 34.5 5.2 34.5 5 37 C4.3 37.7 3.7 38.3 3 39 C3 34.7 3 30.4 3 26 C2.3 26 1.7 26 1 26 C0.9 27.3 0.7 28.6 0.6 29.9 C-1.2 37.7 -7.3 42.9 -13.4 47.7 C-14.2 48.1 -15.1 48.6 -16 49 C-17 48.7 -18 48.3 -19 48 C-18.4 47.4 -17.9 46.7 -17.3 46.1 C-11.5 38.4 -8.9 31.3 -7 22 C-6 22 -5 22 -4 22 C-4 21 -4 20 -4 19 C-4.3 18.7 -4.7 18.3 -5 18 C-5.2 13.1 -5.2 10.5 -3 6 C-2.3 6.3 -1.7 6.7 -1 7 C-0.7 4.7 -0.3 2.4 0 0 Z " fill="#443124" transform="translate(367,172)"/>
<path d="M0 0 C1.4 4.3 -0.1 6.6 -1.7 10.9 C-10.1 34 -11.6 52.4 -10 77 C-12 73 -12.8 69.7 -13.6 65.2 C-13.9 63.9 -14.1 62.5 -14.4 61.1 C-14.6 60.1 -14.8 59.1 -15 58 C-15.3 61.6 -15.7 65.3 -16 69 C-19.6 65.4 -19 60.4 -19.2 55.6 C-19.2 47.6 -18.4 37.7 -14 31 C-13.6 29.8 -13.3 28.6 -12.9 27.3 C-10.5 19.8 -6.6 13 -3 6 C-2 4 -1 2 0 0 Z " fill="#473325" transform="translate(45,353)"/>
<path d="M0 0 C0.3 0 0.7 0 1 0 C3.2 13.4 0.3 25.7 -5 38 C-5.7 40.7 -5.7 40.7 -6.1 43.3 C-6.6 46.8 -7.3 50.1 -8.1 53.6 C-9.4 59.9 -9.5 66.4 -9.8 72.9 C-9.9 76.1 -10.3 78.9 -11 82 C-12 82 -13 82 -14 82 C-13.3 82.3 -12.7 82.7 -12 83 C-11.8 87.9 -11.8 91.6 -14 96 C-14.7 95.7 -15.3 95.3 -16 95 C-15.9 92.6 -15.9 90.2 -15.8 87.9 C-15.7 86.6 -15.7 85.2 -15.6 83.9 C-14.9 79.6 -13.6 77.4 -11 74 C-12 73.7 -13 73.3 -14 73 C-14.9 56.6 -10.9 42.2 -5.5 26.9 C-2.5 18.1 -1.1 9.3 0 0 Z " fill="#4B3B30" transform="translate(64,364)"/>
<path d="M0 0 C0.7 0 1.3 0 2 0 C4.2 15.4 3 30.4 1.1 45.7 C0.1 53.8 -0.4 61.8 0 70 C-1 69.7 -2 69.3 -3 69 C-4.6 61.1 -5.3 53.8 -5.2 45.8 C-5.2 44.8 -5.2 43.8 -5.2 42.7 C-5.2 37.1 -4.8 31.6 -4 26 C-3.3 25.7 -2.7 25.3 -2 25 C-1.7 22.1 -1.3 19.3 -1 16.4 C-0.8 14.8 -0.6 13.3 -0.4 11.6 C-0.1 7.7 0.1 3.9 0 0 Z " fill="#4B3C30" transform="translate(70,362)"/>
<path d="M0 0 C0.7 0 1.3 0 2 0 C2.5 12.5 2.6 21.8 -5.6 31.6 C-6.7 32.7 -7.9 33.9 -9 35 C-9.7 35 -10.3 35 -11 35 C-11.4 18.1 -11.4 18.1 -9 11 C-8.3 11 -7.7 11 -7 11 C-6.8 10.3 -6.5 9.6 -6.3 8.9 C-4.7 5.4 -2.6 2.8 0 0 Z " fill="#5A3C28" transform="translate(498,28)"/>
<path d="M0 0 C0 0.7 0 1.3 0 2 C-1 2.3 -2 2.7 -3 3 C2.6 9 8 11.5 15.7 14 C18 15 18 15 19 17 C18.7 17.7 18.3 18.3 18 19 C20.3 19.3 22.6 19.7 25 20 C25 20.7 25 21.3 25 22 C26.1 21.8 27.2 21.6 28.3 21.4 C32 21 32 21 35 23 C36.6 23 38.3 23 40 23 C40.3 21 40.7 19 41 17 C43 21 43 21 44 25.1 C45 29 45 29 47 31 C44.8 32.6 44.8 32.6 42 34 C36.8 32.7 35.8 30.5 33 26 C33 25.3 33 24.7 33 24 C31.4 24 29.7 24 28 24 C27.7 25.3 27.3 26.6 27 28 C26 27.2 25.1 26.4 24.1 25.6 C19.8 22.4 15.2 19.7 10.6 17.1 C-6.2 7.4 -6.2 7.4 -8 2 C-2.2 0 -2.2 0 0 0 Z " fill="#7C4F2E" transform="translate(503,156)"/>
<path d="M0 0 C0 4.8 -2.9 8.3 -5.4 12.2 C-5.9 13.1 -6.5 14 -7 15 C-8.7 17.6 -10.3 20.3 -12 23 C-12.5 23.8 -12.9 24.5 -13.4 25.3 C-18.3 33 -23.2 39.8 -30 46 C-30 41.6 -28.1 38.8 -26 35 C-25 34 -24 33 -23 32 C-21 28 -21 28 -20.6 24.6 C-19.3 17.2 -13 11.5 -7.2 7.1 C-6.1 6.4 -5.1 5.7 -4 5 C-1.6 2.2 -1.6 2.2 0 0 Z " fill="#443124" transform="translate(385,120)"/>
<path d="M0 0 C-3.4 5.5 -6.2 7.1 -12 10 C-11.7 9 -11.3 8 -11 7 C-10.3 6.7 -9.7 6.3 -9 6 C-20.3 7.5 -30.3 16.2 -38 24 C-38.3 24.3 -38.3 24.3 -39.9 25.9 C-44.5 30.8 -47.8 36.3 -51.2 42 C-53 45 -53 45 -56 49 C-54.4 34.7 -42.6 22.5 -32.1 13.6 C-23 6.7 -11.6 0 0 0 Z " fill="#4A392E" transform="translate(114,212)"/>
<path d="M0 0 C1 4.1 1.1 7.8 1 12 C1 13.3 1.1 14.6 1.2 15.9 C0.9 23.2 -1.6 29.6 -5 36 C-5.3 36.9 -5.6 37.8 -5.9 38.7 C-7.3 41.7 -9.1 42.5 -12 44 C-10.9 40.1 -9.8 36.5 -8.3 32.8 C-6.7 26.9 -7.2 23 -8 17 C-7.3 17 -6.7 17 -6 17 C-6.3 15.3 -6.7 13.7 -7 12 C-6.3 12 -5.7 12 -5 12 C-4.7 8.4 -4.3 4.7 -4 1 C-1 0 -1 0 0 0 Z " fill="#5A3E2C" transform="translate(402,153)"/>
<path d="M0 0 C1 4 0.9 5.8 0.1 9.8 C-0.1 10.7 -0.3 11.7 -0.5 12.7 C-0.7 13.5 -0.8 14.2 -1 15 C-1.7 15 -2.3 15 -3 15 C-3.1 15.8 -3.2 16.6 -3.3 17.4 C-4.2 21.8 -5.6 25.8 -7 30 C-7.3 31.1 -7.6 32.2 -7.9 33.3 C-10.5 42.1 -13.6 49.4 -20 56 C-20 53 -20 53 -18.2 49.4 C-15 42.3 -13.6 34.6 -12 27 C-11 27.3 -10 27.7 -9 28 C-9.2 26.6 -9.5 25.2 -9.8 23.8 C-10 19 -10 19 -8.2 16.3 C-7.5 15.5 -6.8 14.8 -6 14 C-3.6 9.8 -2.3 5.7 -1 1 C-0.7 0.7 -0.3 0.3 0 0 Z " fill="#453225" transform="translate(456,70)"/>
<path d="M0 0 C1.3 2.6 2.7 5.2 4 7.8 C4.7 9.3 5.5 10.7 6.2 12.2 C8 16 8 16 8 19 C4.4 19 0.7 19 -3 19 C-4 16.7 -5 14.5 -6 12.2 C-6.6 10.9 -7.1 9.7 -7.7 8.4 C-9 5 -9 5 -9 2 C-5.6 0.5 -3.8 0 0 0 Z " fill="#68452B" transform="translate(376,537)"/>
<path d="M0 0 C0.7 0.3 1.3 0.7 2 1 C1 2.3 0 3.6 -1 5 C-4.8 14.3 -7 23.9 -9.1 33.7 C-9.4 34.8 -9.7 35.9 -10 37 C-21.5 42.8 -43.7 36.5 -56 35 C-56.2 34.5 -56.2 34.5 -57 32 C-50.8 32.5 -44.5 32.9 -38.3 33.5 C-37.3 33.6 -36.3 33.7 -35.3 33.8 C-33.2 34 -31.2 34.2 -29.2 34.3 C-23.8 34.8 -18.5 35.1 -13 35 C-12.9 34.6 -12.9 34.6 -12.3 32.4 C-10.4 24.8 -8.2 17.2 -5.9 9.6 C-5.7 8.8 -5.4 7.9 -5.2 7.1 C-4.6 5 -3.8 3 -3 1 C-2 0.7 -1 0.3 0 0 Z " fill="#844E29" transform="translate(345,224)"/>
<path d="M0 0 C0.3 0 0.7 0 1 0 C1.7 25.4 1.7 25.4 -4 36 C-4.7 35.7 -5.3 35.3 -6 35 C-7.6 23.5 -8.3 13.6 -3 3 C-2 2 -1 1 0 0 Z " fill="#87542B" transform="translate(422,373)"/>
<path d="M0 0 C0.3 0 0.7 0 1 0 C1.1 1.4 1.3 2.9 1.4 4.4 C2 9 2 9 3 11 C2.1 14 1.1 17 0 20 C-0.7 18.7 -1.3 17.4 -2 16 C-5.6 23.1 -5.1 31.2 -5 39 C-5.7 38.7 -6.3 38.3 -7 38 C-7 37.3 -7 36.7 -7 36 C-7.7 36.2 -7.7 36.2 -11 37 C-11.7 39 -12.3 41 -13 43 C-14 39.2 -14 37.6 -13.2 33.9 C-13.1 33 -12.9 32.1 -12.8 31.2 C-12 29 -12 29 -9 27 C-8.5 24.7 -8.5 24.7 -8.2 21.8 C-7.2 15 -5 5 0 0 Z " fill="#74492A" transform="translate(392,167)"/>
<path d="M0 0 C0.3 0 0.7 0 1 0 C0.5 6.2 -0.4 11.3 -3 17 C-4 17.3 -5 17.7 -6 18 C-6.9 20 -6.9 20 -8 23 C-10 27.2 -12.1 31.5 -14.1 35.7 C-15.9 39.8 -17.1 43.6 -18 48 C-18.3 48 -18.7 48 -19 48 C-19.8 33.8 -16 26.2 -8.3 14.5 C-5.2 9.8 -2.6 5 0 0 Z " fill="#85522A" transform="translate(434,112)"/>
<path d="M0 0 C0.7 0 1.3 0 2 0 C-0.2 12.3 -4.6 25.3 -13.2 34.4 C-17.6 37.4 -21.9 39.7 -27 41 C-28 40.7 -29 40.3 -30 40 C-29.2 39.5 -28.3 39.1 -27.5 38.6 C-26.4 38 -25.3 37.3 -24.2 36.7 C-23.1 36.1 -22 35.5 -20.9 34.8 C-18 33 -18 33 -15 30 C-14.3 30 -13.7 30 -13 30 C-11.1 26.3 -10 22.7 -8.8 18.7 C-6.7 11.9 -4.3 5.8 0 0 Z " fill="#453225" transform="translate(349,178)"/>
<path d="M0 0 C3 2.4 3 2.4 5 5 C5 5.7 5 6.3 5 7 C4.3 7 3.7 7 3 7 C3.5 8.1 4 9.1 4.5 10.2 C6 14 6 14 6 18 C5 17.7 4 17.3 3 17 C3 16 3 15 3 14 C2 14 1 14 0 14 C-2 11 -2 11 -2 8 C-1.3 7.7 -0.7 7.3 0 7 C-2.9 6.9 -2.9 6.9 -6 7 C-8.7 9.7 -9.1 12.4 -10 16 C-10.7 16 -11.3 16 -12 16 C-14.2 9.8 -14.2 9.8 -13.4 6.3 C-9.8 0.3 -7.1 -1 0 0 Z " fill="#7A4F2E" transform="translate(559,159)"/>
<path d="M0 0 C1 0.3 2 0.7 3 1 C3.6 11.9 0.9 19.4 -6 28 C-6.3 28 -6.7 28 -7 28 C-7.4 18.5 -7.5 10 -1.8 1.9 C-1.2 1.3 -0.6 0.6 0 0 Z " fill="#9C5F2F" transform="translate(463,276)"/>
<path d="M0 0 C3.8 3.8 5 7.1 7 12 C-5.9 12.8 -5.9 12.8 -10.4 9.7 C-12 7 -12 7 -12 4 C-12.7 3.7 -13.3 3.3 -14 3 C-9.5 -0.5 -5.6 -0.5 0 0 Z " fill="#4C392C" transform="translate(508,100)"/>
<path d="M0 0 C0.5 0 0.5 0 2.8 0.2 C3.1 0.8 3.5 1.5 3.8 2.2 C2.8 2.2 1.8 2.2 0.8 2.2 C1.5 4.2 2.1 6.1 2.8 8.2 C3.5 8.2 4.1 8.2 4.8 8.2 C5.6 12.1 5.8 14.2 4.8 18.2 C2.6 18.9 2.6 18.9 -0.2 19.2 C-3.5 17.1 -4.9 16 -6.2 12.2 C-6.4 7.7 -6.4 7.7 -6.2 3.2 C-3.2 0.2 -3.2 0.2 0 0 Z " fill="#463225" transform="translate(556.1875,164.8125)"/>
<path d="M0 0 C3.3 3.3 4.5 5.6 6 10 C5.7 13.9 5.7 13.9 5 17 C1 19 1 19 -2 19 C-2.7 17.1 -3.3 15.2 -4 13.3 C-4.4 12.3 -4.7 11.2 -5.1 10.1 C-6 7 -6 7 -6 2 C-4 1.3 -2 0.7 0 0 Z " fill="#67442B" transform="translate(94,533)"/>
<path d="M0 0 C0.7 0 1.3 0 2 0 C0.7 3.6 -0.6 5.8 -3 9 C-4.1 11.9 -5.2 14.8 -6.2 17.8 C-6.7 19.3 -7.2 20.8 -7.8 22.4 C-8.2 23.6 -8.6 24.8 -9 26 C-13.1 26 -15.5 24.1 -19 22 C-16.9 17.9 -15.2 16.2 -11.8 13.2 C-8.2 10.2 -5.2 7.2 -2.4 3.4 C-1.6 2.3 -0.8 1.1 0 0 Z " fill="#975D30" transform="translate(533,30)"/>
<path d="M0 0 C0.3 0 0.7 0 1 0 C0.6 6.6 0.1 12.7 -2 19 C-2.7 19 -3.3 19 -4 19 C-4.3 19.7 -4.6 20.5 -4.8 21.2 C-5.9 23.8 -7.2 26.1 -8.6 28.5 C-11.6 34.5 -11.8 40 -11.8 46.6 C-11.8 47.7 -11.9 48.8 -11.9 50 C-11.9 52.6 -12 55.3 -12 58 C-12.3 58 -12.7 58 -13 58 C-13.1 53.6 -13.2 49.1 -13.2 44.7 C-13.3 43.4 -13.3 42.2 -13.4 40.9 C-13.5 29.6 -10.5 21.6 -5.4 11.6 C-3.4 7.8 -1.5 4 0 0 Z " fill="#7A4828" transform="translate(96,388)"/>
<path d="M0 0 C8.6 11.5 3.5 31.5 2 45 C2.7 45.3 3.3 45.7 4 46 C-2.5 51.9 -2.5 51.9 -7 53 C-6.7 51.4 -6.3 49.7 -6 48 C-5.3 47.8 -5.3 47.8 -2 47 C-1.5 43.4 -1 39.8 -0.5 36.1 C-0.4 35.1 -0.2 34.1 -0.1 33.1 C0.8 26.6 1.1 20.5 1 14 C0.7 14 0.3 14 0 14 C0 9.4 0 4.8 0 0 Z " fill="#64432B" transform="translate(356,444)"/>
<path d="M0 0 C0.7 0 1.3 0 2 0 C1.7 3.3 1.3 6.6 1 10 C2 10 3 10 4 10 C2.4 13.1 0.8 16 -1 19 C-1.3 19 -1.7 19 -2 19 C-1.7 14.7 -1.3 10.4 -1 6 C-6.7 18.6 -8.4 29.3 -8 43 C-9 42.7 -10 42.3 -11 42 C-12 26.5 -8.8 12.9 0 0 Z " fill="#4B3B30" transform="translate(421,110)"/>
<path d="M0 0 C0.3 0 0.7 0 1 0 C1.1 1.2 1.2 2.4 1.3 3.6 C2.6 16.2 3.7 26.6 13 36 C15.9 38.2 18.8 40.1 22 42 C18 43 18 43 13.7 40.6 C7.9 36.6 1.4 29.8 -0.6 22.9 C-1.2 18.8 -1.1 14.9 -1.1 10.8 C-1.1 9.2 -1.1 7.6 -1.1 6 C-1 2 -1 2 0 0 Z " fill="#67432A" transform="translate(460,115)"/>
<path d="M0 0 C0.3 0 0.7 0 1 0 C1.3 7.9 1.7 15.8 2 24 C1.3 24 0.7 24 0 24 C0.1 24.4 0.1 24.4 0.5 26.1 C1.6 32.9 0 40 -3.6 45.8 C-4.4 46.8 -5.2 47.9 -6 49 C-6.7 49 -7.3 49 -8 49 C-7.7 48.2 -7.5 47.5 -7.2 46.7 C-6.8 45.5 -6.4 44.3 -6 43 C-5.7 42.3 -5.5 41.5 -5.2 40.8 C-2.9 33.5 -2.9 26.8 -3 19.2 C-3 12.6 -2.1 6.2 0 0 Z " fill="#442F22" transform="translate(379,170)"/>
<path d="M0 0 C0 1.6 0 3.3 0 5 C-1.9 6.6 -3.8 8.3 -5.8 9.9 C-12.9 16.7 -15.7 25.7 -18 35 C-18.3 35.2 -18.3 35.2 -20 36 C-20.5 28.8 -18.6 23.5 -16 17 C-15.7 16 -15.3 15 -15 14 C-14 13 -13 12 -12 11 C-11.3 9.7 -10.7 8.4 -10 7 C-7.9 5.1 -7.9 5.1 -5.4 3.2 C-4.6 2.6 -3.8 2 -3 1.4 C-1 0 -1 0 0 0 Z " fill="#453022" transform="translate(477,56)"/>
<path d="M0 0 C0.5 0.4 0.5 0.4 3.2 2.6 C3.9 3 3.9 3 7 5 C11 4 11 4 15 2 C19.6 1.4 23.6 1.2 27.7 3.6 C29.4 6.8 28.9 8.6 28 12 C27.5 11.2 27.1 10.3 26.6 9.5 C24 7 24 7 19.6 6.5 C15 7 15 7 11.8 8.7 C9 10 9 10 5.8 8.9 C3 7 3 7 0 3 C0 2 0 1 0 0 Z " fill="#86532D" transform="translate(484,94)"/>
<path d="M0 0 C3.2 2.1 6.2 4.2 9.1 6.7 C12 9 12 9 16 10 C15.3 11.3 14.7 12.6 14 14 C14.7 14.3 15.4 14.5 16.1 14.8 C24.7 18.3 24.7 18.3 27 23 C27.7 23.3 28.3 23.7 29 24 C20.7 22.7 13.6 18.1 8 12 C7 11.7 6 11.3 5 11 C3 7.4 1.3 3.9 0 0 Z " fill="#463225" transform="translate(515,63)"/>
<path d="M0 0 C1.3 4 0.3 6 -0.8 10.1 C-2.1 14.6 -3.3 19.1 -4.1 23.8 C-5 28 -5 28 -7 31 C-8.3 31 -9.6 31 -11 31 C-10.5 25.2 -9.3 20.3 -7.2 14.9 C-6.7 13.6 -6.2 12.3 -5.7 10.9 C-4 7.1 -2.1 3.6 0 0 Z " fill="#4B3C31" transform="translate(80,257)"/>
<path d="M0 0 C3.9 1.8 3.9 1.8 8 4 C8.3 5.3 8.7 6.6 9 8 C8 9 7 10 6 11 C5.7 12 5.3 13 5 14 C3 14.4 1 14.7 -1 15 C-3.1 12.9 -2.2 9.4 -2.2 6.5 C-2 4 -2 4 0 0 Z " fill="#7A4A2A" transform="translate(85,508)"/>
<path d="M0 0 C2.3 3.5 2.4 4.9 2 9 C1 10 0 11 -1 12 C-1.8 14.3 -2.6 16.7 -3.3 19.1 C-6.1 27.6 -9.2 35.9 -17 41 C-17 37 -15 35.4 -12.7 32.4 C-7.6 25.2 -5.5 17.4 -3.7 8.9 C-2.9 5.6 -1.7 2.9 0 0 Z " fill="#85522A" transform="translate(453,87)"/>
<path d="M0 0 C3 1 3 1 5 4 C5.2 6.4 5.2 6.4 5.2 9.1 C5.2 9.6 5.2 9.6 5.2 12.1 C5.2 13.1 5.1 14.1 5.1 15.2 C5.1 16.2 5.1 17.3 5.1 18.3 C5.1 20.9 5 23.4 5 26 C3 24 3 24 2 22 C1.3 22 0.7 22 0 22 C0 14.7 0 7.5 0 0 Z " fill="#794527" transform="translate(420,449)"/>
<path d="M0 0 C0.3 0.7 0.7 1.3 1 2 C1.7 2.3 2.3 2.7 3 3 C1.4 5.6 -0.3 8.3 -2 11 C-2.7 11 -3.3 11 -4 11 C-4.7 12.3 -5.3 13.6 -6 15 C-7 16 -8 17 -9 18 C-8 18 -7 18 -6 18 C-6.3 19.3 -6.7 20.6 -7 22 C-8.6 22.5 -8.6 22.5 -17 25 C-15.9 21.5 -14.7 18.3 -13 15 C-11.3 14.3 -9.7 13.7 -8 13 C-7.3 11.7 -6.7 10.4 -6 9 C-5.2 8 -4.3 7 -3.4 5.9 C-1 3 -1 3 0 0 Z " fill="#88532A" transform="translate(497,50)"/>
<path d="M0 0 C1 0 2 0 3 0 C2.5 4.6 2.1 7.8 0 12 C0.1 13.2 0.2 14.4 0.4 15.6 C-0.1 21.3 -2.5 23.7 -6.2 27.9 C-8 30 -8 30 -8 32 C-10.3 32.7 -12.6 33.3 -15 34 C-14.1 32.9 -13.2 31.8 -12.3 30.6 C-5.3 21.2 -2.5 11.5 0 0 Z " fill="#775135" transform="translate(34,325)"/>
<path d="M0 0 C0.7 0 1.3 0 2 0 C0.9 5.1 -0.2 10.1 -2 15 C-0.4 14.7 1.3 14.3 3 14 C3 16.3 3 18.6 3 21 C1.7 21.3 0.4 21.7 -1 22 C-0.7 23 -0.3 24 0 25 C9.3 26.3 18.6 27.4 28 28 C28 28.3 28 28.7 28 29 C24.9 29.1 21.7 29.1 18.6 29.1 C18.1 29.1 18.1 29.1 15.9 29.2 C10 29.2 4.7 28.7 -1 27 C-4.1 22.4 -4.1 17.5 -4 12 C-2.6 8.6 -2.6 8.6 -1 6 C-0.3 2.6 -0.3 2.6 0 0 Z " fill="#463123" transform="translate(425,523)"/>
<path d="M0 0 C1.3 0.3 2.6 0.7 4 1 C3.4 1.4 3.4 1.4 0.4 3.6 C-4.6 7.4 -9.3 11.3 -13.8 15.8 C-16 18 -16 18 -19 20 C-17.6 16 -15.8 13.1 -13 10 C-12.3 10 -11.7 10 -11 10 C-11 9.3 -11 8.7 -11 8 C-13 8.2 -13 8.2 -23 9 C-18.5 6 -14.1 5 -8.9 4.1 C-4 3 -4 3 0 0 Z " fill="#49382C" transform="translate(447,61)"/>
</svg>
