<?xml version="1.0" encoding="UTF-8"?>
<svg xmlns="http://www.w3.org/2000/svg" width="600" height="600" viewBox="0 0 600 600" role="img" aria-label="Horse">
  <rect width="600" height="600" fill="#EEF3EE"/>
  <rect y="470" width="600" height="130" fill="#D5E4D7"/>
  <ellipse cx="300" cy="300" rx="130" ry="70" fill="#8B6540"/>
  <rect x="380" y="200" width="40" height="110" rx="18" fill="#8B6540"/>
  <ellipse cx="430" cy="190" rx="50" ry="32" fill="#8B6540"/>
  <ellipse cx="470" cy="195" rx="18" ry="14" fill="#6E5235"/>
  <circle cx="445" cy="182" r="5" fill="#3A3F45"/>
  <polygon points="420,155 430,175 410,175" fill="#6E5235"/>
  <path d="M380 240 Q360 220 350 260" fill="none" stroke="#6E5235" stroke-width="16" stroke-linecap="round"/>
  <path d="M170 280 Q140 260 130 300 Q150 320 170 300" fill="#6E5235"/>
  <rect x="220" y="350" width="28" height="120" rx="10" fill="#8B6540"/>
  <rect x="270" y="350" width="28" height="120" rx="10" fill="#8B6540"/>
  <rect x="320" y="350" width="28" height="120" rx="10" fill="#8B6540"/>
  <rect x="370" y="350" width="28" height="120" rx="10" fill="#8B6540"/>
</svg>
