<?xml version="1.0" encoding="UTF-8"?>
<!-- Generator: visioncortex VTracer 0.6.12 -->
<svg version="1.1" xmlns="http://www.w3.org/2000/svg" width="600" height="600" viewBox="0 0 600 600" role="img" aria-label="Moon">
<path d="M0 0 C198 0 396 0 600 0 C600 198 600 396 600 600 C402 600 204 600 0 600 C0 402 0 204 0 0 Z " fill="#365173" transform="translate(0,0)"/>
<path d="M0 0 C198 0 396 0 600 0 C600 198 600 396 600 600 C402 600 204 600 0 600 C0 402 0 204 0 0 Z M157 83 C156.4 83.5 156.4 83.5 153.2 85.7 C134 99.9 115.5 115.9 101 135 C100.1 136.2 99.2 137.3 98.2 138.5 C86.6 153.6 77.1 169.8 69 187 C68.4 188.2 67.8 189.4 67.2 190.7 C51.5 225 44.8 261.5 44.8 299.1 C44.8 300.9 44.8 302.8 44.8 304.7 C44.7 373.4 74.4 437.2 122.4 485.7 C129.5 492.8 136.9 499.1 145 505 C146.2 505.9 147.3 506.8 148.5 507.7 C191.7 540.5 245.7 557.5 299.6 557.3 C301.5 557.3 303.3 557.3 305.2 557.3 C318.4 557.2 331 556.5 344 554 C344.9 553.8 344.9 553.8 349.5 553 C386.3 545.7 421 530.5 451 508 C452.2 507.1 453.4 506.2 454.7 505.2 C462.9 498.9 470.5 492.2 478 485 C479 484.1 479.9 483.1 480.9 482.2 C487.1 476.1 492.7 469.8 498 463 C498.8 462 499.6 461 500.4 459.9 C530 422.2 548.5 377.6 554 330 C554.1 329.3 554.1 329.3 554.6 325.7 C558.4 277 551.4 229 530 185 C529.6 184.1 529.1 183.2 528.7 182.3 C512 148.3 488 117.3 458 94 C457 93.2 456 92.4 455 91.6 C446.7 85 438.1 79.4 429 74 C428.2 73.6 428.2 73.6 424.4 71.3 C393.7 53.7 359.2 43.5 324 40 C322.9 39.9 321.8 39.8 320.6 39.7 C264.4 34.8 202.9 49.3 157 83 Z " fill="#EDF2ED" transform="translate(0,0)"/>
<path d="M0 0 C11.2 8.3 22.7 15.5 35 22 C36.2 22.7 37.5 23.4 38.8 24 C86.5 49.1 145 58.1 198 48 C198.9 47.8 198.9 47.8 203.5 47 C239.1 40 280.6 25.5 307.1 -0 C314.1 -6.5 319.6 -7.1 328.9 -6.8 C329.6 -6.8 329.6 -6.8 333 -6.8 C337.5 -6.8 341.9 -6.7 346.4 -6.6 C349.5 -6.5 352.6 -6.5 355.7 -6.5 C363.8 -6.4 372 -6.2 380.1 -6.1 C389.9 -5.9 399.7 -5.8 409.5 -5.7 C424.3 -5.5 439.2 -5.2 454 -5 C454 28 454 61 454 95 C256 95 58 95 -146 95 C-146 62 -146 29 -146 -5 C-111.9 -5.5 -111.9 -5.5 -97.3 -5.6 C-87.4 -5.8 -77.5 -5.9 -67.6 -6 C-59.6 -6.1 -51.6 -6.2 -43.6 -6.3 C-40.5 -6.4 -37.5 -6.4 -34.4 -6.4 C-30.1 -6.5 -25.9 -6.6 -21.6 -6.6 C-20.3 -6.6 -19.1 -6.7 -17.8 -6.7 C-9.9 -6.7 -6 -5.5 0 0 Z " fill="#D4E3D6" transform="translate(146,505)"/>
<path d="M0 0 C-3.4 2.3 -6.9 3.8 -10.7 5.5 C-24 11.7 -36 19.3 -47 29 C-48 29.9 -49 30.7 -50 31.6 C-77.6 56.1 -95.8 92 -99.8 128.8 C-102.3 172.7 -91.6 215.9 -62.7 250.1 C-31.5 284.5 9.3 305.4 56 308 C83.5 308.9 109 301.7 134 291 C135 290.7 136 290.3 137 290 C120 323.9 79.9 347.8 45.6 359.8 C0.4 374.3 -49.5 370.3 -91.9 349.2 C-137.5 325.7 -171 285.7 -187.9 237.6 C-204.1 186.2 -198.5 134 -174.1 86.2 C-169.7 77.9 -164.7 70.4 -159 63 C-158.3 62.1 -157.5 61.1 -156.8 60.2 C-147.9 49 -138.4 38.7 -127 30 C-126 29.2 -125.1 28.4 -124.1 27.6 C-115 20.3 -105.2 14.6 -95 9 C-93.8 8.3 -92.6 7.7 -91.4 7 C-63.9 -7.9 -29.4 -10.4 0 0 Z " fill="#F5E7CC" transform="translate(347,108)"/>
<path d="M0 0 C-1.2 0.6 -2.4 1.2 -3.6 1.8 C-18.9 9.7 -33 18.7 -46 30 C-47 30.9 -48 31.7 -49 32.6 C-55.8 38.6 -61.5 44.9 -67 52 C-67.8 53 -68.6 54 -69.5 55.1 C-89.3 80 -101.5 109.7 -107 141 C-107.2 142.2 -107.5 143.5 -107.7 144.7 C-115 192 -102.1 242.4 -74.9 281.4 C-69 289.4 -62.7 296.8 -56 304 C-55.6 304.5 -55.6 304.5 -53.4 306.8 C-22.1 339.3 23.3 360.2 68.4 361.2 C110.9 361.7 150.9 351.3 185 325 C185.9 324.3 186.8 323.6 187.7 322.9 C200.2 313.2 218.8 298.5 224 283 C225 282.7 226 282.3 227 282 C221 297.1 210.1 309.4 199 321 C198.6 321.4 198.6 321.4 196.5 323.6 C166.9 354.4 121.6 373.3 79.1 374.3 C76.3 374.3 73.6 374.3 70.9 374.3 C69.4 374.3 68 374.3 66.5 374.3 C19.7 373.8 -26.2 354.8 -59.9 322.2 C-60.9 321.2 -61.9 320.1 -63 319 C-63.8 318.2 -64.6 317.4 -65.4 316.6 C-66.3 315.7 -67.1 314.9 -68 314 C-69.2 312.8 -70.4 311.7 -71.7 310.5 C-103.7 278.3 -122.1 229.2 -122.3 184.3 C-122.3 182.7 -122.3 181 -122.3 179.4 C-122.3 177.7 -122.3 176 -122.3 174.3 C-122.2 162.5 -121.5 151.5 -119 140 C-118.7 138.4 -118.3 136.8 -118 135.1 C-106.6 85.4 -76.2 41.6 -33 14.4 C-5.5 -1.8 -5.5 -1.8 0 0 Z " fill="#BF9C5F" transform="translate(260,114)"/>
<path d="M0 0 C0.3 0 0.7 0 1 0 C1.3 1.4 1.6 2.8 1.9 4.3 C2.3 6.2 2.8 8.1 3.2 10 C3.6 11.9 4 13.7 4.4 15.6 C6.2 21.8 8.1 27 13.6 30.8 C21.9 33.9 30.2 35.6 39 37 C38.8 37.3 38.8 37.3 38 39 C35.7 39.5 33.5 39.9 31.2 40.3 C14.1 43.6 14.1 43.6 8 50.3 C4.4 58.8 2.4 67.9 1 77 C-1.1 72.8 -1.9 69.3 -2.9 64.8 C-5.8 52.4 -5.8 52.4 -9 48 C-17.6 42.7 -27 40.1 -37 39 C-37.3 38.3 -37.7 37.7 -38 37 C-36.8 36.8 -35.6 36.5 -34.4 36.3 C-26.1 34.5 -18.6 32.8 -11 29 C-10.3 29 -9.7 29 -9 29 C-5.1 19.4 -2.2 10.2 0 0 Z " fill="#BF9C5F" transform="translate(424,157)"/>
<path d="M0 0 C2 4 2 4 3.2 8.1 C5 12 5 12 7.8 13.9 C11.1 15 14.5 16.1 18 17 C14 19 14 19 9.4 20.6 C5 23 5 23 3.1 27 C2.9 27.7 2.9 27.7 2 31 C1.3 32.3 0.7 33.6 0 35 C-0.5 33.1 -0.9 31.2 -1.4 29.2 C-3.1 24.1 -3.6 23.3 -8.4 20.3 C-13 19 -13 19 -18 18 C-14 16 -14 16 -9.4 14.8 C-5 13 -5 13 -3.1 10.2 C-2 6.9 -0.9 3.5 0 0 Z " fill="#BF9C5F" transform="translate(101,258)"/>
<path d="M0 0 C2.6 3.8 3.1 7.5 4 12 C4.8 12.2 4.8 12.2 8.8 13.4 C14 15 14 15 18 17 C17.1 17.2 17.1 17.2 12.7 18.4 C9.8 19.2 6.9 20 4 21 C3 25.3 2 29.6 1 34 C-1 30 -1 30 -2.3 25.9 C-4 22 -4 22 -9 19 C-11.7 18.3 -14.3 17.6 -17 17 C-12.4 14.7 -7.9 13.4 -3 12 C-2 8 -1 4.1 0 0 Z " fill="#BF9C5F" transform="translate(361,314)"/>
</svg>
