<?xml version="1.0" encoding="UTF-8"?>
<svg xmlns="http://www.w3.org/2000/svg" width="600" height="600" viewBox="0 0 600 600" role="img" aria-label="Mountain">
  <rect width="600" height="600" fill="#EEF3EE"/>
  <rect y="470" width="600" height="130" fill="#D5E4D7"/>
  <path fill="#6F8F9E" d="M70 470 C110 390 150 300 210 250 C270 300 300 370 340 470 Z"/>
  <path fill="#88A8B6" d="M220 470 C280 360 320 280 380 220 C440 290 480 380 540 470 Z"/>
  <path fill="#9FBECA" d="M90 470 C160 340 220 250 300 180 C380 250 440 340 510 470 Z"/>
  <path fill="#B5D0DA" d="M300 180 C360 250 420 340 510 470 L300 470 Z"/>
  <path fill="#F7FBFC" d="M300 180 C275 210 260 235 248 260 C275 250 300 245 325 250 C310 230 300 180 300 180 Z"/>
</svg>
