<?xml version="1.0" encoding="UTF-8"?>
<!-- Generator: visioncortex VTracer 0.6.12 -->
<svg version="1.1" xmlns="http://www.w3.org/2000/svg" width="600" height="600" viewBox="0 0 600 600" role="img" aria-label="Mountain">
<path d="M0 0 C198 0 396 0 600 0 C600 198 600 396 600 600 C402 600 204 600 0 600 C0 402 0 204 0 0 Z " fill="#EDF2ED" transform="translate(0,0)"/>
<path d="M0 0 C3.4 3.4 4.5 6.1 6.4 10.5 C6.7 11.2 6.7 11.2 8.4 15 C9.7 18.2 11.1 21.3 12.4 24.5 C17.2 35.3 22.9 43.4 31 52 C38.1 60.3 45.1 68.5 52 77 C48.6 64.2 44.5 51.6 40.4 38.9 C40.1 38.2 40.1 38.2 39 34.7 C38 31.9 37.1 29.1 36.2 26.2 C35.7 24.9 35.3 23.6 34.9 22.3 C34.5 21.1 34.1 20 33.7 18.8 C33 16 33 16 34 14 C39.2 19.2 44.2 24.4 49 30 C49.5 30.6 49.5 30.6 51.9 33.3 C67 50.8 67 50.8 67 54 C68.3 54.3 69.6 54.7 71 55 C77.5 58.4 80.2 61.1 83 67.8 C83.7 69.3 84.4 70.8 85 72.3 C85.7 73.9 86.4 75.5 87.1 77.1 C92.7 90.1 98.6 101.5 106.9 112.9 C120 131.1 120 131.1 120 134 C127.4 128.2 134.1 122 140.7 115.3 C143 113 143 113 144 113 C144.1 117 144.1 121 144.1 125 C144.1 126.1 144.2 127.3 144.2 128.4 C144.2 134.7 143.6 139.9 142 146 C143.1 151.3 144.8 153.7 148 158 C148 158.7 148 159.3 148 160 C148.7 160 149.3 160 150 160 C151 161.6 152 163.2 153 164.8 C156.8 170.8 161.1 176.5 165.4 182.2 C166.2 183.1 166.9 184.1 167.7 185.1 C169.4 187.4 171.2 189.7 173 192 C170.5 181.8 167.8 171.7 164.9 161.7 C164 158 164 158 165 155 C171.5 161.4 177.6 168 183.2 175.1 C187.1 179.1 190.3 181 195.4 183.2 C202 187.7 205.1 196.8 208.7 203.8 C209.7 205.8 210.8 207.9 211.9 209.9 C212.1 210.4 212.1 210.4 213.4 213 C215.8 217.5 218.1 222 220.5 226.6 C221.3 228 222 229.5 222.8 231.1 C226.7 238 230.9 243.2 236.6 248.8 C238 250.1 239.3 251.5 240.7 252.8 C244 256 244 256 246 257 C247.1 259.4 248.1 261.8 249 264.2 C249.6 265.7 250.2 267.2 250.9 268.8 C251.5 270.4 252.1 272 252.8 273.6 C253.4 275.2 254 276.7 254.6 278.3 C255.8 281.4 257 284.4 258.2 287.5 C260.8 294 263.4 300.5 266 307 C274 327 274 327 274 330 C275.4 330.4 276.8 330.8 278.2 331.2 C285 333.7 285 333.7 288 337 C288.8 340.2 288.8 340.2 289 343 C282.4 348.6 276.8 348.2 268.4 348.2 C265.7 348.3 263 348.3 260.3 348.3 C259.6 348.3 259.6 348.3 255.9 348.4 C229.5 348.7 203.2 349.2 176.8 350 C175.3 350 173.8 350.1 172.3 350.1 C166.1 350.3 159.9 350.5 153.8 350.6 C65.8 353.2 -21.6 353.6 -109.6 350.5 C-134.1 349.6 -158.6 348.9 -183.2 348.6 C-184.2 348.6 -185.2 348.6 -186.3 348.6 C-196.9 348.5 -207.4 348.4 -217.9 348.4 C-219.6 348.4 -221.3 348.4 -223 348.4 C-226.1 348.4 -229.2 348.4 -232.3 348.4 C-233.6 348.4 -235 348.4 -236.3 348.4 C-237.5 348.4 -238.6 348.4 -239.8 348.4 C-244.4 347.8 -247.7 346.3 -251 343 C-249.7 336.4 -247.3 335 -242 331 C-240.5 330.6 -239.1 330.3 -237.6 329.9 C-231.4 327.3 -230.3 324.4 -227.3 318.5 C-226.8 317.5 -226.3 316.6 -225.8 315.6 C-224.7 313.5 -223.7 311.4 -222.6 309.3 C-220.4 304.8 -218.1 300.4 -215.8 295.9 C-214.6 293.6 -213.4 291.3 -212.2 289 C-207.1 279.2 -201.9 269.5 -196.5 259.8 C-194.3 255.8 -192.2 251.8 -190 247.7 C-188.3 244.7 -186.7 241.6 -185 238.6 C-183.2 235.2 -181.3 231.7 -179.5 228.2 C-174.5 218.7 -169.2 212.2 -160.3 206.2 C-151.8 200.1 -149.2 193.7 -146.2 183.9 C-145.3 181.2 -144.5 178.6 -143.6 175.9 C-143.2 174.6 -142.8 173.3 -142.3 172 C-140.5 166.7 -138.5 161.5 -136.3 156.3 C-134.7 152.4 -133.3 148.4 -131.9 144.4 C-131.7 143.7 -131.7 143.7 -130.4 140.1 C-129.5 137.5 -128.6 134.9 -127.8 132.2 C-125.2 124.3 -122.7 121.1 -115 117 C-112.4 115.4 -109.7 113.8 -107.1 112.1 C-100.3 108 -100.3 108 -98 108 C-97.7 106.4 -97.3 104.7 -97 103 C-95.7 99.5 -94.3 96.1 -92.9 92.7 C-92.5 91.7 -92.1 90.7 -91.6 89.6 C-90.8 87.5 -89.9 85.4 -89 83.3 C-87.7 80.1 -86.4 76.9 -85.1 73.6 C-84.2 71.6 -83.4 69.5 -82.5 67.5 C-82.1 66.5 -81.7 65.6 -81.3 64.6 C-78.3 57.3 -75.2 51.7 -69.2 46.6 C-66 43.8 -63 41 -59.9 37.9 C-59 37 -58 36 -57 35 C-56.7 35 -56.3 35 -56 35 C-56.8 42.5 -57.9 50 -59.1 57.4 C-61 69.7 -61 69.7 -61 72 C-60.5 71.1 -60 70.2 -59.4 69.3 C-51.1 55.1 -42.6 41 -34 27 C-33.7 27 -33.3 27 -33 27 C-33.7 39.7 -34.3 52.3 -35 65 C-30.4 57.4 -26.3 49.7 -22.4 41.8 C-19.4 35.9 -16.5 30.1 -13.4 24.2 C-13.2 23.7 -13.2 23.7 -11.8 21.1 C-8.1 14 -4.1 7 0 0 Z " fill="#415E62" transform="translate(281,158)"/>
<path d="M0 0 C30 0 30 0 35 4 C38.3 5.1 40.8 5.1 44.3 5.1 C45 5.1 45 5.1 48.4 5.2 C49.9 5.2 51.4 5.2 52.9 5.2 C56.2 5.2 59.5 5.2 62.8 5.2 C64.6 5.3 66.4 5.3 68.2 5.3 C104 5.5 139.7 6.4 175.5 7.6 C263.6 10.7 351.3 10.1 439.4 7.5 C444 7.4 448.6 7.2 453.3 7.1 C456.3 7 459.3 6.9 462.3 6.8 C479.4 6.3 496.4 5.9 513.5 5.8 C515.1 5.7 516.7 5.7 518.3 5.7 C525.9 5.6 533.5 5.6 541 5.5 C543.7 5.5 546.4 5.5 549.1 5.4 C549.7 5.4 549.7 5.4 552.8 5.4 C559.9 5.4 564.9 5.1 570 0 C579.9 0 589.8 0 600 0 C600 33 600 66 600 100 C402 100 204 100 0 100 C0 67 0 34 0 0 Z " fill="#D4E3D6" transform="translate(0,500)"/>
<path d="M0 0 C0.7 0 1.3 0 2 0 C4 8.7 4 8.7 14 52 C16.6 44.1 19.3 36.2 22 28 C22.7 28 23.3 28 24 28 C28.8 44.3 33.4 60.6 38 77 C39.2 81.5 40.5 86 41.8 90.4 C42 91.4 42.3 92.5 42.6 93.5 C43.9 98.2 45.3 102.8 46.8 107.4 C48 112 48 112 47 117 C43.5 120.1 43.5 120.1 39.1 123.4 C38.3 123.9 38.3 123.9 34.4 126.8 C33 127.9 31.5 128.9 30 130 C28.9 130.8 27.8 131.6 26.7 132.4 C20.3 137 20.3 137 18 137 C18 137.7 18 138.3 18 139 C16.4 140 14.7 141 13 142 C12 143 10.9 144.1 9.9 145.1 C5.9 149.1 1.7 152.6 -2.7 156.2 C-5 158 -5 158 -6 159 C-5.6 159 -5.6 159 -3.5 159 C19.9 159.4 42.6 160.9 65.2 167 C69.5 168.1 73.8 169.1 78.1 170 C84.9 171.5 91.6 173.2 98.3 175 C102.2 176.1 106.2 177 110.1 178 C116 179.5 121.8 181.1 127.5 182.9 C139.1 186.5 150.8 189.5 162.7 192 C166.6 192.9 170.4 193.9 174.2 194.9 C202.3 201.9 231.2 203.8 260 206 C257.1 199.8 254.9 196.6 249 193 C251.4 188.2 253.1 187.2 258 185 C260.7 184.9 263.3 184.9 266 185 C261.9 174.6 258.2 168.3 249 162 C238 154.1 234 144.3 229 132 C228.1 130.1 227.2 128.2 226.2 126.3 C224 121.9 222 117.5 220 113 C224.3 115.1 226.6 117.4 229.9 120.8 C231 121.9 232 122.9 233 124 C234 125 235 126 236 127 C237.7 128.7 239.3 130.3 241 132 C240.7 131.5 240.7 131.5 239.3 128.8 C238.5 127.3 237.7 125.9 236.9 124.4 C236.5 123.6 236.5 123.6 234.4 119.7 C232 115 232 115 230.4 111.2 C225.8 100.4 218.3 94.8 209 88 C207 86.3 205 84.7 203 83 C205 88 207.4 92.4 210 97.1 C215.5 106.8 217.2 111 216 122 C215 120.7 214 119.4 213 118 C206.9 110.8 206.9 110.8 203.4 107.8 C195.1 100.5 191.5 91.9 187.4 81.9 C184.7 75 181.3 68.6 177.7 62.2 C176 59 176 59 175 56 C175 56.8 175 57.7 175 58.5 C175.1 65 174.9 71.4 174.2 77.9 C173.8 84.2 174.5 87.6 178 93 C179.1 95.1 180.1 97.1 181.1 99.2 C181.6 100.2 182.1 101.2 182.6 102.2 C183.9 104.7 184.9 107.4 186 110 C188.3 112.4 190.8 114.7 193.2 117 C194.6 118.2 195.9 119.4 197.2 120.6 C199.5 122.7 201.9 124.8 204.4 126.8 C210.2 131.7 212.2 138.9 214.8 145.9 C216 149 216 149 219 154 C219.4 155.2 219.9 156.4 220.3 157.6 C221.7 161.1 223.1 164.3 224.9 167.7 C233.2 184.2 233.2 184.2 234 193 C233.3 194 232.7 195 232 196 C228.4 196 224.7 196 221 196 C220.6 194.6 220.2 193.2 219.8 191.8 C217.1 184.6 217.1 184.6 213 182 C208.9 181.6 205.1 181.8 201 182 C200.8 180.1 200.5 178.3 200.3 176.4 C199.4 170.9 198.3 167.8 194 164 C192.9 163.5 191.7 162.9 190.6 162.4 C186 159.4 185 156.9 183 151.9 C182.7 151.1 182.7 151.1 180.9 147 C179.7 143.7 178.5 140.4 177.4 137.1 C173.5 125.2 173.5 125.2 168.8 121.5 C165.3 119.8 161.7 118.3 158 117 C148.3 113.2 148.3 113.2 145.5 108.4 C144 104.6 143 100.9 142 97 C141.4 94.9 140.8 92.8 140.2 90.7 C135.4 74.2 135.4 74.2 134 67 C136.2 65.3 138.4 63.5 140.6 61.8 C141.8 60.8 143 59.9 144.3 58.9 C148 56 148 56 151.7 53.6 C155.4 50.7 156.9 48.2 159 44 C160.7 41 162.5 38 164.2 35.1 C164.7 34.3 164.7 34.3 167 30.5 C167.6 29.3 168.3 28.2 169 27 C173.3 28.4 174.6 31.3 177 35 C177 35.7 177 36.3 177 37 C177.7 37 178.3 37 179 37 C180 38.6 181 40.2 182 41.8 C185.8 47.8 190.1 53.5 194.4 59.2 C195.2 60.1 195.9 61.1 196.7 62.1 C198.4 64.4 200.2 66.7 202 69 C199.5 58.8 196.8 48.7 193.9 38.7 C193 35 193 35 194 32 C200.5 38.4 206.6 45 212.2 52.1 C216.1 56.1 219.3 58 224.4 60.2 C231 64.7 234.1 73.8 237.7 80.8 C238.7 82.8 239.8 84.9 240.9 86.9 C241.1 87.4 241.1 87.4 242.4 90 C244.8 94.5 247.1 99 249.5 103.6 C250.3 105 251 106.5 251.8 108.1 C255.7 115 259.9 120.2 265.6 125.8 C267 127.1 268.3 128.5 269.7 129.8 C273 133 273 133 275 134 C276.1 136.4 277.1 138.8 278 141.2 C278.6 142.7 279.2 144.2 279.9 145.8 C280.5 147.4 281.1 149 281.8 150.6 C282.4 152.2 283 153.7 283.6 155.3 C284.8 158.4 286 161.4 287.2 164.5 C289.8 171 292.4 177.5 295 184 C303 204 303 204 303 207 C304.4 207.4 305.8 207.8 307.2 208.2 C314 210.7 314 210.7 317 214 C317.8 217.2 317.8 217.2 318 220 C311.4 225.5 305.9 225.2 297.5 225.2 C294.8 225.3 292.1 225.3 289.4 225.3 C288 225.4 286.5 225.4 285.1 225.4 C258.2 225.7 231.3 226.2 204.4 227 C202.8 227 201.3 227.1 199.7 227.1 C185.2 227.5 170.8 227.9 156.3 228.3 C93 230.2 93 230.2 65.4 230.4 C63.2 230.4 61 230.5 58.8 230.5 C45.1 230.7 33.1 229.2 20 225 C19.4 224.8 19.4 224.8 16.2 223.8 C13 222.8 9.8 221.6 6.7 220.5 C5.5 220.1 4.4 219.7 3.2 219.2 C-9.6 214.5 -22.1 209.1 -34.5 203.5 C-56.1 194 -76.3 188.4 -100 187 C-97 185 -94.5 184 -91.1 182.8 C-89.9 182.4 -88.8 182 -87.5 181.5 C-86.3 181.1 -85 180.6 -83.8 180.2 C-82.5 179.7 -81.2 179.3 -79.9 178.8 C-76.3 177.5 -72.6 176.3 -69 175 C-67.5 174.5 -66.1 174 -64.6 173.4 C-46.4 167.3 -28.1 161.8 -9 160 C-9.2 158.5 -9.4 156.9 -9.6 155.3 C-10.1 151 -10.7 146.7 -11.2 142.4 C-11.7 138.6 -12.1 134.9 -12.6 131.1 C-12.8 129.7 -13 128.3 -13.2 126.9 C-13.3 126.3 -13.3 126.3 -13.7 123.2 C-13.8 121.8 -13.9 120.4 -14 119 C-14.1 118 -14.2 116.9 -14.3 115.9 C-15 105.6 -11.7 99.4 -6.2 90.9 C-5.4 89.8 -4.7 88.6 -4 87.4 C-2.6 85.2 -1.2 83 0.2 80.8 C5 73.3 5 73.3 4.8 70 C3.4 64.8 1.4 59.7 -0.6 54.6 C-1 53.5 -1.5 52.3 -1.9 51.1 C-5 43.2 -8.4 35.6 -12.4 28.2 C-13.9 25.2 -15 22.2 -16 19 C-15.1 18 -14.2 16.9 -13.3 15.9 C-12.7 15.2 -12.7 15.2 -9.7 11.8 C-8.5 10.4 -7.3 9.1 -6.1 7.7 C-4 5.2 -2 2.6 0 0 Z " fill="#506885" transform="translate(252,281)"/>
<path d="M0 0 C3.4 3.4 4.5 6.1 6.4 10.5 C7 12 7.7 13.5 8.4 15 C9.7 18.2 11.1 21.3 12.4 24.5 C17.2 35.3 22.9 43.4 31 52 C38.1 60.3 45.1 68.5 52 77 C48.6 64.2 44.5 51.6 40.4 38.9 C39.9 37.5 39.4 36.1 39 34.7 C38 31.9 37.1 29.1 36.2 26.2 C35.7 24.9 35.3 23.6 34.9 22.3 C34.5 21.1 34.1 20 33.7 18.8 C33 16 33 16 34 14 C39.2 19.2 44.2 24.4 49 30 C50 31.1 50.9 32.2 51.9 33.3 C67 50.8 67 50.8 67 54 C67.7 54.2 67.7 54.2 71 55 C77.5 58.4 80.2 61.1 83 67.8 C83.7 69.3 84.4 70.8 85 72.3 C85.7 73.9 86.4 75.5 87.1 77.1 C92.7 90.1 98.6 101.5 106.9 112.9 C120 131.1 120 131.1 120 134 C120.7 134.3 121.3 134.7 122 135 C121.3 135.5 120.6 136 119.9 136.5 C115.3 140.5 111.5 145.2 107.6 149.8 C103 155 99.2 158.9 93 162 C91.5 163 89.9 164.1 88.4 165.1 C84 168 84 168 79 170 C78.3 171.3 77.7 172.6 77 174 C75.4 175.9 73.7 177.8 71.9 179.6 C67.1 184.8 67.1 184.8 66 187 C65.3 187 64.7 187 64 187 C63.3 188.3 62.7 189.6 62 191 C60.4 192.9 58.7 194.8 56.9 196.6 C56 197.7 55 198.7 53.9 199.8 C53 200.9 52 201.9 51 203 C49.4 204.7 47.8 206.5 46.2 208.2 C45.5 209 44.8 209.8 44.1 210.7 C42.7 212.2 41.3 213.8 40 215.4 C38.4 217.3 36.7 219.2 35 221 C34 221 33 221 32 221 C21.3 205 15.9 196.2 15.9 176.7 C15.6 144.7 15.6 144.7 3.8 132.5 C2.5 131.4 1.3 130.2 0 129 C-2.1 126.5 -4.1 123.9 -6.1 121.2 C-8.5 118.1 -10.9 115.1 -13.6 112.3 C-17.9 106.4 -17 99.8 -17.1 92.8 C-17.1 91.3 -17.1 89.8 -17.1 88.2 C-16.7 74.5 -13.1 66.4 -4 56 C-0.1 50.8 -0.6 47.9 -0.7 41.4 C-0.7 40.4 -0.7 39.3 -0.7 38.3 C-0.7 36.1 -0.7 33.9 -0.7 31.7 C-0.7 28.4 -0.8 25 -0.8 21.7 C-0.8 5.3 -0.8 5.3 -2 3 C-1.3 2 -0.7 1 0 0 Z " fill="#6E8598" transform="translate(281,158)"/>
<path d="M0 0 C0.7 0 1.3 0 2 0 C4 8.7 4 8.7 14 52 C16.6 44.1 19.3 36.2 22 28 C22.7 28 23.3 28 24 28 C28.8 44.3 33.4 60.6 38 77 C39.2 81.5 40.5 86 41.8 90.4 C42 91.4 42.3 92.5 42.6 93.5 C43.9 98.2 45.3 102.8 46.8 107.4 C48 112 48 112 47 117 C43.5 120.1 43.5 120.1 39.1 123.4 C38.3 123.9 38.3 123.9 34.4 126.8 C33 127.9 31.5 128.9 30 130 C28.9 130.8 27.8 131.6 26.7 132.4 C20.3 137 20.3 137 18 137 C18 137.7 18 138.3 18 139 C16.4 140 14.7 141 13 142 C12 143 10.9 144.1 9.9 145.1 C5.9 149.1 1.7 152.6 -2.7 156.2 C-5 158 -5 158 -6 159 C-5.6 159 -5.6 159 -3.5 159 C19.9 159.4 42.6 160.9 65.2 167 C69.5 168.1 73.8 169.1 78.1 170 C84.9 171.5 91.6 173.2 98.3 175 C102.2 176.1 106.2 177 110.1 178 C116 179.5 121.8 181.1 127.5 182.9 C139.1 186.5 150.8 189.5 162.6 192 C168.3 193.3 173.9 194.7 179.5 196.1 C183.6 197.2 187.8 198.1 192 199 C192 199.3 192 199.7 192 200 C191 200 190 200 189 200.1 C90 202.1 90 202.1 55.2 227.8 C44 233.6 31.2 228.5 20 225 C1.3 219 -16.6 211.5 -34.5 203.5 C-56.1 194 -76.3 188.4 -100 187 C-97 185 -94.5 184 -91.1 182.8 C-89.9 182.4 -88.8 182 -87.5 181.5 C-86.3 181.1 -85 180.6 -83.8 180.2 C-82.5 179.7 -81.2 179.3 -79.9 178.8 C-76.3 177.5 -72.6 176.3 -69 175 C-67.5 174.5 -66.1 174 -64.6 173.4 C-46.4 167.3 -28.1 161.8 -9 160 C-9.2 158.5 -9.4 156.9 -9.6 155.3 C-10.1 151 -10.7 146.7 -11.2 142.4 C-11.7 138.6 -12.1 134.9 -12.6 131.1 C-12.8 129.7 -13 128.3 -13.2 126.9 C-13.3 126.3 -13.3 126.3 -13.7 123.2 C-13.8 121.8 -13.9 120.4 -14 119 C-14.1 118 -14.2 116.9 -14.3 115.9 C-15 105.6 -11.7 99.4 -6.2 90.9 C-5.4 89.8 -4.7 88.6 -4 87.4 C-2.6 85.2 -1.2 83 0.2 80.8 C5 73.3 5 73.3 4.8 70 C3.4 64.8 1.4 59.7 -0.6 54.6 C-1 53.5 -1.5 52.3 -1.9 51.1 C-5 43.2 -8.4 35.6 -12.4 28.2 C-13.9 25.2 -15 22.2 -16 19 C-15.1 18 -14.2 16.9 -13.3 15.9 C-12.7 15.2 -12.7 15.2 -9.7 11.8 C-8.5 10.4 -7.3 9.1 -6.1 7.7 C-4 5.2 -2 2.6 0 0 Z " fill="#6D9274" transform="translate(252,281)"/>
<path d="M0 0 C4.6 1.5 5.9 5.2 8.4 9.1 C11.4 13.7 14.5 18.2 17.6 22.8 C18.8 24.6 20 26.4 21.3 28.2 C23.8 32 26.4 35.9 29 39.7 C29.6 40.6 30.3 41.6 30.9 42.6 C32.2 44.5 33.5 46.4 34.8 48.2 C38.2 53.3 41.5 58.3 44.9 63.3 C45.5 64.3 46.2 65.3 46.9 66.3 C48.5 68.8 50.1 71.2 51.8 73.6 C54.4 77.1 56.9 79.9 59.9 82.9 C66.4 90 69.4 98.2 72.9 107.1 C73.5 108.6 74.1 110.2 74.8 111.9 C76.6 116.2 78.3 120.6 80 125 C80.8 127 81.6 129.1 82.4 131.1 C83 132.4 83.5 133.7 84 135 C72.9 130.6 72.9 130.6 69.2 124.9 C65.2 119.2 60.7 114.1 56 109 C53.7 106.3 51.3 103.7 49 101 C46 97.7 43 94.3 40 91 C42.6 100.1 45.3 109 48.5 117.9 C51.4 126 53.8 134 56 142.3 C57 146 57 146 59 151 C58.7 152 58.3 153 58 154 C55.1 150.7 52.3 147.3 49.4 144 C47.2 141.5 45.1 138.9 42.9 136.4 C41.9 135.2 40.9 134.1 39.9 132.9 C39 131.8 38.1 130.8 37.2 129.7 C36.1 128.5 35.1 127.3 34 126 C33.3 125.2 32.5 124.4 31.7 123.6 C23.9 114.9 19.5 105.4 14.9 94.8 C14.1 93 13.3 91.3 12.6 89.6 C10.7 85.4 8.8 81.2 7 77 C4.6 80.2 2.8 83.1 1 86.7 C0.4 87.8 -0.1 88.9 -0.7 90 C-1.3 91.2 -1.9 92.4 -2.6 93.6 C-7.5 103.2 -12.5 112.7 -17.8 122 C-20.6 127 -23.1 132.1 -25.5 137.3 C-27 140 -27 140 -30 143 C-29.4 130 -28.7 117 -28 104 C-28.5 104.8 -29 105.7 -29.5 106.5 C-31.7 110.3 -33.9 114.1 -36.1 117.9 C-36.5 118.5 -36.5 118.5 -38.4 121.8 C-50.5 142.5 -50.5 142.5 -55 149 C-56.2 145.3 -55.7 143.1 -55 139.3 C-54.8 138 -54.5 136.6 -54.3 135.3 C-54.1 133.9 -53.8 132.5 -53.6 131.1 C-53.1 128.3 -52.6 125.6 -52.1 122.8 C-51.9 121.6 -51.7 120.4 -51.5 119.2 C-51 116 -51 116 -51 112 C-55.6 116.6 -60.2 121.2 -65 126 C-65.7 125.7 -66.3 125.3 -67 125 C-65 118.6 -62.5 112.9 -59.3 106.9 C-58.5 105.4 -57.7 103.9 -56.9 102.4 C-56.2 101.3 -55.6 100.2 -55 99 C-54.3 99.7 -53.7 100.3 -53 101 C-53.2 100.2 -53.2 100.2 -54 96 C-51 90.7 -47.6 86.6 -43.4 82.2 C-38.3 76.8 -36.8 71.2 -35 64 C-34 61 -33 58 -32 55 C-31.5 53.4 -31.1 51.7 -30.6 50.1 C-27.6 40.6 -23.9 32.9 -18.1 24.9 C-17.5 24 -16.9 23.2 -16.3 22.3 C-12.6 17.2 -8.8 12.1 -5 7 C-4.8 7.3 -4.8 7.3 -4 9 C-3.3 8.7 -2.7 8.3 -2 8 C-2.2 7.3 -2.2 7.3 -3 4 C-2 2.7 -1 1.4 0 0 Z " fill="#F8EBD6" transform="translate(275,82)"/>
<path d="M0 0 C0.2 6.6 0.4 13.1 0.5 19.7 C0.6 21.9 0.7 24.1 0.8 26.4 C1.3 41.2 0.1 51.3 -10 63 C-17.7 72.5 -16.6 80.9 -16.1 92.6 C-15.9 104.1 -19.2 109.7 -27 118 C-28.1 119.3 -29.2 120.6 -30.3 121.9 C-31.2 123 -32.1 124 -33.1 125.1 C-37.6 130.3 -42 135.7 -46.3 141.1 C-46.8 141.7 -47.4 142.3 -48 143 C-48.7 143 -49.3 143 -50 143 C-52.6 148.1 -54.2 153.5 -56 159 C-56.2 159.6 -56.2 159.6 -57.2 162.6 C-58 165.1 -58.8 167.6 -59.6 170.1 C-60.9 173.9 -62.1 177.7 -63.3 181.5 C-64.1 183.9 -64.9 186.4 -65.7 188.8 C-66.1 190 -66.5 191.1 -66.9 192.2 C-67 192.8 -67 192.8 -67.9 195.5 C-68.3 196.6 -68.6 197.7 -69 198.7 C-69.7 201 -70.4 203.3 -71 205.6 C-71.2 206.1 -71.2 206.1 -72 209 C-72.3 210.1 -72.6 211.1 -72.9 212.2 C-74.8 217 -78.2 219.7 -82 223 C-83.3 224.2 -84.6 225.4 -86 226.6 C-88.6 228.8 -91.3 231 -94 233.1 C-98.4 237.4 -100.3 240.9 -102.8 246.6 C-103 247 -103 247 -104 249.3 C-105.3 252.2 -106.5 255.1 -107.8 257.9 C-109 260.8 -110.3 263.7 -111.5 266.5 C-112.7 269.1 -113.8 271.7 -114.9 274.3 C-116.8 278.6 -118.9 282.8 -121 287 C-122.3 287.1 -123.5 287.2 -124.8 287.3 C-129 288 -129 288 -132 291 C-132.7 291 -133.3 291 -134 291 C-134.2 289.6 -134.5 288.3 -134.7 286.9 C-136.3 280.7 -138.5 277.7 -143.8 274.1 C-150 272 -154.9 272.6 -161 275 C-156.5 263.7 -148.8 250.9 -138.7 243.8 C-135.2 241.5 -132.2 238.8 -129 236.1 C-127.8 235 -126.6 234 -125.4 233 C-108.9 218.6 -108.9 218.6 -106.2 209.4 C-105.7 207.7 -105.2 205.9 -104.7 204.2 C-104.1 202.3 -103.6 200.5 -103.1 198.6 C-101.5 193.3 -99.9 188 -98.4 182.8 C-97.5 179.8 -96.7 176.9 -95.9 174 C-93.5 165.5 -90.4 161.7 -84 156 C-81.6 153.3 -79.3 150.7 -77 148 C-76.2 147.3 -75.5 146.6 -74.7 145.9 C-66.4 137.8 -63.5 128.8 -60.1 117.9 C-59 114.6 -58 111.2 -56.9 107.9 C-56.4 106.3 -55.9 104.8 -55.4 103.2 C-52.6 94.6 -49.2 87.5 -44 80 C-41 75.2 -38.3 70.8 -36.3 65.5 C-33.6 58.9 -30.3 52.7 -27 46.3 C-26.3 45 -25.7 43.8 -25 42.5 C-23.7 39.9 -22.3 37.3 -21 34.7 C-19.1 31.2 -17.3 27.7 -15.5 24.2 C-14.4 22.2 -13.4 20.2 -12.3 18.1 C-11.8 17.2 -11.4 16.3 -10.9 15.3 C-2.9 0 -2.9 0 0 0 Z " fill="#253B59" transform="translate(281,162)"/>
<path d="M0 0 C6.5 6.5 9.8 17.5 13.7 25.8 C14.3 27 14.9 28.2 15.5 29.5 C17 33 17 33 17.9 36 C21 45.6 28.1 51.6 35.3 58.3 C39 62 39 62 41 66 C43.5 56.7 40.1 51.3 35.5 43.1 C33.8 40.3 32 37.5 30.1 34.7 C29.4 33.5 28.7 32.2 28 31 C28.2 30.5 28.2 30.5 29 28 C30.2 29.1 31.4 30.2 32.7 31.4 C36.5 34.8 40.6 37.9 44.8 41 C49.9 44.9 53.1 48.1 56 54 C56.3 54.6 56.3 54.6 57.9 57.8 C60 61.8 62 65.9 64 70 C64.8 71.4 65.5 72.9 66.3 74.4 C66.9 75.6 67.4 76.8 68 78 C67.7 78.7 67.3 79.3 67 80 C66.5 79.4 66.5 79.4 63.9 76.6 C62.5 75.1 61.1 73.7 59.8 72.2 C58.4 70.7 57.1 69.3 55.7 67.8 C52 64 52 64 48 61 C51.9 70.1 55.9 79.1 60.5 88 C62 91 62 91 63.7 95.2 C68.2 102.6 75.1 108.1 82.3 112.8 C87.7 117.5 90.5 123.4 93 130 C92.7 130.7 92.3 131.3 92 132 C91.4 131.9 91.4 131.9 88.5 131.7 C83.1 132.1 80.3 133.8 76 137 C75.7 137.7 75.3 138.3 75 139 C76.3 139.7 77.6 140.3 79 141 C82.9 144.4 84.7 147 86 152 C64.1 152.3 42.3 149.6 20.8 146.1 C20.1 145.9 20.1 145.9 16.4 145.3 C8.3 143.9 0.4 142.2 -7.5 140 C-12.8 138.5 -18.1 137.3 -23.5 136 C-32.7 133.8 -41.9 131.5 -51 129 C-48.5 122.8 -44.9 117.5 -41.3 111.9 C-38.9 108.2 -37.1 105.2 -36 101 C-37.2 96.1 -38.6 91.2 -40 86.3 C-42.2 78.4 -42.2 78.4 -40 74 C-38.5 71.8 -37.1 69.7 -35.6 67.5 C-34.8 66.4 -34 65.3 -33.2 64.1 C-31.5 61.7 -29.8 59.3 -28 57 C-23 58 -20 59.7 -15.8 62.4 C-13 64 -13 64 -10.1 65.1 C-5.1 67 -1.9 68.7 1 73.2 C2.8 77.1 4.2 81 5.6 85 C6.5 87.7 7.5 90.4 8.5 93.1 C8.9 94.2 9.3 95.4 9.7 96.7 C12.6 104.3 15 106.8 22 111 C27.1 116.5 27.1 120.6 27 128 C28 127.7 29 127.3 30 127 C38.1 126.3 38.1 126.3 41.9 129.4 C42.3 129.8 42.3 129.8 44 132 C44.7 132.7 45.3 133.3 46 134 C46.4 136.7 46.7 139.3 47 142 C47.7 141.7 48.3 141.3 49 141 C55.5 140.8 55.5 140.8 58 142 C59.7 135.5 58 131.9 55 126 C53.7 123 52.3 120 51 117 C50.3 115.5 49.7 114.1 49 112.6 C47.6 109.3 46.2 106 44.9 102.8 C43 98 43 98 40 93 C39.4 91.3 38.8 89.5 38.2 87.8 C34.5 77.4 28.2 70.9 20 64 C10 55.3 10 55.3 7 48 C5.2 44.2 3.4 40.5 1.5 36.7 C-1.1 30.4 -1.1 24.9 -0.6 18.2 C-0.1 12.1 0.1 6.1 0 0 Z " fill="#3C546C" transform="translate(426,335)"/>
<path d="M0 0 C0.3 0 0.7 0 1 0 C0.2 7.4 -0.8 14.8 -1.9 22.1 C-2.1 23.3 -2.3 24.4 -2.5 25.6 C-2.6 26.7 -2.8 27.8 -3 28.9 C-3.1 29.9 -3.3 30.9 -3.4 32 C-4.8 39.1 -7.4 45.5 -10.2 52.2 C-10.6 53.2 -11 54.1 -11.5 55.1 C-12.8 58.2 -14.1 61.3 -15.4 64.4 C-16.2 66.4 -17.1 68.5 -18 70.6 C-20.3 76 -22.6 81.5 -25 87 C-25.6 88.6 -26.3 90.2 -27 91.8 C-29 95.9 -30.8 98.4 -34.1 101.6 C-35.1 102.5 -36 103.5 -37 104.5 C-38 105.4 -39 106.4 -40.1 107.4 C-41.1 108.4 -42.1 109.3 -43.1 110.4 C-45 112.2 -46.8 114 -48.7 115.8 C-54.3 121.2 -55.7 126.1 -57.7 133.5 C-58.5 136 -59.2 138.6 -59.9 141.1 C-61.1 145.2 -62.2 149.2 -63.3 153.2 C-64.4 157.1 -65.5 161 -66.6 164.9 C-66.9 166.1 -67.2 167.2 -67.6 168.5 C-69.9 176.5 -72.7 180.5 -79 186 C-80.1 187.3 -81.2 188.6 -82.4 189.9 C-86 194 -86 194 -88.2 196 C-96.1 203.2 -101 211.8 -106.2 220.9 C-109.6 226.8 -113.2 232.6 -116.8 238.4 C-117.4 239.6 -118.1 240.7 -118.9 241.9 C-123 248.7 -127.1 255.4 -131.2 262.1 C-132.4 264 -133.6 266 -134.7 267.9 C-138.8 274.3 -141.9 275.9 -149 278 C-153.4 282.7 -153.1 285.1 -154 292 C-160.9 292.7 -167.9 293.3 -175 294 C-173 288.1 -170.4 282.8 -167.5 277.3 C-167 276.3 -166.4 275.3 -165.9 274.2 C-164.8 272.1 -163.7 270 -162.6 267.9 C-160.4 263.9 -158.3 259.8 -156.1 255.7 C-147.1 238.6 -138.1 221.7 -128.5 204.9 C-125.4 199.6 -122.6 194.2 -119.8 188.6 C-115.8 180.9 -110.4 176 -103.3 171.2 C-94.8 165.1 -92.2 158.7 -89.2 148.9 C-88.3 146.2 -87.5 143.6 -86.6 140.9 C-86.2 139.6 -85.8 138.3 -85.3 137 C-83.5 131.7 -81.5 126.5 -79.3 121.3 C-77.7 117.4 -76.3 113.4 -74.9 109.4 C-74.4 108 -73.9 106.6 -73.4 105.1 C-72.5 102.5 -71.6 99.9 -70.8 97.2 C-68.2 89.3 -65.7 86.1 -58 82 C-55.4 80.4 -52.7 78.8 -50.1 77.1 C-43.3 73 -43.3 73 -41 73 C-40.7 71.4 -40.3 69.7 -40 68 C-38.7 64.5 -37.3 61.1 -35.9 57.7 C-35.5 56.7 -35.1 55.7 -34.6 54.6 C-33.8 52.5 -32.9 50.4 -32 48.3 C-30.7 45.1 -29.4 41.9 -28.1 38.6 C-27.2 36.6 -26.4 34.5 -25.5 32.5 C-25.1 31.5 -24.7 30.6 -24.3 29.6 C-21.3 22.3 -18.2 16.7 -12.2 11.6 C-9 8.8 -6 6 -2.9 2.9 C-2 2 -1 1 0 0 Z " fill="#253B59" transform="translate(224,193)"/>
<path d="M0 0 C0.3 0 0.7 0 1 0 C0.9 1.1 0.9 2.3 0.8 3.4 C0.7 5 0.6 6.6 0.6 8.2 C0.5 9.9 0.4 11.6 0.3 13.4 C0.1 17.1 -0 20.8 -0.1 24.6 C-0.6 39.8 -3.2 48.9 -11.8 61.6 C-15.8 67.7 -18.7 73.4 -20.9 80.3 C-21.2 81.1 -21.2 81.1 -22.5 85.1 C-23 86.7 -23.5 88.3 -24.1 90 C-25.1 93.2 -26.2 96.5 -27.2 99.7 C-27.7 101.1 -28.1 102.5 -28.6 104 C-30.9 110.6 -33 115.5 -37.8 120.5 C-38.7 121.5 -39.7 122.5 -40.6 123.5 C-42.8 125.8 -45.1 128 -47.4 130.1 C-58.3 140.5 -62 151.3 -65.7 165.4 C-66.3 167.4 -66.9 169.5 -67.4 171.6 C-68.5 175.4 -69.6 179.2 -70.6 183 C-74.7 197.6 -74.7 197.6 -81.6 203 C-82.8 204 -84.1 205 -85.4 206.1 C-86.6 207 -87.8 208 -89 209 C-90.7 210.5 -92.4 212.1 -94.1 213.6 C-96.6 216 -99.1 218.1 -102 220 C-113.4 227.7 -119.2 238.4 -126 250 C-129 255 -129 255 -132 259 C-133.8 264.3 -133.3 269.6 -132 275 C-131.3 275 -130.7 275 -130 275 C-130 276 -130 277 -130 278 C-129 277.4 -127.9 276.7 -126.9 276.1 C-123.2 274.1 -121.1 273 -117 273 C-113.6 274.9 -113.6 274.9 -111 277 C-111 278 -111 279 -111 280 C-109 280 -107 280 -105 280 C-105 280.7 -105 281.3 -105 282 C-103.7 282.7 -102.4 283.3 -101 284 C-117.5 290.5 -135.2 294.1 -152.6 296.9 C-153.9 297.1 -155.2 297.4 -156.6 297.6 C-163.1 298.6 -169.4 299.2 -176 299 C-177 294.8 -177.3 292.7 -175.4 288.8 C-171.7 284.5 -168.4 283.1 -163 282 C-160.5 278.4 -158.2 274.8 -156 271 C-154.5 268.6 -153 266.2 -151.5 263.7 C-146.5 255.8 -141.7 247.9 -136.9 239.9 C-136 238.2 -135 236.6 -134 234.9 C-132 231.6 -130 228.4 -128.1 225.1 C-121.3 213.7 -113.6 205 -104 196 C-97.2 188.8 -93.5 182.1 -90.8 172.5 C-90.5 171.5 -90.2 170.5 -89.8 169.5 C-88.9 166.2 -87.9 163 -87 159.8 C-86.1 156.5 -85.1 153.3 -84.2 150.1 C-83.3 147.1 -82.4 144.2 -81.6 141.3 C-81.1 139.5 -80.5 137.8 -80 136 C-79.5 134.4 -79.1 132.7 -78.6 131.1 C-75.9 124.1 -69.3 119.8 -63.5 115.3 C-50.2 103.9 -45.5 89 -39.5 73 C-37.5 67.8 -35.4 62.8 -33.2 57.7 C-31.3 53.3 -29.9 49.7 -29 45 C-28.3 45 -27.7 45 -27 45 C-26.5 44.1 -26 43.2 -25.4 42.3 C-17.1 28.1 -8.6 14 0 0 Z " fill="#3A526B" transform="translate(247,185)"/>
<path d="M0 0 C5.1 3.3 7.1 7 8.8 12.8 C9.4 12.8 9.4 12.8 12.6 12.6 C16.8 12.8 16.8 12.8 19.8 15.8 C20.1 16.8 20.4 17.8 20.8 18.8 C21.7 18.9 22.7 19 23.8 19.1 C34 20.3 41.6 21.8 48.8 29.8 C47.8 34.8 47.8 34.8 43.8 37.8 C38.8 39.5 33.5 39 28.3 39.1 C25.6 39.1 22.9 39.1 20.2 39.2 C19.5 39.2 19.5 39.2 15.9 39.2 C-11.2 39.5 -38.2 40 -65.3 40.8 C-66.8 40.8 -68.4 40.9 -70.1 40.9 C-83 41.3 -95.9 41.6 -108.9 42 C-120.2 42.3 -131.5 42.7 -142.8 43 C-144.4 43 -145.9 43.1 -147.5 43.1 C-171.1 43.7 -194.6 44.1 -218.2 43.8 C-184.3 16 -136.4 14.4 -94.6 13.1 C-93.7 13 -93.7 13 -89.5 12.9 C-79.4 12.6 -70.2 13.2 -60.3 15 C-50.6 16.6 -40.8 17.2 -31.1 18 C-28.9 18.2 -26.8 18.4 -24.7 18.5 C-19.5 19 -14.4 19.4 -9.2 19.8 C-12.1 13.6 -14.4 10.4 -20.2 6.8 C-16.1 -1.4 -8.4 -3.1 0 0 Z " fill="#547769" transform="translate(521.25,467.1875)"/>
<path d="M0 0 C0.7 0 1.3 0 2 0 C6 17.3 10 34.7 14 52 C16.6 44.1 19.3 36.2 22 28 C22.7 28 23.3 28 24 28 C28.8 44.3 33.4 60.6 38 77 C39.2 81.5 40.5 86 41.8 90.4 C42 91.4 42.3 92.5 42.6 93.5 C43.9 98.2 45.3 102.8 46.8 107.4 C48 112 48 112 47 117 C43.5 120.1 43.5 120.1 39.1 123.4 C37.5 124.5 36 125.6 34.4 126.8 C33 127.9 31.5 128.9 30 130 C28.9 130.8 27.8 131.6 26.7 132.4 C20.3 137 20.3 137 18 137 C18 137.7 18 138.3 18 139 C16.4 140 14.7 141 13 142 C12 143 10.9 144.1 9.9 145.1 C5.9 149.1 1.7 152.6 -2.7 156.2 C-5 158 -5 158 -6 159 C-3.7 159.3 -1.4 159.7 1 160 C1 160.3 1 160.7 1 161 C-3 161 -6.9 161 -11 161 C-10.3 160.7 -9.7 160.3 -9 160 C-9.2 158.5 -9.4 156.9 -9.6 155.3 C-10.1 151 -10.7 146.7 -11.2 142.4 C-11.7 138.6 -12.1 134.9 -12.6 131.1 C-12.8 129.7 -13 128.3 -13.2 126.9 C-13.3 125.7 -13.5 124.5 -13.7 123.2 C-13.8 121.8 -13.9 120.4 -14 119 C-14.1 118 -14.2 116.9 -14.3 115.9 C-15 105.6 -11.7 99.4 -6.2 90.9 C-5.4 89.8 -4.7 88.6 -4 87.4 C-2.6 85.2 -1.2 83 0.2 80.8 C5 73.3 5 73.3 4.8 70 C3.4 64.8 1.4 59.7 -0.6 54.6 C-1 53.5 -1.5 52.3 -1.9 51.1 C-5 43.2 -8.4 35.6 -12.4 28.2 C-13.9 25.2 -15 22.2 -16 19 C-15.1 18 -14.2 16.9 -13.3 15.9 C-12.1 14.5 -10.9 13.1 -9.7 11.8 C-9.1 11.1 -9.1 11.1 -6.1 7.7 C-4 5.2 -2 2.6 0 0 Z " fill="#4F6784" transform="translate(252,281)"/>
<path d="M0 0 C2.6 5.1 2.7 10 3.1 15.6 C3.2 16.7 3.3 17.7 3.4 18.8 C4.1 28.3 4.6 37 1.9 46.2 C-0.9 56.1 1.3 61 5.8 69.9 C7 73 7 73 6 78 C5.1 80.1 4 82.2 3 84.2 C2.4 85.4 1.7 86.6 1.1 87.8 C0.4 89.1 -0.2 90.4 -0.9 91.7 C-1.6 93 -2.3 94.3 -3 95.6 C-7.5 104.2 -12.1 112.7 -16.8 121.1 C-19.6 126.1 -22.1 131.1 -24.5 136.3 C-26 139 -26 139 -29 142 C-28.4 129 -27.7 116 -27 103 C-27.5 103.8 -28 104.7 -28.5 105.5 C-30.7 109.3 -32.9 113.1 -35.1 116.9 C-35.5 117.5 -35.5 117.5 -37.4 120.8 C-49.5 141.5 -49.5 141.5 -54 148 C-55.2 144.3 -54.7 142.1 -54 138.3 C-53.8 137 -53.5 135.6 -53.3 134.3 C-53.1 132.9 -52.8 131.5 -52.6 130.1 C-52.1 127.3 -51.6 124.6 -51.1 121.8 C-50.9 120.6 -50.7 119.4 -50.5 118.2 C-50 115 -50 115 -50 111 C-54.6 115.6 -59.2 120.2 -64 125 C-64.7 124.7 -65.3 124.3 -66 124 C-64 117.6 -61.5 111.9 -58.3 105.9 C-57.5 104.4 -56.7 102.9 -55.9 101.4 C-55.2 100.3 -54.6 99.2 -54 98 C-53.3 98.7 -52.7 99.3 -52 100 C-52.2 99.2 -52.2 99.2 -53 95 C-50 89.7 -46.6 85.6 -42.4 81.2 C-37.3 75.8 -35.8 70.2 -34 63 C-33 60 -32 57 -31 54 C-30.5 52.4 -30.1 50.7 -29.6 49.1 C-26.6 39.6 -22.9 31.9 -17.1 23.9 C-16.5 23 -15.9 22.2 -15.3 21.3 C-11.6 16.2 -7.8 11.1 -4 6 C-3.8 6.3 -3.8 6.3 -3 8 C-2.3 7.7 -1.7 7.3 -1 7 C-1.2 6.3 -1.2 6.3 -2 3 C-1.3 2 -0.7 1 0 0 Z " fill="#D2DFD1" transform="translate(274,83)"/>
<path d="M0 0 C3.7 4.2 6.2 8.8 8.8 13.8 C9.6 15.5 10.5 17.2 11.4 18.9 C15 25.9 18.5 33 22 40 C23.9 43.7 25.7 47.3 27.6 51 C28.8 53.6 29.9 56.3 31 59 C33.3 61.4 35.8 63.7 38.2 66 C39.6 67.2 40.9 68.4 42.2 69.6 C44.5 71.7 46.9 73.8 49.4 75.8 C55.2 80.7 57.2 87.9 59.8 94.9 C61 98 61 98 64 103 C64.4 104.2 64.9 105.4 65.3 106.6 C66.7 110.1 68.1 113.3 69.9 116.7 C78.2 133.2 78.2 133.2 79 142 C78.3 143 77.7 144 77 145 C73.4 145 69.7 145 66 145 C65.6 143.6 65.2 142.2 64.8 140.8 C62.1 133.6 62.1 133.6 58 131 C53.9 130.6 50.1 130.8 46 131 C45.8 129.1 45.5 127.3 45.3 125.4 C44.4 119.9 43.3 116.8 39 113 C37.9 112.5 36.7 111.9 35.6 111.4 C31 108.4 30 105.9 28 100.9 C27.3 99.3 26.6 97.7 25.9 96 C24.7 92.7 23.5 89.4 22.4 86.1 C18.5 74.2 18.5 74.2 13.8 70.5 C10.3 68.8 6.7 67.3 3 66 C-6.7 62.2 -6.7 62.2 -9.5 57.4 C-11 53.6 -12 49.9 -13 46 C-13.6 43.9 -14.2 41.8 -14.8 39.7 C-19.6 23.2 -19.6 23.2 -21 16 C-18.8 14.3 -16.6 12.5 -14.4 10.8 C-13.2 9.8 -12 8.9 -10.7 7.9 C-7.2 5.2 -3.6 2.6 0 0 Z " fill="#6D8498" transform="translate(407,332)"/>
<path d="M0 0 C1 0.3 2 0.7 3 1 C3.2 1.8 3.5 2.6 3.7 3.4 C4.7 7.1 5.8 10.8 6.8 14.5 C7.2 15.8 7.5 17 7.9 18.3 C9.4 23.5 10.8 28.6 12.8 33.7 C14 37 14 37 13 41 C11.6 43.2 10.2 45.3 8.7 47.4 C7.9 48.5 7.1 49.7 6.3 50.8 C4 54 4 54 1.6 56.4 C0 59 0 59 0.4 62.6 C0.6 63.2 0.6 63.2 1.6 66.6 C2 68 2.4 69.4 2.8 70.9 C3.5 73.3 4.3 75.8 5.1 78.2 C6.4 83 6.4 86.3 4.1 90.8 C1.5 94.6 -1.2 98.3 -4 102 C-5.2 103.8 -6.4 105.6 -7.6 107.4 C-8 108 -8 108 -10 111 C-18.4 109.5 -26.5 107.6 -34.7 105 C-46.2 101.5 -58 99.1 -69.8 96.8 C-74.6 95.8 -79.3 94.7 -84 93 C-79.4 87.3 -74.3 82.3 -69.1 77.2 C-66.9 74.9 -64.8 72.6 -62.7 70.2 C-58.6 65.6 -54.4 61.3 -50.1 57 C-49.3 56.2 -48.5 55.5 -47.7 54.7 C-45.8 52.8 -43.9 50.9 -42 49 C-40.5 53.4 -42 56.1 -43.3 60.5 C-43.8 62.2 -44.3 63.9 -44.8 65.6 C-45.4 67.4 -45.9 69.2 -46.4 71 C-47.5 74.5 -48.5 78 -49.6 81.5 C-50 83.1 -50.5 84.6 -51 86.2 C-52 90 -52 90 -52 93 C-45.5 86.1 -39.2 79.2 -33.3 71.7 C-31 69 -31 69 -28.1 66.6 C-16.4 56.2 -14 41.5 -10.1 27 C-8.6 21.5 -6.8 16 -5 10.6 C-4.5 8.9 -3.9 7.3 -3.4 5.6 C-2 2 -2 2 0 0 Z " fill="#253B59" transform="translate(385,352)"/>
<path d="M0 0 C4.3 2.2 5.5 9.4 7.2 13.7 C7.7 14.9 8.1 16.1 8.6 17.3 C8.9 17.9 8.9 17.9 10 20.8 C10.2 21.3 10.2 21.3 11.2 23.9 C12.5 28.8 11.6 31.8 9.3 36.2 C9 36.8 9 36.8 7.2 39.6 C6.5 40.9 5.7 42.1 4.9 43.4 C4.1 44.7 3.3 45.9 2.5 47.2 C0.9 49.8 -0.6 52.3 -2.2 54.9 C-2.9 56 -3.6 57.1 -4.3 58.3 C-10.6 68.4 -6.4 84.3 -5 95.6 C-4.6 98.8 -4.2 101.9 -3.9 105.1 C-3.7 106.5 -3.5 107.9 -3.4 109.3 C-3 113 -3 113 -3 118 C-4.3 118.2 -5.6 118.5 -6.9 118.8 C-23.9 122.2 -40.4 126.3 -56.8 132 C-57.8 132.4 -58.8 132.7 -59.8 133.1 C-61.9 133.8 -63.9 134.6 -66 135.3 C-73.7 138 -73.7 138 -77 138 C-75.2 133.4 -73.5 130.8 -70.5 127 C-69.6 125.9 -68.7 124.7 -67.8 123.5 C-66.9 122.4 -65.9 121.2 -65 120 C-63.4 117.9 -61.8 115.8 -60.2 113.7 C-51.3 102.2 -42.1 91 -32.7 80.1 C-31.8 79.1 -30.9 78 -30 77 C-29.2 76.1 -28.4 75.3 -27.5 74.4 C-24.5 70.3 -23.3 66.6 -21.8 61.7 C-21.3 59.9 -20.7 58.1 -20.1 56.2 C-19.9 55.2 -19.6 54.3 -19.3 53.3 C-13.8 35.1 -7.6 17.4 0 0 Z " fill="#253B59" transform="translate(246,323)"/>
<path d="M0 0 C0.6 1.4 1.3 2.8 1.9 4.3 C2.8 6.2 3.6 8 4.4 9.9 C4.9 10.8 5.3 11.7 5.7 12.7 C8.9 19.8 8.9 19.8 10 22 C8.5 25.7 7 29.3 5.4 32.9 C1.6 41.9 -1.7 50.9 -4.5 60.2 C-4.7 60.7 -4.7 60.7 -5.4 63.2 C-6.9 68.1 -8.4 72.9 -9.8 77.8 C-13 88.5 -15.8 95.4 -24 103 C-25.4 104.7 -26.8 106.4 -28.2 108.1 C-32.1 112.9 -36 117.7 -40 122.4 C-45.5 129.2 -50.9 136 -56 143 C-57 144.3 -58 145.6 -59 147 C-59.5 147.6 -59.5 147.6 -62.1 151.1 C-63 152.3 -63.9 153.6 -64.9 154.8 C-67 158 -67 158 -67 161 C-67.7 161 -68.3 161 -69 161 C-69.2 160.4 -69.2 160.4 -70.3 157.2 C-72.2 152.5 -73.9 150.7 -78 148 C-77.8 147.6 -77.8 147.6 -76.7 145.6 C-73.3 138.9 -70.2 132.1 -67.3 125.2 C-66.6 123.7 -66 122.1 -65.3 120.6 C-64 117.4 -62.7 114.3 -61.5 111.2 C-56.3 99.1 -49.7 91.9 -39.3 84 C-31 77.2 -28.3 70.6 -25.4 60.4 C-24.9 59 -24.4 57.5 -24 56 C-22.5 51.3 -21.1 46.6 -19.8 41.9 C-18.3 37.2 -16.9 32.5 -15.5 27.8 C-14.6 24.9 -13.7 21.9 -12.9 19 C-7.1 0 -7.1 0 0 0 Z " fill="#425A70" transform="translate(237,301)"/>
<path d="M0 0 C-3.1 10.5 -6.5 20.8 -9.9 31.2 C-10.4 32.6 -10.8 34.1 -11.3 35.5 C-11.8 37 -12.2 38.4 -12.7 39.8 C-13.9 43.8 -15 47.7 -16 51.6 C-17.6 57.4 -19.8 60.9 -24.2 65.2 C-25.3 66.3 -26.5 67.5 -27.7 68.7 C-28.8 69.8 -29.9 70.9 -31 72 C-32.6 73.8 -34.1 75.7 -35.6 77.6 C-40.7 84 -46.4 90 -52 96 C-53.3 90.9 -52.2 88.3 -50.7 83.3 C-50.2 81.6 -49.7 79.9 -49.2 78.1 C-48.6 76.4 -48.1 74.6 -47.6 72.8 C-47 71 -46.5 69.2 -46 67.3 C-44.6 62.9 -43.3 58.4 -42 54 C-42.3 53.7 -42.7 53.3 -43 53 C-46.4 56.3 -49.7 59.7 -53.1 63 C-53.5 63.5 -53.5 63.5 -55.9 65.8 C-62.3 72.2 -68.3 78.7 -74 85.7 C-81.8 94.8 -81.8 94.8 -88.3 95.4 C-93.1 94.8 -97.7 94.2 -102 92 C-100.1 88.2 -98.5 86.3 -95.6 83.3 C-95.1 82.9 -95.1 82.9 -92.8 80.6 C-91.8 79.6 -90.8 78.6 -89.8 77.6 C-88.8 76.6 -87.8 75.5 -86.7 74.5 C-84.5 72.3 -82.4 70.2 -80.2 68 C-76.9 64.7 -73.6 61.4 -70.3 58.1 C-68.2 56 -66.1 53.9 -64 51.8 C-63 50.8 -62 49.9 -61 48.9 C-55.8 43.7 -50.6 38.8 -45 34 C-42.5 31.7 -40.1 29.3 -37.6 27 C-32 21.7 -26.4 17.3 -20 13 C-17.3 11.1 -14.7 9.1 -12.1 7.2 C-2.3 0 -2.3 0 0 0 Z " fill="#39516B" transform="translate(385,350)"/>
<path d="M0 0 C5 1 8 2.7 12.2 5.4 C15 7 15 7 17.9 8.1 C24.6 10.7 27.7 13.3 30.7 19.9 C31.7 22.6 32.6 25.2 33.6 27.9 C34.1 29.3 34.5 30.6 35.1 32 C36 34.5 36.9 37 37.7 39.5 C39 43.1 40.5 46.5 42 50 C40.8 50.1 39.6 50.2 38.4 50.2 C32.1 51.3 29.3 53.5 25.2 58.3 C22.9 62.1 22.3 64.7 22 69 C21 68.5 20 68 19 67.4 C14.3 65.8 11.8 65.8 7 67 C2.7 70.3 2.1 71.6 1 77 C1.7 77.3 2.3 77.7 3 78 C-5.8 76.5 -14.4 74.4 -23 72 C-20.5 65.8 -16.9 60.5 -13.3 54.9 C-10.9 51.2 -9.1 48.2 -8 44 C-9.2 39.1 -10.6 34.2 -12 29.3 C-14.2 21.4 -14.2 21.4 -12 17 C-10.5 14.8 -9.1 12.7 -7.6 10.5 C-6.8 9.4 -6 8.3 -5.2 7.1 C-3.5 4.7 -1.8 2.3 0 0 Z " fill="#4F6784" transform="translate(398,392)"/>
<path d="M0 0 C0.7 0 1.3 0 2 0 C6 17.3 10 34.7 14 52 C16.6 44.1 19.3 36.2 22 28 C22.7 28 23.3 28 24 28 C28.8 44.3 33.4 60.6 38 77 C39.2 81.5 40.5 86 41.8 90.4 C42 91.4 42.3 92.5 42.6 93.5 C43.9 98.2 45.3 102.8 46.8 107.4 C48 112 48 112 47 117 C45.7 118 44.4 119 43 120 C37.9 117.5 36.3 114.6 33 109.9 C32.4 109.1 31.9 108.3 31.3 107.5 C29.5 105 27.8 102.5 26 100 C24.9 98.5 23.8 97 22.7 95.4 C20.7 92.5 18.7 89.6 16.7 86.8 C15.1 84.6 13.5 82.4 11.9 80.2 C6.1 72.4 2.8 63.7 -0.6 54.7 C-4.1 45.6 -7.8 37 -12.3 28.5 C-13.8 25.3 -15 22.3 -16 19 C-15.1 18 -14.2 16.9 -13.3 15.9 C-12.1 14.5 -10.9 13.1 -9.7 11.8 C-9.1 11.1 -9.1 11.1 -6.1 7.7 C-4 5.2 -2 2.6 0 0 Z " fill="#6D8498" transform="translate(252,281)"/>
<path d="M0 0 C0.3 0 0.7 0 1 0 C1 0.9 0.9 1.9 0.9 2.8 C0.3 33.2 0.3 33.2 6.8 40.6 C8.9 42.4 10.9 44.2 13 46 C15.1 48.7 17.2 51.5 19.2 54.2 C22.3 58.4 25.1 62.1 28.8 65.8 C34.2 72.7 33.2 81.8 33.3 90.2 C34.2 123.3 34.2 123.3 43.6 135.9 C44.3 136.9 45 137.8 45.8 138.9 C47.5 141.3 49.2 143.6 51 146 C50.1 147 49.2 148.1 48.3 149.2 C45.7 152.2 43.1 155.3 40.6 158.4 C39.4 159.9 38.2 161.4 37 163 C34.6 158.2 33.2 153.3 31.8 148.1 C31.4 147.1 31.1 146 30.8 144.9 C28.8 137.9 26.9 130.9 25 123.9 C22.4 114.3 19.6 104.8 16.6 95.3 C12 80.1 12 80.1 12 75 C11.3 75 10.7 75 10 75 C9.8 76.2 9.5 77.3 9.3 78.5 C7.6 85.8 5.3 92.9 3 100 C2.3 99.7 1.7 99.3 1 99 C0.1 96 -0.6 92.9 -1.3 89.8 C-1.7 88 -2.2 86.1 -2.6 84.1 C-3.1 82.1 -3.5 80.1 -4 78.1 C-4.5 76.1 -4.9 74.1 -5.4 72.1 C-6.6 66.7 -7.8 61.4 -9 56 C-9.5 54.3 -10 52.5 -10.4 50.7 C-11 46 -11 46 -9 42.8 C-8.1 41.9 -7.2 40.9 -6.2 40 C0.4 32.2 0.4 25.6 0.1 15.7 C0.1 14.2 0.1 12.7 0.1 11.1 C0.1 7.4 0.1 3.7 0 0 Z " fill="#283E5C" transform="translate(264,234)"/>
<path d="M0 0 C16 3.2 26.6 7.5 36 21 C38 23.6 40 26.1 42.1 28.7 C43 29.8 43.9 31 44.8 32.2 C47 35 47 35 49 37 C47.9 42.7 46.5 44.1 42.5 48.2 C41.4 49.3 40.3 50.5 39.2 51.6 C38.1 52.8 37.1 53.9 36 55 C34.4 56.8 32.8 58.5 31.2 60.3 C30.5 61.1 29.8 61.9 29 62.7 C27.7 64.2 26.3 65.8 25 67.4 C23.4 69.3 21.7 71.2 20 73 C19 73 18 73 17 73 C0.4 48.1 -0.3 29.9 0 0 Z " fill="#4F6784" transform="translate(296,306)"/>
<path d="M0 0 C4.4 2.2 7.2 4.9 10 9 C11.3 13 11.1 16.8 11 21 C12 20.7 13 20.3 14 20 C22.1 19.3 22.1 19.3 25.9 22.4 C26.6 23.2 27.3 24.1 28 25 C28.3 25.3 28.3 25.3 30 27 C30.4 30.7 30.7 34.3 31 38 C30.3 38 29.7 38 29 38 C28.7 39 28.3 40 28 41 C19.3 41.3 11.3 40.3 2.8 38.8 C2.1 38.6 2.1 38.6 -1.1 38.1 C-8.8 36.7 -16.3 35.1 -23.8 32.9 C-29.4 31.3 -35.2 30.2 -41 29 C-41 28.3 -41 27.7 -41 27 C-41.7 27 -42.3 27 -43 27 C-42.8 23 -42.6 20.7 -39.9 17.6 C-36.1 15.5 -33.3 15.1 -29 15 C-25.5 16.4 -25.5 16.4 -23 18 C-22.8 16.8 -22.6 15.7 -22.4 14.5 C-20.7 9 -18.1 6.1 -14 2 C-8.9 -0.5 -5.6 -0.4 0 0 Z " fill="#2A405D" transform="translate(442,442)"/>
<path d="M0 0 C0.7 0 1.3 0 2 0 C2.6 0.9 3.2 1.8 3.8 2.7 C10.1 12.2 16.5 21.6 23 31 C23.9 32.3 24.7 33.5 25.6 34.8 C29.3 40.2 32.4 44.5 37.6 48.6 C44.9 54.5 47.7 65.4 51 74 C48 75 48 75 44.1 73.4 C36.8 69.2 31.5 62.3 26 56 C25.2 55.1 24.4 54.2 23.6 53.3 C22.1 51.6 20.5 49.8 19 48 C18.7 48.3 18.3 48.7 18 49 C18.3 49.9 18.6 50.9 18.8 51.9 C20.1 56.2 21.3 60.5 22.6 64.8 C23 66.2 23.4 67.7 23.9 69.3 C24.3 70.7 24.7 72.1 25.1 73.6 C25.3 74.3 25.3 74.3 26.3 77.6 C27 81 27 81 26 85 C3 54 3 54 3 51 C2.3 51 1.7 51 1 51 C-6 42.2 -6 42.2 -6 36.6 C-5.7 35.4 -5.3 34.2 -5 33 C-3.3 26.3 -3.7 19.2 -3.6 12.3 C-3.3 3.3 -3.3 3.3 0 0 Z " fill="#F6E9D4" transform="translate(428,267)"/>
<path d="M0 0 C0.3 0 0.7 0 1 0 C1.1 1.9 1.2 3.8 1.3 5.8 C1.8 12.2 3.1 18.1 4.9 24.3 C5 24.8 5 24.8 5.8 27.6 C6.5 30 7.1 32.4 7.8 34.8 C9.7 41.3 11.5 47.9 13.3 54.4 C14.2 57.8 15.2 61.3 16.2 64.8 C18.6 73.4 20.7 81.9 21.9 90.8 C23 94 23 94 26 96.9 C29.8 100.8 30.2 103.4 31 108.7 C31.3 110.4 31.6 112.1 31.9 113.9 C32.2 115.6 32.5 117.4 32.8 119.2 C32.9 120.1 32.9 120.1 33.6 124.5 C34.2 127.8 34.7 131.2 35.3 134.5 C36.1 139.7 37 144.9 38 150 C21.6 133.6 14.1 96.1 6.6 74.5 C5.6 71.7 4.6 68.9 3.5 66.1 C-1 53.9 -0.7 41.5 -0.8 28.6 C-0.8 25.3 -0.8 21.9 -0.8 18.5 C-0.9 15.5 -0.9 12.5 -0.9 9.5 C-1 5 -1 5 -2 3 C-1.3 2 -0.7 1 0 0 Z " fill="#4F6784" transform="translate(281,158)"/>
<path d="M0 0 C0.3 0 0.7 0 1 0 C1 0.5 1 0.5 1 2.9 C1.1 7.4 1.2 11.8 1.2 16.2 C1.3 17.7 1.3 19.3 1.3 20.8 C1.3 22.3 1.4 23.8 1.4 25.3 C1.4 26.6 1.4 28 1.5 29.4 C2.1 33.6 3.4 34.8 6 38 C7 41.7 7 41.7 7.7 46.1 C8 47.6 8.2 49.2 8.5 50.8 C8.7 52.4 9 54 9.2 55.7 C9.5 57.3 9.8 58.9 10.1 60.6 C12 72.5 12 72.5 12 75 C11.3 75 10.7 75 10 75 C9.8 76.2 9.5 77.3 9.3 78.5 C7.6 85.8 5.3 92.9 3 100 C2.3 99.7 1.7 99.3 1 99 C0.1 96 -0.6 92.9 -1.3 89.8 C-1.7 88 -2.2 86.1 -2.6 84.1 C-3.1 82.1 -3.5 80.1 -4 78.1 C-4.5 76.1 -4.9 74.1 -5.4 72.1 C-6.6 66.7 -7.8 61.4 -9 56 C-9.5 54.3 -10 52.5 -10.4 50.7 C-11 46 -11 46 -9 42.8 C-8.1 41.9 -7.2 40.9 -6.2 40 C0.4 32.2 0.4 25.6 0.1 15.7 C0.1 14.2 0.1 12.7 0.1 11.1 C0.1 7.4 0.1 3.7 0 0 Z " fill="#3B536D" transform="translate(264,234)"/>
<path d="M0 0 C5.3 4.5 10.4 9.1 15.5 13.8 C18 16 18 16 21 18 C22 22 22.8 25.9 23.6 29.9 C26.5 44.1 32 55 39.7 67.3 C42 71 42 71 44 75 C35.4 80 35.4 80 32 80 C13.7 36.9 13.7 36.9 5.3 16.4 C4.8 15.1 4.2 13.7 3.7 12.4 C3.4 11.8 3.4 11.8 2.2 8.7 C1.8 7.7 1.3 6.6 0.9 5.6 C0 3 0 3 0 0 Z " fill="#4F6784" transform="translate(328,247)"/>
<path d="M0 0 C1 1.6 2 3.3 3 5 C3.7 5 4.3 5 5 5 C5 4 5 3 5 2 C5.7 2 6.3 2 7 2 C7 3 7 4 7 5 C7.7 5 8.3 5 9 5 C9 6 9 7 9 8 C9.5 7.7 9.5 7.7 12.1 6.1 C15.8 4.1 17.9 3 22 3 C25.4 4.9 25.4 4.9 28 7 C28 8 28 9 28 10 C30 10 32 10 34 10 C34 10.7 34 11.3 34 12 C35.3 12.7 36.6 13.3 38 14 C31 16.8 23.8 18.8 16.4 20.7 C15.2 21 14.1 21.3 12.8 21.7 C7.1 23.1 2 24.5 -4 24 C-4.6 23.1 -5.2 22.2 -5.8 21.2 C-7.5 18.8 -9.2 16.4 -11 14 C-10.9 8.7 -10 8 -6 4 C-7 4 -8 4 -9 4 C-9.7 3.3 -10.3 2.7 -11 2 C-6.4 -0.7 -5.5 -1.1 0 0 Z " fill="#2B415E" transform="translate(108,455)"/>
<path d="M0 0 C0.3 0 0.7 0 1 0 C1 0.5 1 0.5 1 2.9 C1.1 7.4 1.2 11.8 1.2 16.2 C1.3 17.7 1.3 19.3 1.3 20.8 C1.3 22.3 1.4 23.8 1.4 25.3 C1.4 26.6 1.4 28 1.5 29.4 C2.1 33.5 3.3 34.9 6 38 C6.2 49.6 0.8 62.1 -3 73 C-5 72 -5 72 -6.9 66.7 C-7.5 64.4 -8.1 62.1 -8.8 59.8 C-9.1 58.6 -9.5 57.5 -9.8 56.3 C-10.8 52.6 -11.3 49.8 -11 46 C-8.7 42.5 -6.1 39.6 -3.4 36.5 C1 30.1 0.3 23.2 0.1 15.7 C0.1 14.2 0.1 12.7 0.1 11.1 C0.1 7.4 0.1 3.7 0 0 Z " fill="#506984" transform="translate(264,234)"/>
<path d="M0 0 C4.1 6.1 2.4 15.1 1.6 22.2 C-0.2 31.3 -5.2 39.1 -10 47 C-11.3 46.7 -12.6 46.3 -14 46 C-14.7 30.1 -7 13.9 0 0 Z " fill="#3A526C" transform="translate(423,277)"/>
<path d="M0 0 C0.3 0 0.7 0 1 0 C1 1.4 1 2.8 1 4.3 C2.3 11.5 5.3 15.8 9.6 21.6 C10.3 22.6 11 23.6 11.7 24.7 C13.5 27.1 15.2 29.6 17 32 C16.1 33 15.2 34.1 14.3 35.2 C11.7 38.2 9.1 41.3 6.6 44.4 C5.4 45.9 4.2 47.4 3 49 C1 45 1 45 0 40 C0.3 40 0.7 40 1 40 C1.1 33.3 1 26.7 0.5 20 C0 13.3 -0.1 6.7 0 0 Z " fill="#3A526B" transform="translate(298,348)"/>
<path d="M0 0 C6 1.2 10.7 4 16 7 C17.5 7.7 19 8.4 20.6 9.1 C26.2 12.8 27.3 15.8 29.6 22.1 C30.2 23.8 30.9 25.6 31.6 27.4 C33 32 33 32 33 36 C28.8 33.9 27 32 23.9 28.6 C22.9 27.5 21.9 26.4 20.9 25.3 C20 24.2 19 23.1 18 22 C16.3 20.1 14.5 18.2 12.8 16.4 C0 2.3 0 2.3 0 0 Z " fill="#3B536D" transform="translate(400,393)"/>
<path d="M0 0 C1.3 1 2.6 2 4 3 C4 3.7 4 4.3 4 5 C3.3 5 2.7 5 2 5 C2 6.3 2 7.6 2 9 C1 9 0 9 -1 9 C-1 10 -1 11 -1 12 C-0.3 12 0.3 12 1 12 C1 13.3 1 14.6 1 16 C0.3 16 -0.3 16 -1 16 C-1 15.3 -1 14.7 -1 14 C-2 14 -3 14 -4 14 C-3.3 14.3 -2.7 14.7 -2 15 C-2 15.7 -2 16.3 -2 17 C-1 17 -0 17 1 17 C1 17.7 1 18.3 1 19 C-1 19 -3 19 -5 19 C-4.7 20.7 -4.3 22.3 -4 24 C-3.3 24.3 -2.7 24.7 -2 25 C-2.3 26.7 -2.7 28.3 -3 30 C-4 28.7 -5 27.4 -6 26 C-10.6 30.6 -15.2 35.2 -20 40 C-20.7 39.7 -21.3 39.3 -22 39 C-20 32.6 -17.5 26.9 -14.3 20.9 C-13.5 19.4 -12.7 17.9 -11.9 16.4 C-11.2 15.3 -10.6 14.2 -10 13 C-9.3 13.7 -8.7 14.3 -8 15 C-8.3 13.3 -8.7 11.7 -9 10 C-6 6 -6 6 -1 5 C-0.7 3.3 -0.3 1.7 0 0 Z " fill="#C3C9B6" transform="translate(230,168)"/>
<path d="M0 0 C0.7 0 1.3 0 2 0 C2 0.7 2 1.3 2 2 C4 2 6 2 8 2 C11 2 11 2 15 4 C13.9 5.7 12.9 7.3 11.8 9 C8.9 13.7 5.9 18.3 3 23 C2.3 23 1.7 23 1 23 C0.3 24.3 -0.3 25.6 -1 27 C-2 28 -3 29 -4 30 C-2.1 8.9 -2.1 8.9 0 0 Z " fill="#38506A" transform="translate(242,238)"/>
<path d="M0 0 C5 3.8 7.7 7.7 11 13 C14.9 17.4 16.1 18.8 22 20 C18.5 24.2 14.9 28.2 11 32 C10.9 31.6 10.9 31.6 10.1 29.4 C7.6 21.8 5 14.2 1.7 6.8 C0 3 0 3 0 0 Z " fill="#3D556D" transform="translate(318,332)"/>
</svg>
