<?xml version="1.0" encoding="UTF-8"?>
<!-- Generator: visioncortex VTracer 0.6.12 -->
<svg version="1.1" xmlns="http://www.w3.org/2000/svg" width="600" height="600" viewBox="0 0 600 600" role="img" aria-label="Sky">
<path d="M0 0 C198 0 396 0 600 0 C600 198 600 396 600 600 C402 600 204 600 0 600 C0 402 0 204 0 0 Z " fill="#7BB5DD" transform="translate(0,0)"/>
<path d="M0 0 C198 0 396 0 600 0 C600 198 600 396 600 600 C402 600 204 600 0 600 C0 402 0 204 0 0 Z M152 81 C150.8 81.9 149.5 82.8 148.3 83.7 C129.2 97.7 111.5 113.3 97 132 C96.4 132.8 95.7 133.6 95 134.4 C55.4 182.2 38.7 243 38.9 304.1 C38.9 305.8 38.9 307.4 38.9 309.1 C38.9 314.4 38.9 319.8 38.9 325.1 C38.9 328.8 38.9 332.5 38.9 336.3 C38.9 346 38.9 355.8 38.9 365.5 C38.9 375.5 38.9 385.4 39 395.4 C39 414.9 39 434.5 39 454 C42.5 455.8 46.1 454.5 49.9 454 C126.9 445 205.4 459.5 278.6 483.2 C280.1 483.7 281.7 484.2 283.3 484.7 C289.6 486.8 295.8 488.8 301.8 491.7 C310.9 495.9 316.5 496.5 325.9 493.3 C330.8 491.5 335.6 489.5 340.4 487.5 C345.9 485.2 351.6 483.3 357.2 481.5 C358.4 481.1 359.5 480.8 360.7 480.4 C399.8 468.2 440.3 460.3 481 456 C482.6 455.8 484.1 455.7 485.7 455.5 C501.7 453.9 517.4 453.8 533.4 453.9 C536 453.9 538.6 453.9 541.2 453.9 C547.5 453.9 553.7 454 560 454 C560.1 431.2 560.1 408.4 560.2 385.6 C560.2 375 560.2 364.4 560.2 353.9 C560.3 343.6 560.3 333.4 560.3 323.2 C560.3 319.3 560.3 315.4 560.3 311.5 C560.4 286.7 559.9 262.8 554.3 238.5 C554.1 237.4 553.8 236.3 553.5 235.1 C537.7 168.6 495 110 437 74 C431.1 70.5 425.1 67.2 419 64 C417.6 63.2 416.2 62.5 414.7 61.7 C334.6 21.6 224.9 27 152 81 Z " fill="#EDF2EE" transform="translate(0,0)"/>
<path d="M0 0 C1.6 0.5 3.1 1 4.7 1.5 C11.1 3.6 17.2 5.6 23.2 8.5 C32.3 12.7 38 13.3 47.4 10.2 C52.2 8.3 57.1 6.3 61.9 4.3 C67.4 2 73 0.1 78.7 -1.7 C79.8 -2 80.9 -2.4 82.1 -2.8 C121.2 -15 161.7 -22.9 202.4 -27.2 C204.1 -27.4 205.8 -27.5 207.5 -27.7 C221.6 -29.1 235.5 -29.5 249.7 -29.4 C253.3 -29.4 256.9 -29.4 260.5 -29.4 C262.8 -29.4 265.1 -29.4 267.4 -29.4 C268.4 -29.4 269.5 -29.4 270.6 -29.4 C278.1 -29.3 278.1 -29.3 281.4 -28.2 C281.4 -13 281.4 2.2 281.4 17.8 C294.6 17.8 307.8 17.8 321.4 17.8 C321.4 50.8 321.4 83.8 321.4 117.8 C123.4 117.8 -74.6 117.8 -278.6 117.8 C-278.6 84.8 -278.6 51.8 -278.6 17.8 C-265.4 17.8 -252.2 17.8 -238.6 17.8 C-238.6 14.6 -238.6 11.3 -238.6 8 C-238.6 4.9 -238.6 1.8 -238.6 -1.4 C-238.6 -3.5 -238.6 -5.7 -238.6 -7.9 C-238.7 -11 -238.7 -14.1 -238.7 -17.2 C-238.7 -19.1 -238.7 -21 -238.7 -22.9 C-238.6 -27.2 -238.6 -27.2 -237.6 -28.2 C-158 -39.5 -75.7 -24.5 0 0 Z " fill="#D0D5B0" transform="translate(278.5625,482.1875)"/>
<path d="M0 0 C13.2 0 26.4 0 40 0 C40.1 3.2 40.1 6.3 40.2 9.6 C40.2 12.6 40.3 15.7 40.4 18.7 C40.4 20.9 40.5 23 40.5 25.1 C40.6 28.2 40.6 31.2 40.7 34.3 C40.7 35.2 40.7 35.2 40.8 39.8 C41 44 41 44 42 45 C44.7 45.1 47.5 45.1 50.2 45.1 C52 45.1 53.8 45.1 55.6 45.1 C57.7 45.1 59.7 45.1 61.7 45.1 C63.8 45.1 66 45.1 68.1 45.1 C74 45.1 79.8 45.1 85.7 45.1 C92.1 45.1 98.4 45.1 104.7 45.1 C117.1 45.1 129.5 45.1 141.9 45.1 C152 45.1 162.1 45.1 172.2 45.1 C173.6 45.1 175 45.1 176.5 45.1 C179.4 45.1 182.3 45.1 185.2 45.1 C212.5 45.1 239.9 45.1 267.2 45.1 C290.6 45.1 314.1 45.1 337.5 45.1 C364.7 45.1 391.9 45.1 419.1 45.1 C422 45.1 424.9 45.1 427.8 45.1 C429.2 45.1 430.7 45.1 432.1 45.1 C442.2 45.1 452.3 45.1 462.4 45.1 C474.6 45.1 486.9 45.1 499.2 45.1 C505.4 45.1 511.7 45.1 518 45.1 C523.7 45.1 529.4 45.1 535.1 45.1 C537.2 45.1 539.3 45.1 541.4 45.1 C544.2 45.1 547 45.1 549.8 45.1 C551.4 45.1 553 45.1 554.6 45.1 C558 45 558 45 559 44 C559.2 40.8 559.3 37.5 559.3 34.3 C559.3 33.3 559.4 32.3 559.4 31.3 C559.4 28.2 559.5 25.1 559.6 21.9 C559.6 19.8 559.6 17.7 559.7 15.6 C559.8 10.4 559.9 5.2 560 0 C573.2 0 586.4 0 600 0 C600 33 600 66 600 100 C402 100 204 100 0 100 C0 67 0 34 0 0 Z " fill="#D5E4D7" transform="translate(0,500)"/>
<path d="M0 0 C11.7 9.1 18.1 18.5 20.2 33.2 C20.2 34.6 20.2 35.9 20.2 37.2 C21 37.1 21 37.1 25.2 36.2 C34.8 35.5 41.9 35.8 50.2 41.2 C56.5 46.7 60.2 52.2 62.2 60.2 C62.2 63.2 62.2 66.3 62.2 69.2 C63 68.9 63 68.9 67.2 67.2 C74.4 66.7 79.1 67.3 85.2 71.2 C89.4 76.5 90.6 80.5 90.2 87.2 C88.2 92.9 84.5 96.6 79.2 99.2 C76.6 99.4 74 99.4 71.4 99.4 C69.8 99.4 68.1 99.4 66.4 99.4 C65.5 99.4 65.5 99.4 60.8 99.4 C58.9 99.4 56.9 99.4 55 99.4 C49.6 99.5 44.3 99.5 39 99.5 C35.7 99.5 32.4 99.5 29.1 99.5 C18.7 99.5 8.3 99.5 -2 99.5 C-14 99.6 -26 99.6 -37.9 99.6 C-47.2 99.6 -56.4 99.7 -65.7 99.7 C-71.2 99.7 -76.8 99.7 -82.3 99.7 C-88.4 99.7 -94.6 99.7 -100.8 99.7 C-102.6 99.7 -104.4 99.7 -106.3 99.8 C-107.2 99.8 -107.2 99.8 -111.4 99.7 C-112.9 99.7 -114.3 99.7 -115.8 99.7 C-121.4 99.1 -125.1 96.9 -129.1 93.1 C-132.5 87.3 -133.2 82 -131.9 75.5 C-128.9 69.3 -124.9 66.3 -118.8 63.2 C-108.4 62.4 -108.4 62.4 -104.8 64.2 C-105.1 63.3 -105.5 62.3 -105.8 61.2 C-106.4 51 -104.7 44.1 -98.6 35.9 C-91.5 29 -85.9 26.1 -76.2 26.1 C-74.9 26.1 -73.6 26.1 -72.2 26.1 C-68.8 26.2 -68.8 26.2 -66.8 27.2 C-66.4 25.8 -66.1 24.3 -65.7 22.8 C-61.7 11 -54.4 3.5 -43.8 -2.6 C-28.6 -9.1 -14.2 -8.1 0 0 Z " fill="#F7EBD7" transform="translate(202.8125,204.75)"/>
<path d="M0 0 C5.6 5.3 9.9 10.2 10.1 18.3 C10.1 19.5 10 20.7 10 22 C10.3 21.8 10.3 21.8 12 21 C19.2 20.6 24.2 20.4 30 25 C33.9 30.1 35.7 33.5 35 40 C36 39.8 37 39.5 38.1 39.3 C42.7 38.9 45 39.6 49 42 C51.5 45.4 52 47.4 52.1 51.6 C50.6 56.2 49.1 57.4 45 60 C41 60.5 37.4 60.7 33.4 60.6 C32.2 60.6 31.1 60.6 29.9 60.7 C26 60.7 22.2 60.7 18.4 60.6 C15.7 60.6 13 60.6 10.4 60.6 C4.8 60.6 -0.8 60.6 -6.4 60.6 C-13.6 60.6 -20.7 60.6 -27.9 60.6 C-33.4 60.6 -38.9 60.6 -44.4 60.6 C-47 60.6 -49.7 60.6 -52.3 60.6 C-56 60.6 -59.7 60.6 -63.4 60.5 C-63.9 60.5 -63.9 60.5 -66.7 60.6 C-72.6 60.5 -76.6 60.1 -81 56 C-83.5 51 -83.1 48.5 -82 43 C-79.3 39.1 -77.4 38.1 -72.9 36.6 C-69 36 -69 36 -65 37 C-65 36.2 -65 36.2 -65.2 32.4 C-64.9 25.4 -63 23.3 -58.6 18.2 C-54.7 15.8 -52.9 15.6 -48.4 15.2 C-45 14.8 -45 14.8 -42 14 C-39.1 9.8 -39.1 9.8 -37 5 C-26.5 -5.5 -12.9 -8.2 0 0 Z " fill="#F7EBD7" transform="translate(461,319)"/>
<path d="M0 0 C8.1 6.2 13.8 13.3 16.3 23.3 C17.3 36.5 16 45.9 8.1 56.7 C-1.1 65.4 -11.1 69.4 -23.7 69.3 C-36.4 67.7 -44.9 61.2 -52.7 51.3 C-57.8 41.3 -59 32.2 -56.6 21.2 C-52.3 10.1 -45.5 2.2 -34.9 -3.1 C-22.6 -7.7 -11.3 -6.5 0 0 Z " fill="#D0D5AF" transform="translate(446.6875,148.6875)"/>
<path d="M0 0 C-1 0.7 -2 1.3 -3 2 C-2.7 3 -2.3 4 -2 5 C-2.7 5 -3.3 5 -4 5 C-4 5.7 -4 6.3 -4 7 C-5.7 7 -7.3 7 -9 7 C-9 9 -9 11 -9 13 C-10 12.3 -11 11.7 -12 11 C-12.7 11.3 -13.3 11.7 -14 12 C-13.7 11 -13.3 10 -13 9 C-12.3 9 -11.7 9 -11 9 C-12 7.7 -13 6.4 -14 5 C-14.3 6.3 -14.7 7.6 -15 9 C-15.3 8.3 -15.7 7.7 -16 7 C-16.7 7 -17.3 7 -18 7 C-18.3 7.7 -18.7 8.3 -19 9 C-21 8.3 -23 7.7 -25 7 C-25 7.7 -25 8.3 -25 9 C-25.7 9 -26.3 9 -27 9 C-26.7 7.4 -26.3 5.7 -26 4 C-26.3 4.3 -26.7 4.7 -27 5 C-27.7 5 -28.3 5 -29 5 C-29.2 4.8 -29.2 4.8 -30 4 C-31 4.7 -32 5.3 -33 6 C-31.3 6.3 -29.7 6.7 -28 7 C-28 7.3 -28 7.7 -28 8 C-29.3 8.3 -30.6 8.5 -31.9 8.8 C-36 10 -36 10 -38 13 C-36.3 13.7 -34.7 14.3 -33 15 C-33.5 15.2 -33.5 15.2 -36 16 C-36.2 16.5 -36.2 16.5 -37 19 C-38.3 18.7 -39.6 18.3 -41 18 C-41.3 18.7 -41.7 19.3 -42 20 C-42.7 20 -43.3 20 -44 20 C-43.7 17.7 -43.3 15.4 -43 13 C-44.7 13 -46.3 13 -48 13 C-48 12 -48 11 -48 10 C-46.7 9.7 -45.4 9.3 -44 9 C-44.2 8.7 -44.2 8.7 -45 7 C-45.7 7.3 -46.3 7.7 -47 8 C-47 7.3 -47 6.7 -47 6 C-50 8 -50 8 -51 10 C-53 9.7 -55 9.3 -57 9 C-56 11.3 -55 13.6 -54 16 C-56 16 -58 16 -60 16 C-60 16.7 -60 17.3 -60 18 C-59 18 -58 18 -57 18 C-57 19 -57 20 -57 21 C-57.7 21 -58.3 21 -59 21 C-59 20.3 -59 19.7 -59 19 C-59.7 19 -60.3 19 -61 19 C-61.3 19.7 -61.7 20.3 -62 21 C-62.7 20.7 -63.3 20.3 -64 20 C-63.7 18.7 -63.3 17.4 -63 16 C-61.3 15.3 -59.7 14.7 -58 14 C-58 13 -58 12 -58 11 C-58.7 11 -59.3 11 -60 11 C-60.2 11.5 -60.2 11.5 -61 14 C-61.7 14 -62.3 14 -63 14 C-63.3 13.3 -63.3 13.3 -65 10 C-65.7 9.7 -66.3 9.3 -67 9 C-67.2 9.5 -67.2 9.5 -68 12 C-68.3 11.5 -68.3 11.5 -70 9 C-72.3 8.6 -74.7 8.3 -77 8 C-78.3 7.3 -79.6 6.7 -81 6 C-78.4 5 -75.7 4 -73 3 C-73 3.7 -73 4.3 -73 5 C-71 4.3 -69 3.7 -67 3 C-66.8 3.7 -66.8 3.7 -66 7 C-66 6.3 -66 5.7 -66 5 C-66 4.3 -66 3.7 -66 3 C-65 3 -64 3 -63 3 C-67 2 -67 2 -72 3 C-72 2.3 -72 1.7 -72 1 C-74 1.3 -76 1.7 -78 2 C-78 0.4 -78 -1.3 -78 -3 C-80.2 -0.8 -82.1 1.6 -84 4 C-84.2 3.8 -84.2 3.8 -85 3 C-85.7 4 -86.3 5 -87 6 C-86.7 6.3 -86.3 6.7 -86 7 C-86.3 8.3 -86.7 9.6 -87 11 C-87.7 11 -88.3 11 -89 11 C-88.8 11.3 -88.8 11.3 -88 13 C-87 13 -86 13 -85 13 C-84.8 13.7 -84.8 13.7 -84 17 C-86 17 -88 17 -90 17 C-90 18.3 -90 19.6 -90 21 C-91.7 21.3 -93.3 21.7 -95 22 C-95.2 21.5 -95.2 21.5 -96 19 C-96.7 19 -97.3 19 -98 19 C-98 19.7 -98 20.3 -98 21 C-99 21 -100 21 -101 21 C-101 20.3 -101 19.7 -101 19 C-101.7 19.7 -102.3 20.3 -103 21 C-101 21.7 -99 22.3 -97 23 C-97.7 23.2 -97.7 23.2 -101 24 C-101 24.7 -101 25.3 -101 26 C-102.7 25.7 -104.3 25.3 -106 25 C-106.3 24.3 -106.7 23.7 -107 23 C-106.3 23 -105.7 23 -105 23 C-105 22.3 -105 21.7 -105 21 C-106.7 21.7 -108.3 22.3 -110 23 C-109.7 21.7 -109.3 20.4 -109 19 C-109.3 17.4 -109.7 15.7 -110 14 C-109.7 13.3 -109.3 12.7 -109 12 C-109.2 11.7 -109.2 11.7 -110 10 C-111.3 10 -112.6 10 -114 10 C-113 9 -112 8 -111 7 C-114 6 -116.9 5 -120 4 C-119 4.3 -118 4.7 -117 5 C-117 5.7 -117 6.3 -117 7 C-118.7 7.3 -120.3 7.7 -122 8 C-122.3 9 -122.7 10 -123 11 C-124 11 -125 11 -126 11 C-126 12.3 -126 13.6 -126 15 C-129 14 -129 14 -131 13 C-131 11.7 -131 10.4 -131 9 C-133.3 9.3 -135.6 9.7 -138 10 C-137 7 -137 7 -133 3 C-134 3.3 -135 3.7 -136 4 C-136 3 -136 2 -136 1 C-134.7 1 -133.4 1 -132 1 C-133.7 0.3 -135.3 -0.3 -137 -1 C-137 0.6 -137 2.3 -137 4 C-137.7 3.7 -138.3 3.3 -139 3 C-139 2.3 -139 1.7 -139 1 C-140 0.7 -141 0.3 -142 0 C-141.3 -1.6 -140.7 -3.3 -140 -5 C-144 -5 -147.9 -5 -152 -5 C-152 -5.7 -152 -6.3 -152 -7 C-149.8 -7.3 -147.6 -7.6 -145.4 -7.9 C-144.8 -8 -144.8 -8 -141.6 -8.5 C-97.1 -13.6 -43.1 -13.1 0 0 Z M-108 7 C-107.7 8.6 -107.3 10.3 -107 12 C-106.7 12 -106.3 12 -106 12 C-106 10.4 -106 8.7 -106 7 C-106.7 7 -107.3 7 -108 7 Z " fill="#D4E1CF" transform="translate(195,461)"/>
<path d="M0 0 C6.7 -0.5 13.7 0.6 20 3 C20.7 4.3 21.3 5.6 22 7 C21.7 7.5 21.7 7.5 20 10 C2.3 8.3 2.3 8.3 -1 5 C-0.7 3.3 -0.3 1.7 0 0 Z " fill="#D0D5AF" transform="translate(360,165)"/>
<path d="M0 0 C5 0.5 8.5 2.1 12.9 4.6 C14 5.2 15.2 5.8 16.4 6.5 C16.8 6.8 16.8 6.8 19 8 C19 9.7 19 11.3 19 13 C13 14.2 11.5 13.1 6.2 10.2 C4.9 9.5 3.6 8.8 2.2 8.1 C-1 6 -1 6 -2 3 C-1.3 2 -0.7 1 0 0 Z " fill="#D0D5AF" transform="translate(468,200)"/>
<path d="M0 0 C5 1 5 1 6 2 C6.1 5.1 6.2 8.3 6.2 11.4 C6.2 13.2 6.2 14.9 6.2 16.7 C6 21 6 21 4 23 C0 22 0 22 -1 21 C-1.1 17.7 -1.1 14.3 -1.1 11 C-1.1 9.2 -1.1 7.3 -1.1 5.4 C-1 1 -1 1 0 0 Z " fill="#D0D5AF" transform="translate(424,112)"/>
<path d="M0 0 C0.7 0.7 1.3 1.3 2 2 C1.7 3.3 1.3 4.6 1 6 C-6 8.6 -12.6 10.5 -20 9 C-20.3 8 -20.7 7 -21 6 C-18.5 2.2 -17.1 2.3 -12.8 1.3 C-11.6 1.1 -10.5 0.8 -9.4 0.6 C-6 0 -6 0 0 0 Z " fill="#D0D5AF" transform="translate(492,165)"/>
<path d="M0 0 C1.6 0.3 3.3 0.7 5 1 C5.3 2.3 5.7 3.6 6 5 C3.5 8.5 3.5 8.5 0.1 12.2 C-1.1 13.5 -2.2 14.8 -3.3 16.1 C-4.2 17 -5.1 18 -6 19 C-7.6 18.7 -9.3 18.3 -11 18 C-11.3 16.7 -11.7 15.4 -12 14 C-11.4 13.3 -10.8 12.6 -10.1 12 C-9.3 11.1 -8.5 10.2 -7.7 9.2 C-6.9 8.4 -6.1 7.5 -5.3 6.6 C-3.4 4.5 -1.7 2.2 0 0 Z " fill="#D0D5AF" transform="translate(466,127)"/>
<path d="M0 0 C5.6 1.1 6 1.6 9.2 5.9 C13 11 13 11 15 13 C14.7 14.7 14.3 16.3 14 18 C12.7 18.3 11.4 18.7 10 19 C8.2 17.1 6.4 15.2 4.6 13.3 C3.6 12.3 2.5 11.2 1.5 10.1 C-1 7 -1 7 -2 2 C-1.3 1.3 -0.7 0.7 0 0 Z " fill="#D0D5AF" transform="translate(383,127)"/>
</svg>
