<?xml version="1.0" encoding="UTF-8"?>
<!-- Generator: visioncortex VTracer 0.6.12 -->
<svg version="1.1" xmlns="http://www.w3.org/2000/svg" width="600" height="600" viewBox="0 0 600 600" role="img" aria-label="Sun">
<path d="M0 0 C198 0 396 0 600 0 C600 198 600 396 600 600 C402 600 204 600 0 600 C0 402 0 204 0 0 Z " fill="#EEF2ED" transform="translate(0,0)"/>
<path d="M0 0 C9.9 0 19.8 0 30 0 C26.7 29.8 22.2 59.4 18 89 C79.7 89 141.4 89 205 89 C205.7 87.4 206.3 85.7 207 84 C211.5 80.2 214.2 78.2 220 77 C222.8 79.8 221 85 221 89 C252 89 283 89 315 89 C315 122 315 155 315 189 C117 189 -81 189 -285 189 C-285 156 -285 123 -285 89 C-259.6 89 -234.2 89 -208 89 C-208.3 85 -208.7 81.1 -209 77 C-208.1 72.8 -208.1 72.8 -207 70 C-197.7 74 -191.7 78.7 -187 88 C-183.8 88.1 -180.5 88.1 -177.3 88.2 C-176.4 88.2 -176.4 88.2 -171.9 88.3 C-167 88 -167 88 -162 85 C-161.3 85 -160.7 85 -160 85 C-159.7 86 -159.3 87 -159 88 C-130.8 88.2 -130.8 88.2 12 89 C6.3 45.7 6.3 45.7 3.2 24.8 C2.7 21.7 2.3 18.5 1.8 15.4 C1.4 12.6 1 9.9 0.6 7.1 C0 3 0 3 0 0 Z " fill="#D5E3D6" transform="translate(285,411)"/>
<path d="M0 0 C27.8 21.6 44 52.7 48.9 87.3 C51.1 123.4 41.3 156.5 17.9 184.2 C-6.1 211.2 -38 225.3 -73.9 227.8 C-108.1 228.6 -139.7 215.8 -165 193.3 C-189 170.3 -203.7 138.2 -204.9 104.9 C-205.4 70.6 -193.7 38.3 -169.8 13.5 C-168.1 11.8 -166.4 10.2 -164.8 8.5 C-164 7.8 -163.3 7 -162.5 6.2 C-118.5 -36.1 -47.5 -35 0 0 Z " fill="#EFAC33" transform="translate(377.7734375,172.48828125)"/>
<path d="M0 0 C27.8 21.6 44 52.7 48.9 87.3 C51.1 123.4 41.3 156.5 17.9 184.2 C-6.1 211.2 -38 225.3 -73.9 227.8 C-108.1 228.6 -139.7 215.8 -165 193.3 C-189 170.3 -203.7 138.2 -204.9 104.9 C-205.4 70.6 -193.7 38.3 -169.8 13.5 C-168.1 11.8 -166.4 10.2 -164.8 8.5 C-164 7.8 -163.3 7 -162.5 6.2 C-118.5 -36.1 -47.5 -35 0 0 Z M-165.2 20.7 C-181.3 38.6 -191.3 59.7 -194.8 83.5 C-195 84.8 -195.1 86 -195.3 87.3 C-198.6 118.1 -190.5 147.9 -171.8 172.5 C-168.9 176 -165.9 179.3 -162.8 182.5 C-161.6 183.8 -160.3 185.2 -159.1 186.5 C-144 200.5 -125.7 210.3 -105.8 215.5 C-104.4 215.9 -103.1 216.2 -101.7 216.6 C-74.7 222.9 -43.5 217.2 -19.8 203.7 C9.1 185.6 29.9 160.1 38 126.6 C42 108.7 41.5 89.3 37.2 71.5 C37 70.4 36.7 69.3 36.4 68.1 C28.7 40.1 9.2 16.2 -14.8 0.5 C-64.6 -27.6 -124.9 -21.1 -165.2 20.7 Z " fill="#F6CC71" transform="translate(377.7734375,172.48828125)"/>
<path d="M0 0 C0 9.6 0 19.1 0 29 C-3.6 30.8 -7.8 29.4 -11.7 28.9 C-12.7 28.7 -13.7 28.6 -14.8 28.5 C-18.1 28 -21.5 27.6 -24.8 27.1 C-27.2 26.8 -29.5 26.5 -31.8 26.2 C-36.7 25.5 -41.5 24.9 -46.4 24.2 C-52.7 23.4 -58.9 22.5 -65.2 21.7 C-70 21.1 -74.8 20.4 -79.6 19.8 C-81.9 19.4 -84.2 19.1 -86.5 18.8 C-89.7 18.4 -92.9 18 -96.1 17.5 C-97.1 17.4 -97.1 17.4 -101.7 16.8 C-106 16 -106 16 -109 14 C-89 11.2 -68.9 8.3 -48.9 5.5 C-45.4 5.1 -41.9 4.6 -38.5 4.1 C-33.3 3.4 -28.2 2.6 -23 1.9 C-21.6 1.7 -20.1 1.5 -18.6 1.3 C-18 1.2 -18 1.2 -14.6 0.8 C-14.1 0.7 -14.1 0.7 -11.3 0.3 C-7.5 -0 -3.8 0 0 0 Z " fill="#F0AE38" transform="translate(162,258)"/>
<path d="M0 0 C12.4 0.6 24.7 2.2 37 3.9 C39.1 4.2 41.2 4.5 43.3 4.8 C48.7 5.6 54.2 6.3 59.6 7.1 C65.2 7.9 70.7 8.7 76.3 9.4 C87.2 10.9 98.1 12.5 109 14 C104.8 16.8 101 16.9 96 17.5 C95 17.6 94 17.8 92.9 17.9 C89.5 18.4 86.1 18.8 82.7 19.3 C80.4 19.6 78 19.9 75.7 20.2 C69.5 21 63.3 21.8 57.1 22.6 C50.8 23.5 44.5 24.3 38.2 25.1 C25.8 26.8 13.4 28.4 1 30 C-0.2 24 -0.1 18.3 -0.1 12.2 C-0.1 11 -0.1 9.8 -0 8.6 C-0 5.8 -0 2.9 0 0 Z " fill="#EFAE38" transform="translate(438,258)"/>
<path d="M0 0 C0.7 0 1.3 0 2 0 C3.8 13.1 5.7 26.2 7.5 39.2 C8.3 45.3 9.2 51.4 10 57.5 C10.8 63.3 11.7 69.2 12.5 75.1 C12.8 77.3 13.1 79.5 13.4 81.8 C13.8 84.9 14.3 88 14.7 91.2 C15 92.9 15.2 94.7 15.5 96.6 C16 101 16 101 16 106 C6.1 106 -3.8 106 -14 106 C-12.6 93 -11 80 -9.2 67 C-8.9 65.1 -8.7 63.1 -8.4 61.2 C-7.7 56.1 -7 51 -6.3 46 C-5.6 40.8 -4.9 35.6 -4.2 30.4 C-2.8 20.3 -1.4 10.1 0 0 Z " fill="#EFAE38" transform="translate(299,29)"/>
<path d="M0 0 C9.9 0 19.8 0 30 0 C28.6 12.8 27 25.4 25.2 38.1 C24.9 40 24.7 41.8 24.4 43.7 C23.5 49.5 22.7 55.3 21.9 61.1 C21.3 65.1 20.7 69.1 20.2 73 C18.8 82.7 17.4 92.3 16 102 C15.3 101.7 14.7 101.3 14 101 C12.2 88.3 10.3 75.5 8.5 62.8 C7.7 56.9 6.8 51 6 45.1 C5.2 39.4 4.3 33.7 3.5 28 C3.2 25.8 2.9 23.6 2.6 21.5 C2.2 18.4 1.7 15.4 1.3 12.3 C1 10.6 0.8 8.9 0.5 7.1 C0 3 0 3 0 0 Z " fill="#F0AE38" transform="translate(285,411)"/>
<path d="M0 0 C7.7 4.9 15.4 9.9 23 15 C25.4 16.6 27.9 18.3 30.3 19.9 C34 22.3 37.7 24.8 41.4 27.3 C53 35.1 64.8 42.7 76.5 50.4 C78.3 51.6 80.2 52.8 82 54 C79.8 58.4 77.1 60.7 73.4 63.8 C69 67.8 65.2 72.1 62 77 C57.8 75.6 56.5 73.1 53.9 69.6 C50.4 65.1 46.9 60.6 43.3 56.2 C34.4 45.4 25.8 34.4 17.2 23.4 C12.1 16.9 6.9 10.4 1.6 4.1 C0 2 0 2 0 0 Z " fill="#F6C45B" transform="translate(130,108)"/>
<path d="M0 0 C-1.7 3.4 -3.3 5.9 -5.6 8.9 C-6.4 10 -7.2 11.1 -8.1 12.2 C-9 13.4 -10 14.7 -11 16 C-11.6 16.8 -11.6 16.8 -14.6 20.7 C-20.1 28 -25.6 35.2 -31.1 42.4 C-39.6 53.5 -47.9 64.6 -56 76 C-59.7 74.8 -61.2 72.6 -63.7 69.6 C-68.5 64.2 -73.8 59.1 -79 54 C-74.8 49.8 -70.2 46.7 -65.2 43.4 C-63.3 42.2 -61.4 40.9 -59.5 39.7 C-58.6 39 -57.7 38.4 -56.7 37.8 C-50.4 33.6 -44.2 29.3 -38 25 C-35.3 23.2 -32.7 21.3 -30 19.5 C-28.7 18.6 -27.4 17.7 -26 16.8 C-23.2 14.8 -20.4 12.9 -17.6 11 C-16.1 10 -14.7 9 -13.2 8 C-12 7.1 -10.7 6.2 -9.3 5.3 C-1.7 0 -1.7 0 0 0 Z " fill="#F6C45B" transform="translate(466,109)"/>
<path d="M0 0 C0.7 0 1.3 0 2 0 C3.6 1.8 5.2 3.6 6.8 5.5 C11 10.2 15.5 14.6 20 19 C20.3 19.3 20.3 19.3 22 21 C15 26.8 7.8 32 0.3 37.1 C-5.4 40.9 -10.9 44.9 -16.5 48.8 C-21.4 52.3 -26.4 55.8 -31.4 59.2 C-38.3 64.1 -45.2 69 -52 74 C-52 69.9 -50.3 68.3 -47.9 65 C-47.4 64.4 -47.4 64.4 -45.1 61.2 C-44.1 59.8 -43.1 58.4 -42 57 C-41.4 56.2 -41.4 56.2 -38.6 52.4 C-33.1 44.9 -27.6 37.4 -21.9 29.9 C-16.4 22.6 -11.1 15.2 -5.7 7.8 C-3.8 5.2 -1.9 2.6 0 0 Z " fill="#F6C45B" transform="translate(190,361)"/>
<path d="M0 0 C4.1 1.4 5 3.5 7.4 7.1 C11.1 12.3 14.9 17.5 18.8 22.7 C48.6 62.3 48.6 62.3 55 73 C50.3 71.1 47.4 69.2 43.4 66.2 C37.6 61.9 31.7 57.7 25.7 53.6 C17.8 48.3 10.1 42.8 2.4 37.2 C-3.3 33.1 -9.1 29.1 -14.9 25.2 C-18 23 -18 23 -20 20 C-18.9 19.1 -17.8 18.1 -16.7 17.2 C-2.3 4.6 -2.3 4.6 0 0 Z " fill="#F6C55E" transform="translate(408,361)"/>
<path d="M0 0 C8.2 8 15 17.2 22 26.3 C25.2 30.2 28.4 34.2 31.6 38.1 C47 57 47 57 47 60 C46.4 60.3 46.4 60.3 43.4 61.6 C28.8 68 28.8 68 23.5 71 C20 73 20 73 18 73 C17.6 71.6 17.3 70.2 16.9 68.7 C15.5 63.4 14.1 58 12.7 52.7 C12.1 50.4 11.5 48.1 10.9 45.8 C10.4 43.6 9.8 41.3 9.2 39.1 C8.6 36.9 8 34.7 7.5 32.5 C6.2 27.4 4.8 22.3 3.5 17.3 C3 15.6 2.5 13.9 2.1 12.1 C1.7 10.6 1.3 9.2 0.9 7.6 C0 4 0 4 0 0 Z " fill="#F6C45B" transform="translate(213,77)"/>
<path d="M0 0 C1.1 4.5 0.6 6.4 -0.5 10.8 C-0.9 12.2 -1.3 13.6 -1.6 15 C-2 16.5 -2.4 18 -2.8 19.5 C-3.2 21 -3.6 22.5 -4.1 24.1 C-5.3 29 -6.6 33.9 -7.9 38.8 C-8.8 42.1 -9.7 45.4 -10.6 48.7 C-12.7 56.8 -14.8 64.9 -17 73 C-23.7 70.3 -30.1 67.2 -36.5 64.1 C-39.6 62.6 -42.8 61.3 -46 60 C-41.9 53.6 -37.5 47.9 -32.6 42.1 C-29.3 38.2 -26.3 34.2 -23.3 30.1 C-19.9 25.5 -16.3 21.1 -12.8 16.6 C-8.5 11.1 -4.2 5.5 0 0 Z " fill="#F6C55E" transform="translate(386,77)"/>
<path d="M0 0 C0.5 1.4 1.1 2.7 1.6 4.2 C2.4 6 3.1 7.8 3.8 9.6 C4.5 11.4 5.2 13.2 6 15 C7.1 17.9 8.4 20.8 9.8 23.5 C11 26 11 26 11 28 C1 30.2 -9.1 32.3 -19.1 34.5 C-22.5 35.2 -25.9 35.9 -29.4 36.7 C-34.3 37.7 -39.2 38.8 -44.1 39.8 C-45.6 40.1 -47.1 40.5 -48.7 40.8 C-49.4 41 -49.4 41 -53 41.7 C-53.7 41.9 -53.7 41.9 -56.8 42.6 C-60 43 -60 43 -64 42 C-54 34.8 -43.8 27.8 -33.6 21 C-32.2 20.1 -30.8 19.2 -29.4 18.2 C-26.6 16.4 -23.9 14.6 -21.1 12.7 C-18.3 10.9 -15.5 9 -12.7 7.1 C-11.3 6.2 -10 5.3 -8.6 4.3 C-7.4 3.5 -6.2 2.7 -4.9 1.8 C-2 0 -2 0 0 0 Z " fill="#F6C55D" transform="translate(166,314)"/>
<path d="M0 0 C4 1.6 6.8 3 10.3 5.4 C11.3 6.1 12.4 6.8 13.4 7.6 C14.6 8.4 15.8 9.2 17 10 C19.7 11.8 22.4 13.7 25.2 15.5 C28.1 17.5 31 19.5 33.9 21.4 C35.4 22.4 36.9 23.4 38.4 24.4 C46.9 30.2 55.5 36.1 64 42 C59.6 43.1 57.5 42.7 53 41.7 C51.6 41.4 50.2 41.1 48.7 40.8 C47.2 40.5 45.7 40.2 44.1 39.8 C43.3 39.6 43.3 39.6 39.3 38.8 C34.3 37.7 29.3 36.6 24.2 35.6 C20.8 34.8 17.4 34.1 14 33.4 C5.7 31.6 -2.7 29.8 -11 28 C-9.5 23.1 -7.5 18.6 -5.3 14 C-3.3 9.4 -1.7 4.7 0 0 Z " fill="#F6C55E" transform="translate(434,314)"/>
<path d="M0 0 C9 1.3 17.9 2.9 26.8 4.8 C28 5 29.3 5.3 30.6 5.5 C33.2 6.1 35.9 6.6 38.5 7.2 C42.5 8 46.5 8.8 50.6 9.7 C53.1 10.2 55.7 10.7 58.3 11.2 C58.9 11.4 58.9 11.4 61.9 12 C66.8 13 71.3 14.1 76 16 C75.5 17 75.1 18.1 74.6 19.1 C71.1 27 67.8 34.9 65 43 C60.5 41.2 57.2 39.3 53.2 36.6 C51.9 35.7 50.6 34.8 49.2 33.9 C48.5 33.4 48.5 33.4 44.9 31 C41.9 29 38.9 27 36 25 C35.2 24.5 35.2 24.5 31.4 22 C24.8 17.5 18.1 13.1 11.4 8.6 C9.2 7.1 7 5.7 4.7 4.2 C3.2 3.1 1.6 2.1 0 1 C0 0.7 0 0.3 0 0 Z " fill="#F6C55C" transform="translate(101,189)"/>
<path d="M0 0 C-10.7 8.1 -22 15.3 -33.2 22.7 C-36.2 24.6 -39.2 26.6 -42.2 28.6 C-44.1 29.8 -45.9 31 -47.8 32.2 C-51.6 34.7 -55.3 37.2 -59 39.9 C-62 42 -62 42 -64 42 C-64.5 40.6 -65.1 39.3 -65.6 37.8 C-66.4 36 -67.1 34.2 -67.8 32.4 C-68.5 30.6 -69.2 28.8 -70 27 C-71.1 24.1 -72.4 21.2 -73.8 18.5 C-75 16 -75 16 -75 14 C-66.4 12.2 -57.7 10.4 -49.1 8.6 C-46.2 7.9 -43.3 7.3 -40.3 6.7 C-36.1 5.8 -31.9 4.9 -27.6 4 C-27 3.9 -27 3.9 -23.7 3.2 C-20.1 2.5 -16.6 1.7 -13 1 C-11.9 0.8 -10.8 0.6 -9.7 0.3 C-2.2 -1.1 -2.2 -1.1 0 0 Z " fill="#F6C45C" transform="translate(498,190)"/>
<path d="M0 0 C2.6 2.6 2.9 4.7 3.8 8.2 C4.1 9.5 4.5 10.9 4.8 12.2 C5.2 13.6 5.6 15.1 5.9 16.5 C6.3 18 6.7 19.4 7.1 20.9 C7.9 24 8.7 27.1 9.5 30.2 C10.7 34.9 11.9 39.6 13.1 44.4 C13.9 47.4 14.7 50.4 15.4 53.3 C15.8 54.8 16.2 56.2 16.6 57.6 C16.7 58.3 16.7 58.3 17.6 61.6 C17.9 62.8 18.2 64 18.5 65.1 C19 68 19 68 18 71 C3.1 52.1 -11.6 33.2 -26 14 C-22.3 10.3 -18.9 9 -14.1 7 C-9.2 4.9 -4.6 2.8 0 0 Z " fill="#F6C661" transform="translate(368,395)"/>
<path d="M0 0 C3 1.4 6 2.8 9 4.2 C10.7 5 12.3 5.8 14.1 6.6 C18.4 8.7 22.7 10.8 27 13 C24.1 17.8 20.9 22.1 17.4 26.5 C16.2 28.1 14.9 29.7 13.6 31.4 C12.4 32.9 11.2 34.4 10 36 C8.3 38.2 6.7 40.3 5 42.5 C3.3 44.7 1.7 46.8 0 49 C-1.2 50.5 -2.4 52.1 -3.6 53.7 C-4.8 55.3 -6.1 56.9 -7.4 58.6 C-8.5 60.1 -9.7 61.6 -10.9 63.1 C-14 67 -14 67 -18 71 C-16.6 62.6 -14.7 54.5 -12.6 46.3 C-12.2 45 -11.9 43.8 -11.6 42.5 C-10.9 39.8 -10.2 37.2 -9.5 34.5 C-8.4 30.4 -7.4 26.3 -6.3 22.3 C-5.7 19.7 -5 17.1 -4.3 14.5 C-4 13.3 -3.7 12 -3.3 10.8 C-1.1 2.2 -1.1 2.2 0 0 Z " fill="#F6C661" transform="translate(231,395)"/>
<path d="M0 0 C9.8 4.2 15.4 9 20.4 18.7 C22.7 25 23.2 30.3 23 37 C22.7 37.7 22.3 38.3 22 39 C15.8 38.7 11.8 35.8 7 32 C0.8 23.8 -1.5 17.3 -2 7 C-1.1 2.8 -1.1 2.8 0 0 Z " fill="#B5BD8C" transform="translate(78,481)"/>
<path d="M0 0 C0.6 13.1 0.6 13.1 -4 19 C-8.4 23.4 -11.9 25.7 -18 27 C-19.4 20.2 -18.5 15.5 -16 9 C-12.1 3.2 -7.3 -1.8 0 0 Z " fill="#B5BD8C" transform="translate(506,489)"/>
<path d="M0 0 C5.6 1.8 9.2 3.5 13 8 C13.7 8.9 14.5 9.7 15.2 10.6 C17.7 15.4 17.9 19.7 18 25 C17.3 25.7 16.7 26.3 16 27 C8.3 23.5 4.4 20.3 0 13 C-1.3 4 -1.3 4 0 0 Z " fill="#B5BD8C" transform="translate(464,500)"/>
<path d="M0 0 C1.3 8.6 0.9 14.8 -4.1 22.1 C-8.1 24.8 -11.3 24.4 -16 24 C-16.4 18.3 -15.5 14.2 -13 9 C-5 0 -5 0 0 0 Z " fill="#B5BD8C" transform="translate(125,496)"/>
</svg>
