<?xml version="1.0" encoding="UTF-8"?>
<!-- Generator: visioncortex VTracer 0.6.12 -->
<svg version="1.1" xmlns="http://www.w3.org/2000/svg" width="600" height="600" viewBox="0 0 600 600" role="img" aria-label="Tree">
<path d="M0 0 C198 0 396 0 600 0 C600 198 600 396 600 600 C402 600 204 600 0 600 C0 402 0 204 0 0 Z " fill="#EDF2ED" transform="translate(0,0)"/>
<path d="M0 0 C2.2 2.2 2.2 2.2 3.2 5.2 C3.6 4.9 3.6 4.9 5.6 3.2 C9.8 0 13 -0.2 18.2 0.2 C18.9 0.7 18.9 0.7 22.2 3.2 C22.2 3.8 22.2 4.5 22.2 5.2 C22.7 4.9 22.7 4.9 25.2 3.2 C33.2 2.5 33.2 2.5 37.2 5.1 C37.9 5.8 38.5 6.5 39.2 7.2 C39.9 7.8 40.6 8.5 41.2 9.2 C41.9 8.9 42.6 8.5 43.2 8.2 C53.1 7.6 53.1 7.6 57.8 9.9 C60.2 12.2 60.2 12.2 62.2 16.2 C62.2 17.8 62.2 19.5 62.2 21.2 C63.1 21 64 20.7 64.9 20.5 C68.2 20.2 68.2 20.2 73.2 23.2 C74.1 26.4 74.1 26.4 74.2 29.2 C74.8 29.2 74.8 29.2 77.5 29 C81.2 29.2 81.2 29.2 85.2 32.2 C85.9 31.9 85.9 31.9 89.2 30.2 C93.4 30.3 94.9 30.9 98 33.6 C98.7 34.5 99.5 35.3 100.2 36.2 C100.9 36.8 101.6 37.5 102.2 38.2 C103.6 36.9 104.9 35.5 106.2 34.2 C111.9 31.9 114.4 32.1 120.2 33.2 C125.6 35.5 128.7 37.9 131.2 43.2 C131.8 51.1 131.8 51.1 130.2 54.2 C131.6 54.1 133 54 134.4 53.9 C139.6 54.2 141.4 54.8 145.2 58.2 C149.3 62.8 149.7 66.1 149.2 72.2 C150.9 73.2 152.6 74.2 154.2 75.2 C158.2 79.1 157.9 81.8 158.2 87.2 C157.9 87.8 157.6 88.5 157.2 89.2 C157.8 89.2 157.8 89.2 160.4 89 C164.5 89.2 166.7 90 170.2 92.2 C172.2 95.2 172.2 95.2 172.2 100.2 C172.9 99.9 173.6 99.5 174.2 99.2 C177.6 98.9 177.6 98.9 181.2 99.2 C185.2 103.2 185.2 103.2 185.2 107.2 C186.9 107.5 188.6 107.8 190.2 108.2 C193.2 112.2 193.2 112.2 193.2 117.2 C194.1 117 194.9 116.7 195.8 116.5 C200.2 116.1 202.4 117.1 206.2 119.2 C210.2 123.3 210.2 123.3 210.2 127.2 C211.1 127.2 212 127.3 212.9 127.4 C217.2 128.4 219.2 129.9 222.2 133.2 C224.1 137.8 224.6 140.1 223.1 144.9 C221.2 148.2 221.2 148.2 218.2 152.2 C218.9 152.9 219.6 153.5 220.2 154.2 C222.7 157.9 222.6 159.9 222.2 164.2 C221.9 165.2 221.6 166.2 221.2 167.2 C222.8 167.1 224.3 167 225.9 166.9 C232.9 167.3 235.4 169.3 240.2 174.2 C240.9 178.9 240.9 178.9 241.2 183.2 C242.7 183.7 244.1 184.3 245.5 184.8 C250.3 187.2 252 188.4 254.2 193.2 C254.2 199.2 254.2 199.2 252.2 204.2 C252.9 204.2 253.6 204.2 254.2 204.2 C256.6 208.8 256.5 210.3 255.2 215.2 C252.1 219.2 250.1 220.2 245.2 222.2 C245.9 223.2 246.6 224.2 247.2 225.2 C247 230.9 246.5 231.9 242.2 236.2 C241.6 236.2 240.9 236.2 240.2 236.2 C240.2 236.8 240.2 237.5 240.2 238.2 C241.5 238.1 242.8 238 244.1 237.9 C245.4 238 246.8 238.1 248.2 238.2 C251.2 242.2 251.2 242.2 251.2 246.2 C252.6 246.2 254 246.3 255.4 246.4 C260.7 247.3 262.2 247.9 265.2 252.2 C266.2 255.2 266.2 255.2 266.2 258.2 C263.2 263.2 263.2 263.2 262.2 264.2 C263.4 264.7 263.4 264.7 269.2 267.2 C269.8 270.2 270.2 273.1 270.2 276.2 C271 276.7 271.8 277.3 272.6 277.8 C276.4 281.3 276.7 284.2 277.2 289.2 C275.7 294.5 273.3 297.6 269.2 301.2 C269.6 301.8 269.9 302.5 270.2 303.2 C270.7 308.3 270.8 311.2 268.1 315.7 C265 318.4 263.3 319 259.2 319.2 C259.2 320.2 259.2 321.3 259.1 322.4 C258.2 326.2 258.2 326.2 255.8 329 C251.6 331.6 248 332.4 243.2 333.2 C243.3 333.7 243.3 333.7 243.4 336.4 C243.2 340.2 243.2 340.2 240.2 345.2 C236.1 347.8 234.3 348.2 229.2 348.2 C229.1 348.7 229.1 348.7 228.4 351.5 C227.2 355.2 227.2 355.2 224.2 358.2 C219.2 359.2 219.2 359.2 216.2 358.2 C216 359.1 215.8 360 215.5 360.9 C214 364.8 212 367.3 208.2 369.2 C202.9 369.6 201.7 369.5 197.2 366.2 C192 366.3 190 366.4 186.2 370.2 C184.9 370.2 183.6 370.2 182.2 370.2 C181.9 371.8 181.6 373.5 181.2 375.2 C177.2 379.2 177.2 379.2 172.9 379.7 C168.1 379.2 165.9 378.2 162.2 375.2 C161.6 376.8 160.9 378.5 160.2 380.2 C157.4 383 155.2 384.9 151.3 386.2 C147.3 386.2 144.8 385 141.2 383.2 C140.3 382.2 139.3 381.2 138.2 380.2 C137.5 381 136.8 381.8 136.1 382.7 C133.2 385.2 133.2 385.2 127.2 385.2 C118.9 382.9 118.9 382.9 115.2 379.2 C114.6 376.9 113.9 374.5 113.2 372.2 C112.6 371.5 111.9 370.9 111.2 370.2 C111.2 368.9 111.2 367.5 111.2 366.2 C110.4 366.7 109.5 367.2 108.6 367.8 C104.8 369.4 103.2 369.4 99.2 368.2 C98.3 367.2 97.3 366.2 96.2 365.2 C96.2 363.5 96.2 361.9 96.2 360.2 C95.6 360.5 94.9 360.8 94.2 361.2 C88.2 361.2 88.2 361.2 85.4 359.6 C83.2 357.2 83.2 357.2 83.2 351.2 C82.4 350.4 81.6 349.6 80.7 348.8 C79.9 347.9 79.1 347.1 78.2 346.2 C78.4 342.4 78.4 342.4 79.2 339.2 C62 346.8 51.2 359 43.4 376.1 C38.6 388.7 37.7 401.7 37.9 415 C37.9 416.5 37.9 418 37.9 419.6 C38.6 474.4 38.6 474.4 51.2 492.2 C59.6 500.2 71.7 504.7 82.2 509.2 C82.2 509.8 82.2 510.5 82.2 511.2 C83.9 511.8 85.6 512.5 87.2 513.2 C89.9 514.8 92.6 516.5 95.2 518.2 C95.2 518.5 95.2 518.8 95.2 519.2 C81.5 519.5 67.9 518.3 54.2 517.2 C56.6 518.5 58.9 519.8 61.2 521.2 C61.2 521.8 61.2 522.5 61.2 523.2 C31.2 522.1 31.2 522.1 27.2 518.2 C19.7 517.7 14.3 518.6 7.2 521.2 C0.4 523.5 -6.6 524.5 -13.8 524.2 C-11.8 520.2 -11.8 520.2 -9.8 517.2 C-14.2 517.7 -17.5 518.5 -21.8 520.2 C-24.9 520.4 -24.9 520.4 -28.1 520.3 C-29.9 520.3 -31.8 520.2 -33.8 520.2 C-33.8 519.9 -33.8 519.5 -33.8 519.2 C-42 519.2 -50.2 519.2 -58.8 519.2 C-54.3 514.7 -51.6 512.8 -46.1 510.2 C-44.7 509.5 -43.2 508.8 -41.8 508.1 C-40.5 507.5 -39.1 506.8 -37.8 506.2 C-35.8 505.2 -33.9 504.3 -32 503.3 C-29.2 501.9 -26.5 500.6 -23.8 499.2 C-11.5 474.7 -12.5 444 -12.4 417.2 C-12.4 415.6 -12.3 414 -12.3 412.4 C-12.4 391.8 -18 375 -32.8 360.2 C-40.9 353 -50.1 348 -59.8 343.2 C-59.8 344.6 -59.8 346 -59.9 347.4 C-60.8 352.2 -60.8 352.2 -63.4 355.2 C-67.1 357.4 -69.4 358.1 -73.8 358.2 C-77.2 357.3 -77.2 357.3 -79.8 356.2 C-80.4 357.2 -81.1 358.2 -81.8 359.2 C-81.4 359.5 -81.1 359.8 -80.8 360.2 C-81 363.6 -81 363.6 -81.8 367.2 C-84.8 369.2 -84.8 369.2 -87.8 369.2 C-87.8 370.1 -87.9 371 -88 372 C-88.8 375.2 -88.8 375.2 -92.8 378.2 C-98.4 380.1 -103.2 379.3 -108.8 377.2 C-109.4 378 -110.1 378.8 -110.8 379.6 C-114.3 382.7 -116.1 383.2 -120.8 383.2 C-124.7 381.7 -126.7 380.2 -129.8 377.2 C-130.2 377.4 -130.2 377.4 -132.4 378.8 C-135.8 380.2 -135.8 380.2 -140.8 379.2 C-144.8 375.1 -144.8 375.1 -144.8 371.2 C-145.4 371.5 -146.1 371.8 -146.8 372.2 C-152.3 372.6 -153.7 372.2 -158.8 369.2 C-162.3 364.5 -162.1 362.8 -161.8 357.2 C-161.4 355.9 -161.1 354.5 -160.8 353.2 C-162.1 353.5 -163.4 353.8 -164.8 354.2 C-168.8 354.6 -171 354.6 -174.6 352.5 C-176.8 350.2 -176.8 350.2 -178.8 345.2 C-180.1 345.8 -181.4 346.5 -182.8 347.2 C-189.4 347.8 -193.4 347.2 -198.8 343.2 C-201.9 337.9 -202.2 336.1 -201.8 330.2 C-201.1 328.9 -200.4 327.5 -199.8 326.2 C-201.1 325.5 -202.4 324.9 -203.8 324.2 C-205 321.1 -205 321.1 -205.8 318.2 C-206.6 318.4 -207.4 318.6 -208.3 318.9 C-212.7 319.3 -214.9 318.3 -218.8 316.2 C-221.8 312.2 -221.8 312.2 -221.8 307.2 C-222.7 307.1 -223.6 307.1 -224.5 307 C-228.5 306 -229.5 304.6 -231.8 301.2 C-232.8 299.2 -232.8 299.2 -232.8 293.2 C-232.1 291.5 -231.4 289.9 -230.8 288.2 C-231.7 286.9 -232.7 285.5 -233.8 284.2 C-233.7 278.9 -232.4 276 -228.8 272.2 C-229.4 270.9 -230.1 269.5 -230.8 268.2 C-230.5 263.6 -230.1 262.5 -226.8 259.2 C-225.8 259.2 -224.8 259.2 -223.8 259.2 C-223.6 258.1 -223.5 257 -223.4 255.9 C-222.8 252.2 -222.8 252.2 -220.8 248.2 C-220.8 247.6 -220.8 247.6 -221 244.4 C-220.7 238.8 -218.7 236.9 -214.8 233.2 C-213.9 232.9 -213.9 232.9 -209.8 231.2 C-210.6 230.3 -211.4 229.3 -212.2 228.4 C-216.4 223.1 -216.1 218.8 -215.8 212.2 C-212.7 207.2 -212.7 207.2 -209.8 204.2 C-211.1 202.9 -212.4 201.5 -213.8 200.2 C-213.8 194.5 -213 193.4 -208.8 189.2 C-208.1 188.9 -207.4 188.5 -206.8 188.2 C-206.9 186.8 -207 185.4 -207.1 184 C-206.8 179.2 -206.8 179.2 -204.7 176.2 C-201.4 173.9 -197.9 172.2 -193.8 172.2 C-193.8 170.7 -193.9 169.1 -193.9 167.6 C-193.7 160.5 -192.4 158 -187.6 152.9 C-183.1 149.8 -180.1 149.4 -174.8 149.2 C-174.5 148.7 -174.5 148.7 -173.5 146 C-171 140.6 -169.1 137.9 -163.8 135.2 C-158.2 134.9 -155 135.1 -149.8 137.2 C-149.1 135.5 -148.4 133.9 -147.8 132.2 C-148.9 132.2 -150 132.3 -151.1 132.3 C-154.8 132.2 -154.8 132.2 -156.8 130.2 C-156.4 128.5 -156.1 126.9 -155.8 125.2 C-157.1 123.9 -158.4 122.5 -159.8 121.2 C-160.5 115.6 -159.7 114.2 -156.8 109.2 C-151.8 106.2 -151.8 106.2 -149.8 106.2 C-149.7 105.1 -149.6 104 -149.5 102.9 C-148.8 99.2 -148.8 99.2 -144.8 96.2 C-143.4 95.9 -142.1 95.5 -140.8 95.2 C-141.7 94.2 -142.7 93.2 -143.8 92.2 C-144.3 88.8 -144.3 88.8 -143.8 85.2 C-141.1 82.2 -141.1 82.2 -137.8 80.2 C-135.8 80.2 -133.8 80.2 -131.8 80.2 C-132.4 78.5 -133.1 76.9 -133.8 75.2 C-133.8 70.8 -132.7 69.1 -130.1 65.4 C-126.7 62.2 -125.3 60.9 -120.8 60.2 C-116.4 60.6 -116.4 60.6 -112.8 61.2 C-112.1 59.5 -111.4 57.9 -110.8 56.2 C-106.5 53 -104.9 52.4 -99.8 52.2 C-96.3 53.6 -96.3 53.6 -93.8 55.2 C-93.8 55.8 -93.8 56.5 -93.8 57.2 C-93.1 56.5 -92.4 55.9 -91.8 55.2 C-88 52.6 -85.3 52.3 -80.8 52.2 C-79.9 52.7 -79.9 52.7 -75.8 55.2 C-75.1 55.5 -74.4 55.8 -73.8 56.2 C-73.1 55.9 -72.4 55.5 -71.8 55.2 C-71.9 54.7 -71.9 54.7 -72.9 52.1 C-73.8 48.2 -73.8 48.2 -72.6 44.9 C-70.8 42.2 -70.8 42.2 -67.8 40.2 C-67.5 38.8 -67.2 37.4 -66.9 35.9 C-65.7 30.9 -64.4 28.8 -60.8 25.2 C-55.8 22.7 -52.2 23 -46.8 23.2 C-46.4 21.5 -46.1 19.9 -45.8 18.2 C-41 13.8 -38.2 13 -31.8 13.2 C-31.4 13.4 -31.4 13.4 -29.8 14.2 C-29.3 13 -28.9 11.8 -28.5 10.5 C-26.5 5.5 -24.6 2.6 -20.3 -0.6 C-13.6 -2.9 -6.4 -3.1 0 0 Z " fill="#51865E" transform="translate(281.75,32.8125)"/>
<path d="M0 0 C88.1 0 176.2 0 267 0 C265.2 23.8 265.2 23.8 258 32 C251.2 37.4 243.7 40.3 235.8 43.7 C231 46 231 46 224 51 C232.2 51 240.5 51 249 51 C249 51.3 249 51.7 249 52 C256.6 52.3 261.8 51.6 269 49 C270.3 49.3 271.6 49.7 273 50 C271.4 52.3 269.7 54.6 268 57 C271.5 56.4 275 55.8 278.5 55.2 C280.4 54.9 282.4 54.5 284.4 54.2 C289.2 53.2 293.4 51.7 298 50 C304.5 49.6 309.8 50 316 52 C324.9 54 333.9 55 343 56 C343 55.3 343 54.7 343 54 C341.7 53.7 340.4 53.3 339 53 C338.3 52.3 338.3 52.3 335 49 C336.8 49.1 338.6 49.3 340.4 49.4 C352.3 50.4 364.1 51.3 376 51 C372 48.7 368.1 46.4 364 44 C364 43.3 364 42.7 364 42 C362.4 41.7 360.7 41.3 359 41 C334.6 30.1 334.6 30.1 328 18 C325.7 11.9 324 6.6 324 0 C415.1 0 506.2 0 600 0 C600 33 600 66 600 100 C402 100 204 100 0 100 C0 67 0 34 0 0 Z " fill="#D4E3D6" transform="translate(0,500)"/>
<path d="M0 0 C1 0 2 0 3 0 C2.8 1.1 2.7 2.1 2.5 3.2 C2.1 7 2 10.4 2 14.1 C2 18.4 1.9 21.9 1 26 C3.5 23.5 5.7 20.7 8 18 C9.3 18.3 10.6 18.7 12 19 C10.2 23.4 8.3 26.7 5.7 30.6 C-13 59.5 -8.5 91.1 -3.5 123.5 C-3 127 -3 127 -3 132 C5.1 129.8 10.7 124.1 15.6 117.4 C16.1 116.6 16.5 115.8 17 115 C17.7 115 18.3 115 19 115 C19.7 113.4 20.3 111.7 21 110 C22.1 107.9 23.2 105.8 24.4 103.7 C30.5 91.5 32.5 78.5 34 65 C39 66 39 66 41 67 C41.5 76.9 39.7 86.3 38 96 C51.8 89.5 63.5 82.2 74 71 C75.3 72 76.6 73 78 74 C77 75.3 76 76.6 75 78 C79.7 76.4 84.4 74.8 89 73 C89.7 73.3 90.3 73.7 91 74 C90 77 90 77 85.9 79.3 C81.6 81.4 77.2 83 72.8 84.7 C43.7 96.2 23.6 125.2 10.5 152.4 C8.4 157.5 7.1 162.5 6 168 C5.7 169.6 5.3 171.3 5 173 C4.9 176.3 4.9 179.5 4.9 182.8 C4.9 184.5 5 186.2 5 188 C5 189.3 5 190.6 5 192 C9.3 189.4 11.9 187.3 15.3 183.7 C23.2 175.7 32 170 41.6 164.2 C59 153.5 68 143.4 77 125 C78 125.3 79 125.7 80 126 C79.4 131.2 77.7 135.2 75.4 139.9 C74.8 141.2 74.2 142.6 73.5 143.9 C73 144.9 72.5 146 72 147 C88 139.8 99.3 131.7 108.8 116.8 C111 114 111 114 116 113 C114.7 117.2 113.3 120.1 111 124 C111.9 123.8 112.8 123.7 113.8 123.5 C119.2 122.9 124.5 122.9 130 123 C129.7 124 129.3 125 129 126 C128 126.2 126.9 126.4 125.9 126.7 C115.7 129 107.5 131.5 100 139 C101.8 140.8 104.7 140.5 107.2 140.8 C108.5 140.9 109.7 141 111 141.2 C111.7 141.2 111.7 141.2 115.1 141.6 C116.4 141.7 117.7 141.8 119.1 142 C122.4 142.3 125.7 142.7 129 143 C129 144.3 129 145.6 129 147 C121.8 147.1 114.8 146.9 107.7 146.4 C88 145.1 71.9 159.5 57 171 C63.3 171.3 69.5 171.7 76 172 C75.7 173.3 75.3 174.6 75 176 C74.1 176 73.1 176.1 72.1 176.1 C53.4 177.1 39 181.9 26 196 C12.4 213.9 8.4 232.6 8.6 254.8 C8.6 256.3 8.6 257.8 8.7 259.4 C9.4 314.2 9.4 314.2 22 332 C30.3 340 42.4 344.6 53 349 C53 349.7 53 350.3 53 351 C54.6 351.7 56.3 352.3 58 353 C60.7 354.6 63.4 356.3 66 358 C66 358.3 66 358.7 66 359 C52.2 359.3 38.7 358.2 25 357 C27.3 358.3 29.6 359.6 32 361 C32 361.7 32 362.3 32 363 C1.9 361.9 1.9 361.9 -2 358 C-9.5 357.5 -15 358.4 -22 361 C-28.8 363.3 -35.8 364.3 -43 364 C-41 360 -41 360 -39 357 C-43.5 357.5 -46.7 358.3 -51 360 C-54.1 360.2 -54.1 360.2 -57.3 360.1 C-59.2 360.1 -61.1 360 -63 360 C-63 359.7 -63 359.3 -63 359 C-71.2 359 -79.5 359 -88 359 C-83.5 354.5 -80.8 352.6 -75.3 350 C-73.9 349.3 -72.5 348.6 -71 347.9 C-69.7 347.3 -68.4 346.7 -67 346 C-65.1 345 -63.2 344.1 -61.2 343.1 C-58.5 341.8 -55.8 340.4 -53 339 C-40.8 314.5 -41.7 283.8 -41.6 257.1 C-41.6 255.5 -41.6 253.8 -41.6 252.2 C-41.7 231.6 -47.3 214.8 -62 200 C-77.2 186.7 -99.3 173.9 -119.8 173.8 C-121.2 173.8 -122.5 173.8 -124 173.8 C-128 174 -128 174 -131.7 175.1 C-135 176 -135 176 -140 175 C-140 174.3 -140 173.7 -140 173 C-133.4 170.5 -127 168.4 -120 167 C-122.4 165.6 -124.7 164.1 -127.1 162.7 C-128.4 161.9 -129.7 161.1 -131 160.3 C-139.1 155.7 -146.1 154 -155.3 153.4 C-156.8 153.4 -158.2 153.3 -159.7 153.2 C-160.8 153.1 -161.9 153.1 -163 153 C-163 151.7 -163 150.4 -163 149 C-157.7 148.7 -152.4 148.3 -147 148 C-149.6 145.4 -152.3 142.7 -155 140 C-154.8 139.7 -154.8 139.7 -154 138 C-148.6 139.1 -145.6 142.1 -141.6 145.8 C-132.2 153.8 -119.1 161.6 -107 164 C-109.3 159.1 -111.6 154.1 -114 149 C-112.7 149 -111.4 149 -110 149 C-108.1 151.2 -108.1 151.2 -106.2 154.1 C-96.5 168 -83.2 171.8 -67.9 177.5 C-62.4 179.6 -57.2 182.3 -52 185 C-50.7 185.3 -49.4 185.7 -48 186 C-56.5 163.7 -70.7 150.5 -90 137 C-99.8 129.7 -99.8 129.7 -101 126 C-100.3 124.7 -99.7 123.4 -99 122 C-97.5 123.1 -96.1 124.3 -94.6 125.4 C-87.2 130.8 -79.1 134.9 -71 139 C-76.7 117.7 -83.3 95.6 -101 81 C-107.4 78.2 -114.1 77.1 -121 76 C-121 74.7 -121 73.4 -121 72 C-116.7 72.3 -112.4 72.7 -108 73 C-108.8 72.2 -109.7 71.4 -110.5 70.6 C-113 68 -113 68 -113 66 C-112.3 65.8 -112.3 65.8 -109 65 C-108.1 66 -107.1 67 -106.1 68 C-101.6 72.4 -96.9 76.2 -92 80 C-90.1 81.5 -88.2 83 -86.4 84.5 C-84.9 85.7 -83.5 86.8 -82 88 C-82 86.2 -82.1 84.4 -82.1 82.6 C-82.1 76.5 -81.7 70.5 -79 65 C-77.7 65 -76.4 65 -75 65 C-75.2 66.3 -75.3 67.5 -75.5 68.8 C-77 84.6 -74 97.8 -67.9 112.3 C-67.4 113.5 -66.9 114.6 -66.4 115.8 C-58.3 135 -48.5 151.9 -33 166 C-32 166.3 -31 166.7 -30 167 C-29 156.8 -28.8 146.7 -28.8 136.4 C-28.8 133.3 -28.7 130.3 -28.7 127.2 C-28.6 102.3 -33.9 82 -51 63 C-56.2 58.5 -61.9 55.2 -68 52 C-67.7 50.7 -67.3 49.4 -67 48 C-62 49 -62 49 -59 50 C-59.7 48.9 -60.4 47.8 -61.1 46.7 C-61.7 45.5 -62.3 44.3 -63 43 C-62 40 -62 40 -59 37 C-58.3 37 -57.7 37 -57 37 C-56.4 38.2 -55.7 39.5 -55.1 40.8 C-49.6 50.6 -42.1 59.3 -35 68 C-33.9 69.3 -32.8 70.7 -31.7 72.1 C-29 75 -29 75 -26 76 C-25.5 64.4 -27.7 56.4 -35 47 C-34.3 45.7 -33.7 44.4 -33 43 C-30.3 45.7 -27.7 48.4 -25.2 51.3 C-24.9 51.8 -24.9 51.8 -23 54 C-22.7 54 -22.3 54 -22 54 C-21 48.7 -20 43.4 -19 38 C-18.3 38 -17.7 38 -17 38 C-17.4 36.4 -17.7 34.9 -18.1 33.2 C-19 28 -19 28 -18 24 C-17.2 23.7 -17.2 23.7 -13 22 C-12 24 -11 26 -10 28 C-7.7 24.5 -7.3 21.9 -6.5 17.8 C-4 4 -4 4 0 0 Z " fill="#78512F" transform="translate(311,193)"/>
<path d="M0 0 C2.2 2.2 2.2 2.2 3.2 5.2 C3.6 4.9 3.6 4.9 5.6 3.2 C9.8 0 13 -0.2 18.2 0.2 C19.6 1.2 20.9 2.2 22.2 3.2 C22.2 3.8 22.2 4.5 22.2 5.2 C23.2 4.5 24.2 3.9 25.2 3.2 C33.2 2.5 33.2 2.5 37.2 5.1 C41.3 9.4 40.3 13.5 40.2 19.2 C41.9 19.5 43.6 19.8 45.2 20.2 C46.2 21.2 46.2 21.2 46.2 27.2 C42.2 31.2 42.2 31.2 37.2 33.2 C37.7 33.5 37.7 33.5 40.2 35.2 C41.6 34.5 42.9 33.9 44.2 33.2 C49.7 32.5 51.6 32.7 56.2 36.1 C60.2 40.2 60.2 40.2 60.4 45.1 C60.2 49.2 60.2 49.2 58.2 53.2 C59.7 53.6 61.1 54 62.6 54.4 C67.2 56.2 67.2 56.2 70.2 61.2 C69.9 62.5 69.6 63.8 69.2 65.2 C69.8 65.4 69.8 65.4 72.6 66.5 C76.2 68.2 76.2 68.2 78.2 71.2 C78.1 74.7 78.1 74.7 77.2 78.2 C76.6 78.7 76.6 78.7 73.2 81.2 C73.9 81.8 74.6 82.5 75.2 83.2 C74.9 84.8 74.6 86.5 74.2 88.2 C71.1 89.7 68.7 89.5 65.2 89.2 C61.8 87.2 61.8 87.2 59.2 85.2 C58.6 86 57.9 86.9 57.2 87.8 C54.2 90.2 54.2 90.2 50.4 90 C49.9 89.9 49.9 89.9 47.2 89.2 C46.9 87.9 46.9 87.9 45.2 81.2 C40.2 80.2 40.2 80.2 38.2 80.2 C37.8 80.6 37.8 80.6 35.5 82.8 C32.2 85.2 32.2 85.2 28.9 85 C28.4 84.9 28.4 84.9 26.2 84.2 C26.3 85.4 26.4 86.6 26.5 87.9 C26.2 92.6 25.7 94.1 22.2 97.2 C17.2 98.2 17.2 98.2 12.2 95.2 C12.2 93.5 12.2 91.9 12.2 90.2 C11.4 90.4 10.5 90.6 9.6 90.9 C6.2 91.2 6.2 91.2 1.2 88.2 C0.3 89 -0.6 89.8 -1.6 90.6 C-6.3 94.5 -6.2 94.2 -12.8 94.2 C-16.7 91.7 -18.4 90.3 -19.7 85.8 C-19.8 82.1 -19.4 78.8 -18.8 75.2 C-19.2 75.4 -19.2 75.4 -21.2 76.2 C-25.6 77.4 -29.2 77.5 -33.8 77.2 C-36.8 74.2 -36.8 74.2 -37.1 70.8 C-36.8 67.2 -36.8 67.2 -34.8 62.2 C-35.6 62.2 -36.5 62.2 -37.4 62.3 C-38.6 62.3 -39.7 62.3 -40.9 62.3 C-42.1 62.3 -43.2 62.4 -44.4 62.4 C-47.8 62.2 -47.8 62.2 -52.8 60.2 C-54.1 56.6 -54.1 56.6 -54.8 53.2 C-55.1 53.4 -55.1 53.4 -56.8 54.2 C-62.6 54.6 -64.5 54.3 -69.8 51.2 C-71.6 48 -71.6 48 -72.8 45.2 C-72 44.5 -71.2 43.9 -70.4 43.2 C-67.1 39.4 -66.8 36.1 -65.8 31.2 C-62.9 27.1 -61.2 25.4 -56.8 23.2 C-53.4 23.1 -50.1 23.1 -46.8 23.2 C-46.4 21.5 -46.1 19.9 -45.8 18.2 C-41 13.8 -38.2 13 -31.8 13.2 C-31.1 13.5 -30.4 13.8 -29.8 14.2 C-29.5 13.6 -29.5 13.6 -28.5 10.5 C-26.5 5.5 -24.6 2.6 -20.3 -0.6 C-13.6 -2.9 -6.4 -3.1 0 0 Z " fill="#7FAB84" transform="translate(281.75,32.8125)"/>
<path d="M0 0 C3.6 0.4 3.6 0.4 7 1 C7.2 1.8 7.2 1.8 8 6 C9.3 5.3 10.6 4.7 12 4 C15.1 4 15.1 4 18 5 C19.1 7 20.1 9 21 11 C22.7 12 24.3 13 26 14 C27.3 17.7 27.3 17.7 28 21 C28.7 21 29.3 21 30 21 C30 19.8 30.1 18.6 30.1 17.4 C31.2 12.1 33.1 9.8 37 6 C41.4 4.5 45.4 4.8 50 5 C54 7 54 7 56 10 C57 9.7 58 9.3 59 9 C62.5 8.8 62.5 8.8 66 9 C69 12 69 12 69.2 15.7 C69.2 16.2 69.2 16.2 69 19 C70.1 19.1 71.2 19.2 72.3 19.2 C76 20 76 20 79 24 C79 30.2 78.8 31.5 75 36 C73.3 36.7 71.7 37.3 70 38 C70 38.7 70 39.3 70 40 C71.5 39.9 73.1 39.8 74.7 39.7 C80 40 80 40 83.1 42.1 C85 45 85 45 85 51 C83.7 52.7 82.3 54.3 81 56 C81 58 81 60 81 62 C80.7 63 80.3 64 80 65 C80.5 65.7 80.5 65.7 83 69 C83 70.6 83 72.3 83 74 C82 75 81 76 80 77 C78 77 76 77 74 77 C73.7 76.7 73.3 76.3 73 76 C72.3 77.6 71.7 79.3 71 81 C70.7 81.3 70.3 81.7 70 82 C68.3 82 66.7 82 65 82 C64.3 81.3 63.7 80.7 63 80 C61.3 80 59.7 80 58 80 C57.3 78.4 56.7 76.7 56 75 C54.3 76 52.7 77 51 78 C46 77 46 77 43 73 C43.3 69.2 43.3 69.2 44 66 C42.7 66 41.4 66 40 66 C38.6 67.6 37.3 69.3 36 71 C30.9 73.5 27.4 73.4 22 72 C21.3 72.7 20.7 73.3 20 74 C17.7 73.7 15.3 73.4 13 73 C12 73 11 73 10 73 C10 76 10 76 12.5 79.6 C15.5 84.9 15.6 88 15 94 C14 95.3 13 96.6 12 98 C10.3 98 8.7 98 7 98 C7.3 98.7 7.7 99.3 8 100 C8.2 103.4 8.2 103.4 8 107 C7 108 6 109 5 110 C3.3 109.7 1.7 109.3 0 109 C-0.1 109.5 -0.1 109.5 -0.3 111.8 C-1 115 -1 115 -4 118 C-7 118 -7 118 -10 117 C-11 115.4 -12 113.7 -13 112 C-13.7 112.2 -13.7 112.2 -17 113 C-17.5 112.7 -17.5 112.7 -20 111 C-21 106 -21 106 -20 103 C-22 102.3 -24 101.7 -26 101 C-27.3 102 -28.6 103 -30 104 C-32 104 -34 104 -36 104 C-39.3 100.2 -39.3 100.2 -42 96 C-42.7 95 -43.3 94 -44 93 C-43.8 87.7 -42.6 84.9 -39 81 C-39.7 79.7 -40.3 78.4 -41 77 C-40.7 72.4 -40.3 71.3 -37 68 C-36 68 -35 68 -34 68 C-33.9 66.9 -33.8 65.9 -33.6 64.8 C-33 61 -33 61 -31 57 C-31.1 55.7 -31.2 54.5 -31.2 53.2 C-30.9 47.6 -29 45.8 -25 42 C-23.3 41.3 -21.7 40.7 -20 40 C-20.4 39.5 -20.4 39.5 -22.4 37.2 C-26.7 31.9 -26.3 27.7 -26 21 C-23 16 -23 16 -21 15 C-18.3 15 -15.7 15 -13 15 C-12.7 13.7 -12.3 12.4 -12 11 C-9.2 8.2 -6.8 8.4 -3 8 C-2.9 7.5 -2.9 7.5 -2.6 5.1 C-2 2 -2 2 0 0 Z " fill="#80AC85" transform="translate(92,224)"/>
<path d="M0 0 C1.3 1 2.6 2 4 3 C4 4 4 5 4 6 C4.7 5.7 5.3 5.3 6 5 C14.5 4.6 14.5 4.6 18 7 C17 12 17 12 15 14 C13 14.7 11 15.4 9 16 C9.3 16.3 9.7 16.7 10 17 C10 19 10 21 10 23 C6 27 6 27 2.4 27.9 C1.3 28.3 0.1 28.6 -1 29 C-1.7 30.7 -2.3 32.3 -3 34 C-1.3 33.3 0.3 32.7 2 32 C6.6 32.3 7.7 32.7 11 36 C11 37.3 11 38.6 11 40 C12.3 39 13.6 38 15 37 C18.6 36.7 18.6 36.7 22 37 C24 39 24 39 24.1 42.6 C24.1 43.7 24 44.9 24 46 C24.9 45.8 25.8 45.5 26.7 45.2 C30 45 30 45 32.9 46.6 C35 49 35 49 35 55 C33.7 56.3 32.4 57.6 31 59 C31.7 59.7 32.3 60.3 33 61 C33 67 33 67 30.9 69.4 C27.2 71.4 25.1 71 21 70 C21 71.4 20.9 72.8 20.9 74.2 C20 79 20 79 17.1 82 C11.9 85.4 9.2 85.2 3 84 C-0 81.5 -0 81.5 -2 79 C-2.3 78.7 -2.7 78.3 -3 78 C-4 79.7 -5 81.3 -6 83 C-6.7 83.7 -7.3 84.3 -8 85 C-14 85 -14 85 -19 82 C-19.3 82.7 -19.3 82.7 -21 86 C-25.3 88.1 -27.3 88.5 -32 88 C-36.7 83.3 -36.6 81.4 -37 75 C-37.8 75.7 -38.7 76.4 -39.6 77.1 C-43 79 -43 79 -46.7 79.1 C-50 78 -50 78 -53 73 C-53.3 71.7 -53.7 70.4 -54 69 C-55 69.3 -56 69.7 -57 70 C-56.7 70.7 -56.3 71.3 -56 72 C-55.7 75.9 -55.7 75.9 -56 80 C-60 84 -60 84 -63 85 C-62.9 85.5 -62.9 85.5 -62.3 88.3 C-62.3 88.9 -62.3 88.9 -62 92 C-63 93 -64 94 -65 95 C-67 95 -69 95 -71 95 C-71.7 95.2 -71.7 95.2 -75 96 C-75.7 95.7 -76.3 95.3 -77 95 C-77 94.3 -77 93.7 -77 93 C-77.4 93.4 -77.4 93.4 -79.6 95.6 C-83 98 -83 98 -86.3 97.9 C-89 97 -89 97 -90 95 C-90 92.7 -90 90.3 -90 88 C-90.9 87.9 -91.9 87.8 -92.9 87.8 C-93.4 87.6 -93.4 87.6 -96 87 C-98 83 -98 83 -97 78 C-94 75 -94 75 -92 74 C-90 74 -88 74 -86 74 C-85.7 72.7 -85.3 71.4 -85 70 C-85.6 69.1 -86.3 68.3 -86.9 67.4 C-89.8 62.7 -89.5 59.4 -89 54 C-86.6 49 -84.9 47.9 -80 45 C-74.7 44.8 -74.7 44.8 -70 45 C-69.3 43.3 -68.7 41.7 -68 40 C-64.2 35.7 -62.5 35 -56.8 34.6 C-52 35 -52 35 -50 36 C-50 34 -50 32 -50 30 C-47 27.1 -47 27.1 -44 25 C-45 24 -46 23 -47 22 C-47 17 -47 17 -45 15 C-43 15 -41 15 -39 15 C-38.9 14.1 -38.9 13.2 -38.8 12.3 C-37.8 8.2 -36.2 6.7 -33 4 C-29.6 2.3 -26.7 2.7 -23 3 C-19 5.5 -19 5.5 -16 8 C-15.3 6.3 -14.7 4.7 -14 3 C-8.5 -0.3 -6.2 -0.5 0 0 Z " fill="#80AC85" transform="translate(238,125)"/>
<path d="M0 0 C1.3 1 2.6 2 4 3 C4 3.7 4 4.3 4 5 C5.3 4 6.6 3 8 2 C12.7 1.1 15.9 0.6 20.4 2.2 C23 4 23 4 25 7 C25 8.7 25 10.3 25 12 C25.7 11.7 26.3 11.3 27 11 C30.4 10.7 30.4 10.7 34 11 C38 15 38 15 38 19 C39.6 19.3 41.3 19.7 43 20 C46 24 46 24 46 29 C46.8 28.8 47.7 28.5 48.6 28.3 C52.9 27.9 55.2 28.9 59 31 C63 35.1 63 35.1 63 39 C63.7 39.2 63.7 39.2 67 40 C66 40 65 40 64 40 C64.1 41.4 64.1 42.8 64.2 44.2 C64 49 64 49 61 54 C57 57 57 57 54.1 56.9 C50.8 55.9 48 54.6 45 53 C45.7 54 46.3 55 47 56 C47.5 61.4 47.7 64 44.5 68.6 C43.7 69.4 42.9 70.2 42 71 C42.2 71.4 42.2 71.4 43.2 73.7 C44 77 44 77 41 82 C40 83 40 83 36.4 83.1 C35.3 83 34.2 83 33 83 C33 84.1 33.1 85.2 33.1 86.3 C33 90 33 90 31 93 C27 94 27 94 23 92 C23 91.3 23 90.7 23 90 C22.3 90.3 22.3 90.3 19 92 C17.4 91.7 15.7 91.3 14 91 C12.2 87.9 12.2 87.9 11 85 C10 85.7 9 86.3 8 87 C4.5 87.4 4.5 87.4 1 87 C-2 83 -2 83 -2 77 C-4.6 77.3 -7.3 77.7 -10 78 C-10.7 80 -11.3 82 -12 84 C-17 85 -17 85 -20 84 C-20.8 84.2 -20.8 84.2 -25 85 C-26.3 83.7 -27.6 82.4 -29 81 C-28.8 77.8 -28.8 77.8 -28 75 C-28.6 74.9 -28.6 74.9 -31.9 74.2 C-36 73 -36 73 -38 70 C-38 64 -38 64 -37 62 C-37.6 61.9 -37.6 61.9 -40.8 61.1 C-45 60 -45 60 -48 58 C-48.7 55 -49.4 52 -50 49 C-50.7 48.3 -51.3 47.7 -52 47 C-51.5 41.5 -51.5 41.5 -49 39 C-48 39 -47 39 -46 39 C-46 38.3 -46 37.7 -46 37 C-47 36.7 -48 36.3 -49 36 C-51.3 31.4 -51.3 29.9 -50 25 C-47.2 21.9 -45.4 21.1 -41.4 20.2 C-38 20 -38 20 -35 21 C-35.3 20.3 -35.7 19.7 -36 19 C-36 13 -36 13 -33.9 10.1 C-31 8 -31 8 -27.5 7.4 C-23.5 8.1 -21.9 9.2 -19 12 C-18.6 10.8 -18.3 9.5 -17.9 8.2 C-14.1 -0.2 -8.8 -0.8 0 0 Z " fill="#80AC85" transform="translate(429,121)"/>
<path d="M0 0 C1.5 -0.2 2.9 -0.4 4.4 -0.6 C9 -1 9 -1 14 2 C14.2 2.8 14.2 2.8 15 7 C16.1 6.8 17.2 6.5 18.3 6.3 C19.5 6.2 20.7 6.1 22 6 C23 7 24 8 25 9 C25 10.7 25 12.3 25 14 C27 14 29 14 31 14 C31.3 14.3 31.3 14.3 33 16 C32.9 19.4 32.9 19.4 32 23 C30.7 24 29.4 25 28 26 C28.2 26.8 28.2 26.8 29 31 C25 35 25 35 23 36 C23.2 37 23.2 37 24 42 C28.6 40.8 29.2 39.7 32 36 C34 35 34 35 40 35 C41.3 36 42.6 37 44 38 C44 38.7 44 39.3 44 40 C45.3 39.9 46.5 39.8 47.8 39.8 C49.2 39.8 50.6 39.9 52 40 C55 44 55 44 55 48 C56.4 48.1 57.8 48.1 59.2 48.2 C64.4 49.1 66 49.7 69 54 C70 57 70 57 70 60 C67 65 67 65 66 66 C68.3 67 70.6 68 73 69 C73.5 72.1 74 74.9 74 78 C74.3 79.6 74.7 81.3 75 83 C71.7 87.3 70.9 87.5 66 89 C65 90 64 91 63 92 C59.6 92.5 59.6 92.5 56 92 C53.1 89.5 53.1 89.5 51 87 C49.7 87.3 48.4 87.7 47 88 C46.5 87.7 46.5 87.7 44 86 C44 84.4 44 82.7 44 81 C42.6 81.2 41.2 81.5 39.8 81.8 C39 81.8 39 81.8 35 82 C31 78 31 78 30 73 C31.4 69.2 31.4 69.2 33 66 C29.7 65.6 26.3 65.3 23 65 C22.7 65.3 22.3 65.7 22 66 C15.4 66 14.5 65.3 10 61 C8.4 61.7 6.7 62.3 5 63 C4 63 3 63 2 63 C1.3 64.3 0.7 65.6 0 67 C-3 69 -3 69 -6.6 68.8 C-10 68 -10 68 -12 65 C-11.7 61.2 -11.2 59.2 -9 56 C-10.3 55.7 -11.6 55.3 -13 55 C-14 53 -14 53 -14 47 C-13.7 46 -13.3 45 -13 44 C-19.6 42.9 -19.6 42.9 -23 44 C-24 45.6 -25 47.3 -26 49 C-26.3 49.3 -26.7 49.7 -27 50 C-33 50 -33 50 -36 48 C-37.3 49 -38.6 50 -40 51 C-43.8 50.7 -43.8 50.7 -47 50 C-47.3 48.4 -47.7 46.7 -48 45 C-47.2 44.3 -46.5 43.6 -45.7 42.9 C-43 40 -41.6 37.5 -40 34 C-41.3 33 -42.6 32 -44 31 C-44.2 27.3 -44.2 27.3 -44 24 C-39 21 -39 21 -36 21 C-36.2 20.1 -36.5 19.2 -36.7 18.2 C-37 15 -37 15 -34 11 C-29.5 9.7 -28.3 9.8 -24 12 C-23.4 10.8 -22.8 9.5 -22.2 8.2 C-17 -1.6 -10.3 -2.6 0 0 Z " fill="#80AC85" transform="translate(478,231)"/>
<path d="M0 0 C4.1 3.7 6.6 7.4 9.1 12.3 C9.5 12.9 9.5 12.9 11.1 16.1 C16.2 29.5 16.5 43.1 16.3 57.3 C16.3 60.3 16.3 63.4 16.3 66.5 C16.3 76 15.9 84.7 14 94 C9.3 92.8 8.2 91.5 5 88 C4 87 3.1 85.9 2.1 84.9 C1.6 84.4 1.6 84.4 -0.8 81.7 C-1.8 80.6 -2.8 79.6 -3.8 78.4 C-4.1 78 -4.1 78 -6 76 C-5.7 74.7 -5.3 73.4 -5 72 C-3.6 71.8 -2.2 71.5 -0.7 71.2 C4 70 4 70 7 66 C7.4 61.3 7.1 59.3 5 55 C6 54 7 53 8 52 C8.5 46.4 8.5 44.6 5 40 C1.8 38.8 1.8 38.8 -1 38 C-1.3 36.8 -1.3 36.8 -3 31 C-9.9 30 -9.9 30 -11 30 C-11 29.5 -11 29.5 -11.2 26.8 C-12 23 -12 23 -16 19 C-14.3 18 -12.7 17 -11 16 C-10.3 13.2 -10 10.9 -10 8 C-7.4 7.3 -4.7 6.7 -2 6 C-1.3 4 -0.7 2 0 0 Z " fill="#ECF2EC" transform="translate(267,266)"/>
<path d="M0 0 C1 0 2 0 3 0 C2.2 3.9 2.2 3.9 1 8 C0.3 8.3 0.3 8.3 -3 10 C-4 12 -4 12 -4 18 C-3.3 19.3 -2.7 20.6 -2 22 C-3.3 23 -4.6 24 -6 25 C-7 26.7 -8 28.3 -9 30 C-9.7 30.9 -10.4 31.8 -11.2 32.7 C-13.7 37.3 -13.5 40.8 -13 46 C-12 47.6 -11 49.3 -10 51 C-10.1 56.3 -11 57 -15 61 C-13.2 70.8 -13.2 70.8 -11 73 C-9.7 73.3 -8.4 73.7 -7 74 C-7.3 75 -7.7 76 -8 77 C-8 79.3 -8 81.7 -8 84 C-6.7 84.7 -5.4 85.3 -4 86 C-2.8 89.6 -2.8 89.6 -2 93 C0.3 93.7 2.6 94.3 5 95 C1.3 102.3 -4.1 108.5 -11 113 C-12.6 113 -14.3 113 -16 113 C-17.4 104.7 -18.7 96.3 -20 88 C-20.2 86.5 -20.5 85 -20.7 83.5 C-25.1 52.7 -20.1 28.5 -2.7 3.2 C-1.8 2.1 -0.9 1.1 0 0 Z " fill="#EAF0EA" transform="translate(324,212)"/>
<path d="M0 0 C1.3 0.7 2.6 1.3 4 2 C3.7 2.5 3.7 2.5 2 5 C2 6.6 2 8.3 2 10 C3 10.7 4 11.3 5 12 C4.7 13.3 4.3 14.6 4 16 C1 17.7 1 17.7 -2 19 C-3 20 -3 20 -3.1 24.6 C-3 26 -3 27.5 -3 29 C-1 29.7 1 30.3 3 31 C2.7 31.7 2.3 32.3 2 33 C1.3 33 0.7 33 0 33 C0 35.6 0 38.3 0 41 C1.6 42 3.3 43 5 44 C3.8 49.8 2.2 50.7 -2.4 54 C-8.2 58.4 -13.4 63.4 -18.4 68.6 C-21 71 -21 71 -24 71 C-28.4 57.9 -24 41.3 -18.6 29.1 C-13.4 18.8 -7 9.3 0 0 Z " fill="#EAF0EA" transform="translate(340,314)"/>
<path d="M0 0 C30.2 -0.7 63.8 -0.1 93 8 C93.3 8.5 93.3 8.5 95 11 C86.8 15.2 77.2 16.4 68 16 C68 15.7 68 15.3 68 15 C70 15 72 15 74 15 C74.3 14 74.7 13 75 12 C75 12.7 75 13.3 75 14 C76.6 14 78.3 14 80 14 C78.7 13.7 77.4 13.3 76 13 C75.8 12.7 75.8 12.7 75 11 C73.7 11.7 72.4 12.3 71 13 C70 13 69 13 68 13 C67 12 66 11 65 10 C64.7 9.8 64.7 9.8 63 9 C63.2 9.5 63.2 9.5 64 12 C60.7 15.3 59.5 15.5 55 16 C54.7 15.5 54.7 15.5 53 13 C54.3 12.7 55.6 12.3 57 12 C56.7 11.2 56.7 11.2 55 7 C55.7 7 56.3 7 57 7 C57 6.3 57 5.7 57 5 C56 5 55 5 54 5 C53.7 6 53.3 7 53 8 C52 7.7 51 7.3 50 7 C50 6 50 5 50 4 C46 4 42.1 4 38 4 C38 3.3 38 2.7 38 2 C34.7 2.3 31.4 2.7 28 3 C28.2 3.5 28.2 3.5 29 6 C28.3 6 27.7 6 27 6 C27.2 6.5 27.2 6.5 28 9 C26 13.1 24.8 14.7 21 17 C17.7 16.8 17.7 16.8 15 16 C14.8 15.5 14.8 15.5 14 13 C13.3 13.3 13.3 13.3 10 15 C9.3 14.7 8.7 14.3 8 14 C7.3 14 7.3 14 3.8 14.1 C-0.6 14 -3.9 13.4 -8 12 C-8 12.7 -8 13.3 -8 14 C-9.3 14 -10.6 14 -12 14 C-12.3 13.3 -12.7 12.7 -13 12 C-16 11.7 -18.9 11.3 -22 11 C-22 10.3 -22 9.7 -22 9 C-23.3 9 -24.6 9 -26 9 C-26 10 -26 11 -26 12 C-31 10 -31 10 -33 7 C-31.2 7.1 -29.4 7.3 -27.6 7.4 C-15.7 8.4 -3.9 9.3 8 9 C5 7.4 2.1 5.7 -1 4 C-0.7 2.7 -0.3 1.4 0 0 Z " fill="#9EBFA0" transform="translate(368,542)"/>
<path d="M0 0 C11.9 4.8 19.4 17.7 25.6 28.5 C26.9 31.7 27.7 34.5 28 38 C23.1 37.4 19.4 35.9 15 33.8 C8.9 30.8 2.7 28.4 -3.7 26.2 C-8.6 24.4 -13.3 22.2 -18 20 C-17.7 18.4 -17.3 16.7 -17 15 C-16.3 15.2 -16.3 15.2 -13 16 C-7.7 16.4 -6.5 16.4 -2 13 C-0.8 8.2 -0.7 6.6 -3 2 C-2 1.3 -1 0.7 0 0 Z " fill="#EAF0EA" transform="translate(235,341)"/>
<path d="M0 0 C0.7 0.3 1.3 0.7 2 1 C8 1 8 1 11 0 C12.1 1.7 13.3 3.4 14.4 5.1 C15 6.1 15.6 7 16.3 8 C19.8 14.1 20.3 19 20 26 C19.7 27 19.3 28 19 29 C8.6 26.4 0.9 11.3 -5 3 C-3.7 2.3 -2.4 1.7 -1 1 C-0.7 0.7 -0.3 0.3 0 0 Z " fill="#EAF0EA" transform="translate(266,240)"/>
<path d="M0 0 C6.6 0 13.2 0 20 0 C19.7 1.6 19.3 3.3 19 5 C18.3 5 17.7 5 17 5 C18.3 6.3 19.6 7.6 21 9 C21 9.7 21 10.3 21 11 C20.3 11 19.7 11 19 11 C19.2 11.5 19.2 11.5 20 14 C17 14 17 14 14 13 C13.3 13.3 13.3 13.3 10 15 C9.3 14.7 8.7 14.3 8 14 C7.3 14 7.3 14 3.8 14.1 C-0.6 14 -3.9 13.4 -8 12 C-8 12.7 -8 13.3 -8 14 C-9.3 14 -10.6 14 -12 14 C-12.3 13.3 -12.7 12.7 -13 12 C-16 11.7 -18.9 11.3 -22 11 C-22 10.3 -22 9.7 -22 9 C-23.3 9 -24.6 9 -26 9 C-26 10 -26 11 -26 12 C-31 10 -31 10 -33 7 C-31.2 7.1 -29.4 7.3 -27.6 7.4 C-15.7 8.4 -3.9 9.3 8 9 C5 7.4 2.1 5.7 -1 4 C-0.7 2.7 -0.3 1.4 0 0 Z " fill="#B5CEB7" transform="translate(368,542)"/>
<path d="M0 0 C0 0.3 0 0.7 0 1 C-1.5 1.2 -1.5 1.2 -9 2 C-9 3 -9 4 -9 5 C-8.3 5.3 -7.7 5.7 -7 6 C-7.3 6.7 -7.7 7.3 -8 8 C-8.7 7.7 -9.3 7.3 -10 7 C-10 7.7 -10 8.3 -10 9 C-11.3 9.3 -12.6 9.7 -14 10 C-14.3 11 -14.7 12 -15 13 C-17.7 13 -20.3 13 -23 13 C-23.3 12.7 -23.7 12.3 -24 12 C-25 12 -25.9 12.1 -26.9 12.1 C-32.6 12 -38.9 11.1 -43 7 C-30.6 0 -13.9 -0.2 0 0 Z " fill="#98BA9A" transform="translate(180,545)"/>
<path d="M0 0 C-1 3 -1 3 -4 5 C-6 5.4 -8 5.7 -10 6 C-10.3 7 -10.7 8 -11 9 C-13 10.3 -15 11.7 -17 13 C-18 14.3 -19 15.6 -20 17 C-22.3 16.7 -24.6 16.3 -27 16 C-25 20 -25 20 -23 21 C-24.6 22.3 -26.3 23.6 -28 25 C-29.6 24 -31.3 23 -33 22 C-38 24 -38 24 -40 28 C-41.3 28 -42.6 28 -44 28 C-39.9 19.8 -30.8 14.6 -23 10 C-20.2 8.2 -17.4 6.3 -14.6 4.5 C-12 3 -12 3 -7 2 C-2 0 -2 0 0 0 Z " fill="#75653F" transform="translate(371,350)"/>
<path d="M0 0 C1 0.3 2 0.7 3 1 C3 3.3 3 5.6 3 8 C2.7 8.2 2.7 8.2 1 9 C2.6 9 4.3 9 6 9 C6.3 7 6.7 5 7 3 C7.3 3 7.7 3 8 3 C8.4 12.9 6.6 19.8 1 28 C0.3 27.3 -0.3 26.7 -1 26 C-4 29 -4 29 -5 33 C-5.8 33.2 -5.8 33.2 -10 34 C-10.7 33.3 -11.3 32.7 -12 32 C-10 28.1 -7.9 25.2 -5 22 C-4.3 22 -3.7 22 -3 22 C-2.9 20.9 -2.7 19.9 -2.6 18.8 C-2 15 -2 15 -1 11 C-0 11 1 11 2 11 C1.3 10.7 0.7 10.3 0 10 C0 6.7 0 3.4 0 0 Z " fill="#75653F" transform="translate(293,516)"/>
<path d="M0 0 C2.4 3.7 3.9 7.5 5.5 11.6 C6 12.4 6.5 13.2 7 14 C8.6 14.3 10.3 14.7 12 15 C12.7 16.3 13.3 17.6 14 19 C13 19 12 19 11 19 C11 19.7 11 20.3 11 21 C12.2 21.1 13.4 21.2 14.6 21.2 C19.1 22 21.4 23.2 25 26 C24.7 26.7 24.3 27.3 24 28 C14.4 28 7.6 23.5 0.8 16.9 C-1.6 13.5 -3.1 11.1 -4 7 C-2.7 6.7 -1.4 6.3 0 6 C0 4 0 2 0 0 Z " fill="#756740" transform="translate(311,524)"/>
<path d="M0 0 C2.8 2.8 2.6 5.2 3 9 C2.3 9 1.7 9 1 9 C0.9 10.7 0.8 12.4 0.6 14.1 C0.2 18.6 -0.3 21.9 -2 26 C-5.9 22.2 -9.6 18.2 -13 14 C-13 13.3 -13 12.7 -13 12 C-10.4 12 -7.7 12 -5 12 C-4.7 9 -4.3 6.1 -4 3 C-3 2.7 -2 2.3 -1 2 C-0.7 1.3 -0.3 0.7 0 0 Z " fill="#EAF1EB" transform="translate(291,222)"/>
</svg>
