<?xml version="1.0" encoding="UTF-8"?>
<!-- Generator: visioncortex VTracer 0.6.12 -->
<svg version="1.1" xmlns="http://www.w3.org/2000/svg" width="600" height="600" viewBox="0 0 600 600" role="img" aria-label="Water">
<path d="M0 0 C198 0 396 0 600 0 C600 198 600 396 600 600 C402 600 204 600 0 600 C0 402 0 204 0 0 Z " fill="#EDF2ED" transform="translate(0,0)"/>
<path d="M0 0 C-0.3 1 -0.7 2 -1 3 C-3.7 4.2 -6.5 5.2 -9.2 6.2 C-22.4 11.1 -34.4 16.8 -41 30 C-41.1 36.7 -39.5 40.7 -35.1 45.8 C1.1 83 74.3 88.4 123.2 89.1 C130 89.2 136.8 89.2 143.6 89.2 C147.8 89.2 152 89.3 156.1 89.3 C180.7 89.4 204.9 87.8 229 83 C231.2 82.6 233.5 82.2 235.7 81.8 C238.1 81.4 240.6 80.9 243 80.5 C244.1 80.3 245.3 80.1 246.5 79.9 C252.9 78.7 258.8 77.1 265 75 C266.5 74.7 267.9 74.4 269.4 74 C290.2 69.4 314.2 59.6 327.6 42.4 C330.6 36.9 331.8 33.7 330 27.5 C321.7 12.9 304.9 8.1 290 3 C290 2 290 1 290 0 C312.8 2.3 335.4 7.9 350.6 26.3 C354.8 32.7 354.5 38.5 354 46 C351.6 56.5 342.2 64.6 334 71 C309.7 86 309.7 86 301 86 C301 86.7 301 87.3 301 88 C324.8 88.2 324.8 88.2 445 89 C445 122 445 155 445 189 C247 189 49 189 -155 189 C-155 156 -155 123 -155 89 C-106.5 89 -58 89 -8 89 C-8 88.3 -8 87.7 -8 87 C-8.8 86.9 -9.6 86.8 -10.4 86.8 C-29.5 82.8 -49.9 69.8 -60.9 53.8 C-64.4 47.4 -64.7 41.2 -64 34 C-59.1 21 -48.4 14.1 -36.4 8.2 C-24.8 3.4 -12.6 -0.4 0 0 Z " fill="#D4E3D6" transform="translate(155,411)"/>
<path d="M0 0 C1.9 2.8 1.9 2.8 3.6 6.7 C16.1 33.5 32.3 57.9 48.5 82.5 C64.6 107 79.7 131.4 88.2 159.6 C88.6 160.7 88.9 161.8 89.3 163 C98.3 193.7 94.8 224.8 79.9 253.1 C75.5 260.7 70.2 266.8 64 273 C62.7 274.4 61.5 275.8 60.2 277.2 C38.8 296.7 13.1 302 -15 301 C-39.3 298.3 -62 284.1 -78 266 C-95.6 243.5 -104.1 215.5 -102 187 C-96.6 145.7 -74.9 111.6 -52.2 77.8 C-37.4 55.7 -24.1 32.9 -12.5 9 C-12.3 8.4 -12.3 8.4 -10.8 5.5 C-10.3 4.5 -9.8 3.4 -9.3 2.4 C-6.9 -1.9 -4.3 -1.4 0 0 Z " fill="#7EB1DB" transform="translate(304,75)"/>
<path d="M0 0 C-0.3 1 -0.7 2 -1 3 C-3.7 4.2 -6.5 5.2 -9.2 6.2 C-22.4 11.1 -34.4 16.8 -41 30 C-41.1 36.7 -39.5 40.7 -35.1 45.8 C1.1 83 74.3 88.4 123.2 89.1 C130 89.2 136.8 89.2 143.6 89.2 C147.8 89.2 152 89.3 156.1 89.3 C180.7 89.4 204.9 87.8 229 83 C231.2 82.6 233.5 82.2 235.7 81.8 C238.1 81.4 240.6 80.9 243 80.5 C244.1 80.3 245.3 80.1 246.5 79.9 C252.9 78.7 258.8 77.1 265 75 C266.5 74.7 267.9 74.4 269.4 74 C290.2 69.4 314.2 59.6 327.6 42.4 C330.6 36.9 331.8 33.7 330 27.5 C321.7 12.9 304.9 8.1 290 3 C290 2 290 1 290 0 C312.8 2.3 335.4 7.9 350.6 26.3 C354.8 32.7 354.5 38.5 354 46 C351.6 56.5 342.2 64.6 334 71 C279.4 104.6 209 110.2 146.4 110.2 C145.2 110.3 144 110.3 142.8 110.3 C80.3 110.2 -6.3 106.1 -54.8 61.5 C-61.9 53.7 -64.4 47.6 -64.3 37 C-63.6 29.6 -59.1 24.1 -54 19 C-38.7 7.6 -19.3 -0.6 0 0 Z " fill="#395474" transform="translate(155,411)"/>
<path d="M0 0 C1.9 2.8 1.9 2.8 3.6 6.7 C16.1 33.5 32.3 57.9 48.5 82.5 C64.6 107 79.7 131.4 88.2 159.6 C88.6 160.7 88.9 161.8 89.3 163 C98.3 193.7 94.8 224.8 79.9 253.1 C75.5 260.7 70.2 266.8 64 273 C62.7 274.4 61.5 275.8 60.2 277.2 C38.8 296.7 13.1 302 -15 301 C-39.3 298.3 -62 284.1 -78 266 C-95.6 243.5 -104.1 215.5 -102 187 C-96.6 145.7 -74.9 111.6 -52.2 77.8 C-37.4 55.7 -24.1 32.9 -12.5 9 C-12.3 8.4 -12.3 8.4 -10.8 5.5 C-10.3 4.5 -9.8 3.4 -9.3 2.4 C-6.9 -1.9 -4.3 -1.4 0 0 Z M-5 11 C-5.7 12.6 -6.5 14.1 -7.2 15.7 C-15.5 32.8 -24.9 49 -35 65 C-35.7 66.1 -36.4 67.2 -37.1 68.4 C-43.8 78.9 -50.5 89.3 -57.4 99.6 C-81 134.7 -100.2 174.2 -92.9 217.5 C-86.8 244.9 -71.6 266.9 -48 282 C-27.9 293 -3.8 296.6 18.6 291.5 C31.3 287.7 42.7 281.3 53 273 C54.3 271.9 55.7 270.9 57.1 269.8 C74.7 252.7 85.5 228.5 86.3 204 C86.8 157.3 64.6 119.6 39 82 C23.7 59 9.5 35.7 -3 11 C-3.7 11 -4.3 11 -5 11 Z " fill="#375273" transform="translate(304,75)"/>
<path d="M0 0 C-2.8 5.7 -6.9 6.5 -12.5 9 C-16.4 11.2 -18.5 13.4 -21 17 C-21.6 21 -21.6 23 -19.4 26.5 C3.3 50.3 58.5 51.4 89.1 52.1 C96.3 52.2 103.6 52.3 110.8 52.3 C113.3 52.3 115.7 52.3 118.2 52.3 C141.4 52.5 164.4 50.8 187.2 46.1 C188.5 45.9 189.8 45.6 191.1 45.3 C228.5 37.6 228.5 37.6 240 25 C240.3 24.7 240.7 24.3 241 24 C241.4 20.2 241.5 17.8 239.5 14.6 C236.2 11.1 232.5 9.4 228.2 7.2 C226.7 6.4 225.2 5.6 223.6 4.8 C223 4.5 223 4.5 220 3 C220 2 220 1 220 0 C232.8 0.6 245.3 5.8 254 15.2 C257.3 19.8 257.4 22.4 257 28 C253.2 38 245.3 43.3 236 48 C223.4 53.7 210.5 57.1 197 60 C194.8 60.5 192.6 61.1 190.4 61.6 C166.6 67 142.3 68.3 118 68.2 C114.4 68.2 110.9 68.2 107.3 68.2 C87.3 68.2 67.5 67.6 47.7 64.7 C46.2 64.5 44.7 64.3 43.2 64.1 C33.3 62.7 23.7 60.6 14 58 C12.4 57.6 10.8 57.2 9.1 56.8 C-7.7 52.4 -25.4 46.6 -36 32 C-37.8 26.7 -37.9 21.8 -35.4 16.8 C-27 7.1 -13.1 0 0 0 Z " fill="#3A5576" transform="translate(190,416)"/>
<path d="M0 0 C0.7 0.3 1.3 0.7 2 1 C1.4 1.9 0.7 2.8 0.1 3.8 C-3.3 9.1 -3.4 13.8 -3 20 C3.6 36.4 18.8 44 34 51 C35.1 51.5 36.1 52 37.2 52.6 C122 91.8 244.4 85.6 331.1 55.8 C348.5 49.3 370 40 378.4 22.1 C380 14.2 379 9 375 2 C374.7 1.3 374.3 0.7 374 0 C381.5 3 387 7.9 391 15 C393 20.9 392.3 25.1 390.1 30.9 C384.2 41.7 374.6 48.2 364 54 C363 54.6 361.9 55.2 360.8 55.8 C272.9 102.3 141 97.1 48.5 69.1 C30 63.3 12 56.6 -3 44 C-4.1 43.2 -5.1 42.5 -6.2 41.7 C-11.6 36.5 -15.7 29.9 -16.3 22.3 C-15.7 13.7 -11.3 8.6 -5 3 C-3.3 2 -1.7 1 0 0 Z " fill="#568DC1" transform="translate(112,429)"/>
<path d="M0 0 C0.2 0.5 0.2 0.5 1 3 C0.1 3.2 0.1 3.2 -4.6 4.2 C-31.5 10.5 -31.5 10.5 -37 16 C-37 21 -37 21 -34.9 23.2 C-18.9 33.3 4.1 34.1 22.4 34.2 C23.6 34.2 24.7 34.2 25.9 34.2 C28.4 34.2 30.9 34.2 33.3 34.2 C37 34.2 40.7 34.2 44.4 34.2 C94.9 34.3 94.9 34.3 113 21 C113 19.4 113 17.7 113 16 C103.3 9 91.6 6.7 79.9 4.6 C77 4 77 4 75 3 C75 2 75 1 75 0 C93.5 -0.7 114.4 1.5 128.6 14.4 C130.6 18.2 130.7 20.7 130 25 C124.1 34.8 112.2 38.6 101.7 41.7 C68 49.8 31.2 50.9 -3 46 C-4.4 45.8 -5.9 45.6 -7.4 45.4 C-23.1 43 -40.3 39.3 -52.1 28.1 C-55 24 -55 24 -55.2 20.4 C-52.4 12.6 -47.3 9.7 -40 6.3 C-27 0.7 -14.1 -0.4 0 0 Z " fill="#3A5677" transform="translate(262,409)"/>
<path d="M0 0 C0.7 0 1.3 0 2 0 C1.4 6.3 -0 12 -1.8 18.1 C-7.6 38.7 -10.1 59.1 -10.5 80.4 C-11.1 103.4 -11.1 103.4 -17 110 C-22 113 -22 113 -25.4 113 C-29.9 111.7 -31.9 110.5 -35 107 C-42.6 91.1 -38.6 75 -33.3 58.9 C-25.9 38.3 -14.7 16.5 0 0 Z " fill="#ECF2EE" transform="translate(266,173)"/>
<path d="M0 0 C23.1 10.9 33.7 31.2 42.1 54.2 C43.1 57.4 43.1 57.4 43.1 62.4 C38.2 61.2 35.8 59 31.8 55.8 C19.4 46.4 5.9 40 -9.1 36 C-16.7 33.4 -22 29.4 -25.9 22.4 C-27.7 17.1 -27.3 13.4 -25.2 8.2 C-19.3 -1.6 -10.6 -3.5 0 0 Z " fill="#385374" transform="translate(171.9375,318.625)"/>
<path d="M0 0 C4.6 3 6.5 5.5 8.8 10.5 C9.5 16.7 8.8 21.1 5.8 26.5 C0.3 33.3 -7.5 35.7 -15.6 38.2 C-30.4 43 -42.4 50.1 -54.2 60.2 C-57.2 62.5 -57.2 62.5 -60.2 62.5 C-60.2 43.4 -47.2 23.8 -34.2 10.5 C-24.6 2 -12.8 -4.6 0 0 Z " fill="#375273" transform="translate(445.1875,318.5)"/>
<path d="M0 0 C1 2 1 2 1.2 5.7 C2.3 11.4 3.7 13.1 8 17 C39.2 37.4 84.7 41.1 121.3 41.2 C122 41.2 122 41.2 125.1 41.2 C129 41.2 133 41.2 136.9 41.2 C137.6 41.3 137.6 41.3 141 41.3 C160.2 41.2 179 40.9 198 38 C199 37.9 200 37.7 201.1 37.5 C224.9 34 253.5 29.7 272.2 13.2 C274.7 8.8 274.8 4.9 275 0 C280 5 280 5 280 12 C273.5 24.3 257.8 29.4 245.4 33.5 C223 40.2 200.2 43.9 177 46 C176 46.1 175 46.2 174 46.3 C162.4 47.3 150.8 47.2 139.2 47.2 C138.6 47.3 138.6 47.3 135.8 47.3 C92.3 47.2 41 44.6 3 21 C-2.3 15.5 -4 13.7 -4 6 C-2 2.6 -2 2.6 0 0 Z " fill="#568DC1" transform="translate(162,432)"/>
<path d="M0 0 C16.8 7.6 26.7 22.6 34 39 C33.8 39.3 33.8 39.3 33 41 C32.2 40.4 31.3 39.8 30.5 39.2 C20.8 32.7 11.1 28.2 -0.1 24.8 C-13 20.9 -13 20.9 -17 14 C-18.1 10.4 -18.1 10.4 -18 7 C-13.1 -1.2 -9 -1.9 0 0 Z " fill="#7CAED9" transform="translate(170,325)"/>
<path d="M0 0 C2.7 4 2.7 6.2 2 10.9 C-0.6 16.3 -3.8 18.3 -9 20.9 C-11.6 21.7 -14.2 22.5 -16.9 23.1 C-28.1 26.3 -39.1 31.3 -48 38.9 C-48.7 38.6 -49.3 38.3 -50 37.9 C-41.8 21.6 -32.5 4.6 -14.5 -2.4 C-8.9 -3.4 -4.8 -3.3 0 0 Z " fill="#7BAED9" transform="translate(445,327.0625)"/>
<path d="M0 0 C5.4 2.9 5.4 2.9 7 6 C7.7 14.1 7.7 14.1 4.8 17.9 C-5 25.1 -19.5 21.8 -31 21 C-29.5 13.3 -24.5 8.6 -18.3 4 C-12.1 0.3 -7.3 -1 0 0 Z " fill="#385374" transform="translate(429,374)"/>
<path d="M0 0 C9.7 0.1 16.3 5.9 23 12.4 C25.6 15.6 25.6 15.6 27 18.4 C26.8 18.9 26.8 18.9 26 21.4 C-0.7 23.5 -0.7 23.5 -6.8 20.6 C-10.1 17.3 -11 15.8 -11.4 11 C-11 6.4 -11 6.4 -8.6 3.4 C-7.7 2.7 -6.9 2.1 -6 1.4 C-5 0.4 -5 0.4 0 0 Z " fill="#385374" transform="translate(175,373.625)"/>
<path d="M0 0 C7.2 4.8 10.3 12.7 12.1 20.9 C12 25.4 11.3 28.7 8 32 C4.1 32.4 1.5 32.3 -2.1 30.6 C-7 26.3 -10.4 21.3 -12 15 C-12.6 6.2 -12.6 6.2 -10.5 1.9 C-6.8 -0.9 -4.4 -0.6 0 0 Z " fill="#ECF2EE" transform="translate(250,292)"/>
<path d="M0 0 C0.7 0.3 1.3 0.7 2 1 C1.7 2.6 1.3 4.3 1 6 C4 12 8.3 14.9 14.4 17.4 C35.2 23.9 56.1 25.2 77.7 25.2 C81.1 25.2 84.6 25.3 88 25.3 C111.2 25.4 137.4 24.6 158 13 C162 9 162.7 8.3 163 3 C162.7 2 162.3 1 162 0 C167 2 167 2 169 5 C168.9 8.7 168.6 10.4 165.9 13.1 C127.8 37.5 63.9 32.2 22 23 C11.8 20.4 2.6 17.6 -5 10 C-5 5 -5 5 -2.5 2.2 C-2.1 1.8 -2.1 1.8 0 0 Z " fill="#568DC1" transform="translate(218,423)"/>
<path d="M0 0 C5.3 2.5 8.5 4.3 12 9 C9 10.5 6.1 10.3 2.7 10.4 C2 10.4 2 10.4 -1.3 10.5 C-5.8 9.9 -7.2 8.5 -10 5 C-7 -0.9 -7 0 0 0 Z " fill="#79ACD7" transform="translate(179,380)"/>
<path d="M0 0 C1 0.7 2 1.3 3 2 C3 3.6 3 5.3 3 7 C-1.4 10.3 -2.3 10.4 -7.4 10.2 C-8.5 10.2 -9.7 10.2 -10.8 10.2 C-14 10 -14 10 -19 9 C-13.5 2.8 -8.4 0 0 0 Z " fill="#78ABD7" transform="translate(427,380)"/>
</svg>
