<?xml version="1.0" encoding="UTF-8"?>
<!-- Generator: visioncortex VTracer 0.6.12 -->
<svg version="1.1" xmlns="http://www.w3.org/2000/svg" width="600" height="600" viewBox="0 0 600 600" role="img" aria-label="Woods">
<path d="M0 0 C198 0 396 0 600 0 C600 198 600 396 600 600 C402 600 204 600 0 600 C0 402 0 204 0 0 Z " fill="#EDF2ED" transform="translate(0,0)"/>
<path d="M0 0 C5.8 3.8 10.1 8.9 13.2 15.1 C14.5 14.1 15.8 13.1 17.2 12.1 C21.1 12 21.1 12 25.2 13.1 C29.2 17.1 31.2 19.5 31.2 25.2 C31.2 26.5 31.2 27.7 31.2 29.1 C32.2 28.7 33.2 28.4 34.2 28.1 C38.6 27.7 41.4 27.7 45.4 29.6 C49.7 33.4 52 36.9 52.5 42.7 C52.2 46.1 52.2 46.1 51.2 51.1 C52.2 50.7 53.2 50.4 54.2 50.1 C60.4 49.7 62.7 49.8 68.2 53.1 C70.5 56.3 70.5 56.3 72.2 59.1 C73 58.2 73.8 57.4 74.7 56.6 C78.9 53.5 81.1 53.6 86.2 54.1 C86.8 54.4 87.5 54.7 88.2 55.1 C88.1 53.4 88 51.8 87.9 50.1 C88 44.5 89 40.8 92.2 36.1 C95.7 32.8 97.8 32.1 102.6 31.5 C107.8 32.1 110.2 33.7 114.2 37.1 C114.8 36.1 114.8 36.1 118.2 31.1 C120.5 31.4 122.8 31.7 125.2 32.1 C125.2 31.6 125.2 31.6 125.4 29.5 C126.7 23.8 129.7 20.2 134.3 16.7 C139.4 13.8 143.4 13.7 149.2 14.1 C155.6 16.4 159.2 19.6 163.2 25.1 C165.2 30.1 165.2 30.1 165.2 33.1 C165.8 32.7 165.8 32.7 169.2 31.1 C173.5 30.5 175.4 30.5 179 33 C182.3 37.6 183.2 42.5 183.2 48.1 C184.4 47.8 185.6 47.6 186.8 47.4 C191.6 47 193.3 47.4 197.2 50.1 C202.5 55.8 202.5 60.3 202.2 68.1 C201.2 72.2 201.2 72.2 200.2 75.1 C201.1 74.4 202 73.8 203 73.1 C207.6 70.1 210.8 69.6 216.2 70.1 C222.1 72.3 225.2 74.5 228.2 80.1 C230 85.6 229.7 90.7 227.7 96.1 C227.4 96.6 227.4 96.6 226.2 99.1 C227 99.7 227.8 100.3 228.6 100.9 C231.2 103.1 231.2 103.1 232.2 105.1 C233 104.4 233.9 103.8 234.8 103.2 C241.4 99.1 246.5 98.7 254.2 100.1 C260.2 102.1 263.4 106.1 267.2 111.1 C269.6 116.6 269.1 121.1 268.2 127.1 C269.6 127.3 271 127.6 272.4 127.8 C277 129 279.1 129.6 282.2 133.1 C284.6 137.7 285.3 140.4 284.7 145.6 C283.1 150.2 281.2 153.3 278.2 157.1 C279 157.7 279.7 158.4 280.5 159.1 C284.8 163.8 286.2 167.3 286.1 173.6 C284.7 180.3 281.9 183.3 277.2 188.1 C277.9 188.9 278.5 189.8 279.2 190.7 C281.2 194.1 281.2 194.1 281.1 197.2 C280.2 200.1 280.2 200.1 278.2 203.1 C279.5 202.9 280.9 202.8 282.2 202.7 C288.2 203.1 290.1 204.8 294.2 209.1 C296.1 212.8 295.3 217 295.2 221.1 C294.5 222.7 293.9 224.4 293.2 226.1 C294.5 227.4 295.8 228.7 297.2 230.1 C299.1 235.8 298.9 241.3 296.6 246.8 C292.1 252.8 287.2 256.5 280.2 259.1 C280.8 260.2 281.5 261.3 282.2 262.5 C285.1 269 285.1 273.5 282.7 280.2 C279.6 284.9 277.1 287.3 272.2 290.1 C268.4 290.5 265.1 290.4 261.2 290.1 C261.5 291.1 261.8 292 262.2 293.1 C262.6 298.9 262.8 302.8 260.1 308.1 C255.8 312.5 252.3 313.8 246.2 314.5 C241.5 314 238.3 312.4 234.2 310.1 C233.8 311.9 233.4 313.8 233.1 315.8 C231.7 321.3 230.2 324 225.2 327.1 C221.6 328.9 218 327.7 214.2 327.1 C212.5 326.1 210.9 325.1 209.2 324.1 C209.1 324.9 209 325.8 208.9 326.8 C208.1 330.6 206.9 332.3 204.2 335.1 C199.1 338.1 197.8 338.7 192.2 338.1 C186.8 335.7 184.1 333.2 181.2 328.1 C180.3 328.6 179.5 329.1 178.6 329.6 C175.2 331.1 175.2 331.1 169.2 331.1 C164.5 328 162.5 325.5 161.2 320.1 C155.4 323.5 153.9 328.9 152.2 335.1 C145.5 368.4 146 413 161.6 443.8 C165.9 448.9 170.7 452.2 176.3 455.9 C177.3 456.6 178.2 457.3 179.2 458.1 C179.2 459.1 179.2 460 179.2 461.1 C171.6 463.6 162.1 462.2 154.5 460 C143.3 457.6 135.2 458.8 125.2 464.1 C121 465.1 117.5 465.1 113.2 465.1 C112.9 464.4 112.5 463.7 112.2 463.1 C112.8 461.4 113.5 459.8 114.2 458.1 C111.5 458.4 108.8 458.7 106.1 459 C105.4 459.1 105.4 459.1 101.6 459.5 C98.9 459.9 96.2 460.2 93.5 460.6 C88.4 461.3 83.4 461.1 78.2 461.1 C80.2 456.9 81.7 455.6 85.2 452.9 C90.1 449.3 90.1 449.3 91.2 447.1 C91.8 447.1 92.5 447.1 93.2 447.1 C93.8 445.4 94.5 443.8 95.2 442.1 C95.8 440.8 96.5 439.5 97.1 438.2 C101.8 426.5 102.6 414.2 103.7 401.7 C105.3 383.9 108.5 366.3 112.3 348.8 C114.4 339 115.6 330.1 115.2 320.1 C114.2 319.4 113.2 318.7 112.2 318.1 C111.1 319 110 320 108.8 321 C104.1 325 104.1 325 98.6 325.6 C91.9 324.9 89.7 322.8 85.2 318.1 C84.5 317.1 83.9 316.1 83.2 315.1 C82.3 316.5 81.5 317.9 80.6 319.3 C77.2 324 75.6 326 70.2 328.1 C63.6 328.8 60.4 328.8 54.7 325.3 C51.2 322.1 51.2 322.1 48.2 318.1 C47.2 318.7 46.2 319.4 45.2 320.1 C37.3 320.7 37.3 320.7 33.2 318.3 C31.2 316.1 31.2 316.1 29.2 312.1 C28.5 313.6 27.8 315.2 27.1 316.8 C24.6 321.7 22.3 324.5 17.2 327.1 C10.5 328.4 6.2 328.3 0.2 325.1 C1.2 326.7 2.1 328.3 3.1 330 C17.5 354.8 23.2 375.2 24.3 403.7 C25.2 422 28.6 437 42.2 450.1 C43.8 451.4 45.5 452.7 47.1 453.9 C51.2 457.1 51.2 457.1 53.2 461.1 C32.2 461.6 32.2 461.6 25.2 458.1 C21.9 458 18.5 458 15.2 458.1 C15.4 459 15.6 460 15.8 461 C15.8 461.5 15.8 461.5 16.2 464.1 C15.2 465.1 15.2 465.1 10.7 465.3 C4.9 465 1.2 463.8 -4.1 461.6 C-17.7 456.3 -27.8 458 -41.9 460.4 C-49.5 461.4 -57.1 461.3 -64.8 461.1 C-64.8 460.1 -64.8 459.1 -64.8 458.1 C-58.7 454.1 -52.4 450.8 -45.9 447.7 C-42.8 446.1 -42.8 446.1 -39.8 443.1 C-39.2 443.1 -38.5 443.1 -37.8 443.1 C-37.2 441.7 -36.5 440.4 -35.8 439.1 C-34.8 437.4 -33.8 435.8 -32.8 434.1 C-21.5 401.2 -21.8 365.8 -32.8 333.1 C-33.3 331.4 -33.7 329.8 -34.2 328.1 C-34.7 326.8 -35.3 325.4 -35.8 324.1 C-37.5 323.4 -39.1 322.7 -40.8 322.1 C-41.8 321.1 -42.8 320.1 -43.8 319.1 C-44.2 319.7 -44.2 319.7 -46.1 322.9 C-48.8 327.1 -48.8 327.1 -52.8 330.1 C-57.4 330.6 -60.1 330.4 -64.2 328.3 C-66.8 326.1 -66.8 326.1 -67.8 322.1 C-68.5 322.1 -69.1 322.1 -69.8 322.1 C-70.5 323.7 -71.1 325.4 -71.8 327.1 C-78.4 332.1 -83.5 332.7 -91.8 332.1 C-97.1 330 -101 327.2 -104.4 322.6 C-105.9 318.8 -106.1 316.1 -105.8 312.1 C-106.7 312.6 -107.5 313.1 -108.4 313.6 C-113.7 315.9 -117.4 315.5 -122.9 313.9 C-127.2 311.9 -129.1 309.9 -131.8 306.1 C-133.2 302 -132.9 298.3 -132.8 294.1 C-133.8 294.4 -134.8 294.7 -135.8 295.1 C-142.7 295.6 -147 294.8 -152.8 291.1 C-157.4 286.3 -159.5 283.5 -160.2 277 C-159.7 270.5 -157.6 267.4 -153.8 262.1 C-152.8 261.4 -151.8 260.7 -150.8 260.1 C-152.2 259.5 -153.6 258.9 -155 258.4 C-159.8 256.1 -163.4 253.9 -165.8 249.1 C-166.3 240.7 -166.3 240.7 -162.8 236.1 C-163.6 235.8 -163.6 235.8 -167.9 234.6 C-175.3 231.9 -179.3 227.1 -182.8 220.1 C-183.3 214.5 -182.9 210.8 -179.8 206.1 C-176.5 202.3 -173 199.7 -168.8 197.1 C-169.8 196 -170.7 195 -171.7 193.9 C-174.9 189.9 -176.6 186.9 -177.2 181.8 C-176.5 175.5 -173.2 171.5 -168.8 167.1 C-163.3 163.3 -157.3 163.9 -150.8 164.1 C-149.8 164.4 -148.8 164.7 -147.8 165.1 C-148.5 164.1 -149.1 163.1 -149.8 162.1 C-149.8 156.6 -149.3 155.9 -145.8 152.1 C-146.4 151.6 -146.4 151.6 -149.6 149 C-153.7 145.2 -155.5 143.4 -156.8 138.1 C-156.8 133.2 -156.6 129.5 -154.2 125.2 C-151.3 122.6 -148.2 120.8 -144.8 119.1 C-145.1 118.3 -145.5 117.5 -145.8 116.6 C-147.4 110.9 -147.9 106.1 -145.1 100.8 C-141.6 96.6 -139.1 94.4 -133.8 93.1 C-127.9 92.7 -124.1 93.4 -118.8 96.1 C-118.8 94.1 -118.8 92.1 -118.8 90.1 C-114.8 86.1 -114.8 86.1 -111.8 85.1 C-112.6 84 -113.5 82.9 -114.3 81.8 C-117.6 75.5 -117.5 72.2 -116.8 65.1 C-114.5 59.1 -111.6 56.8 -105.8 54.1 C-105.2 53.7 -104.5 53.4 -103.8 53.1 C-96.6 52.3 -92.1 54.6 -85.8 58.1 C-85.2 58.4 -84.5 58.7 -83.8 59.1 C-84.1 58.2 -84.1 58.2 -85.8 54.1 C-86.5 48.2 -85.1 44.9 -81.8 40.1 C-77.7 37.3 -74.6 37.9 -69.8 38.1 C-69.9 36.9 -69.9 35.7 -70 34.4 C-69.7 28.4 -68.2 25.6 -64.2 21.2 C-59.5 18.2 -56.3 18.4 -50.8 19.1 C-47.2 21.6 -47.2 21.6 -44.8 24.1 C-44.4 23.1 -43.9 22.2 -43.4 21.2 C-41.8 18.1 -41.8 18.1 -39.8 16.1 C-37.8 16.1 -35.9 16.1 -33.8 16.1 C-33.5 16.4 -33.2 16.7 -32.8 17.1 C-31.9 15.4 -31.1 13.6 -30.2 11.9 C-23.5 -0.5 -13.2 -3.3 0 0 Z " fill="#557E5C" transform="translate(241.8125,50.9375)"/>
<path d="M0 0 C3 3 3 3 5.1 5.7 C9.2 8.9 12 8.5 17 8 C18.3 7.3 19.6 6.7 21 6 C21.3 6.5 21.3 6.5 22.6 8.8 C25.3 12.4 26.9 14.1 31 16 C37 16.6 40.8 16.5 46.4 14 C50.3 10.7 52.6 7.5 55 3 C55.3 3.4 55.3 3.4 56.6 5.2 C60.9 10.3 63.2 12.8 70 13.6 C75.1 13 77.1 12.2 81 9 C82.3 8 83.6 7 85 6 C88 9 88 9 88.5 14.6 C88.3 23.7 86.3 32.5 84.4 41.4 C82.2 51.5 80.6 61.8 79 72 C78.9 72.6 78.9 72.6 78.4 75.6 C77.3 82.4 76.6 89.1 76.1 95.9 C74.8 110.7 72.7 123.1 65 136 C64.3 136 63.7 136 63 136 C62.7 137 62.3 138 62 139 C60.4 140.4 58.8 141.7 57.1 143 C54.1 145.3 52.1 146.9 50 150 C53.1 149.7 56.1 149.4 59.2 149.1 C60.9 148.9 62.6 148.7 64.4 148.5 C69 148 69 148 74 147 C76.1 146.9 78.2 146.9 80.3 146.9 C81.3 146.9 81.3 146.9 86 147 C85.7 149 85.3 151 85 153 C91.9 153.5 96.7 151.8 103 149 C111.9 145.5 120.9 146.4 130 149 C137 150 143.9 150.1 151 150 C149.6 145.9 147.5 145.1 143.9 142.8 C143.4 142.5 143.4 142.5 140.6 140.6 C139.7 140.1 138.9 139.6 138 139 C138 138.7 138 138.3 138 138 C201.4 138 264.7 138 330 138 C330 171 330 204 330 238 C132 238 -66 238 -270 238 C-270 205 -270 172 -270 138 C-206.3 138 -142.6 138 -77 138 C-81.8 141.9 -86.5 144.2 -92 147 C-92.3 147.7 -92.7 148.3 -93 149 C-83.6 149.3 -74.6 149.1 -65.2 147.5 C-50.6 145 -41.5 145.6 -27.6 151.5 C-22.5 153.2 -18.4 153.3 -13 153 C-13.2 152 -13.4 151.1 -13.6 150.1 C-13.7 149.1 -13.9 148 -14 147 C-13 146 -13 146 -8.5 145.8 C-3 146 -3 146 1.2 146.9 C6.2 148 11 148.6 16.1 149.1 C17.7 149.3 19.4 149.5 21.2 149.6 C22.4 149.8 23.7 149.9 25 150 C22 146.3 19.4 143.6 15.6 140.6 C3.9 131.4 -1.5 120.6 -4 106 C-4.6 100 -4.8 94 -5.1 87.9 C-6.2 60.7 -12.3 37.2 -29 15 C-28.7 14.3 -28.3 13.7 -28 13 C-27.1 13.5 -26.1 14 -25.1 14.6 C-19.9 16.4 -16.5 16.1 -11 15 C-5.5 12.2 -4.2 10.4 -1.6 4.7 C-1 3.1 -0.5 1.6 0 0 Z " fill="#CFDFD0" transform="translate(270,362)"/>
<path d="M0 0 C6 3.8 9.2 7.8 11.8 14.4 C11.8 15.4 11.8 16.4 11.8 17.4 C13.1 16.8 14.5 16.1 15.8 15.4 C20.1 14.9 22.1 14.9 25.6 17.4 C28.9 22 29.8 26.8 29.8 32.4 C31 32.2 32.2 32 33.4 31.8 C38.2 31.4 39.9 31.8 43.8 34.4 C49.1 40.2 49.1 44.7 48.8 52.4 C47.8 56.6 47.8 56.6 46.8 59.4 C47.7 58.8 48.7 58.2 49.6 57.5 C54.2 54.5 57.4 54 62.8 54.4 C68.7 56.7 71.8 58.8 74.8 64.4 C76.7 70 76.3 75 74.3 80.5 C74.1 81 74.1 81 72.8 83.4 C73.6 84.1 74.4 84.7 75.2 85.3 C77.8 87.4 77.8 87.4 78.8 89.4 C79.7 88.8 80.5 88.2 81.4 87.6 C88 83.4 93.1 83 100.8 84.4 C106.8 86.5 110 90.5 113.8 95.4 C116.2 101 115.7 105.5 114.8 111.4 C116.2 111.7 117.6 111.9 119 112.2 C123.6 113.4 125.7 113.9 128.8 117.4 C131.3 122.1 131.9 124.7 131.3 130 C129.8 134.6 127.8 137.7 124.8 141.4 C125.6 142.1 126.3 142.8 127.1 143.5 C131.4 148.2 132.8 151.6 132.8 158 C131.3 164.6 128.6 167.7 123.8 172.4 C124.5 173.3 125.2 174.2 125.9 175.1 C127.8 178.4 127.8 178.4 127.7 181.6 C126.8 184.4 126.8 184.4 124.8 187.4 C126.2 187.3 127.5 187.2 128.9 187.1 C134.9 187.5 136.7 189.2 140.8 193.4 C142.7 197.2 142 201.3 141.8 205.4 C141.2 207.1 140.5 208.7 139.8 210.4 C141.1 211.8 142.5 213.1 143.8 214.4 C145.7 220.2 145.6 225.6 143.2 231.2 C138.7 237.2 133.9 240.8 126.8 243.4 C127.5 244.6 128.1 245.7 128.8 246.9 C131.7 253.4 131.7 257.9 129.3 264.6 C126.3 269.3 123.7 271.7 118.8 274.4 C115 274.9 111.7 274.7 107.8 274.4 C108.1 275.4 108.5 276.4 108.8 277.4 C109.2 283.3 109.5 287.2 106.8 292.4 C102.4 296.8 99 298.2 92.9 298.9 C88.1 298.4 84.9 296.8 80.8 294.4 C80.5 296.4 80.2 298.4 79.8 300.4 C79.5 300.4 79.2 300.4 78.8 300.4 C78.8 297.1 78.8 293.8 78.8 290.4 C77.8 288.8 76.8 287.1 75.8 285.4 C75.8 284.4 75.8 283.5 75.8 282.4 C75.3 282.7 75.3 282.7 72.8 284 C68.4 285.6 66.3 285.8 61.8 284.4 C59.6 281.9 59.6 281.9 57.8 279.4 C56.8 279.1 55.8 278.8 54.8 278.4 C51.6 272.3 51.6 272.3 52.8 267.4 C53.1 267.1 53.5 266.8 53.8 266.4 C53.8 265.3 53.8 264.2 53.8 263 C53.8 259.4 53.8 259.4 54.8 257.4 C56.5 257.1 58.1 256.8 59.8 256.4 C59.8 255.1 59.8 253.8 59.8 252.4 C61.5 252.1 63.1 251.8 64.8 251.4 C64.8 249.5 64.8 247.5 64.8 245.4 C63.8 246.1 62.8 246.8 61.8 247.4 C55.9 248.1 52.7 246.7 47.8 243.4 C47.2 242.8 46.5 242.1 45.8 241.4 C45.2 241.4 44.5 241.4 43.8 241.4 C43.2 242.1 42.5 242.8 41.8 243.4 C41.8 242.8 41.8 242.1 41.8 241.4 C41.2 241.1 40.5 240.8 39.8 240.4 C40.6 240.1 40.6 240.1 44.8 238.4 C44.6 237.6 44.4 236.7 44.2 235.8 C43.8 232.1 44.4 229.9 45.8 226.4 C45.2 226.8 45.2 226.8 41.8 228.4 C40.2 228.1 38.5 227.8 36.8 227.4 C36.5 226 36.2 224.6 35.9 223.1 C34.8 218.4 34.8 218.4 33.8 216.4 C32.5 217.8 31.2 219.1 29.8 220.4 C24.6 222 20.9 222.6 15.5 221.6 C10.7 218.8 9.1 215.5 6.8 210.4 C5.5 210.8 4.2 211.1 2.8 211.4 C-7.7 211.7 -7.7 211.7 -10.2 210.4 C-10.2 209.4 -10.2 208.5 -10.2 207.4 C-9.1 207 -8 206.6 -6.8 206.2 C-3.2 204.4 -3.2 204.4 -1.2 200.4 C-1.2 194.4 -1.2 194.4 -4.2 189.4 C-7.9 187.6 -7.9 187.6 -11.2 186.4 C-10.5 184.8 -9.9 183.1 -9.2 181.4 C-7.7 177 -7.8 173.1 -8.2 168.4 C-10.1 165.3 -10.1 165.3 -13.2 163.4 C-18.4 162.8 -21.2 162.9 -25.8 165.4 C-26.6 166.1 -27.4 166.8 -28.2 167.4 C-28.3 166.6 -28.4 165.7 -28.5 164.8 C-28.6 163.6 -28.8 162.4 -28.9 161.2 C-29 160.7 -29 160.7 -29.4 157.8 C-30.3 154 -31.5 152.2 -34.2 149.4 C-39 148.1 -42.7 148.1 -47.2 150.4 C-48.7 154.1 -49.8 157.5 -50.8 161.2 C-51.3 163 -51.7 164.7 -52.2 166.4 C-53 165.8 -53.8 165.2 -54.7 164.5 C-58.7 162.1 -61.5 161.5 -66.2 161.4 C-71.6 164.7 -72.6 165.6 -74.2 171.4 C-73.4 175.7 -73.4 175.7 -72.2 179.4 C-71.9 180.4 -71.5 181.4 -71.2 182.4 C-74.8 180.7 -77.9 178.7 -81.2 176.4 C-82.8 179.1 -84.5 181.7 -86.2 184.4 C-87.5 184.1 -88.8 183.8 -90.2 183.4 C-90.8 184.4 -91.5 185.4 -92.2 186.4 C-93.5 186.1 -94.8 185.8 -96.2 185.4 C-95.5 189.1 -94.9 192.7 -94.2 196.4 C-92.9 195.4 -91.5 194.5 -90.2 193.4 C-85.2 192.4 -85.2 192.4 -82.2 194.4 C-82.6 199.9 -83.9 203.1 -87.2 207.4 C-87.8 207.4 -88.5 207.4 -89.2 207.4 C-89.2 208.1 -89.2 208.8 -89.2 209.4 C-91.2 209.8 -93.1 210.1 -95.2 210.4 C-96.2 207.8 -97.2 205.2 -98.2 202.4 C-99.5 202.1 -100.8 201.8 -102.2 201.4 C-101.7 202.5 -101.2 203.6 -100.7 204.8 C-99.2 208.4 -99.2 208.4 -99.2 211.4 C-99.8 211.4 -100.5 211.4 -101.2 211.4 C-101.8 210.3 -102.3 209.2 -102.9 208.1 C-105.2 204.4 -105.2 204.4 -109.2 202.4 C-108.5 204.4 -107.9 206.4 -107.2 208.4 C-107.8 208.8 -108.5 209.1 -109.2 209.4 C-113.3 206.6 -115 205 -116.6 200.1 C-116.8 198.9 -117 197.7 -117.2 196.4 C-116.2 195.4 -116.2 195.4 -112.3 195.2 C-108.2 195.4 -108.2 195.4 -105.2 197.4 C-105.4 196.1 -105.6 194.7 -105.8 193.2 C-106.2 188.4 -106.2 188.4 -104.2 183.4 C-103.8 181.4 -103.5 179.4 -103.2 177.4 C-106.2 178.4 -106.2 178.4 -109.2 182.4 C-112.2 175.7 -112.2 175.7 -112.2 173.4 C-112.8 173.4 -113.5 173.4 -114.2 173.4 C-114.5 174.4 -114.8 175.4 -115.2 176.4 C-120.1 180.6 -124.9 181.8 -131.2 182.4 C-137.9 181 -141.4 179.2 -145.2 173.4 C-147.4 168 -147.3 164.3 -147.2 158.4 C-147.2 157.4 -147.2 156.5 -147.2 155.4 C-146.9 154.4 -146.5 153.5 -146.2 152.4 C-144.2 152.1 -142.2 151.8 -140.2 151.4 C-140.8 150.5 -141.5 149.5 -142.1 148.5 C-144.5 143.8 -145.2 140.7 -145.2 135.4 C-143.1 129.5 -140.8 126.2 -135.2 123.4 C-131.3 122.7 -131.3 122.7 -128.2 122.4 C-128.7 121.3 -129.2 120.2 -129.8 119.1 C-132 111.9 -131.3 106.8 -128.1 100.1 C-124.9 96.1 -122.9 94.3 -118.2 92.4 C-113.5 92.1 -109.8 92.3 -105.2 93.4 C-105.4 92.3 -105.7 91.1 -105.9 89.9 C-106.2 84.5 -105.2 82 -102.2 77.4 C-99.5 74.9 -99.5 74.9 -96.2 73.4 C-90.8 73.6 -87.2 74.4 -82.2 76.4 C-82.5 75.6 -82.8 74.7 -83.2 73.9 C-85.4 66.4 -85.4 59 -82.1 51.9 C-77.1 46 -73 42 -65.2 40.4 C-65.3 38.6 -65.4 36.8 -65.4 34.9 C-65.4 29.1 -64.5 25.3 -61.2 20.4 C-57.6 17.1 -55.6 16.5 -50.8 15.9 C-45.5 16.5 -43.1 18.1 -39.2 21.4 C-37.9 19.5 -36.5 17.5 -35.2 15.4 C-32.9 15.8 -30.6 16.1 -28.2 16.4 C-28.2 16 -28.2 16 -28 13.9 C-26.7 8.2 -23.7 4.6 -19.1 1.1 C-12.7 -2.5 -6.8 -2.5 0 0 Z " fill="#86A787" transform="translate(395.1875,66.5625)"/>
<path d="M0 0 C6 4.9 6.1 10.7 7 18 C7.3 17.7 7.3 17.7 8.9 16 C13.2 13.2 16 13.4 21 14 C23.9 15.8 25.5 17 27 20 C27.5 27.3 26.7 31.7 23 38 C24.6 38.3 26.3 38.7 28 39 C30.5 41.2 32.5 43 34 46 C34 52.1 33.9 53.6 30 58 C26.8 58.9 26.8 58.9 24 59 C24 60 24 61 24 62 C29.3 62 34.6 62 40 62 C40.3 61.3 40.7 60.7 41 60 C41.3 60.8 41.3 60.8 43 64.8 C46 70 46 70 49.7 72.2 C55.1 73.2 58.8 72.6 64 71 C67.1 68.4 67.1 68.4 69 66 C70 70 71 73.9 72 78 C76 79 76 79 80 78 C79.2 89.8 79.2 89.8 77 92 C78.6 92.3 80.3 92.7 82 93 C82 93.7 82 94.3 82 95 C83.6 95.7 85.3 96.3 87 97 C87.7 97.3 88.3 97.7 89 98 C93.6 98.3 95.8 98.1 100 96 C100 99.3 100 102.6 100 106 C99.7 105 99.3 104 99 103 C98.3 103.5 98.3 103.5 95 106 C95 107 95 108 95 109 C93 109 91 109 89 109 C89 112.6 89 116.3 89 120 C88.3 120 87.7 120 87 120 C87.8 126.8 87.8 126.8 90 129 C90.7 129.7 91.3 130.3 92 131 C92.3 130.3 92.7 129.7 93 129 C93.3 129.8 93.3 129.8 95 134 C99.8 136.4 101.9 135.9 107 135 C108 134.7 109 134.3 110 134 C111.7 137.3 113.3 140.7 115 144 C114.3 144 113.7 144 113 144 C113.1 145.7 113.1 147.4 113.2 149.2 C113 155 113 155 110 160 C106.2 163.4 104.6 164 99.4 163.9 C95 163 95 163 90 160 C89.9 160.9 89.8 161.8 89.8 162.7 C88.9 166.5 87.7 168.2 85 171 C79.9 174 78.6 174.7 73 174 C67.6 171.6 64.9 169.1 62 164 C61.6 164.2 61.6 164.2 59.4 165.5 C56 167 56 167 50 167 C45.3 163.9 43.3 161.4 42 156 C36.2 159.4 34.7 164.8 33 171 C26.3 204.3 26.8 248.9 42.4 279.7 C46.7 284.9 51.5 288.2 57.1 291.8 C58.1 292.6 59 293.3 60 294 C60 295 60 296 60 297 C52.4 299.5 42.9 298.1 35.3 295.9 C24.2 293.5 16 294.7 6 300 C1.8 301 -1.7 301.1 -6 301 C-6.3 300.3 -6.7 299.7 -7 299 C-6.3 297.4 -5.7 295.7 -5 294 C-7.7 294.3 -10.4 294.6 -13.1 294.9 C-13.8 295 -13.8 295 -17.6 295.5 C-20.3 295.8 -23 296.2 -25.7 296.6 C-30.8 297.2 -35.8 297.1 -41 297 C-38.9 292.9 -37.5 291.6 -33.9 288.9 C-29.1 285.2 -29.1 285.2 -28 283 C-27.3 283 -26.7 283 -26 283 C-25.3 281.4 -24.7 279.7 -24 278 C-23.4 276.7 -22.7 275.4 -22.1 274.1 C-17.3 262.4 -16.6 250.2 -15.5 237.7 C-13.9 219.8 -10.7 202.2 -6.9 184.7 C-4.8 174.9 -3.6 166 -4 156 C-4.5 155.7 -4.5 155.7 -7 154 C-8.1 155 -9.2 155.9 -10.4 156.9 C-15.1 160.9 -15.1 160.9 -20.6 161.5 C-27.3 160.9 -29.5 158.8 -34 154 C-34.7 153 -35.3 152 -36 151 C-36.8 152.4 -37.7 153.8 -38.6 155.2 C-42 160 -43.6 162 -49 164 C-55.5 164.8 -58.8 164.7 -64.5 161.2 C-68 158 -68 158 -71 154 C-72 154.7 -73 155.3 -74 156 C-81.9 156.7 -81.9 156.7 -85.9 154.2 C-88 152 -88 152 -90 148 C-90.7 149.5 -91.4 151.1 -92.1 152.7 C-94.6 157.7 -96.9 160.4 -102 163 C-107.7 164.2 -111 164.4 -116.4 162.4 C-120 160 -120 160 -123 155 C-124 145.6 -121 138.2 -115.2 130.9 C-111.4 126.3 -107.4 122.1 -103 118 C-102.3 118 -101.7 118 -101 118 C-101 117.3 -101 116.7 -101 116 C-101.9 115.5 -102.9 114.9 -103.8 114.4 C-107.4 111.7 -108.6 110.2 -110 106 C-110.6 99.5 -110 96.2 -106 91 C-106 90.3 -106 89.7 -106 89 C-107.2 88.5 -108.5 87.9 -109.8 87.4 C-115 84.4 -117.1 81.8 -118.9 76.2 C-119 71.5 -117.9 68.3 -116 64 C-111.8 59.9 -111.8 59.9 -108 57 C-109.5 56.5 -110.9 56 -112.4 55.5 C-120.1 52.4 -125.3 47.9 -129.6 40.8 C-131.9 33 -132 26.8 -129.3 19.1 C-125.3 11.9 -121.8 8.2 -114 5 C-112 6 -112 6 -111 8 C-111.3 8.7 -111.7 9.3 -112 10 C-112.5 17.2 -111.9 21.8 -108 28 C-103.2 31.6 -100 32.3 -94 33 C-87.7 31.6 -84.3 29.8 -80 25 C-79.3 25 -78.7 25 -78 25 C-77 27.6 -76 30.3 -75 33 C-73.7 31.7 -72.4 30.4 -71 29 C-70 28.7 -69 28.3 -68 28 C-68.3 29.3 -68.6 30.6 -68.9 31.9 C-70.1 37.6 -71 43.2 -71 49 C-72 48.7 -73 48.3 -74 48 C-76.7 48 -79.3 48 -82 48 C-79.6 56.6 -79.6 56.6 -74 60 C-74.2 59 -74.2 59 -75 54 C-70 56 -70 56 -67 61 C-67 61.7 -67 62.3 -67 63 C-66.3 63 -65.7 63 -65 63 C-65.5 61.8 -65.9 60.5 -66.4 59.2 C-68 55 -68 55 -69 51 C-64 53 -64 53 -62 57 C-61.8 57.7 -61.8 57.7 -61 61 C-59 61 -57 61 -55 61 C-55 60.3 -55 59.7 -55 59 C-53.7 57.7 -52.4 56.4 -51 55 C-49 49.2 -49 49.2 -49 46 C-53.8 44.8 -54.8 45.6 -59 48 C-59.3 48.2 -59.3 48.2 -61 49 C-61.2 47 -61.2 47 -62 37 C-60.7 37 -59.4 37 -58 37 C-57 35.7 -56 34.4 -55 33 C-54.7 33.7 -54.3 34.3 -54 35 C-53.3 35 -52.7 35 -52 35 C-50.4 32 -48.7 29.1 -47 26 C-46.8 26.5 -46.8 26.5 -46 29 C-44.7 29 -43.4 29 -42 29 C-40.7 30.3 -39.4 31.6 -38 33 C-38.5 31.8 -39.1 30.7 -39.6 29.5 C-41.2 24.3 -40.9 22 -39 17 C-34.5 12.5 -33.2 12.1 -27 12 C-23.6 13.3 -21.5 14.5 -19 17 C-18.6 15.5 -18.1 13.9 -17.7 12.3 C-14.8 3.2 -14.8 3.2 -10.2 0.1 C-6.2 -1.3 -4.1 -1.3 0 0 Z " fill="#719674" transform="translate(361,215)"/>
<path d="M0 0 C3 3 3 3 5.1 5.7 C9.2 8.9 12 8.5 17 8 C18.3 7.3 19.6 6.7 21 6 C21.5 6.9 22.1 7.8 22.6 8.8 C25.3 12.4 26.9 14.1 31 16 C37 16.6 40.8 16.5 46.4 14 C50.3 10.7 52.6 7.5 55 3 C55.5 3.7 56.1 4.4 56.6 5.2 C60.9 10.3 63.2 12.8 70 13.6 C75.1 13 77.1 12.2 81 9 C82.3 8 83.6 7 85 6 C88 9 88 9 88.5 14.6 C88.3 23.7 86.3 32.5 84.4 41.4 C82.2 51.5 80.6 61.8 79 72 C78.8 73.2 78.6 74.4 78.4 75.6 C77.3 82.4 76.6 89.1 76.1 95.9 C74.8 110.7 72.7 123.1 65 136 C59.8 137.6 54.1 137.1 48.7 137.1 C47.7 137.1 46.7 137.1 45.7 137.1 C42.6 137.1 39.4 137.1 36.3 137.1 C34.2 137.1 32.1 137.1 30 137 C24.6 137 19.3 137 14 137 C13 137 12 137 11 137 C-2.9 123.1 -4.3 106.5 -5.1 87.9 C-6.2 60.7 -12.3 37.2 -29 15 C-28.7 14.3 -28.3 13.7 -28 13 C-27.1 13.5 -26.1 14 -25.1 14.6 C-19.9 16.4 -16.5 16.1 -11 15 C-5.5 12.2 -4.2 10.4 -1.6 4.7 C-1 3.1 -0.5 1.6 0 0 Z " fill="#EDF2ED" transform="translate(270,362)"/>
<path d="M0 0 C1.2 2.3 2.3 4.6 3.4 7 C5 10 5 10 9 14 C10.2 17.3 10.2 17.3 11 20 C11.2 19.5 11.2 19.5 12 17.2 C14.6 13 17.5 12 22 10 C23 9 24 8 25 7 C25.1 13.2 24.7 19.1 23.9 25.3 C23.7 27 23.5 28.7 23.3 30.5 C23.2 31.4 23.2 31.4 22.6 35.9 C22.1 39.5 21.6 43 21.2 46.6 C21 48.2 20.8 49.7 20.6 51.3 C19.6 59.3 18.9 67 19 75 C19.7 74.4 20.5 73.7 21.2 73.1 C26.3 68.8 31.3 64.8 36.9 61.1 C45.8 54.7 48.4 44.8 50.9 34.6 C52 32 52 32 56 30 C58.6 38.1 57.4 43.1 55 51 C56.2 50 57.3 49 58.5 47.9 C63 45 63 45 67.5 45.1 C68.7 45.4 69.8 45.7 71 46 C65.4 55.5 56.9 62 48.2 68.5 C30.9 81.9 21.9 97.2 19 119 C15.1 149.3 16.4 188.1 30.4 215.7 C34.7 220.9 39.5 224.2 45.1 227.8 C46.1 228.6 47 229.3 48 230 C48 231 48 232 48 233 C40.4 235.5 30.9 234.1 23.3 231.9 C12.2 229.5 4 230.7 -6 236 C-10.2 237 -13.7 237.1 -18 237 C-18.3 236.3 -18.7 235.7 -19 235 C-18.3 233.4 -17.7 231.7 -17 230 C-19.7 230.3 -22.4 230.6 -25.1 230.9 C-26.6 231.1 -28.1 231.3 -29.6 231.5 C-32.3 231.8 -35 232.2 -37.7 232.6 C-42.8 233.2 -47.8 233.1 -53 233 C-50.9 228.9 -49.5 227.6 -45.9 224.9 C-41.1 221.2 -41.1 221.2 -40 219 C-39.3 219 -38.7 219 -38 219 C-37.3 217.4 -36.7 215.7 -36 214 C-35.7 213.4 -35.7 213.4 -34.1 210.1 C-29.3 198.4 -28.6 186.2 -27.5 173.7 C-25.9 155.8 -22.7 138.2 -18.9 120.7 C-14 98.1 -16 80.2 -28 60 C-31.1 55.5 -34.6 51.3 -38 47 C-40 44.4 -41.9 41.8 -43.9 39.2 C-44.8 38 -45.6 36.8 -46.6 35.6 C-49.1 31.9 -51.1 28.1 -53 24 C-51.7 22 -50.4 20 -49 18 C-45.2 21.8 -42.2 25.7 -39 30 C-38 29 -38 29 -37.9 25.2 C-37.9 23.6 -37.9 22.1 -37.9 20.4 C-37.9 18.9 -38 17.3 -38 15.7 C-38 15.1 -38 15.1 -38 12 C-36 11 -34 10 -32 9 C-31.9 10 -31.8 11 -31.7 12 C-29.4 31.1 -26 42.2 -13.4 57.1 C-5 67.3 -5 67.3 -5 71 C-4.3 71 -3.7 71 -3 71 C-2.8 69.7 -2.5 68.4 -2.2 67.1 C-1.6 63.7 -0.8 60.2 0 56.8 C3.8 40.9 3.4 29.8 -1 14.2 C-3.1 6.4 -3.1 6.4 -2 2 C-1.3 1.3 -0.7 0.7 0 0 Z " fill="#8E5E3F" transform="translate(373,279)"/>
<path d="M0 0 C0.7 0.3 1.3 0.7 2 1 C2 1.6 2 1.6 2.1 4.3 C2.8 20.8 5.4 35.6 11 51 C11.7 53 12.3 55 13 57 C15.8 54.2 18.6 51.4 21.4 48.6 C22.6 47.4 23.8 46.2 25 44.9 C26.2 43.7 27.4 42.5 28.6 41.3 C31.3 38.7 34 36.3 37 34 C38.7 32.4 40.4 30.7 42 29 C42.2 29.5 42.2 29.5 43.1 31.8 C45.3 35.5 47.1 36.4 51 38 C49.4 42.7 45.7 44.8 42 48 C34.7 55.4 29.6 62.6 28.6 73.1 C29.3 81.3 33.5 87.3 37.8 94.1 C51.6 116.1 55.1 137.2 56.1 162.6 C57 180.9 60.4 195.9 74 209 C75.6 210.3 77.3 211.6 78.9 212.9 C83 216 83 216 85 220 C64 220.5 64 220.5 57 217 C53.7 217 50.3 217 47 217 C47.2 218 47.4 218.9 47.6 219.9 C47.6 220.4 47.6 220.4 48 223 C47 224 47 224 42.5 224.3 C36.8 224 33 222.8 27.8 220.5 C14.2 215.3 4 216.9 -10.1 219.3 C-17.7 220.4 -25.3 220.2 -33 220 C-33 219 -33 218 -33 217 C-26.9 213 -20.6 209.8 -14.1 206.6 C-11 205 -11 205 -8 202 C-7.3 202 -6.7 202 -6 202 C-5.3 200.7 -4.7 199.4 -4 198 C-3.5 197.2 -3.5 197.2 -1 193 C11.3 157.4 10.6 117.4 -4.9 82.9 C-13.1 66.4 -25.4 53.8 -39.5 42 C-47.8 34.9 -55.9 27.2 -62 18 C-62 17.3 -62 16.7 -62 16 C-60.2 16.3 -60.2 16.3 -51 18 C-50.7 19 -50.3 20 -50 21 C-48.7 21.7 -47.4 22.3 -46 23 C-44.3 24.3 -42.6 25.6 -41 27 C-41.1 26 -41.3 25 -41.4 24 C-42.5 13 -42.5 13 -39.6 7.6 C-38.7 6.7 -37.9 5.9 -37 5 C-33.3 10.5 -32.7 17.5 -31.3 23.9 C-30.2 28.1 -29.1 31.3 -27 35 C-26.7 36 -26.3 37 -26 38 C-24.7 38.7 -23.4 39.3 -22 40 C-19.9 41.5 -17.8 43.1 -15.8 44.6 C-14.7 45.4 -13.6 46.3 -12.5 47.1 C-11.7 47.7 -10.8 48.4 -10 49 C-10.2 47.6 -10.4 46.2 -10.7 44.8 C-12.7 30.4 -13.3 16.5 -13 2 C-12.3 2 -12.3 2 -8.8 2.1 C-4 2 -4 2 0 0 Z " fill="#926041" transform="translate(210,292)"/>
<path d="M0 0 C0.5 0.4 0.5 0.4 2.8 2.4 C7.4 6.1 9.2 7.1 15.2 6.6 C16.8 6.4 18.4 6.2 20 6 C20.5 6.8 21 7.6 21.5 8.4 C25.9 15.6 30.7 22.3 36 28.9 C45.7 41.3 56 55.6 56 72 C55.5 71.8 55.5 71.8 53 71 C51.9 72 50.8 72.9 49.6 73.9 C44.9 77.9 44.9 77.9 39.4 78.5 C32.7 77.9 30.5 75.8 26 71 C25.3 70 24.7 69 24 68 C23.2 69.4 22.3 70.8 21.4 72.2 C18 77 16.4 79 11 81 C4.5 81.8 1.2 81.7 -4.5 78.2 C-8 75 -8 75 -11 71 C-12 71.7 -13 72.3 -14 73 C-21.9 73.7 -21.9 73.7 -25.9 71.2 C-28 69 -28 69 -30 65 C-30.7 66.5 -31.4 68.1 -32.1 69.7 C-34.6 74.7 -36.9 77.4 -42 80 C-47.7 81.2 -51 81.4 -56.4 79.4 C-60 77 -60 77 -63 72 C-64 62.6 -61 55.2 -55.2 47.9 C-51.4 43.3 -47.4 39.1 -43 35 C-42.3 35 -41.7 35 -41 35 C-40.7 34 -40.3 33 -40 32 C-39 32.1 -37.9 32.1 -36.9 32.2 C-30.6 31.9 -26.7 29 -22 25 C-21.8 25.8 -21.8 25.8 -20.8 29.9 C-20.2 31.6 -19.6 33.3 -19 35 C-13.7 37.1 -10.6 37.5 -5 37 C-0.6 33.8 1.5 30.2 3 25 C2.9 18.4 2.2 14.2 -2 9 C-2.7 8 -3.3 7 -4 6 C-2.7 4 -1.4 2 0 0 Z " fill="#58805E" transform="translate(301,298)"/>
<path d="M0 0 C4.7 3.4 8.2 7.6 12 12 C17.8 18.1 23.8 23.6 30.4 28.9 C41.4 37.9 49.2 48.6 56 61 C55.8 61.3 55.8 61.3 55 63 C53 61.4 51 59.7 49 58 C48.3 59.3 47.5 60.5 46.8 61.8 C44 66 44 66 40 69 C35.4 69.5 32.7 69.4 28.6 67.2 C26 65 26 65 25 61 C24.3 61 23.7 61 23 61 C22.3 62.6 21.7 64.3 21 66 C14.4 71.1 9.4 71.6 1 71 C-4.3 68.9 -8.2 66.1 -11.6 61.6 C-13.1 57.8 -13.3 55 -13 51 C-13.8 51.5 -14.7 52 -15.6 52.5 C-20.9 54.8 -24.6 54.4 -30.1 52.9 C-34.4 50.8 -36.3 48.9 -39 45 C-40.3 41.2 -40.1 37.9 -40 34 C-39.3 34 -38.7 34 -38 34 C-37.3 32.7 -36.7 31.4 -36 30 C-35 28.9 -34.1 27.8 -33.1 26.6 C-30.4 23.5 -28.7 20.8 -27 17 C-25.8 17.8 -24.6 18.6 -23.4 19.5 C-18.9 22.1 -17.1 22.8 -12 22 C-6.1 19.5 -3.4 16.9 -1 11 C-0.2 5.1 -0.2 5.1 0 0 Z " fill="#487151" transform="translate(149,312)"/>
<path d="M0 0 C0.3 0 0.7 0 1 0 C1.4 1.7 1.8 3.4 2.2 5.2 C3.5 10.1 4.9 12.9 9 16 C13.6 18.3 15.1 18 20 17 C21 16.7 22 16.3 23 16 C23.8 18.8 24.6 21.7 25.4 24.5 C25.8 26.1 26.3 27.7 26.7 29.3 C31.9 48.2 29.6 64.6 23 83 C22.3 83 21.7 83 21 83 C20.1 81.5 19.1 79.9 18.2 78.3 C15.2 73.6 12 69.5 8.4 65.3 C-3.5 51.4 -5.9 38.2 -6 20 C-5.7 19 -5.3 18 -5 17 C-4.6 11.3 -5.8 7.2 -8 2 C-6.9 1.9 -5.7 1.7 -4.6 1.6 C-1 1 -1 1 0 0 Z " fill="#5B8260" transform="translate(347,267)"/>
<path d="M0 0 C1 1 2 2 3 3 C1.7 3.4 0.3 3.7 -1.1 4.1 C-7.1 6.4 -11.3 9.2 -14.7 14.8 C-16.2 18.4 -16.3 21.1 -16.2 25 C-16.2 25.6 -16.2 25.6 -16.2 28.6 C-16 31.8 -15.6 34.8 -15 38 C-16.2 37.7 -17.4 37.3 -18.6 37 C-23.7 35.9 -27.4 35.2 -32.2 37.6 C-35.6 40.5 -36.7 42.7 -38 47 C-38.2 51.4 -38.2 51.4 -38 55 C-38.9 55 -39.7 54.9 -40.6 54.9 C-52.6 54.5 -52.6 54.5 -58 59 C-62.1 64.4 -62.9 69.3 -63 76 C-61.6 81.1 -61.6 81.1 -60 85 C-61.5 85.2 -63.1 85.5 -64.7 85.7 C-70 87 -71.8 87.7 -75 92 C-77.3 97.6 -77.1 100.1 -76 106 C-73.9 110.1 -73.9 110.1 -72 113 C-72.6 113.2 -72.6 113.2 -75.9 114.2 C-86.2 117.9 -91.9 121.7 -96.8 131.5 C-98 135 -98.6 138.3 -99 142 C-101 141.3 -103 140.7 -105 140 C-107.7 132.2 -108.2 126.5 -104.6 118.9 C-100.6 112.8 -95 107.8 -87.7 106.3 C-87.2 106.3 -87.2 106.3 -85 106 C-85.4 104.6 -85.8 103.1 -86.2 101.6 C-87.1 95.2 -86.6 91.9 -84 86 C-79.7 81.6 -76.7 79.3 -71 77 C-71 76.1 -71.1 75.2 -71.1 74.2 C-71.4 66.8 -71.4 61.3 -67 55 C-61.7 49.8 -57.8 47.1 -50.2 46.9 C-48.8 46.9 -47.4 47 -46 47 C-45.8 45.6 -45.5 44.2 -45.2 42.8 C-43.6 36.3 -41.9 34.2 -36.2 30.7 C-31.8 28.9 -28.7 28.7 -24 29 C-24.2 28.7 -24.2 28.7 -25 27 C-25.7 19 -23.3 12.6 -19 5.9 C-17 4 -17 4 -13 4 C-12.3 3.3 -11.5 2.7 -10.8 2 C-7 -0.7 -4.5 -0.5 0 0 Z " fill="#487152" transform="translate(328,105)"/>
<path d="M0 0 C2 4 2 4 3 9 C2 10 1 11 0 12 C-2 17 -2 17 -1 22 C2.2 27.3 3.5 27.1 10 29 C10.7 34.6 11.3 40.2 12 46 C7.8 48.8 4.9 48.4 0 48 C-3.9 45.7 -4.9 44.2 -7 40 C-7.7 41.5 -8.4 43.1 -9.1 44.7 C-11.6 49.7 -13.9 52.4 -19 55 C-24.7 56.2 -28 56.4 -33.4 54.4 C-37 52 -37 52 -40 47 C-41 37.6 -38 30.2 -32.2 22.9 C-28.4 18.3 -24.4 14.1 -20 10 C-19.3 10 -18.7 10 -18 10 C-17.7 9 -17.3 8 -17 7 C-16 7.1 -14.9 7.1 -13.9 7.2 C-7.4 6.9 -4.6 4.6 0 0 Z " fill="#487151" transform="translate(278,323)"/>
<path d="M0 0 C0.3 0 0.7 0 1 0 C1.4 1.7 1.8 3.4 2.2 5.2 C4 11.3 5.6 14.6 11.2 17.9 C15.7 19.2 18.5 19.1 23 18 C25.9 15.9 25.9 15.9 28 14 C28.7 14 29.3 14 30 14 C30.7 12.4 31.3 10.7 32 9 C36 10.6 40 12.3 44 14 C43.6 14.6 43.6 14.6 41.6 17.4 C39 22 39 22 38.6 27 C37.5 36.3 29.8 41.2 23 47 C19 50.8 15.3 54.6 12 59 C11.3 59 10.7 59 10 59 C1.4 40.7 -2 22.2 -2 2 C-1.3 1.3 -0.7 0.7 0 0 Z " fill="#477051" transform="translate(213,290)"/>
<path d="M0 0 C1.2 2.3 2.3 4.6 3.4 7 C5 10 5 10 9 14 C10.2 17.2 10.2 17.2 11 20 C11.3 19.1 11.7 18.2 12 17.2 C14.6 13 17.5 12 22 10 C23 9 24 8 25 7 C25.1 13.1 24.8 18.9 24 24.9 C23.8 26.6 23.5 28.2 23.3 30 C23.1 31.7 22.9 33.4 22.6 35.2 C21.2 46.3 19.8 57.3 19.1 68.4 C18.4 76 17.1 80.4 12 86 C11.7 86 11.3 86 11 86 C11 83.4 11 80.7 11 78 C9.4 78 7.7 78 6 78 C6 76.7 6 75.4 6 74 C6.5 73.8 6.5 73.8 9 73 C9.3 72 9.7 71 10 70 C9.3 70 8.7 70 8 70 C7.8 70.3 7.8 70.3 7 72 C6.9 64.4 6.9 64.4 8 61 C7.3 60.3 6.7 59.7 6 59 C3.4 63.9 0.7 68.9 -2 74 C-2.7 74 -3.3 74 -4 74 C-3.7 73 -3.5 72 -3.2 71 C2 50.6 4.7 34.8 -1 14.2 C-3.1 6.4 -3.1 6.4 -2 2 C-1.3 1.3 -0.7 0.7 0 0 Z " fill="#825538" transform="translate(373,279)"/>
<path d="M0 0 C0.3 0.7 0.7 1.3 1 2 C0.7 3 0.3 4 0 5 C-0.5 12.2 0.1 16.9 4 23 C4.9 23.5 5.7 24 6.6 24.5 C10.4 28.4 9.7 32.9 9.6 38 C9.8 47.9 10.8 57.3 12.5 67.1 C13 71 13 71 12 75 C10.1 73.6 8.2 72.2 6.3 70.8 C5.3 70 4.2 69.3 3.1 68.5 C-8.4 59.4 -11.9 47.1 -14 33 C-13.7 30.7 -13.4 28.3 -13 26 C-12.4 16.6 -14.4 10.5 -20 3 C-20 2.3 -20 1.7 -20 1 C-19 1.3 -18 1.7 -16.9 2 C-10.3 3.7 -6 3.5 0 0 Z " fill="#477051" transform="translate(188,267)"/>
<path d="M0 0 C2.7 4 2.7 7.3 3 12 C2.7 12.5 2.7 12.5 1 15 C0.8 17.9 0.8 17.9 0.9 21.2 C0.9 23.1 1 25 1 27 C-2.3 26 -5.6 25 -9 24 C-4.2 30.1 1.4 34.8 7.3 39.8 C19.4 50 28.7 59.4 37 73 C37.7 74 38.4 74.9 39.1 75.9 C45.1 85.8 44.4 99.8 44 111 C41.8 106.7 40.7 102.5 39.4 97.8 C31.7 72 18 54.2 -2.5 37 C-10.8 29.9 -18.9 22.2 -25 13 C-25 12.3 -25 11.7 -25 11 C-23.2 11.3 -23.2 11.3 -14 13 C-13.7 14 -13.3 15 -13 16 C-11.7 16.7 -10.4 17.3 -9 18 C-7.3 19.3 -5.6 20.6 -4 22 C-4.1 21 -4.3 20 -4.4 19 C-5.5 8 -5.5 8 -2.6 2.6 C-1.7 1.7 -0.9 0.9 0 0 Z " fill="#825437" transform="translate(173,297)"/>
<path d="M0 0 C0.3 0 0.7 0 1 0 C1.1 6.9 1.1 13.8 0.5 20.8 C-0.9 37.3 -0.9 37.3 3 44 C6.6 47.3 10 49 14.6 50.6 C18.1 51.9 20.9 52.9 24 55 C17.8 54.8 13 53.3 7.3 50.9 C-5.4 46 -16.1 48.1 -29.3 50.3 C-45.5 52.7 -45.5 52.7 -51 49 C-50.5 49 -50.5 49 -47.7 48.7 C-35.5 47.4 -22.9 46 -13 38 C-5.5 27.6 -2.9 16.3 -1.4 3.7 C-1 1 -1 1 0 0 Z " fill="#825437" transform="translate(229,461)"/>
<path d="M0 0 C0.8 0.2 0.8 0.2 5 1 C5.2 1.5 5.2 1.5 6 4 C4.7 4 3.4 4 2 4 C1 9 1 9 2.6 13.1 C3 14.4 3.5 15.7 4 17 C3.3 18.3 2.7 19.6 2 21 C0.7 21.3 -0.6 21.7 -2 22 C-2.7 22.7 -3.3 23.3 -4 24 C-4.7 23.7 -5.3 23.3 -6 23 C-6.3 24.6 -6.7 26.3 -7 28 C-8.3 27 -9.6 26 -11 25 C-10 23.7 -9 22.4 -8 21 C-8 20.3 -8 19.7 -8 19 C-11 20 -11 20 -13 22 C-14 22.3 -15 22.7 -16 23 C-15.7 20.7 -15.3 18.4 -15 16 C-15.7 16 -16.3 16 -17 16 C-16.7 16.7 -16.3 17.3 -16 18 C-17.6 18.3 -19.3 18.7 -21 19 C-21 20 -21 21 -21 22 C-20 21.7 -19 21.3 -18 21 C-18.3 22.3 -18.7 23.6 -19 25 C-20.3 24.3 -21.6 23.7 -23 23 C-23.3 21.7 -23.7 20.4 -24 19 C-25.3 19.3 -26.6 19.7 -28 20 C-27.3 20.7 -26.7 21.3 -26 22 C-26.7 22.7 -27.3 23.3 -28 24 C-29.3 23.7 -30.6 23.3 -32 23 C-32 22.3 -32 21.7 -32 21 C-33 21 -34 21 -35 21 C-34 19 -34 19 -31 15 C-31.3 14 -31.7 13 -32 12 C-31 11 -30 10 -29 9 C-27.4 10 -25.7 11 -24 12 C-23 11.7 -22 11.3 -21 11 C-19.7 10.7 -18.4 10.3 -17 10 C-17 9.3 -17 8.7 -17 8 C-15 7.7 -13 7.3 -11 7 C-10.7 6 -10.3 5 -10 4 C-9.7 5 -9.3 6 -9 7 C-8.3 7 -7.7 7 -7 7 C-6.3 5.7 -5.7 4.4 -5 3 C-3.4 2.3 -1.7 1.7 0 1 C0 0.7 0 0.3 0 0 Z " fill="#7D9F7E" transform="translate(367,235)"/>
<path d="M0 0 C1.3 0.3 2.6 0.7 4 1 C6.9 5.8 8 8.4 8 14 C9.3 12.7 10.6 11.4 12 10 C15.8 9.2 15.8 9.2 19 9 C19.4 14 19.6 17.1 16.9 21.4 C13.9 24.1 11.8 25.1 8 26 C7.5 24.8 7.5 24.8 5 19 C4.3 19.3 3.7 19.7 3 20 C2.3 20 1.7 20 1 20 C1.3 20.3 1.7 20.7 2 21 C2 23 2 25 2 27 C-2.8 27.4 -5.3 27.5 -9.4 24.8 C-12.5 21.5 -14 18.7 -14 14 C-10.3 14 -6.7 14 -3 14 C-3.1 12.8 -3.1 11.6 -3.2 10.4 C-3 6 -2.2 3.7 0 0 Z " fill="#7FA07F" transform="translate(136,168)"/>
<path d="M0 0 C0.7 0.3 1.3 0.7 2 1 C2.3 8.6 2.7 16.2 3 24 C-6 22 -6 22 -8 21 C-7 31.1 -5.8 41 -3.5 51 C-3 54 -3 54 -4 58 C-8.9 52.3 -10.3 46.8 -11.3 39.6 C-11.5 38.5 -11.6 37.4 -11.8 36.3 C-13.4 24.9 -13.4 13.5 -13 2 C-11.6 2 -10.2 2.1 -8.8 2.1 C-4 2 -4 2 0 0 Z " fill="#815437" transform="translate(210,292)"/>
<path d="M0 0 C2.6 5.2 2.8 10.4 3.4 16.1 C5.6 36.5 8.6 61.6 25 76 C25.9 76.8 26.8 77.6 27.7 78.5 C31.3 81.2 34.3 82.4 38.6 83.8 C39.8 84.2 41.1 84.6 42.4 85 C46 86 46 86 51 87 C51 87.3 51 87.7 51 88 C43 88.2 35.9 87.9 28 86 C24.3 85.6 20.7 85.3 17 85 C5 57.6 1.5 29.7 0 0 Z " fill="#825336" transform="translate(239,423)"/>
<path d="M0 0 C4 2 4 2 7 7 C7.7 10.3 7.7 10.3 8 13 C8.4 12.7 8.4 12.7 10.2 11.1 C13 9 13 9 17 8 C17.3 8.3 17.7 8.7 18 9 C17.9 14.4 17.6 17.2 14.2 21.5 C11 24 11 24 7 25 C6.3 22.7 5.7 20.4 5 18 C3.7 18.3 2.4 18.7 1 19 C1.2 20 1.4 20.9 1.6 21.9 C1.7 22.9 1.9 24 2 25 C1.7 25.3 1.3 25.7 1 26 C-4.6 25.7 -8 25.1 -12 21 C-14 17 -14 17 -14 13 C-5.2 12.9 -5.2 12.9 -3 14 C-3.1 12.6 -3.1 11.2 -3.2 9.8 C-3 5 -3 5 0 0 Z " fill="#7E9F7E" transform="translate(150,273)"/>
<path d="M0 0 C5.1 1.9 8 3.4 11 8 C11.3 9 11.7 10 12 11 C13 9.4 14 7.7 15 6 C18 4 18 4 22 4 C23.5 13 23.5 13 21.4 17.4 C19 20 19 20 14 23 C13.5 21.8 13.5 21.8 11 16 C10 17 9 18 8 19 C8.7 20 9.3 21 10 22 C10 23 10 24 10 25 C8 26 8 26 2 26 C-1.6 24 -4.1 21.9 -7 19 C-7 18.3 -7 17.7 -7 17 C-4 16.3 -1.1 15.7 2 15 C1 13.4 0 11.7 -1 10 C-1.3 6.2 -1.2 3.6 0 0 Z " fill="#80A281" transform="translate(110,299)"/>
<path d="M0 0 C6 6 6 6 6 10 C5 10 4 10 3 10 C8.1 17.4 13.4 24.6 19.1 31.5 C29.3 44.1 38.8 59.3 39 76 C38.1 80.3 36.7 83.9 35 88 C34.7 88 34.3 88 34 88 C33.9 86.7 33.8 85.5 33.7 84.2 C31.9 61.3 24.6 45.4 10.1 27.8 C-1.6 13.2 -1.6 13.2 -4 6 C-2.1 2.8 -2.1 2.8 0 0 Z " fill="#815538" transform="translate(324,297)"/>
<path d="M0 0 C0.3 0 0.7 0 1 0 C1.1 1.2 1.2 2.4 1.3 3.7 C1.8 9.3 2.3 14.9 2.8 20.5 C2.8 21.5 2.9 22.5 3 23.5 C4.2 37.2 5.8 50.6 8.4 64 C9 68 9 68 8 71 C7.3 70.7 6.7 70.3 6 70 C5.3 67.7 4.6 65.4 4 63 C3.3 63 2.7 63 2 63 C2 62.3 2 61.7 2 61 C1 60.7 0 60.3 -1 60 C-1.7 55.8 -2.3 51.7 -3 47.5 C-3.2 46.3 -3.4 45.2 -3.6 43.9 C-4.5 37.9 -5.2 32.1 -5 26 C-3.7 25.3 -2.4 24.7 -1 24 C-1 22 -1 20 -1 18 C-2 18.3 -3 18.7 -4 19 C-4 18 -4 17 -4 16 C-4.7 16 -5.3 16 -6 16 C-5 13 -5 13 -4 11 C-3.3 11 -2.7 11 -2 11 C-1.7 11.7 -1.3 12.3 -1 13 C-0.7 8.7 -0.3 4.4 0 0 Z " fill="#8E5E40" transform="translate(388,411)"/>
<path d="M0 0 C0.3 0 0.7 0 1 0 C1.2 8.8 0.4 17.2 -0.8 25.9 C-0.9 27.3 -1.1 28.7 -1.3 30.1 C-5.4 60 -5.4 60 -12 74 C-16 74.7 -20 75.3 -23.9 76 C-25.1 76.2 -26.2 76.4 -27.3 76.6 C-33.6 77.6 -39.6 78.2 -46 78 C-43 75 -39.2 74.8 -35.2 73.8 C-30.9 72.7 -27 71 -23 69 C-22 68.5 -20.9 68 -19.9 67.5 C-7 56.3 -5.3 37.2 -3.3 21.4 C-2.9 18.2 -2.5 15 -2.1 11.8 C-1.9 10.4 -1.7 9 -1.5 7.6 C-1 4 -1 4 0 0 Z " fill="#825336" transform="translate(369,434)"/>
<path d="M0 0 C1 0.9 1.9 1.8 2.9 2.8 C7.1 6.1 11 8 16 10 C20 12 20 12 23 15 C23 14.7 23 14.3 23 14 C23 13 23 12 23 11 C22.3 10.7 21.7 10.3 21 10 C26.8 10.9 26.8 10.9 29 12 C29 10.4 29 8.7 29 7 C29.7 6.7 30.3 6.3 31 6 C31.6 11.5 31.2 13.7 28.2 18.4 C25 22 25 22 21 23 C19.7 21.7 18.4 20.4 17 19 C17 18.3 17 17.7 17 17 C16.3 17 15.7 17 15 17 C14.7 15.7 14.3 14.4 14 13 C11.2 13.1 11.2 13.1 8 14 C5.6 17.1 5.6 17.1 4 20 C4.7 20.3 5.3 20.7 6 21 C4.7 22 3.4 23 2 24 C2 23.3 2 22.7 2 22 C0.4 22 -1.3 22 -3 22 C-4.3 20 -5.6 18 -7 16 C-5.7 14.7 -4.4 13.4 -3 12 C-2 9 -2 9 -1.2 5.8 C-0.8 3.9 -0.4 2 0 0 Z " fill="#729674" transform="translate(494,316)"/>
<path d="M0 0 C1 0.3 2 0.7 3 1 C3.4 7.4 3.2 11 -1 16 C-4 18 -4 18 -10 18 C-10.7 19 -11.3 20 -12 21 C-17 19 -17 19 -20 15 C-21.2 11.5 -21.2 8.7 -21 5 C-20.3 3.7 -19.7 2.4 -19 1 C-14.1 3 -12.9 3.9 -10 8 C-9.4 7.4 -9.4 7.4 -6.1 4.6 C-2 1 -2 1 0 0 Z " fill="#7FA180" transform="translate(262,98)"/>
<path d="M0 0 C3.9 2.5 4.9 3.7 6.3 8.2 C6.4 8.9 6.4 8.9 7 12 C8.7 11 10.3 10 12 9 C15.3 8.3 15.3 8.3 18 8 C18.4 14.1 18 17.3 14 22 C10 24 10 24 4 24 C3.7 22.3 3.3 20.7 3 19 C1.7 19.3 0.4 19.7 -1 20 C-3.6 16.7 -4.9 14.6 -5.4 10.4 C-4.9 6 -3.1 3.1 0 0 Z " fill="#7EA07F" transform="translate(197,124)"/>
<path d="M0 0 C5.2 2.9 7.1 5.4 9 11 C9.4 10.7 9.4 10.7 11.2 9.1 C14 7 14 7 19 5 C20 6 20 6 20.3 10.7 C20 16.1 19.5 18 16 22 C15 22.7 14 23.3 13 24 C11.7 23.7 10.4 23.3 9 23 C8.3 21.3 7.7 19.7 7 18 C6.3 18.7 5.7 19.3 5 20 C-1.7 16.1 -1.7 16.1 -3.1 11.1 C-3 6.7 -2 3.9 0 0 Z " fill="#7FA07F" transform="translate(108,233)"/>
<path d="M0 0 C-1.6 4.7 -5.3 6.8 -9 10 C-18.6 19.6 -21.6 27.8 -23 41 C-23.7 41 -24.3 41 -25 41 C-25.7 42.3 -26.3 43.6 -27 45 C-29.8 36.5 -27.5 28.9 -24 21 C-19 13 -10 0 0 0 Z " fill="#815336" transform="translate(261,330)"/>
<path d="M0 0 C4.1 -0.3 6.5 -0.2 10.2 1.6 C13.5 4.5 14.7 6.8 16 11 C15.7 12.3 15.3 13.6 15 15 C9.4 14.6 5.9 14.2 2 10 C0 5 0 5 0 0 Z " fill="#7EA07F" transform="translate(178,134)"/>
<path d="M0 0 C5.5 -0.3 7 -0 12 3 C15 7 15 7 16 11 C15.3 12.3 14.7 13.6 14 15 C9.8 14.8 7.5 14.4 4.2 11.8 C1.1 7.9 0 4.9 0 0 Z " fill="#7E9F7E" transform="translate(176,214)"/>
<path d="M0 0 C1.3 0.7 2.6 1.3 4 2 C2 7 2 7 -2 11 C-7.5 12.2 -9.6 12.1 -15 10 C-14 5 -14 5 -11 2 C-6.7 -0.1 -4.7 -0.3 0 0 Z " fill="#7FA07F" transform="translate(269,114)"/>
<path d="M0 0 C1.7 5.2 1.8 9.4 -0.6 14.4 C-3.3 17.3 -5.2 18.1 -9 19 C-11.2 14.6 -11.7 12.8 -11 8 C-5.2 0 -5.2 0 0 0 Z " fill="#7FA180" transform="translate(205,207)"/>
<path d="M0 0 C5.6 -0.5 8.3 -0.5 13.1 2.7 C16 6 16 6 16 11 C15 12 15 12 11.3 12.3 C6.5 12 4.6 11.1 1 8 C-1 4 -1 4 0 0 Z " fill="#80A180" transform="translate(97,249)"/>
<path d="M0 0 C-0.5 4.9 -1.6 7.4 -5 11 C-8.7 12.8 -13 12.1 -17 12 C-15.8 6 -14 3.5 -9 0 C-5.5 -1.2 -3.5 -0.7 0 0 Z " fill="#5A815F" transform="translate(499,216)"/>
<path d="M0 0 C0.5 5.2 0.4 7.5 -2.6 11.9 C-6.1 15.1 -8.3 16.2 -13 17 C-13.6 8.9 -13.6 8.9 -10.8 4.6 C-7.1 1.2 -5 0 0 0 Z " fill="#59815F" transform="translate(311,202)"/>
</svg>
