<?xml version="1.0" encoding="UTF-8"?>
<!-- Generator: visioncortex VTracer 0.6.12 -->
<svg version="1.1" xmlns="http://www.w3.org/2000/svg" width="600" height="600" viewBox="0 0 600 600" role="img" aria-label="Child">
<path d="M0 0 C198 0 396 0 600 0 C600 198 600 396 600 600 C402 600 204 600 0 600 C0 402 0 204 0 0 Z " fill="#EDF2ED" transform="translate(0,0)"/>
<path d="M0 0 C24.5 -0.5 46.8 2.5 66 19 C68 21 70.1 23 72 25 C71.4 20.9 70.6 17.9 69 14 C76.1 18.3 82 24.2 85 32 C85 32.7 85 33.3 85 34 C86.4 33.5 87.9 33 89.4 32.5 C97 30.5 103.7 29.9 111 33 C106.1 35.5 101 37.7 96 40 C97.2 40.2 98.3 40.5 99.5 40.8 C113.8 44.7 123.1 54.9 131 67 C131.7 68.7 132.3 70.3 133 72 C128.2 70.6 124.3 68.6 120 66 C120.9 67.4 121.8 68.9 122.8 70.4 C130.1 82.6 132.3 93.9 132 108 C131 106.7 130 105.4 129 104 C129 104.5 129 104.5 128.7 107.2 C127.3 121.5 123.9 134.3 117 147 C118.6 148 120.3 149 122 150 C127.7 156.2 128.4 160.3 128.3 168.6 C127.6 177.6 123.3 183.8 117 190 C110.2 195.5 105.4 195.5 97 195 C96.5 196 96.1 197.1 95.6 198.1 C91.4 207 87.1 214.2 80 221 C79.4 221.6 79.4 221.6 76.3 224.6 C68.9 230.5 61 235 52 238 C52 242.6 52 247.2 52 252 C54 252 56 252 58 252 C58.5 252.3 58.5 252.3 60.8 253.6 C64 255 64 255 68.4 254.4 C78.3 253.7 88.1 256.7 97 261 C98 262 99 263 100 264 C100 264.7 100 265.3 100 266 C100.4 266.1 100.4 266.1 102.4 266.6 C117.9 272.6 124.7 286.2 132 300 C132.9 301.7 133.8 303.4 134.8 305.2 C140.5 315.9 145.9 326.7 151.2 337.6 C151.8 338.7 152.3 339.9 152.9 341 C153.4 342.1 153.9 343.2 154.5 344.3 C154.9 345.3 155.4 346.2 155.9 347.2 C157.1 350.2 157.8 352.8 158 356 C155.6 359.4 155.6 359.4 153 362 C153.2 362.6 153.2 362.6 154.2 365.9 C158.8 381.3 162.8 396.4 157 412 C153.6 417.4 151.5 419.7 146 423 C143 423.4 140 423.8 137 424 C137.1 425.3 137.2 426.5 137.2 427.8 C136.8 436.6 134.1 443.7 128 450 C124.3 452.3 124.3 452.3 120.2 454.3 C118.8 455 117.5 455.7 116.1 456.4 C112 458 108.4 458.7 104 459 C104.3 461.6 104.7 464.3 105 467 C98.8 470 93.1 471.9 86.3 473.1 C85.5 473.3 85.5 473.3 81.4 474.1 C64 476.8 46.5 477.4 28.9 477.3 C27.8 477.3 26.7 477.3 25.6 477.3 C-30.2 477.1 -30.2 477.1 -54 466 C-55 461 -54.8 457.9 -54 452.8 C-53.8 451.3 -53.5 449.7 -53.3 448.1 C-53.1 446.4 -52.8 444.8 -52.6 443.1 C-52.1 439.8 -51.6 436.5 -51.1 433.3 C-50.9 431.8 -50.7 430.4 -50.5 428.9 C-49.8 423.3 -50 419 -51.5 413.5 C-53.3 406.6 -53.5 399.9 -53.6 392.8 C-53.9 380.1 -53.9 380.1 -55 379 C-55.4 376.3 -55.7 373.7 -56 371 C-58 373.3 -60 375.6 -62 378 C-65 377.7 -67.9 377.3 -71 377 C-69.3 373.5 -67.5 371 -65 368 C-68.3 356.2 -74.7 346.9 -84 339 C-85.1 338.4 -86.2 337.8 -87.3 337.2 C-91.8 333.5 -93.2 327.7 -94 322 C-92.2 317.5 -90.6 314.9 -87.6 311.2 C-83.7 306.1 -79.8 301 -75.9 295.9 C-55.8 269.1 -55.8 269.1 -41 263 C-40 263.3 -39 263.7 -38 264 C-38.7 265.4 -39.4 266.7 -40.1 268.1 C-51.3 292.8 -54.2 321.9 -54.1 348.6 C-54.1 350.2 -54.1 351.8 -54 353.4 C-54 357.3 -54 361.1 -54 365 C-52.3 364.7 -50.7 364.3 -49 364 C-45.8 365.1 -45.8 365.1 -43 367 C-42 372 -42 372 -42 376 C-41.6 374.3 -41.3 372.5 -40.9 370.7 C-39.6 364.1 -38.2 357.4 -36.9 350.8 C-36.3 347.9 -35.7 345.1 -35.2 342.3 C-32 326.8 -28.7 311.4 -24.8 296.1 C-24.5 294.8 -24.1 293.6 -23.8 292.3 C-14.9 258.5 -14.9 258.5 -6.2 253.3 C1.8 251 1.8 251 4 251 C4.3 248 4.7 245.1 5 242 C3.4 241.7 1.7 241.3 0 241 C-16.5 236.9 -30.6 227.3 -41 214 C-43.6 209.4 -43.6 209.4 -45 206 C-46 206.3 -47 206.7 -48 207 C-56.1 207.7 -61.1 206.4 -68 202 C-75.8 195.2 -79.6 187.6 -80.4 177.2 C-79.9 170.9 -79.1 167.8 -74.3 163.6 C-73.9 163.4 -73.9 163.4 -72 162 C-74.1 156.7 -76.6 151.7 -79.2 146.6 C-81 143.1 -82.5 139.6 -84 136 C-84.2 136.7 -84.2 136.7 -85 140 C-85.7 140 -86.3 140 -87 140 C-90.4 129.3 -90.3 119.2 -90 108 C-91 109.5 -91 109.5 -96 117 C-96.3 117 -96.7 117 -97 117 C-97.6 97.7 -94.8 80.5 -81.5 65.5 C-80.9 64.9 -80.9 64.9 -78 62 C-78.8 62.3 -79.6 62.7 -80.4 63 C-80.9 63.2 -80.9 63.2 -83.6 64.4 C-84.1 64.6 -84.1 64.6 -86.8 65.7 C-89.8 66.9 -92.9 68 -96 69 C-86.2 46.9 -65.6 33.1 -44 24 C-42.7 23.7 -41.4 23.3 -40 23 C-41.2 22.7 -42.3 22.4 -43.5 22.1 C-47.7 21.1 -51.8 20 -56 19 C-44.7 7.7 -23.7 6.8 -8.6 6.8 C-1.3 6.8 5.8 7.1 13 8 C8.7 5.7 4.4 3.4 0 1 C0 0.7 0 0.3 0 0 Z " fill="#F7BB85" transform="translate(284,63)"/>
<path d="M0 0 C1.5 4.6 0.2 9.1 -0.5 13.9 C-2.1 24.4 -2.1 24.4 -1 30 C25.2 38.4 52.1 40.2 79.4 40.2 C80 40.3 80 40.3 82.7 40.3 C107.2 40.2 133 40.2 156 31 C156 28.4 156 25.7 156 23 C156.8 22.8 157.6 22.6 158.5 22.3 C170.7 18.8 179.5 15.6 186 4 C186.7 2.7 187.3 1.4 188 0 C247.4 0.3 306.8 0.7 368 1 C368 34 368 67 368 101 C170 101 -28 101 -232 101 C-232 68 -232 35 -232 1 C-155.4 0.7 -78.9 0.3 0 0 Z " fill="#D5E3D6" transform="translate(232,499)"/>
<path d="M0 0 C-2 4 -2 4 -6 6 C-4.2 13.6 -2.6 17.6 4 22 C13.7 26.8 24.7 26.9 35 24 C42.5 20.9 47.1 17.5 52 11 C52.3 9.7 52.7 8.4 53 7 C50.6 3.7 50.6 3.7 48 1 C54 1 54 1 56.8 2.6 C60 4 60 4 64.4 3.4 C74.3 2.7 84.1 5.7 93 10 C94 11 95 12 96 13 C96 13.7 96 14.3 96 15 C96.8 15.2 97.6 15.4 98.4 15.6 C113.9 21.6 120.7 35.2 128 49 C128.5 49.9 128.5 49.9 130.8 54.2 C136.5 64.9 141.9 75.7 147.2 86.6 C147.8 87.7 148.3 88.9 148.9 90 C149.4 91.1 149.9 92.2 150.5 93.3 C150.9 94.3 151.4 95.2 151.9 96.2 C153.1 99.2 153.8 101.8 154 105 C151.6 108.4 151.6 108.4 149 111 C149.2 111.6 149.2 111.6 150.2 114.9 C154.8 130.3 158.8 145.4 153 161 C149.6 166.4 147.5 168.7 142 172 C139 172.4 136 172.8 133 173 C133.1 174.3 133.2 175.5 133.2 176.8 C132.8 185.6 130.1 192.7 124 199 C120.3 201.3 120.3 201.3 116.2 203.3 C114.8 204 113.5 204.7 112.1 205.4 C108 207 104.4 207.7 100 208 C100.3 210.6 100.7 213.3 101 216 C94.8 219 89.1 220.9 82.3 222.1 C81.5 222.3 81.5 222.3 77.4 223.1 C60 225.8 42.5 226.4 24.9 226.3 C23.8 226.3 22.7 226.3 21.6 226.3 C-34.2 226.1 -34.2 226.1 -58 215 C-59 210 -58.8 206.9 -58 201.8 C-57.8 200.3 -57.5 198.7 -57.3 197.1 C-57.1 195.4 -56.8 193.8 -56.6 192.1 C-56.1 188.8 -55.6 185.5 -55.1 182.3 C-54.9 180.8 -54.7 179.4 -54.5 177.9 C-53.8 172.3 -54 168 -55.5 162.5 C-57.3 155.6 -57.5 148.9 -57.6 141.8 C-57.9 129.1 -57.9 129.1 -59 128 C-59.4 125.3 -59.7 122.7 -60 120 C-62 122.3 -64 124.6 -66 127 C-69 126.7 -71.9 126.3 -75 126 C-73.3 122.5 -71.5 120 -69 117 C-72.3 105.2 -78.7 95.9 -88 88 C-89.1 87.4 -90.2 86.8 -91.3 86.2 C-95.8 82.5 -97.2 76.7 -98 71 C-96.2 66.5 -94.6 63.9 -91.6 60.2 C-87.7 55.1 -83.8 50 -79.9 44.9 C-59.8 18.1 -59.8 18.1 -45 12 C-44 12.3 -43 12.7 -42 13 C-42.4 13.7 -42.4 13.7 -44.1 17.1 C-55.3 41.8 -58.2 70.9 -58.1 97.6 C-58.1 99.2 -58.1 100.8 -58 102.4 C-58 106.3 -58 110.1 -58 114 C-57.2 113.8 -57.2 113.8 -53 113 C-49.8 114.1 -49.8 114.1 -47 116 C-46 121 -46 121 -46 125 C-45.6 123.3 -45.3 121.5 -44.9 119.7 C-43.6 113.1 -42.2 106.4 -40.9 99.8 C-40.3 96.9 -39.7 94.1 -39.2 91.3 C-36 75.8 -32.7 60.4 -28.8 45.1 C-28.5 43.8 -28.1 42.6 -27.8 41.3 C-18.9 7.5 -18.9 7.5 -10.2 2.3 C-2.2 0 -2.2 0 0 0 Z " fill="#528A8D" transform="translate(288,314)"/>
<path d="M0 0 C24.5 -0.5 46.8 2.5 66 19 C68 21 70.1 23 72 25 C71.4 20.9 70.6 17.9 69 14 C76.1 18.3 82 24.2 85 32 C85 32.7 85 33.3 85 34 C86.4 33.5 87.9 33 89.4 32.5 C97 30.5 103.7 29.9 111 33 C106.1 35.5 101 37.7 96 40 C97.2 40.2 98.3 40.5 99.5 40.8 C113.8 44.7 123.1 54.9 131 67 C131.7 68.7 132.3 70.3 133 72 C128.2 70.6 124.3 68.6 120 66 C120.9 67.4 121.8 68.9 122.8 70.4 C130.1 82.6 132.3 93.9 132 108 C131 106.7 130 105.4 129 104 C129 104.5 129 104.5 128.7 107.2 C127.7 117.6 125.7 127.1 122 137 C121.6 138 121.3 139.1 120.9 140.1 C118.8 145.1 117.4 146.8 112.4 149 C111 149.3 109.5 149.7 108 150 C104 152 104 152 102.9 154.8 C102.6 155.8 102.3 156.9 102 158 C101 160 100 162 99 164 C98.7 164 98.3 164 98 164 C98 162.5 98 161 98.1 159.5 C98.3 142.3 97.1 127.3 91 111 C90.7 112.7 90.3 114.3 90 116 C80.1 111.1 74.5 99.1 71 89 C70.3 86.7 69.6 84.3 69 82 C68.8 82.4 68.8 82.4 67.5 84.2 C59.9 95 51.5 102.2 39 107 C38 106.7 37 106.3 36 106 C39 100.4 41.9 94.8 45 89 C43.4 90.3 41.7 91.6 40 93 C27.1 102.7 10.7 113 -6 113 C-3.8 106.3 -1.4 99.6 1 93 C0.2 93.9 -0.7 94.9 -1.6 95.9 C-9.7 104 -26 117 -38 117 C-36.9 111.4 -34.6 107.1 -32 102 C-32.3 102.3 -32.7 102.7 -33 103 C-34.2 104.1 -35.4 105.1 -36.6 106.2 C-43.9 113.5 -48.9 123.2 -52 133 C-52.7 133 -53.3 133 -54 133 C-54.3 132.3 -54.7 131.7 -55 131 C-55.5 144.6 -54.7 156.6 -51.8 169.9 C-51 174 -51 174 -52 177 C-52.5 176.2 -53.1 175.3 -53.6 174.4 C-54 173.9 -54 173.9 -55.8 171.1 C-56.5 170 -57.2 168.9 -58 167.8 C-60 165 -60 165 -63 163 C-63.6 162.9 -63.6 162.9 -66.4 162.7 C-70.9 161.8 -71.4 160.7 -74 157 C-75.2 154.7 -76.4 152.4 -77.6 150.1 C-78.1 149 -78.7 147.8 -79.3 146.6 C-81 143.1 -82.5 139.6 -84 136 C-84.2 136.7 -84.2 136.7 -85 140 C-85.7 140 -86.3 140 -87 140 C-90.4 129.3 -90.3 119.2 -90 108 C-91 109.5 -91 109.5 -96 117 C-96.3 117 -96.7 117 -97 117 C-97.6 97.7 -94.8 80.5 -81.5 65.5 C-80.9 64.9 -80.9 64.9 -78 62 C-78.8 62.3 -79.6 62.7 -80.4 63 C-80.9 63.2 -80.9 63.2 -83.6 64.4 C-84.1 64.6 -84.1 64.6 -86.8 65.7 C-89.8 66.9 -92.9 68 -96 69 C-86.2 46.9 -65.6 33.1 -44 24 C-42.7 23.7 -41.4 23.3 -40 23 C-41.2 22.7 -42.3 22.4 -43.5 22.1 C-47.7 21.1 -51.8 20 -56 19 C-44.7 7.7 -23.7 6.8 -8.6 6.8 C-1.3 6.8 5.8 7.1 13 8 C8.7 5.7 4.4 3.4 0 1 C0 0.7 0 0.3 0 0 Z " fill="#453126" transform="translate(284,63)"/>
<path d="M0 0 C15.9 3.9 15.9 3.9 21 9 C21 9.7 21 10.3 21 11 C21.8 11.2 22.6 11.4 23.4 11.6 C38.9 17.6 45.7 31.2 53 45 C53.5 45.9 53.5 45.9 55.8 50.2 C61.5 60.9 66.9 71.7 72.2 82.6 C72.8 83.7 73.3 84.9 73.9 86 C74.4 87.1 74.9 88.2 75.5 89.3 C75.9 90.3 76.4 91.2 76.9 92.2 C78.1 95.2 78.8 97.8 79 101 C76.6 104.4 76.6 104.4 74 107 C74.4 108.3 74.8 109.6 75.2 110.9 C79.8 126.3 83.8 141.4 78 157 C74.6 162.4 72.5 164.7 67 168 C64 168.4 61 168.8 58 169 C58.1 170.3 58.2 171.5 58.2 172.8 C57.8 181.6 55.1 188.7 49 195 C45.3 197.3 45.3 197.3 41.2 199.3 C39.8 200 38.5 200.7 37.1 201.4 C33 203 29.4 203.7 25 204 C24.8 201.6 24.6 199.2 24.4 196.8 C24.3 195.4 24.1 194.1 24 192.7 C24 189 24 189 26 185 C26.6 177 26.6 177 24.5 173.4 C22.4 168.7 22.8 164.6 22.7 159.6 C21.9 148.5 18.6 143.5 10.5 136.2 C7 133 4.6 129.9 2 126 C1.3 126.7 0.7 127.3 0 128 C0.2 137.1 2.5 145.3 5 154 C5.3 155.3 5.7 156.6 6 158 C-4.9 147.1 -12.6 131.2 -17.4 116.6 C-19 113 -19 113 -23.6 110.7 C-25 110.1 -26.5 109.6 -28 109 C-30.5 105.3 -30 103.4 -30 99 C-30.4 98 -30.7 96.9 -31.1 95.9 C-32 93 -32 93 -30 88 C-30.7 86.7 -31.3 85.4 -32 84 C-31 79 -31 79 -30 77 C-29.3 77 -28.7 77 -28 77 C-28.7 75.7 -29.3 74.4 -30 73 C-29 68 -29 68 -26 65 C-22.3 64.3 -22.3 64.3 -19 64 C-19 63.3 -19 63.3 -18.9 60 C-17.3 14.5 -17.3 14.5 -11 2 C-11.7 1.7 -12.3 1.3 -13 1 C-8.4 -2.1 -5.4 -0.9 0 0 Z " fill="#FABD86" transform="translate(363,318)"/>
<path d="M0 0 C0.8 0.2 0.8 0.2 5 1 C7.3 4.8 8.8 7.8 10.2 11.9 C10.4 12.5 10.4 12.5 11.4 15.3 C11.8 16.4 12.2 17.6 12.6 18.8 C16.9 30.9 16.9 30.9 18 32 C18 31.1 18 30.3 18.1 29.4 C18.2 25.5 18.3 21.5 18.4 17.6 C18.4 16.3 18.4 14.9 18.5 13.5 C18.5 12.2 18.5 10.9 18.6 9.5 C18.6 8.3 18.6 7.1 18.7 5.9 C19 3 19 3 21 1 C26 2 26 2 28 4 C28.6 6.6 29 9.3 29.5 11.9 C29.7 13.5 30 15.1 30.3 16.7 C30.5 18.4 30.8 20.1 31.1 21.8 C31.6 25.1 32.1 28.4 32.7 31.7 C32.9 33.2 33.1 34.6 33.4 36.2 C33.9 39.1 34.4 42.1 35 45 C35.7 45 36.3 45 37 45 C37.2 44.2 37.3 43.4 37.5 42.6 C39.7 37.2 42.9 34.1 47 30 C50.3 28.8 50.3 28.8 53 29 C54 30 55 31 56 32 C55.6 33.1 55.2 34.3 54.8 35.4 C53.3 40 51.9 44.7 50.6 49.3 C50.3 50 50.3 50 49.2 53.8 C48.5 56.3 47.8 58.9 47.1 61.4 C45.4 67.1 43.7 70.4 39.4 74.3 C36.1 78.2 36 79.7 36.4 84.9 C37.4 89.9 38.6 94.8 40.1 99.8 C41 103.1 41.8 106.3 42.6 109.6 C43.2 111.8 43.8 113.9 44.3 116.1 C44.6 117.1 44.8 118.1 45.1 119.1 C47.1 126.2 49.8 129.1 56 133 C64.2 140.2 70.8 149.2 73 160 C71 162.8 71 162.8 68.2 165.8 C67.7 166.3 67.7 166.3 65.1 168.9 C48.2 185.6 48.2 185.6 36.6 186.2 C29.4 185.9 25.1 183 20 178 C5.6 157.8 6.8 128.4 5.7 104.6 C4.8 85.7 4.8 85.7 0.6 81.8 C-0.3 81.2 -1.1 80.6 -2 80 C-6.2 74.3 -9 68.2 -11.1 61.5 C-13.7 53.8 -17.9 47.5 -22.5 40.9 C-28 32.9 -28 32.9 -28 28 C-27.3 27.3 -26.7 26.7 -26 26 C-20.2 27.2 -19.2 28.5 -15.4 32.8 C-12.4 36.3 -9.3 39.7 -6 43 C-6.2 42.6 -6.2 42.6 -7.1 40.4 C-8.8 36.6 -10.4 32.7 -12.1 28.8 C-12.6 27.5 -13.2 26.1 -13.8 24.7 C-14.4 23.5 -14.9 22.2 -15.5 20.8 C-16 19.6 -16.5 18.5 -17 17.2 C-18 14 -18 14 -17 9 C-16.7 8.7 -16.3 8.3 -16 8 C-14.3 8 -12.7 8 -11 8 C-7.5 13.5 -4.3 19.1 -1.2 24.9 C2.9 32.9 2.9 32.9 4 34 C3.2 30.4 2.4 26.8 1.6 23.2 C1.3 22.2 1.1 21.1 0.9 20.1 C-0.9 12.3 -0.9 12.3 -2 9 C-2.2 5.4 -2.2 5.4 -2 2 C-1.3 1.3 -0.7 0.7 0 0 Z " fill="#FABD87" transform="translate(147,271)"/>
<path d="M0 0 C12.9 3.4 20.4 11.5 27.1 22.5 C29.5 26.6 31.8 30.8 34 35 C34.9 36.7 35.8 38.4 36.8 40.2 C42.5 50.9 47.9 61.7 53.2 72.6 C53.8 73.7 54.3 74.9 54.9 76 C55.4 77.1 55.9 78.2 56.5 79.3 C56.9 80.3 57.4 81.2 57.9 82.2 C59.1 85.2 59.8 87.8 60 91 C57.7 94.4 57.7 94.4 55 97 C54.3 97 53.7 97 53 97 C52.3 94.7 51.7 92.4 51 90 C41.8 92.8 33.4 96.1 25 100.7 C22 102 22 102 17 101 C14.2 99.6 11.5 98.1 8.8 96.6 C7.4 95.8 6 95 4.5 94.1 C-2.8 89.7 -3.1 83.1 -5.3 75.2 C-7 70 -7 70 -9.7 65.4 C-16.9 51.7 -9.3 24.4 -5 10 C-1.7 1.7 -1.7 1.7 0 0 Z " fill="#52898C" transform="translate(382,328)"/>
<path d="M0 0 C0.2 0.3 0.2 0.3 1 2 C0.3 2.3 0.3 2.3 -3 4 C-25.5 36.8 -28.2 89.7 -36 128 C-36.3 128 -36.7 128 -37 128 C-37 123.7 -37 119.4 -37 115 C-43 113 -43 113 -47 113 C-47.7 114 -48.3 115 -49 116 C-49.6 80.6 -49.9 39.5 -31 8 C-22.4 1.2 -10.7 -0.7 0 0 Z " fill="#F4AB63" transform="translate(278,315)"/>
<path d="M0 0 C17.2 4 17.2 4 21 10 C20 10.7 19 11.3 18 12 C9.8 29.3 8.7 51.2 7 70 C5.4 69.3 3.7 68.7 2 68 C-0.1 67.4 -2.2 66.9 -4.3 66.4 C-5.4 66.2 -6.4 65.9 -7.6 65.7 C-11.4 64.9 -15.1 64.4 -19 64 C-17.6 15.2 -17.6 15.2 -11 2 C-11.7 1.7 -12.3 1.3 -13 1 C-8.4 -2.1 -5.4 -0.9 0 0 Z " fill="#F4AB63" transform="translate(363,318)"/>
<path d="M0 0 C0.1 0.9 0.1 0.9 0.3 5.2 C1.1 11.7 3.1 14.8 7 20 C3.2 27.8 -1.9 32.4 -9.7 36.4 C-21 39.8 -31.1 39.7 -42.2 35.3 C-46.6 32.6 -49.1 30.2 -52 26 C-52.9 21.6 -52.9 21.6 -53 18 C-52.2 17.6 -51.4 17.1 -50.6 16.7 C-46.7 12.7 -46.7 8.4 -46 3 C-45.4 3.1 -45.4 3.1 -42.6 3.5 C-27.4 5.2 -14.2 0 0 0 Z " fill="#F4AB63" transform="translate(335,302)"/>
<path d="M0 0 C0 2.6 0 5.3 0 8 C5.2 10.3 10.5 12.2 16 14 C15.7 15.6 15.3 17.3 15 19 C14.3 19 13.7 19 13 19 C13.2 20.5 13.2 20.5 14 28 C9.7 28 5.4 28 1 28 C1.3 26.7 1.7 25.4 2 24 C1.3 24 0.7 24 0 24 C0 23.3 0 22.7 0 22 C-0.7 22 -1.3 22 -2 22 C-2 21.3 -2 20.7 -2 20 C-2.7 20.3 -3.3 20.7 -4 21 C-4 23 -4 25 -4 27 C-13.8 27.3 -23.3 26.1 -33 25 C-32.3 24.3 -31.7 23.7 -31 23 C-31.2 22.7 -31.2 22.7 -32 21 C-33 20.7 -34 20.3 -35 20 C-35 19.3 -35 18.7 -35 18 C-36 17.7 -37 17.3 -38 17 C-37.3 16.3 -36.7 15.7 -36 15 C-36.2 14.2 -36.2 14.2 -37 10 C-37.7 10 -38.3 10 -39 10 C-39 8.7 -39 7.3 -39 6 C-41.3 6 -43.6 6 -46 6 C-45.2 6.2 -45.2 6.2 -41 7 C-41 8.3 -41 9.6 -41 11 C-42.7 11 -44.3 11 -46 11 C-46 11.7 -46 12.3 -46 13 C-46.3 13.2 -46.3 13.2 -48 14 C-47 14.3 -46 14.7 -45 15 C-43.8 18.1 -43.8 18.1 -43 21 C-40.7 21.7 -38.4 22.3 -36 23 C-36 23.3 -36 23.7 -36 24 C-50.5 23.3 -64.8 21.3 -78 15 C-77.7 13.7 -77.3 12.4 -77 11 C-70 7.6 -63 6 -55.4 4.8 C-54.4 4.6 -53.4 4.4 -52.4 4.2 C-46.9 3.3 -41.6 2.9 -36 3 C-35.7 2.7 -35.3 2.3 -35 2 C-23.3 0.4 -11.8 -0.3 0 0 Z " fill="#D7DDCA" transform="translate(230,520)"/>
<path d="M0 0 C-2 4 -2 4 -6 6 C-4.2 13.6 -2.6 17.6 4 22 C13.7 26.8 24.7 26.9 35 24 C42.5 20.9 47.1 17.5 52 11 C52.3 9.7 52.7 8.4 53 7 C50.6 3.8 50.6 3.8 48 1 C54.8 1 58.1 2.8 64 6 C63.7 7.8 63.3 9.7 63 11.6 C60.2 27.3 58.2 42.7 57.4 58.6 C57 64 57 64 56 67 C55.3 67 54.7 67 54 67 C53.5 55.5 54.8 44.5 56.3 33.1 C57 28 57 28 57 24 C55.9 25.1 54.8 26.1 53.7 27.2 C42.1 37.3 27.8 38.9 13 38 C3.5 36 -4.8 32.1 -11.1 24.5 C-13.6 20.6 -14.9 18.6 -15 14 C-15.7 14 -16.3 14 -17 14 C-17.3 15.6 -17.7 17.3 -18 19 C-19 22.3 -20 25.5 -21 28.8 C-25.9 45.2 -29.3 62 -32.9 78.7 C-34.7 87.1 -36.5 95.6 -38.4 104 C-38.7 105.5 -39 107 -39.3 108.5 C-40.9 115.5 -42.5 122.3 -45 129 C-46.5 123.1 -44.8 117.8 -43.5 111.9 C-43.3 110.6 -43 109.3 -42.7 107.9 C-42.1 105.1 -41.5 102.3 -41 99.5 C-40.1 95.3 -39.2 91.1 -38.4 86.9 C-35.5 72.9 -32.4 59 -28.8 45.1 C-28.5 43.9 -28.1 42.6 -27.8 41.3 C-18.9 7.5 -18.9 7.5 -10.2 2.3 C-2.2 0 -2.2 0 0 0 Z " fill="#53898A" transform="translate(288,314)"/>
<path d="M0 0 C4.2 3.1 8.3 6.2 12.3 9.6 C19.6 14.9 27.1 18.2 36 20 C36.6 28.6 34.9 35.9 29.8 43.1 C26.5 46.5 23.4 48.2 19.2 50.3 C17.8 51 16.5 51.7 15.1 52.4 C11 54 7.4 54.7 3 55 C2.8 52.6 2.6 50.2 2.4 47.8 C2.3 46.4 2.1 45.1 2 43.7 C2 40 2 40 4 36 C4.6 28.1 4.6 28.1 2.6 24.1 C-1 16.9 -0.1 7.9 0 0 Z " fill="#F4AB63" transform="translate(385,467)"/>
<path d="M0 0 C11.8 0.5 23.7 1.8 34 8 C34 9 34 10 34 11 C32.7 10.7 31.4 10.3 30 10 C30.2 10.5 30.2 10.5 31 13 C27.9 13.8 24.9 14.7 21.8 15.5 C20.1 16 18.4 16.4 16.6 16.9 C12 18 12 18 7 18 C7.3 17.8 7.3 17.8 9 17 C9 16.3 9 15.7 9 15 C7 15.7 5 16.3 3 17 C3.2 17.3 3.2 17.3 4 19 C-28 23.1 -59.7 25.4 -92 25 C-83.3 20.7 -83.3 20.7 -78 22 C-77.7 22.3 -77.3 22.7 -77 23 C-77 22.7 -77 22.3 -77 22 C-76 21.7 -75 21.3 -74 21 C-73.3 19.7 -72.7 18.4 -72 17 C-71 18.3 -70 19.6 -69 21 C-67.7 20.8 -67.7 20.8 -61 20 C-61 20.7 -61 21.3 -61 22 C-60.3 22 -59.7 22 -59 22 C-59 20.7 -59 19.4 -59 18 C-60.6 18.3 -62.3 18.7 -64 19 C-68 18 -68 18 -70 16 C-62.2 15.9 -62.2 15.9 -60 17 C-60 16.3 -60 15.7 -60 15 C-58 15 -56 15 -54 15 C-53.3 15.7 -52.7 16.3 -52 17 C-52 16 -52 15 -52 14 C-50.4 14 -48.7 14 -47 14 C-46.8 14.7 -46.8 14.7 -46 18 C-46.2 18.2 -46.2 18.2 -47 19 C-46 19.7 -45 20.3 -44 21 C-44 20.3 -44 19.7 -44 19 C-43.3 19 -42.7 19 -42 19 C-42 17.7 -42 16.4 -42 15 C-41.1 15.2 -40.3 15.3 -39.4 15.5 C-36 16 -36 16 -30 16 C-29.3 14.7 -28.7 13.4 -28 12 C-27.3 11.7 -26.7 11.3 -26 11 C-25.3 10 -24.7 9 -24 8 C-22.7 9 -21.4 10 -20 11 C-18.8 10.2 -17.6 9.4 -16.4 8.5 C-12 6 -12 6 -6 6 C-6 5.3 -6 4.7 -6 4 C-5.3 4 -4.7 4 -4 4 C-4 5 -4 6 -4 7 C-3 7 -2 7 -1 7 C-0.7 4.7 -0.3 2.4 0 0 Z " fill="#DDCAA6" transform="translate(416,524)"/>
<path d="M0 0 C4.5 4.2 7.7 7.5 8.2 13.8 C8.5 23.5 6.7 30.4 0.8 38.3 C-5.1 44 -9.2 47.3 -17.5 47.3 C-18.4 47.3 -18.4 47.3 -23 47 C-24.5 44 -23.7 41.7 -23.3 38.4 C-23.1 37.1 -22.9 35.8 -22.7 34.4 C-22.5 33 -22.3 31.6 -22.1 30.2 C-21.9 28.8 -21.8 27.4 -21.6 26 C-18.9 6.7 -18.9 6.7 -13.4 1.6 C-8.5 -0.7 -5.3 -0.8 0 0 Z " fill="#F4AB64" transform="translate(404,211)"/>
<path d="M0 0 C5 1.7 6.3 2.3 8.9 6.6 C9.6 7.6 10.4 8.6 11.2 9.7 C12.9 12.6 12.9 12.6 11.9 16.6 C11.9 17 11.9 17.3 11.9 17.6 C12.5 17.6 13.2 17.6 13.9 17.6 C14.1 18.7 14.4 19.7 14.6 20.8 C16.5 28.5 18.5 36.1 20.9 43.6 C16.4 46.6 13.2 46.1 7.9 45.6 C-2.2 41.8 -7.8 36.2 -12.6 26.8 C-14.6 20 -15.3 14 -13 7.2 C-9 1.7 -7.1 -0.5 0 0 Z " fill="#F4AC65" transform="translate(218.125,224.375)"/>
<path d="M0 0 C4.9 4.8 9.5 9.9 14 15 C15.2 16.2 16.4 17.4 17.7 18.6 C21.8 24 22 27.4 22.2 34.1 C22.6 40.7 22.8 45.3 26 51 C26.4 56.3 26.4 59.2 24 64 C23.9 67.7 23.9 71.3 24 75 C23.7 75.2 23.7 75.2 22 76 C20.3 74.3 18.7 72.7 17 71 C15.4 70.7 13.7 70.3 12 70 C15 64 15 64 19 62 C18.2 60.7 17.4 59.4 16.5 58.1 C6.8 41.7 -2 22.4 -2 3 C-1.3 2 -0.7 1 0 0 Z " fill="#605D4E" transform="translate(364,443)"/>
<path d="M0 0 C-0.3 1.3 -0.7 2.6 -1 4 C-1.7 4 -2.3 4 -3 4 C-3.2 3.7 -3.2 3.7 -4 2 C-5.3 2 -6.6 2 -8 2 C-8 2.7 -8 3.3 -8 4 C-7.7 4.2 -7.7 4.2 -6 5 C-6 5.7 -6 6.3 -6 7 C-15.2 8 -15.2 8 -18 8 C-18.7 7.3 -19.3 6.7 -20 6 C-20.8 5.8 -20.8 5.8 -25 5 C-25 4.3 -25 3.7 -25 3 C-26.3 3.3 -27.6 3.7 -29 4 C-29 4.7 -29 5.3 -29 6 C-34.6 6 -40.2 6 -46 6 C-45.2 6.2 -45.2 6.2 -41 7 C-41 8.3 -41 9.6 -41 11 C-42.7 11 -44.3 11 -46 11 C-46 11.7 -46 12.3 -46 13 C-46.3 13.2 -46.3 13.2 -48 14 C-47 14.3 -46 14.7 -45 15 C-43.8 18.1 -43.8 18.1 -43 21 C-40.7 21.7 -38.4 22.3 -36 23 C-36 23.3 -36 23.7 -36 24 C-50.5 23.3 -64.8 21.3 -78 15 C-77.7 13.7 -77.3 12.4 -77 11 C-70 7.6 -63 6 -55.4 4.8 C-54.4 4.6 -53.4 4.4 -52.4 4.2 C-46.9 3.3 -41.6 2.9 -36 3 C-35.7 2.7 -35.3 2.3 -35 2 C-23.3 0.4 -11.8 -0.3 0 0 Z " fill="#DEC8A3" transform="translate(230,520)"/>
<path d="M0 0 C4.1 3.2 5.9 6 7 11 C7 17.3 6.1 19.7 3 25 C-1.2 27.8 -4 27.5 -9 27 C-13.1 23.9 -14 21.9 -16 17 C-16.4 11.4 -16.2 7.7 -13 3 C-8.5 -1 -5.7 -1.8 0 0 Z " fill="#55493F" transform="translate(349,210)"/>
<path d="M0 0 C4.8 0.9 6.7 2.2 10 5.8 C12.4 11.7 13 16 10.8 22.1 C9 24.8 9 24.8 5 27.8 C1.1 28.2 1.1 28.2 -3 27.8 C-6 25.3 -7.8 23 -10 19.8 C-10.9 9.3 -10.9 9.3 -7.5 3.5 C-4 0.8 -4 0.8 0 0 Z " fill="#403026" transform="translate(269,215.25)"/>
<path d="M0 0 C0.2 0.2 0.2 0.2 1 1 C0.7 6.6 0.1 11.2 -3 16 C-6.8 17.3 -8.2 16.3 -12 15 C-22 13.9 -30.8 15.4 -39.2 21.2 C-39.8 21.8 -40.4 22.4 -41 23 C-45.8 20.6 -47.3 18.6 -50 14 C-50.8 9.6 -50.8 9.6 -51 6 C-49.4 5.7 -47.7 5.3 -46 5 C-45.7 6 -45.3 7 -45 8 C-33.9 12.2 -21.7 10.6 -11 6 C-7 3 -7 3 -6 0 C-4 -1 -4 -1 0 0 Z " fill="#554032" transform="translate(335,259)"/>
<path d="M0 0 C3.9 0.4 6.4 1.2 10 3 C12.3 14.4 12.3 14.4 10 19 C9.6 21.2 9.3 23.5 9.1 25.8 C8.9 27.1 8.7 28.5 8.5 29.9 C8.4 31.3 8.2 32.8 8 34.2 C7.6 37.1 7.3 39.9 6.9 42.7 C6.8 44 6.6 45.2 6.5 46.5 C6 49.7 5.5 52.8 5 56 C-1.5 49.5 -0.4 38.5 -0.6 29.8 C-0.7 28.6 -0.7 27.4 -0.7 26.2 C-1 17.8 -1.2 9.4 -1 1 C-0.7 0.7 -0.3 0.3 0 0 Z " fill="#645544" transform="translate(231,427)"/>
<path d="M0 0 C5.8 3.2 8.6 5.3 12 11 C13.4 16.6 14 21 11.4 26.2 C8.8 29.2 6.5 31.2 3 33 C1.7 32.7 0.4 32.3 -1 32 C0.3 30.7 1.6 29.4 3 28 C5.9 20.7 4.9 15.2 2 8 C-2.2 5.9 -5.5 5.6 -10 7 C-14.3 10.7 -15.8 13 -16.3 18.6 C-15.9 23.8 -14.3 27.4 -12 32 C-17 30 -17 30 -19.3 26.4 C-21.8 19.8 -21.9 15.3 -19.4 8.7 C-14.6 1.3 -8.5 -0.9 0 0 Z " fill="#ECEFE7" transform="translate(350,204)"/>
<path d="M0 0 C5.4 4.1 6.9 7.9 8.1 14.4 C8.2 19.4 7.5 22.1 5.2 26.4 C4.9 25.8 4.5 25.1 4.2 24.4 C4.5 23.4 4.8 22.5 5.2 21.4 C5.6 15.9 5.3 12.2 2.2 7.4 C-2.5 3.9 -4.1 3.7 -9.8 4.4 C-13.3 7 -14.6 9 -15.3 13.3 C-15.5 19.5 -15.2 23.7 -10.8 28.4 C-9.5 29.4 -8.2 30.4 -6.8 31.4 C-12.1 31.8 -15.4 31.3 -19.8 28.4 C-24 24.3 -25.7 21.4 -25.8 15.4 C-24.9 8.8 -22.6 5.1 -17.8 0.4 C-11.3 -2.2 -6.5 -2.7 0 0 Z " fill="#EDEFE7" transform="translate(274.8125,212.5625)"/>
<path d="M0 0 C4.8 0.6 9.3 1.6 14 3 C13.7 4.3 13.3 5.6 13 7 C12.3 7 11.7 7 11 7 C11.2 8.5 11.2 8.5 12 16 C7.7 16 3.4 16 -1 16 C-0.7 14.7 -0.3 13.4 0 12 C-0.7 12 -1.3 12 -2 12 C-2 11.3 -2 10.7 -2 10 C-2.7 10 -3.3 10 -4 10 C-4 9.3 -4 8.7 -4 8 C-4.3 8.2 -4.3 8.2 -6 9 C-6 11 -6 13 -6 15 C-15.8 15.3 -25.3 14.1 -35 13 C-34.3 12.3 -33.7 11.7 -33 11 C-33.3 10 -33.7 9 -34 8 C-33 7.7 -32 7.3 -31 7 C-31 8 -31 9 -31 10 C-30 10.3 -29 10.7 -28 11 C-27.7 9.7 -27.3 8.4 -27 7 C-23 6 -23 6 -21 7 C-21 6.3 -21 5.7 -21 5 C-22 5 -23 5 -24 5 C-23.7 4.3 -23.3 3.7 -23 3 C-21.7 3.7 -20.4 4.3 -19 5 C-18 5.3 -17 5.7 -16 6 C-15.7 7 -15.3 8 -15 9 C-13.3 8.7 -11.7 8.3 -10 8 C-10.3 7.7 -10.7 7.3 -11 7 C-11.3 6.3 -11.7 5.7 -12 5 C-11.3 4.3 -10.7 3.7 -10 3 C-9.3 3.7 -8.7 4.3 -8 5 C-6.7 4.7 -5.4 4.3 -4 4 C-4 3.3 -4 2.7 -4 2 C-3.3 2 -2.7 2 -2 2 C-2 2.7 -2 3.3 -2 4 C-1 3.3 -0 2.7 1 2 C0.8 1.7 0.8 1.7 0 0 Z " fill="#DDCBA8" transform="translate(232,532)"/>
<path d="M0 0 C-3.6 6 -6.9 7.7 -13 11 C-22 12.8 -27.8 12.3 -36 8 C-36.7 7.3 -37.3 6.7 -38 6 C-26.6 -3.3 -13.6 -6.4 0 0 Z " fill="#F5AB63" transform="translate(331,276)"/>
<path d="M0 0 C11.7 4.7 18.9 15.9 24 27 C24.3 28.6 24.7 30.3 25 32 C22.7 35.1 22.7 35.1 19.6 38.3 C19 38.8 19 38.8 16.4 41.6 C16 42 16 42 14 44 C13.8 43.5 13.8 43.5 13 41 C13.3 40.3 13.7 39.7 14 39 C14.7 29.8 12.5 22.4 7 15 C7 14.3 7 13.7 7 13 C6.3 13 5.7 13 5 13 C5.3 15.6 5.7 18.3 6 21 C3 18 2.8 14.6 1.9 10.5 C1.5 9 1.2 7.4 0.8 5.8 C0 2 0 2 0 0 Z " fill="#F5AB63" transform="translate(195,399)"/>
<path d="M0 0 C1 0.3 2 0.7 3 1 C2.4 2.2 1.8 3.4 1.2 4.6 C-6.6 23.4 -7.3 41.9 -7 62 C-5.4 62.3 -3.7 62.7 -2 63 C-2.3 64 -2.7 65 -3 66 C-2.3 66 -1.7 66 -1 66 C-1 63.6 -1 61.2 -0.9 58.8 C-0.9 57.4 -0.9 56.1 -0.9 54.7 C-1 51 -1 51 -2 47 C-0.8 43.6 0.6 40.3 2 37 C3.3 40.8 2.6 43.1 2 47 C1.9 50.5 1.9 54 1.9 57.5 C1.9 59.3 1.9 61.1 1.9 63 C2 67.1 2.3 70.9 3 75 C2.7 74.3 2.3 73.7 2 73 C0.4 72.3 -1.3 71.7 -3 71 C-2.3 74.6 -1.7 78.3 -1 82 C-1.7 82 -2.3 82 -3 82 C-3.4 80.9 -3.8 79.8 -4.2 78.7 C-4.7 77.2 -5.3 75.8 -5.8 74.3 C-6.3 72.9 -6.9 71.5 -7.4 70 C-9 66 -9 66 -12 61 C-13.2 42.2 -9.7 17.8 -1 1 C-0.7 0.7 -0.3 0.3 0 0 Z " fill="#476864" transform="translate(382,328)"/>
<path d="M0 0 C0.3 0 0.7 0 1 0 C1 2.3 1 4.6 1 7 C1.7 7 2.3 7 3 7 C3 9.3 3 11.6 3 14 C2 13 1 12 0 11 C0 9.7 0 8.4 0 7 C-0.7 7 -1.3 7 -2 7 C-2.3 8.6 -2.7 10.3 -3 12 C-4 15.3 -5 18.5 -6 21.8 C-10.9 38.2 -14.3 55 -17.9 71.7 C-19.7 80.1 -21.5 88.6 -23.4 97 C-23.7 98.5 -24 100 -24.3 101.5 C-25.9 108.5 -27.5 115.3 -30 122 C-31.5 116.1 -29.8 110.8 -28.5 104.9 C-28.3 103.6 -28 102.3 -27.7 100.9 C-27.1 98.1 -26.5 95.3 -26 92.5 C-25.1 88.3 -24.2 84.1 -23.4 79.9 C-20.5 65.9 -17.4 52 -13.8 38.1 C-13.5 36.9 -13.2 35.6 -12.8 34.3 C-9.7 22.5 -6.3 10.5 0 0 Z " fill="#496661" transform="translate(273,321)"/>
<path d="M0 0 C0.3 0 0.7 0 1 0 C1.4 1.7 1.7 3.5 2.1 5.2 C5.3 17.9 11.8 27.8 21 37 C20.3 38 19.7 39 19 40 C16.6 37.7 14.3 35.4 12 33 C12 32.3 12 31.7 12 31 C11 30.7 10 30.3 9 30 C4.9 23.8 2.1 18.2 0 11 C-0.6 11.7 -1.2 12.3 -1.9 13 C-10.7 21.5 -20.2 29.1 -33 30 C-33 29 -33 28 -33 27 C-31.2 26.3 -29.5 25.7 -27.7 25 C-15.5 19.9 -6 12 0 0 Z " fill="#F4AB64" transform="translate(353,143)"/>
<path d="M0 0 C3 1 3 1 5.5 4.2 C10 9 14 10.6 20 13 C19.8 14.1 19.6 15.3 19.4 16.4 C19 21.4 19.6 25.2 20.8 30.1 C21 30.8 21 30.8 21.9 34.7 C22.9 38.5 23.9 42.2 25 46 C13 34 4.7 16.1 0 0 Z " fill="#F5AB63" transform="translate(344,430)"/>
<path d="M0 0 C5.6 3.2 10.4 6.4 12.2 12.9 C12.2 13.7 12.2 14.6 12.2 15.4 C11.6 15 11.6 15 8.2 13.1 C0.6 9 -6.2 8.2 -14.8 7.8 C-16.4 7.7 -18.1 7.7 -19.9 7.6 C-21.2 7.5 -22.4 7.5 -23.8 7.4 C-22.8 2.4 -22.8 2.4 -19.9 0.1 C-12.9 -2.7 -7.1 -2.3 0 0 Z " fill="#49352A" transform="translate(352.75,175.5625)"/>
<path d="M0 0 C1 0 2 0 3 0 C2.7 1.8 2.3 3.7 2 5.6 C-0.8 21.3 -2.8 36.7 -3.6 52.6 C-4 58 -4 58 -5 61 C-5.7 61 -6.3 61 -7 61 C-7.5 49.5 -6.2 38.5 -4.7 27.1 C-4 22 -4 22 -4 18 C-5.1 19.1 -6.2 20.1 -7.3 21.2 C-18.9 31.3 -33.2 32.9 -48 32 C-56.8 30.2 -64.6 26.4 -71 20 C-70.7 19.3 -70.3 18.7 -70 18 C-68.7 19.1 -67.5 20.1 -66.2 21.2 C-56.9 28.4 -46.2 30.6 -34.7 29.7 C-24.1 28.4 -15.1 25.2 -7 18 C-3 12.7 0 6.9 0 0 Z " fill="#466B68" transform="translate(349,320)"/>
<path d="M0 0 C3.6 2.5 3.6 2.5 6 5 C5.7 5.7 5.3 6.3 5 7 C2.7 7.5 0.4 7.9 -1.9 8.3 C-12.1 10.2 -19.3 14.1 -27 21 C-27.7 21 -28.3 21 -29 21 C-28.7 14.9 -26 11.5 -22 7 C-14.2 1.3 -9.7 -0.7 0 0 Z " fill="#493529" transform="translate(270,181)"/>
<path d="M0 0 C1 2.6 2 5.3 3 8 C1.7 7.9 0.4 7.9 -0.9 7.8 C-7.7 8.1 -12.9 9.1 -18.1 13.7 C-18.7 14.5 -19.3 15.2 -20 16 C-18.7 16.3 -17.4 16.7 -16 17 C-10.8 20.2 -6.1 23.5 -2 28 C-2.3 28.7 -2.7 29.3 -3 30 C-4 29 -5 28 -6 27 C-11.2 22.4 -17.2 19.7 -23.5 16.8 C-27 15 -27 15 -30 12 C-21.3 6.4 -10.6 0 0 0 Z " fill="#F5AB63" transform="translate(433,418)"/>
<path d="M0 0 C0 1 0 2 0 3 C1 3.3 2 3.7 3 4 C3.3 3.3 3.7 2.7 4 2 C7 3 7 3 8 5 C8 11 8 11 6 14 C5.3 13.7 4.7 13.3 4 13 C4.3 12.3 4.7 11.7 5 11 C4.5 11.2 4.5 11.2 1.8 12.4 C-2 14 -2 14 -6 15 C-6 14.3 -6 13.7 -6 13 C-7.7 12.7 -9.3 12.3 -11 12 C-14 10 -14 10 -14.7 6.9 C-14.7 6.4 -14.7 6.4 -15 4 C-9.8 0.1 -6.3 -0.1 0 0 Z " fill="#F5AC66" transform="translate(263,246)"/>
<path d="M0 0 C5.8 0.8 5.8 0.8 8 3 C7.7 4.3 7.3 5.6 7 7 C5.4 7.7 3.7 8.3 2 9 C3.6 15.8 3.6 15.8 7 18 C8.6 17.7 10.3 17.3 12 17 C13.8 13.9 13.8 13.9 15 11 C15.7 11 16.3 11 17 11 C17.8 14.2 17.8 14.2 18 18 C16.2 20.8 15 22.5 12 24 C4.9 24.7 4.9 24.7 1.1 21.7 C-2.9 16.6 -3.3 13.5 -3.4 6.9 C-3 4 -3 4 0 0 Z " fill="#68594D" transform="translate(262,219)"/>
<path d="M0 0 C1 2 1 2 -0.2 5.6 C-8.2 18.1 -26.3 24.2 -40 28 C-44 28.8 -48 29.4 -52 30 C-52 28.7 -52 27.4 -52 26 C-51 25.8 -50.1 25.6 -49.1 25.4 C-30.1 21 -14.2 13.3 0 0 Z " fill="#F4AB64" transform="translate(329,150)"/>
<path d="M0 0 C-1 4 -1 4 -3.4 6.1 C-12.5 10.9 -21.8 12 -32 11 C-36.4 9.5 -36.4 9.5 -39 8 C-39 7 -39 6 -39 5 C-37.8 5 -36.7 4.9 -35.5 4.9 C-25.1 4.6 -15.5 3.3 -5.5 0.8 C-2 0 -2 0 0 0 Z " fill="#EDEDE3" transform="translate(329,259)"/>
<path d="M0 0 C1.6 0 3.3 0 5 0 C5.3 0.7 5.7 1.3 6 2 C7 1.7 8 1.3 9 1 C10.6 2.3 12.3 3.6 14 5 C13.7 6 13.3 7 13 8 C12.7 7.7 12.3 7.3 12 7 C11.7 9 11.3 11 11 13 C10.3 13 9.7 13 9 13 C9 12.3 9 11.7 9 11 C8.3 10.7 7.7 10.3 7 10 C6.2 10.8 5.5 11.5 4.7 12.3 C3.7 13.3 3.7 13.3 -1 18 C-2.3 17.3 -3.6 16.7 -5 16 C-4.3 15 -3.7 14 -3 13 C-3.7 11.7 -4.3 10.4 -5 9 C-6.6 8.7 -8.3 8.3 -10 8 C-9.7 6.7 -9.3 5.4 -9 4 C-6 3 -6 3 -3 4 C-2 2.7 -1 1.4 0 0 Z " fill="#F5AB64" transform="translate(356,238)"/>
<path d="M0 0 C1 2 1 2 0.1 5.8 C-2.7 11.3 -5.6 12.9 -11 16 C-11.5 16.3 -11.5 16.3 -13.7 17.7 C-21.4 22.4 -29.4 26.3 -38 29 C-38.7 28.7 -39.3 28.3 -40 28 C-39.7 26.7 -39.3 25.4 -39 24 C-37.3 23.7 -35.7 23.3 -34 23 C-21.3 17.1 -9.8 10.1 0 0 Z " fill="#F5AB64" transform="translate(285,155)"/>
<path d="M0 0 C1.2 7.4 1.1 11.6 -3 18 C-7.2 20.8 -10 20.5 -15 20 C-18.8 17.1 -19.8 15.7 -21 11 C-20.7 10 -20.3 9 -20 8 C-19 7.7 -18 7.3 -17 7 C-16.8 7.5 -16.8 7.5 -15.8 9.9 C-15.2 10.9 -14.6 12 -14 13 C-12.4 13.3 -10.7 13.7 -9 14 C-5.7 11.6 -5.7 11.6 -3 9 C-3.7 6.4 -4.3 3.7 -5 1 C-3 0 -3 0 0 0 Z " fill="#4E3A2E" transform="translate(355,217)"/>
<path d="M0 0 C0.3 0 0.7 0 1 0 C3.5 15.2 4.1 29.9 1 45 C0.7 45 0.3 45 0 45 C-1.7 30.3 -3.3 15.7 -1 1 C-0.7 0.7 -0.3 0.3 0 0 Z " fill="#436966" transform="translate(227,361)"/>
</svg>
