<?xml version="1.0" encoding="UTF-8"?>
<!-- Generator: visioncortex VTracer 0.6.12 -->
<svg version="1.1" xmlns="http://www.w3.org/2000/svg" width="600" height="600" viewBox="0 0 600 600" role="img" aria-label="Crowd of people">
<path d="M0 0 C198 0 396 0 600 0 C600 198 600 396 600 600 C402 600 204 600 0 600 C0 402 0 204 0 0 Z " fill="#EDF2ED" transform="translate(0,0)"/>
<path d="M0 0 C4.6 1.2 5.5 2.1 8 6 C8 7.3 8 8.6 8 10 C8.7 10.2 8.7 10.2 12 11 C14.6 14.9 13.8 16.6 13 21 C14.6 21.2 16.1 21.5 17.8 21.8 C22 22.6 24.5 23.3 27 27 C27.7 28.7 28.4 30.3 29 32 C29.7 32.9 30.3 33.9 31 34.9 C33.2 38.2 33.9 41.2 35 45 C35.7 46.2 36.4 47.3 37.1 48.5 C39.2 52.4 39.5 54.6 39 59 C38.3 60 37.7 61 37 62 C36.3 61.7 35.7 61.3 35 61 C35.7 59.7 36.3 58.4 37 57 C37 56 37 55 37 54 C34.3 58.5 33.4 61.7 34 67 C34.5 67.8 35 68.6 35.5 69.4 C37.7 73.1 37.4 75.8 37 80 C36 82.4 35 84.7 34 87 C34 88.7 34 90.3 34 92 C33.3 91.7 32.7 91.3 32 91 C31.8 86.7 32 85 34 81 C34.5 73.7 34.5 73.7 32 70 C29.5 73.2 28.9 74.5 29.4 78.6 C29.6 79.7 29.8 80.9 30 82 C29.3 83 28.7 84 28 85 C27 85 26 85 25 85 C24.7 84 24.3 83 24 82 C23.1 83.3 22.1 84.6 21.1 85.9 C19.5 88.1 17.9 90.1 16 92 C15.8 95.4 15.8 95.4 15.8 99.4 C15.8 100.8 15.8 102.1 15.8 103.5 C16 107 16 107 17 110 C17.9 109.7 18.9 109.5 19.9 109.2 C24.8 109 27.1 110.3 31.4 112.6 C33.9 114 36.5 115 39.2 115.9 C45.8 118.5 50.4 122.1 53.3 128.6 C53.6 129.3 53.6 129.3 55 133 C55.7 134.3 56.3 135.6 57 137 C58.3 137 59.6 137 61 137 C61 135 61 133 61 131 C60.3 131 59.7 131 59 131 C56.7 126.8 56 125 56 120 C54.4 120 52.7 120 51 120 C47.5 114.8 46.4 111.3 47 105 C47.7 104 48.3 103 49 102 C49.7 102 50.3 102 51 102 C50.7 100.1 50.4 98.2 50.1 96.3 C49.9 95.3 49.7 94.2 49.5 93.1 C49.2 91.2 48.8 89.2 48.4 87.3 C47.3 81.2 47.9 76.5 51 71 C52.3 70.7 53.6 70.3 55 70 C55.1 69.2 55.3 68.4 55.4 67.6 C56 65 56 65 57 64 C58.6 64 60.3 64 62 64 C62.7 62.7 63.3 61.4 64 60 C64.3 59.7 64.7 59.3 65 59 C67.7 59 70.3 59 73 59 C73.3 58.7 73.7 58.3 74 58 C76.1 57.9 78.3 57.8 80.4 57.8 C81.6 57.8 82.8 57.8 84 57.8 C87 58 87 58 89 60 C91.3 60.7 93.7 61.4 96 62 C96.3 63.3 96.7 64.6 97 66 C98.6 66 100.3 66 102 66 C102.3 68 102.7 70 103 72 C104.3 72.3 105.6 72.7 107 73 C109 80.3 108.9 85 106.8 92.2 C105.9 95.4 105.4 98.7 105 102 C106 102.3 107 102.7 108 103 C109.1 108.3 109 111.9 107 117 C106 118 105 119 104 120 C102.4 120 100.7 120 99 120 C99 121.6 99 123.3 99 125 C98.3 126.3 97.7 127.6 97 129 C96.6 131 96.3 133 96 135 C97 135 98 135 99 135 C99.3 133.6 99.5 132.2 99.8 130.8 C102.3 120.9 108.6 115.7 117.1 110.5 C128.3 104 128.3 104 131 104 C131.2 103.1 131.5 102.3 131.8 101.4 C133.1 97.8 134.8 95.1 137 92 C135.7 87.3 132.9 84.5 129.6 81.1 C127.8 78.7 127.4 76.9 127 74 C125.7 73.7 124.4 73.3 123 73 C119.4 70.1 118 67.5 117 63 C116.9 60 116.9 57 117 54 C116 53.7 115 53.3 114 53 C114 51.7 114 50.4 114 49 C112.7 48.7 111.4 48.3 110 48 C108.9 45.6 108.9 45.6 108 43 C107.3 42.3 106.7 41.7 106 41 C106.3 40 106.7 39 107 38 C108 38 109 38 110 38 C110 34.3 109.8 31.5 109 28 C110 27 111 26 112 25 C112 26 112 27 112 28 C112.5 27.3 112.5 27.3 115 24 C114.3 23.7 113.7 23.3 113 23 C115 22 117 21 119 20 C118.7 18.3 118.3 16.7 118 15 C120.7 15 123.3 15 126 15 C126.4 14.7 126.4 14.7 128.2 13.1 C131.9 10.3 135.5 9.9 140 9 C140.7 8.7 141.3 8.3 142 8 C149.9 7.1 154.7 8.1 161 13 C161.3 13.7 161.7 14.3 162 15 C163.4 15.1 164.8 15.2 166.2 15.3 C171 16 171 16 175 19 C174.7 19.7 174.3 20.3 174 21 C174.3 21.3 174.7 21.7 175 22 C177.7 25.6 178.4 26.8 179 31 C180.3 31.3 181.6 31.7 183 32 C182.7 32.7 182.3 33.4 182 34.2 C181 37 181 37 181 42 C180.7 42.8 180.3 43.6 180 44.4 C178.8 47.6 178.9 50 179.1 53.4 C179.1 58.4 179.1 61.9 176 66 C175.3 66.3 175.3 66.3 172 68 C172 69.7 172 71.3 172 73 C171.3 74 170.7 75 170 76 C169.9 79 169.9 82 170 85 C170.9 85.1 171.8 85.1 172.8 85.2 C176.8 86.2 177.4 87.4 179.6 90.8 C184.3 97.2 189.5 98.2 197 100 C199.5 100.9 201.9 101.9 204.3 102.9 C206.4 103.7 208.4 104.5 210.4 105.3 C222.3 109.8 227.5 115.2 232.8 126.7 C238.2 139.3 240.9 152.7 243.5 166.1 C244.1 169.2 244.7 172.3 245.3 175.4 C245.6 176.9 245.9 178.4 246.2 179.9 C246.9 183.4 247.6 186.8 248.3 190.3 C251 202.6 253 213 248 225 C247.9 226.6 247.7 228.1 247.6 229.8 C247 234.4 246.4 235.1 243 238 C242.3 239.6 241.6 241.3 241 243 C239 245 239 245 235.8 245.6 C230.7 247.5 228.6 250.7 225.7 254.9 C225.2 255.7 224.6 256.4 224.1 257.1 C217.8 266 217.8 266 217.4 271.5 C217.2 274.6 217 277 216 280 C215.9 283.6 215.9 287.2 215.9 290.8 C215.9 291.9 215.9 292.9 215.9 294 C215.9 297.4 215.9 300.8 215.9 304.2 C215.9 306.5 215.9 308.8 216 311.1 C216 316.7 216 322.4 216 328 C211.8 329.6 207.9 330.4 203.4 330.8 C202.2 330.9 200.9 331.1 199.6 331.2 C198.3 331.3 197 331.4 195.6 331.6 C194.3 331.7 192.9 331.8 191.5 332 C187.7 332.3 183.8 332.7 180 333 C178.5 333.1 177 333.3 175.5 333.4 C161.7 334.5 147.8 334.1 134 334 C133.7 330.7 133.3 327.4 133 324 C131.7 327.3 130.4 330.6 129 334 C126.2 330.3 124.1 326.7 121.9 322.6 C121.2 321.3 120.6 320 119.8 318.6 C118.4 315.8 117.1 313 116 310 C115.3 310 114.7 310 114 310 C114 311 114 312 114 313 C113 312.7 112 312.3 111 312 C107.9 312.9 105 313.8 101.9 314.8 C92.3 317.9 83.1 319.3 73 320 C72.7 321 72.3 322 72 323 C71.7 322 71.3 321 71 320 C69 320 67 320 65 320 C64.7 320.7 64.3 321.3 64 322 C63.3 322 62.7 322 62 322 C62 321 62 320 62 319 C60.7 318.9 59.4 318.9 58 318.8 C47 317.7 36.4 313.9 27 308 C20.7 317.5 18.6 324.6 19 336 C11.4 336 3.8 336 -4 336 C-4.1 332.8 -4.1 329.7 -4.2 326.4 C-4.2 323.4 -4.3 320.3 -4.4 317.3 C-4.4 315.1 -4.5 313 -4.5 310.9 C-4.6 307.8 -4.6 304.8 -4.7 301.7 C-4.7 301.2 -4.7 301.2 -4.7 298.8 C-4.9 292.1 -4.9 292.1 -6 291 C-8.3 291.7 -8.3 291.7 -20 295 C-22 291 -24 287.1 -26 283 C-29.3 283.3 -32.6 283.7 -36 284 C-36 281 -36 278.1 -36 275 C-37.3 274.7 -38.6 274.3 -40 274 C-39.7 274.7 -39.3 275.3 -39 276 C-39 279 -39 282 -39 285 C-39.7 285.2 -39.7 285.2 -43.3 285.9 C-48 287 -48 287 -51 288 C-51 293.6 -51 299.2 -51 305 C-51.3 305 -51.7 305 -52 305 C-52.3 299.7 -52.7 294.4 -53 289 C-55.3 288.7 -57.6 288.3 -60 288 C-60 298.9 -60 309.8 -60 321 C-60.3 321 -60.7 321 -61 321 C-61 310.1 -61 299.2 -61 288 C-67.6 287.3 -74.2 286.7 -81 286 C-82 281.8 -81.7 279.2 -81 275 C-82.3 275 -83.6 275 -85 275 C-85 275.5 -85 275.5 -84.9 278.3 C-85 282 -85 282 -86 285 C-88.2 284.5 -90.5 284.1 -92.7 283.6 C-93.9 283.4 -95.2 283.1 -96.4 282.9 C-99.5 282.1 -102.2 281.2 -105 280 C-105.7 281.6 -106.3 283.3 -107 285 C-108 285 -109 285 -110 285 C-112 281.7 -114 278.4 -116 275 C-120.7 274.7 -123.1 275.4 -127 278 C-127.7 278 -128.3 278 -129 278 C-131 282 -131 282 -132 286 C-129.7 288.5 -127.4 290.9 -125.1 293.4 C-124.5 294.1 -123.8 294.8 -123.2 295.5 C-118.2 300.8 -118.2 300.8 -116 303 C-116.2 306.4 -116.6 309.7 -117 313 C-117.2 314.8 -117.4 316.6 -117.5 318.4 C-118 323.2 -118.5 328.1 -119 333 C-122.3 333 -125.6 333 -128.9 333.1 C-129.9 333.1 -130.8 333.1 -131.7 333.1 C-137.6 333.1 -143.2 332.8 -149 332 C-148.7 329.4 -148.5 326.9 -148.2 324.3 C-148.1 323.6 -148.1 323.6 -147.7 320 C-147 316.2 -146.1 314.2 -144 311 C-142 302.8 -140.3 295.4 -141 287 C-143 284.1 -143 284.1 -145 282 C-145 281 -145 280 -145 279 C-145.7 279 -146.3 279 -147 279 C-147 280.3 -147 281.6 -147 282.9 C-147 284.6 -146.9 286.3 -146.9 288 C-146.9 288.8 -146.9 289.7 -146.9 290.5 C-146.9 295.8 -147.2 300.8 -148 306 C-148.3 306 -148.7 306 -149 306 C-149 297.1 -149 288.2 -149 279 C-161.1 276.2 -161.1 276.2 -164.8 275.3 C-170.5 274 -175.7 272.5 -181 270 C-181.5 270.5 -181.5 270.5 -184 273 C-184.1 272.2 -184.2 271.4 -184.4 270.6 C-184.6 269.7 -184.8 268.9 -185 268 C-185.7 267.7 -186.3 267.3 -187 267 C-187.3 268 -187.7 269 -188 270 C-188.3 269.7 -188.7 269.3 -189 269 C-194.9 268.4 -198.2 269.6 -203 273 C-206.4 276.5 -208.6 279 -209 284 C-210.3 282.7 -211.7 281.3 -213 280 C-213.4 279.6 -213.4 279.6 -215.5 277.8 C-218.5 274.5 -220.1 271 -222 267 C-222.5 266 -223 265 -223.5 263.9 C-225.2 260.4 -226.8 256.9 -228.5 253.3 C-229.1 252.1 -229.6 250.9 -230.2 249.7 C-247.4 213 -234.6 169.3 -222.4 132.3 C-217.5 119.1 -211.1 109.5 -198 103.5 C-196.2 102.8 -194.5 102.1 -192.8 101.4 C-191.8 101 -190.9 100.6 -190 100.2 C-188.2 99.5 -186.3 98.7 -184.5 98 C-182.3 97.1 -180.1 96.2 -177.9 95.3 C-169.5 91.9 -169.5 91.9 -165 93 C-163.3 95.9 -163.3 95.9 -161.6 99.7 C-159.2 104.8 -156.8 108.8 -153 113 C-152.3 112.6 -151.5 112.3 -150.8 111.9 C-147.4 110.8 -146.4 111.3 -143.2 112.9 C-136.9 115.6 -132.4 115.8 -125.8 113.6 C-123.1 112.5 -120.6 111.3 -118 110 C-118 111 -118 112 -118 113 C-117.3 113 -116.7 113 -116 113 C-115.7 108.4 -115.3 103.8 -115 99 C-110.5 100.5 -107.1 101.9 -103.1 104.1 C-102.2 104.7 -101.2 105.2 -100.2 105.8 C-99.5 106.2 -98.7 106.6 -98 107 C-97.9 106.1 -97.8 105.3 -97.7 104.4 C-95.6 94 -89 84.2 -80.4 78.1 C-72.2 73.1 -65.6 72.2 -56 73 C-52.9 74.6 -51.3 75.7 -49 78 C-47.9 78.1 -46.9 78.2 -45.8 78.2 C-40.4 79.3 -37.7 81.7 -34.4 86.2 C-29.6 93.6 -26.3 102 -27 111 C-25.7 110.3 -24.4 109.7 -23 109 C-21.4 109 -19.7 109 -18 109 C-14 106 -14 106 -13 103 C-12.9 100.1 -12.9 97.2 -12.9 94.3 C-12.9 92.8 -13 91.2 -13 89.6 C-13 88.4 -13 87.2 -13 86 C-14 85.3 -15 84.7 -16 84 C-16.7 85 -17.3 86 -18 87 C-19.3 86.7 -20.6 86.3 -22 86 C-23 82 -23 82 -22 78 C-23 78 -24 78 -25 78 C-25 81.3 -25 84.6 -25 88 C-25.7 87.7 -26.3 87.3 -27 87 C-27.1 78.3 -27.1 78.3 -26 76 C-27.3 75.3 -28.6 74.7 -30 74 C-31 73 -31 73 -31.4 68.8 C-32 64 -32 64 -33.6 60.9 C-35.3 57.3 -35.4 54.9 -35 51 C-34.3 49.7 -33.7 48.4 -33 47 C-32.6 45.4 -32.3 43.7 -32.1 42.1 C-31.3 38.1 -30.4 35.3 -28 32 C-30.4 33.1 -30.4 33.1 -33 35 C-34.3 38.7 -34.3 38.7 -35 42 C-35.3 42 -35.7 42 -36 42 C-36.3 38.4 -36.3 36.5 -34.5 33.3 C-31.3 30.4 -28.1 29.3 -24 28 C-24.5 27.2 -25 26.4 -25.6 25.6 C-27.4 21 -26.8 17.8 -26 13 C-29 16 -29 16 -29.2 19.7 C-29.1 20.8 -29.1 21.9 -29 23 C-29.7 22.7 -30.3 22.3 -31 22 C-31.3 18.1 -31.4 15.7 -29.5 12.2 C-25.6 8.8 -21.2 7 -16 7 C-15.7 6 -15.3 5 -15 4 C-14.7 4.3 -14.7 4.3 -13 6 C-11.7 4.3 -10.4 2.7 -9 1 C-8.7 1.2 -8.7 1.2 -7 2 C-6.7 1.7 -6.3 1.3 -6 1 C1.6 2.8 1.6 2.8 5 5 C3.4 3.3 1.7 1.7 0 0 Z " fill="#4D7D80" transform="translate(293,141)"/>
<path d="M0 0 C198 0 396 0 600 0 C600 33 600 66 600 100 C402 100 204 100 0 100 C0 67 0 34 0 0 Z " fill="#D5E4D7" transform="translate(0,500)"/>
<path d="M0 0 C4.6 1.2 5.5 2.1 8 6 C8 7.3 8 8.6 8 10 C8.7 10.2 8.7 10.2 12 11 C14.6 14.9 13.8 16.6 13 21 C14.6 21.2 16.1 21.5 17.8 21.8 C22 22.6 24.5 23.3 27 27 C27.7 28.7 28.4 30.3 29 32 C29.7 32.9 30.3 33.9 31 34.9 C33.2 38.2 33.9 41.2 35 45 C35.7 46.2 36.4 47.3 37.1 48.5 C39.2 52.4 39.5 54.6 39 59 C38.3 60 37.7 61 37 62 C36.3 61.7 35.7 61.3 35 61 C35.7 59.7 36.3 58.4 37 57 C37 56 37 55 37 54 C34.3 58.5 33.4 61.7 34 67 C34.5 67.8 35 68.6 35.5 69.4 C37.7 73.1 37.4 75.8 37 80 C36 82.4 35 84.7 34 87 C34 88.7 34 90.3 34 92 C33.3 91.7 32.7 91.3 32 91 C31.8 86.7 32 85 34 81 C34.5 73.7 34.5 73.7 32 70 C29.5 73.2 28.9 74.5 29.4 78.6 C29.6 79.7 29.8 80.9 30 82 C29.3 83 28.7 84 28 85 C27 85 26 85 25 85 C24.7 84 24.3 83 24 82 C23.1 83.3 22.1 84.6 21.1 85.9 C19.5 88.1 17.9 90.1 16 92 C15.8 95.4 15.8 95.4 15.8 99.4 C15.8 100.8 15.8 102.1 15.8 103.5 C16 107 16 107 17 110 C17.9 109.7 18.9 109.5 19.9 109.2 C24.8 109 27.1 110.3 31.4 112.6 C33.9 114 36.5 115 39.2 115.9 C45.7 118.5 50.4 122.1 53.4 128.6 C54.6 131.8 55.4 134.6 56 138 C55.7 138.1 55.7 138.1 53.9 138.8 C46.4 142.1 46.4 142.1 44.1 147 C43.8 148.3 43.4 149.6 43 151 C41.7 152.7 40.4 154.4 39 156 C38.8 156.8 38.6 157.6 38.3 158.4 C36.4 162.2 33.7 162.9 29.8 164.7 C21.5 169 17.1 173.1 13.9 182 C11.3 191.2 9.6 200.4 8.2 209.9 C8 211.3 7.8 212.8 7.6 214.3 C7 217.9 6.5 221.4 6 225 C1.4 225 -3.2 225 -8 225 C-7.5 228.9 -7 232.8 -6.6 236.7 C-6.5 237.2 -6.5 237.2 -6.2 240 C-6 241.1 -5.9 242.2 -5.8 243.3 C-5.7 243.8 -5.7 243.8 -5.4 246.2 C-5.1 248 -4.8 249.8 -4.5 251.5 C-4 254.1 -3.9 256.5 -3.9 259.1 C-3.9 260 -3.9 260.9 -3.9 261.9 C-3.9 262.9 -3.9 263.8 -3.9 264.8 C-3.9 265.8 -3.9 266.8 -4 267.8 C-4 270.2 -4 272.6 -4 275 C-3 275.3 -2 275.7 -1 276 C-0.7 280.3 -0.3 284.6 0 289 C-4.4 290.5 -8.9 291.8 -13.4 293.1 C-14 293.3 -14 293.3 -17.1 294.2 C-18.1 294.5 -19 294.7 -20 295 C-22 291 -24 287.1 -26 283 C-29.3 283.3 -32.6 283.7 -36 284 C-36 281 -36 278.1 -36 275 C-37.3 274.7 -38.6 274.3 -40 274 C-39.7 274.7 -39.3 275.3 -39 276 C-39 279 -39 282 -39 285 C-39.7 285.2 -39.7 285.2 -43.3 285.9 C-48 287 -48 287 -51 288 C-51 293.6 -51 299.2 -51 305 C-51.3 305 -51.7 305 -52 305 C-52.3 299.7 -52.7 294.4 -53 289 C-55.3 288.7 -57.6 288.3 -60 288 C-60 298.9 -60 309.8 -60 321 C-60.3 321 -60.7 321 -61 321 C-61 310.1 -61 299.2 -61 288 C-67.6 287.3 -74.2 286.7 -81 286 C-82 281.8 -81.7 279.2 -81 275 C-82.3 275 -83.6 275 -85 275 C-85 275.5 -85 275.5 -84.9 278.3 C-85 282 -85 282 -86 285 C-88.2 284.5 -90.5 284.1 -92.7 283.6 C-93.9 283.4 -95.2 283.1 -96.4 282.9 C-99.5 282.1 -102.2 281.2 -105 280 C-105.7 281.6 -106.3 283.3 -107 285 C-108 285 -109 285 -110 285 C-112 281.7 -114 278.4 -116 275 C-120.7 274.7 -123.1 275.4 -127 278 C-127.7 278 -128.3 278 -129 278 C-131 282 -131 282 -132 286 C-129.7 288.5 -127.4 290.9 -125.1 293.4 C-124.5 294.1 -123.8 294.8 -123.2 295.5 C-118.2 300.8 -118.2 300.8 -116 303 C-116.2 306.4 -116.6 309.7 -117 313 C-117.2 314.8 -117.4 316.6 -117.5 318.4 C-118 323.2 -118.5 328.1 -119 333 C-122.3 333 -125.6 333 -128.9 333.1 C-129.9 333.1 -130.8 333.1 -131.7 333.1 C-137.6 333.1 -143.2 332.8 -149 332 C-148.7 329.4 -148.5 326.9 -148.2 324.3 C-148.1 323.6 -148.1 323.6 -147.7 320 C-147 316.2 -146.1 314.2 -144 311 C-142 302.8 -140.3 295.4 -141 287 C-143 284.1 -143 284.1 -145 282 C-145 281 -145 280 -145 279 C-145.7 279 -146.3 279 -147 279 C-147 280.3 -147 281.6 -147 282.9 C-147 284.6 -146.9 286.3 -146.9 288 C-146.9 288.8 -146.9 289.7 -146.9 290.5 C-146.9 295.8 -147.2 300.8 -148 306 C-148.3 306 -148.7 306 -149 306 C-149 297.1 -149 288.2 -149 279 C-161.1 276.2 -161.1 276.2 -164.8 275.3 C-170.5 274 -175.7 272.5 -181 270 C-181.5 270.5 -181.5 270.5 -184 273 C-184.1 272.2 -184.2 271.4 -184.4 270.6 C-184.6 269.7 -184.8 268.9 -185 268 C-185.7 267.7 -186.3 267.3 -187 267 C-187.3 268 -187.7 269 -188 270 C-188.3 269.7 -188.7 269.3 -189 269 C-194.9 268.4 -198.2 269.6 -203 273 C-206.4 276.5 -208.6 279 -209 284 C-210.3 282.7 -211.7 281.3 -213 280 C-213.4 279.6 -213.4 279.6 -215.5 277.8 C-218.5 274.5 -220.1 271 -222 267 C-222.5 266 -223 265 -223.5 263.9 C-225.2 260.4 -226.8 256.9 -228.5 253.3 C-229.1 252.1 -229.6 250.9 -230.2 249.7 C-247.4 213 -234.6 169.3 -222.4 132.3 C-217.5 119.1 -211.1 109.5 -198 103.5 C-196.2 102.8 -194.5 102.1 -192.8 101.4 C-191.8 101 -190.9 100.6 -190 100.2 C-188.2 99.5 -186.3 98.7 -184.5 98 C-182.3 97.1 -180.1 96.2 -177.9 95.3 C-169.5 91.9 -169.5 91.9 -165 93 C-163.3 95.9 -163.3 95.9 -161.6 99.7 C-159.2 104.8 -156.8 108.8 -153 113 C-152.3 112.6 -151.5 112.3 -150.8 111.9 C-147.4 110.8 -146.4 111.3 -143.2 112.9 C-136.9 115.6 -132.4 115.8 -125.8 113.6 C-123.1 112.5 -120.6 111.3 -118 110 C-118 111 -118 112 -118 113 C-117.3 113 -116.7 113 -116 113 C-115.7 108.4 -115.3 103.8 -115 99 C-110.5 100.5 -107.1 101.9 -103.1 104.1 C-102.2 104.7 -101.2 105.2 -100.2 105.8 C-99.5 106.2 -98.7 106.6 -98 107 C-97.9 106.1 -97.8 105.3 -97.7 104.4 C-95.6 94 -89 84.2 -80.4 78.1 C-72.2 73.1 -65.6 72.2 -56 73 C-52.9 74.6 -51.3 75.7 -49 78 C-47.9 78.1 -46.9 78.2 -45.8 78.2 C-40.4 79.3 -37.7 81.7 -34.4 86.2 C-29.6 93.6 -26.3 102 -27 111 C-25.7 110.3 -24.4 109.7 -23 109 C-21.4 109 -19.7 109 -18 109 C-14 106 -14 106 -13 103 C-12.9 100.1 -12.9 97.2 -12.9 94.3 C-12.9 92.8 -13 91.2 -13 89.6 C-13 88.4 -13 87.2 -13 86 C-14 85.3 -15 84.7 -16 84 C-16.7 85 -17.3 86 -18 87 C-19.3 86.7 -20.6 86.3 -22 86 C-23 82 -23 82 -22 78 C-23 78 -24 78 -25 78 C-25 81.3 -25 84.6 -25 88 C-25.7 87.7 -26.3 87.3 -27 87 C-27.1 78.3 -27.1 78.3 -26 76 C-27.3 75.3 -28.6 74.7 -30 74 C-31 73 -31 73 -31.4 68.8 C-32 64 -32 64 -33.6 60.9 C-35.3 57.3 -35.4 54.9 -35 51 C-34.3 49.7 -33.7 48.4 -33 47 C-32.6 45.4 -32.3 43.7 -32.1 42.1 C-31.3 38.1 -30.4 35.3 -28 32 C-30.4 33.1 -30.4 33.1 -33 35 C-34.3 38.7 -34.3 38.7 -35 42 C-35.3 42 -35.7 42 -36 42 C-36.3 38.4 -36.3 36.5 -34.5 33.3 C-31.3 30.4 -28.1 29.3 -24 28 C-24.5 27.2 -25 26.4 -25.6 25.6 C-27.4 21 -26.8 17.8 -26 13 C-29 16 -29 16 -29.2 19.7 C-29.1 20.8 -29.1 21.9 -29 23 C-29.7 22.7 -30.3 22.3 -31 22 C-31.3 18.1 -31.4 15.7 -29.5 12.2 C-25.6 8.8 -21.2 7 -16 7 C-15.7 6 -15.3 5 -15 4 C-14.7 4.3 -14.7 4.3 -13 6 C-11.7 4.3 -10.4 2.7 -9 1 C-8.7 1.2 -8.7 1.2 -7 2 C-6.7 1.7 -6.3 1.3 -6 1 C1.6 2.8 1.6 2.8 5 5 C3.4 3.3 1.7 1.7 0 0 Z " fill="#4D7C7F" transform="translate(293,141)"/>
<path d="M0 0 C3.1 1.6 4.7 2.7 7 5 C8.1 5.1 9.1 5.2 10.2 5.2 C15.6 6.3 18.3 8.7 21.6 13.2 C28.1 23.3 29.4 34 30.5 45.8 C31.2 53.4 32 61 33.7 68.5 C35.3 76 36.7 83.4 33.2 90.6 C29.8 94.3 27 96.4 22 97 C13.3 96.3 13.3 96.3 9.9 92.9 C8.8 91.4 7.6 89.7 6.6 88.1 C5 86 5 86 1 84 C0.7 81.3 0.7 81.3 1 78 C2.8 75.8 2.8 75.8 5.2 73.9 C13.2 67.4 13.2 67.4 15 62 C15.8 61.5 16.6 61.1 17.4 60.6 C20 59 20 59 22 55 C22.1 52.7 22.1 50.3 22 48 C21.3 47.7 20.7 47.3 20 47 C19.7 49.3 19.3 51.6 19 54 C18.3 53.3 17.7 52.7 17 52 C17 50.1 17.1 48.2 17.2 46.4 C17.4 35.4 13.4 25.1 6 17 C4.3 19.3 2.6 21.6 1.1 23.9 C-1 27 -3.3 29.4 -6 32 C-6.7 31.7 -7.3 31.3 -8 31 C-7 29 -6 27 -5 25 C-7 27.3 -9 29.6 -11 32 C-10.3 32.7 -10.3 32.7 -7 36 C-7.7 36 -8.4 35.9 -9.2 35.9 C-20 35.6 -20 35.6 -25 39 C-26.5 42 -27.2 44.7 -28 48 C-28.6 47.2 -29.2 46.4 -29.8 45.5 C-30.1 45.1 -30.1 45.1 -32 43 C-33.3 43 -34.6 43 -36 43 C-37.8 46.5 -36.5 50.2 -36 54 C-35.7 54.7 -35.3 55.3 -35 56 C-33.7 56 -32.4 56 -31 56 C-30.7 58.3 -30.3 60.6 -30 63 C-31 63.7 -32 64.3 -33 65 C-32 64.7 -31 64.3 -30 64 C-29.7 62 -29.3 60 -29 58 C-25.6 59.7 -25.2 63.5 -24 67 C-23.7 67.3 -23.3 67.7 -23 68 C-23.1 70.2 -23.2 72.4 -23.4 74.6 C-23.5 75.8 -23.6 77 -23.7 78.2 C-23.8 79.1 -23.9 80 -24 81 C-26.3 82 -28.6 83 -31 84 C-31.3 88.7 -30.8 91.2 -28 95 C-27.3 95.3 -26.7 95.7 -26 96 C-26 96.7 -26 97.3 -26 98 C-31.3 98.3 -34.5 98.2 -39.5 96.4 C-46.5 94.2 -51.7 96.3 -58.2 99.2 C-70.7 105.8 -74.2 120 -78.1 132.6 C-78.3 133.2 -78.3 133.2 -79.2 136.1 C-80 138.6 -80.8 141 -81.5 143.5 C-82.7 147.2 -83.9 150.9 -85 154.6 C-85.8 157 -86.5 159.4 -87.3 161.8 C-87.6 162.9 -88 164 -88.3 165.1 C-95.7 189 -95.7 189 -89.1 201.8 C-88 204 -88 204 -88 206 C-89 206 -90 206 -91 206 C-91 207.3 -91 208.6 -91 209.9 C-91 211.6 -90.9 213.3 -90.9 215 C-90.9 215.8 -90.9 216.7 -90.9 217.5 C-90.9 222.8 -91.2 227.8 -92 233 C-92.3 233 -92.7 233 -93 233 C-93 224.1 -93 215.2 -93 206 C-105.1 203.2 -105.1 203.2 -108.8 202.3 C-114.5 201 -119.7 199.5 -125 197 C-126 198 -127 199 -128 200 C-128.1 199.2 -128.2 198.4 -128.4 197.6 C-128.6 196.7 -128.8 195.9 -129 195 C-129.7 194.7 -130.3 194.3 -131 194 C-131.3 195 -131.7 196 -132 197 C-132.3 196.7 -132.7 196.3 -133 196 C-138.9 195.4 -142.2 196.6 -147 200 C-150.4 203.5 -152.6 206 -153 211 C-154.3 209.7 -155.7 208.3 -157 207 C-157.4 206.6 -157.4 206.6 -159.5 204.8 C-162.5 201.5 -164.1 198 -166 194 C-166.5 193 -167 192 -167.5 190.9 C-169.2 187.4 -170.8 183.9 -172.5 180.3 C-173.1 179.1 -173.6 177.9 -174.2 176.7 C-191.4 140 -178.6 96.3 -166.4 59.3 C-161.5 46.1 -155.1 36.5 -142 30.5 C-140.2 29.8 -138.5 29.1 -136.8 28.4 C-135.8 28 -134.9 27.6 -134 27.2 C-132.2 26.5 -130.3 25.7 -128.5 25 C-126.3 24.1 -124.1 23.2 -121.9 22.3 C-113.5 18.9 -113.5 18.9 -109 20 C-107.3 22.9 -107.3 22.9 -105.6 26.7 C-103.2 31.8 -100.8 35.8 -97 40 C-96.3 39.6 -95.5 39.3 -94.8 38.9 C-91.4 37.8 -90.4 38.3 -87.2 39.9 C-80.9 42.6 -76.4 42.8 -69.8 40.6 C-67.1 39.5 -64.6 38.3 -62 37 C-62 38 -62 39 -62 40 C-61.3 40 -60.7 40 -60 40 C-59.7 35.4 -59.3 30.8 -59 26 C-54.5 27.5 -51.1 28.9 -47.1 31.1 C-46.2 31.7 -45.2 32.2 -44.2 32.8 C-43.5 33.2 -42.7 33.6 -42 34 C-41.9 33.1 -41.8 32.3 -41.7 31.4 C-39.6 21 -33 11.2 -24.4 5.1 C-16.2 0.1 -9.6 -0.8 0 0 Z " fill="#3A4E6B" transform="translate(237,214)"/>
<path d="M0 0 C3.6 1.5 7.2 3.3 9 7 C9.7 7.1 9.7 7.1 13.2 7.3 C18 8 18 8 22 11 C21.7 11.7 21.3 12.3 21 13 C21.2 13.2 21.2 13.2 22 14 C24.7 17.6 25.4 18.8 26 23 C26.7 23.2 26.7 23.2 30 24 C29.7 24.7 29.3 25.4 29 26.2 C28 29 28 29 28 34 C27.7 34.8 27.3 35.6 27 36.4 C25.8 39.6 25.9 42 26.1 45.4 C26.1 50.4 26.1 53.9 23 58 C22.3 58.3 22.3 58.3 19 60 C19 61.7 19 63.3 19 65 C18.3 66 17.7 67 17 68 C16.9 71 16.9 74 17 77 C17.9 77.1 18.8 77.1 19.8 77.2 C23.8 78.2 24.4 79.4 26.6 82.8 C31.3 89.2 36.5 90.2 44 92 C46.5 92.9 48.9 93.9 51.3 94.9 C53.4 95.7 55.4 96.5 57.4 97.3 C69.3 101.8 74.5 107.2 79.8 118.7 C85.2 131.3 87.9 144.7 90.5 158.1 C91.1 161.2 91.7 164.3 92.3 167.4 C92.5 168.2 92.5 168.2 93.2 171.9 C93.9 175.4 94.6 178.8 95.3 182.3 C98 194.6 100 205 95 217 C94.9 218.6 94.7 220.1 94.6 221.8 C94 226.4 93.4 227.1 90 230 C89.3 231.6 88.6 233.3 88 235 C86 237 86 237 82.8 237.6 C77.7 239.5 75.6 242.7 72.7 246.9 C72.2 247.7 71.6 248.4 71.1 249.1 C64.8 257.9 64.8 257.9 64 264 C63.7 263.5 63.7 263.5 62 261 C57.3 266.8 54.5 272 52 279 C47.4 276.7 46.4 275 43.8 270.7 C43.1 269.6 42.4 268.4 41.7 267.3 C40.2 264.4 39.4 262.2 39 259 C40 258 41 257 42 256 C42.3 255 42.7 254 43 253 C34.3 256 28.3 262.5 22 269 C21 270 20 271 19 272 C17.7 271.3 16.4 270.7 15 270 C15.5 266.8 16.1 263.8 17.1 260.7 C19.6 250.6 16.9 240.7 14.9 230.7 C14.8 229.9 14.6 229.1 14.5 228.2 C12.4 217.3 10.1 206.3 7.4 195.5 C7.1 194.4 6.8 193.3 6.6 192.2 C-0.5 164.8 -0.5 164.8 -11.7 157.8 C-15.3 155.7 -19 154.2 -22.9 152.6 C-28.3 150.3 -29.8 147.5 -32 142 C-33.3 141 -34.6 140 -36 139 C-36.2 138.4 -36.2 138.4 -36.9 135.5 C-38 132 -38 132 -39.9 130.2 C-44.5 128.4 -49.2 127.7 -54 127 C-52 116.5 -48.4 111.3 -40 105 C-25.4 96 -25.4 96 -22 96 C-21.8 95.1 -21.5 94.3 -21.2 93.4 C-19.9 89.8 -18.2 87.1 -16 84 C-17.3 79.3 -20.1 76.5 -23.4 73.1 C-25.2 70.7 -25.6 68.9 -26 66 C-27.3 65.7 -28.6 65.3 -30 65 C-33.6 62.1 -35 59.5 -36 55 C-36.1 52 -36.1 49 -36 46 C-36.5 45.8 -36.5 45.8 -39 45 C-39 43.7 -39 42.4 -39 41 C-40.3 40.7 -41.6 40.3 -43 40 C-44.1 37.6 -44.1 37.6 -45 35 C-45.7 34.3 -46.3 33.7 -47 33 C-46.7 32 -46.3 31 -46 30 C-45 30 -44 30 -43 30 C-43 26.3 -43.2 23.5 -44 20 C-43 19 -42 18 -41 17 C-41 18 -41 19 -41 20 C-40 18.7 -39 17.4 -38 16 C-38.7 15.7 -39.3 15.3 -40 15 C-38 14 -36 13 -34 12 C-34.3 10.3 -34.7 8.7 -35 7 C-32.3 7 -29.7 7 -27 7 C-26.3 6.4 -25.5 5.8 -24.8 5.1 C-21.1 2.3 -17.5 1.9 -13 1 C-9 -1 -4.3 -0.5 0 0 Z " fill="#B8492F" transform="translate(446,149)"/>
<path d="M0 0 C1.3 0.7 2.6 1.3 4 2 C4 2.7 4 3.3 4 4 C4.7 3.3 5.3 2.7 6 2 C7.4 2.6 8.8 3.1 10.2 3.7 C17 6.2 24 7.7 31 9.3 C37.9 10.9 37.9 10.9 39 12 C39.1 15.2 39.1 18.4 39.1 21.6 C39 24.7 39 27.8 39 31 C39.3 24.7 39.7 18.5 40 12 C40.7 12 41.3 12 42 12 C42.2 12.5 42.2 12.5 43.4 14.9 C45 18 45 18 47 20 C47.5 29.8 46 38 42 47 C40.3 53 39.2 58.9 38 65 C42.9 65.2 42.9 65.2 68 66 C68 62 68 58.1 68 54 C68.3 51.7 68.6 49.4 69 47.1 C69.7 43.2 70 40 70 36 C67.8 33.4 67.8 33.4 64.8 30.6 C60.6 26.6 57.1 22.9 54 18 C56.7 12.3 59.1 9.5 65 7 C67 7 69 7 71 7 C73.3 10.6 75.6 14.3 78 18 C79.3 16.4 80.6 14.7 82 13 C86.2 13.8 90.2 14.9 94.3 16.1 C95.6 16.4 96.8 16.8 98.1 17.2 C99.1 17.4 100 17.7 101 18 C101.3 14.7 101.7 11.4 102 8 C103.3 8 104.6 8 106 8 C106 11.3 106 14.6 106 18 C107.2 18.1 108.4 18.3 109.6 18.4 C111.1 18.6 112.7 18.8 114.2 18.9 C115.8 19.1 117.3 19.3 118.9 19.5 C123 20 123 20 127 21 C129.3 21 131.7 21 134 21 C134.7 21 135.3 21 136 21 C137 20.3 138 19.7 139 19 C142 18.6 145 18.3 148 18 C147.7 14.4 147.3 10.7 147 7 C148.7 7 150.3 7 152 7 C151.7 10.3 151.3 13.6 151 17 C151.9 16.6 152.8 16.3 153.7 15.9 C157.2 14.9 158.6 14.8 162 16 C164.2 19.5 165.5 23.2 167 27 C171.9 25.7 176.9 24.4 182 23 C183.8 26.6 183.1 30.9 183.1 34.8 C183.1 35.3 183.1 35.3 183.1 37.8 C183.1 40.9 183.1 44 183.1 47.1 C183.1 49.2 183.1 51.3 183 53.5 C183 58.6 183 63.8 183 69 C190.6 69 198.2 69 206 69 C205.9 68.1 205.9 68.1 205.2 63.8 C204.6 56.6 206.4 51.2 210 45 C212.8 41.7 212.8 41.7 215 40 C215.3 40.2 215.3 40.2 216.9 41.2 C227.1 47 237.5 49.9 249 52 C249 53 249 54 249 55 C249.7 55 250.3 55 251 55 C251.3 54 251.7 53 252 52 C257.8 51.9 257.8 51.9 260 53 C273.1 51.8 286.5 48 299 44 C299 44.7 299 45.3 299 46 C299.7 46 300.3 46 301 46 C301 45 301 44 301 43 C301.5 42.8 301.5 42.8 304 42 C304.3 42.8 304.6 43.5 304.9 44.3 C307.7 51.3 310.9 57.7 315 64 C316.6 61.4 318.3 58.7 320 56 C320.3 56 320.7 56 321 56 C321 59.6 321 63.3 321 67 C377 65.5 377 65.5 403 61 C403 58 403 55.1 403 52 C409.1 51.8 414.4 52.5 420.3 53.9 C421.9 54.2 423.4 54.6 425.1 54.9 C429 56 429 56 432 58 C430 62 430 62 427.1 63.1 C320.3 86.3 200.2 78 -9.8 68.1 C-11.2 67.9 -12.6 67.8 -14 67.6 C-38.8 64.8 -38.8 64.8 -46 60 C-45.7 59 -45.3 58 -45 57 C-36 53.6 -26.5 52.5 -17 51 C-16.9 46.3 -16.9 41.5 -16.8 36.8 C-16.8 35.5 -16.8 34.1 -16.7 32.7 C-16.7 31.5 -16.7 30.2 -16.7 28.8 C-16.7 27.6 -16.7 26.5 -16.7 25.2 C-17 21.7 -18 19.9 -20 17 C-20.1 14.6 -20.1 14.6 -19 12 C-14.3 7 -9.8 4.9 -3.3 2.9 C-1 2 -1 2 0 0 Z " fill="#D4E3D6" transform="translate(106,408)"/>
<path d="M0 0 C0 3.4 -0.8 4.9 -2.3 7.9 C-12 28.6 -9.3 50.6 -6.3 72.4 C-6 75 -6 75 -6 80 C-3.4 78 -0.7 76 2 74 C2.7 74.3 3.3 74.7 4 75 C3.3 75.5 2.6 76.1 1.8 76.6 C-5.7 82.7 -5.7 82.7 -6.5 86.6 C-6.4 89.1 -6.2 91.5 -6 94 C-7.3 96.3 -8.6 98.7 -10 101 C-10 104 -10 107 -10 110 C-11.4 113.2 -11.4 113.2 -13 116 C-13.7 118.9 -13.7 118.9 -14 121 C-13.3 121 -12.7 121 -12 121 C-12 120.3 -12 119.7 -12 119 C-4.8 119.6 -1.1 121.9 3.9 127 C4.6 128 5.3 129 6 130 C5.7 131.3 5.3 132.6 5 134 C8 132.5 9.7 131.5 11.4 128.6 C13 126 13 126 16 124.2 C20 121.3 20.5 118.7 22 114 C23.6 110.6 25.3 107.3 27 104 C28.6 104.7 30.3 105.3 32 106 C35.6 103.2 38.6 100.4 41.6 96.9 C45.9 91.8 49 88.6 56 88 C55 92 55 92 53 96 C54 98.8 54 98.8 55.6 101.9 C56.2 103 56.7 104 57.2 105 C61.6 112.3 61.6 112.3 65 114 C65.4 112.6 65.7 111.1 66.1 109.6 C67.9 103.5 71.1 99 75 94 C75.3 94 75.7 94 76 94 C77.1 103.6 77.1 103.6 76 107 C75.9 110.6 75.9 114.2 75.9 117.8 C75.9 118.9 75.9 119.9 75.9 121 C75.9 124.4 75.9 127.8 75.9 131.2 C75.9 133.5 75.9 135.8 76 138.1 C76 143.7 76 149.4 76 155 C71.8 156.6 67.9 157.4 63.4 157.8 C62.2 157.9 60.9 158.1 59.6 158.2 C59 158.3 59 158.3 55.6 158.6 C54.3 158.7 52.9 158.8 51.5 159 C47.7 159.3 43.8 159.7 40 160 C38.5 160.1 37 160.3 35.5 160.4 C21.7 161.5 7.8 161.1 -6 161 C-6.3 157.7 -6.7 154.4 -7 151 C-8.3 154.3 -9.6 157.6 -11 161 C-13.8 157.3 -15.9 153.7 -18.1 149.6 C-18.8 148.3 -19.4 147 -20.2 145.6 C-21.6 142.8 -22.9 140 -24 137 C-24.7 137 -25.3 137 -26 137 C-26 138 -26 139 -26 140 C-27 139.7 -28 139.3 -29 139 C-32.1 139.9 -35 140.8 -38.1 141.8 C-47.7 144.9 -56.9 146.3 -67 147 C-67.3 148 -67.7 149 -68 150 C-68.3 149 -68.7 148 -69 147 C-71 147 -73 147 -75 147 C-75.3 147.7 -75.7 148.3 -76 149 C-76.7 149 -77.3 149 -78 149 C-78 148 -78 147 -78 146 C-79.3 145.9 -80.6 145.9 -82 145.8 C-93 144.7 -103.6 140.9 -113 135 C-119.3 144.5 -121.4 151.6 -121 163 C-128.6 163 -136.2 163 -144 163 C-144.3 147.8 -144.7 132.6 -145 117 C-144.3 116.8 -144.3 116.8 -141 116 C-141.2 113.9 -141.2 113.9 -142 103 C-142.7 102.7 -143.3 102.3 -144 102 C-144.2 99.8 -144.3 97.6 -144.5 95.4 C-144.6 94.2 -144.7 93 -144.8 91.7 C-144.9 89.3 -145 86.8 -145 84.3 C-145 80.6 -145.8 77.1 -146.5 73.4 C-147.6 66.3 -147.7 59.1 -148 52 C-143.4 51 -139.7 51.2 -135 52 C-135.3 59.3 -135.7 66.4 -137.5 73.6 C-139.7 82.1 -141.4 90.7 -138 99 C-137.4 103.6 -137 108.2 -136.6 112.8 C-136 117 -136 117 -134 121 C-133.3 121.3 -132.7 121.7 -132 122 C-131.3 124.3 -130.7 126.7 -130 129 C-129.3 129.3 -128.7 129.7 -128 130 C-128 129.3 -128 128.6 -128 127.8 C-126.4 123.3 -123.1 122.1 -119 120 C-118 120 -117 120 -116 120 C-116.2 119.7 -116.2 119.7 -117 118 C-117 116 -117 114 -117 112 C-118.5 112.3 -118.5 112.3 -126 114 C-125.7 113.3 -125.3 112.7 -125 112 C-122.7 111.3 -120.4 110.6 -118 110 C-117.7 107.4 -117.3 104.7 -117 102 C-117.7 102.2 -118.4 102.4 -119.1 102.7 C-120 102.9 -120.9 103.2 -121.8 103.5 C-122.7 103.8 -123.6 104.1 -124.5 104.3 C-127 105 -127 105 -130 105 C-125.7 100.7 -122 100.4 -116 100 C-115.7 97 -115.3 94.1 -115 91 C-122.5 90.6 -128.8 92 -136 94 C-134 90 -134 90 -130 87 C-127.4 86.7 -127.4 86.7 -124.6 86.8 C-124.1 86.8 -124.1 86.8 -121.8 86.8 C-119.1 87 -116.6 87.4 -114 88 C-114.3 86.7 -114.7 85.4 -115 84 C-120.4 80.8 -126 78.9 -132 77 C-131.3 76 -130.7 75 -130 74 C-125.1 74 -120.1 74 -115 74 C-111.2 66.5 -115.2 56.2 -117.2 48.8 C-118 45 -118 45 -117 41 C-116.3 42.6 -115.7 44.3 -115 46 C-115.5 37.9 -116.3 29.9 -117.6 21.9 C-118.1 18.6 -118.2 15.3 -118 12 C-117.7 12 -117.3 12 -117 12 C-105.6 75.7 -105.6 75.7 -113.1 101.5 C-114 105.1 -114.2 108.3 -114 112 C-107.2 108.6 -103.5 100.5 -101.1 93.3 C-100.7 91.6 -100.3 89.8 -100 88 C-99 87 -99 87 -96.6 86.9 C-95.6 86.9 -94.5 87 -93.5 87 C-92.3 87 -91.1 87 -89.9 87 C-88.6 87.1 -87.3 87.1 -86 87.1 C-85.3 87.1 -85.3 87.1 -82 87.2 C-77.8 87.3 -73.6 87.4 -69.4 87.4 C-66.6 87.5 -63.8 87.5 -60.9 87.6 C-53.9 87.7 -47 87.9 -40 88 C-39.6 89.1 -39.2 90.1 -38.7 91.2 C-38.2 92.6 -37.6 94 -37.1 95.4 C-36.5 96.7 -36 98.1 -35.4 99.5 C-34.7 101.4 -33.9 103.2 -33 105 C-25.3 101.2 -22 93.8 -19.2 85.9 C-14.8 71.2 -13.3 56.3 -12 41 C-9.2 9.2 -9.2 9.2 0 0 Z " fill="#4E7C7F" transform="translate(433,314)"/>
<path d="M0 0 C4.6 1.2 5.5 2.1 8 6 C8 7.3 8 8.6 8 10 C9.3 10.3 10.6 10.7 12 11 C14.6 14.9 13.8 16.6 13 21 C14.6 21.2 16.1 21.5 17.8 21.8 C22 22.6 24.5 23.3 27 27 C27.7 28.7 28.4 30.3 29 32 C29.3 32.5 29.3 32.5 31 34.9 C33.2 38.2 33.9 41.2 35 45 C35.7 46.2 36.4 47.3 37.1 48.5 C39.2 52.4 39.5 54.6 39 59 C38.3 60 37.7 61 37 62 C36.3 61.7 35.7 61.3 35 61 C35.7 59.7 36.3 58.4 37 57 C37 56 37 55 37 54 C34.3 58.5 33.4 61.7 34 67 C34.5 67.8 35 68.6 35.5 69.4 C37.7 73.1 37.4 75.8 37 80 C36 82.4 35 84.7 34 87 C34 88.7 34 90.3 34 92 C33.3 91.7 32.7 91.3 32 91 C31.8 86.7 32 85 34 81 C34.5 73.7 34.5 73.7 32 70 C29.5 73.2 28.9 74.5 29.4 78.6 C29.6 79.7 29.8 80.9 30 82 C29.3 83 28.7 84 28 85 C27 85 26 85 25 85 C24.7 84 24.3 83 24 82 C23.1 83.3 22.1 84.6 21.1 85.9 C19.5 88.1 17.9 90.1 16 92 C15.8 95.4 15.8 95.4 15.8 99.4 C15.8 100.1 15.8 100.1 15.8 103.5 C16 107 16 107 17 110 C17.5 109.9 17.5 109.9 19.9 109.2 C24.8 109 27.1 110.3 31.4 112.6 C33.9 114 36.5 115 39.2 115.9 C45.7 118.5 50.4 122.1 53.4 128.6 C54.6 131.8 55.4 134.6 56 138 C55.7 138.1 55.7 138.1 53.9 138.8 C46.4 142.1 46.4 142.1 44.1 147 C43.9 147.7 43.9 147.7 43 151 C41.7 152.7 40.4 154.4 39 156 C38.8 156.8 38.6 157.6 38.3 158.4 C36.4 162.2 33.7 162.9 29.8 164.7 C21.5 169 17.1 173.1 13.9 182 C11.3 191.2 9.6 200.4 8.2 209.9 C8 211.3 7.8 212.8 7.6 214.3 C7 217.9 6.5 221.4 6 225 C1.4 225 -3.2 225 -8 225 C-8.2 223.1 -8.5 221.1 -8.7 219.1 C-9.1 216.5 -9.4 213.9 -9.8 211.3 C-9.9 210 -10.1 208.8 -10.2 207.5 C-13.3 184.5 -13.3 184.5 -20 177 C-23.2 174.9 -23.2 174.9 -26.8 173.1 C-27.9 172.5 -29.1 171.9 -30.3 171.3 C-30.7 171.1 -30.7 171.1 -33 170 C-32.3 169.7 -32.3 169.7 -29 168 C-25.4 165.4 -24 164.1 -22 160 C-21.1 152.2 -22.5 144.9 -24.2 137.4 C-25.8 128.7 -26.3 119.8 -27 111 C-23 109 -23 109 -18 109 C-14 106 -14 106 -13 103 C-12.9 100.1 -12.9 97.2 -12.9 94.3 C-12.9 92.8 -13 91.2 -13 89.6 C-13 88.4 -13 87.2 -13 86 C-13.5 85.7 -13.5 85.7 -16 84 C-16.7 85 -17.3 86 -18 87 C-19.3 86.7 -20.6 86.3 -22 86 C-23 82 -23 82 -22 78 C-23 78 -24 78 -25 78 C-25 81.3 -25 84.6 -25 88 C-25.7 87.7 -26.3 87.3 -27 87 C-27.1 78.2 -27.1 78.2 -26 76 C-27.3 75.3 -28.6 74.7 -30 74 C-31 73 -31 73 -31.4 68.8 C-32 64 -32 64 -33.6 60.9 C-35.3 57.3 -35.4 54.9 -35 51 C-34.3 49.7 -33.7 48.4 -33 47 C-32.6 45.4 -32.3 43.7 -32.1 42.1 C-31.3 38.1 -30.4 35.3 -28 32 C-30.4 33.1 -30.4 33.1 -33 35 C-34.3 38.7 -34.3 38.7 -35 42 C-35.3 42 -35.7 42 -36 42 C-36.3 38.4 -36.3 36.5 -34.5 33.3 C-31.3 30.4 -28.1 29.3 -24 28 C-24.5 27.2 -25 26.4 -25.6 25.6 C-27.4 21 -26.8 17.8 -26 13 C-29 16 -29 16 -29.2 19.7 C-29.1 20.8 -29.1 21.9 -29 23 C-29.7 22.7 -30.3 22.3 -31 22 C-31.3 18.1 -31.4 15.7 -29.5 12.2 C-25.6 8.8 -21.2 7 -16 7 C-15.7 6 -15.3 5 -15 4 C-14.3 4.7 -13.7 5.3 -13 6 C-11.7 4.3 -10.4 2.7 -9 1 C-8.3 1.3 -7.7 1.7 -7 2 C-6.7 1.7 -6.3 1.3 -6 1 C1.6 2.8 1.6 2.8 5 5 C4.2 4.2 4.2 4.2 0 0 Z " fill="#D2A37A" transform="translate(293,141)"/>
<path d="M0 0 C4.9 3.2 6.7 6.7 9 12 C9.4 12.8 9.8 13.7 10.1 14.5 C13.2 21.8 13.4 28.2 13 36 C13.7 34.4 14.3 32.7 15 31 C16 31.3 17 31.7 18 32 C18.3 36.2 18.2 38.6 16.2 42.4 C14 45 14 45 10 46 C10 47.6 10 49.3 10 51 C9 51.3 8 51.7 7 52 C5 54.3 3 56.7 1 59 C-0.3 60 -1.6 61 -3 62 C-3.8 65.2 -3.8 65.2 -4 68 C-3.3 68.2 -2.6 68.3 -1.9 68.5 C1 70 1 70 3.5 73.9 C7 78.9 10.9 79.2 16.6 80.2 C23.7 81.8 30 85.1 34.4 90.9 C42.3 104.6 42.3 122.2 43.7 137.5 C44.1 142.4 44.6 147.2 45.1 152 C45.3 153.4 45.4 154.9 45.6 156.4 C46 160 46 160 46.5 162.4 C47 165 47.1 167.4 47.1 170.1 C47.1 170.5 47.1 170.5 47.1 172.9 C47.1 173.4 47.1 173.4 47.1 175.8 C47.1 176.8 47.1 177.8 47 178.8 C47 181.2 47 183.6 47 186 C48 186.3 49 186.7 50 187 C50.2 189.1 50.2 189.1 51 200 C46.6 201.5 42.1 202.8 37.6 204.1 C37 204.3 37 204.3 33.9 205.2 C32.9 205.5 32 205.7 31 206 C29 202 27 198.1 25 194 C21.7 194.3 18.4 194.7 15 195 C15 192 15 189.1 15 186 C13.7 185.7 12.4 185.3 11 185 C11 185.7 11 186.3 11 187 C9 187 7 187 5 187 C7.4 184.6 9.9 183.5 13 182 C12.3 182.2 11.5 182.4 10.7 182.7 C9.7 182.9 8.8 183.2 7.8 183.5 C7.3 183.6 7.3 183.6 4.8 184.3 C2 185 2 185 -2 185 C-2 183.7 -2 182.5 -2 181.1 C-2 176.3 -2 171.5 -1.9 166.7 C-1.9 164.6 -1.9 162.6 -1.9 160.5 C-1.8 127.6 -1.8 127.6 -4.4 114.3 C-4.6 113.1 -4.8 111.8 -5.1 110.5 C-6.6 104.7 -8.8 101.1 -13 97 C-15.1 93.7 -17 90.4 -18.9 87.1 C-21 84 -23 82.3 -26 80 C-28.9 77.3 -28.9 77.3 -31 74 C-31.1 69.9 -31.1 69.9 -30.3 65.4 C-28.3 52.7 -28.3 52.7 -32 47 C-32.3 45.7 -32.7 44.4 -33 43 C-33.7 45 -34.3 47 -35 49 C-36 49 -37 49 -38 49 C-37.7 48.3 -37.3 47.7 -37 47 C-36 43 -36 43 -37 41 C-38.3 40.7 -39.6 40.3 -41 40 C-43.1 36.4 -43.4 33.1 -43 29 C-42.7 28.5 -42.7 28.5 -41 26 C-38.6 26.3 -38.6 26.3 -36 27 C-35.3 28 -34.7 29 -34 30 C-33.5 28.7 -33 27.5 -32.4 26.2 C-30 22 -30 22 -26.9 20 C-22 18.8 -18 18.8 -13 19 C-14.3 17.7 -15.6 16.4 -17 15 C-14.7 12.7 -12.4 10.4 -10 8 C-9.8 8.3 -9.8 8.3 -9 10 C-10 11.7 -11 13.3 -12 15 C-6.2 10.6 -3.3 6.5 0 0 Z " fill="#4D7D80" transform="translate(242,230)"/>
<path d="M0 0 C1.2 1.8 1.2 1.8 7 11 C8.3 9.4 9.6 7.7 11 6 C15.2 6.8 19.2 7.9 23.3 9.1 C23.9 9.2 23.9 9.2 27.1 10.2 C28.1 10.4 29 10.7 30 11 C30.3 7.7 30.7 4.4 31 1 C32.3 1 33.6 1 35 1 C35 4.3 35 7.6 35 11 C36.2 11.1 37.4 11.3 38.6 11.4 C40.1 11.6 41.7 11.8 43.2 11.9 C44.8 12.1 46.3 12.3 47.9 12.5 C52 13 52 13 56 14 C58.3 14 60.7 14 63 14 C63.7 14 64.3 14 65 14 C66 13.3 67 12.7 68 12 C71 11.6 74 11.3 77 11 C76.8 9.2 76.8 9.2 76 0 C77.7 0 79.3 0 81 0 C80.7 3.3 80.3 6.6 80 10 C80.9 9.6 81.8 9.3 82.7 8.9 C86.2 7.9 87.6 7.8 91 9 C93.2 12.5 94.5 16.2 96 20 C100.9 18.7 105.9 17.4 111 16 C112.8 19.6 112.1 23.9 112.1 27.8 C112.1 28.3 112.1 28.3 112.1 30.8 C112.1 33.9 112.1 37 112.1 40.1 C112.1 42.2 112.1 44.3 112 46.5 C112 51.6 112 56.8 112 62 C100.4 62.1 88.8 62.1 77.2 62.1 C76.3 62.1 75.5 62.1 74.6 62.1 C41.7 62.2 8.9 61.4 -24 60 C-24 59.7 -24 59.3 -24 59 C-17.1 59 -10.1 59 -3 59 C-3 57.3 -3.1 55.6 -3.1 53.8 C-3.1 48 -2.5 42.6 -1.4 36.9 C-1 34 -1 34 -1 29 C-3.2 26.4 -3.2 26.4 -6.2 23.6 C-10.4 19.6 -13.9 15.9 -17 11 C-13.1 2.8 -9.2 0 0 0 Z " fill="#EABF9B" transform="translate(177,415)"/>
<path d="M0 0 C3.6 1.5 7.2 3.3 9 7 C9.7 7.1 9.7 7.1 13.2 7.3 C18 8 18 8 22 11 C21.7 11.7 21.3 12.3 21 13 C21.2 13.2 21.2 13.2 22 14 C24.7 17.6 25.4 18.8 26 23 C26.7 23.2 26.7 23.2 30 24 C29.7 24.7 29.3 25.4 29 26.2 C28 29 28 29 28 34 C27.7 34.8 27.3 35.6 27 36.4 C25.8 39.6 25.9 42 26.1 45.4 C26.1 50.4 26.1 53.9 23 58 C22.3 58.3 22.3 58.3 19 60 C19 61.7 19 63.3 19 65 C18.3 66 17.7 67 17 68 C16.9 71 16.9 74 17 77 C17.5 77.2 17.5 77.2 20 78 C19 78 18 78 17 78 C17.3 79.3 17.6 80.6 17.9 81.9 C18.4 86.3 17.6 88.3 14.9 91.8 C12.8 94.3 10.7 96.3 8.1 98.4 C4.2 101.7 1.7 105.5 -1.2 109.8 C-1.5 110.1 -1.5 110.1 -3 112 C-4 112 -5 112 -6 112 C-13.1 104.2 -14.1 97.4 -14 87 C-13 87.3 -12 87.7 -11 88 C-4.7 88.5 -1.1 87.8 4 84 C7.3 80.3 10.4 76.8 12 72 C11.4 72.6 10.8 73.3 10.2 73.9 C9.4 74.7 8.6 75.5 7.8 76.4 C7 77.2 6.3 78 5.5 78.8 C1.6 82.2 -1.2 82.9 -6.3 83.4 C-13.6 82.8 -17.4 79.6 -22.4 74.5 C-24.7 71.4 -25.8 69.8 -26 66 C-27.3 65.7 -28.6 65.3 -30 65 C-33.6 62.1 -35 59.5 -36 55 C-36.1 52 -36.1 49 -36 46 C-37 45.7 -38 45.3 -39 45 C-39 43.7 -39 42.4 -39 41 C-40.3 40.7 -41.6 40.3 -43 40 C-44.1 37.6 -44.1 37.6 -45 35 C-45.7 34.3 -46.3 33.7 -47 33 C-46.7 32 -46.3 31 -46 30 C-45 30 -44 30 -43 30 C-43 26.3 -43.2 23.5 -44 20 C-43 19 -42 18 -41 17 C-41 18 -41 19 -41 20 C-40 18.7 -39 17.4 -38 16 C-38.7 15.7 -39.3 15.3 -40 15 C-38 14 -36 13 -34 12 C-34.3 10.3 -34.7 8.7 -35 7 C-32.3 7 -29.7 7 -27 7 C-26.3 6.4 -25.5 5.8 -24.8 5.1 C-21.1 2.3 -17.5 1.9 -13 1 C-9 -1 -4.3 -0.5 0 0 Z " fill="#DA9956" transform="translate(446,149)"/>
<path d="M0 0 C2.4 0.9 2.4 0.9 4.4 4.9 C6.6 6.3 6.6 6.3 9.2 7.6 C10.1 8 11 8.4 11.9 8.8 C18.6 11.6 26.9 12.2 33.9 10.1 C38 8.2 39.3 7 41.4 2.9 C41.4 1.9 41.4 0.9 41.4 -0.1 C46.3 0.5 50 2.7 54.4 4.9 C56.1 5.5 57.7 6.1 59.4 6.8 C66 9.4 70.7 12.9 73.8 19.4 C74.9 22.7 75.8 25.5 76.4 28.9 C75.7 29.1 75 29.4 74.3 29.7 C66.8 32.9 66.8 32.9 64.5 37.9 C64.3 38.5 64.3 38.5 63.4 41.9 C62.1 43.6 60.7 45.2 59.4 46.9 C59.2 47.7 58.9 48.5 58.7 49.3 C56.7 53.1 54 53.8 50.2 55.6 C41.8 59.8 37.5 64 34.3 72.9 C31.7 82.1 30 91.3 28.6 100.8 C28.5 101.5 28.5 101.5 28 105.2 C27.4 108.7 26.9 112.3 26.4 115.9 C21.8 115.9 17.1 115.9 12.4 115.9 C12.1 113.9 11.9 112 11.6 110 C11.3 107.4 11 104.8 10.6 102.2 C10.5 101.6 10.5 101.6 10.1 98.3 C7.1 75.4 7.1 75.4 0.4 67.9 C-2.9 65.8 -2.9 65.8 -6.4 64 C-7.5 63.4 -8.7 62.8 -9.9 62.2 C-10.8 61.8 -11.7 61.3 -12.6 60.9 C-11.3 60.2 -10 59.6 -8.6 58.9 C-5 56.3 -3.7 55 -1.6 50.9 C-0.7 43.1 -2.2 35.8 -3.8 28.3 C-5.4 19.5 -5.9 10.7 -6.6 1.9 C-2.6 -0.1 -2.6 -0.1 0 0 Z " fill="#E8A257" transform="translate(272.625,250.125)"/>
<path d="M0 0 C2.6 1 2.6 1 6.6 2.1 C9.6 3 9.6 3 12.6 6 C12.7 7 12.9 7.9 13 8.9 C13.6 12 13.6 12 16.1 14.2 C20.6 19.2 19.9 25.6 19.6 32 C18.2 36.4 18.2 36.4 16.6 40 C16.6 41.3 16.7 42.6 16.7 43.9 C16.6 49.1 15.3 53.5 12.6 58 C11.3 58.7 10 59.3 8.6 60 C8.6 60.5 8.6 60.5 8.4 63 C7.3 68.7 4.8 73.2 0.3 76.9 C-1.4 79 -1.4 79 -1.3 83.3 C-1.4 88.9 -3.1 91.7 -6.4 96 C-7.1 97 -7.8 98 -8.5 99 C-10.4 101.7 -12.4 104.3 -14.4 107 C-17.4 104 -17.4 104 -19.4 100.4 C-22.3 95.6 -26.3 92.6 -30.7 89.2 C-34.9 85.8 -38.7 82.4 -40.3 77.1 C-40.3 76.7 -40.3 76.7 -40.4 75 C-39.4 75 -38.4 75 -37.4 75 C-37.4 68.4 -37.4 61.8 -37.4 55 C-39 54.7 -40.7 54.4 -42.4 54 C-46.3 48.8 -46.6 45.3 -46.4 39 C-46 38.4 -45.7 37.7 -45.4 37 C-45.6 34.2 -46 31.5 -46.3 28.7 C-46.4 26 -46.4 26 -44.4 22 C-44.1 20.5 -43.9 19 -43.6 17.5 C-42.2 12.2 -41 11.6 -36.4 9 C-36.1 8.6 -36.1 8.6 -34.9 6.4 C-32.7 2.9 -30.3 2.4 -26.4 1 C-26 0.8 -26 0.8 -24 -0.1 C-15.1 -4 -8.9 -3.5 0 0 Z " fill="#CEA47D" transform="translate(174.37890625,148.98828125)"/>
<path d="M0 0 C1.2 -0 2.3 -0 3.6 -0 C6.6 0.2 6.6 0.2 8.6 2.2 C10.9 2.9 13.2 3.6 15.6 4.2 C15.7 4.8 15.7 4.8 16.6 8.2 C18.2 8.2 19.9 8.2 21.6 8.2 C21.7 9.2 21.7 9.2 22.6 14.2 C23.9 14.5 25.2 14.8 26.6 15.2 C28.6 22.5 28.5 27.1 26.4 34.4 C25.4 37.6 24.9 40.8 24.6 44.2 C25.6 44.5 26.5 44.8 27.6 45.2 C28.6 50.5 28.5 54.1 26.6 59.2 C25.6 60.2 24.6 61.2 23.6 62.2 C21.9 62.2 20.3 62.2 18.6 62.2 C18.6 63.8 18.6 65.5 18.6 67.2 C17.9 68.5 17.2 69.8 16.6 71.2 C16.4 74.2 16.3 77.2 16.3 80.2 C16.3 81.8 16.3 83.4 16.3 85 C16.6 89.2 16.6 89.2 18.6 93.2 C15.7 95.5 12.8 97.7 9.9 100 C9.1 100.6 8.2 101.3 7.4 101.9 C6.6 102.6 5.8 103.2 5 103.8 C4.6 104.1 4.6 104.1 2.8 105.6 C0.5 107.3 -1.9 108.7 -4.4 110.2 C-4.9 109.8 -4.9 109.8 -7.1 108.1 C-8.3 107.2 -9.5 106.3 -10.7 105.4 C-11.8 104.5 -13 103.6 -14.2 102.7 C-16.6 100.8 -19 99 -21.4 97.2 C-21.4 96.2 -21.4 95.2 -21.4 94.2 C-20.8 94.2 -20.1 94.2 -19.4 94.2 C-19.4 89.6 -19.4 84.9 -19.4 80.2 C-20.8 79.9 -22.1 79.5 -23.4 79.2 C-22.1 79.2 -20.8 79.2 -19.4 79.2 C-19.4 77.2 -19.4 75.2 -19.4 73.2 C-20.1 73.2 -20.8 73.2 -21.4 73.2 C-23.8 69 -24.4 67.2 -24.4 62.2 C-26.1 62.2 -27.7 62.2 -29.4 62.2 C-32.9 57 -34.1 53.5 -33.4 47.2 C-32.8 46.2 -32.1 45.2 -31.4 44.2 C-30.8 44.2 -30.1 44.2 -29.4 44.2 C-29.7 42.3 -30.1 40.4 -30.4 38.5 C-30.5 37.4 -30.7 36.4 -30.9 35.3 C-31.2 33.4 -31.6 31.4 -32 29.5 C-33.2 23.4 -32.5 18.7 -29.4 13.2 C-28.1 12.9 -26.8 12.5 -25.4 12.2 C-25.3 11.4 -25.1 10.6 -25 9.8 C-24.4 7.2 -24.4 7.2 -23.4 6.2 C-21.8 6.2 -20.1 6.2 -18.4 6.2 C-17.8 4.9 -17.1 3.5 -16.4 2.2 C-16.1 1.9 -15.8 1.5 -15.4 1.2 C-12.8 1.2 -10.1 1.2 -7.4 1.2 C-5.6 -0.7 -2.5 0 0 0 Z " fill="#8C5E42" transform="translate(373.4375,198.8125)"/>
<path d="M0 0 C3.1 1.6 4.7 2.7 7 5 C8.1 5.1 9.1 5.2 10.2 5.2 C15.6 6.3 18.3 8.7 21.6 13.2 C28.1 23.3 29.4 34 30.5 45.8 C31.2 53.4 32 61 33.7 68.5 C35.3 76 36.7 83.4 33.2 90.6 C29.8 94.3 27 96.4 22 97 C13.3 96.3 13.3 96.3 9.9 92.9 C8.8 91.4 7.6 89.7 6.6 88.1 C5 86 5 86 1 84 C0.7 81.3 0.7 81.3 1 78 C2.8 75.8 2.8 75.8 5.2 73.9 C13.2 67.4 13.2 67.4 15 62 C15.8 61.5 16.6 61.1 17.4 60.6 C20 59 20 59 22 55 C22.1 52.7 22.1 50.3 22 48 C21.3 47.7 20.7 47.3 20 47 C19.7 49.3 19.3 51.6 19 54 C18.3 53.3 17.7 52.7 17 52 C17 50.1 17.1 48.2 17.2 46.4 C17.4 35.4 13.4 25.1 6 17 C4.3 19.3 2.6 21.6 1.1 23.9 C-1 27 -3.3 29.4 -6 32 C-6.7 31.7 -7.3 31.3 -8 31 C-7 29 -6 27 -5 25 C-7 27.3 -9 29.6 -11 32 C-9.7 33.3 -8.4 34.6 -7 36 C-7.7 36 -8.4 35.9 -9.2 35.9 C-20 35.6 -20 35.6 -25 39 C-26.5 42 -27.2 44.7 -28 48 C-28.6 47.2 -29.2 46.4 -29.8 45.5 C-30.5 44.7 -31.2 43.9 -32 43 C-33.3 43 -34.6 43 -36 43 C-37.8 46.5 -36.5 50.2 -36 54 C-35.7 54.7 -35.3 55.3 -35 56 C-33.7 56 -32.4 56 -31 56 C-30.7 58.3 -30.3 60.6 -30 63 C-30.5 63.3 -30.5 63.3 -33 65 C-32.5 64.8 -32.5 64.8 -30 64 C-29.7 62 -29.3 60 -29 58 C-25.6 59.7 -25.2 63.5 -24 67 C-23.8 67.2 -23.8 67.2 -23 68 C-23.1 70.2 -23.2 72.4 -23.4 74.6 C-23.5 75.8 -23.6 77 -23.7 78.2 C-23.8 79.1 -23.9 80 -24 81 C-26.3 82 -28.6 83 -31 84 C-31.3 88.7 -30.8 91.2 -28 95 C-27.3 95.3 -26.7 95.7 -26 96 C-26 96.7 -26 97.3 -26 98 C-34.6 98.7 -43.4 96.9 -50.1 91.2 C-54.5 86.2 -55.3 82.3 -55.3 75.7 C-54.8 71.3 -53.1 67.4 -51.4 63.4 C-48.1 55.5 -45.8 47.7 -43.9 39.4 C-40.7 25.9 -36.2 13.5 -24.4 5.1 C-16.2 0.1 -9.6 -0.8 0 0 Z " fill="#39312D" transform="translate(237,214)"/>
<path d="M0 0 C-1 4 -1 4 -3 8 C-2 10.8 -2 10.8 -0.4 13.9 C0.2 15 0.7 16 1.2 17 C5.6 24.3 5.6 24.3 9 26 C9.4 24.6 9.7 23.1 10.1 21.6 C11.9 15.5 15.1 11 19 6 C19.3 6 19.7 6 20 6 C21.1 15.6 21.1 15.6 20 19 C19.9 22.6 19.9 26.2 19.9 29.8 C19.9 30.9 19.9 31.9 19.9 33 C19.9 36.4 19.9 39.8 19.9 43.2 C19.9 45.5 19.9 47.8 20 50.1 C20 55.7 20 61.4 20 67 C15.8 68.6 11.9 69.4 7.4 69.8 C6.2 69.9 4.9 70.1 3.6 70.2 C3 70.3 3 70.3 -0.4 70.6 C-1.7 70.7 -3.1 70.8 -4.5 71 C-8.3 71.3 -12.2 71.7 -16 72 C-16.7 72.1 -16.7 72.1 -20.5 72.4 C-34.3 73.5 -48.2 73.1 -62 73 C-62.9 58.2 -62.9 58.2 -57.3 51.8 C-56.4 50.7 -55.6 49.6 -54.7 48.5 C-52.1 46.1 -50.3 45.2 -47 44 C-45.7 42 -44.3 40 -43 38 C-42.5 37.7 -42.5 37.7 -39.9 36.1 C-36 33.3 -35.5 30.6 -34 26 C-32.4 22.6 -30.7 19.3 -29 16 C-28.2 16.3 -28.2 16.3 -24 18 C-20.4 15.2 -17.4 12.4 -14.4 8.9 C-10.3 4.1 -6.7 0 0 0 Z " fill="#394351" transform="translate(489,402)"/>
<path d="M0 0 C1.3 0.7 2.6 1.3 4 2 C4 2.7 4 3.3 4 4 C4.7 3.3 5.3 2.7 6 2 C7.4 2.6 8.8 3.1 10.2 3.7 C17 6.2 24 7.7 31 9.3 C37.9 10.9 37.9 10.9 39 12 C39.1 15.2 39.1 18.4 39.1 21.6 C39 24.7 39 27.8 39 31 C39.3 24.7 39.7 18.5 40 12 C40.7 12 41.3 12 42 12 C42.2 12.5 42.2 12.5 43.4 14.9 C45 18 45 18 47 20 C47.5 29.8 46 38 42 47 C40.3 52.9 39.2 59 38 65 C41 65 43.9 65 47 65 C47 65.3 47 65.7 47 66 C26.5 66.7 5.3 65.4 -15 62 C-17.1 59.9 -16.2 55.2 -16.2 52.5 C-16.2 50.8 -16.3 49 -16.3 47.3 C-16.3 44.5 -16.4 41.8 -16.4 39 C-16.4 36.3 -16.5 33.7 -16.5 31 C-16.5 29.4 -16.6 27.8 -16.6 26.1 C-17 22.1 -17.7 20.3 -20 17 C-20.1 14.6 -20.1 14.6 -19 12 C-14.3 7 -9.8 4.9 -3.3 2.9 C-1 2 -1 2 0 0 Z " fill="#CDA078" transform="translate(106,408)"/>
<path d="M0 0 C4.9 3.2 6.7 6.7 9 12 C9.4 12.8 9.8 13.7 10.1 14.5 C13.2 21.8 13.4 28.2 13 36 C13.7 34.4 14.3 32.7 15 31 C16 31.3 17 31.7 18 32 C18.3 36.2 18.2 38.6 16.2 42.4 C14 45 14 45 10 46 C10 47.6 10 49.3 10 51 C9 51.3 8 51.7 7 52 C5 54.3 3 56.7 1 59 C-0.3 60 -1.6 61 -3 62 C-3.4 65.6 -3.4 65.6 -3.2 69.7 C-3.2 71.1 -3.2 72.4 -3.1 73.8 C-3.1 74.9 -3 75.9 -3 77 C-2.3 77 -1.7 77 -1 77 C-1.5 83.1 -2.9 87.6 -5.6 93 C-6.2 94.3 -6.8 95.6 -7.5 97 C-7.8 97.5 -7.8 97.5 -9 100 C-9.7 100 -10.3 100 -11 100 C-11.7 98.9 -12.3 97.8 -13 96.6 C-13.9 95.2 -14.8 93.7 -15.7 92.2 C-16.1 91.5 -16.6 90.8 -17 90 C-19.6 85.8 -22.1 82.9 -26 80 C-28.9 77.3 -28.9 77.3 -31 74 C-31.1 69.9 -31.1 69.9 -30.3 65.4 C-28.3 52.7 -28.3 52.7 -32 47 C-32.3 45.7 -32.7 44.4 -33 43 C-33.7 45 -34.3 47 -35 49 C-36 49 -37 49 -38 49 C-37.7 48.3 -37.3 47.7 -37 47 C-36 43 -36 43 -37 41 C-38.3 40.7 -39.6 40.3 -41 40 C-43.1 36.4 -43.4 33.1 -43 29 C-42.7 28.5 -42.7 28.5 -41 26 C-38.6 26.3 -38.6 26.3 -36 27 C-35.3 28 -34.7 29 -34 30 C-33.5 28.7 -33 27.5 -32.4 26.2 C-30 22 -30 22 -26.9 20 C-22 18.8 -18 18.8 -13 19 C-14.3 17.7 -15.6 16.4 -17 15 C-14.7 12.7 -12.4 10.4 -10 8 C-9.8 8.3 -9.8 8.3 -9 10 C-10 11.7 -11 13.3 -12 15 C-6.2 10.6 -3.3 6.5 0 0 Z " fill="#E3B690" transform="translate(242,230)"/>
<path d="M0 0 C4.6 1.2 5.5 2.1 8 6 C8 7.3 8 8.6 8 10 C9.3 10.3 10.6 10.7 12 11 C14.6 14.9 13.8 16.6 13 21 C14.6 21.2 16.1 21.5 17.8 21.8 C22 22.6 24.5 23.3 27 27 C27.7 28.7 28.4 30.3 29 32 C29.3 32.5 29.3 32.5 31 34.9 C33.2 38.2 33.9 41.2 35 45 C35.7 46.2 36.4 47.3 37.1 48.5 C39.2 52.4 39.5 54.6 39 59 C38.3 60 37.7 61 37 62 C36.3 61.7 35.7 61.3 35 61 C35.7 59.7 36.3 58.4 37 57 C37 56 37 55 37 54 C34.3 58.5 33.4 61.7 34 67 C34.5 67.8 35 68.6 35.5 69.4 C37.7 73.1 37.4 75.8 37 80 C36 82.4 35 84.7 34 87 C34 88.7 34 90.3 34 92 C33.3 91.7 32.7 91.3 32 91 C31.8 86.7 32 85 34 81 C34.8 73.9 33 70.6 29 65 C28.5 65.2 28.5 65.2 26 66 C25.7 61.4 25.3 56.8 25 52 C24 51.7 23 51.3 22 51 C20.1 47.4 18.4 43.8 16.7 40.1 C14.2 37 11.9 36.6 8 36 C3.6 36.4 3.6 36.4 0 37 C-0.2 37.7 -0.2 37.7 -1.2 41.2 C-2.5 45.1 -3.8 47.4 -7 50 C-6.7 48 -6.3 46 -6 44 C-6.7 45.1 -7.5 46.1 -8.2 47.2 C-10.4 50.2 -12.5 52.5 -15 55 C-16.8 58.6 -17.3 60.4 -17.6 64.2 C-17.7 65.8 -17.9 67.4 -18 69 C-19 68 -20 67 -21 66 C-21 65.3 -21 64.7 -21 64 C-21.8 64.2 -21.8 64.2 -26 65 C-26.3 69.9 -25.4 72.8 -23 77 C-27.1 76.4 -27.9 76.1 -31 73 C-31.3 70 -31.7 67 -32 64 C-32.5 63 -33 61.9 -33.6 60.9 C-35.3 57.3 -35.4 54.9 -35 51 C-34.3 49.7 -33.7 48.4 -33 47 C-32.6 45.4 -32.3 43.7 -32.1 42.1 C-31.3 38.1 -30.4 35.3 -28 32 C-30.4 33.1 -30.4 33.1 -33 35 C-34.3 38.7 -34.3 38.7 -35 42 C-35.3 42 -35.7 42 -36 42 C-36.3 38.4 -36.3 36.5 -34.5 33.3 C-31.3 30.4 -28.1 29.3 -24 28 C-24.5 27.2 -25 26.4 -25.6 25.6 C-27.4 21 -26.8 17.8 -26 13 C-29 16 -29 16 -29.2 19.7 C-29.1 20.8 -29.1 21.9 -29 23 C-29.7 22.7 -30.3 22.3 -31 22 C-31.3 18.1 -31.4 15.7 -29.5 12.2 C-25.6 8.8 -21.2 7 -16 7 C-15.7 6 -15.3 5 -15 4 C-14.3 4.7 -13.7 5.3 -13 6 C-11.7 4.3 -10.4 2.7 -9 1 C-8.3 1.3 -7.7 1.7 -7 2 C-6.7 1.7 -6.3 1.3 -6 1 C1.6 2.8 1.6 2.8 5 5 C4.2 4.2 4.2 4.2 0 0 Z " fill="#8E5F42" transform="translate(293,141)"/>
<path d="M0 0 C0.4 0.2 0.4 0.2 2.2 1.2 C12.7 6.7 23.3 9.9 35 12 C35 13 35 14 35 15 C35.7 15 36.3 15 37 15 C37.3 14 37.7 13 38 12 C43.8 11.9 43.8 11.9 46 13 C59.1 11.8 72.5 8 85 4 C85 4.7 85 5.3 85 6 C85.7 6 86.3 6 87 6 C87 5 87 4 87 3 C88 2.7 89 2.3 90 2 C90.3 2.8 90.6 3.5 90.9 4.3 C93.7 11.3 96.9 17.7 101 24 C101.8 22.7 101.8 22.7 106 16 C106.3 16 106.7 16 107 16 C107 19.6 107 23.3 107 27 C110.3 27 113.6 27 117 27 C117 27.3 117 27.7 117 28 C79.9 29.4 43 30.2 5.9 30.1 C5 30.1 4 30.1 3.1 30.1 C-8.3 30.1 -19.6 30.1 -31 30 C-31 29.7 -31 29.3 -31 29 C-23.4 29 -15.8 29 -8 29 C-8.3 27.3 -8.5 25.5 -8.8 23.8 C-9.5 15.5 -6.8 8.7 -1.8 2.2 C-1.2 1.4 -0.6 0.7 0 0 Z " fill="#CEA27A" transform="translate(320,448)"/>
<path d="M0 0 C1.7 1 3.4 2 5 3 C12.4 4.3 12.4 4.3 15 3 C21.8 2.6 25.6 2.4 31 7 C28.5 15.6 28.5 15.6 24 19 C20 19.5 17.7 19.4 14.1 17.5 C11.3 14.1 11.2 11.3 11 7 C10.2 6.8 10.2 6.8 6 6 C5.9 6.9 5.8 7.8 5.8 8.8 C4.9 12.5 4.2 13.8 1 16 C-2.9 17.1 -5.1 17.4 -8.8 15.8 C-11 14 -11 14 -13 10 C-13.1 6.8 -13.1 6.8 -13 4 C-14.3 4 -15.6 4 -17 4 C-17.3 11.1 -17 18 -13 24 C-11.7 23.5 -10.4 23 -9 22.5 C-2.5 20.3 3.4 20.7 10 22 C11 22.1 12.1 22.2 13.1 22.3 C16.5 23.1 17.8 24.3 20 27 C20 27.7 20 28.3 20 29 C22.4 28.2 22.4 28.2 25 27 C25.2 26.5 25.2 26.5 26 24 C26.7 25 27.3 26 28 27 C27.3 27 26.7 27 26 27 C25.9 28 25.9 29 25.8 30 C24.7 35.6 22.1 40.2 17.7 43.9 C16 46 16 46 16.1 50.2 C16 55.9 14.2 58.7 11 63 C10.3 64 9.6 64.9 8.9 65.9 C6.9 68.6 5 71.3 3 74 C0 71 0 71 -2 67.4 C-4.9 62.6 -9 59.6 -13.3 56.2 C-17.5 52.8 -21.3 49.4 -22.9 44.1 C-22.9 43.4 -23 42.7 -23 42 C-22 42 -21 42 -20 42 C-19.9 36.9 -19.9 31.8 -19.9 26.8 C-19.9 25.3 -19.8 23.9 -19.8 22.4 C-19.8 21 -19.8 19.6 -19.8 18.2 C-19.8 16.9 -19.8 15.6 -19.8 14.3 C-20 11 -20 11 -22 7 C-21.6 4.2 -21.6 4.2 -21 2 C-18.5 1.8 -15.9 1.5 -13.4 1.3 C-2.5 -0.1 -2.5 -0.1 0 0 Z " fill="#B9A78A" transform="translate(157,182)"/>
<path d="M0 0 C0.3 0 0.7 0 1 0 C12.4 63.7 12.4 63.7 4.9 89.5 C4 93.1 3.8 96.3 4 100 C4.7 100 5.3 100 6 100 C5.8 100.5 5.8 100.5 5 103 C5.1 107.1 5.2 111.2 5.4 115.3 C5.6 122.1 4 125.5 0 131 C-3.3 137.9 -3.3 143.5 -3 151 C-10.6 151 -18.2 151 -26 151 C-26.3 135.8 -26.7 120.6 -27 105 C-26.3 104.8 -26.3 104.8 -23 104 C-23.2 101.9 -23.2 101.9 -24 91 C-24.7 90.7 -25.3 90.3 -26 90 C-26.2 87.8 -26.3 85.6 -26.5 83.4 C-26.6 82.2 -26.7 81 -26.8 79.7 C-26.9 77.3 -27 74.8 -27 72.3 C-27 68.6 -27.8 65.1 -28.5 61.4 C-29.6 54.3 -29.7 47.1 -30 40 C-25.4 39 -21.7 39.2 -17 40 C-17.3 47.3 -17.7 54.4 -19.5 61.6 C-21.7 70.1 -23.4 78.7 -20 87 C-19.4 91.6 -19 96.2 -18.6 100.8 C-18 105 -18 105 -16 109 C-15.3 109.3 -14.7 109.7 -14 110 C-13.3 112.3 -12.7 114.7 -12 117 C-11.3 117.3 -10.7 117.7 -10 118 C-10 117.3 -10 116.6 -10 115.8 C-8.4 111.3 -5.1 110.1 -1 108 C-0 108 1 108 2 108 C1.8 107.7 1.8 107.7 1 106 C1 104 1 102 1 100 C-0.5 100.3 -0.5 100.3 -8 102 C-7.7 101.3 -7.3 100.7 -7 100 C-4.7 99.3 -2.4 98.6 0 98 C0.3 95.4 0.7 92.7 1 90 C0.3 90.2 -0.4 90.4 -1.1 90.7 C-2 90.9 -2.9 91.2 -3.8 91.5 C-4.7 91.8 -5.6 92.1 -6.5 92.3 C-9 93 -9 93 -12 93 C-7.7 88.7 -4 88.4 2 88 C2.3 85 2.7 82.1 3 79 C-4.5 78.6 -10.8 80 -18 82 C-16 78 -16 78 -12 75 C-9.4 74.7 -9.4 74.7 -6.6 74.8 C-6.1 74.8 -6.1 74.8 -3.8 74.8 C-1.1 75 1.4 75.4 4 76 C3.7 74.7 3.3 73.4 3 72 C-2.4 68.8 -8 66.9 -14 65 C-13.3 64 -12.7 63 -12 62 C-7.1 62 -2.1 62 3 62 C6.8 54.5 2.8 44.2 0.8 36.8 C0 33 0 33 1 29 C1.7 30.6 2.3 32.3 3 34 C2.5 25.9 1.7 17.9 0.4 9.9 C-0.1 6.6 -0.2 3.3 0 0 Z " fill="#374251" transform="translate(315,326)"/>
<path d="M0 0 C0 3.4 -0.8 4.9 -2.3 7.9 C-12 28.6 -9.3 50.6 -6.3 72.4 C-6 75 -6 75 -6 80 C-3.4 78 -0.7 76 2 74 C2.7 74.3 3.3 74.7 4 75 C3.3 75.5 2.6 76.1 1.8 76.6 C-5.7 82.7 -5.7 82.7 -6.5 86.6 C-6.4 89.1 -6.2 91.5 -6 94 C-7.3 96.3 -8.6 98.7 -10 101 C-10 104 -10 107 -10 110 C-11.4 113.2 -11.4 113.2 -13 116 C-13.7 118.9 -13.7 118.9 -14 121 C-13.3 121 -12.7 121 -12 121 C-12 120.3 -12 119.7 -12 119 C-4.7 119.6 -0.9 121.8 3.9 127.2 C4.6 128.2 5.3 129.1 6 130 C4.6 134.2 2.5 137.2 -0.3 140.7 C-4.3 145.9 -7.3 151 -10 157 C-10.7 158.3 -11.3 159.6 -12 161 C-16.4 153.2 -20.3 145.2 -24 137 C-24.7 137 -25.3 137 -26 137 C-26 138 -26 139 -26 140 C-28.3 139.7 -30.6 139.3 -33 139 C-29 136 -29 136 -27 136 C-27.3 134 -27.7 132 -28 130 C-29 129.7 -30 129.3 -31 129 C-30 128 -29 127 -28 126 C-28.9 126.3 -29.7 126.5 -30.6 126.8 C-55.4 133.8 -84.6 137.7 -109 127 C-105.4 125.8 -104.3 126.3 -100.8 127.4 C-79.8 133.7 -56.9 129.7 -36.1 124.9 C-32 124 -32 124 -28 124 C-27.1 117 -29.1 114 -33.1 108.7 C-37.5 102.5 -39.8 96.4 -41 89 C-60.1 89 -79.3 89 -99 89 C-99.7 90.3 -100.3 91.6 -101 93 C-100.1 88.1 -100.1 88.1 -99 87 C-97.2 86.9 -95.3 86.9 -93.5 87 C-92.3 87 -91.1 87 -89.9 87 C-88.6 87.1 -87.3 87.1 -86 87.1 C-85.3 87.1 -85.3 87.1 -82 87.2 C-77.8 87.3 -73.6 87.4 -69.4 87.4 C-66.6 87.5 -63.8 87.5 -60.9 87.6 C-53.9 87.7 -47 87.9 -40 88 C-39.6 89.1 -39.2 90.1 -38.7 91.2 C-38.2 92.6 -37.6 94 -37.1 95.4 C-36.5 96.7 -36 98.1 -35.4 99.5 C-34.7 101.4 -33.9 103.2 -33 105 C-25.3 101.2 -22 93.8 -19.2 85.9 C-14.8 71.2 -13.3 56.3 -12 41 C-9.2 9.2 -9.2 9.2 0 0 Z " fill="#3F5D6F" transform="translate(433,314)"/>
<path d="M0 0 C3.6 1.5 7.2 3.3 9 7 C9.7 7.1 9.7 7.1 13.2 7.3 C18 8 18 8 22 11 C21.7 11.7 21.3 12.3 21 13 C21.2 13.2 21.2 13.2 22 14 C24.7 17.6 25.4 18.8 26 23 C26.7 23.2 26.7 23.2 30 24 C29.7 24.7 29.3 25.4 29 26.2 C28 29 28 29 28 34 C26.2 38.3 26.2 38.3 24 42 C22.7 42.3 21.4 42.7 20 43 C18.2 46.1 18.2 46.1 17 49 C16.3 49 15.7 49 15 49 C14.9 48.3 14.8 47.6 14.7 46.8 C13.8 41.3 12.8 36.8 10 32 C8.2 28.4 6.5 24.8 5 21 C1 20 -2.1 20.1 -6.2 20.8 C-7.2 21 -8.3 21.2 -9.4 21.3 C-12 22 -12 22 -14 24 C-14.4 25.1 -14.9 26.3 -15.3 27.4 C-17.2 31.4 -18.1 32.3 -22 34 C-22.5 34.2 -22.5 34.2 -25.2 35 C-28 36 -28 36 -30 39 C-30.1 47.7 -28.6 56.5 -27 65 C-29.4 64.8 -29.4 64.8 -32 64 C-35.6 57.7 -36.5 53.2 -36 46 C-37 45.7 -38 45.3 -39 45 C-39 43.7 -39 42.4 -39 41 C-40.3 40.7 -41.6 40.3 -43 40 C-44.1 37.6 -44.1 37.6 -45 35 C-45.7 34.3 -46.3 33.7 -47 33 C-46.7 32 -46.3 31 -46 30 C-45 30 -44 30 -43 30 C-43 26.3 -43.2 23.5 -44 20 C-43 19 -42 18 -41 17 C-41 18 -41 19 -41 20 C-40 18.7 -39 17.4 -38 16 C-38.7 15.7 -39.3 15.3 -40 15 C-38 14 -36 13 -34 12 C-34.3 10.3 -34.7 8.7 -35 7 C-32.3 7 -29.7 7 -27 7 C-26.3 6.4 -25.5 5.8 -24.8 5.1 C-21.1 2.3 -17.5 1.9 -13 1 C-9 -1 -4.3 -0.5 0 0 Z " fill="#3E342F" transform="translate(446,149)"/>
<path d="M0 0 C11 11 6.1 43.5 6.1 58.6 C6.1 59.4 6.1 60.3 6.1 61.2 C6.1 63.8 6.1 66.3 6.1 68.9 C6.1 70.4 6.1 71.9 6.1 73.4 C6 77 6 77 5 80 C5.5 79.8 5.5 79.8 8.2 79.1 C9.5 78.7 10.9 78.3 12.3 77.9 C13.7 77.6 15 77.2 16.4 76.8 C20 76 20 76 23 77 C20 78.3 17.1 79.6 14 81 C15.7 81.3 17.3 81.7 19 82 C19 85 19 87.9 19 91 C17.6 91.3 16.2 91.6 14.7 91.9 C10 93 10 93 7 94 C7 99.6 7 105.2 7 111 C6.7 111 6.3 111 6 111 C5.7 105.7 5.3 100.4 5 95 C2.7 94.7 0.4 94.3 -2 94 C-2 104.9 -2 115.8 -2 127 C-2.3 127 -2.7 127 -3 127 C-3 116.1 -3 105.2 -3 94 C-9.6 93.3 -16.2 92.7 -23 92 C-24 87.8 -23.7 85.2 -23 81 C-24.3 81 -25.6 81 -27 81 C-27 82.1 -27 83.2 -26.9 84.3 C-27 88 -27 88 -28 91 C-30.2 90.5 -32.5 90.1 -34.7 89.6 C-35.3 89.5 -35.3 89.5 -38.4 88.9 C-41.5 88.1 -44.2 87.2 -47 86 C-47.7 87.6 -48.3 89.3 -49 91 C-50 91 -51 91 -52 91 C-53.1 89 -54.1 87 -55 85 C-54.8 84.7 -54.8 84.7 -54 83 C-54.4 78.4 -55.4 74.3 -57 70 C-57.7 70 -58.3 70 -59 70 C-58.8 68.9 -58.6 67.8 -58.4 66.7 C-58 63 -58 63 -60 60 C-59.3 60 -58.7 60 -58 60 C-57.7 58.6 -57.4 57.2 -57.1 55.8 C-56 51 -56 51 -54 47 C-49.9 53.2 -49.7 59.8 -50 67 C-50.2 67.9 -50.5 68.8 -50.7 69.8 C-51.1 73 -49.9 74.5 -48 77 C-45.4 78.3 -43.2 78.3 -40.4 78.6 C-39.9 78.6 -39.9 78.6 -37.3 78.8 C-36.6 78.9 -35.8 78.9 -35 79 C-34.8 78.5 -34.8 78.5 -34 76 C-28.5 76.5 -23.2 77.3 -17.8 78.5 C-13.6 79.2 -9.3 79.6 -5 80 C-5 78.9 -5 77.8 -5 76.6 C-5.1 59.1 -4.6 41.5 -4 24 C-3.7 24 -3.3 24 -3 24 C-2.8 25 -2.8 25 -2 30 C-1 29.3 -0 28.7 1 28 C1.7 28.7 2.3 29.3 3 30 C2.5 19.9 1.6 10 0 0 Z " fill="#4C7A7F" transform="translate(235,335)"/>
<path d="M0 0 C1.2 -0 2.3 -0 3.6 -0 C6.6 0.2 6.6 0.2 8.6 2.2 C10.9 2.9 13.2 3.6 15.6 4.2 C15.7 4.8 15.7 4.8 16.6 8.2 C18.2 8.2 19.9 8.2 21.6 8.2 C21.7 9.2 21.7 9.2 22.6 14.2 C23.9 14.5 25.2 14.8 26.6 15.2 C30.2 26.8 26.4 37.4 21.6 48.2 C21.2 48.2 20.9 48.2 20.6 48.2 C20.5 47.5 20.5 46.7 20.4 46 C20 40.7 19.4 36.2 17.6 31.2 C17.5 30.6 17.5 30.6 17.2 27.5 C16.6 24.2 16.6 24.2 14.2 22.4 C13.3 22 12.5 21.6 11.6 21.2 C10.6 20.5 9.6 19.9 8.6 19.2 C-2.7 17.2 -12.9 17.8 -22.4 24.2 C-25.2 31.6 -25.9 39.4 -26.4 47.2 C-29.1 44.6 -29.2 42.5 -30 38.9 C-30.2 37.7 -30.5 36.6 -30.8 35.4 C-31 34.4 -31.2 33.3 -31.4 32.2 C-31.6 31.3 -31.8 30.4 -32 29.5 C-33.2 23.3 -32.5 18.7 -29.4 13.2 C-28.1 12.9 -26.8 12.5 -25.4 12.2 C-25.3 11.4 -25.1 10.6 -25 9.8 C-24.4 7.2 -24.4 7.2 -23.4 6.2 C-21.8 6.2 -20.1 6.2 -18.4 6.2 C-17.8 4.9 -17.1 3.5 -16.4 2.2 C-16.1 1.9 -15.8 1.5 -15.4 1.2 C-12.8 1.2 -10.1 1.2 -7.4 1.2 C-5.6 -0.7 -2.5 0 0 0 Z " fill="#35302D" transform="translate(373.4375,198.8125)"/>
<path d="M0 0 C6.3 0.4 9.7 2.1 14.2 6.5 C17.1 10.6 18 12.3 17.9 17.2 C16 20.6 13.6 23.3 11.1 26.2 C6.3 31.7 3.1 35.8 1.9 43.2 C1.2 42.3 0.6 41.3 -0.1 40.2 C-4.8 46 -7.6 51.2 -10.1 58.2 C-14.7 56 -15.7 54.3 -18.3 49.9 C-19 48.8 -19.7 47.7 -20.4 46.5 C-23.1 41.4 -23.1 41.4 -23.1 38.2 C-21.5 35.9 -21.5 35.9 -19.1 33.2 C-13.6 23.8 -9.1 14.2 -5.2 4 C-3.8 0.3 -3.8 0.3 0 0 Z " fill="#E8A357" transform="translate(508.125,369.75)"/>
<path d="M0 0 C7 3.5 9.9 9 12.3 16.2 C14 21.6 15.1 26.7 15.3 32.3 C15.3 32.8 15.3 32.8 15.4 35.3 C15.5 36.3 15.5 37.3 15.6 38.3 C15.6 39.3 15.6 40.4 15.7 41.4 C15.8 43.9 15.9 46.5 16 49 C17.7 45 19.3 41.1 21 37 C22.3 42 21.1 43.7 19.1 48.4 C12.9 62.9 14.1 78 19.6 92.7 C23.6 102 28.7 110 37 116 C32.3 116 29.4 113 26 110 C23.2 107.1 20.6 104.1 18 101 C17.7 104.4 17.3 107.7 17 111.1 C17 111.5 17 111.5 16.7 113.9 C16.4 116.6 16.2 119.3 16 122 C15.9 123.3 15.8 124.6 15.7 125.9 C16.1 129.8 17.1 131.3 20 134 C28.2 138.7 37.9 140.8 47 143 C47 143.3 47 143.7 47 144 C37.4 143.5 28.3 141.4 19 139 C20 143 20 143 24 146 C22.7 146 21.4 146 20 146 C20.3 148.6 20.7 151.3 21 154 C21.7 154.3 22.3 154.7 23 155 C22.5 155.7 22.5 155.7 20 159 C19.7 156.7 19.3 154.4 19 152 C17.7 151.7 16.4 151.3 15 151 C13.9 147.5 13 144.3 12.6 140.7 C12 136.9 10.9 133.8 9.4 130.2 C6.7 122.8 6.3 117.4 7.5 109.6 C8.5 102.2 8.1 94.9 7.3 87.5 C6.7 79.6 8.2 72.6 9.9 64.8 C14.1 44.9 16.1 24.2 5 6 C3.4 4 1.7 1.9 0 0 Z " fill="#394351" transform="translate(89,255)"/>
<path d="M0 0 C1.7 1.4 3.4 2.9 5.1 4.4 C6.7 5.7 8.3 7 10 8.2 C13 12.4 11.6 16.2 11 21 C10.8 22.8 10.6 24.6 10.5 26.4 C10 31.2 9.5 36.1 9 41 C5.7 41 2.4 41 -0.9 41.1 C-1.4 41.1 -1.4 41.1 -3.7 41.1 C-9.6 41.1 -15.2 40.8 -21 40 C-20.7 37.4 -20.5 34.9 -20.2 32.3 C-20 30.9 -19.9 29.5 -19.7 28 C-19 24.2 -18.2 22.1 -16 19 C-15.3 19.7 -14.7 20.3 -14 21 C-6.8 15.9 -2.2 8.5 0 0 Z " fill="#8F5E40" transform="translate(165,433)"/>
<path d="M0 0 C1 0.3 2 0.7 3 1 C2.3 1.6 1.6 2.2 0.8 2.9 C-10.6 15.5 -11 32.9 -10.2 49 C-9.6 56.8 -7.8 64.4 -6 72 C-5 76.7 -5.2 80.2 -6 84.9 C-7 91.9 -6.9 98.4 -6.2 105.4 C-6 108.8 -6.3 111.7 -7 115 C-6.3 114.3 -5.7 113.7 -5 113 C3 111.7 8.4 113.5 15 118 C15.3 118.7 15.7 119.3 16 120 C12.7 119 9.7 117.8 6.6 116.4 C2.7 114.9 0 114.9 -4 115 C-4.6 116.5 -5.3 117.9 -5.9 119.5 C-6.7 121.4 -7.5 123.3 -8.4 125.2 C-8.8 126.2 -9.2 127.2 -9.6 128.2 C-10 129.1 -10.4 130.1 -10.8 131 C-11.2 131.9 -11.6 132.7 -11.9 133.6 C-12.9 135.8 -13.9 137.9 -15 140 C-15.8 139.7 -16.5 139.4 -17.3 139.1 C-25.7 135.8 -34.2 136.8 -43 138 C-39.4 134.4 -37.2 134.1 -32.2 132.9 C-17.5 129.5 -17.5 129.5 -15 127 C-14 122.3 -14 118.5 -14.9 113.9 C-17.2 102.9 -16 92 -14.5 80.9 C-12.9 67.5 -14.6 55.1 -18.4 42.3 C-19 40 -19 40 -19 37 C-18.3 37 -17.7 37 -17 37 C-16.5 38.6 -16.5 38.6 -14 47 C-14 45.9 -13.9 44.9 -13.9 43.8 C-13.2 28.4 -12.1 11.1 0 0 Z " fill="#A8442B" transform="translate(509,256)"/>
<path d="M0 0 C2.6 1 2.6 1 6.6 2.1 C9.6 3 9.6 3 12.6 6 C12.7 7 12.9 7.9 13 8.9 C13.6 12 13.6 12 16.1 14.2 C20.6 19.2 19.9 25.6 19.6 32 C18.9 35.1 18 37.2 16.6 40 C15.6 38.7 14.6 37.4 13.6 36 C14 35 14.3 34 14.6 33 C14.3 32.7 14 32.4 13.6 32 C13.3 29.3 12.9 26.7 12.6 24 C13.6 24.3 14.6 24.7 15.6 25 C13.3 21.4 11 17.8 8.6 14 C9.3 13.7 9.9 13.4 10.6 13 C9.8 12.9 9.1 12.7 8.2 12.6 C5.6 12 5.6 12 3.6 11 C0.3 11.2 -2.9 11.6 -6.2 12 C-9.4 12 -9.4 12 -13.4 10 C-10.2 7.3 -8.5 6 -4.4 5 C-9.9 5.5 -9.9 5.5 -12.4 8.1 C-13.1 8.7 -13.7 9.4 -14.4 10 C-16 10 -17.7 10 -19.4 10 C-19.4 9.4 -19.4 8.7 -19.4 8 C-20.7 8 -22 8 -23.4 8 C-23.4 7 -23.4 6 -23.4 5 C-24 5.3 -24 5.3 -27.4 7 C-27.4 8 -27.4 9 -27.4 10 C-29.4 10.7 -31.3 11.3 -33.4 12 C-32.4 12 -31.4 12 -30.4 12 C-29.7 12.3 -29.1 12.7 -28.4 13 C-28.7 13.7 -29 14.3 -29.4 15 C-29.3 16.4 -29.2 17.7 -29.1 19.1 C-29.5 25.5 -31.1 27.4 -35.4 32 C-36 32.2 -36 32.2 -39.4 33 C-38.7 32.2 -38.7 32.2 -35.4 28 C-36 28.4 -36 28.4 -39.3 30.1 C-40.6 30.7 -42 31.4 -43.4 32 C-44 31.7 -44.7 31.4 -45.4 31 C-46.7 26.9 -46.4 26.1 -44.4 22 C-44.1 20.5 -43.9 19 -43.6 17.5 C-42.2 12.2 -41 11.6 -36.4 9 C-36.1 8.6 -36.1 8.6 -34.9 6.4 C-32.7 2.9 -30.3 2.4 -26.4 1 C-26 0.8 -26 0.8 -24 -0.1 C-15.1 -4 -8.9 -3.5 0 0 Z " fill="#EABF9B" transform="translate(174.37890625,148.98828125)"/>
<path d="M0 0 C0.3 0 0.7 0 1 0 C12.4 63.7 12.4 63.7 4.9 89.5 C4 93.1 3.8 96.3 4 100 C4.7 100 5.3 100 6 100 C5.7 101 5.3 102 5 103 C5.1 107.1 5.2 111.2 5.4 115.3 C5.6 122.1 4 125.5 0 131 C-1 133 -2 135 -3 137 C-5.3 133.5 -6.4 130.2 -7.7 126.1 C-8.1 124.7 -8.6 123.3 -9.1 121.9 C-10.4 116.4 -10.4 116.4 -9 113 C-2.1 108 -2.1 108 2 108 C1.8 107.7 1.8 107.7 1 106 C1 104 1 102 1 100 C-0.5 100.3 -0.5 100.3 -8 102 C-7.8 101.7 -7.8 101.7 -7 100 C-4.7 99.3 -2.4 98.6 0 98 C0.3 95.4 0.7 92.7 1 90 C0.3 90.2 -0.4 90.4 -1.1 90.7 C-2 90.9 -2.9 91.2 -3.8 91.5 C-4.7 91.8 -5.6 92.1 -6.5 92.3 C-9 93 -9 93 -12 93 C-7.7 88.7 -4 88.4 2 88 C2.3 85 2.7 82.1 3 79 C-4.5 78.6 -10.8 80 -18 82 C-16 78 -16 78 -12 75 C-9.4 74.7 -9.4 74.7 -6.6 74.8 C-6.1 74.8 -6.1 74.8 -3.8 74.8 C-1.1 75 1.4 75.4 4 76 C3.7 74.7 3.3 73.4 3 72 C-2.4 68.8 -8 66.9 -14 65 C-13.3 64 -12.7 63 -12 62 C-7.1 62 -2.1 62 3 62 C6.8 54.5 2.8 44.2 0.8 36.8 C0 33 0 33 1 29 C1.7 30.6 2.3 32.3 3 34 C2.5 25.9 1.7 17.9 0.4 9.9 C-0.1 6.6 -0.2 3.3 0 0 Z " fill="#3D5A6E" transform="translate(315,326)"/>
<path d="M0 0 C3 3 3 3 5 6 C5 7 5 8 5 9 C5.7 9 6.3 9 7 9 C7.7 9.7 8.4 10.5 9.2 11.2 C13.8 15.7 18.8 18.8 25.3 19.2 C28.9 19 31.6 18.3 35 17 C36.1 21.9 36.4 24.3 34.1 28.8 C33.1 30.2 32 31.6 31 33 C30.3 34 29.6 34.9 28.9 35.9 C26.9 38.6 25 41.3 23 44 C20 41 20 41 18 37.4 C15.1 32.6 11 29.6 6.7 26.2 C2.5 22.8 -1.3 19.4 -2.9 14.1 C-2.9 13.4 -3 12.7 -3 12 C-2 12 -1 12 0 12 C0 8 0 4.1 0 0 Z " fill="#D8AB82" transform="translate(137,212)"/>
<path d="M0 0 C7.3 0.6 11.1 2.8 15.9 8.2 C16.6 9.2 17.3 10.1 18 11 C16.6 15.2 14.5 18.2 11.7 21.7 C7.7 26.9 4.7 32 2 38 C1.3 39.3 0.7 40.6 0 42 C-3.1 36.4 -6.2 30.8 -8.9 25.1 C-9.4 24.2 -9.8 23.3 -10.2 22.4 C-11 20 -11 20 -10 16 C-8.7 14.7 -7.3 13.3 -6 12 C-4.8 10 -3.8 7.9 -2.8 5.8 C-2.2 4.7 -1.7 3.6 -1.2 2.5 C-0.8 1.7 -0.4 0.8 0 0 Z " fill="#8F5D3F" transform="translate(421,433)"/>
<path d="M0 0 C0.5 0.7 1 1.4 1.5 2.1 C7.8 9.4 13.3 13.7 23 15 C23.7 17 24.3 19 25 21 C25.7 21 26.3 21 27 21 C26.5 27.1 25.1 31.6 22.4 37 C22.1 37.7 22.1 37.7 20.5 41 C20.2 41.5 20.2 41.5 19 44 C18.3 44 17.7 44 17 44 C16.3 42.9 15.7 41.8 15 40.6 C14.1 39.2 13.2 37.7 12.3 36.2 C11.9 35.5 11.4 34.8 11 34 C8.4 29.8 5.9 26.9 2 24 C-0.9 21.3 -0.9 21.3 -3 18 C-3.1 13.7 -3.1 13.7 -2.4 9.2 C-2.3 8.4 -2.3 8.4 -1.7 4.6 C-1 1 -1 1 0 0 Z " fill="#EABE9A" transform="translate(214,286)"/>
<path d="M0 0 C0.3 0 0.7 0 1 0 C1.3 3 1.7 5.9 2 9 C2.5 9.2 2.5 9.2 5 10 C4 10 3 10 2 10 C2.2 10.6 2.2 10.6 2.9 13.9 C3.4 18.3 2.6 20.3 -0.1 23.8 C-2.2 26.3 -4.3 28.3 -6.9 30.4 C-10.8 33.7 -13.3 37.5 -16.2 41.8 C-16.8 42.5 -17.4 43.2 -18 44 C-19 44 -20 44 -21 44 C-28.1 36.2 -29.1 29.4 -29 19 C-28 19.3 -27 19.7 -26 20 C-19.7 20.5 -16.1 19.8 -11 16 C-6.6 11.1 -3.1 5.8 0 0 Z " fill="#E8A357" transform="translate(461,217)"/>
<path d="M0 0 C2 2 2 2 2.2 6.3 C2.2 8.1 2.2 10 2.2 11.8 C2.2 12.8 2.2 13.8 2.2 14.8 C2.2 17.9 2.2 21 2.1 24.1 C2.1 26.2 2.1 28.3 2.1 30.5 C2.1 35.6 2 40.8 2 46 C-1.6 46 -5.3 46 -9 46 C-9.1 45.2 -9.2 44.3 -9.2 43.5 C-9.6 39.6 -10 35.8 -10.4 32 C-10.5 30.7 -10.6 29.4 -10.8 28 C-11.3 22.7 -11.9 17.6 -13.2 12.4 C-14 9 -14 9 -13 4 C-8.7 2.7 -4.4 1.4 0 0 Z " fill="#DEA368" transform="translate(287,431)"/>
<path d="M0 0 C0.3 0 0.7 0 1 0 C1.1 4.6 1 8.9 0.4 13.4 C-0.2 19.5 0.3 25.4 0.8 31.5 C1 35.7 1 39.9 0.9 44.2 C0.9 45.5 0.9 46.7 0.9 48 C0.8 50.5 0.8 53 0.7 55.5 C0.6 62.8 1.4 68.6 4 75.4 C5 78 5.7 80.3 6 83 C4.6 85.6 4.6 85.6 3 88 C2.7 89.3 2.3 90.6 2 92 C3.2 91.8 3.2 91.8 9 91 C7 93 7 93 4 94 C4.1 95.6 4.3 97.2 4.4 98.8 C4.5 99.7 4.6 100.6 4.7 101.5 C5 104 5 104 6 107 C5.2 107.3 5.2 107.3 1 109 C-1 105 -3 101.1 -5 97 C-6.6 97.2 -6.6 97.2 -15 98 C-15 95 -15 92.1 -15 89 C-13.9 88.6 -12.9 88.2 -11.8 87.8 C-6.1 85.1 -6.1 85.1 -4 82 C-3.7 78 -3.9 74.5 -4.5 70.5 C-5.5 63.8 -4.9 57.8 -3.5 51.2 C-1.8 41.8 -1.8 32.7 -2 23.2 C-2.2 15.2 -1.5 7.8 0 0 Z " fill="#485C68" transform="translate(272,327)"/>
<path d="M0 0 C1.7 1 3.4 2 5 3 C12.4 4.3 12.4 4.3 15 3 C21.8 2.6 25.6 2.4 31 7 C28.5 15.6 28.5 15.6 24 19 C20 19.5 17.7 19.4 14.1 17.5 C11.3 14.1 11.2 11.3 11 7 C10.2 6.8 10.2 6.8 6 6 C5.9 6.9 5.8 7.8 5.8 8.8 C4.9 12.5 4.2 13.8 1 16 C-2.9 17.1 -5.1 17.4 -8.8 15.8 C-11 14 -11 14 -13 10 C-13.1 6.8 -13.1 6.8 -13 4 C-16 4 -18.9 4 -22 4 C-21.7 3.3 -21.3 2.7 -21 2 C-18.5 1.8 -15.9 1.5 -13.4 1.3 C-2.5 -0.1 -2.5 -0.1 0 0 Z " fill="#674B3A" transform="translate(157,182)"/>
<path d="M0 0 C4.1 6.2 4.3 12.8 4 20 C3.9 20.5 3.9 20.5 3.3 22.8 C2.9 26 4.1 27.5 6 30 C9.8 31.9 14.4 31.7 18.6 32.1 C19.6 32.2 20.6 32.2 21.6 32.3 C24.1 32.6 26.5 32.8 29 33 C28.7 33.2 28.7 33.2 27 34 C27 35.1 27 36.2 27.1 37.3 C27 41 27 41 26 44 C23.8 43.5 21.5 43.1 19.3 42.6 C18.7 42.5 18.7 42.5 15.6 41.9 C12.5 41.1 9.8 40.2 7 39 C6.7 39.8 6.7 39.8 5 44 C4 44 3 44 2 44 C0.9 42 -0.1 40 -1 38 C-0.7 37.3 -0.3 36.7 0 36 C-0.4 31.4 -1.4 27.3 -3 23 C-3.7 23 -4.3 23 -5 23 C-4.8 21.9 -4.6 20.8 -4.4 19.7 C-4 16 -4 16 -6 13 C-5.3 13 -4.7 13 -4 13 C-3.7 11.6 -3.4 10.2 -3.1 8.8 C-2 4 -2 4 0 0 Z " fill="#454449" transform="translate(181,382)"/>
<path d="M0 0 C0 3.6 0 7.3 0 11 C-1 11.3 -2 11.7 -3 12 C-3 17.6 -3 23.2 -3 29 C-3.3 29 -3.7 29 -4 29 C-4.3 23.7 -4.7 18.4 -5 13 C-7.3 12.7 -9.6 12.3 -12 12 C-12 22.9 -12 33.8 -12 45 C-12.3 45 -12.7 45 -13 45 C-13 34.1 -13 23.2 -13 12 C-19.6 11.3 -26.2 10.7 -33 10 C-34 6 -33.8 3.9 -33 0 C-28.4 -0.2 -23.9 -0.4 -19.3 -0.6 C-18 -0.6 -16.7 -0.7 -15.4 -0.7 C-14.8 -0.8 -14.8 -0.8 -11.6 -0.9 C-11 -0.9 -11 -0.9 -8.1 -1 C-5 -1 -5 -1 0 0 Z " fill="#C3A481" transform="translate(245,417)"/>
<path d="M0 0 C-0.3 7.3 -0.7 14.4 -2.5 21.6 C-4.7 30.1 -6.4 38.7 -3 47 C-2.7 49.8 -2.5 52.5 -2.4 55.3 C-2.3 56.8 -2.2 58.2 -2.1 59.7 C-2.1 60.8 -2.1 61.9 -2 63 C-3 63 -4 63 -5 63 C-5.1 62.1 -5.2 61.3 -5.4 60.4 C-5.5 59.3 -5.7 58.2 -5.9 57.1 C-6 56.5 -6 56.5 -6.4 53.7 C-6.6 52.8 -6.8 51.9 -7 51 C-7.7 50.7 -8.3 50.3 -9 50 C-9.2 47.8 -9.3 45.6 -9.5 43.4 C-9.6 42.2 -9.7 41 -9.8 39.7 C-9.9 37.3 -10 34.8 -10 32.3 C-10 28.6 -10.8 25.1 -11.5 21.4 C-12.6 14.3 -12.7 7.1 -13 0 C-8.3 -1.2 -4.7 -0.6 0 0 Z " fill="#384758" transform="translate(298,366)"/>
<path d="M0 0 C6.9 9.2 6.6 21.8 7 33 C7.7 31.2 7.7 31.2 11 22 C12.1 26.3 11.8 27.5 10.6 31.5 C8.1 40.8 8.7 49.2 10.5 58.5 C11.6 64.3 10.9 68.5 9 74 C8.9 77.4 8.9 77.4 9 80 C12 81.3 14.9 82.6 18 84 C18 84.3 18 84.7 18 85 C8.9 85.5 8.9 85.5 4.9 83.3 C2.8 80.7 2.2 79.3 2 76 C2.3 75 2.7 74 3 73 C3.4 67.5 2.8 63.3 1.2 58 C-0.6 50.8 1.1 45.3 3 38.2 C5.4 28.2 4.1 19 1.8 9.2 C1 6.1 0.5 3.1 0 0 Z " fill="#3E5D6F" transform="translate(181,329)"/>
<path d="M0 0 C4.9 0.7 9.5 2 14.2 3.4 C20.8 5.4 27.2 6.9 34 8 C34.3 7.3 34.7 6.7 35 6 C35.8 7.8 36.7 9.6 37.5 11.4 C38 12.4 38.4 13.4 38.9 14.4 C40 17 40 17 40 19 C39 19 38 19 37 19 C37 20.3 37 21.6 37 22.9 C37 24.6 37.1 26.3 37.1 28 C37.1 28.8 37.1 29.7 37.1 30.5 C37.1 35.8 36.8 40.8 36 46 C35.7 46 35.3 46 35 46 C35 37.1 35 28.2 35 19 C22.9 16.2 22.9 16.2 19.2 15.3 C13.5 14 8.3 12.5 3 10 C3 9.3 3 8.7 3 8 C2.3 8 1.7 8 1 8 C-0.4 5.3 -0.1 3 0 0 Z " fill="#4A5162" transform="translate(109,401)"/>
<path d="M0 0 C3 1 3 1 4 3 C4 5.1 4 7.2 3.9 9.3 C3.9 10.6 3.8 11.9 3.8 13.2 C3.7 14.6 3.7 15.9 3.6 17.3 C3.6 18.6 3.5 19.9 3.5 21.3 C3.2 29.5 2.7 37.8 2 46 C-1.2 44.1 -2.9 43 -5 40 C-5.8 35 -5.4 30.1 -5 25 C-4.9 23.5 -4.9 22 -4.8 20.5 C-4.2 7.3 -4.2 7.3 -2 1 C-1.3 0.7 -0.7 0.3 0 0 Z " fill="#BD553B" transform="translate(442,269)"/>
<path d="M0 0 C0 14.2 0 28.4 0 43 C-2.6 43 -5.3 43 -8 43 C-7.1 25.3 -7.1 25.3 -6.4 19.2 C-6 15.5 -6.1 12.6 -7 9 C-7.7 9.7 -8.3 10.3 -9 11 C-9 8.7 -9 6.4 -9 4 C-1 0 -1 0 0 0 Z " fill="#E9BC97" transform="translate(288,434)"/>
<path d="M0 0 C4.6 1.4 6.5 3.4 9.2 7.2 C9.9 8.2 10.5 9.1 11.2 10.1 C14.5 15.4 15.2 19.8 15 26 C13.5 25.5 13.5 25.5 6 23 C3.4 26.3 0.7 29.6 -2 33 C-3 32.7 -4 32.3 -5 32 C-3.9 28.4 -2.6 25.1 -1 21.6 C0.9 17.5 2 13.4 3 9 C2.3 9 1.7 9 1 9 C-0.5 6 -0.1 3.3 0 0 Z " fill="#487078" transform="translate(238,298)"/>
<path d="M0 0 C3.1 3.1 4.2 5.7 5.8 9.6 C9.1 16.3 13.7 21 20 25 C21 25.7 22 26.3 23 27 C21 29.3 19.5 30.8 16.7 31.8 C12.1 32.1 9.8 29.1 6.4 26.3 C-2.6 17.9 -2.6 17.9 -3 12 C-2 12 -1 12 0 12 C0 8 0 4.1 0 0 Z " fill="#DDAF87" transform="translate(137,212)"/>
<path d="M0 0 C3.1 4.7 2.7 9.5 2 15 C-0.3 19.4 -0.3 19.4 -3 23 C-4 25 -5 27 -6 29 C-8.3 25.5 -9.4 22.2 -10.7 18.1 C-11.1 16.7 -11.6 15.3 -12.1 13.9 C-13.4 8.4 -13.4 8.4 -12 5 C-5.2 0 -5.2 0 0 0 Z " fill="#8F5D3F" transform="translate(318,434)"/>
<path d="M0 0 C0 0.3 0 0.7 0 1 C-1.3 1.2 -2.6 1.5 -3.9 1.7 C-9.2 2.9 -13.7 5.1 -18.6 7.5 C-20.2 8.3 -21.8 9.1 -23.4 9.9 C-24.1 10.3 -24.8 10.6 -25.5 11 C-28.9 12.4 -32.4 13.2 -36 14 C-36 15.3 -35.9 16.5 -35.9 17.8 C-35.8 22.4 -35.6 27.1 -35.5 31.7 C-35.5 33.7 -35.4 35.7 -35.4 37.8 C-35.3 40.6 -35.2 43.5 -35.1 46.4 C-35.1 47.3 -35.1 48.2 -35 49.1 C-34.9 53 -35.1 56.2 -36 60 C-36.7 60 -37.3 60 -38 60 C-38.9 56.3 -39.1 53.5 -39.1 49.7 C-39.1 49.1 -39.1 49.1 -39.1 45.9 C-39.1 44.6 -39.1 43.3 -39.1 42 C-39.1 40.7 -39.1 39.5 -39.1 38.2 C-39.1 30.4 -38.8 22.7 -38 15 C-41 15.7 -43.9 16.3 -47 17 C-47 16.3 -47 15.7 -47 15 C-44 14.3 -41.1 13.7 -38 13 C-38.3 12.3 -38.7 11.7 -39 11 C-39.7 11.3 -39.7 11.3 -43 13 C-43 12.3 -43 11.7 -43 11 C-40 9.4 -37.1 7.7 -34 6 C-33.3 6.3 -32.7 6.7 -32 7 C-33 7.3 -34 7.7 -35 8 C-35 9 -35 10 -35 11 C-33.5 10.4 -32 9.8 -30.5 9.1 C-28.5 8.3 -26.5 7.5 -24.5 6.7 C-23.5 6.3 -22.5 5.9 -21.5 5.5 C-4.5 -1.5 -4.5 -1.5 0 0 Z " fill="#3A5466" transform="translate(418,298)"/>
<path d="M0 0 C11 11 6.1 43.5 6.1 58.6 C6.1 59.4 6.1 60.3 6.1 61.2 C6.1 63.8 6.1 66.3 6.1 68.9 C6.1 70.4 6.1 71.9 6.1 73.4 C6 77 6 77 5 80 C5.5 79.8 5.5 79.8 8.2 79.1 C9.5 78.7 10.9 78.3 12.3 77.9 C13.7 77.6 15 77.2 16.4 76.8 C20 76 20 76 23 77 C20 78.3 17.1 79.6 14 81 C15.7 81.3 17.3 81.7 19 82 C19 85 19 87.9 19 91 C17.5 91.2 17.5 91.2 10 92 C9.7 88.7 9.3 85.4 9 82 C6 81.7 3.1 81.3 0 81 C0.5 80.7 0.5 80.7 3 79 C4.5 73.5 4.1 67.7 4 62 C4 61.5 4 61.5 3.9 58.8 C3.9 56.5 3.9 54.2 3.8 52 C3.8 48.6 3.7 45.2 3.7 41.8 C3.4 27.6 2.3 13.9 0 0 Z " fill="#55595B" transform="translate(235,335)"/>
<path d="M0 0 C5.3 0.9 9.9 3 14.8 5.1 C15.3 5.3 15.3 5.3 17.5 6.2 C19.7 7.1 21.8 8.1 24 9 C24 8.3 24 7.7 24 7 C23 6 22 5 21 4 C25.4 5.2 28 6.5 31 10 C29.7 9.7 28.4 9.3 27 9 C27 9.7 27 10.3 27 11 C27.9 11.1 28.9 11.2 29.9 11.4 C33 12 33 12 35 14 C29.2 14.1 29.2 14.1 27 13 C27 13.6 27 13.6 27 16.5 C27 20.8 27 25.1 27.1 29.4 C27.1 31.2 27.1 33.1 27.1 35 C27.1 37.6 27.1 40.3 27.1 43 C27.1 43.8 27.1 43.8 27.1 47.9 C27 51.1 26.8 53.9 26 57 C25 57 24 57 23 57 C22 51.5 22 46.5 22.3 41 C22.4 40.2 22.4 39.3 22.5 38.5 C22.6 35.8 22.8 33.2 22.9 30.6 C23 28.8 23.1 27 23.2 25.2 C23.5 20.8 23.7 16.4 24 12 C23.1 11.7 22.3 11.4 21.4 11 C10 6.7 10 6.7 4.7 3.7 C3.8 3.2 2.9 2.7 1.9 2.1 C1.3 1.8 0.7 1.4 0 1 C0 0.7 0 0.3 0 0 Z " fill="#3B5466" transform="translate(332,300)"/>
<path d="M0 0 C1.3 -0 2.5 -0 3.8 -0 C4.5 -0 4.5 -0 7.8 0 C9.1 0 10.5 0 11.8 -0 C13.1 -0 14.3 -0 15.6 0 C16.8 0 17.9 0 19.1 0 C21.8 0.1 21.8 0.1 22.8 1.1 C23 6.1 22.9 11.1 22.8 16.1 C22.8 16.7 22.8 16.7 22.9 19.4 C22.8 22.3 22.8 22.3 21.8 27.1 C18.1 30.2 18.1 30.2 13.8 32.1 C13.4 32.4 13.4 32.4 11.2 33.5 C5.1 35.1 0.1 32 -5.2 29.1 C-7.2 27.1 -7.2 27.1 -7.4 24.5 C-7.4 23.5 -7.4 22.4 -7.4 21.3 C-7.4 20.1 -7.4 19 -7.4 17.8 C-7.4 16.5 -7.4 15.3 -7.4 14.1 C-7.4 12.8 -7.4 11.6 -7.4 10.4 C-7.3 0 -7.3 0 0 0 Z M-5.2 2.1 C-6.4 4.6 -6.3 6.3 -6.3 9.1 C-6.3 10.1 -6.3 11.1 -6.3 12.1 C-6.3 13.2 -6.3 14.2 -6.2 15.3 C-6.2 16.3 -6.2 17.3 -6.2 18.4 C-6.2 21 -6.2 23.6 -6.2 26.1 C2.3 31.8 2.3 31.8 6.8 32.8 C11.5 31.8 16.1 30.2 19.8 27.1 C21.4 22 20.9 16.6 20.9 11.3 C20.9 9.8 20.9 9.8 20.8 2.1 C12.2 2.1 3.7 2.1 -5.2 2.1 Z " fill="#A8442B" transform="translate(463.1875,288.8671875)"/>
<path d="M0 0 C5.3 2.6 7.4 4.7 10 10 C12.8 7.9 15.2 5.8 17.6 3.2 C20 1 20 1 23 1 C23.7 2.7 24.3 4.3 25 6 C20.3 10.2 16.5 11.8 10.2 12.4 C4.4 11.9 -1.7 10.3 -6 6 C-4 4 -2 2 0 0 Z " fill="#D6D5C7" transform="translate(149,245)"/>
<path d="M0 0 C5.3 0 5.3 0 8.4 2.3 C8.8 3 9.2 3.6 9.7 4.3 C7.9 11.1 7.9 11.1 5.7 13.3 C1.6 13.7 -1.2 14 -4.8 11.8 C-7 8.2 -6.6 5.4 -6.3 1.3 C-4.6 -0.4 -2.4 0.1 0 0 Z " fill="#CCA079" transform="translate(152.3125,183.6875)"/>
<path d="M0 0 C5.6 0 11.2 0 17 0 C17 3.3 17 6.6 17 10 C11.4 10 5.8 10 0 10 C-1 6 -1 6 0 0 Z " fill="#7E553C" transform="translate(212,417)"/>
<path d="M0 0 C1.3 0.7 2.6 1.3 4 2 C6.3 2.4 8.7 2.7 11 3 C10.6 9.9 6.8 16.1 2 21 C0.4 22.4 -1.3 23.7 -3 25 C-3.7 24.7 -4.3 24.3 -5 24 C-4.5 23 -4.1 22 -3.6 21 C-1.1 14.3 -0.7 7.1 0 0 Z " fill="#CFA27A" transform="translate(154,430)"/>
<path d="M0 0 C4.4 0.8 4.4 0.8 6.4 2.8 C7 6.8 6.7 8.4 4.3 11.8 C1.4 13.8 1.4 13.8 -2.2 13.9 C-5.6 12.8 -5.6 12.8 -7.6 10.6 C-8.6 7.8 -8.6 7.8 -8.6 2.8 C-4.6 -0.2 -4.6 -0.2 0 0 Z " fill="#CB9E77" transform="translate(178.625,186.1875)"/>
<path d="M0 0 C0.7 0 1.3 0 2 0 C2.7 0.7 3.4 1.5 4.2 2.2 C8.8 6.7 13.8 9.8 20.3 10.2 C23.9 10 26.6 9.3 30 8 C29.4 11 28.7 14 28 17 C24.7 18.7 21.6 18.2 18 18 C9.5 14.9 4.3 8.6 0 1 C0 0.7 0 0.3 0 0 Z " fill="#E8A258" transform="translate(142,221)"/>
<path d="M0 0 C1.2 0.9 2.4 1.9 3.6 2.8 C9.1 6.9 13.4 9.4 20.4 8.7 C21.9 8.5 23.4 8.2 25 8 C24.7 12.3 24.3 16.6 24 21 C23.7 20 23.3 19 23 18 C21.7 18 20.4 17.9 19 17.9 C12.5 17.1 8.4 13.7 4.2 8.9 C0 3.6 0 3.6 0 0 Z " fill="#E4A25C" transform="translate(214,283)"/>
<path d="M0 0 C0.7 0 1.3 0 2 0 C5 10.9 8 22.6 8 34 C6 34 4 34 2 34 C1.8 32.8 1.7 31.7 1.5 30.5 C1.3 28.9 1.1 27.4 0.8 25.8 C0.6 24.3 0.4 22.8 0.1 21.2 C-1.1 16.6 -2.4 15 -6 12 C-6.3 11.3 -6.7 10.7 -7 10 C-4 11 -1.1 12 2 13 C1.3 8.7 0.7 4.4 0 0 Z " fill="#332D2A" transform="translate(447,440)"/>
<path d="M0 0 C0.3 0 0.7 0 1 0 C1 18.5 1 37 1 56 C3.6 56.3 6.3 56.7 9 57 C9 57.3 9 57.7 9 58 C4.6 58.1 0.2 58.1 -4.2 58.2 C-5.5 58.2 -6.7 58.2 -8 58.3 C-16.1 58.3 -23.2 57.4 -31 55 C-30.7 54 -30.3 53 -30 52 C-24.5 52.5 -19.2 53.3 -13.8 54.5 C-9.6 55.2 -5.3 55.6 -1 56 C-1 54.9 -1 53.8 -1 52.6 C-1.1 35.1 -0.6 17.5 0 0 Z " fill="#436171" transform="translate(231,359)"/>
<path d="M0 0 C0.3 0.7 0.7 1.3 1 2 C1.7 2.2 1.7 2.2 5 3 C5 3.7 5 4.3 5 5 C11.2 7.6 17.7 8.1 24.1 6 C24.7 5.7 25.4 5.3 26 5 C26 7.6 26 10.3 26 13 C21.2 15.6 17.3 15.1 12 14 C9.1 12.2 6.7 10.2 4 8 C2.7 7.3 1.4 6.7 0 6 C0 4 0 2 0 0 Z " fill="#E7A259" transform="translate(282,229)"/>
<path d="M0 0 C-0.3 4.3 -0.7 8.6 -1 13 C-5.9 14.2 -7.6 13.1 -12 11 C-12.3 7.4 -12.7 3.7 -13 0 C-8.3 -1.2 -4.7 -0.6 0 0 Z " fill="#81553E" transform="translate(298,366)"/>
<path d="M0 0 C1.7 0 3.3 0 5 0 C7 6.9 8.1 11.8 7 19 C4.7 18.8 4.7 18.8 2 18 C-1.8 12.9 -2.3 9.3 -2 3 C-1.3 2 -0.7 1 0 0 Z " fill="#E0AA77" transform="translate(130,185)"/>
<path d="M0 0 C5.6 -0.3 9.2 0.1 14 3 C11.7 7.7 9.2 9.9 5 13 C3.7 12.7 2.4 12.3 1 12 C-0.8 8.4 -0.1 4 0 0 Z " fill="#395367" transform="translate(389,278)"/>
<path d="M0 0 C2 -0 4 -0 5.9 -0.1 C7 -0.1 8.1 -0.1 9.3 -0.1 C12 0 12 0 13 1 C13 3.3 13 5.7 13 8 C8.5 9.8 4.8 10.2 0 10 C-1 6.3 -0.8 3.7 0 0 Z " fill="#82573D" transform="translate(231,418)"/>
<path d="M0 0 C2.4 0.1 4.8 0.3 7.2 0.4 C7.9 0.5 7.9 0.5 11.3 0.7 C15 1 15 1 19 2 C18.7 3 18.3 4 18 5 C17.3 5 16.7 5 16 5 C16 6 16 7 16 8 C11.4 10.3 9.9 10.5 5 9 C0 3.1 0 3.1 0 0 Z " fill="#D8AB85" transform="translate(222,274)"/>
<path d="M0 0 C6 9.1 3 23 1 33 C-2.2 26.6 -3.5 21 -2 14 C-2.3 13 -2.7 12 -3 11 C-2.4 8.3 -2.4 8.3 -1.6 5.3 C-1.3 4.3 -1 3.3 -0.7 2.3 C-0.5 1.5 -0.2 0.8 0 0 Z " fill="#EAEFE8" transform="translate(95,340)"/>
<path d="M0 0 C1.7 0.3 3.3 0.7 5 1 C5 4.3 5 7.6 5 11 C6 11 7 11 8 11 C9 10 10 9 11 8 C9.5 12.1 7.5 15.4 5 19 C1.5 14.9 -1.2 10.6 -4 6 C-2.7 4 -1.4 2 0 0 Z " fill="#BBA789" transform="translate(188,421)"/>
<path d="M0 0 C3.3 0 6.6 0 10 0 C9.7 0.2 9.7 0.2 8 1 C8 2.1 8 3.2 8.1 4.3 C8 8 8 8 7 11 C5.2 10.7 3.4 10.4 1.6 10.1 C0.6 10 -0.4 9.8 -1.4 9.6 C-4 9 -4 9 -6 7 C-5.7 5.7 -5.3 4.4 -5 3 C-2.4 1.8 -2.4 1.8 0 1 C0 0.7 0 0.3 0 0 Z " fill="#835A40" transform="translate(200,415)"/>
<path d="M0 0 C0 4.3 0 8.6 0 13 C-0.7 13 -1.3 13 -2 13 C-2.3 13.7 -2.7 14.3 -3 15 C-9.9 9.5 -9.9 9.5 -11 5 C-7.7 1.7 -4.7 0 0 0 Z " fill="#385164" transform="translate(354,280)"/>
<path d="M0 0 C-0.5 4.5 -2.4 7.3 -5 11 C-6.3 9.4 -7.6 7.7 -9 6 C-10 7 -11 8 -12 9 C-11 9.7 -10 10.3 -9 11 C-10 12 -11 13 -12 14 C-12.7 14 -13.3 14 -14 14 C-14.3 14.7 -14.7 15.3 -15 16 C-17 12 -17 12 -16.9 9.5 C-15.8 6.4 -14.6 5 -12 3 C-9.5 2.4 -9.5 2.4 -7 2 C-3 0 -3 0 0 0 Z " fill="#E3B286" transform="translate(103,413)"/>
</svg>
