<?xml version="1.0" encoding="UTF-8"?>
<svg xmlns="http://www.w3.org/2000/svg" width="600" height="600" viewBox="0 0 600 600" role="img" aria-label="Crowd">
  <rect width="600" height="600" fill="#EEF3EE"/>
  <rect y="470" width="600" height="130" fill="#D5E4D7"/>
  <rect x="85" y="280" width="70" height="150" rx="16" fill="#4A5F7A"/>
  <circle cx="120" cy="258" r="38" fill="#5C4033"/>
  <circle cx="120" cy="263" r="26" fill="#E8C4A8"/>
  <circle cx="112" cy="261" r="3" fill="#3A3F45"/>
  <circle cx="128" cy="261" r="3" fill="#3A3F45"/>
  <rect x="185" y="260" width="70" height="170" rx="16" fill="#B9412E"/>
  <circle cx="220" cy="238" r="38" fill="#5C4033"/>
  <circle cx="220" cy="243" r="26" fill="#E8C4A8"/>
  <circle cx="212" cy="241" r="3" fill="#3A3F45"/>
  <circle cx="228" cy="241" r="3" fill="#3A3F45"/>
  <rect x="285" y="275" width="70" height="155" rx="16" fill="#8B6540"/>
  <circle cx="320" cy="253" r="38" fill="#5C4033"/>
  <circle cx="320" cy="258" r="26" fill="#E8C4A8"/>
  <circle cx="312" cy="256" r="3" fill="#3A3F45"/>
  <circle cx="328" cy="256" r="3" fill="#3A3F45"/>
  <rect x="385" y="265" width="70" height="165" rx="16" fill="#5A8B8B"/>
  <circle cx="420" cy="243" r="38" fill="#5C4033"/>
  <circle cx="420" cy="248" r="26" fill="#E8C4A8"/>
  <circle cx="412" cy="246" r="3" fill="#3A3F45"/>
  <circle cx="428" cy="246" r="3" fill="#3A3F45"/>
  <rect x="133" y="340" width="75" height="130" rx="16" fill="#D46A57"/>
  <circle cx="170" cy="314" r="42" fill="#5C4033"/>
  <circle cx="170" cy="319" r="29" fill="#E8C4A8"/>
  <circle cx="162" cy="317" r="3" fill="#3A3F45"/>
  <circle cx="178" cy="317" r="3" fill="#3A3F45"/>
  <rect x="260" y="330" width="80" height="140" rx="16" fill="#6FA07D"/>
  <circle cx="300" cy="302" r="44" fill="#5C4033"/>
  <circle cx="300" cy="307" r="30" fill="#E8C4A8"/>
  <circle cx="292" cy="305" r="3" fill="#3A3F45"/>
  <circle cx="308" cy="305" r="3" fill="#3A3F45"/>
  <rect x="393" y="335" width="75" height="135" rx="16" fill="#E8A84A"/>
  <circle cx="430" cy="309" r="42" fill="#5C4033"/>
  <circle cx="430" cy="314" r="29" fill="#E8C4A8"/>
  <circle cx="422" cy="312" r="3" fill="#3A3F45"/>
  <circle cx="438" cy="312" r="3" fill="#3A3F45"/>
</svg>
