<?xml version="1.0" encoding="UTF-8"?>
<!-- Generator: visioncortex VTracer 0.6.12 -->
<svg version="1.1" xmlns="http://www.w3.org/2000/svg" width="600" height="600" viewBox="0 0 600 600" role="img" aria-label="Father">
<path d="M0 0 C198 0 396 0 600 0 C600 198 600 396 600 600 C402 600 204 600 0 600 C0 402 0 204 0 0 Z " fill="#EDF2ED" transform="translate(0,0)"/>
<path d="M0 0 C1.2 0.4 2.4 0.9 3.7 1.3 C11.8 4.4 19.6 8.2 27.4 12.2 C36.8 16.9 44.5 18.7 55 19 C53.6 23.5 52.1 26.5 49 30 C49.8 30 50.6 30.1 51.5 30.1 C56.5 31.4 59.2 33.6 63 37 C66.6 42.9 68 46 68 53 C66 52 64 51 62 50 C62.7 51.5 63.3 53 64 54.6 C66.7 61.9 66.6 66.7 64 74 C63.3 74.3 62.7 74.7 62 75 C61.3 73.3 60.7 71.7 60 70 C59.9 70.9 59.7 71.7 59.6 72.6 C57.6 83.4 53.7 91.7 47.5 100.7 C46.6 101.9 45.8 103.1 44.9 104.4 C44.5 104.9 44.5 104.9 42.5 107.7 C40.5 112 41.4 113.7 43 118 C42.6 133 36.1 140.9 26 151 C25.1 152.8 24.2 154.6 23.4 156.5 C17.2 169.3 5.7 179.7 -7 186 C-3.1 195.8 -3.1 195.8 2.1 198.8 C3.3 199.3 4.5 199.8 5.8 200.3 C7.1 200.9 8.5 201.5 9.9 202.1 C11.3 202.6 12.7 203.2 14.2 203.8 C17.1 205 20 206.3 22.9 207.5 C24.3 208.1 25.7 208.7 27.1 209.3 C34.3 212.5 41.2 216.1 48 220 C48.7 220.3 49.3 220.7 50 221 C49.7 219.6 49.3 218.2 49 216.8 C48 212 48 212 48 207 C47.3 207.3 47.3 207.3 44 209 C43.3 197.3 46.6 189 54 180 C52.8 180.3 52.8 180.3 47 182 C51.8 170 62.2 162.3 73.7 157.3 C78.1 155.6 82.5 154.2 87 153 C84.4 152.3 81.7 151.7 79 151 C86.9 143.1 104.4 142.9 114.7 142.6 C131.9 142.8 146.3 147.1 159 158.9 C161 161 161 161 163 164 C162.7 161 162.3 158.1 162 155 C166.9 158.2 168.3 161.4 170 167 C170.3 168.7 170.7 170.3 171 172 C172.5 171.9 174.1 171.9 175.7 171.8 C181 172 181 172 186 175 C186 175.3 186 175.7 186 176 C183 176.3 180.1 176.7 177 177 C177.8 177.5 178.6 177.9 179.5 178.4 C189.6 185.8 194.6 194.9 197 207 C197 210.3 197 213.7 197 217 C196.5 216.5 196.5 216.5 194 214 C194 214.7 194 214.7 194.2 218.2 C193.8 230.7 189.9 242.1 181 251 C177 249 177 249 174 247 C168 247 168 247 163 250 C161 252.7 159 255.3 157 258 C156.3 258 155.7 258 155 258 C155 257.1 155.1 256.2 155.1 255.3 C155.3 251.1 155.3 246.9 155.4 242.8 C155.5 241.3 155.6 239.9 155.6 238.4 C155.8 229.6 154.8 223.9 149.7 216.7 C146.8 212.1 146.1 207.3 145 202 C144.7 201 144.3 200 144 199 C142.9 199.9 141.8 200.8 140.7 201.8 C135.1 205.6 129 209 122 209 C124 205 124 205 127 200 C125.4 200.7 123.7 201.3 122 202 C113.3 205.2 105.3 207.6 96 208 C96.6 203.9 97.4 200.9 99 197 C97.9 197.6 96.8 198.1 95.7 198.7 C95 199 95 199 91.3 200.9 C89.9 201.6 88.5 202.3 87 203.1 C83 205 83 205 78 207 C78 203.7 78 200.4 78 197 C67.2 206.2 62.8 218.4 61.7 232.3 C61.7 233.4 61.6 234.4 61.5 235.6 C61 241 61 241 59 243 C58.5 241 58.5 241 56 231 C51 233 51 233 49.2 236 C46.6 244.9 47.8 251.9 52 260 C53.2 260.9 54.3 261.9 55.5 262.8 C59.9 266.8 60.5 270.1 62 275.7 C66.1 289.2 76.5 296.6 87.9 304 C91 306 91 306 92 307 C92.2 311.2 92 315 91.2 319.2 C90.9 325 92.3 328 94.9 333.1 C95.7 334.6 96.4 336.1 97.2 337.6 C97.8 338.7 98.4 339.8 99 341 C102.6 339.2 105.1 337.4 108.2 334.8 C111.6 331.9 115.1 329.2 118.7 326.4 C120.1 325.3 121.5 324.2 123 323 C124.5 321.8 126 320.6 127.6 319.4 C132.2 313.5 131.8 309.2 131 302 C136.4 302.7 138.5 303.8 142 308 C145 313 145 313 145 315 C145.9 315.2 146.7 315.4 147.6 315.6 C153.7 316.9 159.4 318.2 165 321 C164.5 322.4 164 323.9 163.4 325.4 C162 330 162 330 163 332 C165.6 332 168.3 332 171 332 C170.3 333.3 169.7 334.6 169 336 C169 338 169 340 169 342 C170.1 342 171.2 342 172.3 342 C174.5 342 176.8 342 179 342 C178.3 342.7 177.7 343.3 177 344 C177.3 345.6 177.7 347.3 178 349 C182 350 182 350 187 349 C187 351 187 353 187 355 C192.1 354.5 197 354 202 353 C203.3 355.6 204.6 358.3 206 361 C207 360.3 208 359.7 209 359 C225.1 374.8 227 401.6 228.8 423 C229.4 428.9 229.6 430.6 234 435 C239.1 452.2 237.6 475.1 229 491 C222.6 500.5 212.8 503.7 202 506 C196.1 506.9 190.4 507 184.4 506.9 C175.1 506.7 166.7 507.1 157.7 509.9 C123.7 519.9 76.2 519.6 43 507 C41 505 41 505 41 501.1 C41.1 499.4 41.1 497.8 41.2 496.1 C41.3 494.3 41.4 492.5 41.5 490.6 C41.6 488.7 41.8 486.8 41.9 484.9 C42 483 42.1 481.1 42.2 479.1 C42.5 474.4 42.7 469.7 43 465 C40 465 40 465 36.4 467 C31.3 473 32 478.7 32.1 486.4 C32 487.8 32 489.2 32 490.6 C32 494.1 32 497.5 32 501 C4.2 510.7 -25.2 512.4 -54.4 512.3 C-55.5 512.3 -56.5 512.3 -57.6 512.3 C-142.9 512.1 -142.9 512.1 -157 498 C-156.8 481.7 -155.2 465.3 -154 449 C-155.7 448.7 -157.4 448.4 -159.1 448.1 C-170.7 446 -181.4 441.6 -189.8 433.2 C-200.7 417.3 -199.2 397.5 -199.2 379.1 C-199.3 377.9 -199.3 376.8 -199.3 375.6 C-199.2 254.7 -199.2 254.7 -171.1 224.9 C-155.8 212.4 -136.3 204.2 -117.9 197.3 C-116.8 196.8 -115.6 196.4 -114.4 195.9 C-112.2 195 -109.9 194.2 -107.6 193.4 C-100.2 190.5 -97 187.1 -93.5 179.9 C-90.3 173.5 -86.8 168.7 -80 166 C-79 166 -78 166 -77 166 C-76 155.6 -75.2 147.6 -80 138 C-80.2 136.7 -80.5 135.4 -80.8 134.1 C-82.6 129.6 -85.7 129.1 -90 127 C-97.3 118.9 -99.6 110.8 -99.4 100.1 C-98.8 95.6 -97.3 91.3 -94 88 C-94.4 82.9 -94.9 77.8 -95.5 72.8 C-97.1 57.5 -97.5 42.9 -89.2 29.6 C-84.4 24.3 -80.2 20.7 -73.3 18.6 C-67.8 16.5 -66.9 14.1 -64 9 C-48 -7.6 -20.5 -7.5 0 0 Z " fill="#3B4F6B" transform="translate(276,39)"/>
<path d="M0 0 C0.3 0 0.7 0 1 0 C0.3 13.3 -0.3 26.7 -1 40 C59.4 57.7 126 58.4 187 43 C187 42.1 186.9 41.3 186.9 40.4 C186.7 36.4 186.6 32.5 186.4 28.5 C186.4 27.1 186.3 25.8 186.2 24.4 C186 14.4 186 14.4 189 10.2 C191.5 8 191.5 8 196 5 C197 5.7 198 6.3 199 7 C198.3 20.2 197.7 33.4 197 47 C216.6 54.8 236.4 56.4 257.4 56.3 C258.3 56.3 258.3 56.3 262.7 56.3 C281.4 56.1 299.4 54.6 317.5 49.9 C324.3 48.2 330.6 47.9 337.6 48.1 C353 48.1 369.2 47.2 381 36 C387.3 26.2 388.9 16.4 390 5 C390.3 4.3 390.7 3.7 391 3 C420 3 449.1 3 479 3 C479 36 479 69 479 103 C281 103 83 103 -121 103 C-121 70 -121 37 -121 3 C-81.1 3 -41.1 3 0 3 C0 2 0 1 0 0 Z " fill="#D4E3D6" transform="translate(121,497)"/>
<path d="M0 0 C5.4 0.7 7.5 1.8 11 6 C14 11 14 11 14 13 C14.9 13.2 15.7 13.4 16.6 13.6 C22.7 14.9 28.4 16.2 34 19 C33.5 20.4 33 21.9 32.4 23.4 C31 28 31 28 32 30 C34.6 30 37.3 30 40 30 C39.3 31.3 38.7 32.6 38 34 C38 36 38 38 38 40 C39.1 40 40.2 40 41.3 40 C43.5 40 45.8 40 48 40 C47.3 40.7 46.7 41.3 46 42 C46.3 43.6 46.7 45.3 47 47 C51 48 51 48 56 47 C56 49 56 51 56 53 C61.1 52.5 66 52 71 51 C71.7 52.3 71.7 52.3 75 59 C76 58.3 77 57.7 78 57 C94.1 72.8 96 99.6 97.8 121 C98.4 126.9 98.6 128.6 103 133 C108.1 150.2 106.6 173.1 98 189 C91.6 198.5 81.8 201.7 71 204 C65.1 204.9 59.4 205 53.4 204.9 C44.1 204.7 35.7 205.1 26.7 207.9 C-7.3 217.9 -54.8 217.6 -88 205 C-90 203 -90 203 -90 199.1 C-89.9 197.4 -89.9 195.8 -89.8 194.1 C-89.7 192.3 -89.6 190.5 -89.5 188.6 C-89.4 186.7 -89.2 184.8 -89.1 182.9 C-89 181 -88.9 179.1 -88.8 177.1 C-88.5 172.4 -88.3 167.7 -88 163 C-92.6 163 -94.6 166.1 -98 169 C-104.5 172.9 -110.6 172.9 -118 172 C-124.6 169.1 -129.7 164.5 -133 158 C-134.4 152.7 -135.3 147.4 -136 142 C-137 142.8 -137.9 143.5 -138.9 144.3 C-148.7 150.8 -158.8 151.2 -170 149 C-173.2 148.9 -176.4 148.8 -179.6 148.7 C-181.5 148.7 -183.4 148.6 -185.3 148.6 C-187.4 148.6 -189.4 148.5 -191.4 148.5 C-203.9 148.3 -216.5 148 -229 147 C-228.4 132.6 -223.9 119.1 -216 107 C-212.9 105.4 -210.3 106.6 -206.9 107.2 C-205.4 107.5 -203.9 107.8 -202.4 108 C-199.4 108.6 -196.3 109.2 -193.2 109.8 C-167.9 114.5 -167.9 114.5 -156 107 C-152.2 104.2 -148.4 101.4 -144.7 98.5 C-138.4 94.3 -133.1 92.6 -125.5 92.8 C-124.3 92.8 -123 92.9 -121.8 92.9 C-120.9 92.9 -119.9 93 -119 93 C-118.8 92.2 -118.8 92.2 -117.8 88.3 C-116 81.6 -113.7 75.2 -111.2 68.7 C-110.8 67.5 -110.4 66.3 -109.9 65.1 C-107.2 57.7 -104 50.8 -100.3 43.8 C-98.3 39.6 -97.6 35.6 -97 31 C-96.3 31.3 -96.3 31.3 -93 33 C-92.3 32.4 -92.3 32.4 -88.8 29.6 C-84 26 -84 26 -80 24 C-79.4 23.2 -78.7 22.5 -78.1 21.7 C-70.5 15.1 -60.8 13.4 -51 13 C-50.3 11.7 -49.7 10.4 -49 9 C-46.1 6.2 -46.1 6.2 -43 4 C-42.3 4.2 -42.3 4.2 -39 5 C-38.9 9.2 -39 13.1 -39.8 17.2 C-40.1 23 -38.7 26 -36.1 31.1 C-35.7 31.8 -35.7 31.8 -33.8 35.6 C-33.2 36.7 -32.6 37.8 -32 39 C-28.4 37.2 -25.9 35.4 -22.8 32.8 C-19.4 29.9 -15.9 27.2 -12.3 24.4 C-11.6 23.9 -11.6 23.9 -8 21 C-6.5 19.8 -5 18.6 -3.4 17.4 C1.2 11.5 0.8 7.2 0 0 Z " fill="#C33A27" transform="translate(407,341)"/>
<path d="M0 0 C1.2 0.4 2.4 0.9 3.7 1.3 C11.8 4.4 19.6 8.2 27.4 12.2 C36.8 16.9 44.5 18.7 55 19 C53.6 23.5 52.1 26.5 49 30 C49.8 30 50.6 30.1 51.5 30.1 C56.5 31.4 59.2 33.6 63 37 C66.6 42.9 68 46 68 53 C66 52 64 51 62 50 C62.7 51.5 63.3 53 64 54.6 C66.7 61.9 66.6 66.7 64 74 C63.7 74.2 63.7 74.2 62 75 C61.3 73.3 60.7 71.7 60 70 C59.9 70.4 59.9 70.4 59.6 72.6 C57.6 83.4 53.7 91.7 47.5 100.7 C46.6 101.9 45.8 103.1 44.9 104.4 C44.5 104.9 44.5 104.9 42.5 107.7 C40.5 112 41.4 113.7 43 118 C42.6 133 36.1 140.9 26 151 C25.1 152.8 24.2 154.6 23.4 156.5 C16.1 171.5 2 182.4 -13 189 C-14.6 189.3 -16.3 189.7 -18 190 C-18.1 191.1 -18.2 192.2 -18.3 193.4 C-20.1 209.5 -23.8 222.8 -35 235 C-39.7 231.5 -42.3 228.3 -44.9 223.1 C-48.9 215.9 -53.5 211.1 -59.8 205.8 C-67 199.3 -75.1 191.9 -79 183 C-78.9 178.5 -78.6 174.5 -78 170 C-77.5 166.3 -77.1 162.5 -76.7 158.8 C-76.5 157 -76.2 155.2 -76 153.3 C-76 147.3 -77.5 143.5 -80 138 C-80.2 136.7 -80.5 135.4 -80.8 134.1 C-82.6 129.6 -85.7 129.1 -90 127 C-97.3 118.9 -99.6 110.8 -99.4 100.1 C-98.8 95.6 -97.3 91.3 -94 88 C-94.4 82.9 -94.9 77.8 -95.5 72.8 C-97.1 57.5 -97.5 42.9 -89.2 29.6 C-84.4 24.3 -80.2 20.7 -73.3 18.6 C-67.8 16.5 -66.9 14.1 -64 9 C-48 -7.6 -20.5 -7.5 0 0 Z " fill="#F7BE8E" transform="translate(276,39)"/>
<path d="M0 0 C6.6 1.6 12.8 3.1 19 6 C18.5 7.4 18 8.9 17.4 10.4 C16 15 16 15 17 17 C19.6 17 22.3 17 25 17 C24.3 18.3 23.7 19.6 23 21 C23 23 23 25 23 27 C24.1 27 25.2 27 26.3 27 C28.5 27 30.8 27 33 27 C32.3 27.7 31.7 28.3 31 29 C31.2 29.8 31.2 29.8 32 34 C36 35 36 35 41 34 C41 36 41 38 41 40 C46.1 39.5 51 39 56 38 C57.3 40.6 58.6 43.3 60 46 C61 45.3 62 44.7 63 44 C79.1 59.8 81 86.6 82.8 108 C83.4 113.9 83.6 115.6 88 120 C93.1 137.2 91.6 160.1 83 176 C76.6 185.5 66.8 188.7 56 191 C49.5 191.9 43.1 192.1 36.6 192.1 C35.7 192.1 35.7 192.1 31.3 192.1 C27 192 27 192 25 191 C23.9 182.2 23.9 182.2 25 180 C23.7 179.8 22.4 179.6 21.1 179.4 C13 177.2 8.5 173.1 3.7 166.4 C-0.2 159.4 -2.2 151.7 -3.9 143.9 C-4.9 140.4 -6.2 137.6 -7.9 134.3 C-11.4 127.5 -15 119.7 -15 112 C-13.4 112 -11.7 112 -10 112 C-7.6 114.9 -5.3 117.9 -3 121 C0.4 124.2 2.5 125.2 7 127 C12.5 125.9 13.5 125.2 17 121 C22.4 111.1 22.7 104.9 20 94 C19.7 92.7 19.4 91.4 19.2 90 C18.8 88.6 18.5 87.2 18.2 85.8 C18 85.1 18 85.1 17.3 81.7 C15.4 76.2 12.4 73.9 7.6 70.9 C1.5 68.4 -4.6 67.2 -11 66 C-11.2 57.3 -10.3 49.1 -8.9 40.4 C-6.9 27.3 -6.9 27.3 -8 25 C-7.4 24 -6.9 23 -6.3 21.9 C-3 14.9 -1.6 7.6 0 0 Z " fill="#C43A27" transform="translate(422,354)"/>
<path d="M0 0 C1 4 1 4 1 10 C3.8 8.7 6.5 7.4 9.2 6.1 C10.8 5.4 12.3 4.7 13.9 3.9 C16.6 2.7 19.3 1.3 22 0 C20.7 4 19.3 8 18 12 C28.6 9.9 38.2 7.5 48 3 C49 2.7 50 2.3 51 2 C51 2.7 51 3.3 51 4 C50.3 4 49.7 4 49 4 C48.3 5.7 47.7 7.3 47 9 C46 10.3 45 11.6 44 13 C52.1 10.6 58.1 7.8 65 3 C66 3 67 3 68 3 C68.2 4.8 68.5 6.5 68.7 8.4 C70 16.6 73.8 22.9 78 30 C78.4 33.1 78.4 33.1 78.3 36.5 C78.3 37.7 78.3 38.9 78.3 40.2 C78.3 41.5 78.3 42.7 78.2 44.1 C78.2 45.3 78.2 46.6 78.2 47.9 C78.2 57.4 78.2 57.4 77 62 C77.7 62 78.3 62 79 62 C79.7 60.7 80.3 59.4 81 58 C83.8 54 85.6 52.6 90 50 C96 50 96 50 99.9 51.8 C103 55 103 55 103.7 60.2 C102.7 68.4 101 73.9 95.2 79.9 C89 84.5 84.8 86 77 86 C73.9 87.7 73.9 87.7 70.7 90.1 C69.6 90.9 68.4 91.7 67.3 92.5 C66.2 93.4 65.1 94.2 64 95 C63.1 95.7 62.1 96.3 61.2 97 C55.1 101.5 55.1 101.5 54 106 C54.1 106.5 54.1 106.5 54.3 108.8 C54.9 114.2 54.9 117.7 51.7 122.2 C46.2 127.9 40.1 132.7 33.6 137.2 C29.8 139.9 26.4 142.9 23 146 C18.5 144.5 17.9 141.7 15.8 137.5 C11.5 128.3 11.4 120.9 13 111 C12.2 110.5 11.5 110.1 10.7 109.6 C-2 101.3 -12.6 92.7 -18 78 C-18.2 76.7 -18.5 75.3 -18.8 73.9 C-20 70 -20 70 -23.4 67.1 C-29.3 62 -30.8 56.4 -31.4 48.8 C-30.9 43.3 -30 39 -26 35 C-24.7 35 -23.4 35 -22 35 C-20.7 38.3 -19.4 41.6 -18 45 C-17.9 44.4 -17.9 44.4 -17.7 41.4 C-16 24.6 -12.9 11.9 0 0 Z " fill="#F4BE8E" transform="translate(354,235)"/>
<path d="M0 0 C1 0.7 2 1.3 3 2 C2.3 15.2 1.7 28.4 1 42 C20.6 49.8 40.4 51.4 61.4 51.3 C62.3 51.3 62.3 51.3 66.7 51.3 C85.4 51.1 103.4 49.6 121.5 44.9 C128.3 43.2 134.6 42.9 141.6 43.1 C157.8 43.1 172.2 41.8 185 31 C186 30 187 29 188 28 C190.7 29 193.3 30 196 31 C196.5 31.2 196.5 31.2 199.2 32.1 C210.2 36.1 210.2 36.1 214 41 C213 46 213 46 210.4 48.5 C126.3 96.5 -125.1 78.6 -221.6 55.6 C-229.6 53.2 -237.5 50.6 -243 44 C-241.7 39 -240.2 38 -236 35 C-224.1 30 -210.9 26 -198 26 C-197.8 25.5 -197.8 25.5 -197 23 C-197 27 -197 30.9 -197 35 C-136.6 52.7 -70 53.4 -9 38 C-9 37.1 -9.1 36.3 -9.1 35.4 C-9.3 31.4 -9.4 27.5 -9.6 23.5 C-9.6 22.1 -9.7 20.8 -9.8 19.4 C-10 9.4 -10 9.4 -7 5.2 C-4.5 3 -4.5 3 0 0 Z " fill="#B9C8AE" transform="translate(317,502)"/>
<path d="M0 0 C1.2 0.4 2.4 0.9 3.7 1.3 C11.8 4.4 19.6 8.2 27.4 12.2 C36.8 16.9 44.5 18.7 55 19 C53.6 23.5 52.1 26.5 49 30 C49.8 30 50.6 30.1 51.5 30.1 C56.5 31.4 59.2 33.6 63 37 C66.6 42.9 68 46 68 53 C66 52 64 51 62 50 C62.7 51.5 63.3 53 64 54.6 C66.7 61.9 66.6 66.7 64 74 C63.7 74.2 63.7 74.2 62 75 C61.3 73.3 60.7 71.7 60 70 C59.9 70.4 59.9 70.4 59.6 72.6 C57.4 84.7 52.2 93.7 45.5 103.9 C40.9 110.9 37.4 118.3 34 126 C32.7 120.9 33.9 118.1 35.3 113.1 C39.8 96.4 42.5 80.8 37 64 C36.1 63.9 36.1 63.9 31.3 63.2 C28.8 62.8 26.3 62.4 23.8 62.1 C22.6 61.9 21.3 61.7 20 61.5 C19.4 61.4 19.4 61.4 16.4 61 C15.8 60.9 15.8 60.9 13 60.5 C10.4 60.1 7.7 59.5 5 59 C5 58.3 5 57.7 5 57 C6.6 56.7 8.3 56.3 10 56 C8.4 55.9 6.9 55.8 5.3 55.7 C-11.6 54.6 -28.1 53.1 -44 47 C-45 47 -46 47 -47 47 C-47 47.4 -47 47.4 -47.2 49.6 C-48.3 60.5 -51.6 70.2 -59.1 78.4 C-65.6 86.5 -67.4 98.1 -70 108 C-70.7 108 -71.3 108 -72 108 C-72.4 106.7 -72.8 105.5 -73.1 104.2 C-73.6 102.6 -74.2 100.9 -74.7 99.2 C-75.2 97.6 -75.7 96 -76.2 94.3 C-78 90 -79 88.3 -83 86 C-86.8 85.7 -89.4 85.8 -93 87 C-96.7 67.8 -100 47 -89.2 29.6 C-84.4 24.3 -80.2 20.7 -73.3 18.6 C-67.8 16.5 -66.9 14.1 -64 9 C-48 -7.6 -20.5 -7.5 0 0 Z " fill="#3D2E27" transform="translate(276,39)"/>
<path d="M0 0 C-0.2 0.5 -0.2 0.5 -1.1 2.8 C-4.2 11.6 -5.8 19.6 -6 29 C-6.3 29 -6.7 29 -7 29 C-7.3 26.4 -7.7 23.7 -8 21 C-13.8 37.6 -17.7 54.6 -20 72 C-21.3 71.3 -22.6 70.7 -24 70 C-32.8 69 -40.1 70.2 -48 74 C-55.9 82.1 -56.5 98 -57.4 108.8 C-56.8 115.1 -54.9 119.3 -50.2 123.5 C-46.1 125.4 -43.5 125.6 -39 125 C-35.3 121.7 -33.8 117.6 -32 113 C-29.4 113 -26.7 113 -24 113 C-23 115 -22 117 -21 119 C-21.7 120 -22.3 121 -23 122 C-23.7 122 -24.3 122 -25 122 C-26.4 128.8 -27.5 135.6 -28.4 142.4 C-31.1 161.5 -31.1 161.5 -36 168 C-36 162.1 -36 156.1 -36 150 C-40.6 150 -42.6 153.1 -46 156 C-52.5 159.9 -58.6 159.9 -66 159 C-72.6 156.1 -77.7 151.5 -81 145 C-82.4 139.7 -83.3 134.4 -84 129 C-85 129.8 -85.9 130.5 -86.9 131.3 C-96.7 137.8 -106.8 138.2 -118 136 C-121.2 135.9 -124.4 135.8 -127.6 135.7 C-129.5 135.7 -131.4 135.6 -133.3 135.6 C-135.4 135.6 -137.4 135.5 -139.4 135.5 C-151.9 135.3 -164.5 135 -177 134 C-176.4 119.6 -171.9 106.1 -164 94 C-160.9 92.4 -158.3 93.6 -154.9 94.2 C-153.4 94.5 -151.9 94.8 -150.4 95 C-147.4 95.6 -144.3 96.2 -141.2 96.8 C-115.9 101.5 -115.9 101.5 -104 94 C-100.2 91.2 -96.4 88.4 -92.7 85.5 C-86.4 81.3 -81.1 79.6 -73.5 79.8 C-72.3 79.8 -71 79.9 -69.8 79.9 C-68.9 79.9 -67.9 80 -67 80 C-66.8 79.2 -66.8 79.2 -65.8 75.3 C-64 68.6 -61.7 62.2 -59.2 55.7 C-58.8 54.5 -58.4 53.3 -57.9 52.1 C-55.2 44.7 -52 37.8 -48.3 30.8 C-46.3 26.6 -45.6 22.6 -45 18 C-44.3 18.3 -44.3 18.3 -41 20 C-40.3 19.4 -40.3 19.4 -36.8 16.6 C-32 13 -32 13 -28 11 C-27.4 10.2 -26.7 9.5 -26.1 8.7 C-19.1 2.6 -9.1 0 0 0 Z " fill="#C13A27" transform="translate(355,354)"/>
<path d="M0 0 C4.5 3.6 8.8 7.2 12 12 C11.8 10.5 11.8 10.5 11 3 C15.9 6.2 17.3 9.4 19 15 C19.2 15.8 19.2 15.8 20 20 C20.8 20 20.8 20 24.7 19.8 C30 20 30 20 35 23 C35 23.3 35 23.7 35 24 C33.5 24.2 33.5 24.2 26 25 C26.8 25.5 27.6 25.9 28.5 26.4 C38.6 33.8 43.6 42.9 46 55 C46 58.3 46 61.7 46 65 C45 64 44 63 43 62 C43.1 63.4 43.1 64.8 43.2 66.2 C42.8 78.7 38.9 90.1 30 99 C26 97 26 97 23 95 C17 95 17 95 12 98 C10 100.7 8 103.3 6 106 C5.3 106 4.7 106 4 106 C4 105.1 4.1 104.2 4.1 103.3 C4.3 99.1 4.3 94.9 4.4 90.8 C4.5 89.3 4.6 87.9 4.6 86.4 C4.8 77.6 3.8 71.9 -1.3 64.7 C-4.2 60.1 -4.9 55.3 -6 50 C-6.3 49 -6.7 48 -7 47 C-7.5 47.5 -7.5 47.5 -10.3 49.8 C-15.9 53.6 -22 57 -29 57 C-27 53 -27 53 -24 48 C-25.6 48.7 -27.3 49.3 -29 50 C-37.7 53.2 -45.7 55.6 -55 56 C-54.4 51.9 -53.6 48.9 -52 45 C-52.5 45.3 -52.5 45.3 -55.3 46.7 C-56.8 47.4 -58.2 48.1 -59.7 48.9 C-61.1 49.6 -62.5 50.3 -64 51.1 C-68 53 -68 53 -73 55 C-73 51.7 -73 48.4 -73 45 C-83.8 54.2 -88.2 66.4 -89.3 80.3 C-89.3 81.4 -89.4 82.4 -89.5 83.6 C-90 89 -90 89 -92 91 C-95 81.4 -95 81.4 -95 78 C-96 77.7 -97 77.3 -98 77 C-101.3 69.5 -102.6 63.1 -103 55 C-103.7 55.3 -103.7 55.3 -107 57 C-107.7 45.3 -104.4 37 -97 28 C-99.3 28.7 -101.6 29.3 -104 30 C-99.2 18 -88.8 10.3 -77.3 5.3 C-72.9 3.6 -68.5 2.2 -64 1 C-66.6 0.3 -69.3 -0.3 -72 -1 C-56.1 -16.9 -17 -10.3 0 0 Z " fill="#3D2E27" transform="translate(427,191)"/>
<path d="M0 0 C0.8 -0 0.8 -0 4.9 -0 C9.4 0.4 12.4 1.3 16.4 3.4 C14.7 9.5 11.7 14.8 8.8 20.4 C5.2 27.1 1.8 33.7 -1.3 40.6 C-3.5 45.1 -4 46.1 -8.6 48.4 C-9.9 48.7 -11.2 49.1 -12.6 49.4 C-13.7 50.2 -14.8 51 -16 51.9 C-24 57.5 -32.1 58 -41.6 57.4 C-43.2 57 -44.9 56.7 -46.6 56.4 C-49.8 56.2 -53 56.1 -56.1 56.1 C-58 56.1 -60 56 -61.9 56 C-63.9 55.9 -65.9 55.9 -67.9 55.9 C-80.5 55.7 -93 55.4 -105.6 54.4 C-105 40 -100.4 26.4 -92.6 14.4 C-89.4 12.8 -86.8 13.9 -83.4 14.6 C-82 14.9 -80.5 15.1 -79 15.4 C-75.9 16 -72.8 16.6 -69.8 17.2 C-44.5 21.9 -44.5 21.9 -32.6 14.4 C-28.8 11.6 -25 8.8 -21.3 5.9 C-14.3 1.1 -8.4 -0 0 0 Z " fill="#FCC390" transform="translate(283.5625,433.625)"/>
<path d="M0 0 C11.6 7.8 14.2 23.2 17 36 C19 46.8 20.4 57.6 21.3 68.6 C22 72 22 72 26 76 C31.1 93.2 29.6 116.1 21 132 C14.6 141.5 4.8 144.7 -6 147 C-12.5 147.9 -18.9 148.1 -25.4 148.1 C-26.3 148.1 -26.3 148.1 -30.7 148.1 C-35 148 -35 148 -37 147 C-38.1 138.2 -38.1 138.2 -37 136 C-38.3 135.8 -39.6 135.6 -40.9 135.4 C-49 133.2 -53.5 129.1 -58.3 122.4 C-62.2 115.4 -64.2 107.7 -65.9 99.9 C-66.9 96.4 -68.2 93.6 -69.9 90.3 C-73.4 83.5 -77 75.7 -77 68 C-75.4 68 -73.7 68 -72 68 C-69.6 70.9 -67.3 73.9 -65 77 C-62.7 79.1 -60.7 80.6 -58 82 C-56.5 85.3 -55.1 88.6 -54 92 C-53.5 92.2 -53.5 92.2 -51 93 C-51 93.7 -51 94.3 -51 95 C-49.8 95.2 -49.8 95.2 -44 96 C-45 97 -46 98 -47 99 C-46.6 99.3 -46.6 99.3 -44.8 100.8 C-43.1 102.1 -41.3 103.6 -39.6 105 C-34.4 109.4 -29.5 112.5 -23 115 C-22.4 115.3 -22.4 115.3 -19.4 116.8 C-12.1 118.8 -3.8 119.6 3.3 116.6 C9.4 113 12.1 108.4 15 102 C21.5 76 9.2 46.7 2 22.1 C1.5 20.4 0.9 18.7 0.4 16.9 C-0.1 15.3 -0.5 13.7 -1 12.1 C-2 8 -2 8 -2 2 C-1.3 1.3 -0.7 0.7 0 0 Z " fill="#892F24" transform="translate(484,398)"/>
<path d="M0 0 C6.3 3.3 9.5 5 13.2 11.2 C14.1 14.4 14.1 14.4 14.8 17.9 C15 19.2 15.2 20.4 15.5 21.7 C15.6 22.3 15.6 22.3 16.2 25.2 C16.4 26 16.4 26 17.4 30.1 C19.2 39.3 17.5 46.2 12.2 54.1 C10.2 56.2 10.2 56.2 5.2 59.2 C0.2 59.1 -2.9 57.3 -6.8 54.2 C-13.3 47.1 -13.3 47.1 -14.8 44.2 C-16.1 43.9 -17.3 43.7 -18.6 43.4 C-23.2 42.1 -25 41.1 -27.8 37.2 C-28.1 33.6 -28.1 33.6 -27.8 30.2 C-27.8 29.2 -27.8 28.2 -27.8 27.2 C-27.8 21.2 -27.8 21.2 -25.8 17.2 C-25.8 15.2 -25.8 13.2 -25.8 11.2 C-24.8 9.9 -23.8 8.5 -22.8 7.2 C-22.2 7.2 -21.5 7.2 -20.8 7.2 C-20.8 5.2 -20.8 3.2 -20.8 1.2 C-16.2 -5.8 -6.8 -2.5 0 0 Z " fill="#FDC28F" transform="translate(426.8125,422.8125)"/>
<path d="M0 0 C4 4 4 4 4 7 C5.3 7.3 6.6 7.7 8 8 C10.7 12.1 9.9 14.3 9 19 C8.3 19.7 7.7 20.3 7 21 C7 22.3 7 23.5 7 24.8 C7 29 7 29 5 34 C4.9 35 4.7 36.1 4.6 37.1 C4 40 4 40 1 43 C-3.7 43.7 -3.7 43.7 -8 44 C-8.3 45.6 -8.7 47.3 -9 49 C-10.8 52 -12.5 54.5 -15 57 C-19.4 57.4 -22.2 57.4 -26.2 55.4 C-30.1 52.1 -32.4 48.8 -34 44 C-34.4 31.6 -33.5 14.3 -24.8 4.6 C-17.1 0.3 -8.7 -1.5 0 0 Z " fill="#FCC28F" transform="translate(331,423)"/>
<path d="M0 0 C-0.2 0.5 -0.2 0.5 -1.1 2.8 C-4.2 11.6 -5.8 19.6 -6 29 C-6.3 29 -6.7 29 -7 29 C-7.2 27.7 -7.2 27.7 -8 21 C-13.8 37.6 -17.7 54.6 -20 72 C-21.3 71.3 -22.6 70.7 -24 70 C-27 69.8 -27 69.8 -30.3 69.8 C-31.4 69.8 -32.5 69.8 -33.6 69.8 C-37.1 70 -40.5 70.4 -44 71 C-44.3 68.8 -44.7 66.6 -45 64.4 C-45.2 63.2 -45.4 62 -45.6 60.7 C-46 57.1 -46.1 53.6 -46 50 C-43.1 54.3 -42.3 59 -41 64 C-40.9 62.9 -40.8 61.9 -40.7 60.8 C-39.2 44.8 -36 29.9 -30 15 C-30 14 -30 13 -30 12 C-22.4 3.9 -11 0 0 0 Z " fill="#872F24" transform="translate(355,354)"/>
<path d="M0 0 C4 0.3 6.4 1.2 10 3 C15 2 15 2 20 0 C24.3 -0.5 26.3 -0.5 29.9 1.9 C32 4 32 4 33 6 C34.3 6.4 35.6 6.8 36.9 7.2 C41 9 41 9 42.7 12.4 C43.1 13.6 43.6 14.8 44 16 C44.8 16.6 45.7 17.2 46.6 17.9 C50.1 21 50.1 24.4 51 29 C52 30.3 53 31.6 54 33 C53.8 39 53.3 43.9 50 49 C49 49.7 48 50.3 47 51 C46 48 45 45.1 44 42 C42.6 42.5 41.3 43 39.9 43.6 C35.4 44.9 33.4 45.2 29 44 C28.7 42.4 28.3 40.7 28 39 C27.1 39.2 26.2 39.5 25.2 39.7 C22 40 22 40 18 37 C18.3 35.4 18.7 33.7 19 32 C17.5 32 16 32 14.5 32.1 C11 32 11 32 10 31 C10 25 10 25 11 22 C9 22 7 22 5 22 C3 17 3 17 4.4 13.7 C4.9 12.8 5.4 11.9 6 11 C2.7 9.4 -0.6 7.7 -4 6 C-2 2 -2 2 0 0 Z " fill="#FCC28F" transform="translate(434,350)"/>
<path d="M0 0 C6.6 1.6 12.8 3.1 19 6 C18.5 7.4 18 8.9 17.4 10.4 C16 15 16 15 17 17 C19.6 17 22.3 17 25 17 C24 18.6 23 20.3 22 22 C20.4 25.9 19.4 29.2 18.6 33.3 C18.3 34.6 18.1 35.8 17.8 37.1 C17.5 38.3 17.3 39.6 17 40.9 C16.7 42.2 16.5 43.4 16.2 44.7 C14.5 53.1 13.1 61.5 12 70 C7.5 71.1 6 70.6 1.6 69.1 C-2.6 67.7 -6.6 66.6 -11 66 C-11.2 57.3 -10.3 49.1 -8.9 40.4 C-6.9 27.3 -6.9 27.3 -8 25 C-7.4 24 -6.9 23 -6.3 21.9 C-3 14.9 -1.6 7.6 0 0 Z " fill="#872F24" transform="translate(422,354)"/>
<path d="M0 0 C2 3 2 3 4.4 8.3 C11.9 23.2 23.3 36.2 39.1 42.2 C45.3 43.9 50.8 43.2 57 42 C54.9 56.9 50.4 66.5 41 78 C36.3 74.5 33.7 71.3 31.1 66.1 C27.1 58.9 22.5 54.1 16.2 48.8 C9 42.3 0.9 34.9 -3 26 C-3.2 21.6 -2.7 17.4 -2 13 C-1.9 12.4 -1.9 12.4 -1.5 9.3 C-1 6.2 -0.5 3.1 0 0 Z " fill="#FCC391" transform="translate(200,196)"/>
<path d="M0 0 C1.6 0 3.3 0 5 0 C7.4 2.9 9.7 5.9 12 9 C14.3 11.1 16.3 12.6 19 14 C20.5 17.3 21.9 20.6 23 24 C24 24.3 25 24.7 26 25 C26 25.7 26 26.3 26 27 C28.3 27.3 30.6 27.7 33 28 C32 29 31 30 30 31 C30.7 31.6 31.4 32.2 32.2 32.8 C34 34.2 35.7 35.6 37.5 37 C41.9 40.6 46.2 44 51 47 C49.8 58.6 47.8 69.9 40 79 C38.9 70.2 38.9 70.2 40 68 C38.7 67.8 37.4 67.6 36.1 67.4 C28 65.2 23.5 61.1 18.7 54.4 C14.8 47.4 12.8 39.7 11.1 31.9 C10.1 28.4 8.8 25.6 7.1 22.3 C3.6 15.5 0 7.7 0 0 Z " fill="#832E24" transform="translate(407,466)"/>
<path d="M0 0 C-0.4 1.3 -0.9 2.6 -1.3 3.9 C-6.4 19.4 -9.7 34.8 -11 51 C-11.3 51.2 -11.3 51.2 -13 52 C-14 48 -15 44.1 -16 40 C-15.7 46.3 -15.3 52.5 -15 59 C-17 60.3 -19 61.6 -21 63 C-23.7 68.5 -25.1 73.4 -25.9 79.4 C-27 85 -27 85 -30.1 87.2 C-31.1 87.5 -32 87.7 -33 88 C-32.5 82 -29.7 77.3 -27 72 C-27 71.3 -27 70.7 -27 70 C-30.6 69 -34.3 68 -38 67 C-35.9 58.7 -33.2 50.7 -30.2 42.7 C-29.8 41.5 -29.4 40.3 -28.9 39.1 C-26.2 31.7 -23 24.8 -19.3 17.8 C-17.3 13.6 -16.6 9.6 -16 5 C-14.7 5.7 -13.4 6.3 -12 7 C-10.6 5.8 -9.2 4.7 -7.7 3.5 C-3 0 -3 0 0 0 Z " fill="#C33D2A" transform="translate(326,367)"/>
<path d="M0 0 C1.7 0 3.3 0 5 0 C5.3 1.2 5.5 2.4 5.8 3.7 C10.8 24.4 21 41.1 39 53 C46.8 56.9 54.4 58.1 63 59 C62.7 62 62.3 64.9 62 68 C54.6 71 48.5 70.9 41.1 68.1 C25 60.7 13.4 45.7 6.1 29.9 C5 26 5 26 5.1 21.6 C5 16 3.2 12.1 1 7 C0.2 2.9 0.2 2.9 0 0 Z " fill="#E9B080" transform="translate(195,170)"/>
<path d="M0 0 C2 2 2 2 3 7 C-3.4 13.7 -9.8 19.9 -17.4 25.2 C-21.2 27.9 -24.6 30.9 -28 34 C-31 33 -31 33 -33.1 29.5 C-33.8 28 -34.5 26.5 -35.2 25 C-36 23.5 -36.7 22.1 -37.5 20.6 C-39.2 15.5 -39 12.2 -38 7 C-33 9 -33 9 -31 10 C-21 10.9 -15 9.2 -6.1 4.5 C-3 3 -3 3 0 3 C0 2 0 1 0 0 Z " fill="#FDC390" transform="translate(405,347)"/>
<path d="M0 0 C2.6 0 5.3 0 8 0 C9 2 10 4 11 6 C10.7 6.5 10.7 6.5 9 9 C8.3 9 7.7 9 7 9 C5.6 15.8 4.5 22.6 3.6 29.4 C0.9 48.5 0.9 48.5 -4 55 C-4 49.1 -4 43.1 -4 37 C-5 37 -6 37 -7 37 C-7.8 37.8 -8.6 38.6 -9.4 39.5 C-12 42 -12 42 -16 42 C-15 38 -15 38 -12 33 C-11.3 29.7 -10.7 26.3 -10 23 C-9.3 22.7 -8.7 22.3 -8 22 C-7.7 20.3 -7.5 18.7 -7.2 16.9 C-6.3 11.4 -4.2 7.7 -1 3 C-0.7 2 -0.3 1 0 0 Z " fill="#892F24" transform="translate(323,467)"/>
<path d="M0 0 C4 1 4 1 8 4 C11.8 5 15 5.2 18.9 5.2 C19.5 5.3 19.5 5.3 22.5 5.3 C26.3 5 28.7 3.8 32 2 C32.7 2.3 33.3 2.7 34 3 C33.8 7.2 33.5 9.5 30.7 12.8 C24 18.3 19.7 19.6 11 19 C5.5 17 4.1 15.2 1 10.1 C-1 5 -1 5 0 0 Z " fill="#8B2F24" transform="translate(360,311)"/>
<path d="M0 0 C1.6 0 3.3 0 5 0 C7.4 2.9 9.7 5.9 12 9 C14.3 11.1 16.3 12.6 19 14 C22 20.2 22 20.2 22 24 C19 26 19 26 16 26 C15 31 15 31 16.9 34.2 C17.3 34.7 17.3 34.7 19 37 C19 37.7 19 38.3 19 39 C19.7 39 20.3 39 21 39 C24.2 42.5 27.3 46 30 50 C16.2 43.1 7.7 26.3 2.7 12.3 C0 3.9 0 3.9 0 0 Z " fill="#582E25" transform="translate(407,466)"/>
<path d="M0 0 C3.3 3.2 6.3 6.5 9.2 9.9 C13.5 14.6 17.9 18.3 23 22 C24.3 23 25.6 24 27 25 C27.2 30.7 27.2 30.7 27 36 C19.7 34.8 15.4 32 10 27 C4.4 19.1 0 9.9 0 0 Z " fill="#8C2F24" transform="translate(419,498)"/>
<path d="M0 0 C4.6 2.3 8.7 5.1 13 8 C11.8 19.6 9.8 30.9 2 40 C1.9 39.2 1.9 39.2 1.6 35.3 C1.4 33.2 1.2 31.2 1.1 29.1 C1 28.1 0.9 27.1 0.8 26 C0.1 18.2 0.1 18.2 -1 16 C0.3 15.7 1.6 15.3 3 15 C3 12.7 3 10.4 3 8 C0 6 0 6 -3 6 C-2.7 4.7 -2.3 3.4 -2 2 C-1.7 2.3 -1.3 2.7 -1 3 C-0.7 2 -0.3 1 0 0 Z " fill="#3C2E26" transform="translate(445,505)"/>
<path d="M0 0 C2.6 0 5.3 0 8 0 C9 2 10 4 11 6 C10.7 6.5 10.7 6.5 9 9 C8.3 9 7.7 9 7 9 C5.6 15.8 4.5 22.6 3.6 29.4 C0.9 48.5 0.9 48.5 -4 55 C-4 48 -4 41 -4 34 C-3.3 34 -2.7 34 -2 34 C-1.9 33.2 -1.8 32.3 -1.7 31.4 C-1 28 -1 28 0.4 25 C2.7 19.2 3.3 13.2 4 7 C3 7.3 2 7.7 1 8 C0.7 9 0.3 10 0 11 C-1.3 10.3 -2.6 9.7 -4 9 C-2.7 6 -1.4 3.1 0 0 Z " fill="#692F25" transform="translate(323,467)"/>
<path d="M0 0 C0.3 0 0.7 0 1 0 C0.9 1.2 0.7 2.5 0.6 3.8 C-0.7 19.9 2.1 32.9 6.2 48.4 C7 52 7 52 7 56 C3 55 3 55 -2 53 C-3.8 46.1 -4.1 40.1 -3.8 33 C-3.7 32 -3.6 31 -3.6 30 C-3 20 -2.4 9.7 0 0 Z " fill="#8B2F24" transform="translate(445,398)"/>
<path d="M0 0 C0.3 1.7 0.7 3.3 1 5 C-4 6 -4 6 -8 5 C-11.8 4.9 -15.5 4.9 -19.2 4.9 C-20.3 4.9 -21.3 4.9 -22.4 5 C-24.9 5 -27.5 5 -30 5 C-30 3.7 -30 2.4 -30 1 C-20.7 -5.8 -10.2 -5.2 0 0 Z " fill="#42332E" transform="translate(257,123)"/>
<path d="M0 0 C3.8 1.5 3.8 1.5 6 3 C1.1 8.5 -2.3 9.8 -9.6 10.3 C-14 10 -14 10 -19 7 C-16.7 -2.1 -7.6 -0.7 0 0 Z " fill="#C73D2A" transform="translate(385,320)"/>
<path d="M0 0 C4.3 1.8 6.6 3.1 9.3 6.8 C9.3 8.5 9.3 10.1 9.3 11.8 C4.3 10.8 4.3 10.8 -0.4 8.9 C-5.5 6.9 -10.3 5.7 -15.7 4.8 C-15.4 3.2 -15 1.5 -14.7 -0.2 C-10 -2.5 -4.9 -1.2 0 0 Z " fill="#42312A" transform="translate(301.6875,131.1875)"/>
<path d="M0 0 C2.6 4 2.4 6.3 2 11 C0.3 14 0.3 14 -2 16 C-3.6 16 -5.3 16 -7 16 C-10 13 -10 13 -11 8 C-8.7 1.2 -7.6 -1.5 0 0 Z " fill="#483E38" transform="translate(410,281)"/>
<path d="M0 0 C5 1 5 1 8 5 C7.8 10.2 7.8 12.2 4 16 C0.3 15.7 0.3 15.7 -3 15 C-5 10.1 -5.4 8.8 -4 4 C-2.7 2.7 -1.4 1.4 0 0 Z " fill="#473E39" transform="translate(356,274)"/>
</svg>
