<?xml version="1.0" encoding="UTF-8"?>
<!-- Generator: visioncortex VTracer 0.6.12 -->
<svg version="1.1" xmlns="http://www.w3.org/2000/svg" width="600" height="600" viewBox="0 0 600 600" role="img" aria-label="Friends">
<path d="M0 0 C198 0 396 0 600 0 C600 198 600 396 600 600 C402 600 204 600 0 600 C0 402 0 204 0 0 Z " fill="#EDF2ED" transform="translate(0,0)"/>
<path d="M0 0 C-3.5 3.5 -6.4 4.4 -11 6 C-10.2 6.1 -9.3 6.2 -8.4 6.3 C1.3 7.7 1.3 7.7 5.8 9.6 C12.7 11.9 19.8 11.2 27 11 C25 14.9 23.1 17 20 20 C26.7 23.6 32.4 25.8 40 27 C38 31 38 31 33 33 C33.9 34.3 34.9 35.6 35.8 36.9 C39.5 42.4 42 48.3 42 55 C40.7 54.7 39.4 54.3 38 54 C38.3 55 38.7 56 39 57 C39 60.3 39 63.7 39 67 C38 66 37 65 36 64 C35.9 64.9 35.9 64.9 35.2 69.8 C34.5 74.5 34 76 31 80 C30.3 79.3 29.7 78.7 29 78 C24 84.6 24 88 25 96 C23.3 102.8 20 107.1 15 112 C14 112.3 12.9 112.6 11.9 112.9 C7.2 114.7 6.2 118.7 4 123 C3.3 123.7 3.3 123.7 0 127 C1.7 127.8 3.5 128.7 5.2 129.5 C10.7 132.5 12.6 135.2 15 141 C19 144 19 144 21.5 143.7 C22.7 143.5 23.8 143.2 25 143 C28.8 142.9 32.6 142.9 36.4 142.9 C36.9 142.9 36.9 142.9 39.4 142.9 C43.8 142.9 48.1 143 52.4 143.6 C56 144 56 144 61 142 C64.7 141.8 67.9 142 71.6 142.6 C75.5 143.1 77.3 142.3 81 141 C84 140.7 87.1 140.4 90.1 140.2 C93.2 140 96.1 139.7 99 139 C99.3 138.3 99.7 137.7 100 137 C101.4 138 102.8 138.9 104.3 139.9 C110.7 144.1 114.4 144.6 122 144 C133.5 138.4 143.6 128.9 148.3 116.8 C149.2 113.9 150.1 110.9 151 108 C152.6 108 154.3 108 156 108 C155.7 112.2 154.9 114.1 152.4 117.6 C149.2 123.5 149.5 128.4 150 135 C150.5 135 150.5 135 153.2 135.3 C167.3 136.6 178.7 140 191 147 C193.4 147.9 195.8 148.7 198.2 149.5 C203.3 151.3 207.3 152.8 211 157 C211.3 158.7 211.7 160.3 212 162 C212.9 162.2 213.7 162.5 214.6 162.7 C218.7 164.3 221 165.8 224 169 C224.6 170.5 225.2 172.1 225.8 173.7 C228.1 179.3 230.6 182.2 234.7 186.5 C241 193.3 245 199.6 246 209 C245.9 211.1 245.8 213.2 245.7 215.3 C245.6 223.6 248.3 230.5 251.1 238.3 C257.3 256.2 260.1 275.3 263.7 293.9 C263.9 294.9 264.1 295.9 264.3 297 C271.4 334 275.4 357.3 253.7 389.4 C252 391.9 250.5 394.4 249 397 C249.3 398.6 249.7 400.3 250 402 C247.1 405.8 247.1 405.8 243 410 C242.3 410.8 241.7 411.5 241 412.3 C237.9 415.7 235.9 417.8 231.3 418.6 C228 418 228 418 223 416 C223.3 417.2 223.6 418.4 223.8 419.7 C224.2 421.3 224.6 422.9 224.9 424.6 C225.3 426.2 225.7 427.7 226 429.4 C226.8 433.3 227.5 437.1 228 441 C227.1 441.5 226.1 441.9 225.2 442.4 C214.5 447.7 214.5 447.7 210.6 450.1 C190.7 460.6 166.1 461.1 144 461.2 C142.8 461.2 141.6 461.2 140.3 461.2 C136.5 461.2 132.6 461.2 128.8 461.2 C128.1 461.3 128.1 461.3 124.8 461.3 C50.2 461.2 50.2 461.2 19 444 C18.7 445.3 18.3 446.6 18 448 C-28.8 466 -89.3 465.4 -137 452 C-142.4 449.6 -142.4 449.6 -144 448 C-143.9 443.4 -143.8 438.9 -143.6 434.3 C-144 430 -144 430 -148 426 C-148 424 -148 422 -148 420 C-149.1 419.9 -150.1 419.9 -151.2 419.8 C-159.7 418.4 -169.1 415.6 -175 409 C-180.4 399.6 -185 389.8 -189.7 380.1 C-190.4 378.5 -191.2 376.9 -192 375.3 C-210.2 336.9 -191.3 296.8 -180.3 258.4 C-179.6 256.1 -179 253.9 -178.4 251.6 C-164 201.3 -164 201.3 -152 189 C-148.7 190.3 -145.4 191.6 -142 193 C-142 191 -142 189 -142 187 C-136.1 190.9 -136.1 190.9 -135 192 C-133.3 192 -131.7 192 -130 192 C-129.7 190.4 -129.3 188.7 -129 187 C-128.3 187.3 -127.7 187.7 -127 188 C-127 188.7 -127 189.3 -127 190 C-124.7 190.3 -122.4 190.7 -120 191 C-120 188.7 -120 186.4 -120 184 C-118 184 -116 184 -114 184 C-114.5 179.7 -115 176.9 -117 173 C-116.7 172 -116.3 171 -116 170 C-114.7 170.3 -113.4 170.7 -112 171 C-112.2 169.5 -112.2 169.5 -113 162 C-114.7 161.7 -116.3 161.3 -118 161 C-119 157 -119 157 -117.9 154.1 C-116 151 -116 151 -113.7 148.8 C-111.1 146.1 -109.8 143.8 -108.1 140.4 C-104.4 133.5 -101.3 131.7 -93.7 129.4 C-83 126.9 -71.9 125.6 -61 126 C-60.5 119.9 -62 115.8 -64.6 110.3 C-65.3 108.8 -66 107.4 -66.7 105.9 C-69.1 101.8 -71 100.4 -75 98 C-79.2 91.4 -80.3 87.8 -80 80 C-79.6 79 -79.2 78 -78.8 77 C-77.6 72.5 -79.3 69.3 -81 65 C-81.7 65 -82.3 65 -83 65 C-83.3 58.3 -82.4 53.3 -80 47 C-81.7 48 -83.3 49 -85 50 C-83.2 39.1 -78.1 31.4 -70 24 C-69.7 23.8 -69.7 23.8 -68 23 C-73 24 -73 24 -78 26 C-75.4 20.7 -71.6 17.9 -66 16 C-62 15.9 -58 16 -54 16 C-54 14 -54 12 -54 10 C-50.9 4.4 -48.1 2 -42 0 C-42.7 1.3 -43.3 2.6 -44 4 C-44.7 6 -45.4 8 -46 10 C-44.9 8.9 -43.8 7.9 -42.6 6.8 C-29.8 -3.7 -15.4 -3.3 0 0 Z " fill="#488082" transform="translate(265,88)"/>
<path d="M0 0 C1.6 0 3.3 0 5 0 C4.7 4.2 3.9 6.1 1.4 9.6 C-1.8 15.5 -1.5 20.4 -1 27 C0.1 27.1 1.1 27.2 2.2 27.3 C16.3 28.6 27.7 32 40 39 C42.4 39.9 44.8 40.7 47.2 41.5 C52.3 43.3 56.3 44.8 60 49 C60.3 50.7 60.7 52.3 61 54 C61.9 54.2 62.7 54.5 63.6 54.7 C67.7 56.3 70 57.8 73 61 C73.6 62.5 74.2 64.1 74.8 65.7 C77.1 71.3 79.6 74.2 83.7 78.5 C90 85.3 94 91.6 95 101 C94.9 103.1 94.8 105.2 94.7 107.3 C94.6 115.6 97.3 122.5 100.1 130.3 C106.3 148.2 109.1 167.3 112.7 185.9 C112.8 186.4 112.8 186.4 113.3 189 C120.4 226 124.4 249.3 102.7 281.4 C101 283.9 99.5 286.4 98 289 C98.3 290.6 98.7 292.3 99 294 C96.1 297.8 96.1 297.8 92 302 C91.3 302.8 90.7 303.5 90 304.3 C86.9 307.7 84.9 309.8 80.3 310.6 C77 310 77 310 72 308 C72.3 309.2 72.6 310.4 72.8 311.7 C73.2 313.3 73.6 314.9 73.9 316.6 C74.1 317.4 74.1 317.4 75 321.4 C75.8 325.3 76.5 329.1 77 333 C76.1 333.5 75.1 333.9 74.2 334.4 C63.5 339.7 63.5 339.7 59.6 342.1 C39.7 352.6 15.1 353.1 -7 353.2 C-8.2 353.2 -9.4 353.2 -10.7 353.2 C-14.5 353.2 -18.4 353.2 -22.2 353.2 C-23.6 353.3 -24.9 353.3 -26.2 353.3 C-61.9 353.2 -99.6 352.7 -132 336 C-131.9 333.4 -131.8 330.7 -131.7 328.1 C-131.6 326.6 -131.6 325.1 -131.5 323.6 C-131.1 319.2 -130.4 315.3 -129.5 311 C-127.2 298.1 -127.1 285 -126.7 272 C-126.4 263.9 -126.1 255.7 -125.8 247.6 C-125.8 246.8 -125.8 246.8 -125.6 242.6 C-124.6 218.4 -123 194.2 -121.2 170 C-121 167.3 -120.8 164.5 -120.6 161.8 C-118.7 133.3 -113.2 95.9 -91.7 75.2 C-88.2 72.3 -84.4 69.9 -80.6 67.4 C-73.1 62.3 -68.8 57.1 -64.2 49.4 C-61 44.5 -57.2 40.6 -52 38 C-52 35 -52 32.1 -52 29 C-49.5 30.5 -47 32.1 -44.5 33.6 C-39.3 36.5 -34.9 36.5 -29 36 C-17.5 30.4 -7.4 20.9 -2.7 8.8 C-1.8 5.9 -0.9 2.9 0 0 Z " fill="#BA3724" transform="translate(416,196)"/>
<path d="M0 0 C0.3 0.7 0.7 1.3 1 2 C31 2.3 61.1 2.7 92 3 C92 36 92 69 92 103 C-106 103 -304 103 -508 103 C-508 70 -508 37 -508 3 C-492.5 2.9 -477 2.8 -461 2.8 C-456.1 2.7 -451.2 2.7 -446.2 2.6 C-442.3 2.6 -438.4 2.6 -434.6 2.6 C-433.6 2.6 -432.6 2.6 -431.5 2.6 C-428.6 2.5 -425.6 2.5 -422.6 2.5 C-421 2.5 -419.3 2.5 -417.6 2.5 C-412.5 3 -409.4 4.5 -405 7 C-402.5 7.8 -400 8.6 -397.5 9.2 C-396.3 9.6 -395 9.9 -393.8 10.3 C-393.3 10.4 -393.3 10.4 -391 11 C-390.9 11.6 -390.9 11.6 -390.2 14.9 C-389 19 -389 19 -386 21 C-386 26.9 -386 32.9 -386 39 C-379.2 42.3 -372.5 44.2 -365.1 45.6 C-364.1 45.8 -363.1 46 -362 46.2 C-345.3 49.5 -328.6 50.4 -311.6 50.3 C-311.1 50.3 -311.1 50.3 -308.5 50.3 C-281 50.2 -250.8 48.8 -225 38 C-224.7 37 -224.3 36 -224 35 C-220 36.3 -216.1 37.8 -212.2 39.4 C-183 50.6 -150.4 51.4 -119.5 51.3 C-115.8 51.3 -112 51.3 -108.3 51.4 C-78.6 51.4 -48.7 50.5 -22.8 34.5 C-20 33 -20 33 -15 32 C-15.4 30.4 -15.9 28.7 -16.3 27.1 C-16.9 24.9 -17.5 22.8 -18.1 20.7 C-18.2 20.2 -18.2 20.2 -19 17.4 C-21.1 9.3 -21.1 9.3 -20 6 C-18.4 6.7 -16.7 7.3 -15 8 C-11.7 8.6 -11.7 8.6 -8 8 C-3.6 4 -3.6 4 0 0 Z " fill="#D4E3D6" transform="translate(508,497)"/>
<path d="M0 0 C1.6 0 3.3 0 5 0 C4.5 4.5 3.4 7.5 0.9 11.4 C-2 16.2 -4.5 21 -6.9 26.1 C-12.4 37.1 -18.6 47.3 -30 53 C-37.2 53 -41.3 50.2 -47 46 C-47.3 46.3 -47.7 46.7 -48 47 C-47.7 48.4 -47.4 49.9 -47.2 51.4 C-47 52.3 -47 52.3 -46.1 57.1 C-45.9 58.1 -45.9 58.1 -45 62.8 C-44.3 66.5 -43.6 70.3 -43 74 C-50.1 70.3 -53 67.4 -56 60 C-57 61 -57 61 -57 65 C-57 65.9 -57 65.9 -56.9 70.5 C-56.9 72.6 -56.9 74.7 -56.8 76.8 C-56.8 80 -56.8 83.2 -56.7 86.4 C-56.2 109.2 -59.1 131.5 -62 154 C-62.5 157.9 -63 161.8 -63.5 165.7 C-64.9 176.8 -66.3 187.9 -67.8 199.1 C-68.2 202.3 -68.6 205.5 -69 208.8 C-74.1 247.5 -79.4 286.3 -85 325 C-82.1 325.6 -79.3 326.3 -76.4 326.9 C-74.8 327.3 -73.2 327.7 -71.5 328 C-45.8 333.6 -22.9 329.3 0.5 318.1 C6.1 315.5 9.7 314.6 16 315 C19 318 19 318 22 323 C25 327 28 330.9 31 334.9 C33.9 338.8 36.4 342.9 39 347 C39.7 347.7 40.3 348.3 41 349 C37.6 349.5 34.2 350 30.8 350.4 C29.9 350.6 29.9 350.6 25.1 351.2 C14.4 352.6 3.8 353.2 -7 353.2 C-8.2 353.2 -9.4 353.2 -10.7 353.2 C-14.5 353.2 -18.4 353.2 -22.2 353.2 C-23.6 353.3 -24.9 353.3 -26.2 353.3 C-61.9 353.2 -99.6 352.7 -132 336 C-131.9 333.4 -131.8 330.7 -131.7 328.1 C-131.6 326.6 -131.6 325.1 -131.5 323.6 C-131.1 319.2 -130.4 315.3 -129.5 311 C-127.2 298.1 -127.1 285 -126.7 272 C-126.4 263.9 -126.1 255.7 -125.8 247.6 C-125.8 246.8 -125.8 246.8 -125.6 242.6 C-124.6 218.4 -123 194.2 -121.2 170 C-121 167.3 -120.8 164.5 -120.6 161.8 C-118.7 133.3 -113.2 95.9 -91.7 75.2 C-88.2 72.3 -84.4 69.9 -80.6 67.4 C-73.1 62.3 -68.8 57.1 -64.2 49.4 C-61 44.5 -57.2 40.6 -52 38 C-52 35 -52 32.1 -52 29 C-49.5 30.5 -47 32.1 -44.5 33.6 C-39.3 36.5 -34.9 36.5 -29 36 C-17.5 30.4 -7.4 20.9 -2.7 8.8 C-1.8 5.9 -0.9 2.9 0 0 Z " fill="#B73724" transform="translate(416,196)"/>
<path d="M0 0 C2 3 2 3 3.7 6.4 C6.9 11.4 10.6 14 16.1 16.3 C31.5 19 44.1 15.5 57 7 C55.4 12.3 53.4 17.3 51 22.4 C38.8 48.7 41.8 82.7 41.8 111.2 C41.8 114.6 41.8 117.9 41.8 121.2 C41.7 153.2 45.2 184.3 54 215 C54.3 216.2 54.7 217.5 55 218.8 C57.5 227.8 61.7 235.8 66 244 C67.2 246.3 68.3 248.7 69.5 251 C70.3 252.6 71.1 254.3 72 256 C70.4 256.2 68.8 256.5 67.2 256.7 C61 257.8 56 260.1 50.4 262.9 C26.3 274.2 0.6 275.2 -25 268 C-26.3 267.3 -27.6 266.7 -29 266 C-28.4 255.6 -27.2 245.5 -25.7 235.2 C-25.3 231.8 -24.8 228.4 -24.3 225 C-24.2 224.1 -24.2 224.1 -23.5 219.6 C-22.2 209.9 -20.8 200.3 -19.5 190.6 C-19.4 189.6 -19.2 188.6 -19.1 187.5 C-15.6 162.6 -12.4 137.6 -9.2 112.7 C-8.8 109.3 -8.4 105.9 -7.9 102.5 C-7.3 97.1 -6.6 91.7 -5.9 86.3 C-5.5 83.4 -5.2 80.5 -4.8 77.6 C-3.2 65 -1.8 52.7 -2 40.1 C-2 37.8 -2 35.6 -2 33.4 C-2 29.9 -2.1 26.4 -2.1 22.9 C-2.1 19.5 -2.1 16.1 -2.2 12.7 C-2.2 11.7 -2.2 10.6 -2.2 9.6 C-2.2 7 -2.1 4.5 -2 2 C-1.3 1.3 -0.7 0.7 0 0 Z " fill="#EDF1EC" transform="translate(360,255)"/>
<path d="M0 0 C-3.5 3.5 -6.4 4.4 -11 6 C-10.2 6.1 -9.3 6.2 -8.4 6.3 C1.3 7.7 1.3 7.7 5.8 9.6 C12.7 11.9 19.8 11.2 27 11 C25 14.9 23.1 17 20 20 C26.7 23.6 32.4 25.8 40 27 C38 31 38 31 33 33 C33.9 34.3 34.9 35.6 35.8 36.9 C39.5 42.4 42 48.3 42 55 C41.3 54.8 41.3 54.8 38 54 C38.3 55 38.7 56 39 57 C39 60.3 39 63.7 39 67 C38 66 37 65 36 64 C35.9 64.9 35.9 64.9 35.2 69.8 C34.5 74.5 34 76 31 80 C30.3 79.3 29.7 78.7 29 78 C24 84.6 24 88 25 96 C23.3 102.8 20 107.1 15 112 C14 112.3 12.9 112.6 11.9 112.9 C7.2 114.7 6.2 118.7 4 123 C2.7 124.3 1.4 125.6 0 127 C0.3 127.7 0.7 128.3 1 129 C-0.6 129.7 -2.3 130.3 -4 131 C-14.2 137 -14.2 137 -16.6 143 C-16.7 143.7 -16.7 143.7 -17 147 C-17.1 147.7 -17.1 147.7 -17.8 151.4 C-17.8 152.6 -17.9 153.8 -18 155 C-17.3 155.7 -16.7 156.3 -16 157 C-18.3 168.3 -24.4 178.5 -32 187 C-36.2 184.9 -38.3 182.8 -41.6 179.4 C-46.3 174.6 -51.2 170.2 -56.5 166 C-59.9 163.2 -62.9 160.1 -66 157 C-67.3 156 -68.6 155 -70 154 C-68 150 -68 150 -65 145 C-64.2 141.9 -63.5 138.8 -62.8 135.7 C-62.5 134.1 -62.1 132.4 -61.8 130.8 C-61.5 129.5 -61.3 128.3 -61 127 C-64 127 -66.9 127 -70 127 C-70 126.7 -70 126.3 -70 126 C-67 126 -64.1 126 -61 126 C-60.5 119.9 -62 115.8 -64.6 110.3 C-65.3 108.8 -66 107.4 -66.7 105.9 C-69.1 101.8 -71 100.4 -75 98 C-79.2 91.4 -80.3 87.8 -80 80 C-79.6 79 -79.2 78 -78.8 77 C-77.6 72.5 -79.3 69.3 -81 65 C-81.7 65 -82.3 65 -83 65 C-83.3 58.3 -82.4 53.3 -80 47 C-81.7 48 -83.3 49 -85 50 C-83.2 39.1 -78.1 31.4 -70 24 C-69.3 23.7 -68.7 23.3 -68 23 C-73 24 -73 24 -78 26 C-75.4 20.7 -71.6 17.9 -66 16 C-62 15.9 -58 16 -54 16 C-54 14 -54 12 -54 10 C-50.9 4.4 -48.1 2 -42 0 C-42.7 1.3 -43.3 2.6 -44 4 C-44.7 6 -45.4 8 -46 10 C-44.9 8.9 -43.8 7.9 -42.6 6.8 C-29.8 -3.7 -15.4 -3.3 0 0 Z " fill="#E9B085" transform="translate(265,88)"/>
<path d="M0 0 C0.7 2.3 1.3 4.6 2 7 C25.4 15.8 50.6 17.4 75.4 17.3 C75.9 17.3 75.9 17.3 78.5 17.3 C106 17.2 136.2 15.8 162 5 C162.3 4 162.7 3 163 2 C167 3.3 170.9 4.8 174.8 6.4 C204 17.6 236.6 18.4 267.5 18.3 C271.2 18.3 275 18.3 278.7 18.4 C340.1 18.5 340.1 18.5 357.4 5.1 C365.9 -1 372.9 -0.3 383.1 1.1 C385 1.4 387 1.7 389 2 C390 2.1 391 2.3 392 2.5 C402.1 4 411.7 5.6 421 10 C421.3 11.3 421.7 12.6 422 14 C394.5 34.6 335.4 28.8 301.8 30.7 C300.7 30.7 299.6 30.8 298.5 30.9 C262.1 32.9 225.7 33.2 189.2 33.2 C184 33.2 178.8 33.2 173.6 33.2 C-12.1 33.7 -12.1 33.7 -58 16 C-58.7 14.7 -59.3 13.4 -60 12 C-47 0.4 -16.9 -0.6 0 0 Z " fill="#BFBEA5" transform="translate(121,530)"/>
<path d="M0 0 C-3.5 3.5 -6.4 4.4 -11 6 C-10.2 6.1 -9.3 6.2 -8.4 6.3 C1.3 7.7 1.3 7.7 5.8 9.6 C12.7 11.9 19.8 11.2 27 11 C25 14.9 23.1 17 20 20 C26.7 23.6 32.4 25.8 40 27 C38 31 38 31 33 33 C33.9 34.3 34.9 35.6 35.8 36.9 C39.5 42.4 42 48.3 42 55 C41.3 54.8 41.3 54.8 38 54 C38.3 55 38.7 56 39 57 C39 60.3 39 63.7 39 67 C38 66 37 65 36 64 C35.9 64.9 35.9 64.9 35.2 69.8 C34.5 74.5 34 76 31 80 C30.3 79.3 29.7 78.7 29 78 C28.1 79.5 27.1 80.9 26.2 82.4 C23 87 23 87 20 88 C18.6 90.6 17.2 93.3 16 96 C14.8 92.3 15.4 90.7 16.4 87 C18 81.3 18 81.3 18 78 C17.3 77.8 17.3 77.8 14 77 C12.6 76.5 11.3 76 9.9 75.5 C4.9 74 0.2 73.4 -5 73 C-4.7 72.3 -4.7 72.3 -3 69 C7.8 68.9 7.8 68.9 10 70 C9.7 67.6 9.4 65.1 9.1 62.7 C9 61.3 8.8 60 8.6 58.6 C8 55 8 55 6 52 C2.9 50.8 2.9 50.8 0 50 C-0 50.8 -0 51.7 -0.1 52.5 C-1.9 59.5 -7 63.4 -13 67 C-12 63 -11 59.1 -10 55 C-10.5 55.7 -10.9 56.4 -11.4 57.2 C-14.8 60.9 -18.6 62.7 -23 65 C-22.7 66.3 -22.3 67.6 -22 69 C-30.6 68.1 -30.6 68.1 -34 67 C-36.6 66.9 -39.1 66.9 -41.7 66.9 C-42.4 66.9 -42.4 66.9 -45.8 67 C-46.9 67 -47.9 67 -49 67 C-44.4 62.1 -44.4 62.1 -41 61 C-40.3 58.7 -39.7 56.4 -39 54 C-39.5 54.7 -40.1 55.4 -40.6 56.2 C-43.2 59.2 -45.9 61.6 -49 64 C-49.7 64 -50.3 64 -51 64 C-51 63 -51 62 -51 61 C-56.5 68.9 -58.2 75.4 -59 85 C-59.5 84.8 -59.5 84.8 -62 84 C-63.3 81 -64.7 78 -66 75 C-70.2 72.2 -73.1 73.3 -78 74 C-79 71 -80 68.1 -81 65 C-81.7 65 -82.3 65 -83 65 C-83.3 58.3 -82.4 53.3 -80 47 C-81.7 48 -83.3 49 -85 50 C-83.2 39.1 -78.1 31.4 -70 24 C-69.3 23.7 -68.7 23.3 -68 23 C-73 24 -73 24 -78 26 C-75.4 20.7 -71.6 17.9 -66 16 C-62 15.9 -58 16 -54 16 C-54 14 -54 12 -54 10 C-50.9 4.4 -48.1 2 -42 0 C-42.7 1.3 -43.3 2.6 -44 4 C-44.7 6 -45.4 8 -46 10 C-44.9 8.9 -43.8 7.9 -42.6 6.8 C-29.8 -3.7 -15.4 -3.3 0 0 Z " fill="#4B281F" transform="translate(265,88)"/>
<path d="M0 0 C6.3 2.9 12.1 3.8 19 3.4 C20.6 2.7 22.3 2 24 1.4 C22 6.4 22 6.4 19 10.4 C20.2 10.9 21.4 11.4 22.6 11.9 C27.4 14.6 29.9 16.8 33 21.4 C34.2 26.2 34.2 26.2 35 30.4 C37.5 32.9 39.4 32.9 43 33.4 C42 35.4 41 37.4 40 39.4 C40.3 40 40.3 40 42 43.4 C42 49.4 42 49.4 39 54.4 C38.3 56.7 37.6 59 37 61.4 C36 64 35 66.7 34 69.4 C33.1 69.1 32.2 68.8 31.3 68.6 C28 68.4 28 68.4 25.3 70.4 C22.8 73.6 21.4 76.6 20 80.4 C19.3 80.4 18.7 80.4 18 80.4 C17.9 79.4 17.8 78.4 17.7 77.3 C16.6 67.9 15.5 62 8.8 55.1 C4.5 52 1.1 51.3 -4 50.4 C-5.7 49.4 -7.3 48.4 -9 47.4 C-8.7 48.4 -8.4 49.3 -8 50.4 C-7.4 50.7 -6.7 51 -6 51.4 C-6 52 -6 52.7 -6 53.4 C-5 53.3 -4 53.2 -3 53.1 C1.9 53.4 4.8 54.8 9 57.4 C9.3 58.7 9.6 60 10 61.4 C9 61.3 8.1 61.2 7.1 61.1 C-1.4 60.3 -8.7 60.6 -17 62.4 C-17.4 61.7 -17.7 61 -18 60.4 C-15.8 57.9 -15.8 57.9 -13 55.4 C-11.7 55.4 -10.4 55.4 -9 55.4 C-9 54.7 -9 54 -9 53.4 C-10.3 52.7 -11.7 52 -13 51.4 C-16 47.4 -16 47.4 -17.4 42.3 C-19 37.4 -19 37.4 -24 34.4 C-32.2 33.8 -32.2 33.8 -36 36.4 C-36.9 36.5 -36.9 36.5 -41.6 37.2 C-43.4 37.6 -45.2 38 -47 38.4 C-47.7 39.7 -48.3 41 -49 42.4 C-49.7 43.7 -50.3 45 -51 46.4 C-51.4 49.2 -51.4 49.2 -51.6 52.4 C-51.8 55.9 -52.2 58.9 -53 62.4 C-51.7 61.8 -50.4 61.3 -49.1 60.8 C-43.8 59.3 -40.4 59.4 -35 60.4 C-34.4 61.7 -33.7 63 -33 64.4 C-35.5 66.9 -41.8 66.3 -45.2 66.7 C-49 67.4 -51.6 68.6 -55 70.4 C-55.5 70.2 -55.5 70.2 -58 69.4 C-58.2 74.4 -58.1 78.9 -57 83.9 C-55.9 88.8 -55.9 93.3 -56 98.4 C-55.4 98.4 -54.7 98.4 -54 98.4 C-54 99.4 -54 100.3 -54 101.4 C-58.5 101.3 -59.9 100.5 -63.3 97.3 C-66.1 93.2 -67.1 90.2 -68 85.4 C-69.1 81.1 -70.4 78.8 -73 75.4 C-74.7 74.4 -76.3 73.4 -78 72.4 C-79.1 69.7 -80.1 67.1 -81 64.4 C-81.8 63.5 -82.5 62.6 -83.3 61.7 C-85 59.4 -85 59.4 -84.9 56.4 C-84 53.4 -84 53.4 -82 48.4 C-83.7 47.7 -85.3 47 -87 46.4 C-87 45.7 -87 45 -87 44.4 C-86.1 43.9 -85.1 43.5 -84.2 43.1 C-81 41.4 -81 41.4 -79 38.4 C-78.6 36.6 -78.1 34.8 -77.7 33 C-76.1 27.8 -75.3 26.3 -72 22.4 C-71.4 20.5 -70.8 18.7 -70.2 16.9 C-67.8 10.9 -65.7 8.2 -60 5.4 C-55.4 5.2 -51.5 5.2 -47 6.4 C-46.5 5.3 -46 4.3 -45.4 3.2 C-42.4 -1.6 -39.4 -4.5 -34.2 -6.9 C-21.9 -9.6 -10.9 -5.3 0 0 Z " fill="#4B261D" transform="translate(398.02734375,98.63671875)"/>
<path d="M0 0 C3.3 1.2 3.3 1.2 6 4 C7.2 7 8.1 10.1 9 13.2 C10.2 16.6 11.9 18.1 15 20 C15 20.7 15 21.3 15 22 C13.9 22.4 12.7 22.9 11.6 23.3 C10.4 23.9 9.2 24.4 8 25 C7.8 25.5 7.8 25.5 7 28 C8.7 27.6 10.4 27.3 12.1 26.9 C19.2 25.7 25.9 26.2 33 27 C32.8 26.5 32.8 26.5 32 24 C27.4 22 23 20.6 18 20 C18 19.3 18 18.7 18 18 C17 17.7 16 17.3 15 17 C13.8 13.9 13.8 13.9 13 11 C14 12 15 13 16 14 C20.6 16 25.1 17.8 30 19 C36.1 23.6 40.1 27.9 41.8 35.4 C42 39.3 42.1 43.1 42 47 C42.7 47 43.3 47 44 47 C44.4 45.6 44.8 44.2 45.2 42.8 C47 38.1 47.7 36.3 52 34 C57 35 57 35 60 38 C61.6 42.8 61.4 46.9 61 52 C58.1 57.3 55.8 60.4 51 64 C50 64 49 64 48 64 C47.7 64.7 47.3 65.3 47 66 C47 65.3 47 64.7 47 64 C45.4 64 43.7 64 42 64 C41.8 65.3 41.5 66.6 41.2 68 C37.9 81.5 28.4 91.4 17 99 C11.8 101.6 8.8 101.5 3 101 C-0.9 99.3 -4.3 97.2 -8 95 C-9 94.7 -10 94.3 -11 94 C-12.7 92.4 -14.4 90.7 -16 89 C-16.7 88.4 -16.7 88.4 -20.1 85.1 C-24 81 -24 81 -25.4 77.6 C-26 76.8 -26.5 75.9 -27 75 C-30 74.3 -33 73.6 -36 73 C-41.3 69.6 -43.8 65.9 -46 60 C-46.2 55 -46.2 55 -46 51 C-45 51 -44 51 -43 51 C-42.8 52.4 -42.5 53.7 -42.3 55.1 C-41 60.2 -39.8 62.5 -36 66 C-32.7 67.4 -32.7 67.4 -30 68 C-30 67 -30 66 -30 65 C-30.7 65 -31.3 65 -32 65 C-32.9 60.3 -33.5 55.7 -34 51 C-34.3 49.3 -34.7 47.7 -35 46 C-35 42.7 -35 39.3 -35 36 C-34.7 35.8 -34.7 35.8 -33 35 C-33 35.7 -33 36.3 -33 37 C-32 36.4 -31 35.8 -29.9 35.1 C-23.4 32.3 -17 31.7 -10 31 C-10.2 30.5 -10.2 30.5 -11 28 C-18.2 26.7 -23.1 27.6 -30 30 C-29.7 27.3 -29.5 24.5 -29.2 21.8 C-29 20.3 -28.9 18.8 -28.7 17.2 C-27.7 11.2 -25.3 8.3 -21 4 C-18 3.3 -15 2.6 -12 2 C-7.8 -0.8 -5 -0.4 0 0 Z " fill="#E8AC82" transform="translate(374,132)"/>
<path d="M0 0 C2.1 4.2 2.2 6.4 2 11 C3.1 11.1 4.1 11.2 5.2 11.3 C19.3 12.6 30.7 16 43 23 C45.4 23.9 47.8 24.7 50.2 25.5 C55.3 27.3 59.3 28.8 63 33 C63.2 33.8 63.2 33.8 64 38 C64.9 38.2 65.7 38.5 66.6 38.7 C70.7 40.3 73 41.8 76 45 C76.6 46.5 77.2 48.1 77.8 49.7 C80.1 55.3 82.6 58.2 86.7 62.5 C96.4 73 98.1 82.6 98.5 96.6 C97.9 100.6 96.8 102.1 94 105 C93.6 105.4 93.6 105.4 91.6 107.6 C89 110 89 110 84 113 C83.3 114 82.7 115 82 116 C80.4 116 78.7 116 77 116 C76.3 117 75.7 118 75 119 C71 118 71 118 70 117 C70.4 112.6 70.9 108.2 71.4 103.8 C72.1 96.2 72.5 88.1 69 81 C68.3 80.8 68.3 80.8 65 80 C65.3 81.6 65.7 83.3 66 85 C66.5 95.4 66.5 95.4 63 100 C61.4 99.7 59.7 99.3 58 99 C57.8 97.9 57.6 96.8 57.4 95.7 C57.3 95 57.3 95 56.6 91.4 C56.4 90 56.1 88.5 55.9 87.1 C55 83 55 83 53.9 79.8 C51.8 73 54.1 65 55 58 C54 57.4 53.1 56.8 52.1 56.2 C49.4 54.6 46.7 53 44 51.3 C40 49 40 49 34.8 46.6 C28.1 42.7 24.6 35 20.9 28.4 C15.8 20.5 11 18.3 2 16 C2.6 18.6 3.2 21.2 3.9 23.8 C4.2 25.3 4.6 26.7 4.9 28.2 C6 32 6 32 8 35 C8.6 40.9 7.3 45.6 5 51 C3.7 51.7 2.4 52.3 1 53 C0.1 53.5 -0.8 53.9 -1.7 54.4 C-13.1 60.3 -24.2 63.3 -36.9 60 C-37.9 59.7 -39 59.3 -40 59 C-40.8 55.7 -41.6 52.4 -42.4 49.1 C-42.9 47.3 -43.3 45.5 -43.8 43.6 C-44.9 38.4 -45.6 33.3 -46 28 C-45.3 28.5 -44.6 29 -43.9 29.5 C-33.5 36.5 -33.5 36.5 -27 36 C-13 28.8 -5.7 14.1 0 0 Z " fill="#F0B386" transform="translate(413,212)"/>
<path d="M0 0 C0.7 1 1.3 2 2 3 C3 3.3 4 3.7 5 4 C6.1 9.4 7.1 14.8 7.9 20.2 C9.7 29.8 13.3 34.1 21 40 C25.6 43.1 30.3 46.1 35 49 C35 49.7 35 50.3 35 51 C25.1 56.9 15.7 54.6 5 52 C3.4 51.3 1.7 50.7 0 50 C0 51 0.1 52 0.1 53 C-0 57.2 -0.6 60.9 -1.5 64.9 C-1.8 66.3 -2.1 67.6 -2.3 69 C-2.5 69.5 -2.5 69.5 -3 72 C0.5 71.9 3.9 71.9 7.4 71.8 C9.3 71.7 11.2 71.7 13.2 71.6 C19.2 71 23.5 69.4 29 67 C38.9 64.1 56.4 59.2 66 64 C65 68 65 68 61 71 C68.3 71 75.5 71 83 71 C85 75 87 78.9 89 83 C87.4 83.2 85.8 83.5 84.2 83.7 C78 84.8 73 87.1 67.4 89.9 C43.3 101.2 17.6 102.2 -8 95 C-9.3 94.3 -10.6 93.7 -12 93 C-11.4 82 -10 71.2 -8.5 60.4 C-8.3 58.6 -8 56.9 -7.8 55.1 C-7 49.6 -6.2 44.1 -5.4 38.6 C-4.9 34.9 -4.4 31.1 -3.9 27.4 C-2.6 18.3 -1.3 9.1 0 0 Z " fill="#DFE3D5" transform="translate(343,428)"/>
<path d="M0 0 C0 2 0 4 0 6 C-2.6 8.1 -5.3 10.1 -8 12 C-11.8 16.5 -15 21 -18.1 26 C-21.8 31.3 -26.4 34.3 -31.7 37.8 C-48.8 49.3 -54.8 66 -61 85 C-61.5 86.5 -62 88 -62.5 89.5 C-66.9 104.4 -67.9 119.6 -69 135 C-69.1 136 -69.1 137 -69.2 138 C-71.2 163.8 -72.8 189.7 -73.8 215.6 C-73.9 217.2 -73.9 218.9 -74 220.6 C-74.3 228.6 -74.6 236.6 -74.9 244.6 C-75.8 270.5 -75.8 270.5 -78.3 282.7 C-79.7 289.3 -79.8 296 -80.2 302.7 C-80.5 304.1 -80.7 305.5 -81 307 C-81.8 307.5 -81.8 307.5 -86 310 C-87.3 309.7 -88.6 309.3 -90 309 C-90 303.1 -90 297.1 -90 291 C-92.2 291.6 -94.3 292.2 -96.6 292.8 C-115.8 297.5 -134.9 300.2 -154.7 300.1 C-156 300.1 -157.3 300.1 -158.6 300 C-161.7 300 -164.9 300 -168 300 C-168 299.7 -168 299.3 -168 299 C-167.2 298.8 -167.2 298.8 -163.1 298 C-156.9 296.7 -150.8 295.4 -144.6 294.1 C-142 293.6 -139.4 293 -136.7 292.5 C-128.1 290.7 -119.6 288.9 -111 287 C-109.1 286.6 -107.2 286.2 -105.3 285.7 C-103.7 285.4 -102.1 285 -100.5 284.6 C-99.8 284.4 -99.8 284.4 -96.4 283.6 C-90.7 280.9 -88.7 276.3 -86.4 270.7 C-85.9 269.5 -85.5 268.3 -85 267 C-84.3 265.4 -83.6 263.8 -82.9 262.1 C-81.1 253.9 -83.5 246.6 -86.1 238.8 C-86.4 237.8 -86.7 236.9 -87.1 235.9 C-88.7 230.9 -90.4 226 -92.1 221 C-92.4 220 -92.7 219.1 -93 218.1 C-94 215.4 -94.9 212.8 -95.8 210.1 C-97 206 -97 206 -96 203 C-93 211.6 -90.1 220.2 -87 229 C-85.9 220.8 -84.8 212.6 -83.6 204.5 C-83.3 201.7 -82.9 198.9 -82.5 196.1 C-81.9 192.1 -81.4 188.1 -80.8 184.1 C-80.8 183.5 -80.8 183.5 -80.3 180.4 C-78.9 169.6 -77.8 158.9 -78 148 C-78.7 149.5 -79.4 151 -80.2 152.6 C-85.2 163.2 -90.3 173.7 -96 184 C-97.7 179 -94.9 174.4 -93.1 169.6 C-92.7 168.5 -92.3 167.3 -91.8 166.2 C-90.5 162.5 -89.2 158.8 -87.8 155.2 C-76.7 124.9 -76.7 124.9 -74 114 C-73.7 112.7 -73.3 111.3 -73 110 C-71.9 105.4 -70.8 100.9 -69.8 96.4 C-69.4 94.7 -69 93.1 -68.6 91.4 C-66.6 82.8 -64.6 74.2 -62.7 65.6 C-62.3 63.9 -62 62.3 -61.6 60.6 C-60.9 57.4 -60.2 54.2 -59.6 51 C-59.3 49.6 -58.9 48.2 -58.6 46.7 C-58.4 45.5 -58.1 44.2 -57.8 42.9 C-57 40 -57 40 -55 38 C-54.8 40.6 -54.8 40.6 -54 54 C-52.9 51.7 -51.8 49.4 -50.6 47 C-49.2 44 -47.7 40.9 -46.2 37.9 C-45.5 36.4 -44.8 34.8 -44 33.3 C-43.3 31.8 -42.6 30.3 -41.9 28.8 C-41.2 27.5 -40.6 26.1 -39.9 24.7 C-38.1 21.3 -36.4 18.1 -34 15 C-32.7 14.7 -31.4 14.3 -30 14 C-33 20.9 -35.9 27.9 -39 35 C-38.7 35.3 -38.3 35.7 -38 36 C-30 28.4 -23.3 20.1 -17.7 10.5 C-13.5 3.6 -8.5 -2.1 0 0 Z " fill="#36696C" transform="translate(365,228)"/>
<path d="M0 0 C9.2 4.6 12.7 14.8 16 24 C19.7 35.9 22.9 47.7 25 60 C25.1 59 25.2 57.9 25.4 56.8 C25.5 55.5 25.7 54.1 25.9 52.7 C26 51.3 26.2 50 26.4 48.6 C27 45 27 45 29 42 C29 47.4 29 52.8 29.1 58.2 C29.1 59.7 29.1 61.2 29.1 62.8 C29.1 71.6 28.8 80.2 28 89 C26.7 113.8 26.6 153.8 43 174 C44 174.7 45 175.3 46 176 C52.8 168.1 57.3 159.3 62 150 C63.4 155.5 61.5 159.4 59.6 164.5 C59.3 165.5 58.9 166.6 58.5 167.6 C53.5 181.5 47.3 194.7 40.3 207.8 C35.8 216.3 32.1 224.8 29 234 C30.6 234.3 32.2 234.6 33.9 234.9 C39.3 235.9 44.6 236.9 50 238 C50 238.3 50 238.7 50 239 C43.7 239.4 38.2 238 32.1 236.5 C30.2 236 28.3 235.6 26.3 235.1 C25.6 234.9 25.6 234.9 22 234 C21.5 235.9 21.1 237.8 20.6 239.8 C19.8 242.9 19 246 18 249 C9.5 248.4 9.5 248.4 5 245 C4.6 240.8 4.6 240.8 4.8 235.8 C4.8 234.2 4.8 232.5 4.9 230.8 C4.9 229.6 5 228.3 5 227 C4 226.3 3 225.7 2 225 C2 222.7 2 220.4 2 218 C2.7 218.3 3.3 218.7 4 219 C5.3 218.9 6.6 218.8 8 218.6 C14.9 219.1 17.6 221.8 23 226 C23.7 226.3 24.3 226.7 25 227 C25.3 225.8 25.6 224.7 25.9 223.4 C29.1 211.2 32.6 201.6 41 192 C41.3 191 41.7 190 42 189 C40.7 188.3 39.4 187.7 38 187 C34.8 185.1 34.8 185.1 32 182 C31.7 179 31.5 176.1 31.4 173.1 C30.4 165 24.1 159.7 18 155 C18.4 153.5 18.8 151.9 19.2 150.3 C20.2 143.9 18.5 142.2 15 137 C15.4 136.6 15.4 136.6 17.5 134.6 C23.1 126.7 19.1 115 17.6 106 C15.6 94.1 13.9 82.6 13.9 70.4 C13.9 68.7 14 66.9 14 65.1 C14 63.7 14 62.4 14 61 C15.3 61 16.6 61 18 61 C20.3 65.9 22.6 70.9 25 76 C16.1 17.9 16.1 17.9 0 0 Z " fill="#36696C" transform="translate(116,291)"/>
<path d="M0 0 C5.4 5.4 9.6 11.5 13.8 17.9 C19.8 26.8 19.8 26.8 22 29 C18.6 29.5 15.2 30 11.8 30.4 C9.9 30.7 8 31 6.1 31.2 C-5 32.7 -16 33.1 -27.2 33.1 C-28.5 33.1 -29.8 33.1 -31.1 33.1 C-35.2 33.1 -39.2 33.1 -43.3 33.1 C-46.1 33.1 -48.9 33.1 -51.7 33 C-58.4 33 -65.2 33 -72 33 C-71.7 32.8 -71.7 32.8 -70 32 C-70 30.9 -70.1 29.7 -70.1 28.6 C-70 23.8 -69.1 19.6 -68 15 C-67.4 14.9 -67.4 14.9 -64.1 14.6 C-46.5 12.3 -30.5 7.5 -14 1 C-9 -0.3 -5.2 -0.6 0 0 Z " fill="#37686B" transform="translate(435,516)"/>
<path d="M0 0 C10.9 6.7 22 20.1 27 32 C28 36.9 28.2 41.7 28.3 46.6 C28.3 47.3 28.3 47.3 28.4 50.5 C27.9 54.6 26.8 56.1 24 59 C23.2 59.9 22.4 60.7 21.6 61.6 C19 64 19 64 14 67 C13.3 68 12.7 69 12 70 C10.4 70 8.7 70 7 70 C6.3 71 5.7 72 5 73 C1 72 1 72 0 71 C0.4 66.6 0.9 62.2 1.4 57.8 C2.1 50.2 2.5 42.1 -1 35 C-2.3 34.7 -3.6 34.3 -5 34 C-4.7 35.6 -4.3 37.3 -4 39 C-3.5 49.4 -3.5 49.4 -7 54 C-8.6 53.7 -10.3 53.3 -12 53 C-12.1 52.5 -12.1 52.5 -12.6 49.7 C-12.8 48.3 -13.1 46.8 -13.4 45.4 C-13.6 44 -13.9 42.5 -14.1 41.1 C-15 37 -15 37 -16.1 33.8 C-18 27.9 -16.2 21.5 -15.3 15.5 C-15 12 -15 12 -17 9 C-14.4 4.6 -13 2.8 -9 0 C-5 -1 -5 -1 0 0 Z " fill="#F0B487" transform="translate(483,258)"/>
<path d="M0 0 C10.7 1.1 16.4 8.1 23 16 C25 20 25 20 24 25 C22.1 27.5 22.1 27.5 19.7 30.2 C11.7 39.6 4.8 49.8 -2 60 C-2.7 60 -3.3 60 -4 60 C-5.7 57.5 -7.5 55 -9.2 52.5 C-10.2 51.1 -11.1 49.7 -12.1 48.3 C-14.8 44.2 -17.4 40.2 -20 36 C-19.5 35.2 -19 34.5 -18.4 33.7 C-11.2 23 -5.6 11.6 0 0 Z " fill="#F0B386" transform="translate(458,483)"/>
<path d="M0 0 C15.3 1.3 27.6 4.5 41 12 C43.4 12.9 45.8 13.7 48.2 14.5 C53.3 16.3 57.3 17.8 61 22 C61.2 22.8 61.2 22.8 62 27 C62.9 27.2 63.7 27.5 64.6 27.7 C70.2 29.9 73.3 32.7 76 38 C75.7 39.3 75.3 40.6 75 42 C75 41.3 75 40.7 75 40 C73.7 39.3 72.4 38.7 71 38 C69.7 37 68.4 36 67 35 C62.2 35 59.6 35.6 55.6 38.3 C53 41 53 41 51 45 C46.8 43.3 43.4 41.5 39.6 39.1 C38.5 38.4 37.4 37.8 36.3 37.1 C35.7 36.7 35.7 36.7 33 35 C32 34.4 31 33.9 29.9 33.3 C26 30.3 24.4 26.9 22.1 22.6 C17.6 14.3 13.6 9.3 4.6 6.1 C3.8 5.9 3.8 5.9 0 5 C0 3.3 0 1.7 0 0 Z " fill="#467D7E" transform="translate(415,223)"/>
<path d="M0 0 C1.1 0.4 2.1 0.8 3.2 1.2 C7 2.5 10.4 3.4 14.2 4.2 C16.4 8.5 16.3 9.7 15.2 14.2 C13.9 14.2 12.6 14.2 11.2 14.2 C11.6 15 11.9 15.9 12.2 16.8 C13.3 20.3 13.9 23.5 14.2 27.2 C14.1 27.4 14.1 27.4 13.2 28.2 C11.6 28.2 9.9 28.2 8.2 28.2 C7.9 30.2 7.6 32.1 7.2 34.2 C6.3 34.5 5.3 34.8 4.2 35.2 C0.2 33.2 0.2 33.2 -0.8 31.2 C-1.1 32 -1.1 32 -2.8 36.2 C-8.6 36.2 -9.6 35 -13.8 31.2 C-14.1 32.8 -14.4 34.5 -14.8 36.2 C-20.2 35.8 -23 34.1 -26.8 30.2 C-27.1 28.5 -27.4 26.9 -27.8 25.2 C-26.8 23.9 -25.8 22.5 -24.8 21.2 C-24.1 21.2 -23.4 21.2 -22.8 21.2 C-22.8 19.2 -22.8 17.2 -22.8 15.2 C-21.1 14.2 -19.5 13.2 -17.8 12.2 C-17.3 11.2 -16.8 10.2 -16.4 9.2 C-14.2 5.2 -11.9 4.7 -7.8 3.2 C-6.8 2.2 -5.8 1.2 -4.8 0.2 C-2.8 -0.8 -2.8 -0.8 0 0 Z " fill="#EDAD81" transform="translate(137.75,244.8125)"/>
<path d="M0 0 C1.3 0 2.6 0 4 0 C1.7 19.3 1.7 19.3 -4 25 C-2.4 29.7 1.3 31.8 5 35 C6.7 36.5 8.4 38 10.1 39.6 C14 43.1 18 46.6 22 50 C21.8 50.3 21.8 50.3 21 52 C20.4 51.5 19.8 50.9 19.2 50.4 C14.7 47.1 10 44.3 5.2 41.5 C-6.6 34.4 -18.4 27 -28 17 C-29 16 -30 15 -31 14 C-31 12.3 -31 10.7 -31 9 C-21.6 4.1 -10.4 3.5 0 4 C0.7 4.3 1.3 4.7 2 5 C2 3.7 2 2.4 2 1 C1.3 0.7 0.7 0.3 0 0 Z " fill="#386A6C" transform="translate(200,215)"/>
<path d="M0 0 C0.3 0 0.7 0 1 0 C2 7.1 2.4 14.3 2.8 21.4 C2.8 22.7 2.9 24 3 25.4 C3.1 28.1 3.2 30.8 3.4 33.5 C3.6 37.7 3.8 41.8 4 45.9 C4.1 48.6 4.2 51.2 4.4 53.9 C4.4 54.5 4.4 54.5 4.6 57.6 C4.7 61.1 4.9 64.5 5 68 C5.1 69.2 5.1 70.4 5.2 71.6 C5.4 77.9 5.4 81.3 1 86 C1.3 86 1.7 86 2 86 C1.3 94.2 -0.4 102.1 -2.1 110.1 C-2.2 110.7 -2.2 110.7 -2.9 114.1 C-3.6 117.4 -4.3 120.7 -5 124 C-5.3 124 -5.7 124 -6 124 C-6.9 82.7 -3.5 41.2 0 0 Z " fill="#51241B" transform="translate(296,351)"/>
<path d="M0 0 C0.7 0 1.3 0 2 0 C4 4 3.6 8.6 3 13 C-4 28 -16.6 34.2 -31 41 C-31.7 41 -32.3 41 -33 41 C-32.9 42.4 -32.9 43.9 -32.8 45.4 C-31.9 64.9 -31.9 84.4 -32 104 C-33.3 104 -34.6 104 -36 104 C-36.8 97.9 -37.1 92 -37.1 85.8 C-37.1 84.1 -37 82.3 -37 80.6 C-37 77 -37 73.4 -37 69.8 C-36.9 60.8 -37.1 52 -38 43 C-39.3 43.5 -40.5 44 -41.8 44.6 C-46 46 -46 46 -49 45 C-48.2 44.6 -48.2 44.6 -44.1 42.4 C-40.2 40.1 -39.2 39.5 -37.4 35.1 C-37.3 34.1 -37.1 33.1 -37 32 C-36 32 -35 32 -34 32 C-33.7 33.3 -33.3 34.6 -33 36 C-19.9 27.9 -5.8 18 -0.6 2.9 C-0.5 2.4 -0.5 2.4 0 0 Z " fill="#36696C" transform="translate(285,235)"/>
<path d="M0 0 C1.2 0.6 2.4 1.2 3.7 1.8 C21.3 10.2 39 18.2 58 23 C58.3 21.7 58.7 20.4 59 19 C60.3 19.3 61.6 19.7 63 20 C63 22 63 24 63 26 C63.5 26.1 63.5 26.1 66.1 26.4 C69.6 26.9 72.7 27.8 76 29 C76 29.3 76 29.7 76 30 C71.7 30.1 68.2 30 64 29 C64 30.8 64 32.6 64 34.5 C64 41.2 64 48 64.1 54.7 C64.1 57.7 64.1 60.6 64.1 63.5 C64.1 67.7 64.1 71.9 64.1 76.1 C64.1 77.4 64.1 78.7 64.1 80 C64.1 81.2 64.1 82.5 64.1 83.7 C64.1 84.8 64.1 85.9 64.1 87 C64 90.1 63.6 93 63 96 C62 96 61 96 60 96 C59.2 87.5 58.9 79.1 59.1 70.6 C59.1 70 59.1 70 59.2 66.9 C59.3 63 59.4 59.1 59.4 55.2 C59.5 52.6 59.5 50 59.6 47.3 C59.7 40.9 59.9 34.4 60 28 C58.6 27.9 57.2 27.7 55.7 27.6 C36.1 25.3 17 15.6 0 6 C0 4 0 2 0 0 Z " fill="#36696C" transform="translate(154,252)"/>
<path d="M0 0 C5.8 0.9 11.6 2.1 17.3 3.3 C20.6 3.9 23.8 4.5 27 5 C26.9 7.1 26.7 9.2 26.6 11.2 C26.5 12.4 26.4 13.6 26.3 14.8 C26 18 26 18 25 22 C13.9 22.2 3.1 21.3 -8 20 C-6.7 19.7 -5.4 19.3 -4 19 C-3.9 17.5 -3.8 16.1 -3.7 14.6 C-3 9.3 -1.8 4.9 0 0 Z " fill="#37696C" transform="translate(338,526)"/>
<path d="M0 0 C1 1 2 2 3 3 C3 3.7 3 4.3 3 5 C2.1 5.1 2.1 5.1 -2.4 5.4 C-9.9 6.5 -16.6 8.8 -23.6 11.4 C-37.7 16.7 -49.9 19.3 -65 20 C-65.7 25.6 -66.3 31.2 -67 37 C-67.7 37 -68.3 37 -69 37 C-68.9 34.7 -68.7 32.5 -68.6 30.2 C-68.5 28.9 -68.4 27.7 -68.3 26.4 C-68 23 -68 23 -67 20 C-68.9 19.9 -70.7 19.8 -72.6 19.8 C-80.1 19.2 -86.8 17.2 -94 15 C-95.3 21.3 -96.6 27.5 -98 34 C-100 34 -102 34 -104 34 C-103.9 31.6 -103.7 29.3 -103.6 26.9 C-103.5 25.6 -103.4 24.3 -103.3 23 C-103 19.3 -102.6 15.7 -102 12 C-96.5 10.9 -93.8 11.6 -88.4 12.9 C-62.2 18.4 -39.4 14.6 -15.5 3.1 C-9.9 0.5 -6.3 -0.4 0 0 Z " fill="#492C24" transform="translate(432,511)"/>
<path d="M0 0 C0.7 0.2 0.7 0.2 4.2 1.4 C6.2 5.3 5.1 8.2 4.2 12.4 C-0.5 21.4 -6.8 29 -13.8 36.4 C-15.8 38.7 -17.8 41 -19.8 43.4 C-20.8 40.4 -20.8 40.4 -18.9 36.5 C-18.2 35.1 -17.5 33.8 -16.8 32.4 C-14.8 27.4 -14.8 27.4 -15.8 23.4 C-16.1 22.7 -16.4 22.1 -16.8 21.4 C-16.4 15.5 -16 10.1 -12.4 5.3 C-11.6 4.7 -10.7 4 -9.8 3.4 C-9 2.6 -8.3 1.8 -7.5 0.9 C-4.8 -0.6 -4.8 -0.6 0 0 Z " fill="#396A6C" transform="translate(262.75,220.625)"/>
<path d="M0 0 C6.9 3.4 11.5 7.8 16.1 14 C16.1 15.6 16.1 17.3 16.1 19 C15.3 18.6 14.4 18.3 13.5 17.9 C3 14 -6.8 12.2 -17.9 11.5 C-23.9 11 -23.9 11 -27.9 9 C-21.9 -0.5 -10.3 -3.7 0 0 Z " fill="#36696C" transform="translate(113.859375,409.0390625)"/>
<path d="M0 0 C0.3 0 0.7 0 1 0 C1.4 41.8 1.4 41.8 -4 58 C-5 57.7 -6 57.3 -7 57 C-11.5 48.1 -5.8 29.7 -4.6 20.2 C-4.3 18.5 -4.1 16.7 -3.9 15 C-3.7 13.3 -3.5 11.7 -3.3 10 C-3.1 8.5 -2.9 7 -2.7 5.5 C-2 2 -2 2 0 0 Z " fill="#E5E0CF" transform="translate(352,372)"/>
<path d="M0 0 C-1 2 -1 2 -4.6 3.8 C-9 6 -9 6 -13.1 9.1 C-19.1 13.5 -23.6 14.6 -31 14 C-32.7 13 -34.3 12 -36 11 C-27 2 -12.2 -0.5 0 0 Z " fill="#36696C" transform="translate(120,429)"/>
<path d="M0 0 C1 0 2 0 3 0 C3.9 2.6 4.7 5.2 5.6 7.8 C6 9.3 6.5 10.7 7 12.2 C8 16 8 16 7 19 C3.1 14.2 3.1 14.2 2 12 C-2.4 13.1 -4.5 14.7 -8.1 17.4 C-16.6 24 -16.6 24 -22 24 C-20 20 -18.2 18.1 -15 15 C-14.1 14.1 -13.2 13.2 -12.2 12.2 C-8.2 8.2 -4.1 4.1 0 0 Z " fill="#EAE2D2" transform="translate(409,463)"/>
<path d="M0 0 C0.7 0.3 1.3 0.7 2 1 C1.3 1.7 0.6 2.5 -0.2 3.2 C-6.9 12.3 -9.2 21.8 -9 33 C-14.3 33.3 -15.6 33.3 -20 30 C-16.5 18.5 -10.2 6.8 0 0 Z " fill="#36696C" transform="translate(138,476)"/>
<path d="M0 0 C3 1 3 1 7 5 C16.2 8.6 22.4 9.5 32 7 C28.5 11.8 25.8 14.5 20 16 C14 15.3 9.6 13.9 5 10 C0 2.8 0 2.8 0 0 Z " fill="#A4432F" transform="translate(225,195)"/>
<path d="M0 0 C0.7 0 1.3 0 2 0 C0.8 5.8 -1 7.8 -5 12 C-10.8 15.5 -13.4 15.6 -20 15 C-24.2 13.1 -26.7 11.3 -30 8 C-30 7.3 -30 6.7 -30 6 C-29 6 -28 6 -27 6 C-27 6.7 -27 7.3 -27 8 C-17.7 8.5 -10.5 8 -2 4 C-1.3 2.7 -0.7 1.4 0 0 Z " fill="#A5412E" transform="translate(395,199)"/>
<path d="M0 0 C5 1 5 1 8.3 5.1 C11 10.1 11.6 12.5 11 18 C11.7 18 12.3 18 13 18 C13 19 13 20 13 21 C8.5 20.9 7.1 20.1 3.8 16.9 C0.9 12.9 -0.1 9.8 -1 5 C-1.3 4.3 -1.7 3.7 -2 3 C-1.3 2 -0.7 1 0 0 Z " fill="#B74D36" transform="translate(331,179)"/>
<path d="M0 0 C0.7 1.3 1.3 2.6 2 4 C-0.5 6.5 -6.8 5.9 -10.2 6.3 C-14 7 -16.6 8.3 -20 10 C-21 9.7 -22 9.3 -23 9 C-23.3 11.6 -23.7 14.3 -24 17 C-24.3 17 -24.7 17 -25 17 C-25.2 12.2 -25.2 12.2 -25 7 C-23.7 6 -22.4 5 -21 4 C-20.3 3 -19.7 2 -19 1 C-18 1 -17 1 -16 1 C-15 0.6 -13.9 0.3 -12.9 -0.1 C-8.3 -1.2 -4.6 -0.7 0 0 Z " fill="#6D3124" transform="translate(363,159)"/>
</svg>
