<?xml version="1.0" encoding="UTF-8"?>
<!-- Generator: visioncortex VTracer 0.6.12 -->
<svg version="1.1" xmlns="http://www.w3.org/2000/svg" width="600" height="600" viewBox="0 0 600 600" role="img" aria-label="Mother">
<path d="M0 0 C198 0 396 0 600 0 C600 198 600 396 600 600 C402 600 204 600 0 600 C0 402 0 204 0 0 Z " fill="#EDF2ED" transform="translate(0,0)"/>
<path d="M0 0 C3.4 2.4 6 2.8 10 3.4 C22.2 5.7 30.3 11 37.7 20.9 C37.7 21.6 37.7 22.3 37.7 22.9 C39 23.6 40.4 24.3 41.7 24.9 C51.8 35.1 56.6 45.6 57.1 60 C56.8 75.4 51.9 88.7 42.4 100.9 C40.3 104.7 40.6 106.6 41.5 110.8 C41.7 112 41.9 113.1 42.1 114.3 C42.3 115.2 42.5 116 42.7 116.9 C44.8 107.2 44.8 107.2 43.7 104.9 C46.8 97.8 50.3 92.6 55.7 86.9 C54.7 86.6 53.7 86.3 52.7 85.9 C66.7 70.9 82 67.5 101.7 65.9 C101.1 64.6 100.4 63.3 99.7 61.9 C100.4 62.2 100.4 62.2 103.7 63.7 C108.4 65.6 113.2 66.7 118.2 67.8 C128.5 70.1 135.5 74 142.7 81.9 C142.3 76.6 141.4 73.8 137.7 69.9 C138 69.3 138.4 68.6 138.7 67.9 C144.7 71.9 148.2 75.1 150.7 81.9 C150.7 83.9 150.7 85.9 150.7 87.9 C151.8 87.9 152.8 87.8 153.9 87.8 C157.7 87.9 157.7 87.9 162.7 90.9 C163.4 91.9 164 92.9 164.7 93.9 C161.4 93.6 158.1 93.3 154.7 92.9 C155.6 93.3 156.5 93.7 157.3 94.1 C166.3 98.9 170.3 105.9 174.6 114.9 C175.9 119.7 175.9 124 175.7 128.9 C175.4 128.9 175.1 128.9 174.7 128.9 C174.7 130 174.6 131.1 174.6 132.3 C174.2 141 173.4 148.7 170.7 156.9 C169.7 156.9 168.7 156.9 167.7 156.9 C167.5 157.8 167.2 158.7 167 159.6 C165.6 163.2 164.1 165.2 161.5 168 C160.7 168.9 159.9 169.7 159 170.6 C156.7 172.9 156.7 172.9 153.5 175.6 C150.7 177.9 150.7 177.9 148.2 182 C143.9 188.8 138.9 190.5 131.3 192.2 C129.8 192.5 128.4 192.9 126.9 193.2 C123.1 193.9 119.6 194.1 115.7 193.9 C115.7 195.9 115.7 195.9 117.7 199.9 C118.4 199.9 119 199.9 119.7 199.9 C119.7 200.6 119.7 201.3 119.7 201.9 C121 202.6 122.4 203.3 123.7 203.9 C133.7 216.9 139.2 234.7 138.7 250.9 C140 251.6 141.4 252.3 142.7 252.9 C145.9 258.3 146 258.8 145.1 264.5 C144.4 271.2 145.6 275.2 148.4 281.2 C151.4 287.6 151.8 293.9 152 300.8 C152.4 308.5 154.4 313.9 157.7 320.9 C160 329.9 159.9 340.3 157.1 349.1 C156.3 350.3 155.5 351.6 154.7 352.9 C153.8 354.5 152.9 356 151.9 357.6 C144.7 367.4 136.9 372.5 125.7 376.9 C124.7 377.6 123.7 378.3 122.7 378.9 C122.9 380.4 123 381.9 123.2 383.5 C123.6 388.3 123.9 393 124 397.8 C124 399 124 400.3 124 401.6 C123.7 404.9 123.7 404.9 120.7 409.9 C110.5 416.8 103.7 418.2 91.7 417.9 C91.4 416.3 91.1 414.6 90.7 412.9 C87.3 414.8 84.1 416.6 81 419 C73 423.7 64.8 424.5 55.7 422.9 C55.1 422.6 54.4 422.3 53.7 421.9 C53 423.3 52.3 424.6 51.6 426 C50.7 427.7 49.8 429.5 48.8 431.2 C47.9 433 47 434.7 46.1 436.5 C43.7 440.9 43.7 440.9 41.7 443.9 C40.9 450.9 40.9 450.9 43.7 454.4 C49.3 457.2 54.3 456.3 60.2 454.9 C67.4 451.7 72.2 447 76.8 440.8 C80 436.6 83.4 434 87.7 430.9 C89 429.6 90.4 428.3 91.7 426.9 C91.2 430.8 90.6 434.5 89.7 438.3 C88.5 444 87.9 449.4 89.7 454.9 C74.7 460.9 59.7 464.5 43.7 466.9 C42.3 467.2 40.8 467.4 39.3 467.6 C1.9 472.3 -45.2 472.6 -79.3 453.9 C-79.9 453.3 -80.6 452.6 -81.3 451.9 C-80.9 446.2 -79.1 441.2 -77.2 435.8 C-76.6 434.1 -76 432.3 -75.3 430.5 C-72.6 423.2 -69.8 415.9 -67 408.6 C-64.1 400.6 -62.4 393.5 -63.3 384.9 C-66.2 380.7 -66.2 380.7 -68.2 378.5 C-76.3 368.7 -81.8 356.4 -87.3 344.9 C-87.5 344.4 -87.5 344.4 -88.9 341.6 C-93.1 332.8 -96.9 323.8 -100.4 314.7 C-100.9 313.3 -101.4 312 -102 310.6 C-110 289.6 -118.3 262.6 -110.2 240.4 C-102.1 223.4 -86 213.4 -69.2 206.2 C-60.8 202.3 -55.7 198.7 -52.3 189.9 C-51.3 185.3 -51.2 181.4 -51.2 176.6 C-51.2 175.2 -51.2 173.7 -51.2 172.3 C-51.3 171.2 -51.3 170.1 -51.3 168.9 C-51.8 168.9 -51.8 168.9 -54.5 169 C-58.3 168.9 -58.3 168.9 -63.3 167.9 C-63.4 168.6 -63.4 168.6 -63.8 171.9 C-65.3 176.9 -65.3 176.9 -68.9 181.3 C-73.2 187.2 -72.9 189.8 -72.3 196.9 C-75.3 194.9 -75.3 194.9 -76.3 191.4 C-76.3 185.3 -73.7 182 -70.3 176.9 C-68.1 173 -67.3 171.5 -67.3 166.9 C-67.9 166.6 -67.9 166.6 -71.3 164.9 C-71.3 165.9 -71.4 166.9 -71.4 167.9 C-73.3 176.4 -79.3 181.2 -86.3 185.9 C-94.8 190.2 -103.4 189.8 -112.3 187 C-119.4 184.3 -122.9 181.1 -127.3 174.9 C-127.6 174.1 -127.6 174.1 -129.3 169.9 C-131.3 168.6 -133.3 167.3 -135.3 165.9 C-141.9 159.1 -144.4 152.7 -146 143.4 C-146.2 142 -146.5 140.6 -146.7 139.1 C-147.8 131.1 -147.2 126.2 -143.3 118.9 C-138.5 114.1 -133.5 111 -126.6 110.9 C-125.5 110.9 -124.4 110.9 -123.3 110.9 C-123.6 109.8 -124 108.6 -124.3 107.5 C-124.6 106.7 -124.6 106.7 -125.7 102.9 C-126.2 101.4 -126.6 99.9 -127.1 98.3 C-133.1 76.2 -128.3 52 -117.2 32.2 C-103.6 10.3 -85.4 -3.5 -60.3 -10.1 C-41.2 -13.8 -15.3 -13.9 0 0 Z " fill="#D58845" transform="translate(283.28125,72.0625)"/>
<path d="M0 0 C3.9 4.2 5.5 8.5 7 14 C6.7 15.3 6.3 16.6 6 18 C69.4 18 132.7 18 198 18 C198 51 198 84 198 118 C0 118 -198 118 -402 118 C-402 85 -402 52 -402 18 C-367.5 17.8 -367.5 17.8 -193 17 C-194.4 23.5 -196 29.1 -198.3 35.2 C-199 38 -199 38 -198 43 C-157.2 67.4 -94.3 61.5 -50.2 51.3 C-43.3 49.6 -36.6 47.5 -30 45 C-30.3 44 -30.7 43 -31 42 C-31.5 34.4 -29.9 28.3 -28 21 C-28 20 -28 19 -28 18 C-28.7 18.7 -29.3 19.4 -30 20.1 C-33 23 -33 23 -36.9 26.3 C-40.9 29.9 -43.8 33.7 -47 38 C-53.2 44.2 -59 46.6 -67.7 47.5 C-72.8 46.9 -74.7 46 -78 42 C-78.8 35.4 -77.2 31.6 -73.8 25.9 C-73 24.6 -72.2 23.3 -71.4 21.9 C-70.6 20.6 -69.8 19.3 -69 18 C-67.7 15.7 -66.3 13.3 -65 11 C-64.1 11.4 -63.1 11.7 -62.2 12.1 C-53.3 14 -45.9 12.2 -38 8 C-35.7 6.3 -33.3 4.7 -31 3 C-30 3 -29 3 -28 3 C-27.7 4.6 -27.3 6.3 -27 8 C-6.3 6.3 -6.3 6.3 0 0 Z " fill="#D4E4D6" transform="translate(402,482)"/>
<path d="M0 0 C39.4 0.9 39.4 0.9 53 10 C55.7 12.9 55.7 12.9 57 15 C56.6 15.8 56.6 15.8 54.8 19.6 C49.1 32.1 47.2 44.4 46 58 C40 59.5 34.2 61 28 61 C25.3 58.3 22.7 55.7 20 53 C19 53 18 53 17 53 C16.7 53.7 16.3 54.3 16 55 C12 54.3 8.1 53.7 4 53 C4 54 4 55 4 56 C5.3 56.7 6.6 57.3 8 58 C4.7 58 1.4 58 -2 58 C-1 61 -1 61 1 63 C-0.6 63.3 -2.3 63.7 -4 64 C-4 65 -4 66 -4 67 C-2.5 67.5 -1.1 67.9 0.4 68.4 C5 70 5 70 6 72 C4.8 72.2 4.8 72.2 -1 73 C-1 74 -1 75 -1 76 C0.4 76.3 1.8 76.6 3.3 76.9 C8 78 8 78 11 80 C11 80.7 11 81.3 11 82 C16.2 83.4 20.6 84.2 26 84 C26.5 85 26.9 85.9 27.4 86.9 C30 90 30 90 34 90.7 C35.6 90.8 37.3 90.9 39 91 C43 91.9 47 92.9 51 94 C51.5 96.2 52 98.5 52.5 100.8 C52.6 101.4 52.6 101.4 53.3 104.5 C54 108 54 108 54 112 C52.5 113 51.1 113.9 49.6 114.9 C39.9 121.8 32 129.2 29.3 141.3 C28.8 144.2 28.4 147.1 28 150 C26.4 150 24.7 150 23 150 C23.6 151.7 24.3 153.4 24.9 155.1 C29.3 166.6 28.8 178.2 26 190 C35.6 186.7 45 183.3 54.2 179 C57 178 57 178 60 179 C59.3 179.3 59.3 179.3 56 181 C56.3 182.3 56.7 183.6 57 185 C61 185 64.9 185 69 185 C65.8 188.2 64.4 189 60 190 C57.1 190 54.2 189.8 51.2 189.6 C43.2 188.9 43.2 188.9 41 190 C41 191.3 41 192.6 41 194 C42 194.3 43 194.7 44 195 C42.7 196 41.4 197 40 198 C41.4 198.9 42.8 199.8 44.2 200.7 C49 204 49 204 51.5 206.6 C58.3 213.1 66.1 213.5 75 214 C76.3 214.3 77.6 214.7 79 215 C68.6 220.7 60.6 221.2 49 220 C49.3 220.8 49.5 221.6 49.8 222.4 C50.1 227.8 47.8 231 45.2 235.7 C44.7 236.5 44.7 236.5 42.4 240.8 C41 243.2 39.6 245.6 38 248 C37.2 255 37.2 255 39.9 258.5 C45.6 261.3 50.5 260.3 56.5 259 C63.7 255.8 68.4 251.1 73.1 244.9 C76.3 240.6 79.7 238.1 84 235 C85.3 233.7 86.6 232.4 88 231 C87.5 234.9 86.9 238.6 85.9 242.4 C84.8 248.1 84.1 253.4 86 259 C71 264.9 55.9 268.5 40 271 C38.5 271.2 37.1 271.5 35.6 271.7 C-1.9 276.4 -48.9 276.7 -83 258 C-83.7 257.3 -84.3 256.7 -85 256 C-84.7 250.3 -82.9 245.2 -80.9 239.9 C-80.3 238.1 -79.7 236.4 -79 234.6 C-76.4 227.2 -73.5 219.9 -70.7 212.7 C-67.8 204.6 -66.1 197.6 -67 189 C-69.9 184.8 -69.9 184.8 -71.9 182.6 C-80 172.7 -85.5 160.4 -91 149 C-91.5 147.9 -92 146.8 -92.6 145.7 C-96.8 136.8 -100.6 127.9 -104.1 118.8 C-104.6 117.4 -105.2 116.1 -105.7 114.7 C-113.7 93.7 -122 66.7 -113.9 44.4 C-106.5 29 -93.5 21 -79 13 C-77.9 12.4 -76.9 11.8 -75.8 11.2 C-73 10 -73 10 -68 10 C-64.7 12.1 -64.7 12.1 -61.1 14.8 C-56.8 18 -52.8 20.7 -48 23 C-46.9 23.6 -45.9 24.3 -44.8 24.9 C-31.3 32.3 -16.3 36 -1 35 C4.3 32.9 7.4 31.1 10.8 26.6 C13 19.9 13.1 12.9 10.6 6.3 C7 3.1 3.7 2.7 -1 2 C-0.7 1.3 -0.3 0.7 0 0 Z " fill="#C63C24" transform="translate(287,268)"/>
<path d="M0 0 C3.4 2.4 6 2.8 10 3.4 C22.2 5.7 30.3 11 37.7 20.9 C37.7 21.6 37.7 22.3 37.7 22.9 C39 23.6 40.4 24.3 41.7 24.9 C51.8 35.1 56.6 45.6 57.1 60 C56.8 75.7 52 90.7 40.7 101.9 C39.7 97.7 39.5 94 39.4 89.7 C38.4 71.3 33.6 54.6 19.7 41.9 C11.4 36.9 2.2 37.8 -7.3 37.9 C-7.4 39.1 -7.6 40.2 -7.8 41.4 C-12.5 58.9 -23.3 74.8 -38.3 84.9 C-43.8 88.1 -49.4 90.6 -55.3 92.9 C-62.9 100.7 -63.4 112.4 -63.6 122.8 C-63.5 128.4 -62.8 133.5 -61.3 138.9 C-66.6 133.6 -67.5 129.3 -68.3 121.9 C-68.6 122.6 -68.9 123.3 -69.3 123.9 C-73.3 121.9 -73.3 121.9 -76.7 117.4 C-80.3 112.9 -80.3 112.9 -85.3 110.9 C-89.8 111 -91.7 111.4 -95.2 114.4 C-98.6 118.5 -98.7 121.5 -98.6 126.9 C-97.9 133.6 -94.6 138.5 -90.1 143.4 C-84.2 147.4 -79 149.5 -71.9 148.1 C-70.7 147.7 -69.5 147.3 -68.3 146.9 C-67 146.9 -65.6 146.9 -64.3 146.9 C-62.3 149 -62.3 149 -60.3 151.7 C-57.7 155.1 -55.3 157.9 -52.3 160.9 C-51.5 165.2 -51.5 165.2 -51.3 168.9 C-55.6 169 -59 168.8 -63.3 167.9 C-63.4 168.6 -63.4 168.6 -63.8 171.9 C-65.3 176.9 -65.3 176.9 -68.9 181.3 C-73.2 187.2 -72.9 189.8 -72.3 196.9 C-75.3 194.9 -75.3 194.9 -76.3 191.4 C-76.3 185.3 -73.7 182 -70.3 176.9 C-68.1 173 -67.3 171.5 -67.3 166.9 C-67.9 166.6 -67.9 166.6 -71.3 164.9 C-71.3 165.9 -71.4 166.9 -71.4 167.9 C-73.3 176.4 -79.3 181.2 -86.3 185.9 C-94.8 190.2 -103.4 189.8 -112.3 187 C-119.4 184.3 -122.9 181.1 -127.3 174.9 C-127.6 174.1 -127.6 174.1 -129.3 169.9 C-131.3 168.6 -133.3 167.3 -135.3 165.9 C-141.9 159.1 -144.4 152.7 -146 143.4 C-146.2 142 -146.5 140.6 -146.7 139.1 C-147.8 131.1 -147.2 126.2 -143.3 118.9 C-138.5 114.1 -133.5 111 -126.6 110.9 C-125.5 110.9 -124.4 110.9 -123.3 110.9 C-123.6 109.8 -124 108.6 -124.3 107.5 C-124.6 106.7 -124.6 106.7 -125.7 102.9 C-126.2 101.4 -126.6 99.9 -127.1 98.3 C-133.1 76.2 -128.3 52 -117.2 32.2 C-103.6 10.3 -85.4 -3.5 -60.3 -10.1 C-41.2 -13.8 -15.3 -13.9 0 0 Z " fill="#44291E" transform="translate(283.28125,72.0625)"/>
<path d="M0 0 C13.7 8.7 20.5 21.2 24.2 36.6 C25.1 42.3 25.4 47.7 25.6 53.4 C26 67 26.7 80.3 30.2 93.5 C32.5 102 32.2 108 29 116.3 C26.2 124.3 25.9 130.5 28.6 138.7 C35.1 150.1 44.1 156 56.1 160.9 C55.1 162 54.2 163.1 53.2 164.2 C51.1 166.7 49 169.3 47.1 171.9 C43.1 169.9 43.1 169.9 38.6 167 C24.4 158.6 5.1 158.7 -10.9 158.9 C-10.2 159.1 -10.2 159.1 -6.7 160.1 C-1.9 161.9 -1.9 161.9 0.6 164.3 C2.8 169.9 2.9 175 2.1 180.9 C-0.4 186.1 -3.1 189.8 -7.9 192.9 C-24.8 197.1 -43.7 191 -58.2 182.4 C-59.5 181.6 -60.7 180.8 -61.9 179.9 C-63 179.3 -64.1 178.7 -65.2 178.1 C-70.4 175.1 -75.1 171.5 -79.9 167.9 C-75.9 163.9 -75.9 163.9 -73.4 162.2 C-68.8 158 -67.1 153 -65.9 146.9 C-64.9 126.4 -64.9 126.4 -71.2 119.2 C-72.5 118.2 -73.7 117.1 -74.9 115.9 C-76.7 113.6 -78.3 111.3 -79.9 108.9 C-81.2 109.5 -82.5 110 -83.8 110.6 C-90.8 112.4 -95.8 111.6 -102.2 108.2 C-107.7 103.7 -111.9 98.8 -113.9 91.9 C-114.4 86.5 -114.6 82.5 -112.3 77.4 C-109.6 74.6 -107.7 73.2 -103.9 71.9 C-99.6 71.9 -97.4 72.6 -93.8 75.1 C-90.7 78.1 -88.4 81.4 -85.9 84.9 C-85.3 85.3 -84.6 85.6 -83.9 85.9 C-83.8 85.4 -83.8 85.4 -82.9 82.9 C-82.6 82.9 -82.3 82.9 -81.9 82.9 C-81.5 85.9 -81.1 88.9 -80.7 91.9 C-79.9 94.9 -79.9 94.9 -76.9 98.9 C-77.3 97.9 -77.6 96.9 -77.9 95.9 C-80.7 85 -79.3 72.6 -75.9 61.9 C-72.5 56.2 -71.1 54.4 -64.9 51.9 C-45.1 43.3 -33 29 -24.9 8.9 C-24.4 7.2 -23.8 5.4 -23.2 3.6 C-22.8 2.4 -22.4 1.2 -21.9 -0.1 C-15.2 -2.3 -6.8 -1.8 0 0 Z " fill="#F7C093" transform="translate(297.9375,110.0625)"/>
<path d="M0 0 C1.3 0.6 2.6 1.2 3.9 1.8 C8.7 3.7 13.5 4.8 18.5 5.9 C28.8 8.2 35.8 12 43 20 C42.6 14.7 41.6 11.9 38 8 C38.3 7.3 38.7 6.7 39 6 C45 10 48.4 13.2 51 20 C51 22 51 24 51 26 C52.1 25.9 53.1 25.9 54.2 25.8 C58 26 58 26 63 29 C63.3 29.5 63.3 29.5 65 32 C61.7 31.7 58.4 31.3 55 31 C55.9 31.4 56.7 31.8 57.6 32.2 C66.6 37 70.6 43.9 74.9 53 C76.2 57.8 76.2 62 76 67 C75.7 67 75.3 67 75 67 C75 68.1 74.9 69.2 74.9 70.3 C74.5 79 73.7 86.7 71 95 C70 95 69 95 68 95 C67.9 95.4 67.9 95.4 67.3 97.7 C65.9 101.3 64.4 103.3 61.8 106.1 C60.9 106.9 60.1 107.8 59.3 108.7 C57 111 57 111 53.8 113.6 C51 116 51 116 48.5 120.1 C44.2 126.8 39.2 128.5 31.6 130.2 C30.1 130.6 28.7 130.9 27.2 131.3 C23.3 131.9 19.9 132.1 16 132 C16 134 16 134 18 137 C16.4 137 14.7 137 13 137 C13 136.3 13 135.7 13 135 C12 135.3 11 135.6 10 135.8 C-0.5 138.6 -10.1 140 -21 140 C-18.4 140.3 -15.7 140.7 -13 141 C-16.2 145.1 -18.4 147.2 -23 150 C-25.2 152.7 -25.2 152.7 -27.3 155.7 C-28 156.7 -28.7 157.7 -29.4 158.7 C-29.9 159.5 -30.5 160.2 -31 161 C-36 160 -36 160 -40 158 C-38.1 150.3 -32.9 143.2 -27 138 C-27.4 137.9 -27.4 137.9 -29.4 137.3 C-41.9 132.8 -52.4 125.7 -58.2 113.4 C-60.1 104.9 -59.4 98.4 -56.4 90.4 C-53.5 82.4 -54.1 76.7 -56.1 68.4 C-57.8 60.1 -56.7 53.2 -55 45 C-55.3 44.3 -55.7 43.7 -56 43 C-52.9 35.9 -49.4 30.7 -44 25 C-45 24.7 -46 24.3 -47 24 C-33 9 -17.8 5.6 2 4 C1.3 2.7 0.7 1.4 0 0 Z " fill="#F0BB8F" transform="translate(383,134)"/>
<path d="M0 0 C0.2 0.8 0.2 0.8 1 5 C-3 10.8 -8 14.3 -14 18 C-4.1 21.8 7.9 22.2 18 19 C18.3 18.8 18.3 18.8 20 18 C20.7 18.3 21.3 18.7 22 19 C21.8 20.3 21.7 21.6 21.5 23 C21 27.7 21 32.4 21.1 37.1 C21.1 44.3 21.1 49.9 15.8 55.2 C13.6 57.2 11.3 59.1 9 61 C9.3 61.7 9.7 62.3 10 63 C8.4 63.7 6.7 64.3 5 65 C4 65.7 3 66.3 2 67 C2.2 68.5 2.3 70 2.5 71.6 C2.9 76.3 3.2 81.1 3.2 85.9 C3.3 87.1 3.3 88.3 3.3 89.6 C3 93 3 93 0 98 C-10.2 104.8 -17.1 106.3 -29 106 C-29.3 104.4 -29.7 102.7 -30 101 C-33.4 102.9 -36.6 104.7 -39.7 107.1 C-47.6 111.7 -56 112.8 -65 111 C-66 110 -67 109 -68 108 C-68 106.7 -68 105.4 -68 104 C-67.1 104 -67.1 104 -62.2 104.2 C-53.9 104.2 -46.5 102.7 -39 99 C-40.3 99 -41.6 99.1 -42.9 99.1 C-54.7 98.8 -62.8 95.2 -71 87 C-72.6 86 -74.3 85 -76 84 C-76.7 83 -77.3 82 -78 81 C-77.3 80.7 -77.3 80.7 -74 79 C-75 78 -76 77 -77 76 C-76.8 75.5 -76.8 75.5 -76 73 C-71.6 72.1 -68 72.1 -63.6 72.6 C-58 73.1 -54.2 72.5 -49 70 C-50.8 70 -52.5 70.1 -54.4 70.1 C-60 70 -60 70 -62 68 C-61.8 67.3 -61.8 67.3 -61 64 C-65.3 65.6 -69.6 67.2 -73.8 68.8 C-74.7 69.1 -74.7 69.1 -78.8 70.7 C-79.6 71 -79.6 71 -83.8 72.6 C-88 74 -88 74 -91 74 C-90.8 72.6 -90.7 71.2 -90.5 69.8 C-89.5 58.5 -90 48.9 -93 38 C-93.3 36.7 -93.7 35.4 -94 34 C-91.4 33.7 -88.9 33.4 -86.3 33 C-84.1 32.8 -82 32.5 -79.8 32.2 C-72 31.2 -64.2 30.4 -56.5 29.6 C-50.1 28.5 -46.5 25.9 -42.2 21.2 C-35.2 14 -27.3 10 -18 6.3 C-14.9 4.9 -12 3.3 -9 1.6 C-4 -1 -4 -1 0 0 Z " fill="#FDC698" transform="translate(404,384)"/>
<path d="M0 0 C1.3 0.6 2.6 1.2 3.9 1.8 C8.7 3.7 13.5 4.8 18.5 5.9 C28.8 8.2 35.8 12 43 20 C42.6 14.7 41.6 11.9 38 8 C38.3 7.3 38.7 6.7 39 6 C45 10 48.4 13.2 51 20 C51 22 51 24 51 26 C52.1 25.9 53.1 25.9 54.2 25.8 C58 26 58 26 63 29 C63.3 29.5 63.3 29.5 65 32 C61.7 31.7 58.4 31.3 55 31 C55.9 31.4 56.7 31.8 57.6 32.2 C66.6 37 70.6 43.9 74.9 53 C76.2 57.8 76.2 62 76 67 C75.7 67 75.3 67 75 67 C75 68.1 74.9 69.2 74.9 70.3 C74.5 79 73.7 86.7 71 95 C70 95 69 95 68 95 C67.8 95.9 67.5 96.8 67.3 97.7 C65.9 101.3 64.3 103.3 61.6 106.1 C60.9 107 60.1 107.8 59.3 108.6 C57.2 110.8 55.1 112.9 53 115 C52.3 115 51.7 115 51 115 C50.8 113.6 50.5 112.2 50.2 110.7 C49 106 49 106 45 103 C39.8 102.4 36.5 103.2 32 106 C31.7 106.7 31.3 107.3 31 108 C30.3 107.7 29.7 107.3 29 107 C29.2 106.1 29.4 105.2 29.7 104.3 C32.2 93.6 33.6 84.4 29 74 C27.9 69.6 27.9 65.9 27.9 61.4 C27.9 59.9 28 58.4 28 56.9 C28 55.6 28 54.3 28 53 C28 52 28 51 28 50 C27.1 50.5 26.1 50.9 25.2 51.4 C20 53.4 15.5 53.8 10 54 C8.7 53.3 7.4 52.7 6 52 C9 50 11.9 48 15 46 C14.1 46.3 13.3 46.6 12.4 46.8 C11.8 47 11.8 47 8.9 47.9 C7.7 48.3 6.6 48.7 5.4 49 C-4.5 51.8 -14 51.6 -24 49 C-23.3 48.5 -22.6 47.9 -21.9 47.4 C-18.6 44.6 -15.3 41.8 -12 39 C-13.1 39.4 -14.3 39.9 -15.5 40.3 C-17 40.9 -18.5 41.4 -20.1 42 C-21.6 42.6 -23.1 43.1 -24.6 43.7 C-28.7 44.9 -31.8 45.3 -36 45 C-35.2 44 -35.2 44 -31 39 C-32.4 39.8 -33.8 40.6 -35.2 41.4 C-38.1 43 -41 44.5 -44 46 C-47.9 55.9 -50.7 65.6 -53 76 C-58.2 68.2 -57.7 58.4 -55.9 49.6 C-55.6 48.1 -55.3 46.6 -55 45 C-55.3 44.3 -55.7 43.7 -56 43 C-52.9 35.9 -49.4 30.7 -44 25 C-45 24.7 -46 24.3 -47 24 C-33 9 -17.8 5.6 2 4 C1.3 2.7 0.7 1.4 0 0 Z " fill="#45291E" transform="translate(383,134)"/>
<path d="M0 0 C0 2 0 4 0 6 C4.8 9.6 9.4 11.3 15.1 13.1 C16.7 13.5 18.3 14 19.9 14.5 C66 27.7 120.6 26.1 165.9 9.9 C170 8.7 173.8 8.9 178 9 C181.4 7.6 181.4 7.6 184 6 C184.5 5.8 184.5 5.8 187 5 C187.7 3.7 188.3 2.4 189 1 C193.6 0.1 196.5 0.1 201.1 0.6 C202.5 0.8 203.8 1 205.3 1.1 C206.7 1.3 208.2 1.5 209.7 1.7 C211.2 1.9 212.7 2.1 214.2 2.2 C249.8 6.8 249.8 6.8 257 14 C256 19 256 19 252.9 21.1 C177.4 50.7 7.5 52.9 -68 21 C-69.3 19.7 -70.6 18.4 -72 17 C-71 13 -71 13 -67.9 11 C-53.1 5 -37.1 3.4 -21.3 1.4 C-18.4 1.1 -15.5 0.7 -12.6 0.3 C-2.3 -1.1 -2.3 -1.1 0 0 Z " fill="#D2D3B8" transform="translate(203,518)"/>
<path d="M0 0 C8 6.2 12.1 13.5 14.1 23.4 C14.6 31.4 14.6 38.1 11.1 45.4 C10.5 45.4 9.8 45.4 9.1 45.4 C9.1 46.4 9.1 47.4 9.1 48.4 C5 52.7 1.7 55.2 -3.9 57.2 C-9.5 59.7 -11.4 62.1 -14.9 66.9 C-22.3 76.6 -32 81.8 -43.9 83.4 C-54.2 84 -63 83.2 -72.9 80.4 C-74.5 80.3 -76.2 80.2 -77.9 80.1 C-81.9 79.4 -81.9 79.4 -84.4 76.4 C-84.9 75.4 -85.4 74.4 -85.9 73.4 C-86.9 73.5 -87.9 73.6 -88.9 73.6 C-93.4 73.4 -96.7 72.2 -100.9 70.4 C-100.9 69.8 -100.9 69.1 -100.9 68.4 C-105.1 66.7 -108.4 66 -112.9 65.4 C-113.2 64.1 -113.5 62.8 -113.9 61.4 C-111.6 60.8 -109.3 60.1 -106.9 59.4 C-108.4 58.8 -108.4 58.8 -115.9 55.4 C-115.9 54.4 -115.9 53.5 -115.9 52.4 C-114.9 51.8 -113.9 51.1 -112.9 50.4 C-113.2 49.1 -113.5 47.8 -113.9 46.4 C-111.2 46.1 -108.6 45.8 -105.9 45.4 C-106.5 45.1 -107.2 44.8 -107.9 44.4 C-107.9 43.4 -107.9 42.5 -107.9 41.4 C-103 41.3 -100.3 41.2 -95.9 43.4 C-95.5 42.4 -95.2 41.5 -94.9 40.4 C-89.3 41.8 -86.8 45.3 -82.9 49.4 C-81.6 48.8 -80.2 48.1 -78.9 47.4 C-77.9 47.5 -76.9 47.5 -75.8 47.5 C-71.5 47.4 -67.9 46.4 -63.8 45.2 C-60.8 44.4 -57.9 44.2 -54.7 43.9 C-49.6 43.1 -47.4 41.6 -44.2 37.5 C-40.7 32 -40 26.9 -38.9 20.4 C-31.8 5.5 -17 -6.9 0 0 Z " fill="#FCE5C3" transform="translate(398.875,279.5625)"/>
<path d="M0 0 C4.5 6.7 4.3 13.2 3 21 C2.3 22.8 1.6 24.5 0.9 26.4 C-1.8 34.4 -2.1 40.5 0.6 48.8 C7.1 60.1 16.1 66.1 28 71 C27.1 72.1 26.1 73.1 25.2 74.2 C23 76.8 21 79.4 19 82 C15 80 15 80 10.5 77.1 C-3.7 68.7 -22.9 68.8 -39 69 C-38.3 69.2 -38.3 69.2 -34.8 70.1 C-30 72 -30 72 -27.4 74.4 C-25.2 79.9 -25.2 85.1 -26 91 C-28.5 96.2 -31.1 99.9 -36 103 C-52.8 107.2 -71.8 101.1 -86.3 92.4 C-87.5 91.6 -88.7 90.8 -90 90 C-91.1 89.4 -92.2 88.8 -93.3 88.2 C-98.5 85.1 -103.2 81.6 -108 78 C-104 74 -104 74 -101.5 72.2 C-94.7 66.1 -94 57.6 -93 49 C-88 52 -88 52 -85 54.7 C-73.5 64.2 -60.2 71.2 -45 72 C-45.5 70.7 -46 69.4 -46.5 68.1 C-48.1 62.8 -48.2 58.5 -48 53 C-46.9 53.1 -45.8 53.1 -44.6 53.2 C-36 52.8 -29.7 50.7 -23.4 44.6 C-12.4 32.4 -4.5 19.9 -1.5 3.7 C-1 1 -1 1 0 0 Z " fill="#FDC698" transform="translate(326,200)"/>
<path d="M0 0 C3.7 5.5 2.4 12.6 2 19 C0.4 26.8 -4 30.1 -10 35 C-9.7 35.7 -9.3 36.3 -9 37 C-10.6 37.7 -12.3 38.3 -14 39 C-15 39.7 -16 40.3 -17 41 C-16.8 42.5 -16.7 44 -16.5 45.6 C-16.1 50.3 -15.8 55.1 -15.8 59.9 C-15.7 61.1 -15.7 62.3 -15.7 63.6 C-16 67 -16 67 -19 72 C-29.2 78.8 -36.1 80.3 -48 80 C-48.3 78.4 -48.7 76.7 -49 75 C-52.4 76.9 -55.6 78.7 -58.7 81.1 C-66.6 85.7 -75 86.8 -84 85 C-85 84 -86 83 -87 82 C-87 80.7 -87 79.4 -87 78 C-86.1 78 -86.1 78 -81.2 78.2 C-72.9 78.2 -65.5 76.7 -58 73 C-59.3 73 -60.6 73.1 -61.9 73.1 C-73.7 72.8 -81.8 69.2 -90 61 C-91.6 60 -93.3 59 -95 58 C-95.7 57 -96.3 56 -97 55 C-95.7 54.3 -94.4 53.7 -93 53 C-94 52 -95 51 -96 50 C-95.7 49 -95.3 48 -95 47 C-90.6 46.1 -87 46.1 -82.6 46.6 C-77 47.1 -73.2 46.5 -68 44 C-68.9 44 -68.9 44 -73.4 44.1 C-79 44 -79 44 -81 42 C-80.7 40.7 -80.3 39.4 -80 38 C-72.1 34 -72.1 34 -69 34 C-68.7 33 -68.3 32 -68 31 C-64.2 30 -61.1 29.8 -57.1 29.8 C-56.5 29.7 -56.5 29.7 -53.1 29.7 C-50.3 29.6 -47.4 29.5 -44.6 29.5 C-35.9 29.3 -27.9 29 -20 25 C-20 24 -20 23 -20 22 C-17 21 -14.1 20 -11 19 C-11 18.3 -11 17.7 -11 17 C-10.3 17 -9.7 17 -9 17 C-9 16.3 -9 15.7 -9 15 C-11.6 15.7 -14.3 16.3 -17 17 C-17 16.3 -17 15.7 -17 15 C-14.2 14 -11.4 13 -8.6 12.1 C-6 11 -6 11 -4 9 C-3.7 7.7 -3.3 6.4 -3 5 C-4.6 5.7 -6.3 6.3 -8 7 C-10.3 7.1 -12.7 7.1 -15 7 C-10.9 4.3 -6.8 3.9 -2 3 C-2 2.3 -2 1.7 -2 1 C-1.3 0.7 -0.7 0.3 0 0 Z " fill="#FCC596" transform="translate(423,410)"/>
<path d="M0 0 C4 4.2 5.6 8.4 7 14 C6.1 20.7 1 25 -3.6 29.6 C-6 32 -6 32 -8 35 C-11.5 40.2 -15.1 43.7 -21 46 C-23 46 -25 46 -27 46 C-31 42 -31 42 -31.4 38 C-30.9 32.1 -29.5 26.8 -28 21 C-28 20 -28 19 -28 18 C-28.7 18.7 -29.3 19.4 -30 20.1 C-33 23 -33 23 -36.9 26.3 C-40.9 29.9 -43.8 33.7 -47 38 C-53.2 44.2 -59 46.6 -67.7 47.5 C-72.8 46.9 -74.7 46 -78 42 C-78.8 35.4 -77.2 31.6 -73.8 25.9 C-73 24.6 -72.2 23.3 -71.4 21.9 C-70.6 20.6 -69.8 19.3 -69 18 C-67.7 15.7 -66.3 13.3 -65 11 C-64.1 11.4 -63.1 11.7 -62.2 12.1 C-53.3 14 -45.9 12.2 -38 8 C-35.7 6.3 -33.3 4.7 -31 3 C-30 3 -29 3 -28 3 C-27.8 3.8 -27.8 3.8 -27 8 C-6.3 6.3 -6.3 6.3 0 0 Z " fill="#FBE7C4" transform="translate(402,482)"/>
<path d="M0 0 C4.5 6.7 4.3 13.2 3 21 C2.3 22.8 1.6 24.5 0.9 26.4 C-1.8 34.4 -2.1 40.5 0.6 48.8 C7.1 60.1 16.1 66.1 28 71 C27.1 72.1 26.1 73.1 25.2 74.2 C23 76.8 21 79.4 19 82 C15 80 15 80 10.5 77.1 C-3.3 68.9 -22 68.8 -37.7 69 C-43 69 -43 69 -47 67 C-48.2 62.2 -48.1 57.9 -48 53 C-46.9 53.1 -45.8 53.1 -44.6 53.2 C-36 52.8 -29.7 50.7 -23.4 44.6 C-12.4 32.4 -4.5 19.9 -1.5 3.7 C-1 1 -1 1 0 0 Z " fill="#EEF1EA" transform="translate(326,200)"/>
<path d="M0 0 C3.7 1.8 7.2 3.7 10.7 5.9 C22.2 12.8 33.9 16.4 47 19 C47.1 19.5 47.1 19.5 47.4 21.9 C47.6 23.1 47.8 24.4 47.9 25.7 C48.1 26.9 48.3 28.2 48.5 29.4 C48.9 32.3 49.4 35.2 50 38 C33.8 39.4 20 29.7 8 20 C6.9 19.3 5.7 18.7 4.6 18 C0.2 12.9 0.5 6.5 0 0 Z " fill="#F3B372" transform="translate(231,234)"/>
<path d="M0 0 C4.8 4.8 4.2 10 4.2 16.6 C4.3 17.8 4.3 19.1 4.3 20.4 C4 24 4 24 1 29 C-9.2 35.8 -16.1 37.3 -28 37 C-32 29.2 -32 29.2 -32 27 C-29.9 25.4 -27.9 23.8 -25.8 22.2 C-22.7 19.8 -19.9 17.2 -17.1 14.6 C-11.6 9.5 -5.9 4.7 0 0 Z " fill="#D58946" transform="translate(403,453)"/>
<path d="M0 0 C7 7 8.2 16.7 8.3 26.2 C8.3 33.5 7.9 38.7 4 45 C3.1 46.5 2.1 48.1 1.2 49.6 C-4.2 57.1 -9.6 62.1 -18 66 C-19.3 65.7 -20.6 65.3 -22 65 C-19.8 63.2 -17.5 61.4 -15.3 59.5 C-9.8 53.4 -9.7 46.8 -9.9 38.9 C-10.2 28.3 -10.2 28.3 -8 23 C-8.7 23 -9.3 23 -10 23 C-8.4 19.8 -6.8 16.8 -5 13.8 C-2.5 9.2 -1 5.1 0 0 Z " fill="#C43C24" transform="translate(434,380)"/>
<path d="M0 0 C4.5 1.1 5.6 2.3 8.8 5.6 C9.5 6.4 10.3 7.2 11.2 8.1 C11.8 8.7 12.4 9.3 13 10 C12.5 11.2 12.1 12.4 11.6 13.7 C10 19.1 9.5 23.8 9.2 29.4 C9 32 9 32 8 33 C2.8 32.6 -1.1 32 -6 30 C-6 29.3 -6 28.7 -6 28 C-10.3 26.3 -13.5 25.5 -18 25 C-18.3 23.7 -18.7 22.4 -19 21 C-16.7 20.3 -14.4 19.7 -12 19 C-13.5 18.3 -13.5 18.3 -21 15 C-21 14 -21 13 -21 12 C-20 11.3 -19 10.7 -18 10 C-18.3 8.7 -18.7 7.4 -19 6 C-16.4 5.7 -13.7 5.3 -11 5 C-11.7 4.7 -12.3 4.3 -13 4 C-13 3 -13 2 -13 1 C-8.1 0.8 -5.4 0.8 -1 3 C-0.7 2 -0.3 1 0 0 Z " fill="#FBC291" transform="translate(304,320)"/>
<path d="M0 0 C-0.7 0.3 -0.7 0.3 -4 2 C-3.7 3.3 -3.3 4.6 -3 6 C1 6 4.9 6 9 6 C5.8 9.2 4.4 10 0 11 C-2.9 11 -5.8 10.8 -8.8 10.6 C-16.8 9.9 -16.8 9.9 -19 11 C-19 12.3 -19 13.6 -19 15 C-18 15.3 -17 15.7 -16 16 C-17.3 17 -18.6 18 -20 19 C-18.6 19.9 -17.2 20.8 -15.8 21.7 C-11 25 -11 25 -8.5 27.6 C-1.7 34.1 6.1 34.5 15 35 C16.3 35.3 17.6 35.7 19 36 C9.1 41.4 -0.8 43.4 -12 42 C-18.7 37.5 -20.7 29.2 -23.2 21.8 C-23.7 20.2 -24.2 18.6 -24.8 17 C-26 13 -26 13 -26 10 C-26.7 9.7 -27.3 9.3 -28 9 C-26.9 8.6 -25.9 8.2 -24.8 7.8 C-18.7 5.6 -12.6 3.3 -6.7 0.6 C-3 -1 -3 -1 0 0 Z " fill="#D58845" transform="translate(347,447)"/>
<path d="M0 0 C3.7 5.5 2.4 12.6 2 19 C0.6 24.8 -1 27.7 -6 31 C-5.7 29 -5.3 27 -5 25 C-6 24.3 -7 23.7 -8 23 C-7.7 22.3 -7.3 21.7 -7 21 C-5.7 21 -4.4 21 -3 21 C-3.3 19.4 -3.7 17.7 -4 16 C-4.7 16.7 -5.3 17.4 -6 18.1 C-14.1 26 -20.5 31.5 -32 33 C-36.3 32.9 -40.5 32.6 -44.7 32.3 C-52.8 31.7 -61 31.5 -69 33 C-68.7 32.3 -68.3 31.7 -68 31 C-64.2 30 -61.1 29.8 -57.1 29.8 C-56.5 29.7 -56.5 29.7 -53.1 29.7 C-50.3 29.6 -47.4 29.5 -44.6 29.5 C-35.9 29.3 -27.9 29 -20 25 C-20 24 -20 23 -20 22 C-17 21 -14.1 20 -11 19 C-11 18.3 -11 17.7 -11 17 C-10.3 17 -9.7 17 -9 17 C-9 16.3 -9 15.7 -9 15 C-11.6 15.7 -14.3 16.3 -17 17 C-17 16.3 -17 15.7 -17 15 C-14.2 14 -11.4 13 -8.6 12.1 C-6 11 -6 11 -4 9 C-3.7 7.7 -3.3 6.4 -3 5 C-4.6 5.7 -6.3 6.3 -8 7 C-10.3 7.1 -12.7 7.1 -15 7 C-10.9 4.3 -6.8 3.9 -2 3 C-2 2.3 -2 1.7 -2 1 C-1.3 0.7 -0.7 0.3 0 0 Z " fill="#F0AF6E" transform="translate(423,410)"/>
<path d="M0 0 C8.2 1.7 16.5 3.3 25 5 C24 11.9 23.6 13.4 19 18 C14.6 20.2 12.8 20.7 8 20 C3.8 17.2 1.5 15.2 -0.4 10.5 C-1 7 -1 7 -1 1 C-0.7 0.7 -0.3 0.3 0 0 Z " fill="#C7562F" transform="translate(347,240)"/>
<path d="M0 0 C4.7 -0.6 6.7 -0.2 10.8 2.4 C14.7 6.8 15.2 10.2 16 16 C16.7 16.3 17.3 16.7 18 17 C18 18 18 19 18 20 C14.6 21.7 11.7 21.3 8 21 C3 18.4 -0.2 15.5 -2 10 C-2.3 3.5 -2.3 3.5 0 0 Z " fill="#EEAC6A" transform="translate(192,191)"/>
<path d="M0 0 C1 0 2 0 3 0 C3.7 1.3 4.3 2.6 5 4 C5.7 4.3 6.3 4.7 7 5 C6.3 6.7 5.7 8.3 5 10 C4.5 9.5 4.5 9.5 1.9 6.9 C-2 4 -2 4 -5.9 4.1 C-6.9 4.4 -8 4.7 -9 5 C-8.1 5.4 -7.1 5.8 -6.1 6.2 C-3 8 -3 8 -1 13 C-1.1 16.6 -1.1 16.6 -2 20 C-3.3 21 -4.6 22 -6 23 C-11 22 -11 22 -14 18 C-15.7 12.6 -14.4 9 -12 4 C-8.2 -0.2 -5.5 -0.4 0 0 Z " fill="#513428" transform="translate(312,164)"/>
<path d="M0 0 C1 0.3 2 0.7 3 1 C4.1 4.7 5.1 8.3 6 12 C3 17 3 17 0.2 18.4 C-3.5 19.1 -6.3 18.7 -10 18 C-12.5 13 -12.1 10.4 -11 5 C-7 2 -7 2 -2 2 C-1.3 1.3 -0.7 0.7 0 0 Z " fill="#F4B473" transform="translate(248,198)"/>
<path d="M0 0 C4.2 4.2 4.9 5.2 5 11 C2 16 2 16 1 17 C-5 17 -5 17 -9 14 C-10.1 9.3 -10.7 6.3 -8.4 1.9 C-6 0 -6 0 0 0 Z " fill="#52362A" transform="translate(256,181)"/>
<path d="M0 0 C0.7 1.3 1.3 2.6 2 4 C0.7 4.3 -0.5 4.6 -1.8 4.9 C-13.5 9.6 -22.2 19 -28 30 C-28.3 30 -28.7 30 -29 30 C-28.9 27.5 -28.7 25 -28.6 22.6 C-28.5 21.2 -28.4 19.8 -28.3 18.4 C-28 15 -28 15 -27 14 C-27 12 -27 10 -27 8 C-26.5 8 -26.5 8 -23.9 7.7 C-5.9 5.9 -5.9 5.9 0 0 Z " fill="#FCC394" transform="translate(402,482)"/>
<path d="M0 0 C0.7 1.3 1.3 2.6 2 4 C3 4.3 4 4.7 5 5 C5 7.6 5 10.3 5 13 C0.7 15.1 -1.3 15.5 -6 15 C-7.3 13.7 -8.6 12.4 -10 11 C-10 7.3 -9.2 5.3 -7.2 2.1 C-5 0 -5 0 0 0 Z " fill="#F4B473" transform="translate(318,185)"/>
<path d="M0 0 C2.3 0.7 4.6 1.3 7 2 C8.1 5.2 8.1 5.2 9 9 C7 13 7 13 6 14 C1.4 14.3 -0.8 14.1 -5 12 C-4.7 9 -4.3 6.1 -4 3 C-3 2.7 -2 2.3 -1 2 C-0.7 1.3 -0.3 0.7 0 0 Z " fill="#F4B473" transform="translate(329,226)"/>
</svg>
