<?xml version="1.0" encoding="UTF-8"?>
<!-- Generator: visioncortex VTracer 0.6.12 -->
<svg version="1.1" xmlns="http://www.w3.org/2000/svg" width="600" height="600" viewBox="0 0 600 600" role="img" aria-label="Mouth">
<path d="M0 0 C198 0 396 0 600 0 C600 198 600 396 600 600 C402 600 204 600 0 600 C0 402 0 204 0 0 Z " fill="#EDF2ED" transform="translate(0,0)"/>
<path d="M0 0 C164 0 328 0 497 0 C495.8 9.3 494.5 18.1 492.3 27.2 C492.1 28.3 491.8 29.3 491.5 30.4 C488.2 43.7 484.2 56.4 477.3 68.4 C472.5 77.2 470.9 85.7 469.5 95.6 C464.2 131.6 456.7 168.8 439 201 C438.4 202.2 437.8 203.3 437.1 204.5 C429.6 218.3 420.2 231 410 243 C408 245.3 406.1 247.6 404.1 249.9 C403.2 251 402.3 252.1 401.4 253.2 C386.7 270.7 393.1 311.5 395 333.2 C397.6 358.9 402.4 387.7 418 409 C419.2 410.7 420.4 412.5 421.6 414.2 C423.5 416.9 425.4 419.5 427.4 422 C429 424 429 424 429 426 C418.8 431.8 408.7 437.3 398 442 C396.3 442.8 394.7 443.6 392.9 444.4 C308.2 482.6 204.1 481 118 449 C80 434 80 434 71 425 C72.2 423.8 73.3 422.6 74.5 421.3 C104.5 387.4 107 336.9 106 294 C106 293.4 106 293.4 105.9 290.2 C105.9 286 105.7 281.7 105.6 277.5 C105.5 276.1 105.5 274.8 105.5 273.4 C105 263.2 102.1 258.1 95 251 C94.5 250.4 94.5 250.4 92 247.5 C91.5 247 91.5 247 89.3 244.5 C69.7 221.6 53.6 196.3 44.3 167.5 C43.9 166.1 43.4 164.7 42.9 163.3 C41.6 159.2 40.3 155.1 39 151 C38.6 149.9 38.3 148.7 37.9 147.6 C32.3 128.9 29.8 109.7 27.5 90.4 C26.2 80.9 25.1 74.4 19 67 C7.3 46 3.6 23.7 0 0 Z " fill="#EDAB76" transform="translate(50,70)"/>
<path d="M0 0 C33.5 16.2 69.1 26.4 106 31.2 C107.3 31.4 108.5 31.6 109.8 31.7 C173.2 39.6 264 35.5 318.4 -2.7 C330.9 -10.6 345 -8.8 359.1 -8.5 C362 -8.4 364.8 -8.4 367.6 -8.4 C375 -8.3 382.4 -8.2 389.8 -8 C398.7 -7.9 407.6 -7.8 416.5 -7.6 C430 -7.5 443.5 -7.2 457 -7 C457 26 457 59 457 93 C259 93 61 93 -143 93 C-143 60 -143 27 -143 -7 C-111.9 -7.6 -111.9 -7.6 -98.6 -7.7 C-89.6 -7.9 -80.5 -8 -71.5 -8.2 C-64.2 -8.3 -56.9 -8.4 -49.5 -8.5 C-46.8 -8.5 -44 -8.6 -41.2 -8.7 C-25.5 -9 -13.5 -9 0 0 Z " fill="#D5E3D6" transform="translate(143,507)"/>
<path d="M0 0 C4.3 -0.4 7.8 -1.6 11.8 -3.4 C33.8 -12.8 57.7 -6.9 80.1 -1.9 C100.2 2.5 118.6 4.3 139 0 C132.6 32 98.9 69.7 73 88 C44.6 106.9 10.7 112 -22.9 106.8 C-25.6 106.3 -28.3 105.7 -31 105 C-31.7 104.8 -31.7 104.8 -35 104 C-61.7 96.6 -84.3 78.7 -101 57 C-101.8 56 -102.6 55.1 -103.4 54.1 C-113.5 41.3 -122.1 27.3 -130 13 C-130.5 12.1 -131 11.1 -131.6 10.2 C-135.1 3.5 -135.1 3.5 -134 -1 C-132.7 -0.5 -131.4 -0.1 -130.1 0.4 C-110.5 6.2 -89.8 1.2 -70.4 -3.1 C-67.1 -3.8 -63.8 -4.5 -60.5 -5.2 C-59.1 -5.5 -57.6 -5.9 -56.1 -6.2 C-36.5 -10.1 -17.9 -9 0 0 Z " fill="#C76644" transform="translate(297,211)"/>
<path d="M0 0 C0.4 0.9 0.9 1.9 1.4 2.9 C13.9 28.7 30.8 50.5 49.5 72 C53.3 76.5 54.3 78.8 54.6 84.6 C54.7 85.3 54.7 85.3 54.9 88.7 C55 90.1 55 91.5 55.1 93 C55.2 94.5 55.3 95.9 55.4 97.4 C56 108 56.3 118.4 56 129 C56 130.7 55.9 132.4 55.9 134.2 C54.6 171 48.8 210.7 23 239 C22.3 239.3 22.3 239.3 19 241 C3.5 230.9 -11.1 220.3 -24 207 C-25.2 205.9 -26.4 204.9 -27.6 203.8 C-38.2 193 -45.8 179.7 -52 166 C-52.5 165 -52.9 164.1 -53.4 163.1 C-68.1 131.1 -65.3 94.8 -53.4 62.7 C-48.5 50.3 -42.2 39.5 -34 29 C-33.4 28.2 -32.7 27.4 -32.1 26.5 C-11.3 0 -11.3 0 0 0 Z " fill="#CCDBC4" transform="translate(101,254)"/>
<path d="M0 0 C0.2 0.5 0.2 0.5 1 3 C3 3.7 5 4.3 7 5 C28.9 19.3 46 41.2 54 66 C54.5 67 55 68 55.5 69 C69 96.4 66 131.7 56.8 159.7 C50.5 177.4 40.6 193.9 28 208 C27.3 208 26.7 208 26 208 C25.3 209.3 24.7 210.6 24 212 C16.8 219.8 8.4 226.2 0 232.6 C-0.9 233.3 -1.8 234 -2.7 234.7 C-3.1 234.9 -3.1 234.9 -5 236 C-6 235.7 -7 235.3 -8 235 C-8 234.3 -8 233.7 -8 233 C-8.7 233.3 -9.3 233.7 -10 234 C-9.7 234.7 -9.7 234.7 -8 238 C-9.2 238.8 -9.2 238.8 -15 243 C-15.7 242.7 -16.3 242.3 -17 242 C-18.3 241.7 -19.6 241.3 -21 241 C-53.2 202.8 -55 149.5 -54 102 C-54 100.8 -54 99.6 -53.9 98.4 C-53.5 78.3 -53.5 78.3 -45.6 70.4 C-44.8 69.6 -43.9 68.8 -43 68 C-41.2 66 -39.5 64 -37.8 61.9 C-36.8 60.9 -35.9 59.8 -35 58.6 C-21.4 42 -5.4 21.2 0 0 Z " fill="#CCDBC4" transform="translate(497,251)"/>
<path d="M0 0 C0.7 0.1 0.7 0.1 4.2 0.9 C68.2 13.6 129.4 16.3 193.4 2 C197 1.2 200.4 0.5 204 0 C204.5 13.9 204.5 13.9 201 19 C192.5 25 192.5 25 186 25 C185.6 25.5 185.6 25.5 183.7 27.8 C180.4 31.7 177.9 32.7 173 34 C171 34 169 34 167 34 C166.3 33.3 165.7 32.7 165 32 C164.4 32.9 163.9 33.8 163.3 34.8 C158.6 39.4 153.4 40.7 147 42 C140.8 41.8 140.8 41.8 138 39 C137.4 39.8 136.8 40.6 136.2 41.4 C132.4 45.8 128.6 46.4 123 47 C119.9 47.2 116.8 47.3 113.8 47.3 C113 47.3 113 47.3 109 47.4 C107.7 47.3 106.4 47.1 105 47 C104 45.7 103 44.4 102 43 C101 44.3 100 45.6 99 47 C90.3 48 80.3 48 72 45 C69.1 42.4 69.1 42.4 67 40 C66.3 40 65.7 40 65 40 C64.7 40.3 64.3 40.7 64 41 C55.8 41.5 50.3 41.2 43 37 C40.4 34.2 40.4 34.2 39 32 C38.3 32.7 37.7 33.3 37 34 C30.6 33.8 26.2 32.7 21 29 C20 27.7 19 26.4 18 25 C17.5 24.9 17.5 24.9 14.9 24.6 C9.4 23.7 6.3 21.4 2 18 C-0.8 12.3 -0.2 6.3 0 0 Z " fill="#F8ECDA" transform="translate(197,227)"/>
<path d="M0 0 C6.3 0 12.5 0 19 0 C19.2 2.8 19.4 5.6 19.6 8.5 C20.8 27.1 22.1 45.7 24.4 64.2 C25 69 25 69 25 75 C7 57 3.1 24.1 0 0 Z " fill="#C76644" transform="translate(50,70)"/>
<path d="M0 0 C5.9 0 11.9 0 18 0 C15.3 25.5 8.9 53.2 -5 75 C-5.3 75.2 -5.3 75.2 -7 76 C-6.9 75 -6.8 74 -6.7 72.9 C-6.1 67.6 -5.5 62.3 -5 57 C-4.9 56.4 -4.9 56.4 -4.6 53.4 C-3.1 38.9 -1.7 24.4 -1.2 9.9 C-1 6 -1 6 0 0 Z " fill="#C76644" transform="translate(529,70)"/>
<path d="M0 0 C1.4 0.3 2.9 0.6 4.4 0.9 C5.3 1.1 5.3 1.1 10 2 C13.3 2.7 16.7 3.3 20 4 C19.9 4.9 19.9 5.7 19.8 6.6 C19.7 7.2 19.7 7.2 19.5 10.1 C19.5 10.7 19.5 10.7 19.2 13.6 C19 16.7 19 19.9 19 23 C18.7 23.7 18.3 24.3 18 25 C11.3 24.7 7.2 22.2 2 18 C-0.8 12.3 -0.2 6.3 0 0 Z " fill="#EFDAC0" transform="translate(197,227)"/>
<path d="M0 0 C0.5 13.9 0.5 13.9 -3 19 C-11.5 25 -11.5 25 -18 25 C-18.9 20.3 -19.1 15.9 -19.1 11.1 C-19.1 9.8 -19 8.4 -19 7.1 C-19 6.1 -19 5 -19 4 C-16.4 3.3 -13.8 2.7 -11.2 2 C-9.7 1.6 -8.3 1.3 -6.8 0.9 C-3 0 -3 0 0 0 Z " fill="#EFDAC0" transform="translate(401,227)"/>
<path d="M0 0 C-0.3 1.7 -0.7 3.3 -1 5 C-5.3 7.2 -7.3 7.2 -12.1 7 C-18.7 6.8 -18.7 6.8 -22 9 C-27.4 11 -27.4 11 -30 11 C-27 5 -22.5 0.5 -16.2 -2.2 C-9.8 -3.8 -5.7 -3.3 0 0 Z " fill="#C76644" transform="translate(347,151)"/>
<path d="M0 0 C4.1 3 7.1 6.5 10.3 10.4 C10 11.1 9.7 11.8 9.3 12.4 C8 11.8 6.7 11.1 5.3 10.4 C4.3 10.1 3.3 9.8 2.3 9.4 C1.3 8.8 0.3 8.1 -0.7 7.4 C-4.2 7.3 -7.7 7.5 -11.2 7.7 C-14.7 7.4 -14.7 7.4 -19.7 4.4 C-19.4 2.8 -19 1.1 -18.7 -0.6 C-11.9 -3.3 -6.7 -2.8 0 0 Z " fill="#C76644" transform="translate(270.6875,150.5625)"/>
</svg>
