<?xml version="1.0" encoding="UTF-8"?>
<!-- Generator: visioncortex VTracer 0.6.12 -->
<svg version="1.1" xmlns="http://www.w3.org/2000/svg" width="600" height="600" viewBox="0 0 600 600" role="img" aria-label="Person">
<path d="M0 0 C198 0 396 0 600 0 C600 198 600 396 600 600 C402 600 204 600 0 600 C0 402 0 204 0 0 Z " fill="#EDF2ED" transform="translate(0,0)"/>
<path d="M0 0 C21.7 15.9 33.1 38.2 40 63.8 C41.8 70.4 43.7 75.2 48.5 80.3 C57.9 91.5 63 102.2 62.3 116.9 C61 125.2 61 125.2 57.3 128.9 C57.5 128 57.6 127.1 57.8 126.1 C58.9 116.8 58.8 109.6 55.3 100.9 C55.6 102.5 56 104.2 56.3 105.9 C57.2 115.7 55.4 123.5 52.4 132.8 C50.5 139.7 49.8 146 53.2 152.6 C55.3 154.9 55.3 154.9 57.3 155.9 C60 155.9 62.6 155.9 65.3 155.9 C63.3 160.9 62.8 162.2 58.3 164.9 C53.5 165.6 53.5 165.6 49.3 165.9 C49.4 167 49.5 168.2 49.6 169.4 C49.2 174.9 47.7 177.5 44.3 181.9 C38.4 185.9 38.4 185.9 35.3 185.9 C35.3 184.9 35.3 183.9 35.3 182.9 C34.4 184 33.6 185.1 32.7 186.2 C29.6 189.6 27.5 191.2 23.3 192.9 C29 198.5 39.3 200.2 46.8 202.2 C60 206.1 70.6 210.5 78 222.7 C95.5 254.9 100 296.2 106.8 331.6 C107 332.7 107.2 333.8 107.5 335 C108 337.9 108.6 340.9 109.1 343.8 C110.3 348.9 110.3 348.9 112.4 353.7 C114.8 360.3 114.8 366.1 114.7 373.1 C114.7 373.7 114.7 373.7 114.7 376.8 C114.6 388.1 112.7 394 105.3 402.9 C104.1 404.3 103 405.8 101.8 407.2 C98.5 410.7 96.5 412.1 92.3 413.9 C91.1 414.8 89.9 415.6 88.7 416.6 C82.7 419.7 79 419.5 72.3 418.9 C71.7 418.4 71.7 418.4 68.3 415.9 C73.2 413.3 77.9 411.2 83.3 409.9 C85 401.3 84.3 394.8 80.3 386.9 C75.1 380.7 70.8 377.6 62.9 375.9 C55.4 375.8 50.3 379.7 44.3 383.9 C44.3 377.7 45.3 374.5 49.4 369.9 C52.8 366 53.3 365.2 53.8 359.7 C53.6 358.1 53.5 356.5 53.3 354.9 C53.5 353.7 53.7 352.6 53.9 351.5 C54.3 347.6 53.9 345.4 52.7 341.7 C49.8 332.5 47.6 323.2 45.3 313.9 C42.5 319.6 41.2 325.6 39.6 331.8 C38.8 334.9 38 338 37.1 341.1 C34.4 350.8 32 362 35.3 371.9 C35.7 376.8 35.7 376.8 35.3 381.9 C32.7 384.6 32.7 384.6 30.3 386.9 C30.5 390.2 30.5 390.2 31.3 392.9 C18.4 401 9 404.2 -6.2 400.9 C-9.3 400.1 -12.4 399.4 -15.4 398.6 C-26.6 396.7 -34.6 401.8 -43.7 407.9 C-51.2 414.2 -56.8 423.3 -58.7 432.9 C-52.9 431 -52.9 431 -50.7 429.9 C-51 430.7 -51.3 431.6 -51.6 432.5 C-52.6 435.6 -53.2 438.6 -53.7 441.9 C-51.4 441.5 -49.1 441.2 -46.7 440.9 C-46.7 441.9 -46.7 442.9 -46.7 443.9 C-43.6 443.4 -40.7 442.9 -37.7 441.9 C-37.7 443.2 -37.7 444.5 -37.7 445.9 C-30.6 444 -24.2 441.4 -17.6 438.2 C-12.5 435.9 -8.5 435.8 -3.1 436 C5 436 11.9 435.5 18.4 430.4 C23.1 427.4 27.2 426.3 32.6 425 C33.4 424.8 33.4 424.8 37.9 423.7 C42.3 422.9 42.3 422.9 45.3 423.9 C46.8 427.6 48 431.2 49.2 434.9 C49.5 436.1 49.9 437.2 50.2 438.3 C58.9 466.7 58.9 466.7 58.3 479.9 C51.6 481.8 44.9 482.6 38 483.4 C37.5 483.4 37.5 483.4 34.9 483.7 C31 484.2 27.2 484.5 23.3 484.9 C21.5 485 19.6 485.2 17.7 485.4 C-0.5 487 -18.6 487.2 -36.9 487.1 C-41.9 487.1 -46.8 487.1 -51.8 487.1 C-81.7 487.2 -112.3 486.8 -141.7 480.9 C-142 473.2 -140.8 466.2 -139.2 458.8 C-138.9 457.5 -138.7 456.3 -138.4 455 C-134.2 436.7 -128.1 418.4 -118.9 401.9 C-116.1 396.8 -114.7 392.7 -114.7 386.9 C-115.3 386.2 -115.3 386.2 -118.7 382.9 C-119 378.3 -119.2 374.4 -117.7 370 C-113.6 357.3 -118.1 342.5 -120.7 329.9 C-121 331.1 -121.2 332.3 -121.5 333.5 C-134.4 386.9 -134.4 386.9 -155.2 399.6 C-160.9 402.5 -164.3 403.4 -170.7 402.9 C-182.8 398 -188.7 390.4 -194.7 379.3 C-196.6 376.1 -198.6 373.4 -201 370.5 C-207.2 362.7 -208.4 356.8 -207.7 346.9 C-206.2 341.7 -206.2 341.7 -204.7 337.9 C-200.9 341.7 -200.4 347.8 -199 352.8 C-197.7 356.9 -197.7 356.9 -194.7 360.9 C-188.1 362.4 -183.7 361.9 -177.7 358.9 C-170.6 354.2 -166.8 347.3 -164.2 339.3 C-162.9 329 -166 322.8 -171.2 313.9 C-173.2 308.6 -172.3 306.3 -170.7 300.9 C-170.1 298.3 -169.4 295.8 -168.8 293.2 C-165.1 278 -161.2 262.7 -157 247.5 C-156.7 246.2 -156.3 245 -156 243.7 C-151.8 228.9 -147.4 214.4 -133.6 206.3 C-128.8 203.9 -123.8 202.5 -118.6 201.1 C-107.8 198 -107.8 198 -106.7 196.9 C-108.3 195.9 -110 194.9 -111.7 193.9 C-110.7 192.9 -109.7 191.9 -108.7 190.9 C-109 190.9 -109.3 190.9 -109.7 190.9 C-112.4 190.9 -115 190.9 -117.7 190.9 C-117.4 190.2 -117 189.6 -116.7 188.9 C-118 188.8 -119.3 188.8 -120.7 188.7 C-126.1 187.8 -129.2 186 -133.7 182.9 C-133.7 182.2 -133.7 181.6 -133.7 180.9 C-133.1 180.7 -133.1 180.7 -130.3 180.1 C-126.7 178.9 -126.7 178.9 -124.7 175.9 C-124 167.1 -126.2 162.3 -130.7 154.9 C-133.1 150.9 -135 147.2 -136.7 142.9 C-136.2 148.4 -135.6 151 -132.7 155.9 C-132.7 156.5 -132.7 157.2 -132.7 157.9 C-137.7 156.2 -139.4 151.3 -141.7 146.9 C-145.9 136.2 -143.6 125 -139.4 114.6 C-137.5 110.5 -135.6 106.3 -133.2 102.4 C-128.3 93.7 -127.4 85.4 -126.6 75.6 C-124.6 53.2 -120.1 30.3 -103.1 14.2 C-98.7 10.9 -98.7 10.9 -94.9 9.9 C-90.1 8.4 -89.2 5.1 -86.7 0.9 C-64.8 -21.9 -24.1 -15.9 0 0 Z " fill="#29374B" transform="translate(351.6875,62.125)"/>
<path d="M0 0 C71.9 0 143.9 0 218 0 C215.8 11.1 215.8 11.1 214.7 15.9 C214.5 16.9 214.3 17.9 214.1 19 C213.7 21 213.2 23.1 212.8 25.2 C211.5 31.1 210.6 37 210 43 C211.5 43.1 213 43.3 214.6 43.4 C219.1 43.8 223.6 44.3 228.2 44.7 C229.5 44.8 230.7 45 232.1 45.1 C234.7 45.4 237.3 45.6 239.8 45.9 C261 48 282 48.2 303.2 48.2 C308.2 48.2 313.2 48.3 318.2 48.3 C349 48.4 379.5 46.3 410 42 C409.4 38.6 408.9 35.1 408.3 31.7 C408 29.8 407.7 27.9 407.4 25.9 C405.6 17.2 403.3 8.6 401 0 C466.7 0 532.3 0 600 0 C600 33 600 66 600 100 C402 100 204 100 0 100 C0 67 0 34 0 0 Z " fill="#D4E3D6" transform="translate(0,500)"/>
<path d="M0 0 C1.5 -0 2.9 -0.1 4.5 -0.1 C8.5 0.2 8.5 0.2 13.5 3.2 C15.4 6.4 15.4 6.4 17.2 10.2 C20.5 16.6 24.1 21.8 28.7 27.2 C30.5 29.3 30.5 29.3 31.5 31.2 C30.6 31.4 29.7 31.6 28.8 31.8 C27.6 32.1 26.5 32.3 25.2 32.6 C24.1 32.8 22.9 33 21.7 33.3 C18.5 34.2 18.5 34.2 14.5 37.2 C14.2 38.2 13.8 39.2 13.5 40.2 C14.5 39.9 15.6 39.6 16.6 39.3 C30.5 35.5 39.1 35.9 51.7 42.9 C54.5 45.2 54.5 45.2 55.4 48.2 C55.6 52.9 55.6 57.5 55.5 62.2 C56.2 62.2 56.8 62.2 57.5 62.2 C57.8 60.8 58 59.4 58.3 58 C59.5 53.2 59.5 53.2 62.5 49.2 C65.4 49.5 65.4 49.5 68.5 50.2 C71.6 56.4 71.2 62.5 70.5 69.2 C68.2 74.8 68.2 74.8 65.5 79.2 C64.5 81.6 63.5 83.9 62.5 86.2 C61.2 85.6 59.9 84.9 58.5 84.2 C58.8 82.9 59.2 81.6 59.5 80.2 C59.2 80.4 59.2 80.4 57.5 81.2 C57.5 82.2 57.5 83.2 57.5 84.2 C56.5 84.2 55.5 84.2 54.5 84.2 C54.4 85.1 54.2 86 54.1 86.9 C51.7 99.5 47.4 107.9 38.5 117 C33.9 122.3 34.3 127.6 34.5 134.2 C35.2 134.4 35.2 134.4 38.7 135 C43.3 136.2 45.3 136.9 48.5 140.2 C49.5 142.2 50.5 144.2 51.5 146.2 C52.8 147.6 54.1 148.9 55.5 150.2 C56.2 154.5 56.2 154.5 56.5 158.2 C57.5 157.9 58.5 157.6 59.5 157.2 C59.8 156.6 60.2 155.9 60.5 155.2 C70.3 165.4 67.6 185.2 67.5 198.2 C63.7 195.4 59.9 192.6 56.4 189.4 C53.2 187 51.4 186.3 47.5 186.2 C46.5 186.9 45.5 187.6 44.5 188.2 C43.4 197.2 46.4 202.8 50.7 210.6 C56.5 222.1 54.1 237.4 50.8 249.3 C48.5 256.4 45.9 263.5 42.5 270.2 C39.5 269.2 39.5 269.2 37.9 266.7 C37.4 265.6 36.8 264.5 36.2 263.3 C34 259 31.7 255 28.9 251.1 C18.5 236.1 19 223.7 21.5 206.2 C15.1 211.2 9.7 216 4.5 222.2 C3.8 222.9 3.2 223.6 2.5 224.2 C2.8 225.6 3.2 227 3.5 228.4 C5 237.3 4.6 245.7 4 254.6 C3.5 263.4 3.4 272.1 3.3 280.9 C3.3 282.3 3.3 283.7 3.2 285.2 C3.2 291.1 3.1 297.1 3.1 303 C2.7 359 2.7 359 -1.5 363.2 C-16.7 364.1 -31.2 362.1 -45.9 358.1 C-49.5 357.2 -49.5 357.2 -55.1 356.8 C-61.3 356 -64.2 353.6 -68.5 349.2 C-69.1 344.7 -68.3 341.5 -67 337.1 C-61.5 318 -70.3 297.4 -75.7 279.1 C-77.1 273.9 -77.6 269.2 -77.6 263.8 C-77.9 240.5 -78.8 216.8 -85.5 194.2 C-85.3 195.4 -85.1 196.6 -84.9 197.9 C-84.6 199.5 -84.3 201 -84.1 202.7 C-83.8 204.3 -83.5 205.8 -83.3 207.4 C-82 215.7 -81.3 223.7 -81.3 232.1 C-81.3 233.9 -81.3 235.7 -81.3 237.6 C-81.5 242.2 -81.5 242.2 -83.5 246.2 C-85.5 242.6 -87.5 239 -89.5 235.2 C-89.1 236.5 -88.6 237.8 -88.2 239.1 C-87.6 240.8 -87.1 242.5 -86.5 244.2 C-85.9 245.8 -85.4 247.5 -84.8 249.2 C-80.8 264.7 -84.3 289.9 -91.5 304.2 C-92.2 304.2 -92.8 304.2 -93.5 304.2 C-94 303.5 -94.5 302.8 -95 302.1 C-98.5 298.1 -102.9 295.9 -107.5 293.2 C-109.2 292 -110.9 290.6 -112.5 289.2 C-108.9 295.8 -108.9 295.8 -106.4 298.6 C-102.1 304.5 -100.9 311.1 -101.5 318.2 C-103.3 329.5 -107.8 337.8 -116.5 345.2 C-124.5 350.5 -132.1 351.5 -141.5 350.2 C-143.2 349.3 -144.8 348.3 -146.5 347.2 C-146.8 347.9 -147.2 348.6 -147.5 349.2 C-148.2 347.9 -148.9 346.6 -149.6 345.2 C-152.5 340.3 -152.5 340.3 -155.6 336.7 C-161.5 329.7 -162.1 323.2 -161.5 314.2 C-160 309.1 -160 309.1 -158.5 305.2 C-154.7 309 -154.2 315.1 -152.8 320.2 C-151.5 324.2 -151.5 324.2 -148.5 328.2 C-141.9 329.7 -137.6 329.2 -131.5 326.2 C-124.4 321.6 -120.6 314.7 -118.1 306.7 C-116.7 296.3 -119.8 290.1 -125 281.3 C-127 276 -126.1 273.7 -124.5 268.2 C-123.9 265.7 -123.3 263.2 -122.7 260.6 C-118.9 245.3 -115 230.1 -110.8 214.9 C-110.5 213.6 -110.1 212.3 -109.8 211 C-105.6 196.3 -101.2 181.8 -87.4 173.7 C-82.6 171.3 -77.6 169.9 -72.4 168.5 C-68.8 167.5 -65.1 166.4 -61.5 165.2 C-61.2 164.6 -60.8 163.9 -60.5 163.2 C-56.2 163.2 -51.9 163.2 -47.5 163.2 C-47.4 171.7 -47.8 180 -48.5 188.5 C-48.6 189.6 -48.7 190.8 -48.8 191.9 C-49 194.7 -49.3 197.5 -49.5 200.2 C-47.4 199.5 -45.4 198.7 -43.3 197.9 C-42.2 197.4 -41 197 -39.8 196.5 C-37 195.5 -34.3 194.4 -31.5 193.2 C-28.2 193.6 -28.2 193.6 -25.5 194.2 C-25.5 196.9 -25.5 199.5 -25.5 202.2 C-23.9 203.3 -22.2 204.3 -20.6 205.3 C-15.3 208.7 -10.4 212.3 -5.5 216.2 C-3.8 217.6 -2.2 218.9 -0.5 220.2 C-6.4 213.3 -12.4 207.7 -19.8 202.3 C-22.5 200.2 -22.5 200.2 -24.5 198.2 C-24.3 195.2 -23.9 192.2 -23.5 189.2 C-27.5 186.2 -27.5 186.2 -30.4 186.3 C-34.1 187.4 -36.2 189.1 -39.1 191.7 C-42.3 194.4 -44.7 196.4 -48.5 198.2 C-48.2 194.3 -47.9 190.3 -47.6 186.4 C-47.5 185.3 -47.5 184.2 -47.4 183 C-46 164.8 -46 164.8 -41.7 160.3 C-39 158.6 -36.3 156.9 -33.5 155.2 C-32.3 152.5 -32.3 152.5 -31.4 149.4 C-29.6 143.3 -28 139.8 -22.5 136.4 C-19.5 135.2 -19.5 135.2 -15.5 135.2 C-15.8 131.6 -16.2 128 -16.5 124.2 C-18.1 123.6 -19.8 122.9 -21.5 122.2 C-30.3 115.6 -38.3 107.4 -40.5 96.2 C-43.5 97.2 -43.5 97.2 -46.5 100.2 C-51.1 98 -51.8 96.5 -54.5 92.2 C-55.5 91 -56.5 89.7 -57.6 88.4 C-62.4 81.5 -64.4 75.7 -63.5 67.2 C-62.2 65.9 -60.9 64.6 -59.5 63.2 C-53.7 64.7 -52.5 68.3 -49.5 73.2 C-49.7 71.7 -49.8 70.2 -50 68.6 C-50.9 58.4 -51.2 49.9 -47.5 40.2 C-46.9 37.8 -46.2 35.3 -45.6 32.8 C-43.1 23.2 -39.6 14.1 -31.4 7.9 C-28.5 6.2 -28.5 6.2 -25.5 6.2 C-25.5 5.6 -25.5 4.9 -25.5 4.2 C-16.5 1.2 -16.5 1.2 -13.5 1.2 C-8.8 0.3 -4.7 0 0 0 Z " fill="#394C68" transform="translate(305.5,94.75)"/>
<path d="M0 0 C21.7 15.9 33.1 38.2 40 63.8 C41.8 70.4 43.7 75.2 48.5 80.3 C57.9 91.5 63 102.2 62.3 116.9 C61 125.2 61 125.2 57.3 128.9 C57.5 128 57.6 127.1 57.8 126.1 C58.9 116.8 58.8 109.6 55.3 100.9 C55.6 102.5 56 104.2 56.3 105.9 C57.2 115.7 55.4 123.5 52.4 132.8 C50.5 139.7 49.8 146 53.2 152.6 C55.3 154.9 55.3 154.9 57.3 155.9 C60 155.9 62.6 155.9 65.3 155.9 C63.3 160.9 62.8 162.2 58.3 164.9 C53.5 165.6 53.5 165.6 49.3 165.9 C49.4 167 49.5 168.2 49.6 169.4 C49.2 174.9 47.7 177.5 44.3 181.9 C38.4 185.9 38.4 185.9 35.3 185.9 C35.3 184.9 35.3 183.9 35.3 182.9 C34.4 184 33.6 185.1 32.7 186.2 C29.5 189.6 27.7 191.3 23.3 192.9 C21.3 192.9 19.4 192.9 17.3 192.9 C16.3 191.9 15.3 190.9 14.3 189.9 C13 190.2 11.7 190.5 10.3 190.9 C9.3 187.2 8.3 183.6 7.3 179.9 C6.3 179.5 5.3 179.2 4.3 178.9 C4 178.3 4 178.3 2.4 175.5 C-0.3 170.8 -3.3 169.3 -8.5 167.7 C-9.6 167.4 -10.6 167.2 -11.7 166.9 C-12.9 157.5 -12.9 157.5 -10.7 151.9 C-9.7 150.9 -8.6 149.9 -7.6 148.9 C0.5 140.5 4.8 130.8 7.5 119.5 C7.8 118.7 8 117.8 8.3 116.9 C9 116.5 9.6 116.2 10.3 115.9 C10.6 115.2 10.6 115.2 12.3 111.9 C13 112.2 13.6 112.5 14.3 112.9 C14 114.2 13.7 115.5 13.3 116.9 C14.3 117.2 15.3 117.5 16.3 117.9 C16.4 117.5 16.4 117.5 17 115.5 C18.3 111.9 18.3 111.9 20.9 107.4 C24.8 99.9 24.3 91 22.3 82.9 C20.3 82.9 18.4 82.9 16.3 82.9 C12.4 91.5 12.4 91.5 11.3 94.9 C10.7 94.9 10 94.9 9.3 94.9 C9.3 94.3 9.3 94.3 9.3 91.4 C8.8 79.4 8.8 79.4 4.7 75.2 C-6.7 68.8 -16.5 69.5 -28.7 72.9 C-30 72.9 -31.3 72.9 -32.7 72.9 C-31.7 68.9 -31.7 68.9 -29.2 66.8 C-24.8 64.4 -20.6 63.7 -15.7 62.9 C-16.8 61.7 -18 60.5 -19.2 59.2 C-24.4 53.4 -27.9 46.7 -31.7 39.9 C-34.7 34.9 -34.7 34.9 -37.7 33.9 C-40.4 33.8 -43.1 33.7 -45.9 33.7 C-46.6 33.7 -46.6 33.7 -50.3 33.6 C-54.7 33.9 -58.5 34.7 -62.7 35.9 C-63.7 35.9 -64.7 35.9 -65.7 35.9 C-66 36.2 -66.3 36.5 -66.7 36.9 C-68.3 36.9 -70 36.9 -71.7 36.9 C-71.7 37.5 -71.7 38.2 -71.7 38.9 C-72.1 39.1 -72.1 39.1 -74.4 40.1 C-82.7 44.6 -87 52.3 -89.8 61.1 C-91.6 67.3 -93.1 73.6 -94.7 79.9 C-95 80.5 -95.3 81.2 -95.7 81.9 C-95.9 90.3 -95.5 98.5 -94.7 106.9 C-98 103.6 -100.2 100.7 -102.7 96.9 C-103.5 97 -103.5 97 -107.7 97.9 C-110.3 103 -108.7 108.7 -107.1 113.9 C-104.6 119.1 -101.6 122.7 -97.7 126.9 C-97.2 127.7 -97.2 127.7 -94.7 131.9 C-93.4 131.9 -92 131.9 -90.7 131.9 C-90.4 130.9 -90 129.9 -89.7 128.9 C-88.7 128.9 -87.7 128.9 -86.7 128.9 C-86.3 129.8 -86.3 129.8 -84.2 134.2 C-79.1 144.5 -72.3 150.9 -62.7 156.9 C-61 160.3 -61.6 164.1 -61.7 167.9 C-62.5 168.1 -62.5 168.1 -66.4 169.5 C-71.8 171.9 -73.3 172.6 -75.7 177.9 C-76.2 179.8 -76.7 181.7 -77.2 183.6 C-77.7 185.4 -78.2 187.1 -78.7 188.9 C-79.3 189.2 -79.3 189.2 -82.7 190.9 C-87.5 193.7 -88.5 194.4 -90.7 199.9 C-92.5 209.8 -93.1 219.8 -93.7 229.9 C-92.5 229 -91.4 228.1 -90.2 227.2 C-88.7 226.1 -87.2 225 -85.7 223.9 C-84.3 222.7 -83 221.6 -81.6 220.4 C-77.7 217.9 -77.7 217.9 -74.4 217.8 C-71.7 218.9 -71.7 218.9 -68.7 222.9 C-69 227.1 -69 227.1 -69.7 230.9 C-68.2 232.1 -66.7 233.2 -65.2 234.4 C-58.1 240.1 -51.5 245.8 -45.7 252.9 C-46 253.5 -46.3 254.2 -46.7 254.9 C-47.7 253.7 -48.8 252.6 -49.8 251.4 C-54.5 246.7 -59.9 243.3 -65.5 239.9 C-68.7 237.9 -68.7 237.9 -72.7 234.9 C-72.5 233.6 -72.5 233.6 -71.7 226.9 C-77.2 227.1 -81.5 228.1 -86.5 230.4 C-91.7 232.9 -91.7 232.9 -95.7 232.9 C-95.8 224.5 -95.5 216.3 -94.7 207.9 C-94.6 204.2 -94.6 200.5 -94.7 196.9 C-95.8 196.9 -97 197 -98.2 197 C-102.7 196.9 -106.4 196.1 -110.7 194.9 C-110.7 191.9 -110.7 191.9 -109.7 190.9 C-112.3 190.9 -115 190.9 -117.7 190.9 C-117.4 190.2 -117 189.6 -116.7 188.9 C-118 188.8 -119.3 188.8 -120.7 188.7 C-126.1 187.8 -129.2 186 -133.7 182.9 C-133.7 182.2 -133.7 181.6 -133.7 180.9 C-133.1 180.7 -133.1 180.7 -130.3 180.1 C-126.7 178.9 -126.7 178.9 -124.7 175.9 C-124 167.1 -126.2 162.3 -130.7 154.9 C-133.1 150.9 -135 147.2 -136.7 142.9 C-136.2 148.4 -135.6 151 -132.7 155.9 C-132.7 156.5 -132.7 157.2 -132.7 157.9 C-137.7 156.2 -139.4 151.3 -141.7 146.9 C-145.9 136.2 -143.6 125 -139.4 114.6 C-137.5 110.5 -135.6 106.3 -133.2 102.4 C-128.3 93.7 -127.4 85.4 -126.6 75.6 C-124.6 53.2 -120.1 30.3 -103.1 14.2 C-98.7 10.9 -98.7 10.9 -94.9 9.9 C-90.1 8.4 -89.2 5.1 -86.7 0.9 C-64.8 -21.9 -24.1 -15.9 0 0 Z " fill="#3E2C24" transform="translate(351.6875,62.125)"/>
<path d="M0 0 C4.4 0.9 7.7 2 11.8 3.8 C17.3 6 22.8 7.9 28.6 9.4 C41.8 13.2 52.4 17.7 59.7 29.8 C77.2 62 81.7 103.3 88.5 138.7 C88.7 139.8 88.9 141 89.1 142.1 C89.7 145.1 90.2 148 90.8 150.9 C92 156 92 156 94.1 160.8 C96.6 167.6 96.4 173.5 96.2 180.6 C96.2 181.9 96.2 183.2 96.2 184.5 C96.1 187.7 96.1 190.8 96 194 C95.2 194.3 95.2 194.3 91 196 C90.6 195 90.2 193.9 89.8 192.9 C86 183.6 82.1 177.1 75 170 C74.7 169.3 74.3 168.7 74 168 C79 169 79 169 83 171 C83 170.3 83 169.7 83 169 C81.4 168.3 79.7 167.7 78 167 C76.5 166.3 74.9 165.6 73.4 164.9 C65.2 161.8 56.6 162.7 48 163 C53.3 157.7 58.9 155.1 66 153 C57.5 152.2 49.8 155.9 42 159 C39.9 153.9 39.7 149.3 39.6 143.8 C39.2 134 38.2 124.3 37 114.6 C35.6 102.8 35.3 93.1 40 82 C38 85 36 87.9 34 91 C33.7 91 33.3 91 33 91 C32 67.5 37.6 44.8 46 23 C36 44.6 32 69.1 28.3 92.4 C25.6 109.1 20.3 124.8 14.2 140.5 C10.8 149.2 7.5 157.8 7.7 167.3 C7.7 168.4 7.7 169.6 7.7 170.7 C8 174.1 8.9 176.8 10 180 C10.3 185 10.3 187.5 8 192 C0.8 196.4 -6.6 197.5 -14.8 198.4 C-19.8 199.1 -24.6 200.2 -29.4 201.3 C-36.8 202.8 -43.9 203.1 -51.5 203.1 C-53.3 203.1 -55.1 203 -56.9 203 C-58.3 203 -59.6 203 -61 203 C-65 197 -63 189.5 -62 182.7 C-60.9 174.1 -60.7 165.6 -60.6 156.9 C-60.6 155.3 -60.5 153.7 -60.5 152 C-60.5 147 -60.4 141.9 -60.4 136.9 C-60.3 133.5 -60.3 130.2 -60.3 126.9 C-60.1 117.2 -60.1 107.6 -60 98 C-60 96.5 -60 95 -60 93.5 C-59.9 89.3 -59.9 85.1 -59.9 80.9 C-59.9 79.6 -59.9 78.4 -59.9 77.1 C-59.9 72.2 -60 67.8 -61 63 C-56.8 54.9 -49.8 49.5 -42 45 C-42.1 46.1 -42.3 47.1 -42.4 48.2 C-42.6 49.6 -42.8 51 -43 52.5 C-43.2 53.9 -43.4 55.3 -43.6 56.7 C-45.2 72.4 -40.3 83.7 -31.3 96.3 C-28.4 100.4 -26.2 104.5 -24 109 C-23.7 109.2 -23.7 109.2 -22 110 C-21.6 108.8 -21.2 107.6 -20.8 106.4 C-19.4 102.2 -17.9 98.2 -16.4 94.1 C-11.4 79.7 -9.1 63.5 -15 49 C-16 47.2 -17.1 45.3 -18.2 43.5 C-21.2 38.2 -21.9 34.1 -21 28 C-17 25 -17 25 -14.2 25 C-10 26.3 -7.4 28.6 -4.1 31.6 C-3 32.6 -1.8 33.6 -0.6 34.6 C0.2 35.4 1.1 36.2 2 37 C2.3 24.5 1.4 12.4 0 0 Z " fill="#394C68" transform="translate(370,255)"/>
<path d="M0 0 C0.7 -0 0.7 -0 4.5 -0.1 C8.5 0.2 8.5 0.2 13.5 3.2 C15.4 6.4 15.4 6.4 17.2 10.2 C20.5 16.6 24.1 21.8 28.7 27.2 C30.5 29.2 30.5 29.2 31.5 31.2 C30.6 31.4 29.7 31.6 28.8 31.8 C27.6 32.1 26.5 32.3 25.2 32.6 C24.1 32.8 22.9 33 21.7 33.3 C18.5 34.2 18.5 34.2 14.5 37.2 C14.2 38.2 13.8 39.2 13.5 40.2 C14.5 39.9 15.6 39.6 16.6 39.3 C30.5 35.5 39.1 35.9 51.7 42.9 C54.5 45.2 54.5 45.2 55.4 48.2 C55.6 52.9 55.6 57.5 55.5 62.2 C56.2 62.2 56.8 62.2 57.5 62.2 C57.8 60.8 58 59.4 58.3 58 C59.5 53.2 59.5 53.2 62.5 49.2 C65.4 49.5 65.4 49.5 68.5 50.2 C71.6 56.4 71.2 62.5 70.5 69.2 C68.2 74.8 68.2 74.8 65.5 79.2 C64.5 81.6 63.5 83.9 62.5 86.2 C61.8 85.9 61.8 85.9 58.5 84.2 C58.7 83.6 58.7 83.6 59.5 80.2 C59.2 80.4 59.2 80.4 57.5 81.2 C57.5 82.2 57.5 83.2 57.5 84.2 C56.5 84.2 55.5 84.2 54.5 84.2 C54.4 85.1 54.2 86 54.1 86.9 C51.7 99.5 47.4 107.9 38.5 117 C33.3 123 34.5 129 35.1 136.3 C36.3 148.1 36.3 148.1 40.5 152.2 C42.1 149.3 43.8 146.3 45.5 143.2 C49.5 146.2 49.5 146.2 50.2 150.4 C50.3 151.7 50.4 153 50.5 154.2 C50.8 153.6 51.2 152.9 51.5 152.2 C54.5 155.2 54.5 155.2 54.9 158.3 C54 166.8 50.5 173.3 44.5 179.2 C43.8 179.6 43.8 179.6 40.5 181.2 C40.2 180.4 40.2 180.4 38.5 176.2 C40.5 173.3 42.5 170.3 44.5 167.2 C43.8 168 43.1 168.8 42.3 169.6 C39.5 172.2 39.5 172.2 34.5 174.2 C33.2 173.9 31.9 173.6 30.5 173.2 C31.5 173.8 32.4 174.4 33.4 175.1 C36.5 177.2 36.5 177.2 37.5 180.2 C37.7 184.8 37.7 184.8 37.5 189.2 C36.8 189.9 36.2 190.6 35.5 191.2 C34.5 191.2 33.5 191.2 32.5 191.2 C32.2 189.9 31.8 188.6 31.5 187.2 C31.1 188.4 30.6 189.5 30.2 190.7 C29.6 191.9 29.1 193 28.5 194.2 C27.5 194.6 26.5 194.9 25.5 195.2 C20 191.4 17.9 187.5 15.5 181.2 C15.5 182.2 15.5 183.2 15.5 184.2 C15.5 184.9 15.5 185.6 15.5 186.2 C9.8 187.2 9.8 187.2 7.5 187.2 C10.1 187.9 12.8 188.6 15.5 189.2 C15.2 190.2 14.8 191.2 14.5 192.2 C12.2 192.6 9.9 192.9 7.5 193.2 C11.5 193.2 15.4 193.2 19.5 193.2 C19.5 197.3 17.8 198.9 15.4 202.2 C11.1 208.4 7.2 214.7 3.5 221.2 C2.8 221.2 2.2 221.2 1.5 221.2 C0.9 220.1 0.3 219 -0.4 217.8 C-5.9 207.8 -11.6 198 -17.5 188.2 C-20.5 183.2 -20.5 183.2 -21 180.2 C-21.5 177.2 -21.5 177.2 -24.5 173.2 C-24.5 172.6 -24.5 171.9 -24.5 171.2 C-25.2 170.9 -25.8 170.6 -26.5 170.2 C-26.5 168.6 -26.5 166.9 -26.5 165.2 C-25.5 165.6 -24.5 165.9 -23.5 166.2 C-24.2 164.7 -24.8 163.2 -25.5 161.6 C-27.5 156.2 -27.5 156.2 -27.5 150.2 C-26.2 149.9 -24.9 149.6 -23.5 149.2 C-22.5 150.2 -21.5 151.2 -20.5 152.2 C-15.3 143.9 -16.4 133.7 -16.5 124.2 C-18.1 123.6 -19.8 122.9 -21.5 122.2 C-30.3 115.6 -38.3 107.4 -40.5 96.2 C-43.5 97.2 -43.5 97.2 -46.5 100.2 C-51.1 98 -51.8 96.5 -54.5 92.2 C-55 91.6 -55 91.6 -57.6 88.4 C-62.4 81.5 -64.4 75.7 -63.5 67.2 C-62.2 65.9 -60.9 64.6 -59.5 63.2 C-53.7 64.7 -52.5 68.3 -49.5 73.2 C-49.7 71.7 -49.8 70.2 -50 68.6 C-50.9 58.4 -51.2 49.9 -47.5 40.2 C-46.9 37.8 -46.2 35.3 -45.6 32.8 C-43.1 23.2 -39.6 14.1 -31.4 7.9 C-28.5 6.2 -28.5 6.2 -25.5 6.2 C-25.5 5.6 -25.5 4.9 -25.5 4.2 C-16.5 1.2 -16.5 1.2 -13.5 1.2 C-8.8 0.3 -4.7 0 0 0 Z " fill="#F6B585" transform="translate(305.5,94.75)"/>
<path d="M0 0 C6 0 6.9 1.1 11.4 4.9 C16.4 9 21.3 12.5 26.9 15.8 C40.3 23.6 44.5 33.1 49 47.3 C53.7 61.7 59.6 75.3 66 89 C66.8 90.8 67.6 92.5 68.4 94.3 C72.7 103.5 77.3 112.3 82.2 121.1 C85.6 128.6 85.5 135.3 83 143 C78.7 151.4 73.7 157.2 65.1 161.4 C60.7 162.2 57.3 161.9 53 161 C41.9 150.2 40.6 126.8 37.5 112.1 C28.2 67.7 28.2 67.7 21 62 C18.2 60.6 18.2 60.6 15.1 59.4 C14 59 12.8 58.6 11.7 58.1 C10.5 57.7 9.3 57.2 8.1 56.8 C-2.1 52.8 -11.2 48.6 -20 42 C-21.5 40.9 -23 39.8 -24.5 38.7 C-36.7 29.7 -36.7 29.7 -39 25 C-42 22 -42 22 -45.2 19.6 C-46.1 18.7 -47 17.9 -48 17 C-48 15.7 -48 14.4 -48 13 C-49.3 12.3 -50.6 11.7 -52 11 C-52.3 10.3 -52.7 9.7 -53 9 C-48.7 4.7 -45 4.6 -39 4 C-32 5.7 -25.8 8.4 -19.3 11.4 C-9.1 16.1 0.6 20 12 20 C11.2 19.3 10.5 18.6 9.7 18 C8.7 17.1 7.7 16.2 6.6 15.2 C5.6 14.4 4.6 13.5 3.6 12.6 C1 10 1 10 -1 6 C-1 1 -1 1 0 0 Z " fill="#F8B583" transform="translate(104,263)"/>
<path d="M0 0 C2.7 2.7 3 5.2 3.9 9 C4.3 10.4 4.6 11.8 5 13.3 C5.3 14.7 5.7 16.2 6.1 17.8 C6.4 19.2 6.8 20.7 7.2 22.2 C11.3 39 11.3 39 10 43 C10.1 44.5 10.3 46 10.4 47.6 C9.9 54.1 8.1 55.9 3.8 60.6 C1.3 63.9 1 66.9 1 71 C2.5 69.9 4 68.7 5.6 67.6 C9.8 64.6 12.7 62.8 18 63 C26.6 64.9 32 69.2 37.4 76 C40.4 81.6 41.5 86.7 41 93 C39 98 39 98 36.1 99.7 C34.9 100.2 33.7 100.6 32.4 101.1 C31.2 101.6 29.9 102.1 28.6 102.7 C15.2 107.7 1.4 111.2 -12.6 114.4 C-20.1 116.3 -24.9 118.4 -31 123 C-36.4 125.1 -41.1 125 -46.8 124.9 C-55.5 124.8 -61.1 126.7 -68.9 130.4 C-73.7 132.6 -76.7 134 -82 134 C-82.3 133 -82.7 132 -83 131 C-83.7 131.3 -83.7 131.3 -87 133 C-88.6 132.7 -90.3 132.3 -92 132 C-92.3 131.3 -92.7 130.7 -93 130 C-94.6 130.3 -96.3 130.7 -98 131 C-99.1 125.5 -98.4 123.9 -96 119 C-96.3 119.3 -96.3 119.3 -98 121 C-99.6 121 -101.3 121 -103 121 C-102.8 112.2 -97.4 105 -92.1 98.3 C-84 91.7 -74.7 85.2 -64 85 C-59.9 85.7 -56 86.5 -51.9 87.4 C-35.1 91.3 -35.1 91.3 -27 87.8 C-26 87.3 -24.9 86.8 -23.9 86.4 C-20.5 84.8 -17.2 83 -14 81 C-14.1 80.6 -14.1 80.6 -14.8 78.3 C-14.9 77.2 -14.9 76.1 -15 75 C-14.2 74.3 -13.4 73.5 -12.6 72.8 C-10 70 -10 70 -9.6 64.9 C-10 60 -10 60 -11 57 C-13.4 38 -6.1 17.8 0 0 Z " fill="#F7B583" transform="translate(396,374)"/>
<path d="M0 0 C10 1.8 10 1.8 14 6 C15 8 16 10 17 12 C18.3 13.3 19.6 14.6 21 16 C21.8 20.2 21.8 20.2 22 24 C23 23.7 24 23.3 25 23 C25.3 22.3 25.7 21.7 26 21 C35.8 31.2 33.1 50.9 33 64 C29.2 61.2 25.4 58.4 21.9 55.2 C18.7 52.8 16.9 52.1 13 52 C12 52.7 11 53.3 10 54 C8.9 63 11.9 68.5 16.2 76.4 C22 87.9 19.6 103.1 16.3 115.1 C14 122.2 11.4 129.3 8 136 C5 135 5 135 3.4 132.4 C2.9 131.3 2.3 130.2 1.8 129.1 C-0.5 124.8 -2.8 120.8 -5.6 116.9 C-16 101.9 -15.5 89.5 -13 72 C-19.4 76.9 -24.7 81.8 -30 88 C-31 88.3 -32 88.7 -33 89 C-33.9 87.7 -34.9 86.4 -35.9 85.1 C-41.2 78.2 -47.5 72.8 -54.6 67.7 C-58 65 -58 65 -59 61 C-58.7 59 -58.4 57 -58 55 C-62 52 -62 52 -64.9 52 C-68.6 53.2 -70.7 54.9 -73.6 57.4 C-76.8 60.2 -79.2 62.1 -83 64 C-82.7 60 -82.4 56.1 -82.1 52.1 C-82 51 -82 49.9 -81.9 48.8 C-80.5 30.6 -80.5 30.6 -76.2 26.1 C-73.5 24.3 -70.8 22.7 -68 21 C-66.8 18.3 -66.8 18.3 -65.9 15.1 C-64.1 9 -62.5 5.5 -56.9 2.2 C-54 1 -54 1 -51 1 C-49.7 6.2 -50.6 9.8 -52 15 C-53.3 16.3 -54.6 17.6 -56 19 C-56.7 18 -57.3 17 -58 16 C-59 16 -60 16 -61 16 C-60.6 22.1 -60 26.6 -57 32 C-57.3 32.7 -57.7 33.3 -58 34 C-58.7 33.3 -59.3 32.7 -60 32 C-59 37 -59 37 -56.5 40.9 C-54 45 -54 45 -53.6 47.8 C-52.9 51.7 -51.4 54.2 -49.3 57.5 C-48.5 58.7 -47.8 59.9 -47 61.2 C-46.2 62.4 -45.4 63.7 -44.6 65 C-43.1 67.5 -41.5 70 -40 72.5 C-39.3 73.6 -38.6 74.7 -37.9 75.8 C-33 84 -33 84 -33 87 C-32.3 87 -31.7 87 -31 87 C-30.8 86.1 -30.5 85.3 -30.3 84.4 C-28.9 80.6 -27 77.9 -24.7 74.6 C-21.3 69.8 -18.1 65 -15 60 C-19.9 60 -24.9 60 -30 60 C-26.6 57.7 -24.1 57.5 -20 57 C-19.8 56.7 -19.8 56.7 -19 55 C-20.2 54.9 -21.4 54.8 -22.7 54.6 C-27 54 -27 54 -32 52 C-27.6 50.5 -23.6 51.5 -19 52 C-19.2 51.3 -19.2 51.3 -20 48 C-20.3 47.8 -20.3 47.8 -22 47 C-21 46.7 -20 46.3 -19 46 C-16 50 -16 50 -14.6 53.6 C-13 57 -13 57 -9 60 C-8 59.7 -7 59.3 -6 59 C-5.3 56.7 -4.7 54.4 -4 52 C-3.3 52.3 -2.7 52.7 -2 53 C-2 54.3 -2 55.6 -2 57 C-0.7 56.3 0.6 55.7 2 55 C2.2 46.5 2.2 46.5 0 42 C-3.6 40.2 -3.6 40.2 -7 39 C-6.7 38.7 -6.7 38.7 -5 37 C-3.9 37.4 -2.9 37.8 -1.8 38.2 C2 39 2 39 4.7 37.4 C5.5 36.6 6.2 35.8 7 35 C8.3 33.7 9.6 32.4 11 31 C9.7 35.5 8.1 38.5 5 42 C5.3 42.7 5.3 42.7 7 46 C13.3 41.7 17.3 35.4 19 28 C19.3 21.6 19.3 21.6 18 19 C17.3 20.7 16.7 22.3 16 24 C15 20 15 20 14.6 15.9 C14.5 15.2 14.5 15.2 14 12 C13 11.3 12 10.7 11 10 C9.4 13 7.7 15.9 6 19 C1.4 14.4 1 12.2 0 6 C0 4 0 2 0 0 Z " fill="#3C4D67" transform="translate(340,229)"/>
<path d="M0 0 C0.2 0.3 0.2 0.3 1 2 C0.2 4.3 -0.7 6.6 -1.6 8.8 C-8.9 27.8 -12.6 47.7 -12 68 C-10 64.7 -8 61.4 -6 58 C-5 61 -5 61 -6.9 65.4 C-10.6 75.4 -8.9 85.6 -7.6 95.9 C-6.3 106.3 -5.6 116.5 -5.2 126.9 C-5 131 -5 131 -4 136 C-2.4 135.3 -0.7 134.7 1 134 C9.5 130.7 15.9 129.6 25 130 C25 130.3 25 130.7 25 131 C24.5 131.1 24.5 131.1 22.2 131.7 C15 133.6 9.1 135.6 3 140 C4.2 140 5.3 139.9 6.6 139.9 C18.7 139.6 26.5 140.7 37 147 C37 147.7 37 148.3 37 149 C34.4 148.3 31.7 147.7 29 147 C30.2 148 31.3 149 32.5 150 C38.4 155.9 41.8 163.4 45 171 C45 172 45 173 45 174 C46.3 173.7 47.6 173.3 49 173 C48.8 179.4 45 183.3 41 188 C39.8 189.4 38.6 190.9 37.4 192.4 C34.2 195.8 32.2 197.2 28 199 C26.8 199.9 25.6 200.8 24.4 201.7 C18.4 204.9 14.7 204.6 8 204 C6.7 203 5.4 202 4 201 C8.9 198.4 13.6 196.4 19 195 C20.7 186.4 20 179.9 16 172 C10.8 165.8 6.5 162.7 -1.4 161.1 C-8.9 161 -14 164.8 -20 169 C-20 162.8 -19 159.6 -14.9 155.1 C-11.5 151.1 -11 150.3 -10.6 144.8 C-10.7 143.2 -10.9 141.6 -11 140 C-10.9 139.4 -10.9 139.4 -10.4 136.6 C-10 132.7 -10.4 130.5 -11.6 126.8 C-14.5 117.6 -16.7 108.3 -19 99 C-21.9 104.7 -23.1 110.7 -24.7 116.9 C-25.5 120 -26.3 123.1 -27.2 126.2 C-29.9 136 -32.3 147.2 -29 157 C-28.3 165.9 -28.3 165.9 -30.9 169.9 C-42.1 177.5 -54.8 178.3 -68 178 C-64.3 175.5 -61.8 175.5 -57.4 175.1 C-50.9 174.4 -45.8 173 -40 170 C-39.3 170 -38.7 170 -38 170 C-36.7 164.9 -36.2 160.2 -38 155.1 C-43 139.7 -34.9 123.3 -29.5 109.1 C-23.4 93.1 -19.6 77.5 -16.9 60.6 C-9.8 16.3 -9.8 16.3 0 0 Z " fill="#2B3A4E" transform="translate(416,277)"/>
<path d="M0 0 C2.9 4.4 3.5 9.3 4.4 14.4 C4.5 14.9 4.5 14.9 5.1 17.8 C5.7 21.2 6.4 24.6 7 28 C7.3 29.7 7.6 31.3 8 33 C9.9 44.5 10.2 55.7 10.3 67.4 C10.5 82.3 12.4 94.8 17 109 C18 112.3 18.9 115.7 19.8 119 C20.2 120.4 20.6 121.8 21 123.2 C23.5 132.7 24.3 142.4 21.5 151.8 C19.2 159.7 19.2 159.7 20 164 C23.8 168.2 27.5 169.9 33 171 C33.5 171 33.5 171 36.3 170.9 C41.2 171 45.4 172.5 50 174 C50 174.3 50 174.7 50 175 C42.3 175.2 35.5 174.4 28 173 C27.3 172.9 27.3 172.9 23.6 172.2 C19 170.6 17.4 169.2 15 165 C14.6 160.3 14.5 156.6 16 152.1 C20.1 139.4 15.6 124.6 13 112 C12.7 113.2 12.4 114.4 12.2 115.6 C-0.8 169 -0.8 169 -21.5 181.7 C-27.2 184.6 -30.6 185.5 -37 185 C-46.5 181.2 -54 175.1 -59 166 C-59 164.7 -59 163.4 -59 162 C-57.3 162.7 -55.7 163.3 -54 164 C-44.5 165 -37.2 164.3 -29 159 C-20.7 152.1 -16.7 143.6 -15 133 C-14.4 126.1 -16 120.6 -18 114 C-19 113.7 -20 113.3 -21 113 C-22.1 111 -23.1 109 -24 107 C-25 105.4 -26 103.7 -27 102 C-24 103 -24 103 -20 107 C-18.3 108 -16.7 109 -15 110 C-10 113 -10 113 -6 117 C-6 117.7 -6 118.3 -6 119 C-5.3 119 -4.7 119 -4 119 C5.8 76 5.8 76 -0.1 59.1 C-3.1 50.3 -3.1 50.3 -2 47 C-0 51.3 2 55.6 4 60 C9.1 44.8 4 23.9 0.9 8.6 C0 4 0 4 0 0 Z " fill="#2A394D" transform="translate(218,280)"/>
<path d="M0 0 C7.2 7.2 11.6 14 12 24.2 C12 25 12 25 11.8 28.8 C11.8 30.3 11.8 31.8 11.8 33.4 C10.5 39.2 8.1 41.8 3.8 45.8 C0.9 47.5 0.9 47.5 -2.2 48.8 C-3.4 49.7 -4.6 50.6 -5.8 51.5 C-11.8 54.7 -15.5 54.4 -22.2 53.8 C-23.5 52.8 -24.8 51.8 -26.2 50.8 C-21.3 48.2 -16.6 46.2 -11.2 44.8 C-9.5 36.3 -10.2 29.7 -14.2 21.8 C-19.4 15.6 -23.7 12.6 -31.6 10.9 C-39.1 10.8 -44.2 14.6 -50.2 18.8 C-50.2 11.4 -48.2 7.5 -43.5 2.1 C-30.5 -10.8 -14.3 -10.9 0 0 Z " fill="#384B66" transform="translate(446.1875,427.1875)"/>
<path d="M0 0 C8.3 4.2 11.6 12.8 15 21 C18.9 40.5 13.7 59.5 5 77 C2 76 2 76 0.4 73.4 C-0.1 72.3 -0.7 71.2 -1.2 70.1 C-3.5 65.8 -5.8 61.8 -8.6 57.9 C-13.2 51.3 -17.5 44.2 -18 36 C-18.1 34.9 -18.2 33.7 -18.2 32.6 C-17.8 25 -16.4 17.2 -14 10 C-13.3 10 -12.7 10 -12 10 C-11.3 8.7 -10.7 7.4 -10 6 C-9 6 -8 6 -7 6 C-6.8 7.1 -6.6 8.1 -6.4 9.2 C-5.2 16.4 -4 23.3 -1 30 C2.9 22.2 -0.7 10.8 -3 3 C-2 2 -1 1 0 0 Z " fill="#75A19D" transform="translate(343,288)"/>
<path d="M0 0 C0.7 0.2 0.7 0.2 4 1 C4.3 2 4.7 3 5 4 C5.7 4 6.3 4 7 4 C8.7 6.1 10.3 8.3 12 10.4 C19.7 20.2 28.9 27.3 41 31 C41.2 32 41.2 32 42 37 C36.2 38 36.2 38 34 38 C36.6 38.7 39.3 39.3 42 40 C41.7 41 41.3 42 41 43 C39.8 43.2 39.8 43.2 34 44 C38 44 41.9 44 46 44 C46 48.1 44.3 49.6 41.9 52.9 C37.6 59.1 33.7 65.4 30 72 C29.3 72 28.7 72 28 72 C27.4 70.9 26.8 69.7 26.1 68.6 C20.6 58.6 14.9 48.7 9 39 C6 34 6 34 5.5 30.9 C5 28 5 28 2 24 C2 23.3 2 22.7 2 22 C1.3 21.7 0.7 21.3 0 21 C0 19.4 0 17.7 0 16 C1 16.3 2 16.7 3 17 C2.3 15.5 1.7 13.9 1 12.4 C-1 7 -1 7 -1 1 C-0.7 0.7 -0.3 0.3 0 0 Z " fill="#729C99" transform="translate(279,244)"/>
<path d="M0 0 C1.5 4.1 2.9 8.1 4.1 12.3 C4.3 12.9 4.3 12.9 5.2 15.8 C7.4 22.7 9.1 28.7 9 36 C7 35 7 35 5.5 31.1 C5 29.5 4.5 27.9 3.9 26.2 C3.4 24.6 2.9 23 2.3 21.3 C1.5 18.6 0.7 15.8 0 13 C-11 13.5 -21.2 16.4 -31.4 20.3 C-39.9 23.5 -48.4 25 -57.3 26.3 C-58.5 26.5 -59.7 26.7 -60.9 26.8 C-67.7 27.7 -74.2 28.3 -81 28 C-81.3 27.7 -81.7 27.3 -82 27 C-83.3 26.9 -84.6 26.7 -85.9 26.6 C-90 26 -90 26 -93 24 C-94.6 23.7 -96.3 23.3 -98 23 C-99 21.7 -100 20.4 -101 19 C-100.7 18.3 -100.3 17.7 -100 17 C-98.7 17.3 -97.4 17.7 -96 18 C-94.7 17.7 -93.4 17.3 -92 17 C-92 18 -92 19 -92 20 C-88.9 19.5 -86 19 -83 18 C-83 19.3 -83 20.6 -83 22 C-75.9 20.1 -69.5 17.5 -62.9 14.3 C-57.9 12 -53.8 12 -48.4 12.1 C-40.3 12.2 -33.4 11.7 -26.9 6.6 C-22.2 3.5 -18.1 2.4 -12.8 1.1 C-11 0.7 -9.2 0.3 -7.4 -0.2 C-3 -1 -3 -1 0 0 Z " fill="#262E3E" transform="translate(397,486)"/>
<path d="M0 0 C2.7 2.7 3 5.2 3.9 9 C4.3 10.4 4.6 11.8 5 13.3 C5.3 14.7 5.7 16.2 6.1 17.8 C6.4 19.2 6.8 20.7 7.2 22.2 C11.3 39 11.3 39 10 43 C10.1 44.5 10.3 46 10.4 47.6 C9.9 54.1 8.1 55.8 3.9 60.5 C2 63 2 63 1.2 68.1 C-0.4 74.7 -3.8 76.2 -9.4 79.6 C-9.9 79.8 -9.9 79.8 -12 81 C-13 79.7 -14 78.4 -15 77 C-14 74 -14 74 -10 70 C-9.7 65.4 -9.5 61.4 -11 57 C-13.4 38 -6.1 17.8 0 0 Z " fill="#EBF0EB" transform="translate(396,374)"/>
<path d="M0 0 C2 1 2 1 3.1 4.3 C5.1 14.7 3.9 23 1 33 C0.8 34.3 0.6 35.5 0.4 36.8 C-2.2 42.9 -7.9 45.9 -13.6 48.9 C-19.9 50.9 -23.8 50.5 -30 48 C-36.3 44.2 -40.9 40.1 -45 34 C-45 33 -45 32 -45 31 C-44 31.1 -43.1 31.2 -42.1 31.3 C-32 32.3 -24.6 31.9 -15.8 26.4 C-7.1 18.7 -3.3 10.8 0 0 Z " fill="#3A4D69" transform="translate(206,415)"/>
<path d="M0 0 C0.8 0.5 0.8 0.5 4.9 2.8 C16.7 9.1 25.6 10.5 39 10 C39 14.1 37.3 15.6 34.9 18.9 C30.6 25.1 26.7 31.4 23 38 C22.3 38 21.7 38 21 38 C20.4 36.9 19.8 35.7 19.1 34.6 C14.2 25.7 9.2 16.8 3.8 8.1 C2 5 2 5 0 0 Z " fill="#F1B484" transform="translate(286,278)"/>
<path d="M0 0 C4 3 4 3 4.8 7.2 C4.8 7.8 4.8 7.8 5 11 C5.3 10.3 5.7 9.7 6 9 C9 12 9 12 9.4 15.1 C8.5 23.6 5 30 -1 36 C-2.3 36.7 -3.6 37.3 -5 38 C-5.7 36.4 -6.3 34.7 -7 33 C-5 30 -3 27.1 -1 24 C-1.7 24.8 -2.4 25.6 -3.2 26.4 C-6 29 -6 29 -11 31 C-11.8 30.7 -11.8 30.7 -16 29 C-14.8 24.3 -12.5 21 -9.9 17 C-7 12.5 -4.5 7.7 -2 3 C-1.3 2 -0.7 1 0 0 Z " fill="#739F9B" transform="translate(351,238)"/>
<path d="M0 0 C-0.3 2.6 -0.7 5.3 -1 8 C-1.7 8.3 -1.7 8.3 -5 10 C-9.8 12.8 -10.8 13.6 -13 19 C-14.8 28.9 -15.5 39 -16 49 C-14.8 48.1 -13.7 47.3 -12.5 46.4 C-11 45.3 -9.5 44.1 -8 43 C-7.3 42.4 -7.3 42.4 -3.9 39.6 C0 37 0 37 3.3 36.9 C6 38 6 38 9 42 C8.7 46.2 8.7 46.2 8 50 C9.5 51.2 11 52.4 12.5 53.6 C19.6 59.3 26.2 64.9 32 72 C31.7 72.7 31.3 73.3 31 74 C30 72.9 28.9 71.7 27.9 70.6 C23.2 65.8 17.8 62.5 12.2 59 C9 57 9 57 5 54 C5.3 51.4 5.7 48.7 6 46 C0.5 46.3 -3.9 47.2 -8.8 49.6 C-14 52 -14 52 -18 52 C-18.1 43.6 -17.8 35.4 -17 27 C-16.9 23.3 -17 19.7 -17 16 C-18.3 15.3 -19.6 14.7 -21 14 C-20.4 13.8 -20.4 13.8 -17.1 12.6 C-11.6 9.8 -8.3 6.6 -4.1 2 C-2 0 -2 0 0 0 Z " fill="#28374B" transform="translate(274,243)"/>
<path d="M0 0 C1.2 4.7 0.3 8.3 -0.5 13 C-2.9 27.8 3.3 39.6 11.7 51.3 C14.6 55.4 16.8 59.5 19 64 C19.3 64.2 19.3 64.2 21 65 C21.4 63.8 21.8 62.6 22.2 61.4 C23.2 58.5 24.1 55.6 25.2 52.7 C28.1 44.9 30.3 37.2 32 29 C32.3 29 32.7 29 33 29 C33.4 42.1 28.3 55.7 22 67 C21.3 67.3 21.3 67.3 18 69 C14.1 64.4 10.8 59.4 7.5 54.3 C6.9 53.5 6.4 52.6 5.8 51.7 C-3.3 37.9 -5.1 25.1 -3 9 C-2.7 8.3 -2.3 7.7 -2 7 C-3.8 8.1 -5.5 9.2 -7.3 10.4 C-8.3 11 -9.3 11.6 -10.3 12.3 C-12.2 13.5 -14.1 14.7 -16 16 C-12.4 8.9 -6.5 4.4 0 0 Z " fill="#2C3B51" transform="translate(327,300)"/>
<path d="M0 0 C3.9 1.9 3.9 1.9 6.9 6.9 C7.2 11.6 7.2 11.6 6.9 15.9 C6.3 16.6 5.6 17.3 4.9 17.9 C3.9 17.9 3 17.9 1.9 17.9 C1.6 16.6 1.3 15.3 0.9 13.9 C0.5 15.1 0.1 16.2 -0.4 17.4 C-0.9 18.6 -1.5 19.7 -2.1 20.9 C-3.1 21.3 -4 21.6 -5.1 21.9 C-10.6 18.1 -12.7 14.2 -15.1 7.9 C-15.1 4.9 -15.1 4.9 -13.1 2.9 C-11.4 2.3 -9.8 1.6 -8.1 0.9 C-4.1 -1.1 -4.1 -1.1 0 0 Z " fill="#729C9A" transform="translate(336.0625,268.0625)"/>
<path d="M0 0 C1.3 1 2.6 2 4 3 C2.7 4 1.4 5 0 6 C-0.4 5.7 -0.4 5.7 -2.3 4.1 C-5 2 -5 2 -8 1 C-7.7 1.5 -7.7 1.5 -6 4 C-5.6 7.4 -5.6 7.4 -6 11 C-7.3 12.3 -8.6 13.6 -10 15 C-13.1 15 -13.1 15 -16 14 C-19 10 -19 10 -19 4 C-20.3 6 -21.6 8 -23 10 C-23.3 9 -23.7 8 -24 7 C-21.7 2.9 -19.8 0.9 -16 -2 C-10 -3.5 -5.5 -2.7 0 0 Z " fill="#403531" transform="translate(347,145)"/>
<path d="M0 0 C5.5 2.4 6.7 3.2 9 9 C7 7.7 5 6.4 3 5 C3.3 5.7 3.7 6.3 4 7 C4 9 4 11 4 13 C0 17 0 17 -3.1 17.1 C-6 16 -6 16 -7.9 13.2 C-9 10 -9 10 -8 5 C-13 8 -13 8 -14 11 C-16 10.3 -18 9.7 -20 9 C-13.9 2.9 -8.8 -0.9 0 0 Z " fill="#3D3330" transform="translate(284,149)"/>
<path d="M0 0 C0.7 0 1.3 0 2 0 C4.7 13 5.1 25.8 5 39 C0.1 40.2 -1.4 39.2 -5.9 37.1 C-10.1 35.2 -13.4 33.9 -18 33 C-18 35 -18 37 -18 39 C-19 38.7 -20 38.3 -21 38 C-21.2 33.2 -21.2 33.2 -21 28 C-17 25 -17 25 -14.2 25 C-10 26.3 -7.4 28.6 -4.1 31.6 C-3 32.6 -1.8 33.6 -0.6 34.6 C0.2 35.4 1.1 36.2 2 37 C2.3 24.5 1.4 12.4 0 0 Z " fill="#28374C" transform="translate(370,255)"/>
<path d="M0 0 C9.2 4.2 14.4 9.9 18.4 19.2 C19.3 24.8 19.1 30.4 18 36 C17 37.3 16 38.6 15 40 C15.7 40.3 16.3 40.7 17 41 C16.7 42 16.3 43 16 44 C14.1 44.1 12.2 44.1 10.2 44.2 C9.7 44.2 9.7 44.2 7 44.3 C4 44 4 44 0 41 C4.9 38.4 9.6 36.4 15 35 C16.7 26.4 16 19.9 12 12 C8.2 7.6 5 5 0 2 C0 1.3 0 0.7 0 0 Z " fill="#2E3C50" transform="translate(420,437)"/>
<path d="M0 0 C0.7 0 1.3 0 2 0 C-0.5 6.2 -3.4 9.5 -9.2 12.9 C-15.5 14.7 -21.4 14.8 -27.7 12.9 C-31.9 10.4 -35.4 7.4 -39 4 C-38.3 3.7 -37.7 3.3 -37 3 C-36.2 3.3 -36.2 3.3 -32 5 C-32 5.7 -32 6.3 -32 7 C-21.8 9 -13.4 8.8 -4 4 C-2.7 2.7 -1.4 1.4 0 0 Z " fill="#463025" transform="translate(330,191)"/>
<path d="M0 0 C5 5 4.9 7.1 5 14 C2.4 26.3 -3.5 34.9 -13.8 41.9 C-18.6 43.6 -22.9 43.4 -28 43 C-32.7 40.2 -34.9 38.3 -38 34 C-39 29 -39 29 -38 25 C-38.3 23.7 -38.7 22.4 -39 21 C-38.3 21 -37.7 21 -37 21 C-36.6 22.2 -36.2 23.4 -35.8 24.6 C-35.2 26.2 -34.7 27.8 -34.1 29.4 C-33.9 30.2 -33.9 30.2 -32.5 34.1 C-31 38 -31 38 -29 40 C-20.9 41.6 -15.7 40.5 -8.9 35.9 C-2.7 29.7 0.9 22.7 2 14 C1.7 9.2 0.9 4.7 0 0 Z " fill="#2E3C50" transform="translate(186,383)"/>
<path d="M0 0 C5 3 5 3 6 6 C4.7 6 3.4 6 2 6 C-8.3 6.3 -16 6.9 -25 12 C-22.6 6.1 -20.2 4.5 -15 1 C-9.9 -0.3 -5.3 -0.2 0 0 Z " fill="#3E312C" transform="translate(287,133)"/>
<path d="M0 0 C3.7 3.7 5.4 6.3 7.7 11 C8.3 12.2 8.9 13.4 9.5 14.7 C13.5 23.5 12.7 32.9 10 42 C9 43 8 44 7 45 C7.1 44.5 7.1 44.5 7.5 42.2 C8.7 32.3 8 24.5 5 15 C4.3 15 3.7 15 3 15 C2.7 14 2.3 13 2 12 C2.7 12 3.3 12 4 12 C3.3 11.1 2.7 10.3 2 9.4 C0 6 0 6 0 0 Z " fill="#413734" transform="translate(402,146)"/>
</svg>
