<?xml version="1.0" encoding="UTF-8"?>
<!-- Generator: visioncortex VTracer 0.6.12 -->
<svg version="1.1" xmlns="http://www.w3.org/2000/svg" width="600" height="600" viewBox="0 0 600 600" role="img" aria-label="Woman">
<path d="M0 0 C198 0 396 0 600 0 C600 198 600 396 600 600 C402 600 204 600 0 600 C0 402 0 204 0 0 Z " fill="#EDF2ED" transform="translate(0,0)"/>
<path d="M0 0 C4 2.7 4.8 3.2 6 8 C6.7 7.7 7.3 7.3 8 7 C16.5 7 21 9.3 27.4 14.8 C41.2 29.5 49.2 48 55 67.1 C57 73.3 59.6 77.3 64 82 C70.4 93.3 74.3 105.5 71.2 118.4 C70.2 121.3 69.1 124.2 68 127 C67.3 127.3 66.7 127.7 66 128 C66.3 127 66.7 125.9 67 124.9 C68.9 115.6 69.2 106.7 65 98 C65.3 99.7 65.7 101.3 66 103 C66.4 113 66 122.2 64 132 C63.6 138.4 64.1 143.2 67 149 C72 152 73.5 152.3 79 152 C77 156 77 156 72 159 C67.7 159.7 67.7 159.7 64 160 C67.3 160.7 70.6 161.3 74 162 C70 166 70 166 64.9 166.1 C63.6 166 62.3 166 61 166 C61.1 167.2 61.1 168.4 61.2 169.6 C60.9 176.5 58.8 179.2 54 184 C53.3 183.7 52.7 183.3 52 183 C52 182.3 52 181.7 52 181 C51.3 181.8 50.5 182.7 49.8 183.5 C47 186 47 186 43 186 C43 186.7 43 187.3 43 188 C43.9 188.2 44.8 188.5 45.8 188.7 C48.6 189.4 51.4 190.1 54.2 190.8 C57.5 191.6 60.8 192.4 64.1 193.2 C90.9 199.6 90.9 199.6 98 210 C110.1 231.9 112.6 260.5 117.4 284.8 C118.6 291.1 119.9 297.5 121.1 303.9 C121.5 305.5 121.8 307.1 122.1 308.7 C124.6 321.5 127.5 334.3 130.5 347.1 C134.9 366.5 134.5 381.6 124 399 C120.8 403.5 117.4 407.7 114 412 C112.9 413.5 111.9 415 110.8 416.6 C105.4 423.3 100.4 424.8 92 426 C88.7 426 85.3 426 82 426 C80.4 426.7 78.7 427.3 77 428 C70.2 428 68.5 426.5 63 423 C61.4 423 59.7 423 58 423 C58.6 424.7 59.2 426.4 59.8 428.1 C67 449.1 74 470.7 74 493 C31.4 512 -29.5 506.5 -75 502 C-76.1 501.9 -77.2 501.8 -78.3 501.7 C-93 500.3 -108.7 498.7 -122 492 C-118.7 467.8 -113 445 -105 422 C-105.7 421.3 -106.3 420.7 -107 420 C-109.3 420.3 -111.7 420.6 -114 421 C-124.2 421.6 -128.6 417.7 -136 411 C-137.4 409.8 -138.8 408.6 -140.2 407.4 C-147.7 400.7 -150.7 396.4 -151.4 386.3 C-151.3 381.6 -150.7 379.2 -148.9 374.6 C-147.1 369.2 -146.9 367.4 -147.6 362.1 C-148.5 354.3 -146.2 349.4 -142 343 C-141.2 342 -140.4 341 -139.5 340 C-136.5 335.2 -135.5 330.6 -134.5 325 C-134.3 323.9 -134.1 322.8 -133.9 321.7 C-131.1 306.5 -128.8 291.2 -126.5 275.9 C-117.3 216.1 -117.3 216.1 -105 205 C-97 199.9 -88.4 198.2 -79.2 196 C-75 195 -75 195 -73 194 C-73.8 193.9 -73.8 193.9 -77.7 193.7 C-83 193 -83 193 -88 190 C-86.7 189.3 -85.4 188.7 -84 188 C-84.8 187.9 -84.8 187.9 -88.7 187.2 C-93.5 186.1 -95.7 185.6 -99 182 C-99.3 180.7 -99.7 179.4 -100 178 C-99.3 178.3 -98.7 178.7 -98 179 C-95.3 179 -92.7 179 -90 179 C-89.3 176.4 -88.7 173.7 -88 171 C-89.7 170.3 -91.3 169.7 -93 169 C-99.7 162.4 -102.1 155.9 -102.4 146.6 C-102.3 140.7 -100.9 135.6 -99 130 C-99 129.3 -99 128.7 -99 128 C-100.3 130.6 -101.6 133.3 -103 136 C-103.7 136 -104.3 136 -105 136 C-105 135.3 -105 134.7 -105 134 C-106.3 134.3 -107.6 134.7 -109 135 C-109.6 124.3 -109.2 114.4 -102.4 105.7 C-99.6 101.4 -99.3 98.9 -99 93.9 C-96.6 67.1 -88.4 40.2 -70 20 C-68.8 18.6 -67.6 17.3 -66.3 15.9 C-50 1.2 -21.1 -13.1 0 0 Z " fill="#C43D28" transform="translate(316,47)"/>
<path d="M0 0 C66.7 0 133.3 0 202 0 C200.7 5.6 199.4 11.2 198 17 C197.4 21 196.8 25 196.2 29.1 C196.1 30 196.1 30 195.5 34.8 C195.3 36.2 195.2 37.6 195 39 C228.3 49.8 263.7 50.2 298.4 50.2 C299.6 50.2 300.8 50.2 302.1 50.2 C363.8 50.1 363.8 50.1 388 40 C388.7 40 389.3 40 390 40 C389.4 36 388.8 31.9 388.2 27.9 C388 26.8 387.9 25.6 387.7 24.5 C386.4 16.2 384.8 8.2 383 0 C454.6 0 526.2 0 600 0 C600 33 600 66 600 100 C402 100 204 100 0 100 C0 67 0 34 0 0 Z " fill="#D4E3D6" transform="translate(0,500)"/>
<path d="M0 0 C0.3 0.2 0.3 0.2 2 1 C3.3 5.9 3.9 11 4.8 16.1 C4.9 16.8 4.9 16.8 5.5 20.3 C6.7 27.4 7.5 33 5 40 C4.5 45.9 6 50.5 8 56 C6.8 57 5.5 57.9 4.2 58.9 C0 63 0 63 -2 67.5 C-4.4 72.9 -7.5 75.3 -12 79 C-12.3 80 -12.7 81 -13 82 C-12.3 81.7 -11.7 81.3 -11 81 C-3.3 81.1 1.1 83.2 7 88 C12 94.7 15 99.5 15 108 C12.4 109.2 9.8 110.3 7.1 111.5 C6.4 111.8 6.4 111.8 2.7 113.5 C-1 115 -1 115 -3 115 C-2.4 116.7 -1.8 118.4 -1.2 120.1 C6 141.1 13 162.7 13 185 C-29.6 204 -90.5 198.5 -136 194 C-137.1 193.9 -138.2 193.8 -139.3 193.7 C-154 192.3 -169.7 190.7 -183 184 C-179.7 159.8 -174 137 -166 114 C-170.8 109.7 -175.5 105.4 -180.4 101.2 C-183 98.9 -185.5 96.5 -188 94 C-186.7 86.2 -185.4 81.1 -179.6 75.8 C-174.4 72.2 -170.1 71.5 -164 72 C-157.9 73.6 -155.9 78 -152.8 83.1 C-147.7 91.4 -142.1 96.8 -134 102 C-120.8 110.9 -112.4 119.2 -106 134 C-106 134.7 -106 135.3 -106 136 C-105.3 136 -104.7 136 -104 136 C-103.3 134.4 -102.7 132.7 -102 131 C-95.2 121.1 -85.8 117.6 -75 113 C-63.6 108.1 -52.5 102.8 -41.4 97.3 C-40.1 96.7 -38.8 96 -37.5 95.4 C-31.1 92.2 -25 88.8 -19 85 C-18.3 85 -17.7 85 -17 85 C-17.3 83 -17.3 83 -19 73 C-18.1 72.4 -17.2 71.9 -16.2 71.3 C-11.7 68.1 -9.5 65.8 -8.1 60.4 C-8 54.9 -9.5 50.3 -11 45 C-11.5 37.7 -10 31.6 -7.8 24.8 C-7.4 23.7 -7.1 22.7 -6.8 21.7 C-5.9 18.8 -4.9 15.9 -4 13 C-3.2 10.4 -2.4 7.7 -1.6 5.1 C-1 3.4 -0.5 1.7 0 0 Z " fill="#F8B986" transform="translate(377,355)"/>
<path d="M0 0 C4 2.7 4.8 3.2 6 8 C6.7 7.7 7.3 7.3 8 7 C16.5 7 21 9.3 27.4 14.8 C41.2 29.5 49.2 48 55 67.1 C57 73.3 59.6 77.3 64 82 C70.4 93.3 74.3 105.5 71.2 118.4 C70.2 121.3 69.1 124.2 68 127 C67.3 127.3 66.7 127.7 66 128 C66.3 127 66.7 125.9 67 124.9 C68.9 115.6 69.2 106.7 65 98 C65.3 99.7 65.7 101.3 66 103 C66.4 113 66 122.2 64 132 C63.6 138.4 64.1 143.2 67 149 C72 152 73.5 152.3 79 152 C77 156 77 156 72 159 C67.7 159.7 67.7 159.7 64 160 C67.3 160.7 70.6 161.3 74 162 C70 166 70 166 64.9 166.1 C63.6 166 62.3 166 61 166 C61.1 167.2 61.1 168.4 61.2 169.6 C60.9 176.5 58.8 179.2 54 184 C53.3 183.7 52.7 183.3 52 183 C52 182.3 52 181.7 52 181 C51.7 181.4 51.7 181.4 49.9 183.5 C47 186 47 186 43.6 186.7 C38.8 185.8 37.2 183.5 34 180 C30 179 30 179 26 179.2 C22 179 22 179 19.7 177.1 C14.4 167.3 13.3 156 14 145 C15.8 141.2 15.8 141.2 18 138 C23.1 130.2 25.8 123 28 114 C29.6 114 31.3 114 33 114 C33 112.3 33 110.7 33 109 C34 109 35 109 36 109 C36 109.7 36 110.3 36 111 C41.2 106.8 42.5 102.5 44 96 C44.4 91.2 44.1 87.3 42 83 C40.4 82.3 38.7 81.7 37 81 C35 82 35 82 34 84.9 C33.7 86.1 33.3 87.3 33 88.5 C32.4 90.7 31.7 92.9 31 95 C30.7 95.2 30.7 95.2 29 96 C28.9 94.8 28.8 93.6 28.7 92.3 C28.5 90.7 28.4 89.1 28.2 87.4 C28 85.8 27.9 84.3 27.7 82.6 C26.5 75 23.5 70.1 19 63.9 C16 59.5 13.5 54.9 11 50.3 C7.6 44.6 4.4 40.3 -2 38 C-6.4 37.6 -6.4 37.6 -11.3 37.6 C-12.1 37.6 -12.1 37.6 -16.2 37.6 C-23.4 38.2 -28.8 40.3 -35 44 C-36.2 48.1 -36.2 48.1 -37.1 53.1 C-38.3 60 -39.8 65.8 -43 72 C-43.2 72.5 -43.2 72.5 -44 75 C-42.6 75.1 -41.2 75.2 -39.7 75.3 C-35 76 -35 76 -32 79 C-32 79.7 -32 80.3 -32 81 C-32.5 81 -32.5 81 -34.7 81 C-35.9 81 -37.1 80.9 -38.3 80.9 C-39.5 80.9 -40.7 80.9 -41.9 80.9 C-45 81 -45 81 -48 82 C-49.5 83.7 -51 85.5 -52.4 87.2 C-52.8 87.7 -52.8 87.7 -54.7 90.1 C-55.5 91.1 -56.2 92 -57 93 C-57.8 93.8 -58.5 94.7 -59.3 95.5 C-61 98 -61 98 -60.2 103.6 C-60 104.5 -60 104.5 -59 109 C-59.2 109.7 -59.2 109.7 -60 113 C-63 108 -63 108 -64 105 C-66 106 -68 107 -70 108 C-68.2 114.1 -66.4 118.4 -62 123 C-61.7 122.3 -61.3 121.7 -61 121 C-60 121 -59 121 -58 121 C-57.3 122.3 -56.7 123.6 -56 125 C-55.3 125 -54.7 125 -54 125 C-53.6 125.8 -53.6 125.8 -51.4 130 C-47.4 137.4 -43 142.9 -35.6 147.1 C-32.2 149.3 -31.2 150.4 -30.1 154.4 C-29.3 163.4 -29.2 173.8 -34.3 181.6 C-37 184 -37 184 -42 187 C-43 186.7 -44 186.3 -45 186 C-44.7 184.7 -44.3 183.4 -44 182 C-44.5 182.5 -44.5 182.5 -47.1 184.8 C-54.6 191 -62.2 193 -72 193 C-73.8 193.1 -75.5 193.1 -77.4 193.2 C-83 193 -83 193 -88 190 C-87.3 189.7 -87.3 189.7 -84 188 C-84.8 187.9 -84.8 187.9 -88.7 187.2 C-93.5 186.1 -95.7 185.6 -99 182 C-99.3 180.7 -99.7 179.4 -100 178 C-99.3 178.3 -98.7 178.7 -98 179 C-95.3 179 -92.7 179 -90 179 C-89.3 176.4 -88.7 173.7 -88 171 C-89.7 170.3 -91.3 169.7 -93 169 C-99.7 162.4 -102.1 155.9 -102.4 146.6 C-102.3 140.7 -100.9 135.6 -99 130 C-99 129.3 -99 128.7 -99 128 C-100.3 130.6 -101.6 133.3 -103 136 C-103.7 136 -104.3 136 -105 136 C-105 135.3 -105 134.7 -105 134 C-106.3 134.3 -107.6 134.7 -109 135 C-109.6 124.3 -109.2 114.4 -102.4 105.7 C-99.6 101.4 -99.3 98.9 -99 93.9 C-96.6 67.1 -88.4 40.2 -70 20 C-68.8 18.6 -67.6 17.3 -66.3 15.9 C-50 1.2 -21.1 -13.1 0 0 Z " fill="#392820" transform="translate(316,47)"/>
<path d="M0 0 C1.6 -0 3.2 -0.1 4.9 -0.1 C12.5 0.8 16.4 4 21.1 9.9 C24.5 15.2 27.6 20.7 30.6 26.2 C32.6 29.4 32.6 29.4 35.9 33.7 C41 40.9 40.9 49.9 41.6 58.4 C41.7 58 41.7 58 42.3 55.7 C42.6 54.5 42.9 53.3 43.2 52.1 C43.6 50.9 43.9 49.7 44.2 48.5 C45.6 45.4 45.6 45.4 50.6 43.4 C54.8 47.4 56.3 49.7 56.8 55.6 C56.4 62.6 54.8 69.4 49.6 74.4 C48.9 74.4 48.2 74.4 47.6 74.4 C47.6 73.8 47.6 73.1 47.6 72.4 C46.6 72.4 45.6 72.4 44.6 72.4 C44.6 74.1 44.6 75.7 44.6 77.4 C42.9 77.4 41.3 77.4 39.6 77.4 C39.5 78.6 39.4 79.7 39.3 80.8 C38 88.8 35 95 30.3 101.5 C26.7 106.9 25.7 109.8 26.6 116.4 C26.7 117.7 26.8 119 26.9 120.3 C28.5 136.8 28.5 136.8 34.8 142.5 C37 144.2 39.3 145.8 41.6 147.4 C33.6 158.7 20.1 163.3 7.6 167.4 C6.4 170.1 5.4 172.7 4.4 175.4 C-0.6 189 -7.5 201.4 -15.4 213.4 C-16.1 213.1 -16.8 212.8 -17.4 212.4 C-20.5 199.1 -21.5 185.7 -19.8 172.1 C-19.7 171.5 -19.7 171.5 -19.4 168.4 C-22.4 165.4 -22.4 165.4 -25.3 163.6 C-28.8 161.2 -31.1 158.9 -33.4 155.4 C-32.4 150.4 -32.4 150.4 -28.1 147.5 C-26.5 146.5 -25 145.5 -23.4 144.4 C-20.6 140 -20 136.3 -19.8 131.1 C-19.7 129.8 -19.6 128.5 -19.6 127.2 C-19.4 122.9 -19.4 118.7 -19.4 114.4 C-21.1 113.8 -22.7 113.1 -24.4 112.4 C-32.6 106.4 -39.9 98.5 -42.4 88.4 C-42.9 88.6 -42.9 88.6 -45.4 89.4 C-45.6 88.6 -45.6 88.6 -46.4 84.4 C-47.4 84.4 -48.4 84.4 -49.4 84.4 C-49.8 85.4 -50.1 86.4 -50.4 87.4 C-55.3 82.4 -57.6 78.2 -59.4 71.4 C-55.4 68.4 -55.4 68.4 -52.4 68.4 C-51.1 69.8 -49.8 71.1 -48.4 72.4 C-49 70.8 -49.5 69.3 -50 67.6 C-50.7 63.7 -50.8 62 -48.7 58.5 C-46.4 55.7 -44 53 -41.4 50.4 C-40.5 49.2 -39.6 48 -38.7 46.8 C-36.4 44.4 -36.4 44.4 -31.4 43.4 C-27.8 43.7 -24.1 44 -20.4 44.4 C-23.4 40.4 -23.4 40.4 -28.1 39.7 C-28.8 39.6 -28.8 39.6 -32.4 39.4 C-32.8 38.8 -33.1 38.1 -33.4 37.4 C-32.4 35.8 -31.5 34.1 -30.4 32.4 C-29.7 30.3 -29 28 -28.4 25.8 C-28 24.6 -27.7 23.4 -27.3 22.1 C-26.5 18.8 -26.1 15.7 -25.7 12.4 C-24.4 7.4 -24.4 7.4 -20.8 4.4 C-13.7 1.2 -7.7 0.1 0 0 Z " fill="#F6B785" transform="translate(304.4375,83.5625)"/>
<path d="M0 0 C0.7 0 1.3 0 2 0 C5.1 5.8 7.3 11.6 9.3 17.8 C13.7 30.7 20.2 43.7 32.6 50.5 C36.5 51.8 39.9 52.5 44 53 C46 54 48 55 50 56 C51 56 52 56 53 56 C54 55 55 54 56 53 C56 56.3 56 59.6 56 63 C64.5 62.5 64.5 62.5 69 58 C70 57 71 56 72 55 C71.7 56 71.7 56 70 61 C76.1 59 79.8 55.7 84.3 51.5 C90.6 45.7 97.4 40.4 104.2 35.4 C110.4 30.8 115.5 26 120.1 19.8 C126.4 11.4 134.4 9.5 144.1 6.2 C145.5 5.7 147 5.2 148.5 4.6 C149.2 4.4 149.2 4.4 152.8 3.2 C154.1 2.7 155.4 2.3 156.7 1.8 C160 1 160 1 164 2 C179 46.7 179 46.7 179 70 C136.4 89 75.5 83.5 30 79 C28.9 78.9 27.8 78.8 26.7 78.7 C12 77.3 -3.7 75.7 -17 69 C-13.7 45.1 -8.4 22.7 0 0 Z " fill="#385E5C" transform="translate(211,470)"/>
<path d="M0 0 C1.3 3.8 0.7 6.3 0.1 10.2 C-0.1 11.5 -0.3 12.7 -0.5 14 C-0.6 14.5 -0.6 14.5 -1 17 C32.3 27.8 67.7 28.2 102.4 28.2 C103.6 28.2 104.8 28.2 106.1 28.2 C167.8 28.1 167.8 28.1 192 18 C192.7 18 193.3 18 194 18 C193.7 15.4 193.7 15.4 192 2 C238.8 5.8 238.8 5.8 249 16 C249 17.6 249 19.3 249 21 C222.3 45.1 154.9 41.1 121.1 41.2 C120.3 41.2 120.3 41.2 116.1 41.2 C110.7 41.2 105.4 41.2 100.1 41.2 C99.2 41.3 99.2 41.3 94.6 41.3 C68.2 41.2 42.2 40.9 16 38 C14.6 37.9 13.2 37.7 11.8 37.5 C-39.6 31.8 -39.6 31.8 -54 21 C-53.7 18.7 -53.3 16.4 -53 14 C-42.2 8 -30.6 5.8 -18.6 3.8 C-17.5 3.6 -16.5 3.4 -15.4 3.2 C-10.2 2.4 -5.3 1.8 0 2 C0 1.3 0 0.7 0 0 Z " fill="#D1C7A8" transform="translate(196,522)"/>
<path d="M0 0 C2 0.5 4 1 5.9 1.4 C7 1.7 8.1 2 9.3 2.2 C12 3 12 3 13 4 C15.7 4.2 18.4 4.4 21.1 4.5 C26.5 4.8 31.7 5.2 37 6 C37 9 37 9 35 12 C34.5 17.9 34.8 19.7 38 25 C42.3 27.2 44.3 27.4 49 27 C54 24 54 24 56 20 C55.7 15.5 55.4 11.3 54 7 C55.2 7 56.3 6.9 57.5 6.9 C79.7 6.4 101.8 5.9 124 5 C124.3 5.7 124.7 6.3 125 7 C125.7 7 126.3 7 127 7 C127.3 10 127.7 12.9 128 16 C107.2 28 85.7 39 63.4 48.1 C52.9 52.6 46.9 57.2 41 67 C40.3 67 39.7 67 39 67 C38.7 66.4 38.7 66.4 37.1 63.1 C29.2 47.2 21.1 40.4 6.3 31.1 C1.6 27.7 -1.8 24.8 -5 20 C-4.8 15.1 -4.8 15.1 -3.5 10.1 C-3.3 9.2 -3.3 9.2 -2.2 5 C-1 1 -1 1 0 0 Z " fill="#385D5B" transform="translate(232,424)"/>
<path d="M0 0 C0.3 0 0.7 0 1 0 C2 7.9 3 15.8 4 24 C4.7 24 5.3 24 6 24 C7.3 18.4 8.6 12.8 10 7 C10.3 7 10.7 7 11 7 C10.5 13 9.5 18.8 8.1 24.7 C3.3 46.5 4 64.9 12.6 85.8 C18.2 99.9 15.4 114.6 12 129 C11.5 132.6 11.5 132.6 12 136 C15 139.9 15 139.9 18 143 C17.7 144 17.3 145 17 146 C17.3 146.3 17.7 146.7 18 147 C17.6 152.6 16.7 157.7 15 163 C11 161 11 161 9.6 158.5 C8.8 153.7 9.9 149.7 11 145 C10 145.3 9 145.7 8 146 C7.9 144.3 7.9 142.6 7.8 140.9 C7 134.8 6.4 133 2 129 C-5.9 123.3 -13.3 122.1 -23 123 C-28 124.3 -32.6 126.1 -37 129 C-36 124 -36 124 -32 121 C-27.5 119.5 -23.1 119.9 -18.3 119.9 C-16.4 119.9 -14.5 120 -12.5 120 C-11.7 120 -11.7 120 -8 120 C-8.7 119.3 -9.3 118.7 -10 118 C-11.3 116.7 -12.6 115.4 -14 114 C-13.7 112.7 -13.3 111.4 -13 110 C-8.8 111.2 -6.6 112.3 -3 115 C-0.3 103.5 -1.5 93.9 -4.2 82.6 C-7.6 67.9 -4 54.2 -1.1 39.6 C0.6 31.1 1.8 23.2 0.5 14.6 C-0.2 9.7 -0.1 4.9 0 0 Z " fill="#893122" transform="translate(213,279)"/>
<path d="M0 0 C0.3 0 0.7 0 1 0 C1.1 0.7 1.1 0.7 1.8 4.2 C2.2 6 2.5 7.8 2.9 9.7 C3.2 11.5 3.6 13.3 3.9 15.1 C5 20 5 20 7 25 C9.3 36.9 9 45.7 5 57 C3.7 60.9 2.5 64.9 1.2 68.8 C1.1 69.3 1.1 69.3 0.3 71.7 C-2.3 80 -2.8 86.2 -0.4 94.6 C1 99.9 1.6 102.7 0 108 C-5.7 115.7 -5.7 115.7 -11 117 C-11 119 -11 121 -11 123 C-11.5 122.7 -11.5 122.7 -14 121 C-14 120.3 -14 119.7 -14 119 C-15.4 119.1 -16.7 119.1 -18.1 119.2 C-40.1 120.1 -62 120.5 -84 121 C-84.3 120.3 -84.7 119.7 -85 119 C-84.2 118.8 -84.2 118.8 -80 118 C-79.7 117 -79.3 116 -79 115 C-75.8 114.2 -72.6 113.4 -69.4 112.6 C-67.6 112.1 -65.8 111.7 -64 111.2 C-57.1 109.5 -51.1 108.7 -44 109 C-43.7 109.3 -43.7 109.3 -42 111 C-46.6 112.6 -51.2 114.3 -56 116 C-47.8 116.3 -39.5 116.7 -31 117 C-31 116.7 -31 116.3 -31 116 C-29.5 115.8 -28.1 115.5 -26.6 115.2 C-21.2 114 -16.8 112.6 -12 110 C-11.7 109.3 -11.7 109.3 -10 106 C-9.7 105.3 -9.3 104.7 -9 104 C-8.3 97.1 -10.1 91.4 -12.1 84.9 C-14.3 75.3 -12.1 67.4 -9.4 58.2 C-9 57 -8.7 55.7 -8.3 54.4 C-6.6 48.5 -4.9 42.7 -3.1 36.8 C-0.3 27.5 1.7 20.6 0 11 C-0.1 7.3 -0 3.7 0 0 Z " fill="#893223" transform="translate(369,311)"/>
<path d="M0 0 C0.7 0.3 1.3 0.7 2 1 C3.3 5.9 3.9 11 4.8 16.1 C5 17.5 5.2 18.9 5.5 20.3 C6.7 27.4 7.5 33 5 40 C4.5 45.9 6 50.5 8 56 C7.4 56.5 7.4 56.5 4.2 58.9 C0 63 0 63 -2 67.5 C-4.4 72.9 -7.5 75.3 -12 79 C-13 80.6 -14 82.3 -15 84 C-15.7 84 -16.3 84 -17 84 C-17.7 80.4 -18.3 76.7 -19 73 C-18.1 72.4 -17.2 71.9 -16.2 71.3 C-11.7 68.1 -9.5 65.8 -8.1 60.4 C-8 54.9 -9.5 50.3 -11 45 C-11.5 37.7 -10 31.6 -7.8 24.8 C-7.4 23.7 -7.1 22.7 -6.8 21.7 C-5.9 18.8 -4.9 15.9 -4 13 C-3.2 10.4 -2.4 7.7 -1.6 5.1 C-1 3.4 -0.5 1.7 0 0 Z " fill="#EAEEE7" transform="translate(377,355)"/>
<path d="M0 0 C0.7 0.3 1.3 0.7 2 1 C1 2.3 0 3.6 -1 5 C-1.6 6.1 -2.2 7.3 -2.8 8.4 C-5.4 12.7 -8.5 15.7 -13 18 C-20.5 18.9 -24.2 16.5 -30 12 C-31 10.7 -32 9.4 -33 8 C-34 7.3 -35 6.7 -36 6 C-34 5 -34 5 -29 6 C-26.4 5.6 -23.9 5.2 -21.4 4.6 C-16.4 3.6 -11.6 2.8 -6.6 2.4 C-2 2 -2 2 0 0 Z " fill="#D16D58" transform="translate(320,170)"/>
<path d="M0 0 C3.5 0.5 3.5 0.5 7.5 4.5 C8.4 7.4 8.4 7.4 8.5 10.5 C5.5 15.5 5.5 15.5 2.5 17.5 C-2.4 17.2 -4 17 -7.5 13.5 C-7.8 12.2 -8.2 10.9 -8.5 9.5 C-7.5 9.5 -6.5 9.5 -5.5 9.5 C-6.2 7.9 -6.8 6.2 -7.5 4.5 C-3.5 0.5 -3.5 0.5 0 0 Z " fill="#385D5B" transform="translate(277.5,431.5)"/>
<path d="M0 0 C2.1 -0.1 4.1 -0.2 6.2 -0.2 C7.3 -0.3 8.5 -0.3 9.7 -0.4 C13.7 0.1 15.2 1.1 18 4 C19.2 9.3 19.7 12.6 17.3 17.5 C14.3 20.7 12 21.9 7.6 22.4 C3.3 21.9 1.3 20.8 -2 18 C-4.3 13.4 -4.5 11 -4 6 C-2 2.5 -2 2.5 0 0 Z M0 6 C0.7 7.6 1.3 9.3 2 11 C1 11.3 0 11.7 -1 12 C2 17 2 17 6 19 C10.6 18.7 11.7 18.3 15 15 C15.9 11.6 15.9 11.6 16 8 C13 3 13 3 11 2 C5.1 1.5 4.5 1.5 0 6 Z " fill="#D7AA80" transform="translate(270,430)"/>
<path d="M0 0 C3.6 2.1 3.6 2.1 6 4 C5.7 4.2 5.7 4.2 4 5 C4 5.7 4 6.3 4 7 C3.3 7 2.7 7 2 7 C1.7 6.3 1.3 5.7 1 5 C-0.3 4.7 -1.6 4.3 -3 4 C-2.7 5.7 -2.3 7.3 -2 9 C-2.7 10.3 -3.3 11.6 -4 13 C-6.9 13.9 -6.9 13.9 -10 14 C-11 13.3 -12 12.7 -13 12 C-13.7 8.4 -13.7 8.4 -14 5 C-15.6 6.7 -17.3 8.3 -19 10 C-17.8 5 -16.3 2.8 -12 0 C-7.7 -1.4 -4.4 -0.8 0 0 Z " fill="#442E24" transform="translate(329,129)"/>
<path d="M0 0 C3.6 2.5 3.6 2.5 6 5 C5.7 5.7 5.3 6.3 5 7 C4.3 6.3 3.7 5.7 3 5 C2.8 6.1 2.5 7.2 2.3 8.4 C2.1 9 2.1 9 1 12 C-0.6 12.7 -2.3 13.3 -4 14 C-5.3 13.3 -6.6 12.7 -8 12 C-8.3 9.4 -8.7 6.7 -9 4 C-13 7 -13 7 -15 10 C-16 9 -17 8 -18 7 C-17.3 7 -16.7 7 -16 7 C-15.3 5.7 -14.7 4.4 -14 3 C-8.9 -0.8 -6.3 -0.6 0 0 Z " fill="#412E25" transform="translate(279,136)"/>
<path d="M0 0 C2.1 2.1 2.1 2.1 4.1 7.1 C-0.4 6.5 -4.1 5.4 -8.2 3.7 C-16.3 0.7 -24.4 -0.2 -32.9 -0.9 C-23.2 -7.4 -9.6 -6.1 0 0 Z " fill="#893122" transform="translate(424.9375,409.875)"/>
<path d="M0 0 C1.3 0.7 2.6 1.3 4 2 C4.3 3 4.7 4 5 5 C2.8 5.7 0.6 6.3 -1.6 6.9 C-2.8 7.3 -4 7.7 -5.3 8 C-9 9 -9 9 -12.7 9.4 C-16 10 -16 10 -20 14 C-21 14.3 -22 14.7 -23 15 C-23.7 14 -24.3 13 -25 12 C-18 5.4 -10.2 -1.4 0 0 Z " fill="#8A3122" transform="translate(414,389)"/>
<path d="M0 0 C4 2 6.4 4 9.6 7 C12.3 9.6 14.9 11.9 18 14 C17.7 15 17.3 16 17 17 C13 18 10.1 18.4 6 18 C2.2 14.6 1 10.9 0 6 C0 4 0 2 0 0 Z " fill="#8D3223" transform="translate(189,450)"/>
<path d="M0 0 C0.3 0.7 0.7 1.3 1 2 C0 4.3 -1 6.7 -2 9 C-3 13.8 -3.1 17.9 -3.1 22.8 C-3.1 23.6 -3.1 23.6 -3 27.5 C-3 28.6 -3 29.8 -3 31 C-8.1 26.1 -10.3 21.9 -12 15 C-12 12.7 -12 10.3 -12 8 C-11 7.7 -10 7.3 -9 7 C-8.3 7.3 -7.7 7.7 -7 8 C-7 8.7 -7 9.3 -7 10 C-6.3 10 -5.7 10 -5 10 C-4.7 9.1 -4.5 8.2 -4.2 7.2 C-3 4 -3 4 0 0 Z " fill="#9C9186" transform="translate(218,173)"/>
</svg>
