<?xml version="1.0" encoding="UTF-8"?>
<svg xmlns="http://www.w3.org/2000/svg" width="600" height="600" viewBox="0 0 600 600" role="img" aria-label="Drink">
  <rect width="600" height="600" fill="#EEF3EE"/>
  <rect y="470" width="600" height="130" fill="#D5E4D7"/>
  <ellipse cx="286" cy="474" rx="190" ry="24" fill="#BFD2C2"/>

  <path d="M83 470 L104 330 Q111 294 149 288 L245 288 Q282 294 290 330 L312 470 Z" fill="#4A5F7A"/>
  <circle cx="200" cy="207" r="88" fill="#5C4033"/>
  <circle cx="209" cy="219" r="66" fill="#E8C4A8"/>
  <path d="M126 198 Q145 125 218 129 Q279 134 290 196 Q248 164 197 171 Q154 173 126 198" fill="#5C4033"/>
  <circle cx="222" cy="210" r="5" fill="#3A3F45"/>
  <ellipse cx="267" cy="236" rx="12" ry="8" fill="#B9412E"/>

  <g transform="rotate(-12 356 254)">
    <path d="M310 194 L417 194 L400 329 Q364 350 327 329 Z" fill="#F5E8D0"/>
    <path d="M324 241 L404 241 L393 319 Q364 335 336 319 Z" fill="#7EB4D4"/>
    <ellipse cx="364" cy="194" rx="54" ry="18" fill="#DCE9E1"/>
    <ellipse cx="364" cy="200" rx="43" ry="11" fill="#7EB4D4"/>
  </g>

  <path d="M218 334 Q278 310 329 300" fill="none" stroke="#E8C4A8" stroke-width="34" stroke-linecap="round"/>
  <circle cx="333" cy="298" r="22" fill="#E8C4A8"/>
  <path d="M245 355 Q305 354 371 322" fill="none" stroke="#E8C4A8" stroke-width="30" stroke-linecap="round"/>
  <circle cx="373" cy="321" r="20" fill="#E8C4A8"/>
  <path d="M359 181 L273 232" stroke="#B9412E" stroke-width="10" stroke-linecap="round"/>
  <circle cx="483" cy="168" r="11" fill="#7EB4D4" opacity="0.45"/>
  <circle cx="512" cy="205" r="7" fill="#7EB4D4" opacity="0.3"/>
</svg>
