<?xml version="1.0" encoding="UTF-8"?>
<!-- Generator: visioncortex VTracer 0.6.12 -->
<svg version="1.1" xmlns="http://www.w3.org/2000/svg" width="600" height="600" viewBox="0 0 600 600" role="img" aria-label="Person drinking">
<path d="M0 0 C198 0 396 0 600 0 C600 198 600 396 600 600 C402 600 204 600 0 600 C0 402 0 204 0 0 Z " fill="#EDF2ED" transform="translate(0,0)"/>
<path d="M0 0 C5.3 1.5 10.2 1.8 15.6 2 C27 2.5 35 5 43.6 12.6 C47.3 17.1 49.3 20.9 50.6 26.6 C50.9 26.6 51.2 26.6 51.6 26.6 C51.6 22.4 51.5 18.6 50.6 14.6 C54.7 15.9 55.5 17.7 57.6 21.6 C58.1 28.5 58.1 28.5 56.6 31.6 C57.2 31.5 57.2 31.5 60.6 31.2 C66.1 31.3 69.2 33.2 73.6 36.6 C78.6 42.7 78.6 42.7 78.6 45.6 C76.6 44.9 74.6 44.2 72.6 43.6 C72.8 43.8 72.8 43.8 74 45.2 C74.3 45.5 74.3 45.5 75.9 47.3 C76.6 48 77.2 48.7 77.8 49.4 C82.3 55 82.5 60.7 82.6 67.6 C82.1 71.4 81.3 75.1 79.6 78.6 C79.2 81.1 79 83.6 78.7 86.1 C78.1 91 77.4 95.6 75.9 100.3 C74.2 105.6 75.3 107.7 77.1 112.9 C79.8 121.6 78.5 129 74.3 137 C70.7 142.7 66.4 148.4 59.6 150.4 C58.9 150.5 58.3 150.5 57.6 150.6 C57.5 151.3 57.4 152 57.2 152.7 C56.5 155.9 55.3 158.3 53.7 161.1 C53.2 162.1 52.7 163 52.1 163.9 C50.6 166.6 50.6 166.6 47.6 170.6 C46.2 181.4 48.2 193.3 51.6 203.6 C52.7 203.6 53.9 203.6 55.1 203.6 C61.2 204.3 66.2 206.9 71.7 209.5 C77.3 212 83.1 214 88.8 216 C119.7 227 146.2 236.5 161.8 267.6 C164.2 273.1 166 278.8 167.7 284.6 C167.9 285.3 168.1 286.1 168.4 286.9 C173.4 305 175.7 323.8 178.2 342.3 C178.8 346.2 179.3 350.1 179.8 353.9 C181.5 366.3 183 378.4 183.1 390.8 C183.8 396.9 186.9 400.9 190.6 405.6 C192.3 410.7 192.2 415.1 190 420.1 C188.3 424.2 188.6 426.4 189.6 430.6 C189.9 431.2 190.2 431.9 190.6 432.6 C191.5 442.1 189.9 449.5 184.6 457.6 C184.5 460.3 184.5 460.3 184.7 463.6 C184.8 473.7 181.8 480.5 175.3 488.1 C172.6 492 171.3 496.3 169.9 500.7 C168.3 504.2 167 505.1 163.6 506.6 C160.4 507.3 160.4 507.3 157.2 507.8 C156.2 507.9 155.1 508.1 154 508.2 C153.2 508.3 152.4 508.4 151.6 508.6 C150.8 507.4 150 506.3 149.1 505.1 C140.8 494.1 130.3 487.5 116.6 485.6 C112.7 485.2 110.5 485.6 106.6 486.6 C105.1 488.6 105.1 488.6 103.9 491 C101.4 495 100.9 495.5 96 497 C94.3 497.2 92.5 497.4 90.8 497.5 C90.3 497.5 90.3 497.5 87.8 497.8 C84.8 498.1 81.7 498.3 78.6 498.6 C76.5 498.8 74.4 498.9 72.4 499.1 C20.5 503.8 -42.3 507.5 -92.4 491.6 C-92.2 490.6 -92 489.7 -91.7 488.7 C-89.4 478.6 -87.5 468.4 -85.8 458.1 C-85.5 456.9 -85.3 455.6 -85.1 454.3 C-83.3 443.3 -82.2 432.6 -82.2 421.5 C-82.2 421 -82.2 421 -82.2 418.5 C-82.3 409.4 -83.2 400.6 -84.4 391.6 C-85.1 392.9 -85.8 394.2 -86.5 395.5 C-87.4 397.3 -88.3 399 -89.2 400.8 C-89.5 401.2 -89.5 401.2 -90.6 403.4 C-94.2 410.2 -94.2 410.2 -96.2 413.3 C-97.7 416 -98 418.2 -98.3 421.2 C-100.6 436.6 -112.3 449.6 -124.3 458.8 C-136.2 467 -147.9 471.1 -162.4 469.6 C-172.1 466.6 -178.8 460.7 -183.9 452.1 C-190.4 439.3 -192 425 -188.9 411.1 C-188.4 408.4 -188.4 405.9 -188.6 403.1 C-188.7 395.3 -186.5 388.9 -181.3 383.1 C-177.9 378.9 -177.7 376.3 -177 371.2 C-175.8 365.3 -172.1 362 -167.4 358.6 C-166.8 358.6 -166.1 358.6 -165.4 358.6 C-165.1 357 -164.8 355.4 -164.4 353.8 C-161.8 343.2 -157.3 333 -152.8 323 C-148.3 313 -144.6 302.8 -141.1 292.4 C-128 254.3 -128 254.3 -116.4 242.6 C-115.9 241.9 -115.3 241.3 -114.7 240.7 C-100.4 226.6 -77 222.3 -58.4 216.6 C-57.2 216.2 -55.9 215.8 -54.6 215.4 C-48.2 213.4 -41.8 211.5 -35.4 209.6 C-33.5 202.5 -32 196.4 -35.5 189.6 C-38.3 185.8 -41.4 182.2 -44.4 178.6 C-50.4 169.9 -54.5 161.4 -57.8 151.4 C-59.4 147.6 -59.4 147.6 -62.4 144.2 C-68.5 137 -71.1 128 -70.4 118.6 C-69 115.4 -69 115.4 -67.4 112.6 C-66 106.8 -67.9 102.8 -70.4 97.6 C-72.4 95.2 -74.4 92.8 -76.4 90.6 C-78.8 85.9 -79.9 81.8 -80.4 76.6 C-81.1 76.9 -81.1 76.9 -84.4 78.6 C-88.3 72.5 -89.4 66.7 -88.4 59.6 C-87.1 56.3 -85.4 53.6 -83.4 50.6 C-83.3 50.2 -83.3 50.2 -82.4 48.6 C-84.4 49.2 -86.4 49.9 -88.4 50.6 C-88.2 41 -85.8 37.2 -79.2 30.2 C-75 27.7 -70.3 26.7 -65.4 25.6 C-65.4 22.3 -65.4 19 -65.4 15.6 C-64.1 14.9 -62.8 14.2 -61.4 13.6 C-60.8 13.9 -60.8 13.9 -57.4 15.6 C-48.4 16.8 -42.5 14.6 -35.2 9.1 C-33 7.4 -30.7 5.6 -28.5 3.8 C-20.1 -2.3 -9.8 -2.8 0 0 Z " fill="#335073" transform="translate(298.4375,34.4375)"/>
<path d="M0 0 C6 6 4.2 22.6 4.3 31.1 C4.2 55.3 -0.5 78.8 -7 102 C51.3 111.1 109.6 113.9 168.4 107.5 C169.5 107.4 170.5 107.3 171.7 107.1 C182.2 105.9 182.2 105.9 187 104 C187.8 102.7 188.5 101.3 189.3 99.9 C192 96 192 96 196.6 94.8 C208.1 94.6 219.2 98.9 227.8 106.5 C231.5 110.1 234.9 113.8 238 118 C242.8 117.4 247.4 116.6 252 115 C254.7 111.2 254.7 111.2 256 107 C257.9 102 260.2 98.4 263.5 94.2 C267.1 88.8 268.7 82.4 270 76 C308.6 76 347.2 76 387 76 C387 109 387 142 387 176 C189 176 -9 176 -213 176 C-213 143 -213 110 -213 76 C-181.7 75.6 -181.7 75.6 -168.3 75.4 C-159.2 75.4 -150.1 75.3 -140.9 75.1 C-133.6 75 -126.2 74.9 -118.9 74.9 C-116.1 74.8 -113.3 74.8 -110.5 74.8 C-106.5 74.7 -102.6 74.7 -98.7 74.6 C-97.5 74.6 -96.4 74.6 -95.2 74.6 C-88 74.5 -83.4 75.7 -77 79 C-63.8 80.8 -51.2 76.8 -40.4 69.2 C-37.9 67.2 -35.4 65.1 -33 63 C-32.3 62.4 -31.6 61.8 -30.9 61.2 C-22.4 53.3 -14.6 42.5 -13.7 30.7 C-12.9 25.1 -10.9 21.3 -8.1 16.4 C-7.2 14.8 -6.3 13.1 -5.4 11.5 C-5 10.8 -4.6 10 -4.2 9.2 C-2.6 6.2 -1.3 3.1 0 0 Z " fill="#D4E3D6" transform="translate(213,424)"/>
<path d="M0 0 C5.3 1.5 10.2 1.8 15.6 2 C27 2.5 35 5 43.6 12.6 C47.3 17.1 49.3 20.9 50.6 26.6 C50.9 26.6 51.2 26.6 51.6 26.6 C51.6 22.4 51.5 18.6 50.6 14.6 C54.7 15.9 55.5 17.7 57.6 21.6 C58.1 28.5 58.1 28.5 56.6 31.6 C57.2 31.5 57.2 31.5 60.6 31.2 C66.1 31.3 69.2 33.2 73.6 36.6 C78.6 42.7 78.6 42.7 78.6 45.6 C77.6 45.2 77.6 45.2 72.6 43.6 C72.8 43.8 72.8 43.8 74 45.2 C74.7 45.9 75.3 46.6 75.9 47.3 C76.6 48 77.2 48.7 77.8 49.4 C82.3 55 82.5 60.7 82.6 67.6 C82.1 71.4 81.3 75.1 79.6 78.6 C79.2 81.1 79 83.6 78.7 86.1 C78.1 91 77.4 95.6 75.9 100.3 C74.2 105.6 75.3 107.7 77.1 112.9 C79.8 121.6 78.5 129 74.3 137 C70.7 142.7 66.4 148.4 59.6 150.4 C58.9 150.5 58.3 150.5 57.6 150.6 C57.5 151.3 57.4 152 57.2 152.7 C56.5 155.9 55.3 158.3 53.7 161.1 C53.2 162.1 52.7 163 52.1 163.9 C50.6 166.6 50.6 166.6 47.6 170.6 C46.1 181.7 47.5 195.1 53.6 204.6 C56.3 207.1 56.3 207.1 58.6 208.6 C55.7 220.8 49.1 229.8 38.6 236.6 C27.2 243.3 17.1 244.9 4 244.6 C2.9 244.6 1.7 244.6 0.6 244.6 C-1.7 246.8 -1.4 251.7 -1.8 254.8 C-1.9 255.7 -2 256.7 -2.1 257.7 C-2.4 259.8 -2.7 261.9 -3 264 C-3.6 268.5 -4.2 273 -4.8 277.5 C-5.9 285.8 -7 294.2 -8.1 302.5 C-8.9 308.3 -9.7 314.1 -10.5 319.9 C-10.8 322.1 -11.1 324.3 -11.3 326.5 C-11.7 329.6 -12.2 332.7 -12.6 335.8 C-12.7 336.7 -12.8 337.7 -12.9 338.6 C-13.7 344.2 -14.9 347.2 -19.4 350.6 C-36.2 357.5 -56.3 355.4 -73.4 350.6 C-73.5 351.3 -73.5 352.1 -73.6 352.9 C-75 359 -78.2 364.5 -82.8 368.7 C-85.9 372 -87.4 375.1 -89.2 379.1 C-89.9 380.6 -90.5 382.1 -91.2 383.7 C-91.9 385.2 -92.6 386.8 -93.3 388.4 C-94 389.9 -94.7 391.4 -95.4 393 C-99.3 401.7 -103.1 410.5 -106.9 419.3 C-110.8 427.6 -116.7 433.9 -124.8 438.4 C-133.3 441.1 -140.3 441.2 -148.4 437.6 C-156.4 433.1 -161 426.3 -163.4 417.6 C-164.7 405.7 -162.7 396.6 -155.8 386.9 C-152.2 383.4 -148.5 380.3 -144.6 377.1 C-115.7 353.5 -115.7 353.5 -114.2 340.4 C-114.2 338.5 -114.3 336.5 -114.4 334.6 C-114.5 331.8 -114.5 329.1 -114.4 326.3 C-114.4 324.3 -114.4 322.4 -114.5 320.4 C-114.5 315.4 -114.3 310.6 -113.4 305.6 C-113.4 304.4 -113.3 303.2 -113.2 302 C-112.4 298.6 -112.4 298.6 -110.1 296 C-106.8 291.7 -105.7 287.7 -104.4 282.6 C-100.7 268.5 -100.7 268.5 -95 265.1 C-94.1 264.8 -93.3 264.5 -92.4 264.2 C-91.5 263.9 -90.7 263.6 -89.8 263.2 C-87.4 262.6 -87.4 262.6 -84.4 262.6 C-84.7 258.6 -85.1 254.6 -85.4 250.6 C-85.5 249.5 -85.5 248.4 -85.6 247.2 C-85.7 246.1 -85.8 245 -85.9 243.9 C-86 242.9 -86.1 241.9 -86.1 240.9 C-86.4 238.6 -86.4 238.6 -87.4 237.6 C-87.5 235.6 -87.5 233.6 -87.4 231.6 C-85.9 230.9 -84.4 230.3 -82.8 229.6 C-82 229.3 -81.1 228.9 -80.2 228.5 C-74.7 226.6 -69.2 226.4 -63.4 226.2 C-61.9 226.2 -60.4 226.2 -58.8 226.1 C-57.3 226.1 -55.7 226 -54.1 226 C-52.5 226 -50.9 225.9 -49.2 225.9 C-45.3 225.8 -41.4 225.7 -37.4 225.6 C-36.2 219.1 -35.1 212.8 -34.7 206.2 C-34.4 203.6 -34.4 203.6 -33.2 198.8 C-32.5 192 -37.5 187.4 -41.4 182.4 C-49 172.8 -54 162.9 -57.8 151.4 C-59.4 147.6 -59.4 147.6 -62.4 144.2 C-68.5 137 -71.1 128 -70.4 118.6 C-69 115.4 -69 115.4 -67.4 112.6 C-66 106.8 -67.9 102.8 -70.4 97.6 C-72.4 95.2 -74.4 92.8 -76.4 90.6 C-78.8 85.9 -79.9 81.8 -80.4 76.6 C-81.1 76.9 -81.1 76.9 -84.4 78.6 C-88.3 72.5 -89.4 66.7 -88.4 59.6 C-87.1 56.3 -85.4 53.6 -83.4 50.6 C-83.3 50.2 -83.3 50.2 -82.4 48.6 C-84.4 49.2 -86.4 49.9 -88.4 50.6 C-88.2 41 -85.8 37.2 -79.2 30.2 C-75 27.7 -70.3 26.7 -65.4 25.6 C-65.4 22.3 -65.4 19 -65.4 15.6 C-64.1 14.9 -62.8 14.2 -61.4 13.6 C-60.1 14.2 -58.8 14.9 -57.4 15.6 C-48.4 16.8 -42.5 14.6 -35.2 9.1 C-33 7.4 -30.7 5.6 -28.5 3.8 C-20.1 -2.3 -9.8 -2.8 0 0 Z " fill="#EDA365" transform="translate(298.4375,34.4375)"/>
<path d="M0 0 C5.3 1.5 10.2 1.8 15.6 2 C27 2.5 35 5 43.6 12.6 C47.3 17.1 49.3 20.9 50.6 26.6 C50.9 26.6 51.2 26.6 51.6 26.6 C51.6 22.4 51.5 18.6 50.6 14.6 C54.7 15.9 55.5 17.7 57.6 21.6 C58.1 28.5 58.1 28.5 56.6 31.6 C57.2 31.5 57.2 31.5 60.6 31.2 C66.1 31.3 69.2 33.2 73.6 36.6 C78.6 42.7 78.6 42.7 78.6 45.6 C77.6 45.2 77.6 45.2 72.6 43.6 C72.8 43.8 72.8 43.8 74 45.2 C74.7 45.9 75.3 46.6 75.9 47.3 C76.6 48 77.2 48.7 77.8 49.4 C82.3 55 82.5 60.7 82.6 67.6 C82.1 71.4 81.3 75.1 79.6 78.6 C79.3 81 79 83.5 78.8 85.9 C77.9 93.2 76.2 99.7 73.6 106.6 C72.2 106.3 70.8 106.1 69.4 105.8 C63.8 105.5 62.7 106 58.6 109.6 C56.2 113.2 56.2 113.2 54.2 117.3 C53.8 118 53.8 118 52.1 121.4 C51.6 122.5 51.1 123.5 50.6 124.6 C49.2 124.6 47.9 124.6 46.6 124.6 C46.5 123.8 46.5 123.8 46.4 119.7 C46.4 117.6 46.3 115.5 46.2 113.4 C46.2 112.4 46.2 111.3 46.2 110.3 C46 104.5 45.4 100.7 42.6 95.6 C42.2 93.3 42 91 41.8 88.7 C41.1 82.5 39.6 79.6 35.2 75.4 C31 70.8 30.2 64.5 29.6 58.6 C28.2 58.9 26.9 59.2 25.6 59.6 C23.5 59.7 21.5 59.7 19.5 59.7 C18.5 59.7 17.4 59.7 16.3 59.7 C13.6 59.6 13.6 59.6 10.6 58.6 C10.6 57.6 10.6 56.6 10.6 55.6 C9.8 55.9 9.1 56.2 8.3 56.6 C-3.5 61.8 -14.3 64 -27.1 60.9 C-30.7 60.4 -32.5 62.5 -35.4 64.6 C-41.2 66.8 -46.3 66.7 -52.4 66.6 C-52.6 67.3 -52.8 68 -53.1 68.8 C-54.8 72.4 -57.3 74.1 -60.4 76.6 C-64.1 87.6 -62.3 100.2 -60.9 111.5 C-60.4 115.6 -60.4 115.6 -60.4 120.6 C-64.1 115.7 -65.7 110.5 -67.6 104.7 C-69.6 98.9 -72.2 95.1 -76.4 90.6 C-78.8 85.9 -79.9 81.8 -80.4 76.6 C-81.1 76.9 -81.1 76.9 -84.4 78.6 C-88.3 72.5 -89.4 66.7 -88.4 59.6 C-87.1 56.3 -85.4 53.6 -83.4 50.6 C-83.1 49.9 -82.8 49.2 -82.4 48.6 C-84.4 49.2 -86.4 49.9 -88.4 50.6 C-88.2 41 -85.8 37.2 -79.2 30.2 C-75 27.7 -70.3 26.7 -65.4 25.6 C-65.4 22.3 -65.4 19 -65.4 15.6 C-64.1 14.9 -62.8 14.2 -61.4 13.6 C-60.1 14.2 -58.8 14.9 -57.4 15.6 C-48.4 16.8 -42.5 14.6 -35.2 9.1 C-33 7.4 -30.7 5.6 -28.5 3.8 C-20.1 -2.3 -9.8 -2.8 0 0 Z " fill="#402414" transform="translate(298.4375,34.4375)"/>
<path d="M0 0 C0.3 0.2 0.3 0.2 2 1 C1.5 1.6 1 2.2 0.5 2.8 C-25.1 36 -26 77.4 -21 117 C-20.2 122.6 -19.4 128.2 -18.6 133.8 C-17.9 139.1 -17.8 143 -18.9 148.1 C-20.7 156 -21.8 163.9 -23 171.8 C-23.1 172.7 -23.3 173.6 -23.4 174.5 C-26.1 192 -28.5 209.2 -28 227 C-24.3 221.1 -22.5 216.4 -21.5 209.4 C-20.9 206.5 -19.6 204.5 -18 202 C-18.3 199.8 -18.3 199.8 -19 197 C-19.2 192.2 -19.2 187.7 -18 183 C-18.7 182 -19.3 181 -20 180 C-20.8 175 -21.1 170.9 -20 166 C-19.6 162.6 -19.3 159.1 -18.9 155.7 C-18.8 154.8 -18.8 153.8 -18.7 152.9 C-18.4 150.6 -18.2 148.3 -18 146 C-17.7 146 -17.3 146 -17 146 C-16.7 148.1 -16.7 148.1 -15 159 C-10.1 156.2 -5.2 153.4 -0.4 150.4 C0.9 149.7 2.2 148.9 3.5 148.1 C4.6 147.4 5.8 146.7 7 146 C8.7 145 10.3 144 12 143 C12.7 143.3 13.3 143.7 14 144 C8.6 149.7 3 154.9 -3.2 159.7 C-15.2 168.9 -15.2 168.9 -17 176 C-16.7 177.3 -16.3 178.6 -16 180 C-15.2 179.6 -14.4 179.2 -13.6 178.8 C-12.5 178.2 -11.5 177.7 -10.4 177.1 C-9.3 176.6 -8.3 176.1 -7.2 175.5 C4.9 169.8 17.6 169.6 30.1 174.1 C30.7 174.4 31.4 174.7 32 175 C32 175.3 32 175.7 32 176 C30.4 176 28.9 175.9 27.2 175.9 C15.9 175.9 5.1 177.9 -4.4 184.3 C-7.3 187.3 -8.6 190.1 -10 194 C-9.6 193.8 -9.6 193.8 -7.7 193 C7.3 186.5 23.3 184.1 39 190 C42 191.5 44.8 193 47.6 194.7 C50 196 50 196 54 197 C55.3 196.3 56.6 195.7 58 195 C57.6 198.4 56.9 200.1 54.9 203 C52.9 207.2 52.8 208.8 53 213.2 C53.3 223.3 50.1 230 43.7 237.5 C41 241.4 39.7 245.7 38.3 250.2 C36.7 253.6 35.5 254.5 32 256 C28.9 256.7 28.9 256.7 25.7 257.2 C25.2 257.3 25.2 257.3 22.4 257.7 C22 257.7 22 257.7 20 258 C19.2 256.8 18.4 255.7 17.6 254.5 C9.3 243.5 -1.3 236.9 -15 235 C-18.9 234.7 -21.1 235 -25 236 C-26.4 238 -26.4 238 -27.7 240.5 C-30.2 244.5 -30.7 244.9 -35.5 246.5 C-37.3 246.7 -39 246.8 -40.8 246.9 C-41.3 247 -41.3 247 -43.8 247.2 C-45.8 247.4 -47.9 247.6 -49.9 247.8 C-52.8 248 -55.6 248.3 -58.5 248.6 C-79.5 250.9 -100.8 250.2 -122 250 C-122 249.7 -122 249.3 -122 249 C-121.5 248.9 -121.5 248.9 -119 248.3 C-97.9 243.4 -78.7 234.4 -66.4 215.9 C-42.3 175.6 -34.8 127.2 -29 81.4 C-25.4 52.6 -20.9 21.8 0 0 Z " fill="#335173" transform="translate(430,285)"/>
<path d="M0 0 C1.1 3.4 1.1 3.4 1 7 C-1.2 9.9 -2.5 10.8 -6 12 C-8.6 12.1 -11.1 12.1 -13.7 12.1 C-15.1 12.1 -16.4 12 -17.8 12 C-18.9 12 -19.9 12 -21 12 C-20.8 13.2 -20.8 13.2 -20 19 C-18.9 19.2 -17.8 19.5 -16.7 19.7 C9.1 25.5 9.1 25.5 14 33 C13.8 35.6 13.8 35.6 13 38 C12.7 39 12.3 40 12 41 C7.3 43.4 5.1 42.8 0 42 C2.1 43 4.2 44.1 6.3 45.1 C12.6 48.2 12.6 48.2 14.4 51.9 C13.9 56.1 11.9 58 9 61 C-0.6 60.4 -9.7 58.2 -19 56 C-19 56.7 -19 57.3 -19 58 C-17.4 58.2 -15.9 58.5 -14.2 58.7 C-7.8 59.9 -1.8 62 4 65 C5.4 67.8 5.3 69.9 5 73 C2 76 2 76 -2.6 76.3 C-7.9 76.2 -12.8 75.2 -18 74 C-16.8 79.5 -15.5 81.7 -11 85 C-14.2 93.5 -17.5 99.5 -24 106 C-25.2 108.4 -26.4 110.9 -27.5 113.4 C-28.2 114.9 -28.9 116.4 -29.6 117.9 C-30.3 119.5 -31 121.1 -31.8 122.7 C-32.4 124.2 -33.1 125.8 -33.8 127.3 C-37.8 136.1 -41.7 144.8 -45.5 153.7 C-49.3 162 -55.2 168.4 -63.3 172.8 C-71.8 175.6 -78.8 175.7 -87 172 C-95 167.5 -99.6 160.7 -102 152 C-103.3 140.2 -101.3 131 -94.4 121.3 C-90.8 117.8 -87 114.7 -83.1 111.6 C-54.3 87.9 -54.3 87.9 -52.8 74.9 C-52.8 72.9 -52.9 71 -53 69 C-53 66.2 -53 63.5 -53 60.7 C-53 58.8 -53 56.8 -53 54.9 C-53.1 49.8 -52.8 45 -52 40 C-51.9 38.8 -51.8 37.6 -51.8 36.4 C-51 33 -51 33 -48.6 30.4 C-45.3 26.1 -44.3 22.2 -42.9 17 C-39.3 3 -39.3 3 -33.7 -0.4 C-23.5 -4 -9.2 -7.2 0 0 Z " fill="#EDA367" transform="translate(237,300)"/>
<path d="M0 0 C1.3 4.3 0.5 6.8 -1 11 C57.3 20.1 115.6 22.9 174.4 16.5 C175.5 16.4 176.5 16.3 177.7 16.1 C188.2 14.9 188.2 14.9 193 13 C193.4 12.3 193.4 12.3 195.3 8.9 C198 5 198 5 202.6 3.8 C214.1 3.6 225.2 7.9 233.8 15.5 C237.5 19.1 240.9 22.8 244 27 C248.8 26.4 253.4 25.6 258 24 C260.7 20.2 260.7 20.2 262 16 C262.6 14.7 263.2 13.4 263.8 12 C264.2 11 264.6 10 265 9 C272.5 10.1 279.8 11.4 286 16 C286.3 17.3 286.7 18.6 287 20 C280.8 26.2 272.6 27.9 264.2 29.5 C263.7 29.6 263.7 29.6 261.1 30.1 C155.4 50.7 15.7 55.9 -100 22 C-101 19.2 -101 19.2 -101 17 C-75.6 -0.2 -30.2 0 0 0 Z " fill="#A4C3BD" transform="translate(207,515)"/>
<path d="M0 0 C1.5 0 3 0 4.6 0 C5.4 0 5.4 0 9.4 0 C10.9 0 12.5 0 14.2 0 C18.1 0.1 22 0.1 26 0.1 C25.6 1.1 25.3 2.1 25 3.1 C24.5 3.1 24.5 3.1 22.3 3 C21.1 3 19.9 3 18.7 3 C17.6 2.9 16.4 2.9 15.2 2.9 C12 3.1 12 3.1 8 5.1 C6.7 4.8 5.3 4.4 4 4.1 C2 4 -0.1 3.9 -2.1 3.9 C-2.6 3.9 -2.6 3.9 -5.2 3.9 C-8 4.1 -8 4.1 -11 6.1 C-13.4 6.2 -15.7 6.2 -18 6.1 C-10.2 10 -1.4 10.5 7.2 11.2 C8.3 11.3 9.3 11.4 10.4 11.5 C26.9 12.7 43.4 12.2 60 11.1 C60 10.1 60 9.1 60 8.1 C51.7 6.8 43.5 5.5 35 4.1 C34.8 3.6 34.8 3.6 34 1.1 C39.8 0.9 44.9 1.5 50.6 2.8 C52 3.2 53.5 3.5 55 3.8 C58.9 5.1 61.7 6.6 65 9.1 C65 14.1 65 14.1 64.1 16.3 C62.5 20.3 62.1 24.5 61.5 28.8 C61.4 29.7 61.3 30.7 61.2 31.7 C60.9 33.8 60.6 35.9 60.3 38 C59.9 41.3 59.4 44.6 59 48 C57.7 57.4 56.5 66.8 55.2 76.3 C54.5 82 53.7 87.8 52.9 93.6 C52.6 95.8 52.3 98 52 100.2 C51.6 103.3 51.2 106.4 50.8 109.4 C50.7 110.3 50.6 111.2 50.5 112.2 C49.7 117.7 48.5 120.7 44 124.1 C28.4 130.5 8.9 129.4 -7.1 124.8 C-11.2 123 -13.4 121.7 -16 118.1 C-16 116.4 -16 114.8 -16 113.1 C-14.6 113.3 -13.1 113.4 -11.6 113.6 C-6.4 114.1 -1.3 114.3 4 114.1 C6 112.1 6 112.1 6.1 108 C6.1 106.7 6 105.4 6 104.1 C-1.6 101.5 -9.3 99.3 -17 97.1 C-17 96.4 -17 95.8 -17 95.1 C-7.4 95.6 1.6 97.7 11 100.1 C11.1 99.6 11.1 99.6 12 97.1 C13 96.1 14 95.1 15 94.1 C15.2 90.9 15.2 90.9 15 88.1 C14.3 87.8 13.6 87.5 12.9 87.3 C9.9 86 6.8 84.8 3.9 83.6 C2.8 83.2 1.8 82.8 0.7 82.3 C-2 81.1 -2 81.1 -5 79.1 C-4 79.2 -3 79.4 -2 79.5 C-1.4 79.6 -1.4 79.6 2 80.1 C3.4 80.3 4.7 80.5 6.2 80.7 C10 81.1 10 81.1 14 80.1 C14.7 76.3 14.7 76.3 15 72.1 C8.5 63.4 -5.1 61.6 -15.3 59.8 C-18 59.1 -18 59.1 -20 56.1 C-20.1 52.9 -20.1 52.9 -20 50.1 C-19.5 50.1 -19.5 50.1 -16.7 50.2 C-15.3 50.2 -13.8 50.3 -12.3 50.3 C-10.9 50.3 -9.5 50.4 -8 50.4 C-3.7 50.1 -1.1 49.2 2 46.1 C1.7 43.8 1.4 41.4 1 39.1 C-3.1 37 -5.5 36.7 -10 36.5 C-11.2 36.4 -12.5 36.3 -13.7 36.2 C-16.1 36.1 -18.6 36.1 -21 36.1 C-21.1 35.7 -21.1 35.7 -21.2 33.9 C-21.4 30.7 -21.7 27.4 -22 24.2 C-22 23 -22.1 21.9 -22.2 20.7 C-22.3 19.6 -22.4 18.6 -22.5 17.4 C-22.6 16.4 -22.6 15.4 -22.7 14.4 C-23 12.1 -23 12.1 -24 11.1 C-24.1 9.1 -24.1 7.1 -24 5.1 C-22.5 4.4 -20.9 3.8 -19.4 3.2 C-18.5 2.8 -17.7 2.4 -16.8 2.1 C-11.2 0.1 -5.9 -0 0 0 Z " fill="#CDE5F0" transform="translate(235.0234375,260.90234375)"/>
<path d="M0 0 C0.3 0.2 0.3 0.2 2 1 C1.5 1.6 1 2.2 0.5 2.8 C-25.1 36 -26 77.4 -21 117 C-20.2 122.6 -19.4 128.2 -18.6 133.8 C-17.9 139.1 -17.8 143 -18.9 148.1 C-20.7 156 -21.8 163.9 -23 171.8 C-23.1 172.7 -23.3 173.6 -23.4 174.5 C-26.1 192.2 -28.1 209.8 -28.7 227.7 C-29 231.5 -29.6 234.5 -31 238 C-29.4 237.3 -27.7 236.7 -26 236 C-27.6 239.9 -27.6 239.9 -30 244 C-36.3 246.6 -43.3 246.9 -50.1 247.6 C-51.2 247.7 -52.3 247.8 -53.5 247.9 C-57 248.3 -60.5 248.7 -64 249 C-64.5 249.1 -64.5 249.1 -67.2 249.3 C-78.4 250.3 -89.6 250.1 -100.9 250.1 C-102.9 250.1 -105 250.1 -107 250 C-112 250 -117 250 -122 250 C-122 249.7 -122 249.3 -122 249 C-121.5 248.9 -121.5 248.9 -119 248.3 C-97.9 243.4 -78.7 234.4 -66.4 215.9 C-42.3 175.6 -34.8 127.2 -29 81.4 C-25.4 52.6 -20.9 21.8 0 0 Z " fill="#223E5A" transform="translate(430,285)"/>
<path d="M0 0 C0.1 1.3 0.3 2.6 0.4 3.9 C0.9 8.7 1.4 13.6 1.9 18.4 C2.1 20.5 2.3 22.6 2.6 24.7 C8.5 82.5 8.5 82.5 24.7 97.8 C42 111.6 62.7 115.3 84 119 C84 119.3 84 119.7 84 120 C83.4 120 83.4 120 80.6 120.1 C76.4 120.1 72.1 120.2 67.9 120.3 C66.1 120.4 64.3 120.4 62.4 120.4 C20.9 121.2 20.9 121.2 10.1 128.8 C3.2 132.5 -3.6 130.9 -10.9 128.9 C-11.4 128.8 -11.4 128.8 -14 128 C-13.8 127 -13.5 126.1 -13.3 125.1 C-10.9 115 -9 104.8 -7.3 94.6 C-7.1 93.3 -6.9 92 -6.7 90.7 C-4.9 79.8 -3.8 69 -3.8 57.9 C-3.8 57.4 -3.8 57.4 -3.8 55 C-3.9 45.9 -4.7 37 -6 28 C-6.7 29.3 -7.4 30.6 -8.1 32 C-9 33.7 -9.9 35.5 -10.8 37.2 C-11.3 38.1 -11.7 38.9 -12.2 39.8 C-15.8 46.6 -15.8 46.6 -17.8 49.8 C-19.2 52.4 -19.5 54.6 -19.9 57.7 C-22.2 73.1 -33.8 86 -45.9 95.2 C-56.5 102.6 -66 106.2 -79 106 C-79 105.7 -79 105.3 -79 105 C-77.3 105 -75.7 105 -74 105 C-74 104 -74 103 -74 102 C-75.3 101.3 -76.6 100.7 -78 100 C-76.7 99.8 -75.4 99.5 -74.1 99.3 C-68.7 98.2 -64.7 95.8 -60 93 C-60.5 93 -60.5 93 -63.2 92.7 C-71.7 91.9 -77.9 90.9 -85 86 C-86.1 85.3 -87.1 84.6 -88.2 83.8 C-95.7 76.3 -99.2 67.4 -99.4 56.9 C-99.4 49.2 -97.6 42.7 -94 36 C-93.7 35.8 -93.7 35.8 -92 35 C-92.7 37.2 -93.5 39.4 -94.2 41.6 C-97.3 51.2 -97.7 62.6 -93.2 71.8 C-88.2 80.6 -83.4 84.3 -74 88 C-64.4 90.3 -55.8 88.5 -47.4 83.5 C-39.1 77.6 -34.9 69.5 -32 60 C-31.1 58 -30.1 56.1 -29.1 54.1 C-25.4 47 -22.2 39.8 -19 32.5 C-4.6 0 -4.6 0 0 0 Z " fill="#233E5A" transform="translate(220,398)"/>
<path d="M0 0 C-0.6 8.9 -1.5 17.7 -2.7 26.6 C-2.9 27.8 -3.1 29 -3.3 30.3 C-3.6 32.9 -4 35.5 -4.3 38.1 C-4.9 42 -5.4 46 -5.9 49.9 C-6.3 52.5 -6.6 55 -7 57.5 C-7.1 58.7 -7.3 59.9 -7.5 61.1 C-7.6 62.2 -7.8 63.3 -7.9 64.4 C-8 64.9 -8 64.9 -8.3 67.3 C-9.1 70.4 -10.1 72.5 -12 75 C-19.8 78.2 -27.1 78.4 -35.5 78.3 C-36.7 78.3 -37.8 78.3 -39 78.3 C-48.5 78.3 -60.8 78.2 -68 71 C-67.7 70 -67.3 69 -67 68 C-66.2 68.2 -65.4 68.3 -64.6 68.5 C-60 69.1 -55.7 69.2 -51 69 C-49 67 -49 67 -48.9 62.9 C-48.9 61.6 -49 60.3 -49 59 C-56.6 56.4 -64.3 54.2 -72 52 C-72 51.3 -72 50.7 -72 50 C-62.4 50.5 -53.3 52.6 -44 55 C-43.7 54 -43.3 53 -43 52 C-42 51 -41 50 -40 49 C-39.8 45.8 -39.8 45.8 -40 43 C-40.7 42.7 -41.4 42.4 -42.1 42.2 C-45.1 40.9 -48.1 39.7 -51.1 38.5 C-52.2 38.1 -53.2 37.7 -54.3 37.2 C-57 36 -57 36 -60 34 C-59 34.1 -58 34.3 -57 34.4 C-56.3 34.5 -56.3 34.5 -53 35 C-51.6 35.2 -50.2 35.4 -48.8 35.6 C-45 36 -45 36 -41 35 C-40.3 31.2 -40.3 31.2 -40 27 C-46.5 18.3 -60 16.5 -70.3 14.7 C-73 14 -73 14 -75 11 C-75.1 7.8 -75.1 7.8 -75 5 C-74.5 5 -74.5 5 -71.7 5.1 C-70.3 5.1 -68.8 5.2 -67.4 5.2 C-66.7 5.2 -66.7 5.2 -63.1 5.3 C-59 5 -59 5 -56.2 3.4 C-52.1 1.6 -49.4 2.1 -45 2.7 C-39.9 3.2 -34.8 3.2 -29.6 3.2 C-28.5 3.2 -27.4 3.2 -26.3 3.2 C-17.5 3.1 -8.5 0 0 0 Z " fill="#A3C3BD" transform="translate(290,306)"/>
<path d="M0 0 C2.7 0.7 5.3 1.3 8 2 C7 10.2 6 18.5 5 27 C4.7 27.2 4.7 27.2 3 28 C2.7 27.9 2.7 27.9 0.9 27.1 C-3 25.6 -6.8 25.4 -11 25 C-9.5 25.3 -8.1 25.6 -6.6 25.9 C-5.1 26.2 -3.6 26.6 -2 27 C-1.8 27.3 -1.8 27.3 -1 29 C-13.8 33.6 -35 34.3 -48 30 C-49 27.7 -50 25.3 -51 23 C-51.7 22.7 -52.3 22.3 -53 22 C-53 15.4 -53 8.8 -53 2 C-48.4 2 -43.8 2 -39 2 C-39 1.7 -39 1.3 -39 1 C-35.4 1 -31.7 1 -28 1 C-28 1.3 -28 1.7 -28 2 C-25.7 2 -23.4 2 -21 2 C-21 1.7 -21 1.3 -21 1 C-18.4 0.9 -15.8 0.9 -13.2 0.9 C-12.5 0.9 -12.5 0.9 -8.9 0.8 C-5 1 -5 1 -1 3 C-0.7 2 -0.3 1 0 0 Z " fill="#A4C3BD" transform="translate(286,276)"/>
<path d="M0 0 C6 6 4.2 22.6 4.3 31.1 C4.3 46.2 2.7 61.3 -1 76 C-16.8 76 -32.7 76 -49 76 C-45.9 72.9 -43.3 70.7 -39.8 68.3 C-28.5 60.1 -17.6 48.9 -14 35 C-13.9 33.6 -13.8 32.2 -13.7 30.7 C-12.9 25.1 -10.9 21.3 -8.1 16.4 C-7.2 14.8 -6.3 13.1 -5.4 11.5 C-5 10.8 -4.6 10 -4.2 9.2 C-2.6 6.2 -1.3 3.1 0 0 Z " fill="#EAF0EB" transform="translate(213,424)"/>
<path d="M0 0 C0.7 0.3 1.3 0.7 2 1 C-3.4 6.7 -9 11.9 -15.2 16.7 C-27.2 25.9 -27.2 25.9 -29 33 C-28.7 34.3 -28.3 35.6 -28 37 C-27.2 36.6 -26.4 36.2 -25.6 35.8 C-24.5 35.2 -23.5 34.7 -22.4 34.1 C-21.3 33.6 -20.3 33.1 -19.2 32.5 C-7.1 26.8 5.6 26.6 18.1 31.1 C18.4 31.3 18.4 31.3 20 32 C20 32.3 20 32.7 20 33 C18.4 33 16.9 32.9 15.2 32.9 C3.9 32.9 -6.9 34.9 -16.4 41.3 C-19.3 44.3 -20.6 47.1 -22 51 C-21.2 50.7 -20.5 50.3 -19.7 50 C-4.7 43.5 11.3 41.1 27 47 C30 48.5 32.8 50 35.6 51.7 C38 53 38 53 42 54 C43.3 53.3 44.6 52.7 46 52 C45.5 57.2 42.8 60.7 40 65 C39.7 64.6 39.7 64.6 38.1 62.9 C26.8 52.3 14.7 49.3 -0.7 49.7 C-9.9 50.4 -17.7 53 -26 57 C-26.5 57.2 -26.5 57.2 -29 58 C-30.9 54.2 -31.3 53 -31.2 49 C-31.2 48.2 -31.2 47.3 -31.2 46.4 C-31 44 -31 44 -30 40 C-30.7 39 -31.3 38 -32 37 C-32.8 32 -33.1 27.9 -32 23 C-31.6 19.6 -31.3 16.1 -30.9 12.7 C-30.8 11.8 -30.8 10.8 -30.7 9.9 C-30.4 7.6 -30.2 5.3 -30 3 C-29.7 3 -29.3 3 -29 3 C-28.3 7.3 -27.7 11.6 -27 16 C-22.1 13.2 -17.2 10.4 -12.4 7.4 C-11.1 6.7 -9.8 5.9 -8.5 5.1 C-7.4 4.4 -6.2 3.7 -5 3 C-3.3 2 -1.7 1 0 0 Z " fill="#223E5A" transform="translate(442,428)"/>
<path d="M0 0 C7 4.4 14.2 10.1 17 18 C-2 20.4 -20.9 21.2 -40 21 C-38.6 11.8 -33.5 2.5 -28 -5 C-18.1 -7.5 -8.8 -4.6 0 0 Z " fill="#EEA366" transform="translate(433,525)"/>
<path d="M0 0 C0.6 0 0.6 0 3.4 0.3 C3.9 0.4 3.9 0.4 6.9 0.7 C8 0.8 9.2 0.9 10.4 1 C13.3 1.3 16.2 1.6 19 1.9 C17.7 13.4 16.1 24.9 14.4 36.4 C14.2 38.2 13.9 40.1 13.6 41.9 C13.3 44.6 12.9 47.3 12.5 50.1 C12.3 51.7 12 53.2 11.8 54.9 C11 58.9 11 58.9 9 62.9 C7.4 62.5 5.7 62.2 4 61.9 C3.4 51.6 3.4 51.6 6 48.5 C6.4 48.3 6.4 48.3 8 46.9 C8.3 43.6 8.3 43.6 8 40.9 C7.3 40.6 6.6 40.3 5.9 40 C2.9 38.8 -0.1 37.6 -3.1 36.4 C-4.1 35.9 -5.1 35.5 -6.2 35.1 C-9 33.9 -9 33.9 -12 31.9 C-11 32 -10 32.1 -9 32.3 C-8.3 32.4 -8.3 32.4 -5 32.9 C-3.6 33.1 -2.2 33.3 -0.8 33.5 C3 33.9 3 33.9 7 32.9 C7.7 29.1 7.7 29.1 8 24.9 C1.5 16.2 -12 14.3 -22.3 12.6 C-25 11.9 -25 11.9 -27 8.9 C-27.1 5.7 -27.1 5.7 -27 2.9 C-26.4 2.9 -26.4 2.9 -23.6 3 C-22.2 3 -20.8 3 -19.3 3 C-17.8 3.1 -16.4 3.1 -14.9 3.1 C-11 2.9 -11 2.9 -8.6 1.3 C-5.4 -0.5 -3.6 -0.4 0 0 Z " fill="#A4C3BE" transform="translate(241.95703125,308.14453125)"/>
<path d="M0 0 C1.5 0 3 0 4.6 0 C5.4 0 5.4 0 9.4 0 C10.9 0 12.5 0 14.2 0 C18.1 0.1 22 0.1 26 0.1 C25.6 1.1 25.3 2.1 25 3.1 C24.5 3.1 24.5 3.1 22.3 3 C21.1 3 19.9 3 18.7 3 C17.6 2.9 16.4 2.9 15.2 2.9 C12 3.1 12 3.1 8 5.1 C6.7 4.8 5.3 4.4 4 4.1 C2 4 -0.1 3.9 -2.1 3.9 C-2.6 3.9 -2.6 3.9 -5.2 3.9 C-8 4.1 -8 4.1 -11 6.1 C-13.4 6.2 -15.7 6.2 -18 6.1 C-10.5 9.8 -2.3 10.4 6 11.1 C6 11.4 6 11.8 6 12.1 C1.4 12.1 -3.3 12.1 -8 12.1 C-5.5 14.6 1.2 13.6 4.5 13.7 C8 14.1 8 14.1 10 16.1 C9 17.1 9 17.1 6.5 17.2 C3.6 17.2 0.8 17.1 -2 17.1 C-2 23.7 -2 30.3 -2 37.1 C-4.4 36.9 -6.8 36.8 -9.3 36.6 C-13.2 36.3 -17.1 36.1 -21 36.1 C-21.1 35.7 -21.1 35.7 -21.2 33.9 C-21.4 30.7 -21.7 27.4 -22 24.2 C-22 23 -22.1 21.9 -22.2 20.7 C-22.3 19.6 -22.4 18.6 -22.5 17.4 C-22.6 16.4 -22.6 15.4 -22.7 14.4 C-23 12.1 -23 12.1 -24 11.1 C-24.1 9.1 -24.1 7.1 -24 5.1 C-22.5 4.4 -20.9 3.8 -19.4 3.2 C-18.5 2.8 -17.7 2.4 -16.8 2.1 C-11.2 0.1 -5.9 -0 0 0 Z " fill="#CCE3EA" transform="translate(235.0234375,260.90234375)"/>
<path d="M0 0 C3.6 0 7.3 0 11 0 C11 0.3 11 0.7 11 1 C12 1.2 12 1.2 17 2 C17 2.3 17 2.7 17 3 C15 3 13 3 11 3 C10.9 4.2 10.7 5.4 10.6 6.6 C10.4 8.2 10.2 9.7 10.1 11.3 C10 12.1 10 12.1 9.5 16 C9 20 9 20 8 23 C5.3 23.2 2.5 23.5 -0.2 23.7 C-0.9 23.8 -0.9 23.8 -4.8 24.1 C-9 24 -9 24 -14 21 C-14 14.4 -14 7.8 -14 1 C-9.4 1 -4.8 1 0 1 C0 0.7 0 0.3 0 0 Z " fill="#A5C5C0" transform="translate(247,277)"/>
<path d="M0 0 C0.7 0.3 1.3 0.7 2 1 C0.9 5 -0.7 8.1 -2.9 11.6 C-7.6 19.9 -8.5 29.6 -10 39 C-9 38.8 -9 38.8 -4 38 C-4.9 42.8 -4.9 42.8 -6 45 C-6.1 49.5 -6.1 53.6 -5 58 C-7.6 58 -10.3 58 -13 58 C-12.7 58.7 -12.3 59.3 -12 60 C-8.7 60.6 -5.5 61.1 -2.2 61.5 C8.7 62.9 8.7 62.9 13 65 C13 66 13 67 13 68 C9.6 69.1 6.7 69.3 3.1 69.6 C1.9 69.6 0.7 69.7 -0.6 69.8 C-6.4 70.1 -12.2 70 -18 70 C-15.4 53 -12.7 36 -10 19 C-11.3 18.7 -12.6 18.3 -14 18 C-13.7 17.3 -13.3 16.7 -13 16 C-11.4 16.3 -9.7 16.7 -8 17 C-7.8 16.2 -7.6 15.5 -7.4 14.7 C-5.4 9.5 -2.7 4.8 0 0 Z " fill="#564647" transform="translate(282,204)"/>
<path d="M0 0 C2.3 0 4.6 0 7 0 C5.6 11.5 4.1 23 2.4 34.5 C2.1 36.4 1.9 38.2 1.6 40.1 C1.2 42.8 0.8 45.5 0.4 48.2 C0.2 49.8 -0 51.4 -0.3 53 C-1 57 -1 57 -3 61 C-4.7 60.7 -6.3 60.3 -8 60 C-8.6 49.7 -8.6 49.7 -6 46.7 C-5.3 46.1 -4.7 45.6 -4 45 C-3.8 41.8 -3.8 41.8 -4 39 C-4.7 38.7 -5.4 38.4 -6.1 38.2 C-9.1 36.9 -12.1 35.7 -15.1 34.5 C-16.2 34.1 -17.2 33.7 -18.3 33.2 C-21 32 -21 32 -24 30 C-23 30.1 -22 30.3 -21 30.4 C-19.7 30.6 -18.4 30.8 -17 31 C-15.6 31.2 -14.2 31.4 -12.8 31.6 C-9 32 -9 32 -5 31 C-4.8 29.6 -4.6 28.2 -4.4 26.8 C-4.2 24.9 -3.9 23 -3.6 21.1 C-3.5 20.2 -3.4 19.3 -3.2 18.3 C-2.4 12.2 -1.3 6.1 0 0 Z " fill="#A49281" transform="translate(254,310)"/>
<path d="M0 0 C0.3 0 0.7 0 1 0 C1.2 16.7 1.2 16.7 0.4 22.1 C-0 26.3 0.6 29.1 2 33 C2.3 34 2.7 35 3 36 C2.7 36.7 2.3 37.3 2 38 C1.8 47.2 1.8 47.2 2.8 50.6 C3.2 54.6 0.8 57.5 -1 61 C-1.1 62.3 -1.2 63.5 -1.4 64.8 C-2.2 70.6 -5 75 -8 80 C-8.3 80 -8.7 80 -9 80 C-10 53.1 -4.6 26.4 0 0 Z " fill="#DEE6DF" transform="translate(410,434)"/>
<path d="M0 0 C2 -0 4.1 -0 6.1 -0.1 C7.3 -0.1 8.4 -0.1 9.6 -0.1 C12.8 -0 15.8 0.4 19 1 C18.7 4.3 18.3 7.6 18 11 C-12.5 9.2 -12.5 9.2 -24 6 C-24 5 -24 4 -24 3 C-22.3 3 -20.7 3 -19 3 C-19 2.7 -19 2.3 -19 2 C-15 1.1 -11.3 0.9 -7.2 0.9 C-6.7 0.9 -6.7 0.9 -3.8 1 C-2.9 1 -1.9 1 -1 1 C-0.7 1 -0.3 1 0 1 C0 0.7 0 0.3 0 0 Z " fill="#3D5B7A" transform="translate(241,263)"/>
<path d="M0 0 C3.1 2.7 4 4.6 4.5 8.7 C4.2 8.5 4.2 8.5 2.5 7.8 C-9.4 3.1 -22 3.9 -34.5 5.7 C-34.3 2.4 -34.3 2.4 -33.5 -1.3 C-24.9 -8.6 -8.2 -6.7 0 0 Z " fill="#432719" transform="translate(324.5,124.3125)"/>
<path d="M0 0 C0.4 0 0.4 0 2.7 0 C12.9 0.2 21.7 2.9 29.1 10.2 C32.6 14 35.3 17.2 36.2 22.4 C35.9 23.7 35.6 25 35.2 26.4 C34.4 25 33.6 23.7 32.8 22.3 C26.4 12.8 16.9 7.7 5.9 4.8 C2.2 4.2 -1.4 4.2 -5.1 4.2 C-6.6 4.2 -8 4.2 -9.5 4.2 C-13.4 4.4 -17 4.7 -20.8 5.4 C-14.2 0.5 -8 -0 0 0 Z " fill="#223E5A" transform="translate(433.75,492.625)"/>
<path d="M0 0 C1 -0 2 -0 3.1 -0.1 C6.5 0.4 8.3 1.1 11 3.3 C12.3 6.5 12.3 6.5 13 9.3 C11.8 9.3 10.6 9.2 9.4 9.2 C-6.3 8.9 -6.3 8.9 -14 12.3 C-15 12.6 -16 13 -17 13.3 C-16.7 9.4 -16.2 7.6 -13.8 4.6 C-9.3 1 -5.7 0 0 0 Z " fill="#422618" transform="translate(254,123.6875)"/>
<path d="M0 0 C3.9 2 5.6 3.4 8 7 C7.7 11.1 7.1 11.9 4 15 C3.9 13.6 3.8 12.2 3.7 10.7 C3 6 3 6 0 3 C-1.6 3 -3.3 3 -5 3 C-8.2 7.2 -8.6 8 -8 13 C-6.5 15.9 -6.5 15.9 -5 18 C-9.5 17.8 -11.5 17.4 -15 14.4 C-17 11 -17 11 -17.2 7.4 C-16 4 -16 4 -13.6 1.6 C-8.9 -0.5 -5 -0.8 0 0 Z " fill="#E4E9E3" transform="translate(314,142)"/>
<path d="M0 0 C2.3 0 4.6 0 7 0 C7.2 5.5 6.5 10.5 5.6 15.9 C5.3 17.4 5 18.9 4.8 20.4 C4 24 4 24 3 25 C1 25 -1 25 -3 25 C-3.2 19.1 -2.6 13.8 -1.5 8 C-1.2 6.5 -0.9 5 -0.7 3.4 C-0.4 2.3 -0.2 1.2 0 0 Z " fill="#B37E59" transform="translate(258,280)"/>
<path d="M0 0 C6.6 0 13.6 0.2 19.6 3.2 C19.6 4.2 19.6 5.2 19.6 6.2 C16.5 7.2 14.1 7.4 10.8 7.5 C9.7 7.5 8.6 7.6 7.4 7.6 C6.8 7.7 6.8 7.7 3.9 7.8 C2.7 7.8 1.5 7.8 0.3 7.9 C-2.6 8 -5.5 8.1 -8.4 8.2 C-7.4 0 -7.4 0 0 0 Z " fill="#6B8997" transform="translate(275.4375,265.8125)"/>
<path d="M0 0 C-2.4 3 -3.5 4.4 -7 6 C-11.3 5.9 -15.4 5.3 -19.7 4.6 C-25.1 3.8 -29.7 4.2 -35 5 C-30.8 -0.1 -25.5 -1.5 -19.2 -2.8 C-12.3 -3.2 -6.2 -3.1 0 0 Z " fill="#223E59" transform="translate(160,407)"/>
<path d="M0 0 C0.7 1.3 1.3 2.6 2 4 C0.3 5.3 -1.3 6.6 -3 8 C-3.7 7.6 -4.3 7.1 -5 6.7 C-11.5 3.1 -17.7 1.6 -25 0.8 C-26.5 0.7 -28 0.5 -29.6 0.3 C-30.7 0.2 -31.8 0.1 -33 0 C-25.3 -7.7 -8.5 -5 0 0 Z " fill="#233E59" transform="translate(170,392)"/>
<path d="M0 0 C0.3 0 0.7 0 1 0 C0.6 10.8 -5.2 19.1 -12.5 26.6 C-25.8 39 -42.4 44.4 -60.3 44.1 C-63.3 44 -66.1 43.6 -69 43 C-69.3 43.7 -69.7 44.3 -70 45 C-70 43.7 -70 42.4 -70 41 C-68.7 41 -67.5 41.1 -66.2 41.1 C-47.2 41.6 -30.5 38.3 -15.6 25.8 C-8 18.4 -3.6 9.8 0 0 Z " fill="#223E5A" transform="translate(366,250)"/>
<path d="M0 0 C3.4 0.3 3.4 0.3 7 1 C9.6 4.9 9.3 7.4 9 12 C7 15 7 15 4.2 16 C1 16 1 16 -1.9 13.9 C-4 11 -4 11 -4.6 8 C-3.9 4.4 -2.5 2.7 0 0 Z " fill="#4F3628" transform="translate(309,144)"/>
<path d="M0 0 C3 1.5 3 1.5 5 3 C2.3 3 -0.3 3 -3 3 C-5.3 6.5 -5.3 7.9 -5 12 C-4 14.9 -4 14.9 -3 17 C-7.1 16.8 -9.4 16.5 -12.5 13.9 C-14.5 10 -14.3 8.1 -13 4 C-9.2 -0.5 -5.7 -0.6 0 0 Z M2 4 C2.7 4.3 3.3 4.7 4 5 C4 6 4 7 4 8 C3 8 2 8 1 8 C1.3 6.7 1.7 5.4 2 4 Z " fill="#E5E9E3" transform="translate(260,145)"/>
<path d="M0 0 C1.3 4 1.5 7.9 2 12 C2.3 13.3 2.7 14.6 3 16 C-3.2 20.7 -7.2 23 -15 23 C-14.1 22.1 -13.3 21.1 -12.4 20.1 C-7.2 14.1 -3.4 7.1 0 0 Z " fill="#223E5A" transform="translate(480,426)"/>
<path d="M0 0 C5 0 5 0 7.3 1.5 C9.7 5.1 9.5 7.7 9 12 C6 15 6 15 2.8 15.2 C1.9 15.1 1 15.1 0 15 C-2.7 11.2 -3.6 8.7 -3 4 C-2 2.7 -1 1.4 0 0 Z M5 2 C4.7 3.3 4.3 4.6 4 6 C5 6 6 6 7 6 C6.7 4.7 6.3 3.4 6 2 C5.7 2 5.3 2 5 2 Z " fill="#44281A" transform="translate(257,147)"/>
<path d="M0 0 C2.3 0.7 4.6 1.3 7 2 C7.3 8.6 7.7 15.2 8 22 C5.7 21.7 3.4 21.3 1 21 C-0.3 14 -0.1 7.1 0 0 Z " fill="#A4C4BE" transform="translate(217,275)"/>
<path d="M0 0 C0 1 0 2 0 3 C-0.9 3.1 -1.9 3.1 -2.8 3.2 C-6 4 -6 4 -7.9 6.6 C-8.2 7.4 -8.6 8.2 -9 9 C-8 9.3 -7 9.7 -6 10 C-4.4 12.8 -4 14.7 -4.1 18 C-5.2 21.7 -7.1 23.5 -10 26 C-11.3 25.7 -12.6 25.3 -14 25 C-13 23.7 -12 22.4 -11 21 C-10.8 17.8 -10.8 17.8 -11 15 C-12 14.7 -13 14.3 -14 14 C-12.6 8.8 -10.3 5.2 -7 1 C-5 0 -5 0 0 0 Z " fill="#9C8373" transform="translate(369,147)"/>
<path d="M0 0 C2.6 0.3 5.3 0.7 8 1 C7.4 5 6.1 8 4.2 11.6 C3.7 12.5 3.2 13.4 2.7 14.4 C1 17 -0.7 18.9 -3 21 C-2.9 18.4 -2.8 15.9 -2.6 13.3 C-2.6 11.9 -2.5 10.5 -2.4 9 C-2.1 5.5 -1.5 3.1 0 0 Z " fill="#452A1C" transform="translate(348,184)"/>
<path d="M0 0 C-0.9 4.8 -0.9 4.8 -2 7 C-2.1 11.5 -2.1 15.6 -1 20 C-3.6 20 -6.3 20 -9 20 C-8.6 16.9 -8.1 13.7 -7.6 10.6 C-7.6 10.1 -7.6 10.1 -7.2 7.8 C-6.9 5.5 -6.5 3.3 -6 1 C-4 0 -4 0 0 0 Z " fill="#314B6A" transform="translate(278,242)"/>
</svg>
