<?xml version="1.0" encoding="UTF-8"?>
<!-- Generator: visioncortex VTracer 0.6.12 -->
<svg version="1.1" xmlns="http://www.w3.org/2000/svg" width="600" height="600" viewBox="0 0 600 600" role="img" aria-label="Person eating">
<path d="M0 0 C198 0 396 0 600 0 C600 198 600 396 600 600 C402 600 204 600 0 600 C0 402 0 204 0 0 Z " fill="#EDF2ED" transform="translate(0,0)"/>
<path d="M0 0 C5 3.9 8.9 9 11.4 14.9 C11.6 18.2 11.6 18.2 11.4 20.9 C12 20.9 12.7 20.9 13.4 20.9 C14.7 14.9 14.5 8.9 14.4 2.9 C17.9 5.5 19.4 6.9 21.4 10.9 C21.6 15.2 21.4 18.7 20.4 22.9 C21.4 22.5 22.4 22.2 23.4 21.9 C28.2 21.5 31.4 21.4 35.8 23.6 C38.4 25.9 38.4 25.9 40.4 29.9 C36.7 29.9 33.1 29.9 29.4 29.9 C30.9 30.6 32.4 31.3 33.9 32 C43.1 36.6 48.6 42.9 53.4 51.9 C54.5 56.3 54.4 60.3 54.4 64.9 C52.7 63.6 51.1 62.2 49.4 60.9 C49.8 62.1 50.3 63.2 50.8 64.4 C53.9 73.3 54.3 82.7 52.4 91.9 C51.4 91.9 50.4 91.9 49.4 91.9 C49.1 92.6 48.9 93.3 48.6 94.1 C46.4 100.5 43.8 105.6 39.8 111.1 C39.2 111.8 38.6 112.6 38.1 113.4 C37.5 114.2 37 114.9 36.4 115.6 C34.7 119.4 36.1 122.1 37.4 125.9 C38.2 134.9 34.9 142.8 29.4 149.9 C24 156.2 18.4 161.3 9.8 162.1 C7.7 162.1 5.5 162 3.4 161.9 C2.9 162.8 2.5 163.8 2 164.7 C1.4 166 0.8 167.2 0.2 168.5 C-0.1 169.1 -0.1 169.1 -1.6 172.2 C-3.6 175.9 -6 178.7 -8.6 181.9 C-9.4 185.2 -9.4 185.2 -9.6 187.9 C-8.5 187.6 -7.4 187.4 -6.2 187.2 C1 186.7 6.4 188.8 12.7 192.2 C19.5 195.7 26.7 197.3 34.1 199.2 C94.4 215.1 94.4 215.1 111.4 243.9 C117.9 255.6 123.8 267.6 129.7 279.6 C132.9 285.9 136.2 292.2 139.5 298.4 C142.9 304.9 146.1 311.4 149.4 317.9 C155.7 330.7 162.2 343.2 170.2 355 C174.9 362.2 177.2 369.5 179.4 377.9 C179.8 379.2 180.2 380.6 180.6 382 C184.9 398.3 186.1 416.2 177.5 431.3 C175.1 435 172.7 438 169.4 440.9 C168.4 441.8 167.5 442.7 166.6 443.7 C155.3 453.2 140.8 457.8 126.4 458.6 C123.4 458.9 123.4 458.9 119.4 460.4 C111.7 463.2 104.1 462.9 96.6 459.9 C95.2 459.2 93.8 458.6 92.4 457.9 C92.4 457.2 92.4 456.6 92.4 455.9 C93 455.7 93 455.7 96.4 455 C98.1 454.5 99.9 454.1 101.6 453.7 C102.1 453.6 102.1 453.6 104.3 453.1 C108.2 452.1 111 451.3 113.9 448.4 C118.5 440.6 118.5 431.4 116.3 422.8 C113.8 415.2 108.6 408.5 101.4 404.9 C94.5 402 90.9 403.1 84 405.8 C82.6 406.4 81.3 407 79.9 407.6 C76.4 408.9 76.4 408.9 73.4 407.9 C75.4 403.3 77.7 400.3 81.4 396.9 C84.4 392.9 84.4 392.9 84.5 389.1 C83.4 381.6 79.5 374.7 76.3 367.8 C76 367.1 76 367.1 74.3 363.5 C72.7 359.9 71 356.4 69.4 352.9 C68.2 357.4 68 361.8 67.7 366.4 C67.6 367.3 67.5 368.3 67.5 369.2 C67.3 372.2 67.1 375.2 66.9 378.1 C66.7 381.1 66.5 384 66.3 387 C66.2 388.8 66 390.7 65.9 392.5 C65.6 397.7 65.1 402.8 64.4 407.9 C61.7 404.3 59.8 400.9 57.8 396.9 C54.4 390.8 51.9 388.6 45.5 386.1 C43.4 384.9 43.4 384.9 41.6 380.5 C41.2 379 40.8 377.4 40.4 375.9 C33.3 364.4 17.8 360.1 5.4 357 C-10.4 353.4 -26.5 351.4 -42.6 349.9 C-42.2 351.6 -41.7 353.4 -41.2 355.1 C-41 356.1 -40.7 357.1 -40.5 358.1 C-39.6 360.9 -39.6 360.9 -37.6 364.9 C-36 365.3 -34.3 365.6 -32.6 365.9 C-32 366.4 -32 366.4 -28.6 368.9 C-25.3 368.6 -22.6 368.4 -19.6 366.9 C-14.6 366.5 -11.7 366.8 -7.6 369.9 C-6.6 370.9 -5.6 371.9 -4.6 372.9 C-4.6 373.5 -4.6 374.2 -4.6 374.9 C-1.7 373.8 0.2 373.1 2.4 370.9 C4.4 370.9 6.4 370.9 8.4 370.9 C9.7 370.2 11 369.6 12.4 368.9 C16.9 369.2 18 369.5 21.4 372.9 C21.4 373.5 21.4 374.2 21.4 374.9 C22.3 375 23.2 375.1 24.2 375.2 C27.4 375.9 27.4 375.9 30.4 378.9 C30.1 381.6 29.8 384.2 29.4 386.9 C29.7 387.2 30 387.5 30.4 387.9 C30.4 389.5 30.4 391.2 30.4 392.9 C6.4 407.9 -25.2 409.6 -52.7 409.3 C-56.4 409.3 -60 409.3 -63.7 409.3 C-91.3 409.3 -118.6 406.2 -143.6 393.9 C-143.9 388.2 -143.9 388.2 -141.6 385.1 C-138.6 382.9 -138.6 382.9 -135.1 381.9 C-130.7 380.6 -129.8 378.7 -127.6 374.9 C-123.8 373 -119.5 373.7 -115.4 374.6 C-114.5 374.7 -113.6 374.8 -112.6 374.9 C-112 374.3 -111.4 373.6 -110.8 373 C-107.5 369.8 -104.1 370.2 -99.6 369.9 C-95.6 367.9 -95.6 367.9 -92.6 365.9 C-83.5 365.4 -83.5 365.4 -78.6 367.9 C-78.8 367.4 -78.8 367.4 -79.5 365.2 C-79.9 364 -80.2 362.8 -80.6 361.6 C-81 360.5 -81.4 359.3 -81.8 358.1 C-82.6 354.9 -82.6 354.9 -82.6 350.9 C-141.4 358 -141.4 358 -155.2 373.8 C-160.8 385.8 -154.8 399.8 -150.7 411.5 C-147.8 419.4 -143.8 426.6 -139.6 433.9 C-139.3 434.5 -139 435.2 -138.6 435.9 C-146.5 435.9 -154.5 435.9 -162.6 435.9 C-162.6 433.7 -162.5 431.5 -162.4 429.3 C-161.6 404.8 -161.5 380.4 -161.6 355.9 C-163.6 359.2 -165.6 362.5 -167.6 365.9 C-167.9 366.4 -167.9 366.4 -169.4 368.9 C-172 373.4 -174.6 377.8 -177.1 382.4 C-189.3 404.9 -207.2 427.2 -232.2 435.8 C-241.9 438.2 -250.7 437.2 -259.6 432.9 C-271.7 424.5 -278.4 411.3 -281.2 397.1 C-284.1 376.6 -282.8 355.1 -270.6 337.9 C-268.6 335.3 -266.5 332.7 -264.4 330.2 C-262.6 327.9 -262.6 327.9 -260.5 323.6 C-258.4 319.5 -256.4 317.5 -252.6 314.9 C-252 314.9 -251.3 314.9 -250.6 314.9 C-250.4 314 -250.1 313.1 -249.8 312.2 C-248.7 309 -247.4 306.3 -245.8 303.3 C-245.2 302.3 -244.6 301.2 -244 300.1 C-243.7 299.6 -243.7 299.6 -242.2 296.8 C-241.6 295.6 -240.9 294.5 -240.3 293.3 C-238.4 289.8 -236.5 286.3 -234.6 282.9 C-234.1 281.8 -233.5 280.8 -232.9 279.7 C-229.8 274.1 -226.7 268.5 -223.6 262.9 C-223 262.9 -222.3 262.9 -221.6 262.9 C-219.5 269.3 -222.4 274.4 -224.9 280.2 C-225.3 281.3 -225.8 282.4 -226.2 283.6 C-228.6 289.3 -231.1 294.9 -233.8 300.5 C-234.3 301.6 -234.8 302.6 -235.4 303.7 C-236.3 305.7 -237.4 307.7 -238.4 309.7 C-241.8 316.7 -242 320.5 -239.6 327.9 C-236 335.8 -229.7 341.7 -221.8 345.2 C-214.4 347.9 -207.9 347.4 -200.6 344.9 C-198.5 338.7 -196.7 332.5 -195 326.2 C-194.6 324.4 -194.1 322.6 -193.6 320.8 C-192.9 318 -192.1 315.2 -191.4 312.4 C-190.7 309.6 -189.9 306.9 -189.2 304.1 C-189 303.3 -188.8 302.4 -188.6 301.6 C-186.8 295 -184.6 289.8 -180.1 284.6 C-174.3 277.2 -173.6 270 -172.9 260.9 C-172 252.1 -169.7 248.1 -163.6 241.9 C-154.8 231.4 -154.8 231.4 -154.2 225.4 C-154.4 224.2 -154.5 223.1 -154.6 221.9 C-153.6 220.6 -152.6 219.2 -151.6 217.9 C-151.6 216.2 -151.6 214.6 -151.6 212.9 C-152.6 212.2 -153.6 211.6 -154.6 210.9 C-154.5 209.6 -154.5 209.6 -153.6 202.9 C-152 202.5 -150.3 202.2 -148.6 201.9 C-151.9 201.7 -151.9 201.7 -168.6 200.9 C-165.6 198.9 -165.6 198.9 -163 197.9 C-162.2 197.6 -161.4 197.2 -160.6 196.9 C-160.3 195.9 -160 194.9 -159.6 193.9 C-159 193.9 -159 193.9 -156 193.9 C-151.4 193.8 -146.9 193.8 -142.3 193.7 C-140.4 193.7 -138.4 193.7 -136.5 193.7 C-125.3 193.6 -115.7 193.3 -105.6 187.9 C-100.3 185.6 -96.4 185.7 -90.6 185.9 C-91.1 180.2 -92.7 176.5 -95.5 171.6 C-100.4 162.8 -102.7 154.9 -103.6 144.9 C-104.6 144.7 -105.6 144.5 -106.7 144.3 C-114.1 141.6 -118.1 135.9 -121.6 129.1 C-125.1 121.3 -125.8 113.6 -123.2 105.4 C-121.6 101.9 -121.6 101.9 -119.6 99.9 C-120.6 95.2 -121.6 90.9 -123.2 86.4 C-124.8 81.2 -124.9 77.3 -124.6 71.9 C-125.3 72.2 -125.3 72.2 -128.6 73.9 C-129.4 61.8 -127.7 54.4 -119.8 45.2 C-118.8 44.1 -117.7 43 -116.6 41.9 C-117.1 42.1 -117.1 42.1 -119.4 43.2 C-121.8 44.5 -124.2 45.7 -126.6 46.9 C-125.9 40.6 -122.7 36.9 -118.2 32.7 C-115.1 30.2 -112.3 28.5 -108.6 26.9 C-109 26.4 -109 26.4 -111.1 24 C-114.2 18.9 -114.4 15.8 -114.6 9.9 C-114.3 10.1 -114.3 10.1 -112.8 11 C-112.4 11.2 -112.4 11.2 -110.2 12.4 C-109.4 12.8 -108.6 13.3 -107.8 13.8 C-98.2 17.1 -90.7 13.8 -82 9.9 C-80.9 9.4 -79.8 8.9 -78.7 8.4 C-76 7.3 -73.3 6.1 -70.6 4.9 C-74.3 4.8 -77 5 -80.6 5.9 C-77.4 0.8 -73.4 -1.6 -67.6 -3.1 C-61.4 -3.6 -55.3 -3.5 -49.1 -3.4 C-47.4 -3.4 -45.7 -3.3 -44 -3.3 C-39.9 -3.3 -35.7 -3.2 -31.6 -3.1 C-34.9 -4.1 -38.2 -5.1 -41.6 -6.1 C-41.6 -6.5 -41.6 -6.8 -41.6 -7.1 C-27.5 -10.3 -12.2 -7.7 0 0 Z " fill="#F6B16E" transform="translate(349.625,49.125)"/>
<path d="M0 0 C25.1 0.6 59.7 3 79.5 20.2 C83.8 24.9 86 28.5 86 35 C86.7 35.1 87.4 35.2 88.1 35.2 C93.6 36.7 96.5 39.2 99.6 43.9 C100.3 45.3 101.1 46.8 101.9 48.2 C102.7 49.7 103.4 51.1 104.2 52.6 C104.8 53.7 105.4 54.9 106 56 C107 50.8 107.4 45.6 107.7 40.3 C107.8 39.3 107.8 38.4 107.9 37.4 C108.1 34.5 108.3 31.5 108.5 28.6 C108.7 25.6 108.9 22.7 109.1 19.7 C109.2 17.9 109.3 16 109.5 14.2 C109.8 9.4 110.3 4.7 111 0 C114.8 5.6 117.3 12 120.1 18.1 C120.7 19.5 121.4 20.9 122 22.3 C128.1 35.6 128.1 35.6 128 43 C126.4 45.8 126.4 45.8 124 48 C120.6 51.2 118.4 53.5 117 58 C121.6 57 125.7 55.7 129.9 53.8 C135.3 51.6 138.6 51.9 144 54 C152.4 59.1 158 65.7 160.5 75.3 C162 83.5 161.3 90.4 158 98 C154.8 102.1 151.5 103 146.5 104.2 C145.8 104.4 145.8 104.4 142.5 105.3 C139 106 139 106 135 106 C135 106.7 135 107.3 135 108 C146 112 155 112.3 166 108 C168 107.8 170 107.7 172.1 107.6 C182.6 107 191.8 103.4 200.8 98 C206.1 95 206.1 95 210 95.2 C213.5 96.2 216.4 97.4 219 100 C222 100.3 222 100.3 226 100.3 C227.5 100.3 229 100.4 230.6 100.4 C232.2 100.4 233.7 100.4 235.4 100.4 C236.8 100.4 238.3 100.4 239.8 100.5 C245.2 100.5 250.7 100.6 256.1 100.6 C268.3 100.7 280.5 100.9 293 101 C293 134 293 167 293 201 C95 201 -103 201 -307 201 C-307 168 -307 135 -307 101 C-270.5 100.8 -270.5 100.8 -86 100 C-86 99 -86 98 -86 97 C-85 98 -84 99 -83 100 C-79.8 100.4 -76.8 100.6 -73.6 100.7 C-72.7 100.7 -71.7 100.7 -70.8 100.8 C-67.8 100.9 -64.9 100.9 -62 101 C-61.6 101 -61.6 101 -59.4 101.1 C-53.4 101.2 -47.4 101.2 -41.3 101.3 C-40.4 101.3 -39.5 101.3 -38.6 101.3 C-33.7 101.3 -28.9 101.3 -24 101.4 C-20 101.4 -16 101.4 -12 101.4 C-7.2 101.5 -2.3 101.5 2.6 101.5 C4.4 101.5 6.2 101.5 8.1 101.6 C10.6 101.6 13.2 101.6 15.8 101.6 C16.5 101.6 16.5 101.6 20.2 101.6 C24.8 100.9 26.6 99.2 30 96 C32.3 94.9 34.6 93.9 37 93 C37 92.4 37 92.4 36.9 89.1 C37 85 37 85 38 83 C31.7 83.3 25.5 83.7 19 84 C18.7 81 18.3 78.1 18 75 C17.9 76.5 17.7 77.9 17.6 79.4 C17 84 17 84 16 85 C9.1 86.4 2 86.1 -5 86 C-5.3 83 -5.7 80.1 -6 77 C-6.1 78.3 -6.3 79.6 -6.4 80.9 C-7 85 -7 85 -8 86 C-11.7 86.1 -15.4 86.1 -19.1 86.1 C-20.1 86.1 -21.2 86.1 -22.2 86 C-24.8 86 -27.4 86 -30 86 C-31 82.9 -31.1 80.6 -31.1 77.3 C-31.1 76.3 -31 75.3 -31 74.3 C-31 73.5 -31 72.8 -31 72 C-31.7 72 -32.3 72 -33 72 C-33 76.3 -33 80.6 -33 85 C-36.3 84.9 -39.6 84.7 -42.9 84.6 C-43.8 84.5 -44.7 84.5 -45.7 84.4 C-52.8 84.1 -52.8 84.1 -55 83 C-55.3 80.4 -55.7 77.7 -56 75 C-56.3 77.6 -56.7 80.3 -57 83 C-64.1 82 -70.4 80.7 -77 78 C-77.8 77.9 -78.5 77.7 -79.3 77.6 C-82.6 76.9 -85.6 75.8 -88.7 74.6 C-89.8 74.2 -91 73.8 -92.1 73.4 C-95 72 -95 72 -97 69 C-97.3 69.2 -97.3 69.2 -99 70 C-104.5 67.5 -107.2 65.7 -109.9 60.2 C-113.6 49.3 -118 36.7 -114.6 25.4 C-100.5 7.2 -72 4 -50.8 1.3 C-47.2 0.9 -43.6 0.9 -40 1 C-39.3 2.9 -38.7 4.8 -38 6.7 C-37.6 7.7 -37.3 8.8 -36.9 9.9 C-36 13 -36 13 -36 18 C-37.3 17.7 -38.6 17.3 -40 17 C-47 16.6 -49.6 16.4 -55 21 C-57.7 21 -60.3 21 -63 21 C-65.9 22.4 -67.7 23.7 -70 26 C-73.3 25.8 -76.5 25.4 -79.8 24.9 C-83 25 -83 25 -85.3 26.8 C-86.6 28.5 -87.8 30.2 -89 32 C-90.1 32.3 -91.2 32.6 -92.4 32.9 C-96.2 34.1 -97.7 34.8 -100 38 C-100.8 41.3 -100.8 41.3 -101 44 C-100.1 44.3 -99.3 44.6 -98.4 44.9 C-96.3 45.6 -94.2 46.3 -92.2 47.1 C-84.8 50 -77.3 52 -69.6 53.7 C-68.7 53.9 -67.8 54.1 -66.9 54.3 C-50.6 57.8 -34.5 58.4 -17.9 58.4 C-14.2 58.4 -10.5 58.4 -6.8 58.4 C14.1 58.5 35.1 56.9 55 50 C56 49.7 57 49.3 58.1 49 C61.8 47.7 65.3 46.4 68.7 44.4 C71 43 71 43 73 43 C72.6 42 72.3 41 71.9 39.9 C71 35.8 71.2 33.1 72 29 C68 26 68 26 64 25 C63.6 24.6 63.6 24.6 61.6 22.4 C59 20 59 20 55.9 20.1 C53.9 20.7 52 21.3 50 22 C48.4 22 46.7 22 45 22 C44 23 43 24 42 25 C40.7 25 39.4 25 38 25 C36.3 23 34.6 21 33 19 C27.7 17.2 24 17.5 19 20 C13.5 20 12.3 19.1 8 16 C7 15.7 6 15.3 5 15 C1.5 10 0.6 6 0 0 Z " fill="#D5E3D6" transform="translate(307,399)"/>
<path d="M0 0 C7.9 3.7 15.7 6 24.2 8.2 C54.6 16.1 84.2 24 101.2 52.7 C107.7 64.4 113.6 76.5 119.5 88.4 C122.7 94.8 126 101 129.3 107.3 C132.7 113.7 135.9 120.2 139.2 126.8 C145.5 139.5 152 152.1 160 163.8 C164.7 171.1 167 178.4 169.2 186.7 C169.6 188.1 170 189.4 170.4 190.8 C174.7 207.1 175.9 225.1 167.3 240.2 C164.9 243.8 162.5 246.8 159.2 249.7 C158.3 250.6 157.3 251.6 156.4 252.5 C145.1 262.1 130.7 266.6 116.2 267.4 C113.2 267.7 113.2 267.7 109.2 269.3 C101.6 272 93.9 271.7 86.4 268.7 C85 268.1 83.6 267.4 82.2 266.7 C82.2 266.1 82.2 265.4 82.2 264.7 C83.5 264.4 84.8 264.1 86.2 263.8 C87.9 263.4 89.7 263 91.4 262.5 C92.3 262.3 93.2 262.1 94.1 261.9 C98 260.9 100.8 260.1 103.7 257.2 C108.3 249.4 108.3 240.2 106.1 231.6 C103.6 224 98.4 217.3 91.2 213.7 C84.3 210.8 80.7 212 73.8 214.7 C72.4 215.2 71.1 215.8 69.7 216.4 C66.2 217.7 66.2 217.7 63.2 216.7 C65.2 212.1 67.5 209.2 71.2 205.7 C74.2 201.7 74.2 201.7 74.3 198 C73.2 190.4 69.3 183.5 66.1 176.7 C65.5 175.2 64.8 173.8 64.1 172.3 C62.5 168.8 60.8 165.2 59.2 161.7 C58.1 166.2 57.8 170.6 57.5 175.2 C57.4 176.2 57.3 177.1 57.3 178 C57.1 181 56.9 184 56.7 187 C56.5 189.9 56.3 192.9 56.1 195.8 C56 197.7 55.8 199.5 55.7 201.4 C55.4 206.5 54.9 211.6 54.2 216.7 C51.5 213.1 49.7 209.8 47.6 205.8 C44.2 199.7 41.7 197.4 35.3 194.9 C33.2 193.7 33.2 193.7 31.4 189.3 C31 187.8 30.6 186.3 30.2 184.7 C23.1 173.2 7.6 169 -4.8 165.8 C-20.6 162.2 -36.7 160.3 -52.8 158.7 C-52.7 158 -52.5 157.2 -52.3 156.4 C-51.3 150.9 -51.6 147 -53.8 141.9 C-56.4 135.8 -57 130.2 -54.8 123.8 C-52.2 115.7 -54 108.5 -56.8 100.7 C-58.2 93.7 -57.3 87.7 -56.3 80.8 C-55.1 70.6 -55.3 60.7 -57.8 50.7 C-56.4 50.5 -55 50.2 -53.5 50 C-38.4 46.9 -26.1 40.2 -16.8 27.7 C-12.6 20.9 -9.8 13.8 -9.8 5.7 C-13.5 4.1 -17.1 2.4 -20.8 0.7 C-20.8 -0.6 -20.8 -1.9 -20.8 -3.3 C-13 -5.6 -7 -3.5 0 0 Z " fill="#538A8A" transform="translate(359.8203125,240.28515625)"/>
<path d="M0 0 C0.3 0.2 0.3 0.2 2 1 C2 2 2 3 2 4 C0 5 -2 6 -4 7 C1.3 7.3 6.6 7.7 12 8 C12 9 12 10 12 11 C15.3 11.3 18.6 11.7 22 12 C22.3 11 22.7 10 23 9 C23 10 23 11 23 12 C24.3 11.7 25.6 11.3 27 11 C27 12.7 27 14.3 27 16 C22.3 16.5 17.5 17 12.8 17.5 C11.5 17.6 10.1 17.8 8.7 17.9 C7.5 18.1 6.2 18.2 4.8 18.3 C3.6 18.5 2.5 18.6 1.2 18.7 C-2 19 -2 19 -7 19 C3.2 41.1 3.2 41.1 11 45 C11 46.6 10.9 48.2 10.9 49.9 C10.9 53.8 11.2 57.2 12.1 61 C13.7 68.3 12.7 75.1 10.4 82.1 C8.2 89.3 8.5 95 11.1 102.1 C13.4 108.5 13.4 113 10.4 119.3 C8.2 124.9 7.8 130.7 9.9 136.5 C10.9 138.7 11.9 140.8 13 143 C14.3 148.6 13.7 152.1 11.6 157.4 C11.2 158.6 10.7 159.8 10.2 161.1 C9 164 9 164 8 165 C6.1 165.3 4.2 165.6 2.2 165.8 C-51.1 172.5 -51.1 172.5 -64.6 187.9 C-70.2 199.9 -64.2 213.9 -60.1 225.6 C-57.2 233.5 -53.2 240.7 -49 248 C-48.7 248.7 -48.3 249.3 -48 250 C-55.9 250 -63.8 250 -72 250 C-71.9 247.8 -71.9 245.7 -71.8 243.4 C-71 218.9 -70.9 194.5 -71 170 C-73 173.3 -75 176.7 -76.9 180 C-77.5 181 -78.1 182 -78.7 183 C-81.4 187.5 -84 192 -86.5 196.5 C-98.6 219 -116.6 241.4 -141.6 249.9 C-151.2 252.3 -160.1 251.3 -169 247 C-181.1 238.6 -187.8 225.5 -190.5 211.2 C-193.5 190.8 -192.1 169.2 -180 152 C-178 149.4 -175.9 146.8 -173.8 144.3 C-172 142 -172 142 -169.9 137.7 C-167.8 133.6 -165.7 131.6 -162 129 C-161.3 129 -160.7 129 -160 129 C-159.7 128.1 -159.5 127.2 -159.2 126.3 C-158.1 123.2 -156.7 120.4 -155.1 117.4 C-154.6 116.4 -154 115.3 -153.4 114.2 C-152.8 113.1 -152.2 112 -151.6 110.9 C-150.9 109.7 -150.3 108.6 -149.7 107.4 C-147.8 103.9 -145.9 100.5 -144 97 C-143.4 96 -142.9 94.9 -142.3 93.8 C-139.2 88.2 -136.1 82.6 -133 77 C-132.3 77 -131.7 77 -131 77 C-128.9 83.4 -131.8 88.5 -134.2 94.4 C-134.7 95.5 -135.1 96.6 -135.6 97.7 C-138 103.4 -140.5 109.1 -143.2 114.6 C-143.7 115.7 -144.2 116.7 -144.7 117.8 C-145.7 119.9 -146.7 121.9 -147.8 123.9 C-151.2 130.8 -151.4 134.6 -149 142 C-145.3 149.9 -139.1 155.8 -131.1 159.4 C-123.8 162 -117.3 161.5 -110 159 C-107.9 152.8 -106 146.7 -104.4 140.4 C-103.9 138.6 -103.5 136.7 -103 134.9 C-102.2 132.1 -101.5 129.3 -100.8 126.5 C-100 123.7 -99.3 121 -98.6 118.2 C-98.5 117.8 -98.5 117.8 -97.9 115.7 C-96.2 109.1 -94 103.9 -89.5 98.8 C-83.7 91.3 -83 84.2 -82.3 75 C-81.4 66.2 -79.1 62.2 -73 56 C-64.1 45.5 -64.1 45.5 -63.6 39.5 C-63.7 38.3 -63.9 37.2 -64 36 C-63 34.7 -62 33.4 -61 32 C-61 30.4 -61 28.7 -61 27 C-62 26.3 -63 25.7 -64 25 C-63.7 22.4 -63.3 19.7 -63 17 C-61.3 16.7 -59.7 16.3 -58 16 C-64.6 15.7 -71.2 15.3 -78 15 C-75 13 -75 13 -72.4 12.1 C-71.6 11.7 -70.8 11.4 -70 11 C-69.7 10 -69.3 9 -69 8 C-67.8 8 -66.6 8 -65.3 8 C-60.8 8 -56.3 7.9 -51.7 7.8 C-49.8 7.8 -47.8 7.8 -45.8 7.8 C-34.7 7.8 -25.1 7.4 -15 2 C-9.7 -0.3 -5.8 -0.2 0 0 Z " fill="#4D8482" transform="translate(259,235)"/>
<path d="M0 0 C25.1 0.6 59.7 3 79.5 20.2 C83.8 24.9 86 28.5 86 35 C86.7 35.1 87.4 35.2 88.1 35.2 C93.6 36.7 96.5 39.2 99.6 43.9 C100.3 45.3 101.1 46.8 101.9 48.2 C102.7 49.7 103.4 51.1 104.2 52.6 C104.8 53.7 105.4 54.9 106 56 C107 50.8 107.4 45.6 107.7 40.3 C107.8 39.3 107.8 38.4 107.9 37.4 C108.1 34.5 108.3 31.5 108.5 28.6 C108.7 25.6 108.9 22.7 109.1 19.7 C109.2 17.9 109.3 16 109.5 14.2 C109.8 9.4 110.3 4.7 111 0 C114.8 5.6 117.3 12 120.1 18.1 C120.7 19.5 121.4 20.9 122 22.3 C128.1 35.6 128.1 35.6 128 43 C126.4 45.8 126.4 45.8 124 48 C120.6 51.2 118.4 53.5 117 58 C121.6 57 125.7 55.7 129.9 53.8 C135.3 51.6 138.6 51.9 144 54 C152.4 59.1 158 65.7 160.5 75.3 C162 83.5 161.3 90.4 158 98 C154.8 102.1 151.5 103 146.5 104.2 C145.8 104.4 145.8 104.4 142.5 105.3 C139 106 139 106 135 106 C135 106.7 135 107.3 135 108 C146 112 155 112.3 166 108 C168 107.8 170 107.7 172.1 107.6 C182.6 107 191.8 103.4 200.8 98 C205.2 95.5 207.7 94.5 212.7 95.8 C217 98 217 98 219 102 C199.4 118.6 165.2 118.8 140.7 119.6 C133.4 119.9 126.4 120.9 119.2 122.4 C116 123 116 123 113 123 C113 123.7 113 124.3 113 125 C113.9 125.3 114.9 125.6 115.9 125.9 C119 127 119 127 121 129 C121.1 132.1 121.1 132.1 121 135 C101.7 149 72 149.9 49 152 C48.4 152.1 48.4 152.1 45.4 152.3 C-101.4 164.7 -101.4 164.7 -141 135 C-141.3 133.7 -141.7 132.4 -142 131 C-135.8 123.7 -127.2 121.4 -118.1 119.5 C-117.2 119.3 -116.2 119.1 -115.2 118.9 C-100.3 115.8 -85.1 114.5 -70 113 C-71.3 111.7 -72.6 110.4 -74 109 C-70.4 110.3 -67.2 112 -63.9 114 C-61 115.8 -58.1 117.4 -55 119 C-54.7 119.7 -54.3 120.3 -54 121 C-29.9 130.5 -3.3 130.8 21 122 C24 121 24 121 26 121 C25.7 120 25.3 119 25 118 C25.7 118 26.3 118 27 118 C27.1 117.5 27.1 117.5 27.4 115.1 C28 112 28 112 30 110 C29.3 109.5 28.6 109 27.9 108.4 C26 106 26 106 26.1 102.4 C27 99 27 99 30 96 C32.3 94.9 34.6 93.9 37 93 C37 92.4 37 92.4 36.9 89.1 C37 85 37 85 38 83 C31.7 83.3 25.5 83.7 19 84 C18.7 81 18.3 78.1 18 75 C17.9 76.5 17.7 77.9 17.6 79.4 C17 84 17 84 16 85 C9.1 86.4 2 86.1 -5 86 C-5.3 83 -5.7 80.1 -6 77 C-6.1 78.3 -6.3 79.6 -6.4 80.9 C-7 85 -7 85 -8 86 C-11.7 86.1 -15.4 86.1 -19.1 86.1 C-20.1 86.1 -21.2 86.1 -22.2 86 C-24.8 86 -27.4 86 -30 86 C-31 82.9 -31.1 80.6 -31.1 77.3 C-31.1 76.3 -31 75.3 -31 74.3 C-31 73.5 -31 72.8 -31 72 C-31.7 72 -32.3 72 -33 72 C-33 76.3 -33 80.6 -33 85 C-36.3 84.9 -39.6 84.7 -42.9 84.6 C-43.8 84.5 -44.7 84.5 -45.7 84.4 C-52.8 84.1 -52.8 84.1 -55 83 C-55.2 81.7 -55.2 81.7 -56 75 C-56.3 77.6 -56.7 80.3 -57 83 C-64.1 82 -70.4 80.7 -77 78 C-77.4 77.9 -77.4 77.9 -79.3 77.6 C-82.6 76.9 -85.6 75.8 -88.7 74.6 C-89.8 74.2 -91 73.8 -92.1 73.4 C-95 72 -95 72 -97 69 C-97.3 69.2 -97.3 69.2 -99 70 C-104.5 67.5 -107.2 65.7 -109.9 60.2 C-113.6 49.3 -118 36.7 -114.6 25.4 C-100.5 7.2 -72 4 -50.8 1.3 C-47.2 0.9 -43.6 0.9 -40 1 C-39.3 2.9 -38.7 4.8 -38 6.7 C-37.6 7.7 -37.3 8.8 -36.9 9.9 C-36 13 -36 13 -36 18 C-37.3 17.7 -38.6 17.3 -40 17 C-47 16.6 -49.6 16.4 -55 21 C-57.7 21 -60.3 21 -63 21 C-65.9 22.4 -67.7 23.7 -70 26 C-73.3 25.8 -76.5 25.4 -79.8 24.9 C-83 25 -83 25 -85.3 26.8 C-86.6 28.5 -87.8 30.2 -89 32 C-90.1 32.3 -91.2 32.6 -92.4 32.9 C-96.2 34.1 -97.7 34.8 -100 38 C-100.8 41.2 -100.8 41.2 -101 44 C-100.6 44.1 -100.6 44.1 -98.4 44.9 C-96.3 45.6 -94.2 46.3 -92.2 47.1 C-84.8 50 -77.3 52 -69.6 53.7 C-68.7 53.9 -67.8 54.1 -66.9 54.3 C-50.6 57.8 -34.5 58.4 -17.9 58.4 C-14.2 58.4 -10.5 58.4 -6.8 58.4 C14.1 58.5 35.1 56.9 55 50 C56 49.7 57 49.3 58.1 49 C61.8 47.7 65.3 46.4 68.7 44.4 C71 43 71 43 73 43 C72.6 42 72.3 41 71.9 39.9 C71 35.8 71.2 33.1 72 29 C68 26 68 26 64 25 C63.6 24.6 63.6 24.6 61.6 22.4 C59 20 59 20 55.9 20.1 C53.9 20.7 52 21.3 50 22 C48.4 22 46.7 22 45 22 C44 23 43 24 42 25 C40.7 25 39.4 25 38 25 C36.3 23 34.6 21 33 19 C27.7 17.2 24 17.5 19 20 C13.5 20 12.3 19.1 8 16 C7 15.7 6 15.3 5 15 C1.5 10 0.6 6 0 0 Z " fill="#FBB674" transform="translate(307,399)"/>
<path d="M0 0 C5 3.9 8.9 9 11.4 14.9 C11.6 18.2 11.6 18.2 11.4 20.9 C12 20.9 12.7 20.9 13.4 20.9 C14.7 14.9 14.5 8.9 14.4 2.9 C17.9 5.5 19.4 6.9 21.4 10.9 C21.6 15.2 21.4 18.7 20.4 22.9 C21.4 22.5 22.4 22.2 23.4 21.9 C28.2 21.5 31.4 21.4 35.8 23.6 C38.4 25.9 38.4 25.9 40.4 29.9 C36.7 29.9 33.1 29.9 29.4 29.9 C30.9 30.6 32.4 31.3 33.9 32 C43.1 36.6 48.6 42.9 53.4 51.9 C54.5 56.3 54.4 60.3 54.4 64.9 C52.7 63.6 51.1 62.2 49.4 60.9 C49.8 62.1 50.3 63.2 50.8 64.4 C53.9 73.3 54.3 82.7 52.4 91.9 C51.4 91.9 50.4 91.9 49.4 91.9 C49.3 92.2 49.3 92.2 48.6 94.1 C46.7 99.6 44.8 104.2 41.4 108.9 C40.1 110.8 38.9 112.8 37.6 114.8 C37.3 115.2 37.3 115.2 35.8 117.7 C35.3 118.4 34.8 119.1 34.4 119.9 C33.2 119.8 31.9 119.7 30.7 119.6 C25.8 119.9 24.8 120.5 21.4 123.9 C19.9 126 18.6 128.2 17.3 130.4 C14.8 134.8 13.4 136.8 9.4 139.9 C9.7 138.3 10 136.7 10.2 135.1 C10.6 133 11 131 11.4 128.9 C11.6 127.8 11.8 126.8 12 125.8 C13.8 115.7 13.7 109.4 9.4 99.9 C8.6 95.3 8.6 95.3 8.4 91.9 C7.7 92.4 7.7 92.4 4.4 94.9 C3.7 94.9 3.1 94.9 2.4 94.9 C2.6 94.3 2.6 94.3 3.9 91.1 C5.8 85.4 6 79.8 5.4 73.9 C2.9 68.9 1.5 68.7 -3.6 66.9 C-6.9 66.1 -10.3 65.5 -13.6 64.9 C-13.6 64.5 -13.6 64.2 -13.6 63.9 C-15.6 63.5 -17.6 63.2 -19.6 62.9 C-19.6 62.2 -19.6 61.6 -19.6 60.9 C-20.9 61.2 -22.3 61.5 -23.6 61.9 C-24.3 61.5 -24.3 61.5 -27.6 59.9 C-30.1 59.6 -30.1 59.6 -32.6 59.6 C-33.5 59.6 -34.3 59.6 -35.2 59.6 C-37.6 59.9 -37.6 59.9 -41.6 61.9 C-44.2 66.2 -45.9 70.7 -47.5 75.4 C-49.3 80.7 -51.8 83.9 -55.6 87.9 C-56.1 87.7 -56.1 87.7 -58.6 86.9 C-58.3 86.2 -58.3 86.2 -56.6 82.9 C-56.6 81.6 -56.6 80.2 -56.6 78.9 C-57.8 79.8 -59.1 80.8 -60.3 81.8 C-65.5 85.6 -69.1 87.2 -75.6 86.9 C-74.8 85.8 -74.1 84.8 -73.2 83.8 C-70.9 80.3 -69.8 77.8 -68.6 73.9 C-69.2 74.5 -69.7 75.1 -70.3 75.7 C-75.8 81.4 -80.8 86.5 -89.1 87.1 C-89.9 87 -90.8 87 -91.6 86.9 C-91.5 86.4 -91.5 86.4 -90.6 83.9 C-91.9 83.9 -93.3 83.9 -94.6 83.9 C-95.1 85.2 -95.5 86.6 -95.9 87.9 C-96.8 90.7 -97.8 93.3 -99.1 95.9 C-101.2 101.3 -101.7 106.6 -102.3 112.3 C-102.4 113.4 -102.6 114.5 -102.7 115.7 C-103 118.4 -103.3 121.1 -103.6 123.9 C-104.3 123.5 -104.9 123.2 -105.6 122.9 C-106.5 119.8 -107.4 116.7 -108.1 113.5 C-110.4 104.3 -110.4 104.3 -112.6 100.9 C-115.8 100.2 -115.8 100.2 -118.6 99.9 C-119.4 97.8 -120.3 95.8 -121.1 93.7 C-121.5 92.5 -122 91.4 -122.4 90.2 C-124.7 83.9 -124.7 78.5 -124.6 71.9 C-125.3 72.2 -125.3 72.2 -128.6 73.9 C-129.4 61.8 -127.7 54.4 -119.8 45.2 C-118.8 44.1 -117.7 43 -116.6 41.9 C-117.1 42.1 -117.1 42.1 -119.4 43.2 C-121.8 44.5 -124.2 45.7 -126.6 46.9 C-125.9 40.6 -122.7 36.9 -118.2 32.7 C-115.1 30.2 -112.3 28.5 -108.6 26.9 C-109.4 25.9 -110.2 25 -111.1 24 C-114.2 18.9 -114.4 15.8 -114.6 9.9 C-114 10.2 -113.4 10.6 -112.8 11 C-112.4 11.2 -112.4 11.2 -110.2 12.4 C-109.4 12.8 -108.6 13.3 -107.8 13.8 C-98.2 17.1 -90.7 13.8 -82 9.9 C-80.9 9.4 -79.8 8.9 -78.7 8.4 C-76 7.3 -73.3 6.1 -70.6 4.9 C-74.3 4.8 -77 5 -80.6 5.9 C-77.4 0.8 -73.4 -1.6 -67.6 -3.1 C-61.4 -3.6 -55.3 -3.5 -49.1 -3.4 C-47.4 -3.4 -45.7 -3.3 -44 -3.3 C-39.9 -3.3 -35.7 -3.2 -31.6 -3.1 C-34.9 -4.1 -38.2 -5.1 -41.6 -6.1 C-41.6 -6.5 -41.6 -6.8 -41.6 -7.1 C-27.5 -10.3 -12.2 -7.7 0 0 Z " fill="#34362C" transform="translate(349.625,49.125)"/>
<path d="M0 0 C3.3 -0.2 3.3 -0.2 7 0 C8 1 9 2 10 3 C10 4.3 10 5.6 10 7 C10.9 6.8 11.8 6.7 12.8 6.5 C26 4.4 26 4.4 32 6 C33 7.3 34 8.6 35 10 C33.9 14.2 33.1 15.2 30 18 C29.3 18.3 28.7 18.7 28 19 C31.6 19.2 31.6 19.2 50 20 C50 20.3 50 20.7 50 21 C46.7 21.3 43.4 21.7 40 22 C40 22.9 40 23.9 40.1 24.9 C40 28 40 28 39 30 C40.3 30.7 41.6 31.3 43 32 C42.2 38.6 42.2 38.6 40 42 C40.1 43.1 40.1 44.2 40.2 45.3 C40 50 38.4 51.7 35.4 55.4 C34.5 56.5 33.6 57.7 32.7 58.8 C31.1 60.7 29.5 62.5 27.8 64.2 C22.1 70.3 22 76.5 21.4 84.7 C20.6 93.1 18.5 99.2 12.8 105.5 C8.3 111.8 6.2 119.2 4.3 126.6 C4.2 127.1 4.2 127.1 3.6 129.3 C2.9 132.1 2.2 134.9 1.4 137.7 C0.7 140.5 -0 143.3 -0.7 146.1 C-1.2 147.8 -1.6 149.6 -2.1 151.3 C-5.1 162.9 -5.1 162.9 -10.1 165.9 C-18.6 168.3 -25.4 167.1 -33 163 C-40.6 157.8 -45.5 151.2 -48.6 142.6 C-49.9 135 -45.9 128.7 -42.6 122 C-41.3 119.2 -40 116.5 -38.7 113.7 C-38 112.4 -37.4 111.1 -36.7 109.7 C-34.5 105 -32.4 100.3 -30.5 95.5 C-30 94.2 -29.4 92.9 -28.8 91.5 C-27.8 87.1 -28.5 85.2 -30 81 C-30.6 79.1 -31.1 77.3 -31.6 75.4 C-32.2 73.3 -32.8 71.2 -33.4 69.1 C-33.7 68.1 -34 67 -34.3 66 C-35.7 61.3 -37.1 56.7 -38.8 52.1 C-40.4 46.6 -39.7 44.3 -38 39 C-37.7 38.7 -37.3 38.3 -37 38 C-43.6 38 -50.2 38 -57 38 C-58 32 -58 32 -57 30 C-53.6 29.1 -50.8 28.8 -47.3 28.6 C-46.2 28.5 -45.1 28.5 -44 28.4 C-41.7 28.3 -39.3 28.1 -37 28 C-35.9 27.9 -34.8 27.9 -33.7 27.8 C-32.7 27.7 -31.7 27.7 -30.7 27.6 C-27.4 26.9 -26.1 25.5 -24 23 C-25 23 -26 23 -27 23 C-31.5 23.1 -35.9 23.1 -40.4 23.1 C-41.2 23.1 -41.2 23.1 -45.1 23.2 C-46.6 23.2 -48.1 23.2 -49.6 23.2 C-51 23.2 -52.3 23.2 -53.7 23.2 C-57 23 -57 23 -59 21 C-58.4 15.4 -58.4 15.4 -57 14 C-53.8 13.9 -50.6 13.8 -47.4 13.8 C-45.4 13.7 -43.4 13.7 -41.4 13.7 C-38.3 13.6 -35.1 13.6 -32 13.5 C-28.9 13.5 -25.9 13.4 -22.9 13.4 C-21.9 13.4 -21 13.4 -20 13.4 C-13.3 13.2 -13.3 13.2 -10 11 C-9 11 -8 11 -7 11 C-6.3 9.7 -5.7 8.4 -5 7 C-4 5.3 -3 3.7 -2 2 C-1.3 2 -0.7 2 0 2 C0 1.3 0 0.7 0 0 Z " fill="#FCB776" transform="translate(156,230)"/>
<path d="M0 0 C4 1.6 4 1.6 8 4.6 C5 10.7 0.2 12.2 -6 14.6 C-25.6 20.9 -45.2 22.8 -65.6 23.9 C-74.7 24.3 -83.3 25.2 -92.2 27 C-95 27.6 -95 27.6 -98 27.6 C-98 28.3 -98 28.9 -98 29.6 C-97.5 29.8 -97.5 29.8 -95.1 30.5 C-92 31.6 -92 31.6 -90 33.6 C-89.9 36.8 -89.9 36.8 -90 39.6 C-109.3 53.7 -139 54.6 -162 56.6 C-162.6 56.7 -162.6 56.7 -165.6 56.9 C-312.4 69.4 -312.4 69.4 -352 39.6 C-352.3 38.3 -352.7 37 -353 35.6 C-346.8 28.4 -338.2 26.1 -329.1 24.1 C-328.2 23.9 -327.2 23.7 -326.2 23.5 C-311.3 20.5 -296.1 19.2 -281 17.6 C-282.3 16.3 -283.6 15 -285 13.6 C-281.4 15 -278.2 16.6 -274.9 18.6 C-272 20.4 -269.1 22.1 -266 23.6 C-265.8 24 -265.8 24 -265 25.6 C-240.9 35.1 -214.3 35.4 -190 26.6 C-187 25.6 -187 25.6 -185 25.6 C-185.3 24.6 -185.7 23.6 -186 22.6 C-185.3 22.6 -184.7 22.6 -184 22.6 C-183.7 22 -183.3 21.3 -183 20.6 C-182.7 21.3 -182.7 21.3 -181 24.6 C-180.2 25 -179.4 25.3 -178.5 25.6 C-176 26.6 -176 26.6 -174 30.6 C-161.1 38 -146.5 39.4 -132.3 36 C-125.9 34.1 -121.3 31.7 -116 27.6 C-115.1 26.9 -114.1 26.3 -113.2 25.6 C-111 23.6 -111 23.6 -109.4 21.2 C-106.1 17.6 -103 17.1 -98.3 15.9 C-96.8 15.5 -95.3 15.1 -93.7 14.7 C-92.1 14.4 -90.6 14 -89 13.6 C-88.2 13.4 -87.4 13.2 -86.5 13 C-80.1 11.5 -76.5 11.5 -70.4 14.2 C-61.3 17.1 -53.8 16.1 -45 12.6 C-43 12.5 -41 12.3 -38.9 12.2 C-28.5 11.6 -19.3 8.3 -10.6 2.7 C-6.8 0.3 -4.5 -0.9 0 0 Z " fill="#D4C08C" transform="translate(518,494.375)"/>
<path d="M0 0 C0.2 0.3 0.2 0.3 1 2 C0.3 3.5 -0.3 5 -1 6.6 C-11.2 30.3 -18.3 59.8 -18.1 85.6 C-18.1 87.2 -18 88.7 -18 90.4 C-18 91.6 -18 92.8 -18 94 C-10.5 81.4 -3.2 68.7 4 56 C4.3 56.2 4.3 56.2 6 57 C4.3 71.8 -0.6 85.3 -5.9 99.2 C-8.8 108.9 -5 115.2 -0.5 123.8 C2.5 129.8 4.5 135.4 6 142 C6.4 141.3 6.8 140.6 7.3 139.8 C13.2 130.2 19.1 123 30 119 C37.9 117.5 37.9 117.5 43 120 C42.1 120.5 41.1 121 40.1 121.6 C28.4 128.3 17.5 135.8 11 148 C15.6 146 19.2 144 22.8 140.6 C31.2 132.9 41 130.6 52.1 130.7 C59.5 131.3 65.1 133.6 71 138 C71 139 71 140 71 141 C66.9 143 65.6 143.2 61.2 143.1 C60.1 143.1 59 143 57.8 143 C56.6 143 55.4 143 54.2 142.9 C34.3 142.7 15.8 146.1 0 159 C-0.7 159.7 -1.3 160.3 -2 161 C-0.7 160.7 0.6 160.3 1.9 160 C11.9 157.8 20.9 158.5 29.8 163.6 C40.7 171 48.3 182.2 50.8 195.2 C50.9 196.1 50.9 197 51 198 C61.8 196.4 69.3 190.7 76.2 182.4 C83.2 172.7 85.9 160.7 87 149 C87.7 149 88.3 149 89 149 C94.2 164.6 96.1 182.5 88.6 197.8 C86 202.5 83.1 206.4 79 210 C78.1 210.9 77.1 211.9 76.2 212.8 C64.9 222.4 50.5 226.9 36 227.7 C33 228 33 228 29 229.6 C21.4 232.3 13.7 232 6.2 229 C4.8 228.3 3.4 227.7 2 227 C2 226.3 2 225.7 2 225 C3.3 224.7 4.7 224.4 6 224.1 C7.8 223.7 9.5 223.2 11.2 222.8 C12.1 222.6 13 222.4 13.9 222.2 C17.9 221.2 20.6 220.4 23.5 217.5 C28.1 209.7 28.1 200.5 25.9 191.9 C23.4 184.3 18.2 177.6 11 174 C4.1 171.1 0.6 172.3 -6.4 174.9 C-7.7 175.5 -9.1 176.1 -10.5 176.7 C-14 178 -14 178 -17 177 C-15 172.4 -12.6 169.5 -9 166 C-6 162 -6 162 -5.9 158.3 C-7 150.7 -10.8 143.8 -14.1 136.9 C-14.7 135.5 -15.4 134.1 -16.1 132.6 C-17.7 129 -19.3 125.5 -21 122 C-22.1 126.5 -22.4 130.9 -22.7 135.5 C-22.8 136.4 -22.8 137.4 -22.9 138.3 C-23.1 141.3 -23.3 144.3 -23.5 147.2 C-23.7 150.2 -23.9 153.2 -24.1 156.1 C-24.2 158 -24.3 159.8 -24.5 161.6 C-24.8 166.8 -25.3 171.9 -26 177 C-28.7 173.4 -30.5 170 -32.6 166.1 C-36 160 -38.5 157.6 -44.9 155.1 C-47 154 -47 154 -48.7 150.6 C-49.3 143.6 -47.7 140.5 -43.7 134.7 C-28.2 110.6 -23.5 78.9 -16.9 51.5 C-7.5 12.5 -7.5 12.5 0 0 Z " fill="#3E756F" transform="translate(440,280)"/>
<path d="M0 0 C2.5 3.8 3.6 7.7 5 12 C5.2 12.5 5.2 12.5 6 15 C6.4 15.1 6.4 15.1 8.2 15.3 C11 16 11 16 15 19 C18.3 18.8 21 18.5 24 17 C29 16.6 31.9 17 36 20 C37 21 38 22 39 23 C39 23.7 39 24.3 39 25 C41.9 23.9 43.8 23.2 46 21 C48 21 50 21 52 21 C53.3 20.3 54.6 19.7 56 19 C60.6 19.3 61.7 19.7 65 23 C65 23.7 65 24.3 65 25 C65.9 25.1 66.9 25.2 67.8 25.3 C71 26 71 26 74 29 C73.8 31.7 73.4 34.3 73 37 C73.3 37.3 73.7 37.7 74 38 C74 39.6 74 41.3 74 43 C50 58.1 18.5 59.7 -9.1 59.5 C-12.8 59.4 -16.4 59.4 -20.1 59.5 C-47.7 59.4 -75 56.3 -100 44 C-100.3 38.3 -100.3 38.3 -97.9 35.2 C-95 33 -95 33 -91.4 32.1 C-87.1 30.7 -86.2 28.9 -84 25 C-80 23 -75.7 23.8 -71.6 25 C-70.7 25.3 -69.9 25.7 -69 26 C-69.3 27.3 -69.7 28.6 -70 30 C-69.1 29.3 -68.2 28.6 -67.2 27.9 C-64 26 -64 26 -60 27 C-59.3 28.3 -58.7 29.6 -58 31 C-61.5 34.5 -62.6 34.4 -67.4 34.9 C-71.6 35.5 -73.7 35.8 -77.2 38.2 C-79.2 41.3 -79.8 43.5 -80 47 C-79 47 -78 47 -77 47 C-76.9 46.3 -76.8 45.5 -76.8 44.8 C-75.8 41.2 -75.1 40 -72 38 C-69.6 38.1 -67.1 38.3 -64.7 38.4 C-60.3 37.7 -58.1 34.8 -55.1 31.7 C-53 30 -53 30 -49.4 30 C-48.6 30.3 -47.8 30.7 -47 31 C-48.3 32.3 -49.6 33.6 -51 35 C-49 35 -47 35 -45 35 C-44 36.6 -43 38.3 -42 40 C-43.6 40.7 -45.3 41.3 -47 42 C-44.3 45.2 -42.7 46.8 -38.6 47.9 C-34.9 48 -31.6 47.7 -28 47 C-27.7 47.7 -27.3 48.3 -27 49 C-24.4 49.3 -21.7 49.7 -19 50 C-21.6 48.7 -24.3 47.4 -27 46 C-25 41.4 -23.1 38.9 -19 36 C-18.7 36.7 -18.3 37.3 -18 38 C-5.1 32.7 -5.1 32.7 -1.9 27.7 C-0.8 23.3 -1.4 21.2 -3 17 C-3.2 16.3 -3.2 16.3 -4 13 C-3.7 13.2 -3.7 13.2 -2 14 C-2 14.7 -2 15.3 -2 16 C-1.3 16 -0.7 16 0 16 C-0.3 15.3 -0.3 15.3 -2 12 C-2 11 -2 10 -2 9 C-2.3 8.8 -2.3 8.8 -4 8 C-2.7 5.4 -1.4 2.7 0 0 Z " fill="#E69E58" transform="translate(306,399)"/>
<path d="M0 0 C-2.2 8.5 -2.2 8.5 -6.2 11.1 C-7.1 11.4 -8 11.7 -9 12 C-7.7 11.7 -6.4 11.3 -5 11 C-5.2 11.7 -5.3 12.4 -5.5 13.2 C-7.3 23.1 -5.8 31.9 -0.5 40.4 C5.7 48.9 13.8 55.4 24 58 C30 58.8 35.9 59 42 59 C43 71.9 32.7 85.3 24.9 95 C14.6 106.4 2.2 113.3 -13 115 C-25 103.6 -30.8 88.9 -31.3 72.5 C-31.6 49.6 -28.8 33.3 -13.8 15.3 C-12 13 -12 13 -9.9 8.7 C-7.9 4.7 -4.9 0 0 0 Z " fill="#548A8B" transform="translate(99,364)"/>
<path d="M0 0 C0.9 0.9 1.9 1.7 2.9 2.6 C34 29.1 87.3 27.9 126 26 C133.3 25.3 140.4 24.1 147.6 22.5 C151.3 21.7 155.2 21.2 159 20.6 C173.9 18 187.7 12.2 199 2 C199 4.6 199 7.3 199 10 C199.7 10.3 199.7 10.3 203 12 C205.2 14.6 205.2 14.6 207 17 C204.8 22.5 201.8 25.5 197 29 C193.1 30.4 193.1 30.4 190 31 C189.7 30.3 189.3 29.7 189 29 C188 30 187 31 186 32 C187 32.3 188 32.7 189 33 C180.5 36.7 172.2 39 163.2 40.7 C161.1 41 159.1 41.5 157 42 C156.7 42.7 156.3 43.3 156 44 C153.3 44.3 150.5 44.7 147.8 45 C146.3 45.2 144.8 45.4 143.2 45.6 C139 46 139 46 134 46 C133.7 43 133.3 40.1 133 37 C132.9 37.7 132.9 37.7 132.6 41.4 C132 46 132 46 131 47 C124.1 48.4 117 48.1 110 48 C109.8 46.5 109.8 46.5 109 39 C108.9 40.3 108.7 41.6 108.6 42.9 C108 47 108 47 107 48 C103.3 48.1 99.6 48.1 95.9 48.1 C94.9 48.1 93.8 48.1 92.8 48 C90.2 48 87.6 48 85 48 C84 44.9 83.9 42.6 83.9 39.3 C83.9 38.3 84 37.3 84 36.3 C84 35.5 84 34.8 84 34 C83.3 34 82.7 34 82 34 C82 38.3 82 42.6 82 47 C78.7 46.9 75.4 46.7 72.1 46.6 C71.2 46.5 70.3 46.5 69.3 46.4 C62.2 46.1 62.2 46.1 60 45 C59.8 43.7 59.8 43.7 59 37 C58.7 39.6 58.3 42.3 58 45 C50.9 44 44.6 42.7 38 40 C37.2 39.9 36.5 39.7 35.7 39.6 C32.4 38.9 29.4 37.8 26.3 36.6 C25.2 36.2 24 35.8 22.9 35.4 C20 34 20 34 18 31 C17.3 31.3 16.7 31.7 16 32 C10.3 29.4 7.8 27.7 5.1 21.9 C2.6 14.7 0.8 7.6 0 0 Z " fill="#EDE0C6" transform="translate(192,437)"/>
<path d="M0 0 C25 0.6 60 3 79.5 20.2 C84.4 25.7 85.3 28.7 85 36 C82.8 43.1 77.2 47.2 70.9 50.7 C67.7 52.3 64.4 53.7 61 55 C60.1 55.4 59.2 55.8 58.2 56.2 C49.8 59.3 41 60.4 32.1 61.5 C29.7 61.9 27.4 62.3 25 62.7 C13.8 64.8 3.1 65.5 -8.3 65.4 C-9.2 65.4 -10 65.4 -10.9 65.4 C-42.7 65.2 -87.9 64.7 -112.3 41.2 C-115.1 37.7 -116 35 -115.9 30.6 C-114.1 23.5 -110.5 20.3 -104.6 16.5 C-85.9 5.8 -61.5 0.3 -40 1 C-39.3 2.9 -38.7 4.8 -38 6.7 C-37.6 7.7 -37.3 8.8 -36.9 9.9 C-36 13 -36 13 -36 18 C-37.3 17.7 -38.6 17.3 -40 17 C-47 16.6 -49.6 16.4 -55 21 C-57.7 21 -60.3 21 -63 21 C-65.9 22.4 -67.7 23.7 -70 26 C-73.3 25.8 -76.5 25.4 -79.8 24.9 C-83 25 -83 25 -85.3 26.8 C-86.6 28.5 -87.8 30.2 -89 32 C-90.1 32.3 -91.2 32.6 -92.4 32.9 C-96.2 34.1 -97.7 34.8 -100 38 C-100.8 41.2 -100.8 41.2 -101 44 C-100.6 44.1 -100.6 44.1 -98.4 44.9 C-96.3 45.6 -94.2 46.3 -92.2 47.1 C-84.8 50 -77.3 52 -69.6 53.7 C-68.7 53.9 -67.8 54.1 -66.9 54.3 C-50.6 57.8 -34.5 58.4 -17.9 58.4 C-14.2 58.4 -10.5 58.4 -6.8 58.4 C14.1 58.5 35.1 56.9 55 50 C56 49.7 57 49.3 58.1 49 C61.8 47.7 65.3 46.4 68.7 44.4 C71 43 71 43 73 43 C72.6 42 72.3 41 71.9 39.9 C71 35.8 71.2 33.1 72 29 C68 26 68 26 64 25 C63.6 24.6 63.6 24.6 61.6 22.4 C59 20 59 20 55.9 20.1 C53.9 20.7 52 21.3 50 22 C48.4 22 46.7 22 45 22 C44 23 43 24 42 25 C40.7 25 39.4 25 38 25 C36.3 23 34.6 21 33 19 C27.7 17.2 24 17.5 19 20 C13.5 20 12.3 19.1 8 16 C7 15.7 6 15.3 5 15 C1.5 10 0.6 6 0 0 Z " fill="#EEEEE3" transform="translate(307,399)"/>
<path d="M0 0 C3 2.9 5.7 5.9 8.2 9.3 C13.7 16.6 20.9 21.8 29 26 C27.5 36 24.7 45.5 21.6 55.1 C21.2 56.2 20.8 57.4 20.4 58.6 C15.9 72.1 15.9 72.1 10 76 C2.7 76.9 -1.9 74.5 -8 71 C-9.1 70.4 -10.2 69.8 -11.3 69.2 C-16.7 64.8 -19.8 58.9 -21 52 C-21 45.5 -17.4 39.7 -14.6 34 C-13.3 31.3 -12 28.5 -10.7 25.7 C-10 24.4 -9.4 23.1 -8.7 21.7 C-5.4 14.6 -2.7 7.3 0 0 Z " fill="#FCB776" transform="translate(128,318)"/>
<path d="M0 0 C1.3 2 2.6 4 3.8 6 C6 9 6 9 8.9 10.4 C13.2 12.6 14.5 15.9 17 20 C19.3 21.8 19.3 21.8 22 23 C29.7 26.7 29.7 26.7 31.9 29.1 C34.4 31.3 35.7 31.4 39 31.9 C43.7 32.8 43.7 32.8 46.4 35.1 C50 41.7 53.4 48.4 54 56 C53.1 57.1 52.2 58.2 51.3 59.3 C46.6 65.2 45.3 72.2 43.4 79.4 C43.1 80.8 42.7 82.2 42.3 83.7 C40.6 89.8 39 95.9 37.5 102 C37 103.5 36.6 105.1 36.2 106.8 C35.9 108.1 35.5 109.4 35.2 110.8 C33.6 115 31.6 117.1 27.8 119.2 C19.8 121.4 13.1 119.8 6 116 C2.4 113.2 2.4 113.2 0 111 C3.5 111 4.7 111.8 7.7 113.5 C12.3 115.9 15.7 116.9 21 116 C32.8 106.5 35.7 83.1 39 69 C39 68.3 39 67.7 39 67 C37.7 66.4 36.5 65.8 35.2 65.1 C21 57.2 12.6 45.8 8.3 30.4 C6.5 24.2 4.3 18.2 2.2 12.2 C1 8.1 0.4 4.2 0 0 Z " fill="#EB9B4F" transform="translate(117,277)"/>
<path d="M0 0 C-0.3 3.3 -0.7 6.6 -1 10 C-0.1 10.3 0.7 10.5 1.6 10.8 C4.9 12 7.9 13.4 11 15 C10.1 27.5 4.3 38.6 -4.8 47.2 C-13.2 53.9 -22.6 58.7 -33.4 59.6 C-34.9 59.7 -36.4 59.9 -38 60 C-38.3 60.7 -38.7 61.3 -39 62 C-41.5 57.3 -41.5 52.2 -41 47 C-40.7 46.1 -40.4 45.3 -40 44.4 C-38.5 39.4 -38.6 34.5 -38.4 29.4 C-38.4 27.3 -38.3 25.3 -38.2 23.2 C-38.2 22.3 -38.2 21.4 -38.2 20.5 C-38 18 -38 18 -37 14 C-35.7 14 -34.4 14 -33 14 C-33 15.3 -33 16.6 -33 18 C-34.3 18.3 -35.6 18.7 -37 19 C-36.7 21.3 -36.3 23.6 -36 26 C-22.8 22.1 -12.7 11.8 -3.2 2.2 C-1 0 -1 0 0 0 Z " fill="#E99A4F" transform="translate(340,231)"/>
<path d="M0 0 C1.3 0.7 2.6 1.3 4 2 C3 2.3 2 2.7 1 3 C0.4 10.8 -0.1 18.5 0.1 26.4 C0.2 30.7 -0.1 34.2 -1.5 38.2 C-4 46.2 -3.4 53 -1 61 C-0.3 61 0.3 61 1 61 C2.2 68.2 2.5 75 1 82.1 C-0.9 92.1 -0.7 101.7 2.3 111.4 C3.7 116.6 3.6 122.1 2.5 127.4 C0.9 135.6 1.3 143.5 5 151 C5.4 155.6 5 158.8 3 163 C2.3 161.7 1.7 160.4 1 159 C0.3 157.6 -0.4 156.2 -1.1 154.8 C-4.9 146.1 -2.6 137 -1 128 C-5.1 136.4 -7.2 145.4 -4.1 154.6 C-3.4 156.2 -2.7 157.7 -1.9 159.3 C-0.3 163.9 -0.5 168.7 -0.3 173.5 C0.1 177.7 1.4 181.1 3 185 C3 187.9 3 187.9 2 191 C-0.9 193.3 -0.9 193.3 -4.6 195.4 C-5.8 196.1 -7 196.8 -8.2 197.5 C-9.1 198 -10 198.5 -11 199 C-11.7 198.7 -12.3 198.3 -13 198 C-12.8 197.7 -12.8 197.7 -12 196 C-11.9 191.2 -11.8 186.9 -12.8 182.2 C-13.1 176.7 -11.2 173 -9.2 168 C-7 162.3 -7.9 158.3 -9.6 152.6 C-11.6 145.9 -10.1 141.6 -7.4 135.2 C-3.6 123.8 -5.2 114.4 -10.1 103.5 C-11.1 101.7 -12 99.8 -13 98 C-15.8 86.7 -12.9 77.7 -9 67 C-7.9 62.7 -7.9 59 -7.9 54.5 C-7.9 53 -7.9 51.5 -7.9 50 C-8 46.3 -8.2 42.9 -8.5 39.3 C-9.1 32.5 -9 25.8 -8.7 19.1 C-8.7 17.9 -8.6 16.7 -8.6 15.5 C-8.5 14.3 -8.5 13.2 -8.4 12 C-8.4 10.9 -8.4 9.9 -8.3 8.9 C-8 5.9 -7.2 3.7 -6 1 C-4.9 4.2 -4.9 6.5 -4.9 9.8 C-4.9 11 -5 12.1 -5 13.3 C-5 15.7 -5 18.1 -5 20.6 C-5 21.7 -5.1 22.8 -5.1 24 C-5.1 25.1 -5.1 26.1 -5.1 27.2 C-5 30 -5 30 -4 34 C-3.9 33 -3.9 31.9 -3.8 30.8 C-3.2 20.9 -2.6 10.9 -2 1 C-1.3 0.7 -0.7 0.3 0 0 Z " fill="#E29A53" transform="translate(299,236)"/>
<path d="M0 0 C4.1 2 8.2 3.4 12.6 4.7 C12.5 8.9 11.4 9.9 8.4 13 C5.1 15.4 3.6 16.5 -0.4 16.7 C-0.6 17.3 -0.6 17.3 -1.4 20.5 C-6.9 36.6 -18.5 49.2 -33.2 57.3 C-41.2 61.1 -49.4 64.3 -58.4 63.7 C-59.1 61.8 -59.7 59.8 -60.4 57.9 C-60.8 56.8 -61.1 55.8 -61.5 54.6 C-62.4 51.7 -62.4 51.7 -62.4 48.7 C-61 48.5 -59.5 48.2 -58.1 48 C-43 44.9 -30.7 38.2 -21.4 25.7 C-17.2 18.9 -14.4 11.8 -14.4 3.7 C-18 2.1 -21.6 0.4 -25.4 -1.3 C-25.4 -2.6 -25.4 -3.9 -25.4 -5.3 C-15.8 -8.1 -8.5 -4.1 0 0 Z " fill="#538989" transform="translate(364.37890625,242.27734375)"/>
<path d="M0 0 C1 0.3 2 0.7 3 1 C2.2 1.8 1.4 2.5 0.6 3.3 C-3 7 -4.3 9.1 -4.3 14.2 C-4.1 23.5 -0.7 29.1 5.6 35.7 C11.4 41.2 17.7 44.9 25.8 45.1 C35.8 44.7 41.6 40.5 49 34 C48.5 38.4 47.1 40.8 44 44 C41.2 45.2 41.2 45.2 38.1 46.3 C33.8 48.3 32.3 49.5 30 53.8 C28.5 57.9 27.2 61.9 26 66 C25.3 67 24.7 68 24 69 C12.7 69.6 3.7 65.9 -5 59 C-12.4 51.6 -17 43.5 -17.8 33 C-17.4 22.8 -12.3 10.7 -5.1 3.4 C-2 1 -2 1 0 0 Z " fill="#538A8A" transform="translate(111,353)"/>
<path d="M0 0 C5 5 6.2 11.6 6.4 18.6 C6.2 24.6 5.1 30 1.5 35.1 C-2.4 38 -6.8 38.8 -11.5 39.9 C-12.5 40.2 -13.5 40.4 -14.6 40.7 C-17.9 41.5 -21.2 42.3 -24.4 43.1 C-27.7 43.9 -31 44.7 -34.3 45.5 C-36.3 46 -38.3 46.5 -40.4 46.9 C-48.1 48.8 -52.4 51.3 -58 57 C-67.5 66.1 -79.5 69.6 -92.6 69.3 C-101.9 68.4 -111.3 66.3 -119 61 C-119.3 59.7 -119.7 58.4 -120 57 C-120.4 57 -120.4 57 -122.3 56.8 C-125 56 -125 56 -126.9 53.8 C-128 51 -128 51 -127.2 48.4 C-126.8 47.6 -126.4 46.8 -126 46 C-125.7 45 -125.3 44 -125 43 C-124.4 43 -124.4 43 -121.7 43.1 C-81.2 43.9 -81.2 43.9 -64 38 C-64 38.7 -64 39.3 -64 40 C-83.9 47.1 -103.9 48.6 -125 48 C-124.7 50 -124.3 52 -124 54 C-120.2 54.7 -116.9 55 -113 55 C-111.7 55.7 -110.4 56.3 -109 57 C-105.1 57.5 -101.1 57.4 -97.2 57.4 C-96.1 57.4 -94.9 57.4 -93.8 57.4 C-85 57.2 -77.3 56 -69 53 C-67.5 52.5 -66 52.1 -64.4 51.6 C-60.7 49.9 -58 47.8 -55 45 C-55.3 46.3 -55.7 47.6 -56 49 C-55 49 -54 49 -53 49 C-52.7 47.4 -52.3 45.7 -52 44 C-51 44 -50 44 -49 44 C-47 40.3 -45.6 37.1 -45 33 C-44.3 33 -43.7 33 -43 33 C-42.7 31.4 -42.3 29.7 -42 28 C-41.7 28 -41.3 28 -41 28 C-40.9 36.8 -40.9 36.8 -42 39 C-12.6 34 -12.6 34 -3 27 C2.7 18.7 1.8 9.5 0 0 Z " fill="#EB9B4F" transform="translate(462,464)"/>
<path d="M0 0 C0.3 0.2 0.3 0.2 2 1 C2 2 2 3 2 4 C0 5 -2 6 -4 7 C1.3 7.3 6.6 7.7 12 8 C12 9 12 10 12 11 C13.6 11.2 13.6 11.2 22 12 C22.3 11 22.7 10 23 9 C23 10 23 11 23 12 C24.3 11.7 25.6 11.3 27 11 C27 12.7 27 14.3 27 16 C9 18 -9.1 19.7 -27.1 21.3 C-29.6 21.6 -32.1 21.8 -34.6 22 C-38.2 22.4 -41.7 22.7 -45.3 23 C-46.4 23.1 -47.5 23.2 -48.6 23.3 C-53.7 23.8 -58.8 24.1 -64 24 C-63.7 21.7 -63.3 19.4 -63 17 C-61.3 16.7 -59.7 16.3 -58 16 C-64.6 15.7 -71.2 15.3 -78 15 C-75 13 -75 13 -72.4 12.1 C-71.6 11.7 -70.8 11.4 -70 11 C-69.7 10 -69.3 9 -69 8 C-67.8 8 -66.6 8 -65.3 8 C-60.8 8 -56.3 7.9 -51.7 7.8 C-49.8 7.8 -47.8 7.8 -45.8 7.8 C-34.7 7.8 -25.1 7.4 -15 2 C-9.7 -0.3 -5.8 -0.2 0 0 Z " fill="#643725" transform="translate(259,235)"/>
<path d="M0 0 C0.3 0 0.7 0 1 0 C1 2.6 1 5.3 1 8 C1.7 8.3 1.7 8.3 5 10 C7.2 12.6 7.2 12.6 9 15 C6.8 20.5 3.8 23.5 -1 27 C-4.9 28.4 -4.9 28.4 -8 29 C-8.2 28.7 -8.2 28.7 -9 27 C-10 28 -11 29 -12 30 C-11.5 30.2 -11.5 30.2 -9 31 C-19.4 35.6 -29.9 37.9 -41 40 C-40.3 35.7 -39.7 31.4 -39 27 C-38.3 27.3 -37.7 27.7 -37 28 C-37.7 31.3 -38.3 34.6 -39 38 C-38.3 38 -37.7 38 -37 38 C-36.7 35.4 -36.3 32.7 -36 30 C-35.3 30 -34.7 30 -34 30 C-33.8 30.3 -33.8 30.3 -33 32 C-32.7 31.8 -32.7 31.8 -31 31 C-31.3 30.7 -31.3 30.7 -33 29 C-31 28.7 -29 28.3 -27 28 C-27 29.6 -27 31.3 -27 33 C-26.3 33.3 -25.7 33.7 -25 34 C-25 31 -25 28.1 -25 25 C-26.6 25 -28.3 25 -30 25 C-27.1 23.1 -25.4 22.5 -22 22 C-22 25 -22 27.9 -22 31 C-20.7 27.4 -19.7 23.8 -19 20 C-17 19.3 -15 18.7 -13 18 C-13 17.3 -13 16.7 -13 16 C-15.1 16.6 -17.2 17.2 -19.3 17.9 C-19.9 18 -19.9 18 -22.9 18.9 C-26 20 -26 20 -29 22 C-31.3 22.1 -33.7 22.1 -36 22 C-36 22.7 -36 23.3 -36 24 C-37 24.1 -37.9 24.2 -38.9 24.4 C-44.6 25.1 -50.3 25.8 -55.9 27.1 C-69.5 29.9 -84.1 29.2 -97.9 29.2 C-100.9 29.2 -103.9 29.2 -106.9 29.2 C-116.1 29.3 -125 29.2 -134 27 C-134 26.7 -134 26.3 -134 26 C-132.4 25.7 -130.7 25.3 -129 25 C-129 24.7 -129 24.3 -129 24 C-128.2 24 -128.2 24 -124.1 24.1 C-118.1 24.1 -112 24.2 -106 24.2 C-103.4 24.2 -100.8 24.3 -98.2 24.3 C-81.9 24.5 -66.5 23.7 -50.5 20.5 C-46.7 19.7 -42.8 19.2 -39 18.6 C-24.8 16.1 -10 10.9 0 0 Z " fill="#CC8345" transform="translate(390,439)"/>
<path d="M0 0 C4 8.4 4 8.4 4 14 C2.7 13.7 1.4 13.3 0 13 C-7 12.6 -9.6 12.4 -15 17 C-17.7 17 -20.3 17 -23 17 C-25.9 18.4 -27.7 19.7 -30 22 C-33.3 21.8 -36.5 21.4 -39.8 20.9 C-43 21 -43 21 -45.3 22.8 C-46.6 24.5 -47.8 26.2 -49 28 C-49.6 28.2 -49.6 28.2 -52.4 28.9 C-56.2 30.1 -57.7 30.8 -60 34 C-60.8 36.8 -60.8 36.8 -61 39 C-65.4 36.7 -68.2 34.1 -71 30 C-71.6 26.5 -71.6 26.5 -71 23 C-61.1 9 -39.9 5.2 -24 2.2 C-16 0.9 -8.2 -0.2 0 0 Z " fill="#E9CF9D" transform="translate(267,403)"/>
<path d="M0 0 C1 1 2 2 3 3 C3 3.7 3 4.3 3 5 C3.5 5.1 3.5 5.1 5.8 5.3 C9 6 9 6 12 9 C11.8 11.7 11.4 14.3 11 17 C11.3 17.3 11.7 17.7 12 18 C12 19.6 12 21.3 12 23 C5.1 27.4 -1.7 30.1 -9.6 32.3 C-10.4 32.6 -11.3 32.8 -12.2 33.1 C-18.1 34.7 -23.9 35.5 -30 36 C-26.1 31.7 -22 29 -17 26 C-20.7 26.6 -24.3 27.2 -28 28 C-27.3 27.3 -26.5 26.6 -25.8 25.8 C-23.3 23.3 -21.1 20.8 -19 18 C-20.6 18.3 -22.3 18.7 -24 19 C-24 19.7 -24 20.3 -24 21 C-25.6 21.3 -27.3 21.7 -29 22 C-29 22.7 -29 23.3 -29 24 C-31 25.1 -33 26.1 -35 27 C-35.7 26.7 -36.3 26.3 -37 26 C-36.7 25.8 -36.7 25.8 -35.1 24.6 C-34.2 24 -33.4 23.3 -32.6 22.7 C-31.7 22.1 -30.9 21.5 -30.1 20.8 C-28 19 -28 19 -27 16 C-27 14.8 -27.1 13.7 -27.1 12.5 C-27 9 -27 9 -24 6 C-22.4 6 -20.7 6 -19 6 C-18.3 4.7 -17.7 3.4 -17 2 C-16.7 1.7 -16.3 1.3 -16 1 C-15.1 1 -14.1 1 -13.2 1.1 C-7.9 1 -5.5 -1.5 0 0 Z " fill="#487870" transform="translate(368,419)"/>
<path d="M0 0 C9 6.6 15.8 14.9 18 26 C18 27.6 18 29.3 18 31 C12.5 34.4 8.6 36.3 2 36 C1.6 34.6 1.3 33.1 0.9 31.6 C-2.2 21.6 -7.6 14.3 -16 8 C-17.3 7.3 -18.6 6.7 -20 6 C-20.3 6.7 -20.7 7.3 -21 8 C-21.8 7.8 -22.6 7.5 -23.5 7.3 C-28.1 6.9 -30.9 8.2 -35.2 10 C-42.7 13.1 -42.7 13.1 -46 12 C-44.6 7.4 -43.1 6.2 -39 4 C-38.1 3.2 -37.2 2.4 -36.2 1.5 C-26.1 -6.3 -10.8 -6.6 0 0 Z " fill="#528988" transform="translate(469,445)"/>
<path d="M0 0 C53.9 3.4 53.9 3.4 72 18 C72.2 18.5 72.2 18.5 73 21 C73.7 21.2 73.7 21.2 77 22 C78.6 25.3 78.2 28.4 78 32 C77.7 32.3 77.7 32.3 76 34 C76 33.3 76 32.7 76 32 C74 33 72 34 70 35 C68.5 31.9 69.5 29.3 70 26 C66 23 66 23 62 22 C61.2 21.1 60.4 20.3 59.6 19.4 C57 17 57 17 53.9 17.1 C51.9 17.7 50 18.3 48 19 C46.4 19 44.7 19 43 19 C42 20 41 21 40 22 C38.7 22 37.4 22 36 22 C34.3 20 32.6 18 31 16 C25.7 14.2 22 14.5 17 17 C11.5 17 10.3 16.1 6 13 C5 12.7 4 12.3 3 12 C-0.5 7.4 -0.3 5.6 0 0 Z " fill="#E9D1A0" transform="translate(309,402)"/>
<path d="M0 0 C4 1 4 1 6.8 2.5 C18 7.9 30.9 7.3 43 7 C44.3 7 45.6 7 47 7 C48.4 12.6 46.4 15.1 43.8 20.1 C41.3 24.1 38.9 26.3 35 29 C34 29 33 29 32 29 C31 27.7 30 26.4 29 25 C26.4 24.6 26.4 24.6 23.5 24.7 C23 24.7 23 24.7 20.6 24.8 C18 25 18 25 15 26 C15 25.3 15 24.7 15 24 C11.4 23.7 7.7 23.3 4 23 C0.4 15.7 -1.9 10.1 -2 2 C-1.3 1.3 -0.7 0.7 0 0 Z " fill="#EB9B4F" transform="translate(274,209)"/>
<path d="M0 0 C1.1 0.3 2.1 0.7 3.2 1 C27.6 8.5 51.8 9.7 76 1 C79 0 79 0 81 0 C81.4 4.1 81.5 6.3 79.1 9.7 C64 20.9 41.5 20 23.9 17.6 C14.9 16.2 6.6 13.6 0 7 C-0.1 3.4 -0.1 3.4 0 0 Z " fill="#6A3825" transform="translate(252,520)"/>
<path d="M0 0 C3.8 5.6 6.3 12 9.1 18.1 C9.7 19.5 10.4 20.9 11 22.3 C17.1 35.6 17.1 35.6 17 43 C15.4 45.8 15.4 45.8 13 48 C8.2 52.6 8.2 52.6 6.6 56.2 C5 59 5 59 1.3 60.4 C0.2 60.6 -0.9 60.8 -2 61 C-4 59 -4 59 -4 54.3 C-4 52.2 -3.9 50.1 -3.8 48.1 C-3.7 47 -3.6 45.9 -3.6 44.7 C-2 12.4 -2 12.4 0 0 Z " fill="#EDF2ED" transform="translate(418,399)"/>
<path d="M0 0 C0.3 0 0.7 0 1 0 C1 4.3 1 8.6 1 13 C0.8 12.3 0.8 12.3 0 9 C-1 10 -2 11 -3 12 C0 15 0 15 4 16 C5.3 17 6.6 18 8 19 C7.2 25.7 2.7 29.5 -2 34 C-11.3 41.2 -21.3 45.2 -33 46 C-33.3 45.3 -33.7 44.7 -34 44 C-33.3 43.3 -32.7 42.7 -32 42 C-30 38 -30 38 -30 34 C-30.7 33.7 -31.3 33.3 -32 33 C-32 31 -32 29 -32 27 C-29 29.9 -26.5 32.7 -24 36 C-23 36.3 -22 36.7 -21 37 C-19.7 34.7 -18.4 32.4 -17 30 C-18.6 30 -20.3 30 -22 30 C-22 29.3 -22 28.7 -22 28 C-22.7 27.7 -23.3 27.3 -24 27 C-23.3 27 -22.7 27 -22 27 C-22.3 25 -22.7 23 -23 21 C-20 20 -20 20 -16 21 C-15.3 20.7 -14.7 20.3 -14 20 C-14 17.7 -14 15.4 -14 13 C-13.3 12.7 -12.7 12.3 -12 12 C-11.3 12.3 -10.7 12.7 -10 13 C-10 12.3 -10 11.7 -10 11 C-9.3 11 -8.7 11 -8 11 C-8 11.7 -8 12.3 -8 13 C-7.3 13 -6.7 13 -6 13 C-6.3 12 -6.7 11 -7 10 C-6.7 9.7 -6.3 9.3 -6 9 C-6 8.3 -6 7.7 -6 7 C-5.3 7 -4.7 7 -4 7 C-4.3 6 -4.7 5 -5 4 C-3.7 4 -2.4 4 -1 4 C-0.7 2.7 -0.3 1.4 0 0 Z " fill="#F7AF69" transform="translate(336,245)"/>
<path d="M0 0 C4.1 2 8.2 3.4 12.6 4.7 C12.5 8.9 11.4 9.9 8.4 13 C5.1 15.4 3.6 16.5 -0.4 16.7 C-0.6 17.3 -0.6 17.3 -1.4 20.5 C-6.9 36.6 -18.5 49.2 -33.2 57.3 C-41.2 61.1 -49.4 64.3 -58.4 63.7 C-58.2 63.4 -58.2 63.4 -57.4 61.7 C-55.4 61.3 -53.3 60.9 -51.3 60.6 C-34.9 57.2 -21.5 48.3 -11.5 34.8 C-7.8 29.2 -5.1 23 -2.4 16.7 C-4 16.7 -5.6 16.6 -7.2 16.5 C-8.1 16.5 -9 16.5 -9.9 16.4 C-12.4 16.7 -12.4 16.7 -15.4 19.7 C-16.5 21.5 -17.6 23.2 -18.6 25 C-21.7 30 -25.1 33.8 -29.4 37.7 C-30 37.4 -30.7 37.1 -31.4 36.7 C-30.3 35.8 -29.3 34.8 -28.3 33.8 C-20 25.6 -15.4 15.3 -14.4 3.7 C-18 2.1 -21.6 0.4 -25.4 -1.3 C-25.4 -2.6 -25.4 -3.9 -25.4 -5.3 C-15.8 -8.1 -8.5 -4.1 0 0 Z " fill="#40766F" transform="translate(364.37890625,242.27734375)"/>
<path d="M0 0 C0 0.7 0 1.3 0 2 C-2 2.7 -4 3.3 -6 4 C-6.1 5.6 -6.2 7.1 -6.3 8.8 C-6.6 13.3 -7.1 14.1 -10 18 C-10.1 9.4 -10.1 9.4 -9 6 C-10.6 6.7 -12.3 7.3 -14 8 C-13.3 8.3 -12.7 8.7 -12 9 C-12 12 -12 14.9 -12 18 C-13 17.7 -14 17.3 -15 17 C-14.7 15.4 -14.3 13.7 -14 12 C-15 12.3 -16 12.7 -17 13 C-16.8 13.3 -16.8 13.3 -16 15 C-17.6 15.7 -19.3 16.3 -21 17 C-21 16 -21 15 -21 14 C-21.7 14 -22.3 14 -23 14 C-23 15.3 -23 16.6 -23 18 C-22 18.7 -21 19.3 -20 20 C-21.3 20 -22.6 20 -24 20 C-24 20.7 -24 21.3 -24 22 C-24.7 22 -25.3 22 -26 22 C-26 19.7 -26 17.4 -26 15 C-26.3 17 -26.7 19 -27 21 C-27.7 21 -28.3 21 -29 21 C-29 22.6 -29 24.3 -29 26 C-31.7 26.3 -34.5 26.7 -37.2 27 C-38.7 27.2 -40.2 27.4 -41.8 27.6 C-46 28 -46 28 -51 28 C-51.1 26.6 -51.3 25.2 -51.4 23.8 C-52 19 -52 19 -53 15 C-55.4 13.8 -57.4 13.7 -60.1 13.4 C-61.7 13.3 -63.3 13.1 -65 13 C-65 12.7 -65 12.3 -65 12 C-64.3 11.9 -63.5 11.9 -62.7 11.8 C-59.4 11.6 -56 11.3 -52.6 11.1 C-51.4 11 -50.3 10.9 -49.1 10.8 C-47.9 10.7 -46.8 10.6 -45.7 10.5 C-44.6 10.5 -43.6 10.4 -42.5 10.3 C-40 10 -40 10 -38 9 C-35.5 8.8 -32.9 8.6 -30.4 8.4 C-29 8.4 -27.6 8.3 -26.2 8.2 C-25.7 8.2 -25.7 8.2 -23 8 C-23 7.3 -23 6.7 -23 6 C-22.4 5.9 -22.4 5.9 -19.1 5.2 C-15.5 4.5 -12.5 3.4 -9.2 1.9 C-5 0 -5 0 0 0 Z " fill="#E9D0AD" transform="translate(377,455)"/>
<path d="M0 0 C0.3 0 0.7 0 1 0 C1.1 1.4 1.3 2.8 1.4 4.3 C1.6 6.2 1.8 8.1 1.9 9.9 C2 10.9 2.1 11.8 2.2 12.7 C2.6 17.1 3.1 21.5 3.6 25.8 C3.9 29.2 4.1 32.4 4.1 35.8 C4.1 36.7 4.1 37.6 4.1 38.5 C4 41 4 41 3 45 C2.3 52.6 3.2 59.2 5.1 66.6 C7 74 7.1 79.6 5 87 C4.7 87 4.3 87 4 87 C4 85.4 4 83.7 4 82 C2.4 82 0.7 82 -1 82 C-0.7 86 -0.3 89.9 0 94 C-3 94 -3 94 -5 93 C-7.5 87.8 -7 83.6 -6 78 C-5.3 76.3 -4.6 74.7 -3.8 73 C-1.6 67.8 -2.2 64.4 -4 59 C-4.5 57.9 -5.1 56.8 -5.6 55.6 C-8.3 48.6 -7.7 42.2 -5 35.3 C-4.3 33.9 -3.7 32.5 -3 31 C-2.3 31 -1.7 31 -1 31 C-0.8 29.3 -0.6 27.5 -0.4 25.8 C-0.3 24.8 -0.1 23.9 -0 22.9 C0 19.7 -0.8 17.9 -2 15 C-2.6 9.7 -2.5 4.8 0 0 Z " fill="#F6B26E" transform="translate(274,317)"/>
<path d="M0 0 C1 0 2 0 3 0 C3 2.3 3 4.7 3 7 C2.7 7.3 2.3 7.7 2 8 C1.7 14.4 2.1 19.9 3.5 26.2 C6.1 38.4 5.8 49 2 60.8 C0.7 64.9 0.3 68.8 0 73 C-0.7 72.7 -1.3 72.3 -2 72 C-2.3 69.4 -2.7 66.7 -3 64 C-4.3 69.4 -5.2 75.3 -3 80.5 C-1.8 83.5 -2 85.6 -2.4 88.8 C-2.5 89.8 -2.6 90.8 -2.7 91.8 C-2.8 92.5 -2.9 93.2 -3 94 C-3.3 94.2 -3.3 94.2 -5 95 C-5.2 94.2 -5.4 93.4 -5.6 92.6 C-7.8 83.5 -7.8 83.5 -9.2 79.8 C-11.2 72.9 -9.9 67.4 -7.9 60.6 C-5.7 52.9 -5.9 47.3 -7.5 39.4 C-8.8 32.6 -7.7 27.4 -5 21 C-4.7 21 -4.3 21 -4 21 C-3.4 25.3 -3 29.3 -3.1 33.7 C-3 37.6 -2.6 39.5 -1 43 C-0.6 44.7 -0.3 46.3 0 48 C0.3 35.8 0.3 35.8 -0.9 30.1 C-3.3 19.4 -3.5 10.4 0 0 Z " fill="#F7B26F" transform="translate(277,254)"/>
<path d="M0 0 C1.2 3.5 0.8 4.9 0.1 8.4 C-1.8 19.1 -1.7 27.2 3 37 C7.7 47.3 9.3 55.9 6 67 C5.5 68.2 5 69.4 4.4 70.6 C1.5 77.5 2.1 81.8 4.3 88.6 C6.1 94.7 4.8 98.7 2.4 104.4 C0.2 109.9 -0.2 113.1 1 119 C1.7 124.6 1.7 128.1 -1.9 132.8 C-2.4 133.3 -2.4 133.3 -5 136 C-6.4 138.9 -6.4 138.9 -7 141 C-8.3 140.3 -9.6 139.7 -11 139 C-10 136.7 -9 134.4 -8 132 C-7 132 -6 132 -5 132 C-3 125.7 -3.4 122.3 -5 116 C-4.9 110.8 -4.3 107.5 -1.9 102.9 C0.2 98.5 0.5 95.9 0 91 C-0.3 90.2 -0.7 89.5 -1 88.7 C-2.2 85.5 -2.2 83 -2.1 79.7 C-2.1 78.6 -2.1 77.6 -2.1 76.4 C-2 75.6 -2 74.8 -2 74 C-1.3 74 -0.7 74 0 74 C-0.1 73.2 -0.1 72.4 -0.2 71.6 C0 68 0 68 1.6 63.9 C4.7 54.9 2.4 47.4 -1.5 39 C-2.1 37.8 -2.8 36.5 -3.4 35.2 C-7.2 27.6 -7 18.8 -4.7 10.6 C-3.3 6.9 -1.9 3.5 0 0 Z " fill="#F8B674" transform="translate(287,303)"/>
<path d="M0 0 C0.3 0.2 0.3 0.2 2 1 C2 2 2 3 2 4 C0 5 -2 6 -4 7 C1.3 7.3 6.6 7.7 12 8 C11.7 9 11.3 10 11 11 C1.8 11.3 -7.5 11.5 -16.7 11.8 C-21 11.9 -25.3 12 -29.6 12.1 C-34.6 12.3 -39.5 12.4 -44.5 12.6 C-45.2 12.6 -45.2 12.6 -49.1 12.7 C-50.6 12.7 -52 12.8 -53.5 12.8 C-54.7 12.9 -56 12.9 -57.3 12.9 C-61.2 13 -65.1 13 -69 13 C-69.3 11.7 -69.7 10.4 -70 9 C-67.9 6.9 -63.1 7.9 -60.1 7.9 C-58.3 7.8 -56.4 7.8 -54.6 7.8 C-51.6 7.8 -48.7 7.8 -45.8 7.7 C-34.6 7.7 -25.1 7.4 -15 2 C-9.7 -0.3 -5.8 -0.2 0 0 Z M-72 11 C-71.3 11.3 -70.7 11.7 -70 12 C-70.3 12.3 -70.7 12.7 -71 13 C-55.2 13 -39.3 13 -23 13 C-23 13.7 -23 14.3 -23 15 C-27.5 15.3 -32 15.7 -36.6 16 C-37.8 16.1 -39.1 16.2 -40.4 16.3 C-41.7 16.4 -42.9 16.5 -44.2 16.6 C-45.3 16.6 -46.5 16.7 -47.6 16.8 C-51.1 17 -54.5 17 -58 17 C-58 16.7 -58 16.3 -58 16 C-64.6 15.7 -71.2 15.3 -78 15 C-76 13.7 -74 12.3 -72 11 Z " fill="#664B3B" transform="translate(259,235)"/>
<path d="M0 0 C0.2 0.7 0.2 0.7 1 4 C2.3 4.7 3.6 5.3 5 6 C7.2 8.6 7.2 8.6 9 11 C6.8 16.5 3.8 19.5 -1 23 C-4.9 24.4 -4.9 24.4 -8 25 C-8.2 24.7 -8.2 24.7 -9 23 C-10 24 -11 25 -12 26 C-11 26.3 -10 26.7 -9 27 C-19.4 31.6 -29.9 33.9 -41 36 C-40.3 31.7 -39.7 27.4 -39 23 C-38.3 23.3 -37.7 23.7 -37 24 C-37.7 27.3 -38.3 30.6 -39 34 C-38.3 34 -37.7 34 -37 34 C-36.7 31.4 -36.3 28.7 -36 26 C-35.3 26 -34.7 26 -34 26 C-33.7 26.7 -33.3 27.3 -33 28 C-32.3 27.7 -31.7 27.3 -31 27 C-31.7 26.3 -32.3 25.7 -33 25 C-31 24.7 -29 24.3 -27 24 C-27 25.6 -27 27.3 -27 29 C-26.3 29.3 -25.7 29.7 -25 30 C-25 27 -25 24.1 -25 21 C-26.6 21 -28.3 21 -30 21 C-27.1 19.1 -25.4 18.5 -22 18 C-22 21 -22 23.9 -22 27 C-21.3 25 -20.7 23 -20 21 C-19.3 21 -18.7 21 -18 21 C-18 19.7 -18 18.4 -18 17 C-16.4 16.1 -14.8 15.3 -13.1 14.4 C-12.2 14 -11.3 13.5 -10.4 13 C-9.6 12.7 -8.8 12.3 -8 12 C-7.3 12.3 -6.7 12.7 -6 13 C-6 12 -6 11 -6 10 C-7 9.7 -8 9.3 -9 9 C-6 6 -3 3 0 0 Z " fill="#BD8C54" transform="translate(390,443)"/>
<path d="M0 0 C7.2 9.6 6.6 19.4 6 31 C5.7 32.3 5.3 33.6 5 35 C4.6 41.7 5.3 47.5 7 54 C7.2 58.1 7.3 61.1 6 65 C6.1 67.1 6.2 69.2 6.4 71.3 C6.4 79.7 3.7 86.2 -1 93 C-5.9 97.7 -9.1 98.9 -16 99 C-17 98.3 -18 97.7 -19 97 C-16 95 -16 95 -12.2 94.3 C-6.1 92.4 -3.7 88.7 -0.4 83.4 C0.2 79.9 -1.4 78.1 -3 75 C-3.2 71.6 -3.2 71.6 -3 69 C-1.4 69 0.3 69 2 69 C3.9 63 4 59.4 2.1 53.3 C-0.3 44.7 -1.2 36.7 1 28 C1.2 18.6 0.6 9.3 0 0 Z " fill="#F6B97B" transform="translate(276,330)"/>
<path d="M0 0 C4 1 4 1 6.8 2.5 C18 7.9 30.9 7.3 43 7 C44.3 7 45.6 7 47 7 C48.1 11.5 47.8 12.2 45.7 16.2 C45.2 17.1 44.8 17.9 44.3 18.9 C43 21 43 21 41 22 C40.5 21.1 39.9 20.1 39.4 19.2 C35.7 14.3 32.6 13.3 26.7 12.3 C12.4 11.4 12.4 11.4 7 15 C4.6 17.7 4.6 17.7 3 20 C-0.5 13.8 -1.8 9.1 -2 2 C-1.3 1.3 -0.7 0.7 0 0 Z " fill="#693A28" transform="translate(274,209)"/>
<path d="M0 0 C0.9 0.9 1.9 1.7 2.9 2.6 C21.7 18.6 49.1 22.9 73 25 C72 26 71 27 70 28 C70 28.7 70 29.3 70 30 C48.8 31.1 19.5 23.2 3.6 9 C0.8 5.8 0.2 4.2 0 0 Z " fill="#E69C55" transform="translate(192,437)"/>
<path d="M0 0 C1.8 0 3.5 0 5.3 0 C6.2 0 7.2 0 8.1 0 C11.1 0 14.1 0 17.1 0.1 C19.1 0.1 21.1 0.1 23.2 0.1 C28.1 0.1 33.1 0.1 38 0.1 C32.2 7 32.2 7 31 8.1 C27.4 8.4 23.8 8.5 20.2 8.7 C19.2 8.7 18.1 8.8 17 8.8 C2.2 9.4 2.2 9.4 -4 9.1 C-4.6 8.5 -5.3 7.8 -6 7.1 C-5.3 0.2 -5.3 0.2 0 0 Z " fill="#6D4533" transform="translate(102.968994140625,243.886474609375)"/>
<path d="M0 0 C0.8 0.5 0.8 0.5 5 3 C4.2 9.6 4.2 9.6 2 13 C2.1 14.1 2.1 15.1 2.2 16.3 C1.9 21.2 0.1 23.2 -3 26.9 C-3.5 27.5 -3.5 27.5 -5.8 30.4 C-6.5 31.3 -7.3 32.1 -8 33 C-8.3 32.3 -8.7 31.7 -9 31 C-8.3 29.7 -7.7 28.4 -7 27 C-7 25.4 -7 23.7 -7 22 C-7.7 21.7 -8.3 21.3 -9 21 C-16.9 26 -23.9 31.9 -31 38 C-31 37 -31 36 -31 35 C-28.3 32.3 -28.3 32.3 -24.6 29.2 C-23.9 28.7 -23.3 28.1 -22.6 27.6 C-18 23.7 -13.1 20.3 -8 17 C-7 16 -6 15 -5 14 C-3.7 13.3 -2.4 12.7 -1 12 C-1.5 11.6 -1.5 11.6 -3.9 9.6 C-7 7 -7 7 -8 6 C-18.6 8.8 -26.6 12 -35 19 C-36.9 20.5 -38.8 22 -40.7 23.5 C-42.1 24.7 -43.6 25.8 -45 27 C-45 26 -45 25 -45 24 C-42.1 21.4 -42.1 21.4 -38.3 18.6 C-37.1 17.6 -35.8 16.7 -34.6 15.7 C-33.4 14.8 -32.2 13.9 -31 13 C-30.2 12.3 -29.4 11.7 -28.6 11 C-25.9 8.9 -23.6 7.9 -20.3 6.9 C-19.3 6.6 -18.2 6.2 -17.1 5.9 C-16.6 5.7 -16.6 5.7 -13.8 4.8 C-11.6 4.1 -9.5 3.4 -7.3 2.7 C-6.3 2.4 -5.3 2.1 -4.4 1.8 C-2 1 -2 1 0 0 Z " fill="#EC9C51" transform="translate(194,259)"/>
<path d="M0 0 C3.6 -0 7.3 -0 10.9 -0.1 C11.5 -0.1 11.5 -0.1 14.1 -0.1 C16.7 -0.1 19.4 -0.1 22 0 C23 1 23 1 23.1 3.7 C23.1 4.8 23.1 5.9 23.1 7 C23.1 7.5 23.1 7.5 23.1 10.3 C23 13 23 13 22 14 C18.3 14.1 14.6 14.1 10.9 14.1 C9.9 14.1 8.8 14.1 7.8 14 C5.2 14 2.6 14 0 14 C0 9.4 0 4.8 0 0 Z " fill="#DCC5A4" transform="translate(277,471)"/>
<path d="M0 0 C1 0.3 2 0.7 3 1 C2.7 1.5 2.7 1.5 1 4 C2 3.7 3 3.3 4 3 C4 6.6 4 10.3 4 14 C4.4 13.1 4.8 12.3 5.2 11.4 C5.8 10.3 6.3 9.2 6.9 8.1 C7.4 7 7.9 5.9 8.5 4.7 C10 2 10 2 12 1 C11 4.3 10 7.6 9 11 C10.2 10.3 11.5 9.6 12.8 8.9 C17 7 17 7 21 8 C18.2 9.9 16.1 10.7 12.9 11.7 C7.7 13.5 3.7 16 -0.7 19.3 C-3.1 21.1 -5.3 22.7 -8 24 C-9.3 23.7 -10.6 23.3 -12 23 C-11.1 22.3 -10.1 21.5 -9.1 20.8 C-6 18 -6 18 -4 14 C-5.3 14.3 -6.6 14.7 -8 15 C-8 15.7 -8 16.3 -8 17 C-9.6 17.3 -11.3 17.7 -13 18 C-13 18.7 -13 19.3 -13 20 C-15 21.1 -17 22.1 -19 23 C-19.7 22.7 -20.3 22.3 -21 22 C-20.7 21.8 -20.7 21.8 -19.1 20.6 C-18.2 20 -17.4 19.3 -16.6 18.7 C-15.7 18.1 -14.9 17.5 -14.1 16.8 C-12 15 -12 15 -11 12 C-11 10.8 -11.1 9.7 -11.1 8.5 C-11 5 -11 5 -8 2 C-5.7 1.6 -3.3 1.3 -1 1 C-0.7 0.7 -0.3 0.3 0 0 Z " fill="#405349" transform="translate(352,423)"/>
<path d="M0 0 C0.7 0 1.3 0 2 0 C3.1 4.7 2.9 7.3 1.1 11.7 C0.6 12.8 0.2 13.9 -0.3 15 C-0.7 16.1 -1.2 17.2 -1.7 18.3 C-2.1 19.4 -2.6 20.5 -3 21.6 C-3.9 23.8 -4.8 25.9 -5.7 28 C-6.5 29.9 -7.3 31.8 -8.1 33.8 C-9 35.9 -10 37.9 -11 40 C-14.5 41.3 -14.5 41.3 -18 42 C-20.3 44.1 -20.3 44.1 -22 46 C-22.7 46 -23.3 46 -24 46 C-22.5 40.9 -20.2 36.6 -17.6 32 C-16.7 30.4 -15.8 28.8 -15 27.3 C-14.5 26.4 -14 25.6 -13.5 24.7 C-10.8 19.8 -8.1 14.8 -5.4 9.9 C-4.8 8.9 -4.3 7.9 -3.8 6.9 C-2.5 4.6 -1.3 2.3 0 0 Z " fill="#598D8A" transform="translate(126,312)"/>
<path d="M0 0 C0.7 0.3 1.3 0.7 2 1 C0.9 2.3 -0.2 3.6 -1.4 4.9 C-2 5.7 -2.6 6.4 -3.3 7.2 C-5 9 -5 9 -7 10 C-3 9 -3 9 -1 8 C1 8 3 8 5 8 C4.3 8.6 3.6 9.1 2.8 9.7 C1.1 11.2 -0.7 12.6 -2.4 14.1 C-11.4 21.5 -20.6 22.1 -32 22 C-28.8 15.7 -23.2 11.4 -16.5 9.2 C-14 8.4 -11.5 7.7 -9 7 C-9 6.3 -9 5.7 -9 5 C-7.4 4.7 -5.7 4.3 -4 4 C-4 3.3 -4 2.7 -4 2 C-2.7 1.3 -1.4 0.7 0 0 Z " fill="#BDB286" transform="translate(348,436)"/>
<path d="M0 0 C0 2.1 0 4.3 0.1 6.4 C0.1 7.6 0.1 8.8 0.1 10.1 C0 13 0 13 -1 14 C-4.4 14.1 -7.7 14.1 -11.1 14.1 C-12 14.1 -13 14.1 -13.9 14 C-16.3 14 -18.6 14 -21 14 C-21 9.7 -21 5.4 -21 1 C-14 -0.1 -7.1 -0.1 0 0 Z " fill="#CCA17A" transform="translate(324,470)"/>
<path d="M0 0 C7.1 -0.1 13.9 0.2 21 1 C21 5.6 21 10.2 21 15 C17.9 14.9 14.7 14.7 11.6 14.6 C10.7 14.5 9.8 14.5 8.9 14.4 C2.2 14.1 2.2 14.1 0 13 C0 8.7 0 4.4 0 0 Z " fill="#CBA17A" transform="translate(252,469)"/>
<path d="M0 0 C1.4 6 0.7 9.5 -2 15 C-5.5 19.9 -9.1 24.1 -15 26 C-17.9 25.7 -17.9 25.7 -20 25 C-18 21 -18 21 -16 18 C-15.9 16.8 -15.9 15.6 -15.8 14.3 C-14.8 8.7 -12.1 5.8 -8 2 C-5 0 -5 0 0 0 Z " fill="#EB9B4F" transform="translate(381,175)"/>
<path d="M0 0 C-0.8 0.5 -1.6 1 -2.4 1.5 C-8.1 5.2 -13.1 8.4 -17 14 C-12.4 13.7 -7.8 13.3 -3 13 C-8.8 18.8 -18 21.7 -26 23 C-30.8 22.9 -30.8 22.9 -35 22 C-36 20.7 -37 19.4 -38 18 C-36.5 17.8 -34.9 17.5 -33.3 17.3 C-28.3 16.3 -26.3 14.9 -23 11 C-9.1 -2.3 -9.1 -2.3 0 0 Z " fill="#693725" transform="translate(282,74)"/>
<path d="M0 0 C0 2.1 0 4.3 0.1 6.4 C0.1 7.6 0.1 8.8 0.1 10.1 C0 13 0 13 -1 14 C-7.4 15.1 -13.6 15.1 -20 15 C-20.1 10.4 -20.1 6.5 -19 2 C-12.6 0.7 -6.6 -0.2 0 0 Z " fill="#E2C8A9" transform="translate(347,467)"/>
<path d="M0 0 C0.8 0.1 1.6 0.3 2.4 0.4 C7 1.2 11.6 1.9 16.2 2.6 C19 3 19 3 20 4 C20.1 6.2 20.1 8.4 20.1 10.6 C20.1 11.8 20 13 20 14.2 C20 15.1 20 16 20 17 C13.6 17.4 8.1 15.9 2 14 C0.1 9.2 -0.2 5.2 0 0 Z " fill="#C9874E" transform="translate(229,464)"/>
<path d="M0 0 C5.7 1.5 10.8 3.8 15 8 C17 12 17 12 17 15 C16.3 14.7 15.6 14.4 14.8 14.1 C2.8 9.3 -7 7.8 -20 8 C-16.8 -1.8 -8.8 -0.9 0 0 Z " fill="#3A372D" transform="translate(337,144)"/>
<path d="M0 0 C0.7 0 1.3 0 2 0 C1.9 0.6 1.9 0.6 1.4 3.9 C1.3 5.3 1.1 6.6 1 8 C1.2 8.2 1.2 8.2 2 9 C2 10.6 2 12.3 2 14 C-8.4 20.5 -20.6 25.6 -33 25 C-28.6 19.5 -22.6 16.9 -16 15 C-13.3 15.4 -13.3 15.4 -11 16 C-8.2 15.1 -8.2 15.1 -6 14 C-6 13 -6 12 -6 11 C-10 11.7 -13.9 12.3 -18 13 C-16 9 -16 9 -13 8 C-11.9 7.8 -10.7 7.5 -9.5 7.3 C-3.1 6 -3.1 6 -1 5 C-0.4 2.4 -0.4 2.4 0 0 Z " fill="#373D34" transform="translate(378,428)"/>
<path d="M0 0 C2.9 2.2 5 3.9 7 7 C7.7 6.3 8.3 5.7 9 5 C9.7 8.6 10.3 12.3 11 16 C10 17 9 18 8 19 C8.3 19.7 8.7 20.5 9 21.2 C10 24 10 24 10 28 C6 26.7 3.8 25.1 1 22 C0.3 21.3 -0.3 20.7 -1 20 C-2.9 16.2 -3.3 13.1 -3.3 8.9 C-3.3 8.4 -3.3 8.4 -3.4 5.7 C-3 3 -3 3 0 0 Z " fill="#EB9B50" transform="translate(233,155)"/>
<path d="M0 0 C1.5 0 2.9 0 4.4 0 C9.8 0.6 13.1 2 16.9 5.9 C17.5 6.7 18 7.6 18.5 8.4 C18.2 9.8 17.8 11.1 17.5 12.4 C16.8 12.1 16.8 12.1 13 10.4 C3.3 6.9 -7.5 7.8 -17.5 9.4 C-13.6 1.7 -8.4 -0.1 0 0 Z " fill="#3B372D" transform="translate(272.5,137.5625)"/>
<path d="M0 0 C2.6 0.7 5.3 1.4 7.9 2.1 C8.6 2.3 8.6 2.3 12.3 3.3 C16 5 16 5 17.5 7.9 C18.1 11.6 18.6 15.3 19 19 C12.7 17.8 7.5 16.4 2 13 C-0.7 9 -0 4.7 0 0 Z " fill="#CE8B4E" transform="translate(209,457)"/>
<path d="M0 0 C0.7 0.3 1.3 0.7 2 1 C1.3 2.3 0.7 3.6 0 5 C0.7 5.7 1.3 6.3 2 7 C1 8 0 9 -1 10 C-0 10.3 1 10.7 2 11 C-8.4 15.6 -18.9 17.9 -30 20 C-29.3 15.7 -28.7 11.4 -28 7 C-27.3 7.3 -26.7 7.7 -26 8 C-26.7 11.3 -27.3 14.6 -28 18 C-27.3 18 -26.7 18 -26 18 C-25.7 15.4 -25.3 12.7 -25 10 C-24.3 10 -23.7 10 -23 10 C-22.7 10.7 -22.3 11.3 -22 12 C-21.3 11.7 -20.7 11.3 -20 11 C-20.7 10.3 -21.3 9.7 -22 9 C-20 8.7 -18 8.3 -16 8 C-16 9.6 -16 11.3 -16 13 C-15.3 13.3 -14.7 13.7 -14 14 C-14 11 -14 8.1 -14 5 C-15.6 5 -17.3 5 -19 5 C-16.1 3.1 -14.4 2.5 -11 2 C-11 5 -11 7.9 -11 11 C-10.3 9 -9.7 7 -9 5 C-8.7 5 -8.3 5 -8 5 C-8 6.6 -8 8.3 -8 10 C-6.4 9.3 -4.7 8.7 -3 8 C-3.7 7.7 -4.3 7.3 -5 7 C-4.8 4.6 -4.8 4.6 -4 2 C-2.7 1.3 -1.4 0.7 0 0 Z " fill="#A77149" transform="translate(379,459)"/>
<path d="M0 0 C-1.8 3.2 -3.4 5.4 -6 8 C-13.2 9.9 -20.6 10.3 -28 10 C-29.1 4.2 -29.1 4.2 -28 2 C-19 -0.3 -9.3 -0.2 0 0 Z " fill="#5C3E2E" transform="translate(127,258)"/>
<path d="M0 0 C-15.8 10.7 -32 14.6 -51 14 C-51.7 13.7 -52.3 13.3 -53 13 C-53 12 -53 11 -53 10 C-52.5 10 -52.5 10 -49.7 10.1 C-45.1 10 -41.1 9.4 -36.6 8.4 C-34 8 -34 8 -29 8 C-27.7 7.3 -26.4 6.7 -25 6 C-21.8 4.9 -18.6 3.9 -15.4 2.9 C-13.7 2.4 -12 1.9 -10.3 1.3 C-8.9 0.9 -7.5 0.5 -6 0 C-3 -1 -3 -1 0 0 Z " fill="#EB9B4F" transform="translate(400,482)"/>
<path d="M0 0 C0.2 0.7 0.2 0.7 1 4 C0.4 4.5 -0.1 5 -0.7 5.5 C-1.1 5.8 -1.1 5.8 -2.9 7.4 C-3.7 8 -4.4 8.6 -5.2 9.3 C-7 11 -7 11 -8 13 C-7 13 -6 13 -5 13 C-5.3 15 -5.7 17 -6 19 C-6.7 18.3 -7.3 17.7 -8 17 C-9.3 17.7 -10.6 18.3 -11.9 19 C-16 21 -16 21 -18 21 C-18.3 22.3 -18.7 23.6 -19 25 C-19 23.4 -19 21.7 -19 20 C-17 19.3 -15 18.7 -13 18 C-13 17.3 -13 16.7 -13 16 C-15.1 16.6 -17.2 17.2 -19.3 17.9 C-20.5 18.2 -21.7 18.6 -22.9 18.9 C-26 20 -26 20 -29 22 C-31.7 22.4 -31.7 22.4 -34.7 22.6 C-35.2 22.7 -35.2 22.7 -37.7 22.9 C-38.5 22.9 -39.2 22.9 -40 23 C-39 22.3 -38 21.7 -37 21 C-37.3 20.3 -37.7 19.7 -38 19 C-36.6 18.6 -35.2 18.1 -33.8 17.7 C-8.4 9.6 -8.4 9.6 0 0 Z " fill="#855033" transform="translate(390,439)"/>
<path d="M0 0 C0.7 0.3 1.3 0.7 2 1 C0.2 2.8 -2.7 2.4 -5.1 2.7 C-11.5 3.7 -14.7 5 -19 10 C-20.9 13 -22.6 16.1 -24.2 19.2 C-26.1 22.2 -28.1 23.9 -31 26 C-31.7 25.7 -32.3 25.3 -33 25 C-32.4 24.4 -31.8 23.8 -31.2 23.2 C-28.7 19.5 -27.5 16 -26 11.8 C-24.3 7 -22.6 2.5 -18.9 -1 C-12.6 -3.2 -6.1 -2.6 0 0 Z " fill="#E99A4F" transform="translate(328,110)"/>
<path d="M0 0 C1 1 2 2 3 3 C3 3.7 3 4.3 3 5 C3.8 5.2 3.8 5.2 8 6 C8 6.3 8 6.7 8 7 C7 7.1 5.9 7.2 4.9 7.3 C1 8 -1.6 9.1 -5 11 C-6 9 -6 9 -6 8 C-6.3 8.7 -6.7 9.4 -7 10.2 C-7.5 11.1 -7.9 12 -8.4 12.9 C-8.6 13.4 -8.6 13.4 -9.7 15.7 C-11 18 -11 18 -13 19 C-13 15.4 -13 11.7 -13 8 C-13.7 8 -14.3 8 -15 8 C-15.3 8.7 -15.7 9.3 -16 10 C-15.7 8.7 -15.3 7.4 -15 6 C-16 6 -17 6 -18 6 C-18 3 -18 3 -16 1 C-14 1 -12 1 -10 1 C-5.6 -1.2 -4.5 -1.3 0 0 Z " fill="#3E675F" transform="translate(368,419)"/>
<path d="M0 0 C4.4 0.6 7.8 2.3 11.8 4.3 C25.5 10.8 39.4 13.2 54.4 13.1 C55.5 13.1 56.5 13.1 57.5 13 C60 13 62.5 13 65 13 C65.2 13.3 65.2 13.3 66 15 C62 15 58.1 15 54.1 15.1 C53 15.1 51.9 15.1 50.8 15.1 C44.1 15.1 37.6 14.8 31 14 C30.3 15.3 29.7 16.6 29 18 C27 17.7 25 17.3 23 17 C22.7 16 22.3 15 22 14 C20 13.3 18 12.6 16 12 C13.5 10.6 11.1 9.1 8.8 7.6 C7.5 6.8 6.3 6 5 5.2 C2 3 2 3 0 0 Z " fill="#EAE6D2" transform="translate(230,504)"/>
<path d="M0 0 C0.3 1 0.7 2 1 3 C-0.3 4.6 -1.6 6.3 -3 8 C-1.7 7.7 -0.4 7.3 1 7 C1 8 1 9 1 10 C-8 16.4 -17.2 20.7 -28 23 C-28 22 -28 21 -28 20 C-27.3 20 -26.7 20 -26 20 C-25.7 18.7 -25.3 17.4 -25 16 C-22.2 14.6 -22.2 14.6 -18.8 13.4 C-14.5 12 -10.8 10.4 -7 8 C-6.3 8 -5.7 8 -5 8 C-5 6 -5 4 -5 2 C-2 0 -2 0 0 0 Z " fill="#ECE4CF" transform="translate(385,434)"/>
<path d="M0 0 C6.4 0.4 6.4 0.4 9 3.2 C10.2 6.6 10 8.5 9 12 C7 15 7 15 4.2 15.9 C0.3 16 -1.1 15.6 -4 13 C-5.1 9.7 -5.1 9.7 -5 6 C-2.6 2.6 -2.6 2.6 0 0 Z " fill="#47483E" transform="translate(327,169)"/>
<path d="M0 0 C3.5 -0.4 3.5 -0.4 7 0 C10 3 10 3 10.4 7.5 C10 12 10 12 7 15 C3.6 15.5 3.6 15.5 0 15 C-2.5 12.9 -2.5 12.9 -4 10 C-3.9 5.3 -2.9 3.9 0 0 Z " fill="#46483E" transform="translate(270,162)"/>
<path d="M0 0 C0.7 0.3 1.3 0.7 2 1 C3.1 8.9 2.5 14.4 0 22 C-0.3 28.5 0.4 33.6 2 40 C2.1 42.7 2.1 45.3 2 48 C1.3 46.7 0.7 45.4 0 44 C-0.7 43 -1.3 42 -2 41 C-5.4 34.3 -6.5 27.8 -5.2 20.4 C-4.8 19.3 -4.4 18.2 -4 17 C-3.7 16 -3.3 15 -3 14 C-2.3 14 -1.7 14 -1 14 C-0.7 9.4 -0.3 4.8 0 0 Z " fill="#F6B26E" transform="translate(296,302)"/>
<path d="M0 0 C13.3 0.4 26 2.4 39 5 C39.2 5.5 39.2 5.5 40 8 C26.8 8.4 12.8 8.8 1 2 C0.7 1.3 0.3 0.7 0 0 Z " fill="#ECF0E9" transform="translate(277,209)"/>
<path d="M0 0 C0.3 0 0.7 0 1 0 C1.1 1.4 1.3 2.8 1.4 4.3 C1.6 6.2 1.8 8.1 1.9 9.9 C2 10.9 2.1 11.8 2.2 12.7 C2.6 17.1 3.1 21.5 3.6 25.9 C4.7 36.7 3.2 46.3 1 57 C-1.8 52.8 -3.1 49.6 -2.8 44.6 C-2 41 -2 41 -0.4 37.8 C2.7 29.5 1 23 -2 15 C-2.6 9.7 -2.5 4.8 0 0 Z " fill="#628982" transform="translate(274,317)"/>
<path d="M0 0 C5.4 2.1 7.5 3.4 11 8 C8.8 12.4 7.2 13.7 3 16 C2 15.7 1 15.3 0 15 C0.7 13.7 1.3 12.4 2 11 C1.7 8 1.3 5.7 0 3 C-2.3 2.7 -4.6 2.3 -7 2 C-10.3 5.6 -11.5 8.1 -12 13 C-15 10 -15 10 -15.4 6.5 C-15.3 5.3 -15.1 4.2 -15 3 C-9.8 -0.9 -6.3 -0.8 0 0 Z " fill="#E7ECE3" transform="translate(334,168)"/>
<path d="M0 0 C-1 0.7 -2 1.3 -3 2 C-2.8 2.3 -2.8 2.3 -2 4 C-3 4.1 -3.9 4.2 -4.9 4.4 C-16.8 5.9 -16.8 5.9 -22.4 7.2 C-27.4 8.1 -31 7.8 -36 7 C-35 6.3 -34 5.7 -33 5 C-33.3 4.3 -33.7 3.7 -34 3 C-33.1 2.9 -32.2 2.8 -31.3 2.6 C-25.6 1.8 -19.9 1 -14.2 -0.2 C-9.2 -1.1 -5 -0.8 0 0 Z " fill="#CE884A" transform="translate(356,459)"/>
<path d="M0 0 C1.4 2.8 1.3 5.4 1.4 8.5 C1.7 12.8 2.1 16.9 3.1 21.1 C4.4 26.9 4.6 33 4 39 C3.3 39.7 2.7 40.3 2 41 C1.9 40.2 1.7 39.4 1.6 38.6 C1.4 37.6 1.2 36.6 1.1 35.6 C0.9 34.6 0.7 33.5 0.5 32.5 C0 30 0 30 -1 29 C-1.1 26.2 -1 23.5 -0.9 20.8 C-1 18 -1 18 -2 14 C-2.3 15 -2.7 16 -3 17 C-4.3 16.7 -5.6 16.3 -7 16 C-6.7 14 -6.3 12 -6 10 C-5 10 -4 10 -3 10 C-2.7 7 -2.3 4.1 -2 1 C-1.3 0.7 -0.7 0.3 0 0 Z " fill="#B89461" transform="translate(274,263)"/>
<path d="M0 0 C0 0.7 0 1.3 0 2 C-6.6 2 -13.2 2 -20 2 C-20 2.7 -20 3.3 -20 4 C-22.1 4.2 -24.3 4.4 -26.4 4.6 C-27 4.6 -27 4.6 -30.1 4.9 C-31 4.9 -32 5 -33 5 C-33.2 4.8 -33.2 4.8 -34 4 C-37.6 3.9 -41.2 3.9 -44.8 3.9 C-45.9 3.9 -47 3.9 -48.1 3.9 C-51.6 3.9 -55.1 3.9 -58.6 3.9 C-60.9 3.9 -63.3 3.9 -65.6 4 C-71.4 4 -77.2 4 -83 4 C-82 3 -81 2 -80 1 C-80 1.7 -80 2.3 -80 3 C-78.9 2.8 -77.8 2.7 -76.6 2.5 C-71.8 2 -67.1 1.8 -62.3 1.7 C-61.9 1.7 -61.9 1.7 -59.6 1.7 C-56.6 1.6 -53.7 1.6 -50.8 1.5 C-38.5 1.3 -26.2 1 -13.9 0.3 C-9.3 0.1 -4.7 -0 0 0 Z " fill="#333B32" transform="translate(270,245)"/>
<path d="M0 0 C3.6 -0 7.3 -0 10.9 -0.1 C11.5 -0.1 11.5 -0.1 14.1 -0.1 C16.7 -0.1 19.4 -0.1 22 0 C23 1 23 1 23.1 3.7 C23.1 4.8 23.1 5.9 23.1 7 C23.1 7.5 23.1 7.5 23.1 10.3 C23 13 23 13 22 14 C18.3 14.1 14.6 14.1 10.9 14.1 C9.9 14.1 8.8 14.1 7.8 14 C5.2 14 2.6 14 0 14 C0 9.4 0 4.8 0 0 Z M2 2 C2 5 2 8 2 11 C3 12 3 12 6.8 12.1 C7.6 12.1 7.6 12.1 11.6 12.1 C13.1 12.1 14.7 12 16.3 12 C16.9 12 16.9 12 20 12 C20 9 20 6 20 3 C19 2 19 2 15.2 1.9 C13.6 1.9 12.1 1.9 10.4 1.9 C8.9 1.9 7.3 2 5.7 2 C4.5 2 3.3 2 2 2 Z " fill="#A3683E" transform="translate(277,471)"/>
<path d="M0 0 C-0.5 0 -0.5 0 -3.3 0.3 C-19.1 1.9 -29.7 4.7 -42 15 C-43.9 16.5 -45.7 18 -47.6 19.6 C-48.4 20.2 -49.2 20.9 -50 21.6 C-52 23 -52 23 -54 23 C-54 22.3 -54 21.7 -54 21 C-52.1 19.6 -50.2 18.2 -48.2 16.8 C-45.3 14.5 -43 11.8 -40.6 8.9 C-40.1 8.3 -39.6 7.7 -39 7 C-38.4 6.3 -37.8 5.6 -37.2 4.9 C-34.4 2.5 -32.2 2.1 -28.6 1.4 C-22.6 0.3 -16.7 -1 -10.7 -2.5 C-6.4 -3.3 -3.8 -1.9 0 0 Z " fill="#EB9B4F" transform="translate(188,251)"/>
<path d="M0 0 C0.7 0.3 1.3 0.7 2 1 C2 2 2 3 2 4 C-4.9 7.5 -9.9 8.5 -17.6 8.2 C-18 8.2 -18 8.2 -20.3 8.2 C-22.6 8.1 -24.8 8.1 -27 8 C-18.7 2.4 -10 -1 0 0 Z " fill="#4C7E79" transform="translate(259,235)"/>
<path d="M0 0 C12.7 9.5 12.7 9.5 14 18 C13.7 19.3 13.3 20.6 13 22 C6.8 18.7 3.7 16.6 1.4 9.9 C0.4 6.3 0 3.7 0 0 Z " fill="#E0B17F" transform="translate(195,447)"/>
<path d="M0 0 C0.7 0 1.3 0 2 0 C2 0.6 2 0.6 1.9 3.7 C1.9 4.5 1.9 4.5 1.8 8.6 C1.8 10.2 1.7 11.7 1.7 13.4 C2 18 3 20.9 5 25 C5.4 29.6 5 32.8 3 37 C2.3 35.7 1.7 34.4 1 33 C0.3 31.6 -0.4 30.2 -1.1 28.8 C-5.2 19.3 -2.1 9.7 0 0 Z " fill="#BD9560" transform="translate(299,362)"/>
<path d="M0 0 C2.6 2.1 2.6 2.1 4.6 4.1 C4.5 7.6 4.5 7.6 3.6 11.1 C2.3 12.1 1 13.1 -0.4 14.1 C-0.4 13.4 -0.3 12.6 -0.3 11.8 C-0.3 10.8 -0.3 9.8 -0.2 8.8 C-0.2 7.8 -0.2 6.8 -0.2 5.7 C-0.4 3.1 -0.4 3.1 -2.4 1.1 C-6 1 -6 1 -9.4 1.1 C-12.4 5.2 -12.7 8.1 -12.4 13.1 C-15.6 11.3 -17.3 10.3 -19.4 7.1 C-19.4 5.5 -19.4 3.8 -19.4 2.1 C-13.4 -2.4 -6.8 -3.8 0 0 Z " fill="#E7EBE0" transform="translate(279.375,161.875)"/>
<path d="M0 0 C3.3 -0.2 3.3 -0.2 7 0 C10 3 10 3 10.2 6.2 C10.2 6.7 10.2 6.7 10 9 C7.4 9.5 4.8 10 2.2 10.6 C0.7 10.9 -0.7 11.1 -2.2 11.4 C-6 12 -6 12 -9 11 C-8.3 11 -7.7 11 -7 11 C-6.3 9.7 -5.7 8.4 -5 7 C-4 5.3 -3 3.7 -2 2 C-1.3 2 -0.7 2 0 2 C0 1.3 0 0.7 0 0 Z " fill="#F3A962" transform="translate(156,230)"/>
<path d="M0 0 C2.1 0.3 4.2 0.6 6.3 0.9 C7.5 1.1 8.7 1.3 9.9 1.5 C13 2 13 2 16 3 C16 5.6 16 8.3 16 11 C10.3 11.4 6.2 10.2 1 8 C0.7 5.4 0.3 2.7 0 0 Z " fill="#E4CBAC" transform="translate(231,467)"/>
<path d="M0 0 C7.2 9.6 6.6 19.4 6 31 C5.7 32.3 5.3 33.6 5 35 C4.3 35 3.7 35 3 35 C2.7 34.3 2.3 33.7 2 33 C1.7 33.2 1.7 33.2 0 34 C0.2 33.2 0.3 32.5 0.5 31.7 C1.9 21.2 0.7 10.5 0 0 Z " fill="#F6AE68" transform="translate(276,330)"/>
<path d="M0 0 C0 2.1 0 4.3 0.1 6.4 C0.1 7.6 0.1 8.8 0.1 10.1 C0 13 0 13 -1 14 C-7.4 15.1 -13.6 15.1 -20 15 C-20.1 10.4 -20.1 6.5 -19 2 C-12.6 0.7 -6.6 -0.2 0 0 Z M-11.1 3 C-11.8 3.1 -11.8 3.1 -15 3.6 C-15.5 3.6 -15.5 3.6 -18 4 C-18 7 -18 9.9 -18 13 C-13.1 12.7 -8.1 12.3 -3 12 C-2.7 8.7 -2.3 5.4 -2 2 C-5.1 2 -8.1 2.6 -11.1 3 Z " fill="#B57847" transform="translate(347,467)"/>
<path d="M0 0 C0.7 0 1.3 0 2 0 C2 0.8 2 1.6 2 2.4 C1.9 5.9 1.9 9.5 1.9 13 C1.9 14.2 1.8 15.4 1.8 16.7 C1.8 23.2 2.2 28.7 4 35 C3.6 39.5 3.6 39.5 3 43 C-2.6 31.8 -3.7 21.6 -1.6 9.4 C-1.4 8.5 -1.3 7.6 -1.1 6.6 C-0.8 4.4 -0.4 2.2 0 0 Z " fill="#F8B16B" transform="translate(283,253)"/>
<path d="M0 0 C1.4 0 2.9 0 4.4 0 C4.9 0 4.9 0 7.7 0.1 C4.5 2.2 3.2 2.4 -0.5 2.7 C-1.5 2.8 -2.5 2.9 -3.6 3.1 C-4.8 3.2 -5.9 3.2 -7.1 3.4 C-8.2 3.5 -9.4 3.6 -10.6 3.7 C-13.1 3.9 -15.6 4.1 -18.1 4.3 C-21.8 4.7 -25.6 5 -29.4 5.4 C-31.8 5.6 -34.2 5.8 -36.6 6 C-37.2 6.1 -37.2 6.1 -40 6.4 C-46.5 6.9 -52.8 7.2 -59.3 7.1 C-59.3 6.4 -59.3 5.7 -59.3 5.1 C-57.9 4.9 -56.6 4.8 -55.2 4.7 C-50.1 4.3 -45 3.8 -39.9 3.4 C-37.7 3.2 -35.5 3 -33.3 2.8 C-30.2 2.6 -27 2.3 -23.9 2 C-22.9 2 -21.9 1.9 -20.9 1.8 C-13.9 1.2 -13.9 1.2 -10.8 0.5 C-7.2 -0.2 -3.7 -0 0 0 Z " fill="#37352B" transform="translate(262.3125,250.9375)"/>
<path d="M0 0 C0.3 0.7 0.7 1.3 1 2 C0.1 4.7 -0.9 7.4 -2 10 C-0.8 9.3 0.5 8.6 1.8 7.9 C6 6 6 6 10 7 C7.2 8.9 5.1 9.7 1.9 10.7 C-3.3 12.5 -7.3 15 -11.7 18.3 C-14.1 20.1 -16.3 21.7 -19 23 C-20.3 22.7 -21.6 22.3 -23 22 C-22.3 21.6 -21.6 21.2 -20.9 20.8 C-19.9 20.2 -19 19.6 -18 19 C-16.9 18.4 -15.9 17.8 -14.8 17.1 C-12 15 -12 15 -11.2 12.7 C-11.2 12.2 -11.2 12.2 -11 10 C-10.8 8.7 -10.6 7.5 -10.4 6.2 C-10.3 5.1 -10.1 4.1 -10 3 C-9 2.7 -8 2.3 -7 2 C-7 5.6 -7 9.3 -7 13 C-6.6 12.1 -6.2 11.3 -5.7 10.4 C-5.2 9.3 -4.6 8.2 -4.1 7.1 C-3.5 6 -3 4.9 -2.4 3.7 C-1 1 -1 1 0 0 Z " fill="#32362D" transform="translate(363,424)"/>
<path d="M0 0 C0.3 0.7 0.7 1.3 1 2 C0.5 2.6 0.1 3.2 -0.4 3.9 C-1.9 6.8 -2.4 8.8 -2.9 12.1 C-3.7 16.2 -4.5 18.4 -8 21 C-9 20.7 -10 20.3 -11 20 C-10.7 18.7 -10.3 17.4 -10 16 C-10.7 16.3 -10.7 16.3 -14 18 C-14.3 19.3 -14.7 20.6 -15 22 C-14 22.3 -13 22.7 -12 23 C-12.7 23.7 -13.3 24.3 -14 25 C-15.3 25 -16.6 25 -18 25 C-17.8 23.5 -17.8 23.5 -17 16 C-15.4 15.1 -13.8 14.3 -12.1 13.4 C-11.7 13.2 -11.7 13.2 -9.4 12 C-9 11.8 -9 11.8 -7 11 C-6.3 11.3 -5.7 11.7 -5 12 C-5 11 -5 10 -5 9 C-6 8.7 -7 8.3 -8 8 C-5.3 5.3 -2.7 2.7 0 0 Z " fill="#E6C491" transform="translate(389,444)"/>
<path d="M0 0 C4.4 1.1 8.7 2.5 13 4 C13.3 7 13.7 9.9 14 13 C9.1 12.4 5.3 10.3 1 8 C0.7 5.4 0.3 2.7 0 0 Z " fill="#E9CFAC" transform="translate(211,460)"/>
<path d="M0 0 C2.5 3.7 2.2 5.7 2 10 C1.7 11 1.3 12 1 13 C0 13 -1 13 -2 13 C-2 14.6 -2 16.3 -2 18 C-6.2 15.9 -6.9 14.9 -9 11 C-7.3 7.3 -5.9 4.9 -3 2 C-2.3 2 -1.7 2 -1 2 C-0.7 1.3 -0.3 0.7 0 0 Z " fill="#F7AF68" transform="translate(270,260)"/>
<path d="M0 0 C-0.7 1 -1.3 2 -2 3 C-5.7 3.4 -9.2 3.6 -12.9 3.7 C-13.4 3.7 -13.4 3.7 -16 3.8 C-23 4 -30 4.1 -37 4 C-37.3 3 -37.7 2 -38 1 C-25.3 0.1 -12.7 -0.1 0 0 Z " fill="#36352B" transform="translate(136,249)"/>
<path d="M0 0 C-1.3 1 -2.6 2 -4 3 C-4 3.3 -4 3.7 -4 4 C-14.1 5.2 -24.1 5.1 -34.2 5.1 C-35.9 5.1 -37.7 5.1 -39.4 5 C-43.6 5 -47.8 5 -52 5 C-52 4.7 -52 4.3 -52 4 C-47.9 3.8 -47.9 3.8 -27 3 C-28.6 3 -30.3 3 -32 3 C-32 2.3 -32 1.7 -32 1 C-28.4 0.8 -24.7 0.7 -21.1 0.5 C-20 0.5 -19 0.4 -18 0.4 C-12 0.1 -6 -0.1 0 0 Z " fill="#693725" transform="translate(327,463)"/>
<path d="M0 0 C0.3 0 0.7 0 1 0 C1.2 1.1 1.4 2.1 1.6 3.2 C1.8 4.6 2.1 6 2.4 7.4 C2.6 8.9 2.9 10.4 3.2 11.9 C4 16 4 16 5.3 20.8 C6.2 26.5 5.2 31.4 4 37 C3.7 37 3.3 37 3 37 C3 35.4 3 33.7 3 32 C1.4 32 -0.3 32 -2 32 C-1.5 28.6 -0.9 25.6 0.2 22.3 C1.1 17.5 0.5 14.3 -0.6 9.6 C-1.1 6.2 -0.7 3.3 0 0 Z " fill="#C3955D" transform="translate(275,367)"/>
</svg>
