<?xml version="1.0" encoding="UTF-8"?>
<svg xmlns="http://www.w3.org/2000/svg" width="600" height="600" viewBox="0 0 600 600" role="img" aria-label="Eat">
  <rect width="600" height="600" fill="#EEF3EE"/>
  <rect y="470" width="600" height="130" fill="#D5E4D7"/>
  <ellipse cx="335" cy="470" rx="220" ry="25" fill="#BFD2C2"/>

  <path d="M84 470 L104 330 Q110 298 145 292 L236 292 Q270 298 279 330 L300 470 Z" fill="#5A8B8B"/>
  <circle cx="198" cy="211" r="88" fill="#5C4033"/>
  <circle cx="207" cy="222" r="66" fill="#E8C4A8"/>
  <path d="M126 202 Q142 129 215 130 Q278 135 290 199 Q250 168 198 174 Q157 175 126 202" fill="#5C4033"/>
  <circle cx="220" cy="212" r="5" fill="#3A3F45"/>
  <path d="M239 237 Q253 226 269 238" fill="#3A3F45"/>
  <ellipse cx="264" cy="241" rx="13" ry="10" fill="#B9412E"/>

  <ellipse cx="389" cy="430" rx="142" ry="38" fill="#B9412E"/>
  <path d="M267 374 Q389 414 511 374 L487 438 Q389 484 291 438 Z" fill="#F5E8D0"/>
  <ellipse cx="389" cy="374" rx="122" ry="42" fill="#B9412E"/>
  <ellipse cx="389" cy="370" rx="100" ry="27" fill="#E8A84A"/>
  <path d="M316 364 Q338 346 360 366 T404 366 T448 366" fill="none" stroke="#F0C070" stroke-width="10" stroke-linecap="round"/>

  <path d="M226 335 Q277 318 318 344" fill="none" stroke="#E8C4A8" stroke-width="32" stroke-linecap="round"/>
  <circle cx="320" cy="344" r="20" fill="#E8C4A8"/>
  <path d="M322 340 L274 252" stroke="#8B6540" stroke-width="10" stroke-linecap="round"/>
  <path d="M343 331 L287 245" stroke="#6E5235" stroke-width="10" stroke-linecap="round"/>
  <path d="M278 251 C298 275 303 309 317 350" fill="none" stroke="#F0C070" stroke-width="8" stroke-linecap="round"/>
  <path d="M290 253 C309 278 314 311 329 354" fill="none" stroke="#F0C070" stroke-width="7" stroke-linecap="round"/>
</svg>
